<?xml version="1.0" encoding="UTF-8" standalone="no"?>
<!-- Created with Inkscape (http://www.inkscape.org/) -->

<svg
   width="52.965694mm"
   height="63.445549mm"
   viewBox="0 0 52.965694 63.445549"
   version="1.1"
   id="svg1"
   xmlns:inkscape="http://www.inkscape.org/namespaces/inkscape"
   xmlns:sodipodi="http://sodipodi.sourceforge.net/DTD/sodipodi-0.dtd"
   xmlns="http://www.w3.org/2000/svg"
   xmlns:svg="http://www.w3.org/2000/svg">
  <sodipodi:namedview
     id="namedview1"
     pagecolor="#ffffff"
     bordercolor="#000000"
     borderopacity="0.25"
     inkscape:showpageshadow="2"
     inkscape:pageopacity="0.0"
     inkscape:pagecheckerboard="0"
     inkscape:deskcolor="#d1d1d1"
     inkscape:document-units="mm" />
  <defs
     id="defs1" />
  <g
     inkscape:label="Layer 1"
     inkscape:groupmode="layer"
     id="layer1"
     transform="translate(732.34401,640.47618)">
    <g
       id="g103"
       transform="translate(-978.80588,-697.29835)"
       inkscape:export-filename="0.svg"
       inkscape:export-xdpi="96"
       inkscape:export-ydpi="96">
      <path
         id="path11-4-78-1-5-9-2-8"
         style="fill:#808080;stroke:none;stroke-width:0.390125;stroke-linejoin:round;stroke-dasharray:none"
         d="m 275.39537,95.577165 2e-5,8.320145 4.97052,0.0536 -7.72291,9.83796 c -0.18784,0 -7.11944,-9.99958 -7.11944,-9.99958 l 4.92588,0.0536 v -8.266255 z" />
      <g
         id="g142"
         transform="translate(-0.33917)">
        <path
           style="fill:#ffffff;stroke:#000000;stroke-width:1.594;stroke-linejoin:round;stroke-dasharray:none"
           d="m 247.59803,75.092332 0.0331,4.367932 c 5.80328,0.607009 7.11521,3.278705 7.33942,10.822347 v 29.188149 h 3.66216 V 90.282611 c -0.053,-9.94655 -3.49192,-15.190279 -11.03466,-15.190279 z"
           id="rect5-8-3-8-1-8-2-2-7-2-3-0-8-8-9-9-1" />
        <path
           style="fill:#ffffff;stroke:#000000;stroke-width:1.594;stroke-linejoin:round;stroke-dasharray:none"
           d="m 298.96978,75.092332 -0.0331,4.367932 c -5.80328,0.607009 -7.11521,3.278705 -7.33942,10.822347 V 119.47076 H 287.9351 V 90.282611 c 0.053,-9.94655 3.49192,-15.190279 11.03466,-15.190279 z"
           id="rect5-8-3-8-1-8-2-2-7-2-3-0-8-8-9-9-1-1" />
      </g>
      <path
         id="rect24-0-5"
         style="fill:#000000;stroke:#ffffff;stroke-width:0.616608;stroke-linejoin:round;stroke-dasharray:none"
         d="m 272.4103,57.13045 -2.6249,9.394868 -8.95732,-4.560805 4.27577,9.242353 -8.80511,3.317875 8.80511,3.317831 -4.98837,8.624986 8.69619,-4.917148 3.52734,9.513374 3.52731,-9.513374 9.0071,5.130939 -4.84587,-9.292213 9.56319,-2.935714 -9.56319,-2.935713 3.70566,-9.19689 -8.69802,4.204499 z"
         sodipodi:nodetypes="ccccccccccccccccc" />
    </g>
  </g>
</svg>
