<?xml version="1.0" encoding="UTF-8" standalone="no"?>
<!-- Created with Inkscape (http://www.inkscape.org/) -->

<svg
   width="30.56719mm"
   height="65.002785mm"
   viewBox="0 0 30.56719 65.002785"
   version="1.1"
   id="svg1"
   xmlns:inkscape="http://www.inkscape.org/namespaces/inkscape"
   xmlns:sodipodi="http://sodipodi.sourceforge.net/DTD/sodipodi-0.dtd"
   xmlns="http://www.w3.org/2000/svg"
   xmlns:svg="http://www.w3.org/2000/svg">
  <sodipodi:namedview
     id="namedview1"
     pagecolor="#ffffff"
     bordercolor="#000000"
     borderopacity="0.25"
     inkscape:showpageshadow="2"
     inkscape:pageopacity="0.0"
     inkscape:pagecheckerboard="0"
     inkscape:deskcolor="#d1d1d1"
     inkscape:document-units="mm" />
  <defs
     id="defs1" />
  <g
     inkscape:label="Layer 1"
     inkscape:groupmode="layer"
     id="layer1"
     transform="translate(721.14473,534.25529)">
    <g
       id="g16"
       transform="translate(-979.0091,-654.33343)"
       inkscape:export-filename="1.svg"
       inkscape:export-xdpi="96"
       inkscape:export-ydpi="96">
      <path
         id="rect1-7-3-7"
         style="opacity:1;stroke:#ffffff;stroke-width:0.374331;stroke-linejoin:round;stroke-dasharray:none;stroke-dashoffset:0;stroke-opacity:1"
         d="m 268.5439,130.52252 c 0.8248,0.37079 1.55537,1.91938 1.01015,2.65 l -6.16584,8.26266 c -0.5452,0.73063 -1.52097,1.09813 -2.34578,0.72733 -0.82479,-0.37079 -1.27824,-1.36971 -0.79378,-2.14195 l 5.50107,-8.76871 c 0.48446,-0.77224 1.96939,-1.10012 2.79418,-0.72933 z"
         sodipodi:nodetypes="sssssss"
         inkscape:transform-center-x="2.8406979"
         inkscape:transform-center-y="4.673961" />
      <path
         id="rect1-7-2-76-1"
         style="opacity:1;stroke:#ffffff;stroke-width:0.374331;stroke-linejoin:round;stroke-dasharray:none;stroke-dashoffset:0;stroke-opacity:1"
         d="m 277.80255,130.11668 c -0.82819,0.36316 -1.57302,1.90494 -1.03459,2.64057 l 6.08928,8.31924 c 0.53844,0.73563 1.51077,1.11213 2.33896,0.74897 0.8282,-0.36316 1.29084,-1.35786 0.81353,-2.13454 l -5.41984,-8.81913 c -0.47733,-0.77669 -1.95914,-1.11828 -2.78734,-0.75511 z"
         sodipodi:nodetypes="sssssss"
         inkscape:transform-center-x="-2.9686625"
         inkscape:transform-center-y="4.0653434" />
      <path
         id="rect1-9-4-4-31"
         style="stroke:#ffffff;stroke-width:0.387927;stroke-linejoin:round;stroke-dasharray:none;stroke-dashoffset:0;stroke-opacity:1"
         d="m 276.05972,166.76739 h 1.61153 c 0.9107,0 1.75553,0.79641 1.64385,1.76906 l -1.59696,13.90724 c -0.11169,0.97267 -0.0213,1.63698 -0.93197,1.63698 h -0.72645 c -0.91068,0 -1.64383,-0.78901 -1.64383,-1.76907 v -13.77515 c 0,-0.98005 0.73315,-1.76906 1.64383,-1.76906 z"
         sodipodi:nodetypes="sssssssss" />
      <path
         id="rect1-9-1-95"
         style="stroke:#ffffff;stroke-width:0.387927;stroke-linejoin:round;stroke-dasharray:none;stroke-dashoffset:0;stroke-opacity:1"
         d="m 267.79569,166.8543 h 1.61153 c 0.91068,0 1.68037,0.78979 1.64383,1.76906 l -0.51391,13.77515 c -0.0365,0.97927 -0.73315,1.76906 -1.64384,1.76906 h -0.61225 c -0.91069,0 -0.87342,-0.79309 -0.95651,-1.76906 l -1.1727,-13.77515 c -0.0831,-0.97597 0.73315,-1.76906 1.64385,-1.76906 z"
         sodipodi:nodetypes="sssssssss" />
      <path
         id="rect1-9-69"
         style="stroke:#ffffff;stroke-width:0.359059;stroke-linejoin:round;stroke-dasharray:none;stroke-dashoffset:0;stroke-opacity:1"
         d="m 267.86574,153.00392 2.62667,0.0372 c 0.91256,0.0129 2.55276,0.81702 2.43465,1.64777 l -1.79886,12.65354 c -0.11809,0.83076 -0.73474,1.51227 -1.64742,1.51227 h -1.61504 c -0.91268,0 -1.64402,-0.67447 -1.64742,-1.51227 l -0.0522,-12.81021 c -0.003,-0.83779 0.78704,-1.54114 1.69961,-1.52824 z"
         sodipodi:nodetypes="ssssssssss" />
      <path
         id="rect1-9-4-41"
         style="stroke:#ffffff;stroke-width:0.359059;stroke-linejoin:round;stroke-dasharray:none;stroke-dashoffset:0;stroke-opacity:1"
         d="m 275.03442,152.85534 2.74806,0.0743 c 0.91229,0.0247 1.70305,0.72239 1.69963,1.56018 l -0.0522,12.77827 c -0.003,0.83779 -0.73475,1.51228 -1.64743,1.51228 h -1.61504 c -0.91267,0 -1.51502,-0.68334 -1.64743,-1.51228 l -2.06786,-12.94564 c -0.1324,-0.82893 1.66998,-1.49177 2.58227,-1.4671 z"
         sodipodi:nodetypes="sssssssss" />
      <path
         id="rect1-0"
         style="stroke:none;stroke-width:0.374331;stroke-linejoin:round;stroke-dasharray:none;stroke-dashoffset:0;stroke-opacity:1"
         d="m 267.91347,129.92294 c 4.48102,-1.82227 6.95788,-0.63832 9.7985,0 0.88945,0.19987 1.70826,0.73607 1.64554,1.64553 -0.42584,6.17475 -2.31401,12.63188 -0.41771,18.40142 0.53577,1.63011 0.34141,3.07486 0.41771,4.56138 0.0467,0.91042 -0.73391,1.64553 -1.64554,1.64553 h -9.7985 c -0.91163,0 -1.66848,-0.7342 -1.64554,-1.64553 0.0443,-1.76206 -0.17824,-3.46578 0.44127,-5.4099 1.76085,-5.52563 0.28547,-11.62947 -0.44127,-17.5529 -0.11101,-0.90484 0.80107,-1.30212 1.64554,-1.64553 z"
         sodipodi:nodetypes="sssssssssss" />
      <path
         id="rect1-7-8-5-1-5-4-34-31"
         style="stroke:#ffffff;stroke-width:0.485783;stroke-linejoin:round;stroke-dasharray:none;stroke-dashoffset:0;stroke-opacity:1"
         d="m 269.53233,182.00135 c -0.70994,-0.70086 -2.11345,-0.87118 -3.14686,-0.38187 l -1.21653,0.576 c -1.03343,0.48931 -1.29383,1.44747 -0.58389,2.14834 0.70994,0.70088 1.7146,0.55 2.86224,0.19915 1.7432,-0.53284 3.48838,-0.93686 2.08504,-2.54162 z"
         sodipodi:nodetypes="ssssss" />
      <path
         id="rect1-7-8-5-1-5-4-34-0-1"
         style="stroke:#ffffff;stroke-width:0.485783;stroke-linejoin:round;stroke-dasharray:none;stroke-dashoffset:0;stroke-opacity:1"
         d="m 275.38907,182.00135 c 0.70994,-0.70086 2.11345,-0.87118 3.14686,-0.38187 l 1.21653,0.576 c 1.03342,0.48931 1.29382,1.44747 0.58389,2.14834 -0.70994,0.70088 -1.7146,0.55 -2.86224,0.19915 -1.7432,-0.53284 -3.48838,-0.93686 -2.08504,-2.54162 z"
         sodipodi:nodetypes="ssssss" />
      <path
         id="rect1-7-5-6"
         style="stroke:#ffffff;stroke-width:0.374331;stroke-linejoin:round;stroke-dasharray:none;stroke-dashoffset:0;stroke-opacity:1"
         d="m 274.80548,128.86609 -0.45533,-2.67901 c -0.24664,-1.45117 -2.90483,-1.35351 -3.18644,0.37284 l -0.40194,2.46403 c -0.34759,2.13083 4.40356,1.95946 4.04371,-0.15786 z"
         sodipodi:nodetypes="sssss" />
      <path
         id="path1-73"
         style="stroke:#ffffff;stroke-width:0.306754;stroke-linejoin:round;stroke-dasharray:none;stroke-dashoffset:0;stroke-opacity:1"
         d="m 276.33877,123.67364 c 0,2.21459 -1.3781,4.57762 -3.60666,4.57762 -2.22857,0 -3.54953,-2.36303 -3.54953,-4.57762 0,-2.21461 1.32096,-3.44213 3.54953,-3.44213 2.22856,0 3.60666,1.22752 3.60666,3.44213 z"
         sodipodi:nodetypes="sssss" />
      <path
         id="rect1-7-8-30-8-3-1"
         style="fill:#999999;stroke:none;stroke-width:0.313714;stroke-linejoin:round;stroke-dasharray:none;stroke-dashoffset:0;stroke-opacity:1"
         inkscape:transform-center-x="-3.4960794"
         inkscape:transform-center-y="3.9391814"
         d="m 261.11169,140.98708 c -0.48397,0.50804 -0.66061,1.15238 -0.3427,1.55293 l 3.61138,4.54953 c 0.12574,0.15837 0.25289,0.27934 0.39256,0.3536 -0.0263,0.66845 0.27435,1.49655 0.65623,1.89706 0.0792,0.0831 0.17438,0.14694 0.28023,0.1932 0.34418,0.31672 0.93899,0.4623 1.53827,0.63911 0.76825,0.22671 1.4214,0.28096 1.78278,-0.42661 0.36135,-0.70758 0.0783,-1.57053 -0.63503,-1.93482 l -0.83994,-0.42877 c -0.0491,-0.0251 -0.0992,-0.0471 -0.14952,-0.0662 -0.0491,-0.0889 -0.0978,-0.1792 -0.14636,-0.27318 l 0.81783,0.17487 c 0.30998,0.0662 0.59984,-0.0653 0.64898,-0.29505 0.0491,-0.2299 -0.16186,-0.4684 -0.47184,-0.53461 l -1.7178,-0.36693 c -0.008,-0.002 -0.0157,-0.003 -0.0236,-0.004 -0.0311,-0.0773 -0.0705,-0.15787 -0.11898,-0.24352 l -2.88781,-5.12138 c -0.30944,-0.5488 -1.2545,-0.51308 -2.0127,0.01 -0.14217,0.098 -0.27024,0.20793 -0.38193,0.32518 z" />
      <path
         id="rect1-7-8-30-8-3"
         style="fill:#666666;stroke:none;stroke-width:0.313714;stroke-linejoin:round;stroke-dasharray:none;stroke-dashoffset:0;stroke-opacity:1"
         inkscape:transform-center-x="-2.0657878"
         inkscape:transform-center-y="5.0096464"
         d="m 260.88941,140.56357 c -0.623,0.32281 -0.99978,0.87454 -0.82959,1.35677 l 1.93358,5.47737 c 0.0673,0.19067 0.14818,0.34645 0.25607,0.46214 -0.24244,0.62347 -0.22778,1.50433 0.003,2.00735 0.0478,0.10432 0.11706,0.1957 0.20207,0.2739 0.22233,0.41152 0.73734,0.7428 1.24642,1.10507 0.6526,0.46446 1.25252,0.72838 1.82454,0.177 0.57202,-0.5514 0.58528,-1.4595 0.0294,-2.03616 l -0.65459,-0.67884 c -0.0382,-0.0397 -0.0785,-0.0768 -0.11981,-0.11131 -0.0175,-0.10004 -0.0342,-0.20128 -0.0494,-0.30595 l 0.71635,0.43158 c 0.27156,0.16348 0.58843,0.13352 0.70969,-0.0677 0.12126,-0.20139 -5.6e-4,-0.49558 -0.2721,-0.65909 l -1.50477,-0.90617 c -0.007,-0.004 -0.014,-0.008 -0.021,-0.0116 -0.005,-0.0832 -0.0153,-0.17222 -0.0332,-0.26899 l -1.06326,-5.78252 c -0.11393,-0.61964 -1.01914,-0.89352 -1.90629,-0.64586 -0.16634,0.0464 -0.32321,0.10863 -0.46698,0.18314 z" />
      <path
         id="rect1-7-8-30-8-3-1-3"
         style="fill:#999999;stroke:none;stroke-width:0.313714;stroke-linejoin:round;stroke-dasharray:none;stroke-dashoffset:0;stroke-opacity:1"
         inkscape:transform-center-x="3.4960785"
         inkscape:transform-center-y="3.939178"
         d="m 285.07857,140.73499 c 0.48397,0.50805 0.66061,1.15238 0.3427,1.55293 l -3.61138,4.54953 c -0.12574,0.15838 -0.25289,0.27934 -0.39256,0.3536 0.0263,0.66845 -0.27435,1.49655 -0.65623,1.89707 -0.0792,0.0831 -0.17438,0.14694 -0.28023,0.19319 -0.34418,0.31672 -0.93899,0.46231 -1.53827,0.63912 -0.76825,0.22671 -1.4214,0.28095 -1.78278,-0.42662 -0.36135,-0.70757 -0.0783,-1.57052 0.63503,-1.93482 l 0.83994,-0.42877 c 0.0491,-0.0251 0.0992,-0.0471 0.14952,-0.0662 0.0491,-0.0889 0.0978,-0.17921 0.14636,-0.27319 l -0.81783,0.17488 c -0.30998,0.0661 -0.59984,-0.0653 -0.64898,-0.29506 -0.0491,-0.2299 0.16186,-0.4684 0.47184,-0.53461 l 1.7178,-0.36693 c 0.008,-0.002 0.0157,-0.003 0.0236,-0.004 0.0311,-0.0773 0.0705,-0.15787 0.11898,-0.24352 l 2.88781,-5.12138 c 0.30944,-0.54879 1.2545,-0.51308 2.0127,0.01 0.14217,0.098 0.27024,0.20792 0.38193,0.32518 z" />
      <path
         id="rect1-7-8-30-8-3-5"
         style="fill:#666666;stroke:none;stroke-width:0.313714;stroke-linejoin:round;stroke-dasharray:none;stroke-dashoffset:0;stroke-opacity:1"
         inkscape:transform-center-x="2.0657869"
         inkscape:transform-center-y="5.0096464"
         d="m 285.30085,140.31148 c 0.623,0.32281 0.99978,0.87455 0.82959,1.35677 l -1.93358,5.47737 c -0.0673,0.19068 -0.14818,0.34645 -0.25607,0.46214 0.24244,0.62348 0.22778,1.50434 -0.003,2.00735 -0.0478,0.10433 -0.11706,0.1957 -0.20207,0.2739 -0.22233,0.41152 -0.73734,0.7428 -1.24642,1.10508 -0.6526,0.46445 -1.25252,0.72837 -1.82454,0.177 -0.57202,-0.5514 -0.58528,-1.4595 -0.0294,-2.03616 l 0.65459,-0.67885 c 0.0382,-0.0397 0.0785,-0.0768 0.11981,-0.11131 0.0175,-0.10004 0.0342,-0.20128 0.0494,-0.30595 l -0.71635,0.43159 c -0.27156,0.16348 -0.58843,0.13351 -0.70969,-0.0677 -0.12126,-0.20139 5.6e-4,-0.49558 0.2721,-0.65908 l 1.50477,-0.90618 c 0.007,-0.004 0.014,-0.008 0.021,-0.0116 0.005,-0.0832 0.0153,-0.17223 0.0332,-0.26899 l 1.06326,-5.78252 c 0.11393,-0.61965 1.01914,-0.89353 1.90629,-0.64586 0.16634,0.0464 0.32321,0.10862 0.46698,0.18313 z" />
      <g
         id="g4"
         transform="matrix(0.77104791,0,0,0.77104791,137.0715,18.254339)">
        <path
           id="rect1-7-8-30-8"
           style="opacity:1;stroke:#ffffff;stroke-width:0.406867;stroke-linejoin:round;stroke-dasharray:none;stroke-dashoffset:0;stroke-opacity:1"
           d="m 161.84474,157.5133 c 1.1623,0.27581 2.01792,1.155 1.75824,1.92974 l -2.42336,7.23003 c -0.25963,0.77476 -0.60435,1.06566 -1.76666,0.78985 -1.16231,-0.27581 -1.38498,-0.7805 -1.25017,-1.58558 l 1.24413,-7.43001 c 0.13483,-0.80507 1.2755,-1.20984 2.43782,-0.93403 z"
           sodipodi:nodetypes="sssssss"
           inkscape:transform-center-x="0.82554781"
           inkscape:transform-center-y="3.6773691" />
        <path
           id="rect1-7-8-5-1-8-52-7"
           style="opacity:1;stroke:#ffffff;stroke-width:0.485483;stroke-linejoin:round;stroke-dasharray:none;stroke-dashoffset:0;stroke-opacity:1"
           d="m 159.10438,166.15607 c 1.03042,0 2.34886,0.9585 1.85996,1.875 -0.60396,1.1322 -0.51125,2.39878 -1.85996,2.52317 -1.0699,0.0987 -2.2681,-0.78162 -2.19799,-1.71191 0.0781,-1.03582 1.16757,-2.68626 2.19799,-2.68626 z"
           sodipodi:nodetypes="sssss" />
        <path
           id="rect1-7-8-5-1-5-4-8-8"
           style="opacity:1;stroke:#ffffff;stroke-width:0.485483;stroke-linejoin:round;stroke-dasharray:none;stroke-dashoffset:0;stroke-opacity:1"
           d="m 158.3575,167.8594 c 0.9953,-0.26669 2.01303,0.32637 2.28187,1.32972 l 0.31649,1.18113 c 0.26885,1.00337 -0.316,2.02582 -1.31131,2.29252 -0.9953,0.26669 -1.51056,-0.40932 -1.95964,-1.34608 -0.68218,-1.4228 -1.46628,-2.72794 0.67259,-3.45729 z"
           sodipodi:nodetypes="ssssss" />
        <path
           id="rect1-7-8-5-5-6-7-3-8"
           style="opacity:1;stroke:#ffffff;stroke-width:0.485483;stroke-linejoin:round;stroke-dasharray:none;stroke-dashoffset:0;stroke-opacity:1"
           d="m 160.27887,166.76453 c 0.26402,-0.15243 0.5863,-0.0851 0.78622,0.26118 l 1.13909,1.97295 c 0.20555,0.35603 0.15906,0.76637 -0.10497,0.91881 -0.26402,0.15243 -0.64263,-0.0125 -0.84819,-0.3685 l -1.13908,-1.97296 c -0.16049,-0.27797 -0.0971,-0.65904 0.16693,-0.81148 z"
           sodipodi:nodetypes="sssssss" />
      </g>
      <g
         id="g5"
         transform="matrix(0.77104791,0,0,0.77104791,137.47951,17.336309)">
        <path
           id="rect1-7-8-3-2-6"
           style="opacity:1;stroke:#ffffff;stroke-width:0.411685;stroke-linejoin:round;stroke-dasharray:none;stroke-dashoffset:0;stroke-opacity:1"
           d="m 190.20068,157.97752 c -1.13163,0.37856 -1.8986,1.34617 -1.5641,2.11378 l 3.12167,7.16351 c 0.33446,0.76763 0.70648,1.03512 1.83809,0.65656 1.13162,-0.37856 1.30427,-0.91148 1.09127,-1.72048 l -1.96577,-7.46622 c -0.21302,-0.80899 -1.38956,-1.12571 -2.52116,-0.74715 z"
           sodipodi:nodetypes="sssssss"
           inkscape:transform-center-x="-1.2010522"
           inkscape:transform-center-y="3.3707879" />
        <path
           id="rect1-7-8-5-1-8-7-5-7"
           style="opacity:1;stroke:#ffffff;stroke-width:0.485483;stroke-linejoin:round;stroke-dasharray:none;stroke-dashoffset:0;stroke-opacity:1"
           d="m 193.33144,166.17868 c -1.03042,0 -2.34886,0.9585 -1.85996,1.875 0.60396,1.1322 0.51125,2.39878 1.85996,2.52316 1.06991,0.0987 2.2681,-0.78161 2.198,-1.7119 -0.0781,-1.03582 -1.16758,-2.68626 -2.198,-2.68626 z"
           sodipodi:nodetypes="sssss" />
        <path
           id="rect1-7-8-5-1-5-4-364-1-3"
           style="opacity:1;stroke:#ffffff;stroke-width:0.485483;stroke-linejoin:round;stroke-dasharray:none;stroke-dashoffset:0;stroke-opacity:1"
           d="m 194.07833,167.88201 c -0.99531,-0.26669 -2.01303,0.32637 -2.28187,1.32972 l -0.31649,1.18113 c -0.26885,1.00336 0.31599,2.02582 1.3113,2.29251 0.99531,0.26669 1.51057,-0.40931 1.95964,-1.34607 0.68218,-1.4228 1.46628,-2.72794 -0.67258,-3.45729 z"
           sodipodi:nodetypes="ssssss" />
        <path
           id="rect1-7-8-5-5-6-7-7-5-4"
           style="opacity:1;stroke:#ffffff;stroke-width:0.485483;stroke-linejoin:round;stroke-dasharray:none;stroke-dashoffset:0;stroke-opacity:1"
           d="m 192.15695,166.78714 c -0.26402,-0.15243 -0.5863,-0.0851 -0.78622,0.26118 l -1.13908,1.97295 c -0.20556,0.35603 -0.15907,0.76637 0.10496,0.91881 0.26402,0.15243 0.64263,-0.0125 0.84819,-0.3685 l 1.13909,-1.97296 c 0.16048,-0.27797 0.0971,-0.65904 -0.16694,-0.81148 z"
           sodipodi:nodetypes="sssssss" />
      </g>
      <g
         id="g6"
         transform="matrix(0.51013229,0,0,0.51013229,227.74022,65.243629)"
         style="stroke-width:1.15174;stroke-dasharray:none">
        <rect
           style="opacity:1;fill:#000000;stroke:#ffffff;stroke-width:1.15174;stroke-linejoin:round;stroke-dasharray:none"
           id="rect5"
           width="10.664055"
           height="10.785408"
           x="81.009392"
           y="159.09109" />
        <path
           id="rect5-9"
           style="fill:#000000;stroke:#ffffff;stroke-width:1.44866;stroke-linejoin:round;stroke-dasharray:none"
           transform="matrix(0.63208417,-0.77489973,0,1,0,0)"
           d="m 145.0336,271.4776 5.6318,-0.31314 1e-5,10.65467 -5.63181,0.44388 z"
           sodipodi:nodetypes="ccccc" />
        <rect
           style="fill:#000000;stroke:#ffffff;stroke-width:1.2871;stroke-linejoin:round;stroke-dasharray:none"
           id="rect5-9-1"
           width="5.8412356"
           height="10.785408"
           x="-198.68402"
           y="-210.75246"
           transform="matrix(0.59903324,-0.80072416,-1,0,0,0)" />
      </g>
    </g>
  </g>
</svg>
