<?xml version="1.0" encoding="UTF-8" standalone="no"?>
<!-- Created with Inkscape (http://www.inkscape.org/) -->

<svg
   width="40.08308mm"
   height="75.655975mm"
   viewBox="0 0 40.08308 75.655975"
   version="1.1"
   id="svg1"
   xmlns:inkscape="http://www.inkscape.org/namespaces/inkscape"
   xmlns:sodipodi="http://sodipodi.sourceforge.net/DTD/sodipodi-0.dtd"
   xmlns="http://www.w3.org/2000/svg"
   xmlns:svg="http://www.w3.org/2000/svg">
  <sodipodi:namedview
     id="namedview1"
     pagecolor="#ffffff"
     bordercolor="#000000"
     borderopacity="0.25"
     inkscape:showpageshadow="2"
     inkscape:pageopacity="0.0"
     inkscape:pagecheckerboard="0"
     inkscape:deskcolor="#d1d1d1"
     inkscape:document-units="mm" />
  <defs
     id="defs1" />
  <g
     inkscape:label="Layer 1"
     inkscape:groupmode="layer"
     id="layer1"
     transform="translate(725.90267,-749.03318)">
    <g
       id="g72"
       transform="translate(-1247.1719,207.81405)">
      <path
         id="rect1-7-8-5-5-6-7-3-8-5-1-5-25"
         style="stroke:#ffffff;stroke-width:0.374331;stroke-linejoin:round;stroke-dasharray:none;stroke-dashoffset:0;stroke-opacity:1"
         d="m 528.24788,566.44112 c 0.0427,-0.23115 -0.0893,-0.44798 -0.39252,-0.50396 l -1.72738,-0.31896 c -0.31171,-0.0576 -0.5979,0.082 -0.64058,0.3132 -0.0427,0.23116 0.17475,0.46376 0.48648,0.52132 l 1.72738,0.31896 c 0.24337,0.0449 0.50393,-0.0994 0.54662,-0.33056 z"
         sodipodi:nodetypes="sssssss" />
      <path
         id="rect1-7-3-7-0-3-9-3-9-7-1-4"
         style="stroke:#ffffff;stroke-width:0.374331;stroke-linejoin:round;stroke-dasharray:none;stroke-dashoffset:0;stroke-opacity:1"
         d="m 544.35806,561.23867 c 0.50801,0.74814 0.31335,2.43805 -0.52917,2.78619 l -6.69279,2.76553 c -0.84252,0.34814 -1.87091,0.13768 -2.37886,-0.6105 -0.50793,-0.74819 -0.35017,-1.79802 0.44706,-2.24015 l 6.39199,-3.54498 c 0.79723,-0.44215 2.2538,0.0957 2.76174,0.8439 z"
         sodipodi:nodetypes="ssssssss"
         inkscape:transform-center-x="4.9372213"
         inkscape:transform-center-y="2.3757066" />
      <path
         id="rect1-7-8-30-8-6-6-5-6-4-9-9-4"
         style="stroke:#ffffff;stroke-width:0.313714;stroke-linejoin:round;stroke-dasharray:none;stroke-dashoffset:0;stroke-opacity:1"
         d="m 537.00976,565.01899 c 0.30013,0.87081 0.0867,1.8178 -0.531,1.94161 l -7.17622,1.43815 c -0.61776,0.1238 -0.94351,0.0463 -1.24365,-0.82452 -0.30014,-0.87083 -0.0801,-1.26842 0.51656,-1.46868 l 6.81972,-2.28868 c 0.59668,-0.20024 1.3144,0.33129 1.61456,1.2021 z"
         sodipodi:nodetypes="sssssss"
         inkscape:transform-center-x="3.4714137"
         inkscape:transform-center-y="1.2479144" />
      <path
         id="rect1-7-2-76-1-7-2-6-7-2-5-0-7"
         style="stroke:#ffffff;stroke-width:0.374331;stroke-linejoin:round;stroke-dasharray:none;stroke-dashoffset:0;stroke-opacity:1"
         d="m 552.93476,563.63237 c -0.0195,-0.90411 -1.30442,-1.56891 -2.01507,-0.99804 l -7.36314,5.91486 c -0.71071,0.57091 -1.57799,1.01452 -1.53422,1.91777 0.0438,0.90327 0.88775,1.92802 1.70377,1.52159 l 7.92904,-3.94915 c 0.68264,-0.59444 1.2819,-2.72812 1.27962,-4.40703 z"
         sodipodi:nodetypes="csssscc"
         inkscape:transform-center-x="3.8014056"
         inkscape:transform-center-y="2.0989427" />
      <path
         id="rect1-9-4-4-31-7-1-4-3-0-5-7-99"
         style="stroke:#ffffff;stroke-width:0.387927;stroke-linejoin:round;stroke-dasharray:none;stroke-dashoffset:0;stroke-opacity:1"
         d="m 546.19577,596.60066 1.60066,-0.18679 c 0.90456,-0.10555 1.83601,0.58757 1.83781,1.56661 l 0.0257,13.99861 c 0.002,0.97906 0.1686,1.62841 -0.73595,1.73396 l -0.72155,0.0842 c -0.90455,0.10555 -1.7242,-0.59316 -1.8378,-1.56662 l -1.5966,-13.6823 c -0.1136,-0.97345 0.52316,-1.84212 1.42771,-1.94767 z"
         sodipodi:nodetypes="sssssssss" />
      <path
         id="rect1-9-1-95-4-0-1-8-0-2-1-48"
         style="stroke:#ffffff;stroke-width:0.387927;stroke-linejoin:round;stroke-dasharray:none;stroke-dashoffset:0;stroke-opacity:1"
         d="m 539.75435,595.2143 h 1.61153 c 0.91068,0 1.68037,0.78979 1.64383,1.76907 l -0.51391,13.77514 c -0.0365,0.97927 -0.73315,1.76907 -1.64384,1.76907 h -0.61225 c -0.91069,0 -0.87342,-0.7931 -0.95651,-1.76907 l -1.1727,-13.77514 c -0.0831,-0.97598 0.73316,-1.76907 1.64385,-1.76907 z"
         sodipodi:nodetypes="sssssssss" />
      <path
         id="rect1-9-69-4-8-4-7-7-73-7-1"
         style="stroke:#ffffff;stroke-width:0.359059;stroke-linejoin:round;stroke-dasharray:none;stroke-dashoffset:0;stroke-opacity:1"
         d="m 543.24291,581.78578 2.54141,0.66485 c 0.88295,0.23095 2.28297,1.40433 1.96943,2.18267 l -4.77553,11.85505 c -0.31352,0.77834 -1.07539,1.29243 -1.96153,1.07395 l -1.56809,-0.3866 c -0.88613,-0.21848 -1.43475,-1.04841 -1.23752,-1.86266 l 3.01579,-12.45028 c 0.19755,-0.81417 1.13308,-1.30793 2.01603,-1.07696 z"
         sodipodi:nodetypes="ssssssssss" />
      <path
         id="rect1-9-4-41-7-6-1-1-5-8-1-5"
         style="stroke:#ffffff;stroke-width:0.359059;stroke-linejoin:round;stroke-dasharray:none;stroke-dashoffset:0;stroke-opacity:1"
         d="m 546.51179,581.97577 2.73139,0.3113 c 0.90675,0.10334 1.63432,0.86672 1.55857,1.70109 l -1.1552,12.72605 c -0.0754,0.8344 -0.86256,1.4432 -1.77184,1.3644 l -1.609,-0.13943 c -0.90927,-0.0788 -1.45037,-0.81158 -1.51072,-1.64885 L 543.8125,583.2145 c -0.0604,-0.83728 1.79253,-1.34203 2.69928,-1.23869 z"
         sodipodi:nodetypes="sssssssss" />
      <path
         id="rect1-0-0-2-5-8-0-4-2-0"
         style="stroke:none;stroke-width:0.314577;stroke-linejoin:round;stroke-dasharray:none;stroke-dashoffset:0;stroke-opacity:1"
         d="m 542.5941,559.76411 c 3.00028,-1.01083 4.94787,0.4451 6.95399,1.08341 0.62816,0.19987 2.9867,1.35332 2.94241,2.26278 -0.30075,6.17475 -3.45323,11.60662 -2.11401,17.37616 0.37838,1.63011 0.24111,3.07486 0.295,4.56138 0.033,0.91042 -0.64151,2.03832 -1.16213,1.64553 l -4.81778,-3.63493 c -0.52062,-0.3928 -3.29412,2.90014 -3.2643,1.9894 0.0565,-1.72878 -0.0164,-3.32163 0.31164,-5.4099 0.88653,-5.64368 0.2016,-11.62948 -0.31164,-17.5529 -0.0784,-0.90484 0.53621,-2.10847 1.16682,-2.32093 z"
         sodipodi:nodetypes="sssssssssss" />
      <path
         id="rect1-7-8-5-1-5-4-34-31-3-6-5-5-8-2-4-2"
         style="stroke:#ffffff;stroke-width:0.453133;stroke-linejoin:round;stroke-dasharray:none;stroke-dashoffset:0;stroke-opacity:1"
         d="m 541.74914,610.88981 c -0.62285,-0.69964 -2.00014,-1.04147 -3.08805,-0.76643 l -1.28068,0.32376 c -1.08793,0.27503 -1.46233,1.05971 -0.83947,1.75934 0.62284,0.69964 1.64147,0.71058 2.82652,0.57013 1.80001,-0.21327 3.58653,-0.31588 2.38168,-1.8868 z"
         sodipodi:nodetypes="ssssss" />
      <path
         id="rect1-7-8-5-1-5-4-34-0-1-3-9-6-4-0-6-7-9"
         style="stroke:#ffffff;stroke-width:0.419911;stroke-linejoin:round;stroke-dasharray:none;stroke-dashoffset:0;stroke-opacity:1"
         d="m 548.88671,612.41866 c -0.72948,-0.58339 -2.13739,-0.82566 -3.15673,-0.54319 l -1.19996,0.33251 c -1.01936,0.28247 -1.2527,0.97955 -0.52323,1.56294 0.72947,0.58341 1.72961,0.55231 2.86704,0.38298 1.7277,-0.25716 3.46101,-0.4176 2.01288,-1.73524 z"
         sodipodi:nodetypes="ssssss" />
      <path
         id="rect1-7-5-6-7-4-6-3-1-3-5-5"
         style="stroke:#ffffff;stroke-width:0.374331;stroke-linejoin:round;stroke-dasharray:none;stroke-dashoffset:0;stroke-opacity:1"
         d="m 548.82237,560.24255 0.0408,-3.5389 c 0.017,-1.47189 -2.90483,-1.35351 -3.18644,0.37284 l -0.40194,2.46403 c -0.34759,2.13083 3.52286,2.84957 3.54761,0.70203 z"
         sodipodi:nodetypes="sssss" />
      <path
         id="path1-73-1-5-7-3-7-0-4-71"
         style="stroke:#ffffff;stroke-width:0.287201;stroke-linejoin:round;stroke-dasharray:none;stroke-dashoffset:0;stroke-opacity:1"
         d="m 549.94351,554.1875 c -0.50452,2.1619 -1.20507,4.5893 -3.15384,4.59012 -1.94877,8.2e-4 -3.10388,-2.3675 -3.10388,-4.58749 0,-2.22 1.15656,-3.37657 3.10388,-3.45182 2.25026,-0.087 3.70893,1.07059 3.15384,3.44919 z"
         sodipodi:nodetypes="sssss" />
      <path
         id="rect1-7-8-3-2-6-6-1-0-0-7-4-5-8"
         style="stroke:#ffffff;stroke-width:0.317429;stroke-linejoin:round;stroke-dasharray:none;stroke-dashoffset:0;stroke-opacity:1"
         d="m 547.30419,569.08932 c -0.24857,-0.88585 -0.98096,-1.55225 -1.56855,-1.28469 l -7.07814,3.22317 c -0.58758,0.26753 -0.82396,0.50482 -0.57534,1.39062 0.24857,0.88585 0.66912,1.10196 1.28357,0.90568 l 7.26745,-2.32153 c 0.61445,-0.19623 0.91963,-1.02742 0.67101,-1.91324 z"
         sodipodi:nodetypes="sssssss"
         inkscape:transform-center-x="3.9264431"
         inkscape:transform-center-y="0.63511165" />
      <path
         id="rect1-7-8-5-1-8-7-5-7-9-2-9-8-5-3-1-1"
         style="stroke:#ffffff;stroke-width:0.374331;stroke-linejoin:round;stroke-dasharray:none;stroke-dashoffset:0;stroke-opacity:1"
         d="m 538.64375,573.00141 c 0.0142,-0.79437 -0.70708,-1.82379 -1.42024,-1.45936 -0.88104,0.45022 -1.85621,0.36154 -1.97042,1.39962 -0.0906,0.82348 0.57175,1.75918 1.28989,1.71776 0.7996,-0.0462 2.08676,-0.86364 2.10077,-1.65802 z"
         sodipodi:nodetypes="sssss"
         inkscape:transform-center-x="8.8090691"
         inkscape:transform-center-y="2.6353789" />
      <path
         id="rect1-7-8-5-5-6-7-7-5-4-9-4-6-1-3-3-2-4"
         style="stroke:#ffffff;stroke-width:0.374331;stroke-linejoin:round;stroke-dasharray:none;stroke-dashoffset:0;stroke-opacity:1"
         d="m 537.47996,571.85926 c 0.0605,-0.2272 -0.0539,-0.45362 -0.35226,-0.53289 l -1.69742,-0.45202 c -0.30642,-0.0811 -0.60246,0.0354 -0.66295,0.26257 -0.0603,0.22719 0.13825,0.47591 0.44458,0.55748 l 1.69743,0.45202 c 0.23914,0.0638 0.51012,-0.06 0.5706,-0.2872 z"
         sodipodi:nodetypes="sssssss"
         inkscape:transform-center-x="9.5464727"
         inkscape:transform-center-y="1.010782" />
      <path
         id="rect1-7-8-5-1-5-4-364-1-3-9-8-1-8-3-7-2-3"
         style="stroke:#ffffff;stroke-width:0.374331;stroke-linejoin:round;stroke-dasharray:none;stroke-dashoffset:0;stroke-opacity:1"
         d="m 537.06359,573.40632 c -0.13643,-0.7827 -0.88153,-1.30206 -1.67052,-1.16451 l -0.92885,0.16191 c -0.78903,0.13755 -1.31439,0.87841 -1.17789,1.66114 0.13643,0.78269 0.77647,0.92372 1.57739,0.93382 1.21653,0.0155 2.38385,0.14028 2.19991,-1.59235 z"
         sodipodi:nodetypes="ssssss"
         inkscape:transform-center-x="10.579621"
         inkscape:transform-center-y="3.1848687" />
      <path
         id="rect1-7-8-5-1-8-52-7-5-6-4-3"
         style="stroke:#ffffff;stroke-width:0.374331;stroke-linejoin:round;stroke-dasharray:none;stroke-dashoffset:0;stroke-opacity:1"
         d="m 528.93551,568.10607 c 0.27331,-0.74601 -0.0709,-1.95478 -0.86414,-1.84392 -0.9799,0.13695 -1.8723,-0.26612 -2.32009,0.67734 -0.35524,0.74842 -0.0357,1.8494 0.6564,2.04539 0.77064,0.2182 2.25452,-0.13279 2.52783,-0.87881 z"
         sodipodi:nodetypes="sssss" />
      <path
         id="rect1-7-8-5-1-5-4-8-8-8-0-9-5"
         style="stroke:#ffffff;stroke-width:0.374331;stroke-linejoin:round;stroke-dasharray:none;stroke-dashoffset:0;stroke-opacity:1"
         d="m 527.22856,567.21965 c -0.4868,-0.62789 -1.38829,-0.73832 -2.02126,-0.24758 l -0.74513,0.57768 c -0.63299,0.49075 -0.75065,1.39131 -0.26386,2.01922 0.4868,0.62789 1.11844,0.45307 1.83103,0.0873 1.08238,-0.55555 2.17247,-0.99133 1.19922,-2.43659 z"
         sodipodi:nodetypes="ssssss" />
      <path
         id="rect1-7-8-5-5-6-7-3-8-5-1-5-25-2"
         style="fill:none;stroke:#000000;stroke-width:0.374331;stroke-linejoin:round;stroke-dasharray:none;stroke-dashoffset:0;stroke-opacity:1"
         d="m 546.88857,549.07401 c -2.45861,-0.0895 -4.72073,2.11081 -4.62446,4.58651 -0.10262,1.4655 0.19255,2.97718 0.93892,4.25138 -1.29883,0.19538 -2.24756,1.14791 -3.41249,1.65968 -2.29402,1.21929 -4.4073,2.69826 -6.91508,3.38175 -1.4468,0.48554 -2.8936,0.97108 -4.3404,1.45662 -1.10915,-0.29647 -2.38902,-0.70828 -3.48588,-0.19812 -0.67252,0.32776 -0.92033,1.10812 -1.1091,1.72509 -1.29243,0.89283 -1.97392,2.72634 -1.13354,4.15076 0.76137,1.39965 2.74997,1.84127 4.04097,0.9093 0.99853,-0.52037 2.0763,-0.877 3.14912,-1.19335 2.37069,-0.45297 4.75367,-0.86857 7.10025,-1.44026 1.14943,-0.26603 2.20788,-0.79726 3.2995,-1.22881 -0.0267,0.58649 0.40339,1.44351 -0.4471,1.54211 -0.7589,0.34367 -1.52037,0.68299 -2.25797,1.07117 -1.21078,-0.38779 -2.77804,-0.99823 -3.83594,0.0508 -0.37181,0.3483 -0.48154,0.89544 -0.58399,1.33789 -1.71396,0.98007 -2.0407,3.89059 -0.19726,4.91211 2.10979,1.03118 4.74753,0.35159 6.41602,-1.20117 0.39768,0.0725 1.23074,-0.56373 1.20703,-0.0449 -0.10532,2.44586 -0.39922,4.88767 -0.75226,7.305 -0.97366,3.53083 -1.75617,7.11239 -2.6365,10.66744 -0.32706,1.36955 -0.66998,2.73997 -0.63827,4.1571 0.15942,2.63208 0.45097,5.26453 0.65078,7.8979 0.0843,1.27482 0.2718,2.62548 0.29226,3.85341 -1.37794,0.26036 -2.92055,1.26458 -2.81836,2.83985 0.11547,1.9785 2.33163,3.11873 4.1331,2.80622 1.13095,-0.0346 2.35855,-0.24505 3.37862,-0.52692 0.68265,1.67545 2.73573,2.19348 4.37505,1.89004 1.4457,-0.1455 3.11027,-0.26422 4.18355,-1.35489 0.90334,-1.24009 0.36654,-2.83785 0.50835,-4.24843 9.2e-4,-4.3216 -0.0122,-8.64491 -0.049,-12.9651 0.39236,-4.5524 0.89062,-9.10056 1.17739,-13.66147 -0.22224,-1.58386 -0.33987,-3.18241 -0.65736,-4.75056 -0.35707,-3.49902 0.8169,-6.88132 1.54799,-10.24944 0.9703,-1.71928 1.48057,-3.80911 1.07802,-5.75912 -0.71904,-1.64231 -2.41268,-2.59351 -3.93154,-3.30728 -0.11143,-1.08261 0.13732,-2.15099 0.59023,-3.13386 0.60928,-1.78578 1.13104,-4.0251 -0.20546,-5.62396 -0.96768,-1.16753 -2.55548,-1.66657 -4.03516,-1.56445 z m -2.18945,61.39258 c -0.77852,0.47029 -0.37773,-0.46611 -0.42661,-0.91543 0.0381,-0.74554 0.0349,-1.49275 0.0575,-2.23887 0.12305,1.05143 0.24609,2.10287 0.36914,3.1543 z" />
      <path
         id="rect1-7-8-5-5-6-7-3-8-5-1-5-25-2-1"
         style="fill:none;stroke:#808080;stroke-width:0.374331;stroke-linejoin:round;stroke-dasharray:none;stroke-dashoffset:0;stroke-opacity:1"
         d="m 546.9499,547.87284 c -3.1693,-0.1187 -5.98411,2.90107 -5.68901,6.05153 -0.0539,1.09404 0.21331,2.23421 0.51714,3.22972 -2.21207,1.1847 -4.35395,2.49905 -6.59479,3.63255 -1.94796,0.9751 -4.08149,1.4702 -6.12274,2.20422 -0.80452,0.33772 -1.6126,-0.25646 -2.44883,-0.20546 -1.45522,-0.18586 -3.0082,0.65297 -3.41372,2.11088 -0.32857,0.67081 -1.07693,1.05726 -1.31795,1.80579 -0.94874,1.85038 -0.2575,4.40975 1.69099,5.29577 1.41538,0.71588 3.12418,0.3887 4.39373,-0.47285 1.40214,-0.65914 2.93539,-0.96348 4.45002,-1.242 -0.40973,0.51585 -0.99567,0.941 -1.20952,1.61608 -0.86426,1.83913 -0.15104,4.4584 1.89315,5.13493 2.1506,0.8497 4.67624,0.33799 6.50973,-1.00882 -0.18753,2.85295 -0.52285,5.71354 -1.3433,8.46242 -0.85522,3.59163 -1.83783,7.16048 -2.49868,10.79334 -0.23813,2.6526 0.30265,5.2927 0.43537,7.93794 0.12821,1.5093 0.26572,3.01788 0.37146,4.52896 -1.7956,0.58619 -3.28537,2.55936 -2.62865,4.48006 0.65103,2.29345 3.32147,3.42733 5.54091,2.98847 0.79552,-0.048 1.59528,-0.17895 2.36703,-0.34158 1.30165,1.77312 3.74599,2.06206 5.76112,1.64321 1.76133,-0.15874 3.89198,-0.69746 4.61193,-2.52016 0.58678,-1.66055 0.12035,-3.43879 0.27344,-5.15274 0.0354,-4.20369 -0.10858,-8.41247 0.0234,-12.61282 0.36383,-4.41193 0.90984,-8.81652 1.07414,-13.23999 -0.22811,-2.60716 -0.99007,-5.21012 -0.54281,-7.83625 0.35483,-2.23342 0.88389,-4.45262 1.49414,-6.60156 0.68176,-1.38747 1.15473,-2.88299 1.18631,-4.44037 0.16078,-1.6443 -0.67675,-3.22489 -1.97696,-4.19703 -0.64142,-0.53535 -1.37044,-0.95478 -2.11365,-1.33135 0.14244,-1.73959 1.18531,-3.27638 1.23265,-5.041 0.24154,-2.17945 -1.02609,-4.46194 -3.12695,-5.21247 -0.88284,-0.36221 -1.84778,-0.50663 -2.79906,-0.45942 z" />
      <path
         id="path11-4-78-8-5-8-4"
         style="fill:#808080;stroke:none;stroke-width:0.0886796;stroke-linejoin:round;stroke-dasharray:none"
         d="m 540.31787,554.42939 h -1.89127 l -0.0122,1.12986 -2.23628,-1.75551 c 0,-0.0427 2.27302,-1.61833 2.27302,-1.61833 l -0.0122,1.11971 h 1.87902 z" />
      <path
         id="path11-4-78-8-5-8-4-5"
         style="fill:#808080;stroke:none;stroke-width:0.0886796;stroke-linejoin:round;stroke-dasharray:none"
         d="m 536.48141,582.34293 h -1.89127 l -0.0122,1.12986 -2.23628,-1.75551 c 0,-0.0427 2.27302,-1.61833 2.27302,-1.61833 l -0.0122,1.11971 h 1.87902 z" />
      <path
         id="path11-4-78-8-5-8-4-5-1"
         style="fill:#808080;stroke:none;stroke-width:0.0886796;stroke-linejoin:round;stroke-dasharray:none"
         d="m 534.76162,604.30335 h -1.89127 l -0.0122,1.12986 -2.23628,-1.75551 c 0,-0.0427 2.27302,-1.61833 2.27302,-1.61833 l -0.0122,1.11971 h 1.87902 z" />
      <path
         id="path11-4-78-8-5-8-4-5-1-5"
         style="fill:#808080;stroke:none;stroke-width:0.0886796;stroke-linejoin:round;stroke-dasharray:none"
         d="m 553.50843,600.86377 h 1.89127 l 0.0122,1.12986 2.23628,-1.75551 c 0,-0.0427 -2.27302,-1.61833 -2.27302,-1.61833 l 0.0122,1.11971 h -1.87902 z" />
      <path
         id="path11-4-78-8-5-8-4-5-1-5-2"
         style="fill:#808080;stroke:none;stroke-width:0.0886796;stroke-linejoin:round;stroke-dasharray:none"
         d="m 555.09594,582.60752 h 1.89127 l 0.0122,1.12986 2.23628,-1.75551 c 0,-0.0427 -2.27302,-1.61833 -2.27302,-1.61833 l 0.0122,1.11971 h -1.87902 z" />
      <path
         id="path11-4-78-8-5-8-4-5-1-5-2-0"
         style="fill:#808080;stroke:none;stroke-width:0.0886796;stroke-linejoin:round;stroke-dasharray:none"
         d="m 557.21258,563.68981 h 1.89127 l 0.0122,1.12986 2.23628,-1.75551 c 0,-0.0427 -2.27302,-1.61833 -2.27302,-1.61833 l 0.0122,1.11971 h -1.87902 z" />
      <path
         id="path11-4-78-8-5-8-4-5-1-5-2-0-6"
         style="fill:#808080;stroke:none;stroke-width:0.0886796;stroke-linejoin:round;stroke-dasharray:none"
         d="m 548.19781,545.35883 v -1.89127 l 1.12986,-0.0122 -1.75551,-2.23628 c -0.0427,0 -1.61833,2.27302 -1.61833,2.27302 l 1.11971,-0.0122 v 1.87902 z" />
    </g>
  </g>
</svg>
