<?xml version="1.0" encoding="UTF-8" standalone="no"?>
<!-- Created with Inkscape (http://www.inkscape.org/) -->

<svg
   width="58.772766mm"
   height="82.371979mm"
   viewBox="0 0 58.772766 82.371979"
   version="1.1"
   id="svg1"
   xmlns:inkscape="http://www.inkscape.org/namespaces/inkscape"
   xmlns:sodipodi="http://sodipodi.sourceforge.net/DTD/sodipodi-0.dtd"
   xmlns="http://www.w3.org/2000/svg"
   xmlns:svg="http://www.w3.org/2000/svg">
  <sodipodi:namedview
     id="namedview1"
     pagecolor="#ffffff"
     bordercolor="#000000"
     borderopacity="0.25"
     inkscape:showpageshadow="2"
     inkscape:pageopacity="0.0"
     inkscape:pagecheckerboard="0"
     inkscape:deskcolor="#d1d1d1"
     inkscape:document-units="mm" />
  <defs
     id="defs1" />
  <g
     inkscape:label="Layer 1"
     inkscape:groupmode="layer"
     id="layer1"
     transform="translate(735.24751,-846.46799)">
    <g
       id="g9"
       transform="translate(-1788.2038,696.85065)">
      <path
         id="rect1-7-3-7-0-3-9-3-9-7-1-2-4-7"
         style="stroke:#ffffff;stroke-width:0.374331;stroke-linejoin:round;stroke-dasharray:none;stroke-dashoffset:0;stroke-opacity:1"
         d="m 1107.4163,159.95899 c 0.8308,-0.35701 2.4531,0.15441 2.6353,1.04764 l 1.447,7.09563 c 0.1821,0.89323 -0.2199,1.86304 -1.0503,2.22003 -0.8309,0.35692 -1.8318,0.003 -2.1149,-0.86353 l -2.2692,-6.948 c -0.2831,-0.86659 0.5214,-2.19475 1.352,-2.55174 z"
         sodipodi:nodetypes="ssssssss"
         inkscape:transform-center-x="0.0083220072"
         inkscape:transform-center-y="3.0470687" />
      <path
         id="rect1-7-8-5-5-6-7-3-8-5-1-5-2-1"
         style="stroke:#ffffff;stroke-width:0.374331;stroke-linejoin:round;stroke-dasharray:none;stroke-dashoffset:0;stroke-opacity:1"
         d="m 1096.5893,175.37284 c -0.217,-0.0902 -0.4568,-0.007 -0.575,0.27813 l -0.6741,1.62207 c -0.1221,0.29262 -0.045,0.6018 0.1719,0.69201 0.2171,0.0902 0.4901,-0.0736 0.6117,-0.36634 l 0.6741,-1.62207 c 0.095,-0.2285 0.01,-0.51349 -0.2086,-0.6038 z"
         sodipodi:nodetypes="sssssss"
         inkscape:transform-center-x="5.2298815"
         inkscape:transform-center-y="16.357122" />
      <path
         id="rect1-7-3-7-0-3-9-3-9-7-1-2-4"
         style="stroke:#ffffff;stroke-width:0.374331;stroke-linejoin:round;stroke-dasharray:none;stroke-dashoffset:0;stroke-opacity:1"
         d="m 1102.0377,159.50878 c 0.8873,0.17459 1.9373,1.5129 1.5832,2.35295 l -2.8133,6.67284 c -0.3542,0.83998 -1.2333,1.41362 -2.1205,1.23892 -0.8873,-0.17472 -1.5134,-1.03201 -1.2576,-1.90704 l 2.0513,-7.0154 c 0.2558,-0.87504 1.6698,-1.51675 2.5569,-1.34225 z"
         sodipodi:nodetypes="ssssssss"
         inkscape:transform-center-x="0.75753408"
         inkscape:transform-center-y="4.3356194" />
      <path
         id="rect1-7-8-30-8-6-6-5-6-4-9-9-6-5"
         style="stroke:#ffffff;stroke-width:0.313714;stroke-linejoin:round;stroke-dasharray:none;stroke-dashoffset:0;stroke-opacity:1"
         d="m 1099.472,167.36406 c 0.8258,0.40802 1.3401,1.23137 0.988,1.75379 l -4.0905,6.06911 c -0.3521,0.52246 -0.6384,0.69623 -1.464,0.28844 -0.8258,-0.40801 -0.949,-0.84542 -0.6656,-1.40743 l 3.2389,-6.42306 c 0.2833,-0.56201 1.1674,-0.68882 1.9932,-0.28083 z"
         sodipodi:nodetypes="sssssss"
         inkscape:transform-center-x="3.9516932"
         inkscape:transform-center-y="11.106105" />
      <path
         id="rect1-9-4-4-31-7-1-4-3-0-5-7-9-5"
         style="stroke:#ffffff;stroke-width:0.387927;stroke-linejoin:round;stroke-dasharray:none;stroke-dashoffset:0;stroke-opacity:1"
         d="m 1104.2203,195.62796 1.6006,-0.1868 c 0.9046,-0.1056 1.8361,0.5875 1.8379,1.5666 l 0.026,13.9986 c 0,0.979 0.1686,1.6284 -0.736,1.7339 l -0.7215,0.084 c -0.9046,0.1056 -1.7242,-0.5931 -1.8378,-1.5666 l -1.5966,-13.6823 c -0.1136,-0.9734 0.5231,-1.8421 1.4277,-1.9476 z"
         sodipodi:nodetypes="sssssssss" />
      <path
         id="rect1-9-1-95-4-0-1-8-0-2-1-4-9"
         style="stroke:#ffffff;stroke-width:0.387927;stroke-linejoin:round;stroke-dasharray:none;stroke-dashoffset:0;stroke-opacity:1"
         d="m 1097.7789,194.24156 h 1.6115 c 0.9107,0 1.6804,0.7898 1.6438,1.7691 l -0.5139,13.7751 c -0.036,0.9793 -0.7331,1.7691 -1.6438,1.7691 h -0.6123 c -0.9107,0 -0.8734,-0.7931 -0.9565,-1.7691 l -1.1727,-13.7751 c -0.083,-0.976 0.7332,-1.7691 1.6439,-1.7691 z"
         sodipodi:nodetypes="sssssssss" />
      <path
         id="rect1-9-69-4-8-4-7-7-73-7-5-2"
         style="stroke:#ffffff;stroke-width:0.359059;stroke-linejoin:round;stroke-dasharray:none;stroke-dashoffset:0;stroke-opacity:1"
         d="m 1101.2674,180.81302 2.5414,0.6648 c 0.883,0.231 2.283,1.4044 1.9695,2.1827 l -4.7756,11.85504 c -0.3135,0.7784 -1.0754,1.2925 -1.9615,1.074 l -1.5681,-0.3866 c -0.8861,-0.2185 -1.4347,-1.0484 -1.2375,-1.8627 l 3.0158,-12.45024 c 0.1975,-0.8142 1.1331,-1.308 2.016,-1.077 z"
         sodipodi:nodetypes="ssssssssss" />
      <path
         id="rect1-9-4-41-7-6-1-1-5-8-1-3-65"
         style="stroke:#ffffff;stroke-width:0.359059;stroke-linejoin:round;stroke-dasharray:none;stroke-dashoffset:0;stroke-opacity:1"
         d="m 1104.5363,181.00302 2.7314,0.3113 c 0.9067,0.1033 1.6343,0.8667 1.5586,1.7011 l -1.1552,12.72604 c -0.075,0.8344 -0.8626,1.4432 -1.7719,1.3644 l -1.609,-0.1394 c -0.9092,-0.079 -1.4504,-0.8116 -1.5107,-1.6489 l -0.9425,-13.07584 c -0.06,-0.8373 1.7925,-1.342 2.6993,-1.2387 z"
         sodipodi:nodetypes="sssssssss" />
      <path
         id="rect1-0-0-2-5-8-0-4-2-7-0"
         style="stroke:none;stroke-width:0.314577;stroke-linejoin:round;stroke-dasharray:none;stroke-dashoffset:0;stroke-opacity:1"
         d="m 1100.6186,158.79132 c 3.0003,-1.0108 4.9479,0.4451 6.954,1.0834 0.6282,0.1999 1.5835,2.66292 1.5392,3.57242 -0.3007,6.1747 -2.05,10.29698 -0.7108,16.06658 0.3784,1.6301 0.2411,3.0748 0.295,4.5613 0.033,0.9105 -0.6415,2.0383 -1.1621,1.6456 l -4.8178,-3.635 c -0.5206,-0.3928 -3.2941,2.9002 -3.2643,1.9894 0.056,-1.7288 -0.016,-3.3216 0.3116,-5.4099 0.8866,-5.6436 0.2016,-11.6294 -0.3116,-17.5529 -0.078,-0.9048 0.5362,-2.1084 1.1668,-2.3209 z"
         sodipodi:nodetypes="sssssssssss" />
      <path
         id="rect1-7-8-5-1-5-4-34-31-3-6-5-5-8-2-4-6-1"
         style="stroke:#ffffff;stroke-width:0.453133;stroke-linejoin:round;stroke-dasharray:none;stroke-dashoffset:0;stroke-opacity:1"
         d="m 1099.7737,209.91706 c -0.6229,-0.6996 -2.0002,-1.0415 -3.0881,-0.7664 l -1.2807,0.3237 c -1.0879,0.2751 -1.4623,1.0597 -0.8394,1.7594 0.6228,0.6996 1.6414,0.7106 2.8265,0.5701 1.8,-0.2133 3.5865,-0.3159 2.3817,-1.8868 z"
         sodipodi:nodetypes="ssssss" />
      <path
         id="rect1-7-8-5-1-5-4-34-0-1-3-9-6-4-0-6-7-3-6"
         style="stroke:#ffffff;stroke-width:0.419911;stroke-linejoin:round;stroke-dasharray:none;stroke-dashoffset:0;stroke-opacity:1"
         d="m 1106.9112,211.44596 c -0.7295,-0.5834 -2.1374,-0.8257 -3.1567,-0.5432 l -1.2,0.3325 c -1.0193,0.2824 -1.2527,0.9795 -0.5232,1.5629 0.7295,0.5834 1.7296,0.5523 2.867,0.383 1.7277,-0.2572 3.4611,-0.4176 2.0129,-1.7352 z"
         sodipodi:nodetypes="ssssss" />
      <path
         id="rect1-7-5-6-7-4-6-3-1-3-5-8-50"
         style="stroke:#ffffff;stroke-width:0.374331;stroke-linejoin:round;stroke-dasharray:none;stroke-dashoffset:0;stroke-opacity:1"
         d="m 1106.8469,159.26972 0.041,-3.5389 c 0.017,-1.4718 -2.9048,-1.3535 -3.1865,0.3729 l -0.4019,2.464 c -0.3476,2.1308 3.5229,2.8496 3.5476,0.702 z"
         sodipodi:nodetypes="sssss" />
      <path
         id="path1-73-1-5-7-3-7-0-4-1-4"
         style="stroke:#ffffff;stroke-width:0.287201;stroke-linejoin:round;stroke-dasharray:none;stroke-dashoffset:0;stroke-opacity:1"
         d="m 1107.968,153.21472 c -0.5045,2.1619 -1.205,4.5893 -3.1538,4.5901 -1.9488,8e-4 -3.1039,-2.3675 -3.1039,-4.5875 0,-2.22 1.1566,-3.3765 3.1039,-3.4518 2.2502,-0.087 3.7089,1.0706 3.1538,3.4492 z"
         sodipodi:nodetypes="sssss" />
      <path
         id="rect1-7-8-3-2-6-6-1-0-0-7-4-5-1-7"
         style="stroke:#ffffff;stroke-width:0.317429;stroke-linejoin:round;stroke-dasharray:none;stroke-dashoffset:0;stroke-opacity:1"
         d="m 1110.39,168.6091 c -0.803,-0.44895 -1.792,-0.40031 -2.0171,0.20478 l -2.7112,7.28963 c -0.2251,0.60509 -0.2238,0.94003 0.5793,1.38897 0.8031,0.44899 1.253,0.30356 1.5475,-0.27032 l 3.4837,-6.78743 c 0.2945,-0.57389 -0.079,-1.37667 -0.8821,-1.82561 z"
         sodipodi:nodetypes="sssssss"
         inkscape:transform-center-x="0.32964291"
         inkscape:transform-center-y="10.928458" />
      <path
         id="rect1-7-8-5-1-8-7-5-7-9-2-9-8-5-3-1-9-1"
         style="stroke:#ffffff;stroke-width:0.374331;stroke-linejoin:round;stroke-dasharray:none;stroke-dashoffset:0;stroke-opacity:1"
         d="m 1106.9361,176.55888 c -0.5529,-0.57065 -1.7912,-0.78603 -2.0363,-0.0236 -0.3027,0.94201 -1.0537,1.57036 -0.3987,2.38385 0.5194,0.64525 1.6499,0.83604 2.1273,0.29822 0.5316,-0.59901 0.8607,-2.08796 0.3077,-2.65848 z"
         sodipodi:nodetypes="sssss"
         inkscape:transform-center-x="3.0509418"
         inkscape:transform-center-y="15.681804" />
      <path
         id="rect1-7-8-5-5-6-7-7-5-4-9-4-6-1-3-3-2-1-3"
         style="stroke:#ffffff;stroke-width:0.374331;stroke-linejoin:round;stroke-dasharray:none;stroke-dashoffset:0;stroke-opacity:1"
         d="m 1105.3056,176.5775 c -0.1183,-0.20319 -0.3595,-0.28195 -0.6262,-0.12647 l -1.5181,0.88364 c -0.2736,0.15994 -0.4004,0.45157 -0.2818,0.65506 0.1185,0.20305 0.4348,0.23785 0.7088,0.0784 l 1.5181,-0.88371 c 0.2141,-0.12427 0.3175,-0.40378 0.1991,-0.60697 z"
         sodipodi:nodetypes="sssssss"
         inkscape:transform-center-x="4.6872259"
         inkscape:transform-center-y="15.163537" />
      <path
         id="rect1-7-8-5-1-5-4-364-1-3-9-8-1-8-3-7-2-2-5"
         style="stroke:#ffffff;stroke-width:0.374331;stroke-linejoin:round;stroke-dasharray:none;stroke-dashoffset:0;stroke-opacity:1"
         d="m 1106.1079,177.9642 c -0.6509,-0.45567 -1.5446,-0.2942 -2.004,0.36185 l -0.5407,0.77237 c -0.4593,0.65615 -0.3052,1.55115 0.3458,2.00685 0.6508,0.45559 1.2024,0.10168 1.7747,-0.45867 0.8691,-0.85136 1.7817,-1.59002 0.4242,-2.68242 z"
         sodipodi:nodetypes="ssssss"
         inkscape:transform-center-x="3.7331748"
         inkscape:transform-center-y="17.40445" />
      <path
         id="rect1-7-8-5-1-8-52-7-5-6-4-2-3"
         style="stroke:#ffffff;stroke-width:0.374331;stroke-linejoin:round;stroke-dasharray:none;stroke-dashoffset:0;stroke-opacity:1"
         d="m 1095.9028,175.23706 c -0.3303,-0.72257 -1.4252,-1.33988 -1.9112,-0.70326 -0.6003,0.78652 -1.5182,1.12753 -1.173,2.11321 0.2737,0.78189 1.2752,1.33991 1.9051,0.99253 0.7013,-0.38683 1.5094,-1.67992 1.1791,-2.40248 z"
         sodipodi:nodetypes="sssss"
         inkscape:transform-center-x="6.928032"
         inkscape:transform-center-y="15.699736" />
      <path
         id="rect1-7-8-5-1-5-4-8-8-8-0-9-0-3"
         style="stroke:#ffffff;stroke-width:0.374331;stroke-linejoin:round;stroke-dasharray:none;stroke-dashoffset:0;stroke-opacity:1"
         d="m 1094.0658,175.80723 c -0.7876,-0.10398 -1.5062,0.45144 -1.611,1.24551 l -0.1236,0.93465 c -0.1048,0.79408 0.4449,1.5171 1.2325,1.62116 0.7877,0.10405 1.1137,-0.46449 1.3629,-1.22583 0.3788,-1.15619 0.8473,-2.23263 -0.8609,-2.57563 z"
         sodipodi:nodetypes="ssssss"
         inkscape:transform-center-x="7.4869312"
         inkscape:transform-center-y="17.400928" />
      <g
         id="g3-6-3-7-1-6"
         transform="matrix(-0.27206903,-0.49449284,-0.49449284,0.27206903,1129.1106,188.9722)"
         style="fill:#4d4d4d;stroke-width:0.661458;stroke-dasharray:none"
         inkscape:transform-center-x="-11.795533"
         inkscape:transform-center-y="-6.0952768">
        <path
           style="fill:#4d4d4d;fill-opacity:1;stroke:#ffffff;stroke-width:0.661458;stroke-linejoin:round;stroke-dasharray:none;stroke-dashoffset:0;stroke-opacity:1"
           d="M 33.86842,40.815787 31.610527,51.58421 31.436841,94.136841 h 3.821052 l 0.303948,-42.682896 z"
           id="path2-6-54-4-5-1"
           sodipodi:nodetypes="cccccc" />
        <rect
           style="fill:#4d4d4d;fill-opacity:1;stroke:#ffffff;stroke-width:0.661458;stroke-linejoin:round;stroke-dasharray:none;stroke-dashoffset:0;stroke-opacity:1"
           id="rect3-9-9-1-5-0"
           width="11.541431"
           height="3.7543805"
           x="27.576651"
           y="85.616226" />
      </g>
      <path
         id="rect2-6-6-2-2-3"
         style="fill:#4d4d4d;stroke:#ffffff;stroke-width:0.373325;stroke-linejoin:round;stroke-dasharray:none"
         d="m 1101.7561,163.96248 c -1.5953,0.28496 -3.6958,-0.0482 -5.7303,-0.30049 -2.2332,-0.27695 -4.0509,0.9013 -4.0509,3.14551 v 10.40541 c 0,2.2442 1.8075,4.51581 4.0509,4.95631 2.1341,0.41909 4.0582,0.53913 5.7303,0.3005 2.1074,-0.30076 4.0509,-0.90131 4.0509,-3.14552 v -10.40541 c 0,-2.2442 -1.9687,-5.32824 -4.0509,-4.95631 z"
         sodipodi:nodetypes="sssssssss" />
      <path
         id="path1-73-1-5-7-3-7-0-4-1-5-5"
         style="stroke:#ffffff;stroke-width:0.287201;stroke-linejoin:round;stroke-dasharray:none;stroke-dashoffset:0;stroke-opacity:1"
         d="m 1066.2719,170.85907 c 0.091,2.2181 0.065,4.7443 -1.8129,5.2658 -1.8776,0.5214 -3.6236,-1.4521 -4.2166,-3.5914 -0.5932,-2.1393 0.1202,-4.1313 2.0688,-4.1556 2.4258,-0.03 3.8601,0.041 3.9607,2.4812 z"
         sodipodi:nodetypes="sssss" />
      <path
         id="rect1-7-8-5-1-5-4-34-0-1-3-9-6-4-0-6-7-3-8-1"
         style="stroke:#ffffff;stroke-width:0.419911;stroke-linejoin:round;stroke-dasharray:none;stroke-dashoffset:0;stroke-opacity:1"
         d="m 1059.4929,226.47321 c 0.4972,-0.7907 1.7472,-1.4823 2.8028,-1.5506 l 1.2426,-0.08 c 1.0555,-0.068 1.505,0.5133 1.0079,1.3041 -0.4972,0.7908 -1.452,1.0901 -2.5819,1.3041 -1.7162,0.325 -3.406,0.7432 -2.4714,-0.9772 z"
         sodipodi:nodetypes="ssssss" />
      <path
         id="rect1-9-4-41-7-6-1-1-5-8-1-3-6-7"
         style="stroke:#ffffff;stroke-width:0.359059;stroke-linejoin:round;stroke-dasharray:none;stroke-dashoffset:0;stroke-opacity:1"
         d="m 1063.058,199.46041 -2.7313,0.3113 c -0.9068,0.1033 -1.6344,0.8667 -1.5586,1.7011 l 1.1552,12.726 c 0.075,0.8344 0.8625,1.4432 1.7718,1.3644 l 1.609,-0.1394 c 0.9093,-0.079 1.4504,-0.8116 1.5107,-1.6489 l 0.9425,-13.0758 c 0.06,-0.8373 -1.7925,-1.342 -2.6992,-1.2387 z"
         sodipodi:nodetypes="sssssssss" />
      <path
         id="rect1-7-8-5-5-6-7-3-8-5-1-5-2-2-1"
         style="stroke:#ffffff;stroke-width:0.374331;stroke-linejoin:round;stroke-dasharray:none;stroke-dashoffset:0;stroke-opacity:1"
         d="m 1056.1629,193.09722 c 0.232,-0.0377 0.446,0.099 0.4954,0.40334 l 0.2817,1.73387 c 0.051,0.31283 -0.095,0.59597 -0.327,0.63363 -0.232,0.0377 -0.4599,-0.18465 -0.5107,-0.49757 l -0.2816,-1.7338 c -0.04,-0.24433 0.1098,-0.50173 0.3422,-0.53944 z"
         sodipodi:nodetypes="sssssss" />
      <path
         id="rect1-7-3-7-0-3-9-3-9-7-1-2-3-7"
         style="stroke:#ffffff;stroke-width:0.374331;stroke-linejoin:round;stroke-dasharray:none;stroke-dashoffset:0;stroke-opacity:1"
         d="m 1061.4128,177.88453 c -0.737,-0.52401 -2.4307,-0.3658 -2.7969,0.46905 l -2.9091,6.63161 c -0.3661,0.83486 -0.1779,1.86757 0.5592,2.39151 0.7371,0.52393 1.79,0.38877 2.2493,-0.39872 l 3.6818,-6.31412 c 0.4592,-0.78757 -0.048,-2.25538 -0.7843,-2.77931 z"
         sodipodi:nodetypes="ssssssss"
         inkscape:transform-center-x="2.4868785"
         inkscape:transform-center-y="4.8807218" />
      <path
         id="rect1-7-8-30-8-6-6-5-6-4-9-9-6-1-1"
         style="stroke:#ffffff;stroke-width:0.313714;stroke-linejoin:round;stroke-dasharray:none;stroke-dashoffset:0;stroke-opacity:1"
         d="m 1057.7735,184.36805 c -0.8642,-0.31882 -1.8155,-0.12582 -1.9526,0.48906 l -1.5924,7.14355 c -0.137,0.61497 -0.066,0.94231 0.7975,1.26114 0.8642,0.31882 1.2664,0.10737 1.4795,-0.48484 l 2.435,-6.76877 c 0.2131,-0.59229 -0.3029,-1.3213 -1.167,-1.64013 z"
         sodipodi:nodetypes="sssssss"
         inkscape:transform-center-x="1.3277433"
         inkscape:transform-center-y="3.4382978" />
      <path
         id="rect1-7-2-76-1-7-2-6-7-2-5-0-5-1-4"
         style="stroke:#ffffff;stroke-width:0.374331;stroke-linejoin:round;stroke-dasharray:none;stroke-dashoffset:0;stroke-opacity:1"
         d="m 1064.0478,178.4346 c 0.5498,-0.71814 1.9792,-0.4958 2.2157,0.38446 l 2.4491,9.12162 c 0.2371,0.88018 0.674,1.7507 0.1057,2.45367 -0.5688,0.70307 -1.8551,1.03173 -2.2736,0.22178 l -4.0664,-7.8695 c -0.2002,-0.88271 0.5765,-2.95863 1.5698,-4.31216 z"
         sodipodi:nodetypes="csssscc"
         inkscape:transform-center-x="-0.84320124"
         inkscape:transform-center-y="5.8619477" />
      <path
         id="rect1-9-4-4-31-7-1-4-3-0-5-7-9-6-3"
         style="stroke:#ffffff;stroke-width:0.387927;stroke-linejoin:round;stroke-dasharray:none;stroke-dashoffset:0;stroke-opacity:1"
         d="m 1063.1095,212.10091 -1.6007,-0.1868 c -0.9045,-0.1056 -1.8005,0.5882 -1.8378,1.5666 l -0.4466,11.7068 c -0.037,0.9783 -0.1687,1.6286 0.7359,1.7339 l 0.7216,0.084 c 0.9045,0.1053 1.6668,-0.6016 1.8378,-1.5666 l 2.0175,-11.3905 c 0.1709,-0.965 -0.5231,-1.8421 -1.4277,-1.9476 z"
         sodipodi:nodetypes="ssssssssss" />
      <path
         id="rect1-7-8-5-1-5-4-34-31-3-6-5-5-8-2-4-6-4-5"
         style="stroke:#ffffff;stroke-width:0.453133;stroke-linejoin:round;stroke-dasharray:none;stroke-dashoffset:0;stroke-opacity:1"
         d="m 1068.6149,230.47141 c 0.2714,-0.8965 1.3776,-1.7854 2.4805,-1.9927 l 1.2982,-0.2442 c 1.1028,-0.2074 1.7722,0.3474 1.5008,1.244 -0.2713,0.8965 -1.1911,1.3344 -2.3255,1.7047 -1.7231,0.5625 -3.3875,1.2199 -2.954,-0.7118 z"
         sodipodi:nodetypes="ssssss" />
      <path
         id="rect1-7-8-5-1-8-52-7-5-6-4-2-1-2"
         style="stroke:#ffffff;stroke-width:0.374331;stroke-linejoin:round;stroke-dasharray:none;stroke-dashoffset:0;stroke-opacity:1"
         d="m 1054.5132,192.37395 c 0.7517,-0.2572 1.9528,0.11297 1.8249,0.90361 -0.1581,0.97673 0.2257,1.87759 -0.7272,2.30497 -0.7559,0.33906 -1.8497,-0.004 -2.0308,-0.70029 -0.2016,-0.77519 0.1813,-2.25116 0.9331,-2.50829 z"
         sodipodi:nodetypes="sssss" />
      <path
         id="rect1-7-8-5-1-5-4-8-8-8-0-9-0-1-8"
         style="stroke:#ffffff;stroke-width:0.374331;stroke-linejoin:round;stroke-dasharray:none;stroke-dashoffset:0;stroke-opacity:1"
         d="m 1054.9082,194.04415 c 0.7702,0.19492 1.2322,0.97687 1.0357,1.75337 l -0.2311,0.91401 c -0.1965,0.77649 -0.9747,1.24472 -1.745,1.04986 -0.7702,-0.1948 -0.8627,-0.84367 -0.8125,-1.64322 0.076,-1.21423 0.039,-2.38764 1.7531,-2.07409 z"
         sodipodi:nodetypes="ssssss" />
      <path
         id="rect1-7-5-6-7-4-6-3-1-3-5-8-5-5"
         style="stroke:#ffffff;stroke-width:0.374331;stroke-linejoin:round;stroke-dasharray:none;stroke-dashoffset:0;stroke-opacity:1"
         d="m 1060.7475,177.72707 -0.041,-3.5389 c -0.017,-1.4718 2.9048,-1.3535 3.1864,0.3729 l 0.4019,2.464 c 0.3476,2.1308 -3.5228,2.8496 -3.5476,0.702 z"
         sodipodi:nodetypes="sssss" />
      <path
         id="rect1-9-69-4-8-4-7-7-73-7-5-9-3"
         style="stroke:#ffffff;stroke-width:0.359059;stroke-linejoin:round;stroke-dasharray:none;stroke-dashoffset:0;stroke-opacity:1"
         d="m 1066.3269,199.27041 -2.5414,0.6648 c -0.8829,0.231 -2.283,1.4044 -1.9694,2.1827 l 4.7755,11.855 c 0.3135,0.7784 1.0754,1.2925 1.9615,1.074 l 1.5681,-0.3866 c 0.8862,-0.2185 1.4348,-1.0484 1.2375,-1.8627 l -3.0157,-12.4502 c -0.1976,-0.8142 -1.1331,-1.308 -2.0161,-1.077 z"
         sodipodi:nodetypes="ssssssssss" />
      <path
         id="rect1-9-1-95-4-0-1-8-0-2-1-4-6-4"
         style="stroke:#ffffff;stroke-width:0.387927;stroke-linejoin:round;stroke-dasharray:none;stroke-dashoffset:0;stroke-opacity:1"
         d="m 1069.9478,214.28641 h -1.6116 c -0.9106,0 -1.6803,0.7898 -1.6438,1.7691 l 0.5139,13.7751 c 0.036,0.9793 0.7332,1.7691 1.6439,1.7691 h 0.6122 c 0.9107,0 0.8734,-0.7931 0.9565,-1.7691 l 1.1727,-13.7751 c 0.083,-0.976 -0.7331,-1.7691 -1.6438,-1.7691 z"
         sodipodi:nodetypes="sssssssss" />
      <path
         id="rect1-0-0-2-5-8-0-4-2-7-8-4"
         style="stroke:none;stroke-width:0.314577;stroke-linejoin:round;stroke-dasharray:none;stroke-dashoffset:0;stroke-opacity:1"
         d="m 1060.1232,177.34217 c 3.0003,-1.0108 4.9479,0.4451 6.954,1.0834 0.6282,0.1999 2.9867,1.3533 2.9424,2.2628 -0.3007,6.1747 -3.4532,11.6066 -2.114,17.37624 0.3784,1.6301 0.2411,3.0748 0.295,4.5613 0.033,0.9105 -0.5646,1.9068 -1.1621,1.6456 l -5.4259,-2.3722 c -0.5975,-0.2612 -2.686,1.6374 -2.6562,0.7266 0.056,-1.7288 -0.016,-3.3216 0.3116,-5.4099 0.8865,-5.64364 0.2016,-11.62944 -0.3116,-17.55294 -0.078,-0.9048 0.5362,-2.1084 1.1668,-2.3209 z"
         sodipodi:nodetypes="sssssssssss" />
      <path
         id="rect10-1-1-3-8-0-0-6-1-2-2-9"
         style="fill:#cccccc;stroke-width:0.22124;stroke-linejoin:round"
         d="m 1073.1522,184.92581 7.4704,-3.2525 1.588,0.2403 2.4831,-2.1828 -9.7628,1.0811 2.4381,0.3689 -7.5137,3.3001 z" />
      <path
         id="rect1-7-8-5-5-6-7-7-5-4-9-4-6-1-3-3-2-1-5-3"
         style="stroke:#ffffff;stroke-width:0.374331;stroke-linejoin:round;stroke-dasharray:none;stroke-dashoffset:0;stroke-opacity:1"
         d="m 1074.2955,195.50005 c -3e-4,-0.23515 0.1684,-0.42478 0.4771,-0.42487 l 1.7565,-0.002 c 0.317,2.2e-4 0.5734,0.18819 0.5736,0.42369 10e-5,0.23506 -0.2556,0.42461 -0.5726,0.42498 l -1.7566,0.002 c -0.2476,5.9e-4 -0.4777,-0.18874 -0.478,-0.42382 z"
         sodipodi:nodetypes="sssssss"
         inkscape:transform-center-x="-10.770209"
         inkscape:transform-center-y="16.812" />
      <path
         id="rect1-7-8-3-2-6-6-1-0-0-7-4-5-1-6-0"
         style="stroke:#ffffff;stroke-width:0.317429;stroke-linejoin:round;stroke-dasharray:none;stroke-dashoffset:0;stroke-opacity:1"
         d="m 1067.1113,189.78138 c 0.5855,-0.70969 1.5248,-1.02307 1.9539,-0.54078 l 5.1708,5.80966 c 0.4293,0.48226 0.5495,0.79485 -0.036,1.50446 -0.5855,0.7098 -1.0575,0.73743 -1.5402,0.30947 l -5.7083,-5.06158 c -0.4827,-0.42793 -0.4257,-1.3116 0.1598,-2.02123 z"
         sodipodi:nodetypes="sssssss"
         inkscape:transform-center-x="-5.6841313"
         inkscape:transform-center-y="14.390633" />
      <path
         id="rect1-7-8-5-1-8-7-5-7-9-2-9-8-5-3-1-9-0-3"
         style="stroke:#ffffff;stroke-width:0.374331;stroke-linejoin:round;stroke-dasharray:none;stroke-dashoffset:0;stroke-opacity:1"
         d="m 1072.8779,196.30578 c 0.1899,-0.77152 1.1509,-1.58174 1.7468,-1.04675 0.7362,0.66103 1.7015,0.82519 1.5459,1.85789 -0.1234,0.81911 -1.0033,1.55384 -1.6869,1.32981 -0.7611,-0.24937 -1.7958,-1.36948 -1.6058,-2.14095 z"
         sodipodi:nodetypes="sssss"
         inkscape:transform-center-x="-9.5923127"
         inkscape:transform-center-y="18.100466" />
      <path
         id="rect10-1-1-3-8-0-0-6-1-2-2"
         style="fill:#cccccc;stroke-width:0.22124;stroke-linejoin:round"
         d="m 1096.5638,174.35593 -7.4704,3.2525 -1.588,-0.2403 -2.483,2.1828 9.7627,-1.0811 -2.4381,-0.3689 7.5137,-3.3001 z" />
    </g>
  </g>
</svg>
