<?xml version="1.0" encoding="UTF-8" standalone="no"?>
<!-- Created with Inkscape (http://www.inkscape.org/) -->

<svg
   width="36.64085mm"
   height="62.267452mm"
   viewBox="0 0 36.64085 62.267452"
   version="1.1"
   id="svg1"
   xmlns:inkscape="http://www.inkscape.org/namespaces/inkscape"
   xmlns:sodipodi="http://sodipodi.sourceforge.net/DTD/sodipodi-0.dtd"
   xmlns="http://www.w3.org/2000/svg"
   xmlns:svg="http://www.w3.org/2000/svg">
  <sodipodi:namedview
     id="namedview1"
     pagecolor="#ffffff"
     bordercolor="#000000"
     borderopacity="0.25"
     inkscape:showpageshadow="2"
     inkscape:pageopacity="0.0"
     inkscape:pagecheckerboard="0"
     inkscape:deskcolor="#d1d1d1"
     inkscape:document-units="mm" />
  <defs
     id="defs1" />
  <g
     inkscape:label="Layer 1"
     inkscape:groupmode="layer"
     id="layer1"
     transform="translate(724.1816,-967.87162)">
    <g
       id="g45"
       transform="translate(-411.28993,775.30725)">
      <path
         id="path11-4"
         style="fill:#808080;stroke:none;stroke-width:0.0886796;stroke-linejoin:round;stroke-dasharray:none"
         d="m -311.76175,197.62651 v 1.89127 l -1.12986,0.0122 1.75551,2.23628 c 0.0427,0 1.61833,-2.27302 1.61833,-2.27302 l -1.11971,0.0122 v -1.87902 z" />
      <path
         id="path11-4-7"
         style="fill:#808080;stroke:none;stroke-width:0.0886796;stroke-linejoin:round;stroke-dasharray:none"
         d="m -311.71785,213.43514 v -1.89127 l -1.12986,-0.0123 1.75551,-2.23628 c 0.0427,0 1.61833,2.27302 1.61833,2.27302 l -1.11971,-0.0123 v 1.87902 z" />
      <path
         id="rect1-7-3-7-0-3-9-3-9-2-1"
         style="stroke:#ffffff;stroke-width:0.374331;stroke-linejoin:round;stroke-dasharray:none;stroke-dashoffset:0;stroke-opacity:1"
         d="m -286.05304,205.30946 c -0.0135,0.9042 -1.12302,2.03806 -2.03264,1.97769 l -6.71929,-0.44591 c -0.90962,-0.0604 -1.61101,-0.96119 -1.59747,-1.8654 0.0135,-0.90421 0.74158,-1.52969 1.65196,-1.57771 l 6.92042,-0.36498 c 0.91037,-0.048 1.79056,1.37211 1.77702,2.27631 z"
         sodipodi:nodetypes="sssssss"
         inkscape:transform-center-x="5.46551"
         inkscape:transform-center-y="-0.83942693" />
      <path
         id="rect1-9-4-4-31-7-1-4-3-0-2-9"
         style="stroke:#ffffff;stroke-width:0.387927;stroke-linejoin:round;stroke-dasharray:none;stroke-dashoffset:0;stroke-opacity:1"
         d="m -283.59689,236.41623 1.51491,-0.54957 c 0.85611,-0.31056 1.9219,0.15 2.1486,1.10243 l 3.2414,13.61819 c 0.2269,0.95241 0.53824,1.54611 -0.31786,1.85667 l -0.6829,0.24773 c -0.85609,0.31056 -1.81435,-0.18113 -2.14858,-1.10244 l -4.6976,-12.94941 c -0.33423,-0.9213 0.0859,-1.91304 0.94201,-2.2236 z"
         sodipodi:nodetypes="sssssssss" />
      <path
         id="rect1-9-1-95-4-0-1-8-0-4-8"
         style="stroke:#ffffff;stroke-width:0.387927;stroke-linejoin:round;stroke-dasharray:none;stroke-dashoffset:0;stroke-opacity:1"
         d="m -288.40593,234.29191 h 1.61153 c 0.91068,0 1.68037,0.78979 1.64383,1.76907 l -0.51391,13.77514 c -0.0365,0.97927 -0.73315,1.76907 -1.64384,1.76907 h -0.61225 c -0.91069,0 -0.87342,-0.7931 -0.95651,-1.76907 l -1.1727,-13.77514 c -0.0831,-0.97598 0.73316,-1.76907 1.64385,-1.76907 z"
         sodipodi:nodetypes="sssssssss"
         inkscape:transform-center-x="3.5913191"
         inkscape:transform-center-y="20.310169" />
      <path
         id="rect1-9-69-4-8-4-7-7-7-8"
         style="stroke:#ffffff;stroke-width:0.359059;stroke-linejoin:round;stroke-dasharray:none;stroke-dashoffset:0;stroke-opacity:1"
         d="m -290.00223,221.10289 2.62249,-0.15273 c 0.91111,-0.0531 2.60513,0.63041 2.54736,1.46754 l -0.87982,12.75044 c -0.0577,0.83712 -0.62354,1.56142 -1.53384,1.62736 l -1.61082,0.11671 c -0.91028,0.0659 -1.68844,-0.55392 -1.75239,-1.38927 l -0.97773,-12.77296 c -0.0636,-0.83538 0.67363,-1.59399 1.58475,-1.64706 z"
         sodipodi:nodetypes="ssssssssss"
         inkscape:transform-center-x="-0.38114726"
         inkscape:transform-center-y="6.4210065" />
      <path
         id="rect1-9-4-41-7-6-1-1-5-9-8"
         style="stroke:#ffffff;stroke-width:0.359059;stroke-linejoin:round;stroke-dasharray:none;stroke-dashoffset:0;stroke-opacity:1"
         d="m -287.79795,222.22734 2.69992,-0.51756 c 0.89629,-0.17181 1.81844,0.33983 1.99501,1.15879 l 2.69317,12.49135 c 0.1769,0.81891 -0.39285,1.63478 -1.28424,1.83078 l -1.57735,0.34683 c -0.89138,0.19599 -1.62642,-0.342 -1.93375,-1.1232 l -4.79971,-12.19952 c -0.30737,-0.78116 1.31065,-1.81561 2.20696,-1.98742 z"
         sodipodi:nodetypes="sssssssss" />
      <path
         id="rect1-0-0-2-5-8-0-3-4"
         style="stroke:none;stroke-width:0.351231;stroke-linejoin:round;stroke-dasharray:none;stroke-dashoffset:0;stroke-opacity:1"
         d="m -289.2214,203.54983 c -3.87437,0 3.80672,-1.04353 6.3785,-0.82528 4.41669,0.37482 2.51,3.0678 1.09384,6.94481 -1.30576,3.57476 -1.97299,7.45147 -1.14082,11.56942 0.0589,1.83782 0.90138,5.13015 -1.08097,6.20691 l -4.86788,2.44763 c -0.71706,0.36054 -1.74711,-3.33017 -1.70994,-4.24091 0.0705,-1.72878 -0.82678,-2.28022 -0.76952,-4.40737 0.16042,-5.9586 1.28208,-9.45086 0.64227,-15.37428 -0.0977,-0.90484 2.2689,-2.32093 1.45457,-2.32093 z"
         sodipodi:nodetypes="sssssssssss" />
      <path
         id="rect1-7-8-5-1-5-4-34-31-3-6-5-5-8-7-5"
         style="stroke:#ffffff;stroke-width:0.453133;stroke-linejoin:round;stroke-dasharray:none;stroke-dashoffset:0;stroke-opacity:1"
         d="m -287.81085,250.60365 c -0.62285,-0.69964 -2.00014,-1.04147 -3.08805,-0.76643 l -1.28068,0.32376 c -1.08793,0.27503 -1.46233,1.05971 -0.83947,1.75934 0.62284,0.69964 1.64147,0.71058 2.82652,0.57013 1.80001,-0.21327 3.58653,-0.31588 2.38168,-1.8868 z"
         sodipodi:nodetypes="ssssss"
         inkscape:transform-center-x="4.9581541"
         inkscape:transform-center-y="27.877204" />
      <path
         id="rect1-7-8-5-1-5-4-34-0-1-3-9-6-4-0-4-0"
         style="stroke:#ffffff;stroke-width:0.419911;stroke-linejoin:round;stroke-dasharray:none;stroke-dashoffset:0;stroke-opacity:1"
         d="m -279.15004,251.58078 c -0.88453,-0.30014 -2.2908,-0.0485 -3.15305,0.56414 l -1.01504,0.72123 c -0.86226,0.61268 -0.8443,1.34756 0.0402,1.6477 0.88453,0.30017 1.81431,-0.0696 2.82612,-0.61613 1.53689,-0.83008 3.112,-1.57113 1.30174,-2.31694 z"
         sodipodi:nodetypes="ssssss" />
      <path
         id="rect1-7-5-6-7-4-6-3-1-0-9"
         style="stroke:#ffffff;stroke-width:0.374331;stroke-linejoin:round;stroke-dasharray:none;stroke-dashoffset:0;stroke-opacity:1"
         d="m -284.06664,202.1749 -0.45532,-2.67901 c -0.24664,-1.45117 -2.90483,-1.35351 -3.18644,0.37284 l -0.40194,2.46403 c -0.34759,2.13083 4.40356,1.95946 4.0437,-0.15786 z"
         sodipodi:nodetypes="sssss" />
      <path
         id="path1-73-1-5-7-3-7-7-5"
         style="stroke:#ffffff;stroke-width:0.297735;stroke-linejoin:round;stroke-dasharray:none;stroke-dashoffset:0;stroke-opacity:1"
         d="m -283.76817,196.21383 c 0,2.25222 -1.27655,4.65541 -3.34092,4.65541 -2.06437,0 -3.288,-2.40319 -3.288,-4.65541 0,-2.25223 1.22363,-3.50061 3.288,-3.50061 2.06437,0 3.34092,1.24838 3.34092,3.50061 z"
         sodipodi:nodetypes="sssss" />
      <path
         id="rect1-7-8-30-8-6-6-5-6-4-1-2"
         style="stroke:#ffffff;stroke-width:0.313714;stroke-linejoin:round;stroke-dasharray:none;stroke-dashoffset:0;stroke-opacity:1"
         d="m -294.52901,205.17776 c -0.43283,0.81305 -1.27135,1.30215 -1.7829,0.93439 l -5.94253,-4.27234 c -0.51155,-0.36777 -0.67677,-0.659 -0.24395,-1.47205 0.43283,-0.81306 0.87377,-0.92294 1.42692,-0.62267 l 6.32211,3.43185 c 0.55314,0.30027 0.65317,1.18776 0.22035,2.00082 z"
         sodipodi:nodetypes="sssssss"
         inkscape:transform-center-x="2.7381555"
         inkscape:transform-center-y="1.5105359" />
      <path
         id="rect1-7-8-5-1-8-52-7-5-7-4-5-4-4-8"
         style="stroke:#ffffff;stroke-width:0.343523;stroke-linejoin:round;stroke-dasharray:none;stroke-dashoffset:0;stroke-opacity:1"
         d="m -301.46447,199.4626 c 0.227,0.63596 -0.19785,1.62434 -0.98937,1.48958 -0.9779,-0.16647 -1.90257,0.12154 -2.2925,-0.68819 -0.30935,-0.64236 0.0836,-1.54228 0.79321,-1.66852 0.79011,-0.14053 2.26165,0.23117 2.48867,0.8671 z"
         sodipodi:nodetypes="sssss" />
      <path
         id="rect1-7-8-5-1-5-4-8-8-8-1-8-2-1-8-1"
         style="stroke:#ffffff;stroke-width:0.288532;stroke-linejoin:round;stroke-dasharray:none;stroke-dashoffset:0;stroke-opacity:1"
         d="m -304.27249,199.19437 c -0.10176,0.57431 -0.69905,0.95669 -1.34004,0.85668 l -0.75409,-0.11735 c -0.64061,-0.0996 -1.07438,-0.64237 -0.97262,-1.21668 0.10176,-0.57433 0.61855,-0.67875 1.26718,-0.68735 0.98515,-0.0132 1.92919,-0.10651 1.79958,1.16473 z"
         sodipodi:nodetypes="ssssss" />
      <path
         id="rect1-7-8-5-5-6-7-3-8-5-2-7-2-9-8-8"
         style="stroke:#ffffff;stroke-width:0.374331;stroke-linejoin:round;stroke-dasharray:none;stroke-dashoffset:0;stroke-opacity:1"
         d="m -304.77304,198.49416 c 0.047,-0.23031 0.25136,-0.38142 0.55328,-0.31925 l 1.72046,0.35435 c 0.3105,0.0639 0.5231,0.30099 0.4757,0.53119 -0.047,0.23031 -0.33642,0.36394 -0.64687,0.3 l -1.72046,-0.35434 c -0.24242,-0.0499 -0.42911,-0.2823 -0.38211,-0.51193 z"
         sodipodi:nodetypes="sssssss" />
      <path
         id="rect1-7-8-3-2-6-6-1-0-0-7-9-0"
         style="stroke:#ffffff;stroke-width:0.317429;stroke-linejoin:round;stroke-dasharray:none;stroke-dashoffset:0;stroke-opacity:1"
         d="m -291.27375,212.75651 c 0.0176,-0.91989 -0.49127,-1.76929 -1.13106,-1.68267 l -7.70716,1.04344 c -0.63979,0.0866 -0.9346,0.24551 -0.95217,1.16545 -0.0176,0.91989 0.32271,1.24815 0.96761,1.23754 l 7.6282,-0.12554 c 0.64494,-0.0106 1.17699,-0.71833 1.19458,-1.63822 z"
         sodipodi:nodetypes="sssssss"
         inkscape:transform-center-x="0.080389477"
         inkscape:transform-center-y="2.6983356" />
      <path
         id="rect1-7-8-5-1-5-4-364-1-3-9-8-1-8-3-8-2"
         style="stroke:#ffffff;stroke-width:0.331135;stroke-linejoin:round;stroke-dasharray:none;stroke-dashoffset:0;stroke-opacity:1"
         d="m -303.4844,212.34913 c 0.0632,-0.61288 -0.53597,-1.14552 -1.34343,-1.19425 l -0.95053,-0.0574 c -0.80745,-0.0487 -1.50837,0.4054 -1.57158,1.0183 -0.0632,0.61288 0.52826,0.84172 1.31023,1.00345 1.18772,0.2457 2.29972,0.56388 2.55531,-0.77009 z"
         sodipodi:nodetypes="ssssss" />
      <path
         id="rect1-7-8-5-1-8-7-5-7-9-2-9-8-5-6-4"
         style="stroke:#ffffff;stroke-width:0.374331;stroke-linejoin:round;stroke-dasharray:none;stroke-dashoffset:0;stroke-opacity:1"
         d="m -301.66309,214.04198 c 0.67676,-0.41621 1.1551,-1.57859 0.46369,-1.98286 -0.85413,-0.49942 -1.30506,-1.36862 -2.24099,-0.90528 -0.74246,0.36754 -1.17356,1.4298 -0.75158,2.01238 0.46988,0.64861 1.85223,1.29215 2.52888,0.87576 z"
         sodipodi:nodetypes="sssss" />
      <path
         id="rect1-7-8-5-5-6-7-7-5-4-9-4-6-1-3-9-2"
         style="stroke:#ffffff;stroke-width:0.374331;stroke-linejoin:round;stroke-dasharray:none;stroke-dashoffset:0;stroke-opacity:1"
         d="m -304.88521,211.75205 c 0.008,0.23494 0.18359,0.41828 0.49176,0.40771 l 1.75554,-0.06 c 0.31681,-0.011 0.56626,-0.20874 0.55824,-0.44365 -0.008,-0.2349 -0.27045,-0.4153 -0.58723,-0.40447 l -1.75556,0.06 c -0.24732,0.008 -0.47076,0.20545 -0.46275,0.44036 z"
         sodipodi:nodetypes="sssssss" />
      <g
         id="g6-1-1-4-6-9-1-6-2-7-4-4-5"
         transform="matrix(0.31046595,0,0,0.31046595,-332.67341,155.78636)"
         style="stroke-width:0.756927;stroke-dasharray:none">
        <rect
           style="opacity:1;fill:#000000;stroke:#ffffff;stroke-width:0.756927;stroke-linejoin:round;stroke-dasharray:none"
           id="rect5-8-3-8-1-8-2-2-7-3-8-3-4"
           width="10.664055"
           height="10.785408"
           x="81.009392"
           y="159.09109" />
        <path
           id="rect5-9-6-4-2-3-0-7-7-8-0-4-5-8"
           style="fill:#000000;stroke:#ffffff;stroke-width:0.952065;stroke-linejoin:round;stroke-dasharray:none"
           transform="matrix(0.63208417,-0.77489973,0,1,0,0)"
           d="m 145.0336,271.4776 5.6318,-0.31314 1e-5,10.65467 -5.63181,0.44388 z"
           sodipodi:nodetypes="ccccc" />
        <rect
           style="fill:#000000;stroke:#ffffff;stroke-width:0.845887;stroke-linejoin:round;stroke-dasharray:none"
           id="rect5-9-1-3-5-4-3-5-1-4-5-6-2-5-7"
           width="5.8412356"
           height="10.785408"
           x="-198.68402"
           y="-210.75246"
           transform="matrix(0.59903324,-0.80072416,-1,0,0,0)" />
      </g>
      <path
         id="rect1-7-2-76-1-7-2-6-7-2-4-0"
         style="stroke:#ffffff;stroke-width:0.374331;stroke-linejoin:round;stroke-dasharray:none;stroke-dashoffset:0;stroke-opacity:1"
         d="m -281.45557,208.16082 c 0.0715,-0.9015 -1.09783,-2.55201 -1.89501,-2.10994 l -8.06413,4.47186 c -0.79724,0.44211 -1.672,0.85071 -1.71927,1.75379 -0.0473,0.90309 0.70909,2.05547 1.54214,1.6852 l 8.21027,-3.64927 c 0.59427,-0.26414 1.61094,-0.93038 1.97119,-1.37796 0.14473,-0.17986 -0.10764,0.0141 -0.0877,-0.23752 z"
         sodipodi:nodetypes="sssssssss"
         inkscape:transform-center-x="4.0473904"
         inkscape:transform-center-y="1.6761839" />
    </g>
  </g>
</svg>
