<?xml version="1.0" encoding="UTF-8" standalone="no"?>
<!-- Created with Inkscape (http://www.inkscape.org/) -->

<svg
   width="37.474457mm"
   height="63.642628mm"
   viewBox="0 0 37.474457 63.642628"
   version="1.1"
   id="svg1"
   xmlns:inkscape="http://www.inkscape.org/namespaces/inkscape"
   xmlns:sodipodi="http://sodipodi.sourceforge.net/DTD/sodipodi-0.dtd"
   xmlns="http://www.w3.org/2000/svg"
   xmlns:svg="http://www.w3.org/2000/svg">
  <sodipodi:namedview
     id="namedview1"
     pagecolor="#ffffff"
     bordercolor="#000000"
     borderopacity="0.25"
     inkscape:showpageshadow="2"
     inkscape:pageopacity="0.0"
     inkscape:pagecheckerboard="0"
     inkscape:deskcolor="#d1d1d1"
     inkscape:document-units="mm" />
  <defs
     id="defs1" />
  <g
     inkscape:label="Layer 1"
     inkscape:groupmode="layer"
     id="layer1"
     transform="translate(724.59841,-1076.6467)">
    <g
       id="g100"
       transform="translate(-1501.8781,-18.199101)">
      <path
         id="rect4-7-2-6"
         style="fill:#cccccc;stroke-width:0.281202;stroke-linejoin:round"
         d="m 792.15566,1094.8458 -1.14515,26.8941 -0.96744,10.6311 -1.7986,5.7349 0.45623,-11.42 2.30981,-4.946 -5.83132,-0.2223 -3.07085,5.1683 0.7718,24.1453 h 4.85591 v 0 h 21.39039 4.85551 l 0.7722,-24.1453 -3.07125,-5.1683 -5.80183,-0.016 2.28033,5.1846 0.45582,11.3989 -1.76752,-5.7807 -0.96863,-10.8028 -1.1069,-26.6554 z"
         sodipodi:nodetypes="cccccccccccccccccccccc" />
      <path
         id="rect1-7-8-30-4-0-7"
         style="stroke:#ffffff;stroke-width:0.313714;stroke-linejoin:round;stroke-dasharray:none;stroke-dashoffset:0;stroke-opacity:1"
         d="m 787.86608,1120.569 c 0.89619,0.2127 1.55591,0.8906 1.35569,1.4879 l -1.86853,5.5747 c -0.20019,0.5974 -0.46598,0.8217 -1.36218,0.609 -0.8962,-0.2126 -1.06789,-0.6018 -0.96394,-1.2225 l 0.95929,-5.7289 c 0.10396,-0.6208 0.98346,-0.9329 1.87967,-0.7202 z"
         sodipodi:nodetypes="sssssss"
         inkscape:transform-center-x="0.63653683"
         inkscape:transform-center-y="2.8354278" />
      <path
         id="rect1-9-4-4-3-7-9-0"
         style="stroke:#ffffff;stroke-width:0.387927;stroke-linejoin:round;stroke-dasharray:none;stroke-dashoffset:0;stroke-opacity:1"
         d="m 801.86179,1138.0278 h 1.61153 c 0.91069,0 1.75553,0.7964 1.64384,1.769 l -1.59695,13.9073 c -0.1117,0.9726 -0.0213,1.6369 -0.93197,1.6369 h -0.72645 c -0.91069,0 -1.64384,-0.789 -1.64384,-1.769 v -13.7752 c 0,-0.98 0.73315,-1.769 1.64384,-1.769 z"
         sodipodi:nodetypes="sssssssss" />
      <path
         id="rect1-9-1-4-5-8-0"
         style="stroke:#ffffff;stroke-width:0.387927;stroke-linejoin:round;stroke-dasharray:none;stroke-dashoffset:0;stroke-opacity:1"
         d="m 791.48028,1136.3185 1.58791,-0.2749 c 0.89734,-0.1553 1.79047,0.4916 1.9215,1.4627 l 1.84324,13.661 c 0.1311,0.9711 -0.42066,1.8682 -1.318,2.0235 l -0.60327,0.1045 c -0.89735,0.1553 -0.99591,-0.6325 -1.24425,-1.58 l -3.50513,-13.3733 c -0.24835,-0.9475 0.42065,-1.8682 1.318,-2.0235 z"
         sodipodi:nodetypes="sssssssss"
         inkscape:transform-center-x="-1.0211069"
         inkscape:transform-center-y="6.845113" />
      <path
         id="rect1-7-3-6-4-0"
         style="stroke:#ffffff;stroke-width:0.374331;stroke-linejoin:round;stroke-dasharray:none;stroke-dashoffset:0;stroke-opacity:1"
         d="m 794.54843,1111.3869 c 0.82479,0.3708 1.55536,1.9194 1.01015,2.65 l -6.16585,8.2626 c -0.5452,0.7307 -1.52097,1.0982 -2.34577,0.7274 -0.8248,-0.3708 -1.27825,-1.3698 -0.79378,-2.142 l 5.50106,-8.7687 c 0.48446,-0.7722 1.96939,-1.1001 2.79419,-0.7293 z"
         sodipodi:nodetypes="sssssss"
         inkscape:transform-center-x="2.8406965"
         inkscape:transform-center-y="4.6739601" />
      <path
         id="rect1-9-7-8-2-9"
         style="stroke:#ffffff;stroke-width:0.226153;stroke-linejoin:round;stroke-dasharray:none;stroke-dashoffset:0;stroke-opacity:1"
         d="m 794.12796,1132.2417 2.42247,1.0815 c 0.84161,0.3758 2.25029,1.3522 1.99022,1.5825 -1.23746,1.0962 -2.54096,1.466 -3.66426,3.818 -0.14972,0.3135 -0.91844,0.2449 -1.7622,-0.1262 l -1.49309,-0.6568 c -0.84377,-0.3712 -1.33628,-1.4055 -1.33121,-1.7345 0.0339,-2.1984 0.83553,-3.5194 1.741,-4.7218 0.19797,-0.2628 1.25544,0.3815 2.09706,0.7573 z"
         sodipodi:nodetypes="ssssssssss"
         inkscape:transform-center-x="1.3007951"
         inkscape:transform-center-y="1.7913472" />
      <path
         id="rect1-9-4-1-7-4-9"
         style="stroke:#ffffff;stroke-width:0.226153;stroke-linejoin:round;stroke-dasharray:none;stroke-dashoffset:0;stroke-opacity:1"
         d="m 800.95324,1132.9501 2.7755,0.029 c 0.92139,0.01 1.72004,0.2838 1.71658,0.6129 l -0.0527,5.0191 c -0.003,0.3291 -0.74208,0.594 -1.66387,0.594 h -1.63116 c -0.92178,0 -1.53015,-0.2684 -1.66387,-0.594 l -2.0885,-5.0849 c -0.13373,-0.3256 1.68664,-0.5859 2.60803,-0.5762 z"
         sodipodi:nodetypes="sssssssss" />
      <path
         id="rect1-7-8-5-1-8-52-3-7-8"
         style="stroke:#ffffff;stroke-width:0.374331;stroke-linejoin:round;stroke-dasharray:none;stroke-dashoffset:0;stroke-opacity:1"
         d="m 785.75313,1127.233 c 0.7945,0 1.81108,0.739 1.43412,1.4457 -0.46569,0.873 -0.3942,1.8496 -1.43412,1.9455 -0.82495,0.076 -1.74882,-0.6027 -1.69476,-1.32 0.0602,-0.7986 0.90025,-2.0712 1.69476,-2.0712 z"
         sodipodi:nodetypes="sssss" />
      <path
         id="rect1-7-8-5-1-5-4-8-0-7-9"
         style="stroke:#ffffff;stroke-width:0.374331;stroke-linejoin:round;stroke-dasharray:none;stroke-dashoffset:0;stroke-opacity:1"
         d="m 785.17725,1128.5463 c 0.76742,-0.2056 1.55214,0.2517 1.75943,1.0253 l 0.24403,0.9107 c 0.20729,0.7737 -0.24365,1.562 -1.01109,1.7677 -0.76742,0.2056 -1.16471,-0.3156 -1.51097,-1.0379 -0.526,-1.0971 -1.13057,-2.1034 0.5186,-2.6658 z"
         sodipodi:nodetypes="ssssss" />
      <path
         id="rect1-7-8-5-5-6-7-3-2-4-5"
         style="stroke:#ffffff;stroke-width:0.374331;stroke-linejoin:round;stroke-dasharray:none;stroke-dashoffset:0;stroke-opacity:1"
         d="m 786.65872,1127.7021 c 0.20357,-0.1175 0.45206,-0.066 0.60621,0.2014 l 0.87829,1.5213 c 0.15849,0.2745 0.12264,0.5909 -0.0809,0.7084 -0.20357,0.1175 -0.4955,-0.01 -0.65399,-0.2841 l -0.87829,-1.5213 c -0.12374,-0.2143 -0.0749,-0.5081 0.12871,-0.6257 z"
         sodipodi:nodetypes="sssssss" />
      <path
         id="rect1-7-8-3-2-69-0-1"
         style="stroke:#ffffff;stroke-width:0.317429;stroke-linejoin:round;stroke-dasharray:none;stroke-dashoffset:0;stroke-opacity:1"
         d="m 809.72987,1120.9269 c -0.87254,0.2919 -1.46391,1.038 -1.206,1.6299 l 2.40696,5.5234 c 0.25789,0.5918 0.54473,0.7981 1.41726,0.5062 0.87252,-0.2919 1.00565,-0.7028 0.84141,-1.3266 l -1.5157,-5.7568 c -0.16425,-0.6238 -1.07141,-0.868 -1.94393,-0.5761 z"
         sodipodi:nodetypes="sssssss"
         inkscape:transform-center-x="-0.92606868"
         inkscape:transform-center-y="2.5990388" />
      <path
         id="rect1-7-2-76-0-2-4"
         style="stroke:#ffffff;stroke-width:0.374331;stroke-linejoin:round;stroke-dasharray:none;stroke-dashoffset:0;stroke-opacity:1"
         d="m 803.39906,1111.8991 c -0.8282,0.3632 -1.57302,1.9049 -1.03459,2.6405 l 6.08928,8.3193 c 0.53844,0.7356 1.51077,1.1121 2.33896,0.7489 0.8282,-0.3631 1.29084,-1.3578 0.81352,-2.1345 l -5.41984,-8.8191 c -0.47732,-0.7767 -1.95914,-1.1183 -2.78733,-0.7551 z"
         sodipodi:nodetypes="sssssss"
         inkscape:transform-center-x="-2.968664"
         inkscape:transform-center-y="4.0653421" />
      <path
         id="rect1-7-8-5-1-8-7-5-8-6-6"
         style="stroke:#ffffff;stroke-width:0.374331;stroke-linejoin:round;stroke-dasharray:none;stroke-dashoffset:0;stroke-opacity:1"
         d="m 812.14383,1127.2504 c -0.7945,0 -1.81108,0.7391 -1.43412,1.4457 0.46569,0.873 0.3942,1.8496 1.43412,1.9455 0.82495,0.076 1.74882,-0.6027 1.69477,-1.32 -0.0602,-0.7986 -0.90026,-2.0712 -1.69477,-2.0712 z"
         sodipodi:nodetypes="sssss" />
      <path
         id="rect1-7-8-5-5-6-7-7-5-2-4-6"
         style="stroke:#ffffff;stroke-width:0.374331;stroke-linejoin:round;stroke-dasharray:none;stroke-dashoffset:0;stroke-opacity:1"
         d="m 811.23825,1127.7196 c -0.20358,-0.1176 -0.45207,-0.066 -0.60622,0.2013 l -0.87828,1.5213 c -0.1585,0.2745 -0.12265,0.5909 0.0809,0.7084 0.20357,0.1176 0.4955,-0.01 0.65399,-0.2841 l 0.87829,-1.5212 c 0.12374,-0.2144 0.0749,-0.5082 -0.12871,-0.6257 z"
         sodipodi:nodetypes="sssssss" />
      <path
         id="rect1-92-8-6-6"
         style="stroke:none;stroke-width:0.364535;stroke-linejoin:round;stroke-dasharray:none;stroke-dashoffset:0;stroke-opacity:1"
         d="m 793.81023,1111.4407 c 4.48102,-1.7282 6.95788,-0.6054 9.7985,0 0.88945,0.1895 1.70826,0.698 1.64554,1.5605 -0.42584,5.8558 -2.31401,11.9794 -0.41771,17.451 0.53577,1.5459 0.34141,2.916 0.41771,4.3257 0.0467,0.8634 -0.73391,1.5606 -1.64554,1.5606 h -9.7985 c -0.91163,0 -1.66848,-0.6963 -1.64554,-1.5606 0.0443,-1.671 -0.17824,-3.2867 0.44127,-5.1304 1.76084,-5.2403 0.28547,-11.0289 -0.44127,-16.6463 -0.11101,-0.8581 0.80107,-1.2349 1.64554,-1.5605 z"
         sodipodi:nodetypes="sssssssssss" />
      <path
         id="rect1-7-8-5-1-5-4-34-3-9-5-3"
         style="stroke:#ffffff;stroke-width:0.485783;stroke-linejoin:round;stroke-dasharray:none;stroke-dashoffset:0;stroke-opacity:1"
         d="m 795.71318,1152.0307 c -0.70994,-0.7009 -2.11346,-0.8712 -3.14686,-0.3819 l -1.21653,0.576 c -1.03343,0.4893 -1.29384,1.4475 -0.58389,2.1484 0.70994,0.7008 1.71459,0.55 2.86223,0.1991 1.7432,-0.5328 3.48839,-0.9369 2.08505,-2.5416 z"
         sodipodi:nodetypes="ssssss" />
      <path
         id="rect1-7-8-5-1-5-4-34-0-6-0-5-7"
         style="stroke:#ffffff;stroke-width:0.485783;stroke-linejoin:round;stroke-dasharray:none;stroke-dashoffset:0;stroke-opacity:1"
         d="m 801.19113,1153.2617 c 0.70994,-0.7008 2.11345,-0.8712 3.14686,-0.3818 l 1.21653,0.5759 c 1.03342,0.4894 1.29383,1.4475 0.58389,2.1484 -0.70994,0.7009 -1.7146,0.55 -2.86223,0.1991 -1.7432,-0.5328 -3.48839,-0.9368 -2.08505,-2.5416 z"
         sodipodi:nodetypes="ssssss" />
      <path
         id="rect1-7-5-2-8-8-2"
         style="stroke:#ffffff;stroke-width:0.374331;stroke-linejoin:round;stroke-dasharray:none;stroke-dashoffset:0;stroke-opacity:1"
         d="m 800.70224,1110.1661 -0.45533,-2.679 c -0.24664,-1.4512 -2.90483,-1.3535 -3.18644,0.3729 l -0.40194,2.464 c -0.34759,2.1308 4.40356,1.9594 4.04371,-0.1579 z"
         sodipodi:nodetypes="sssss" />
      <path
         id="path1-75-2-6-7"
         style="stroke:#ffffff;stroke-width:0.307315;stroke-linejoin:round;stroke-dasharray:none;stroke-dashoffset:0;stroke-opacity:1"
         d="m 802.23525,1105.0021 c 0,2.2007 -1.39188,4.5489 -3.64273,4.5489 -2.25086,0 -3.58503,-2.3482 -3.58503,-4.5489 0,-2.2007 1.33417,-3.4205 3.58503,-3.4205 2.25085,0 3.64273,1.2198 3.64273,3.4205 z"
         sodipodi:nodetypes="sssss" />
      <path
         id="rect23-8-9"
         style="stroke:#ffffff;stroke-width:0.286;stroke-linejoin:round"
         d="m 794.88643,1100.0161 h 0.77664 l 0.84336,-0.8929 0.97565,0.8929 0.81028,-0.8929 1.05834,0.8929 0.95911,-0.8929 1.04302,0.884 0.68974,0.01 v 2.8063 h -7.15614 z"
         sodipodi:nodetypes="cccccccccccc" />
      <g
         id="g3-6-6-1"
         transform="matrix(0.31048001,-0.47132461,0.47132461,0.31048001,757.94473,1117.5436)"
         style="fill:#4d4d4d;stroke-width:0.661458;stroke-dasharray:none">
        <path
           style="fill:#4d4d4d;fill-opacity:1;stroke:#ffffff;stroke-width:0.661458;stroke-linejoin:round;stroke-dasharray:none;stroke-dashoffset:0;stroke-opacity:1"
           d="M 33.86842,40.815787 31.610527,51.58421 31.436841,94.136841 h 3.821052 l 0.303948,-42.682896 z"
           id="path2-6-5-7"
           sodipodi:nodetypes="cccccc" />
        <rect
           style="fill:#4d4d4d;fill-opacity:1;stroke:#ffffff;stroke-width:0.661458;stroke-linejoin:round;stroke-dasharray:none;stroke-dashoffset:0;stroke-opacity:1"
           id="rect3-9-7-3"
           width="11.541431"
           height="3.7543805"
           x="27.576651"
           y="85.616226" />
      </g>
      <path
         id="rect1-7-8-5-1-5-4-364-1-4-3-3"
         style="stroke:#ffffff;stroke-width:0.374331;stroke-linejoin:round;stroke-dasharray:none;stroke-dashoffset:0;stroke-opacity:1"
         d="m 812.71972,1128.5638 c -0.76743,-0.2057 -1.55214,0.2516 -1.75943,1.0252 l -0.24403,0.9107 c -0.2073,0.7737 0.24364,1.5621 1.01108,1.7677 0.76743,0.2056 1.16472,-0.3156 1.51097,-1.0379 0.526,-1.097 1.13057,-2.1034 -0.51859,-2.6657 z"
         sodipodi:nodetypes="ssssss" />
      <g
         id="g6-1-3-9"
         transform="matrix(0.82170206,0,0,0.82170206,710.99843,1018.6142)">
        <rect
           style="opacity:1;fill:#000000;stroke:#ffffff;stroke-width:0.661458;stroke-linejoin:round"
           id="rect5-8-8-0"
           width="10.664055"
           height="10.785408"
           x="81.009392"
           y="159.09109" />
        <path
           id="rect5-9-6-0-2"
           style="fill:#000000;stroke:#ffffff;stroke-width:0.550995;stroke-linejoin:round"
           transform="matrix(0.63208417,-0.77489973,0,1,0,0)"
           d="m 145.0336,271.4776 5.6318,-0.31314 1e-5,10.65467 -5.63181,0.44388 z"
           sodipodi:nodetypes="ccccc" />
        <rect
           style="fill:#000000;stroke:#ffffff;stroke-width:0.489546;stroke-linejoin:round"
           id="rect5-9-1-3-0-8"
           width="5.8412356"
           height="10.785408"
           x="-198.68402"
           y="-210.75246"
           transform="matrix(0.59903324,-0.80072416,-1,0,0,0)" />
      </g>
      <path
         id="path1-7-0-3-2-1-1"
         style="fill:#f9f9f9;stroke:#ffffff;stroke-width:0.163444;stroke-linejoin:round;stroke-dasharray:none;stroke-dashoffset:0;stroke-opacity:1"
         d="m 781.06741,1151.8801 a 0.95035425,0.97112139 9.9841497 0 0 -0.95098,0.9776 0.95035425,0.97112139 9.9841497 0 0 0.21541,0.612 h -0.0113 l 1.45649,1.787 1.41421,-1.7642 a 0.95035425,0.97112139 9.9841497 0 0 0.25228,-0.6599 0.95035425,0.97112139 9.9841497 0 0 -0.95097,-0.9633 0.95035425,0.97112139 9.9841497 0 0 -0.71232,0.3338 0.95035425,0.97112139 9.9841497 0 0 -0.71286,-0.3231 z" />
    </g>
  </g>
</svg>
