<?xml version="1.0" encoding="UTF-8" standalone="no"?>
<!-- Created with Inkscape (http://www.inkscape.org/) -->

<svg
   width="80.962502mm"
   height="73.782707mm"
   viewBox="0 0 80.962502 73.782707"
   version="1.1"
   id="svg1"
   xmlns:inkscape="http://www.inkscape.org/namespaces/inkscape"
   xmlns:sodipodi="http://sodipodi.sourceforge.net/DTD/sodipodi-0.dtd"
   xmlns="http://www.w3.org/2000/svg"
   xmlns:svg="http://www.w3.org/2000/svg">
  <sodipodi:namedview
     id="namedview1"
     pagecolor="#ffffff"
     bordercolor="#000000"
     borderopacity="0.25"
     inkscape:showpageshadow="2"
     inkscape:pageopacity="0.0"
     inkscape:pagecheckerboard="0"
     inkscape:deskcolor="#d1d1d1"
     inkscape:document-units="mm" />
  <defs
     id="defs1" />
  <g
     inkscape:label="Layer 1"
     inkscape:groupmode="layer"
     id="layer1"
     transform="translate(746.34242,-1329.5362)">
    <g
       id="g107"
       transform="translate(-1501.9924,1079.47)">
      <path
         style="opacity:1;fill:#333333;stroke:none;stroke-width:1;stroke-linejoin:round;stroke-dasharray:none"
         d="m 755.64999,323.84888 c 0.28968,-32.40297 3.85975,-73.82585 41.79365,-73.78275 39.21988,0.0446 39.04059,44.3883 39.16885,73.78275 z"
         id="path69"
         sodipodi:nodetypes="cscc" />
      <path
         id="rect1-7-3-7-0-9-1-4-5-1"
         style="fill:#666666;stroke:none;stroke-width:0.199939;stroke-linejoin:round;stroke-dasharray:none;stroke-dashoffset:0;stroke-opacity:1"
         inkscape:transform-center-x="-2.9271845"
         inkscape:transform-center-y="0.33228839"
         d="m 796.48882,259.14295 c -2.22857,0 -3.54965,1.22757 -3.54965,3.44216 0,1.54932 0.64734,3.17025 1.79885,4.00493 l -0.21962,1.34513 c -0.004,0.0252 -0.007,0.0498 -0.009,0.0744 -0.85821,0.14287 -1.79236,0.39908 -2.83911,0.82475 -0.1662,0.0676 -0.33193,0.14131 -0.49506,0.21653 -0.22527,-0.0949 -0.43443,-0.14784 -0.60409,-0.12351 l -8.4491,1.21181 c -0.0404,0.006 -0.0796,0.0294 -0.11731,0.0646 l -8.04188,2.05724 c -0.20996,0.0537 -0.3827,0.12382 -0.51522,0.22634 -0.4946,-0.41164 -1.25004,-0.6873 -1.76836,-0.66249 -0.002,1.1e-4 -0.004,3.9e-4 -0.007,5.2e-4 -0.43977,-0.0493 -0.98047,0.11467 -1.53789,0.25786 -0.77582,0.19924 -1.36459,0.48779 -1.31207,1.28054 0.0525,0.79277 0.73819,1.38832 1.53737,1.33532 l 0.93845,-0.062 -0.13591,0.10284 c -0.25297,0.19099 -0.34317,0.49607 -0.20154,0.68368 0.14164,0.18726 0.45962,0.18428 0.71262,-0.007 l 0.82992,-0.62632 c 0.0602,0.019 0.12022,0.0399 0.18035,0.0631 0.34747,0.13356 0.66455,-0.033 0.89504,-0.32815 0.17624,0.13521 0.40834,0.1592 0.71417,0.11576 l 8.34884,-1.18495 c 0.0152,-0.002 0.0295,-0.007 0.0444,-0.01 0.46578,0.0463 0.95206,-0.0251 1.2945,-0.0631 l 6.34018,-0.70228 c 0.74579,5.22083 1.6886,10.50826 0.14521,15.35152 -0.558,1.75107 -0.43413,3.30772 -0.43615,4.88704 -0.0683,0.16439 -0.10762,0.34061 -0.10697,0.524 l 0.0522,12.81007 c 6.6e-4,0.1635 0.0296,0.32041 0.0816,0.46767 -0.11567,0.24373 -0.17329,0.52004 -0.14832,0.81338 l 1.08573,12.74806 c -0.29641,0.0408 -0.58657,0.1223 -0.85215,0.24805 l -1.21647,0.57619 c -1.03341,0.4893 -1.29388,1.44732 -0.58394,2.14819 0.70994,0.70087 1.71472,0.54981 2.86236,0.19896 0.41356,-0.12641 0.82615,-0.24551 1.19786,-0.37517 h 0.24805 c 0.91069,0 1.60733,-0.78961 1.64383,-1.76889 l 0.51418,-13.77539 c 0.009,-0.24072 -0.0315,-0.4696 -0.11007,-0.67851 0.0929,-0.18493 0.15668,-0.38878 0.18706,-0.60254 l 1.5875,-11.16573 h 0.0331 l 1.77147,11.09131 c 0.0222,0.13873 0.0587,0.27296 0.10645,0.40101 -0.13369,0.25615 -0.21084,0.5518 -0.21084,0.86765 v 13.77487 c 0,0.97236 0.72191,1.7561 1.62264,1.76837 0.42859,0.16495 0.93085,0.30874 1.43557,0.46302 1.14763,0.35085 2.15242,0.50191 2.86236,-0.19896 0.70994,-0.70087 0.44947,-1.65889 -0.58394,-2.14819 l -1.21647,-0.57619 c -0.21914,-0.10376 -0.45534,-0.17654 -0.69763,-0.22221 l 1.47691,-12.86071 c 0.0243,-0.21122 10e-4,-0.41327 -0.0558,-0.60152 0.10753,-0.20113 0.16968,-0.42721 0.17054,-0.66714 l 0.0522,-12.77803 c 8.7e-4,-0.21467 -0.0511,-0.41989 -0.14315,-0.6072 -0.0159,-1.26342 0.0582,-2.52058 -0.39945,-3.91294 -1.66016,-5.05105 -0.41942,-10.62904 0.20102,-16.08325 l 6.33191,0.70125 c 0.34256,0.0379 0.82857,0.10947 1.29449,0.063 0.0149,0.003 0.0293,0.008 0.0444,0.01 l 8.34884,1.18546 c 0.30583,0.0434 0.53793,0.0189 0.71417,-0.11627 0.23049,0.29517 0.54757,0.4617 0.89504,0.32814 0.0603,-0.0232 0.12048,-0.0435 0.18086,-0.0625 l 0.82889,0.6258 c 0.253,0.191 0.5715,0.19398 0.71314,0.007 0.14163,-0.18761 0.0514,-0.4927 -0.20154,-0.68368 l -0.13591,-0.10283 0.93844,0.062 c 0.79918,0.053 1.48486,-0.54255 1.53738,-1.33532 0.0525,-0.79274 -0.53625,-1.0808 -1.31207,-1.28003 -0.55832,-0.14342 -1.09981,-0.30796 -1.53995,-0.25786 -0.002,-9e-5 -0.003,-4.4e-4 -0.005,-5.2e-4 -0.51833,-0.0248 -1.27377,0.25033 -1.76837,0.66198 -0.13252,-0.10252 -0.30526,-0.17211 -0.51522,-0.22583 l -8.04188,-2.05775 c -0.0377,-0.0352 -0.0769,-0.0583 -0.11731,-0.0641 l -8.4491,-1.21233 c -0.12524,-0.018 -0.27175,0.006 -0.43046,0.0579 -0.22806,-0.11722 -0.47943,-0.2081 -0.74001,-0.26666 -0.97519,-0.21913 -1.90863,-0.50031 -2.89388,-0.70435 0.012,-0.11081 0.009,-0.22813 -0.0124,-0.35243 l -0.21394,-1.25832 c 1.10924,-0.85332 1.74718,-2.42771 1.74718,-3.93413 0,-2.21459 -1.37793,-3.44216 -3.6065,-3.44216 z" />
    </g>
  </g>
</svg>
