<?xml version="1.0" encoding="UTF-8" standalone="no"?>
<!-- Created with Inkscape (http://www.inkscape.org/) -->

<svg
   width="81.208282mm"
   height="52.778111mm"
   viewBox="0 0 81.208282 52.778111"
   version="1.1"
   id="svg1"
   xmlns:inkscape="http://www.inkscape.org/namespaces/inkscape"
   xmlns:sodipodi="http://sodipodi.sourceforge.net/DTD/sodipodi-0.dtd"
   xmlns="http://www.w3.org/2000/svg"
   xmlns:svg="http://www.w3.org/2000/svg">
  <sodipodi:namedview
     id="namedview1"
     pagecolor="#ffffff"
     bordercolor="#000000"
     borderopacity="0.25"
     inkscape:showpageshadow="2"
     inkscape:pageopacity="0.0"
     inkscape:pagecheckerboard="0"
     inkscape:deskcolor="#d1d1d1"
     inkscape:document-units="mm" />
  <defs
     id="defs1" />
  <g
     inkscape:label="Layer 1"
     inkscape:groupmode="layer"
     id="layer1"
     transform="translate(746.46529,416.11562)">
    <g
       id="g51"
       transform="translate(-1346.8709,-1213.8906)"
       inkscape:export-filename=".\2"
       inkscape:export-xdpi="96"
       inkscape:export-ydpi="96">
      <path
         id="rect1-9-4-41-7-7-6-8"
         style="stroke:#ffffff;stroke-width:0.359059;stroke-linejoin:round;stroke-dasharray:none;stroke-dashoffset:0;stroke-opacity:1"
         d="m 638.09117,827.32721 2.21535,-1.62775 c 0.73546,-0.54035 1.78797,-0.47476 2.2994,0.18883 l 7.80052,10.12123 c 0.51176,0.66332 0.34791,1.64492 -0.3727,2.20501 l -1.27517,0.99111 c -0.7206,0.56009 -1.65428,0.42902 -2.22878,-0.18303 l -8.68847,-9.25637 c -0.5745,-0.61205 -0.48558,-1.89864 0.24986,-2.43902 z"
         sodipodi:nodetypes="ssssssssss"
         inkscape:transform-center-x="-4.4354635"
         inkscape:transform-center-y="3.5527389" />
      <g
         id="g21"
         transform="matrix(-1,0,0,1,1257.433,-7.9179501)">
        <path
           style="fill:#999999;stroke:none;stroke-width:1.1;stroke-linejoin:round;stroke-dasharray:none"
           d="m 616.025,807.58837 22.03213,8.71321 -0.41675,11.34979 -22.36869,-9.64058 z"
           id="path10-4"
           sodipodi:nodetypes="ccccc" />
        <path
           style="fill:#999999;stroke:none;stroke-width:1.1;stroke-linejoin:round;stroke-dasharray:none"
           d="m 608.10429,814.90737 37.62532,14.71211 c 0,0 -19.17359,28.85155 -19.70275,28.85155 z"
           id="path11-6"
           sodipodi:nodetypes="cccc" />
      </g>
      <path
         id="rect1-9-69-4-3-0-6"
         style="stroke:#ffffff;stroke-width:0.359059;stroke-linejoin:round;stroke-dasharray:none;stroke-dashoffset:0;stroke-opacity:1"
         d="m 639.0432,825.40692 1.95802,1.75125 c 0.68028,0.60841 1.39066,2.29134 0.75651,2.84085 l -9.65879,8.36993 c -0.63414,0.54953 -1.54663,0.65934 -2.23546,0.0606 l -1.21893,-1.05952 c -0.68882,-0.59875 -0.79831,-1.58757 -0.25124,-2.22212 l 8.36451,-9.70253 c 0.54737,-0.63429 1.60505,-0.64683 2.28533,-0.0384 z"
         sodipodi:nodetypes="ssssssssss"
         inkscape:transform-center-x="3.2486362"
         inkscape:transform-center-y="3.8437827" />
      <path
         id="rect1-7-3-7-0-6-4-9-0-4"
         style="stroke:#ffffff;stroke-width:0.374331;stroke-linejoin:round;stroke-dasharray:none;stroke-dashoffset:0;stroke-opacity:1"
         d="m 658.78147,818.06016 c -0.86563,0.26163 -1.81358,1.71755 -1.34257,2.49809 l 4.21162,6.97952 c 0.47099,0.78053 1.36712,1.28461 2.23276,1.02298 0.86563,-0.26164 1.45146,-1.19753 1.06266,-2.02209 l -3.48729,-7.39588 c -0.3888,-0.82455 -1.81156,-1.34426 -2.67718,-1.08262 z"
         sodipodi:nodetypes="sssssss"
         inkscape:transform-center-x="-9.8038988"
         inkscape:transform-center-y="-14.029674" />
      <path
         id="rect1-7-8-30-8-6-5-6-9-1-5"
         style="stroke:#ffffff;stroke-width:0.313714;stroke-linejoin:round;stroke-dasharray:none;stroke-dashoffset:0;stroke-opacity:1"
         d="m 663.79439,827.3684 c -0.89103,0.23334 -1.57567,0.94267 -1.3209,1.51889 l 2.65182,5.99769 c 0.25477,0.57622 0.48486,0.81068 1.3759,0.57734 0.89104,-0.23334 1.10674,-0.63891 0.9354,-1.24453 l -1.74638,-6.17289 c -0.17134,-0.60563 -1.00479,-0.90984 -1.89584,-0.6765 z"
         sodipodi:nodetypes="sssssss"
         inkscape:transform-center-x="1.3756587"
         inkscape:transform-center-y="3.5521192" />
      <path
         id="rect1-7-8-5-1-8-52-7-5-6-7-6-7-9"
         style="stroke:#ffffff;stroke-width:0.374331;stroke-linejoin:round;stroke-dasharray:none;stroke-dashoffset:0;stroke-opacity:1"
         d="m 665.82859,834.38867 c -0.26952,0.74739 0.0808,1.9544 0.87349,1.83952 0.97918,-0.14193 1.87362,0.25661 2.31662,-0.68911 0.35146,-0.75019 0.0263,-1.84956 -0.66677,-2.04203 -0.77175,-0.21429 -2.25382,0.14423 -2.52334,0.89162 z"
         sodipodi:nodetypes="sssss"
         inkscape:transform-center-x="-2.6218744"
         inkscape:transform-center-y="-0.5029648" />
      <path
         id="rect1-7-8-5-1-5-4-8-8-8-0-0-8-3-9"
         style="stroke:#ffffff;stroke-width:0.374331;stroke-linejoin:round;stroke-dasharray:none;stroke-dashoffset:0;stroke-opacity:1"
         d="m 668.31218,834.30199 c -0.25624,0.75205 0.14789,1.56544 0.90602,1.82372 l 0.89247,0.30404 c 0.75814,0.25832 1.57475,-0.13924 1.83096,-0.89131 0.25624,-0.75205 -0.23748,-1.18312 -0.93513,-1.57665 -1.05964,-0.59777 -2.02354,-1.26792 -2.69432,0.3402 z"
         sodipodi:nodetypes="ssssss"
         inkscape:transform-center-x="-3.8586122"
         inkscape:transform-center-y="-1.0740924" />
      <path
         id="rect1-9-4-4-31-7-8-9-5"
         style="stroke:#ffffff;stroke-width:0.387927;stroke-linejoin:round;stroke-dasharray:none;stroke-dashoffset:0;stroke-opacity:1"
         d="m 650.39246,839.16836 -0.16347,1.60322 c -0.0924,0.906 -0.97038,1.66569 -1.92668,1.45593 l -13.67352,-2.99942 c -0.95632,-0.20977 -1.62638,-0.18723 -1.534,-1.0932 l 0.0737,-0.72271 c 0.0924,-0.90598 0.95167,-1.55532 1.92668,-1.4559 l 13.7041,1.39729 c 0.975,0.0994 1.68557,0.90881 1.5932,1.81479 z"
         sodipodi:nodetypes="sssssssss"
         inkscape:transform-center-x="6.4232986"
         inkscape:transform-center-y="-0.82073189" />
      <path
         id="rect1-9-1-95-4-6-40-7"
         style="stroke:#ffffff;stroke-width:0.387927;stroke-linejoin:round;stroke-dasharray:none;stroke-dashoffset:0;stroke-opacity:1"
         d="m 631.03957,837.56988 c -0.003,0.91066 -0.79574,1.60837 -1.77528,1.63711 l -14.31389,0.42006 c -0.97954,0.0287 -1.76629,-0.73984 -1.76284,-1.65053 l 0.002,-0.61223 c 0.003,-0.91069 0.80362,-0.80724 1.77269,-0.9498 l 14.32028,-2.10667 c 0.93227,0.50248 2.11999,0.57389 1.75704,3.26206 z"
         sodipodi:nodetypes="cssssscc"
         inkscape:transform-center-x="6.3489403"
         inkscape:transform-center-y="0.0024464509" />
      <path
         id="rect1-0-0-6-7-4"
         style="stroke:none;stroke-width:0.374331;stroke-linejoin:round;stroke-dasharray:none;stroke-dashoffset:0;stroke-opacity:1"
         d="m 659.51523,818.38948 c 3.40627,9.83479 -6.12568,10.64578 -12.54311,12.11939 -1.59926,0.36723 1.1806,3.24931 -0.20011,4.4189 -1.30927,1.1091 -0.33575,0.60414 -1.64428,1.31357 -0.80144,0.43447 -1.92977,-0.64357 -2.52143,-1.33706 l -6.18689,-7.25178 c -0.59168,-0.69353 0.2723,-1.96358 0.99077,-2.52475 1.87374,-1.46349 2.8357,-1.32362 4.85701,-1.60236 5.74505,-0.79218 8.03759,-0.78512 13.06963,-3.99349 0.76868,-0.49008 3.88005,-2.00387 4.17841,-1.14242 z"
         sodipodi:nodetypes="ssssssssss"
         inkscape:transform-center-x="-7.4817422"
         inkscape:transform-center-y="-3.2131394" />
      <path
         id="rect1-7-8-5-1-5-4-34-0-1-3-5-1-0"
         style="stroke:#ffffff;stroke-width:0.485783;stroke-linejoin:round;stroke-dasharray:none;stroke-dashoffset:0;stroke-opacity:1"
         d="m 635.27254,836.87634 c 0.67489,0.73467 0.79468,2.14339 0.26855,3.15854 l -0.61932,1.19506 c -0.52613,1.01517 -1.49304,1.24097 -2.16794,0.50632 -0.67491,-0.73467 -0.48804,-1.73326 -0.0962,-2.86755 0.59512,-1.72293 1.0616,-3.45247 2.61489,-1.99237 z"
         sodipodi:nodetypes="ssssss"
         inkscape:transform-center-x="-0.0093005356"
         inkscape:transform-center-y="1.8362854" />
      <path
         id="path1-73-1-3-0-8"
         style="stroke:#ffffff;stroke-width:0.306754;stroke-linejoin:round;stroke-dasharray:none;stroke-dashoffset:0;stroke-opacity:1"
         d="m 668.49412,823.38323 c -1.99842,0.6181 -4.49971,0.60903 -5.46006,-1.56362 -0.96036,-2.1726 0.9177,-3.58006 2.91611,-4.19818 1.99843,-0.61811 4.03528,-0.88763 4.99564,1.28499 0.96035,2.17259 -0.45327,3.8587 -2.45169,4.47681 z"
         sodipodi:nodetypes="sssss"
         inkscape:transform-center-x="-24.548565"
         inkscape:transform-center-y="-7.3946843" />
      <path
         id="rect1-7-8-5-1-5-4-34-31-3-1-3-8"
         style="stroke:#ffffff;stroke-width:0.485783;stroke-linejoin:round;stroke-dasharray:none;stroke-dashoffset:0;stroke-opacity:1"
         d="m 614.8408,836.95359 c -0.70994,-0.70086 -2.11345,-0.87119 -3.14686,-0.38187 l -1.21652,0.57599 c -1.03343,0.48931 -1.29383,1.44747 -0.58389,2.14834 0.70993,0.70088 1.71459,0.55 2.86223,0.19915 1.7432,-0.53283 3.48838,-0.93686 2.08504,-2.54161 z"
         sodipodi:nodetypes="ssssss" />
      <path
         id="rect1-7-3-7-0-6-4-9-0"
         style="stroke:#ffffff;stroke-width:0.374331;stroke-linejoin:round;stroke-dasharray:none;stroke-dashoffset:0;stroke-opacity:1"
         d="m 658.93554,823.71133 c -0.89392,0.1367 -2.01204,1.4335 -1.68207,2.28333 l 3.7315,9.61066 c 0.32995,0.84983 1.17189,1.4649 2.06582,1.32819 0.89391,-0.1367 1.59799,-0.97797 1.33771,-1.85165 l -2.95561,-9.9205 c -0.26029,-0.87367 -1.60345,-1.58674 -2.49735,-1.45003 z"
         sodipodi:nodetypes="sssssss"
         inkscape:transform-center-x="-11.650888"
         inkscape:transform-center-y="-12.483688" />
      <path
         id="rect1-7-8-30-8-6-5-6-9-1"
         style="stroke:#ffffff;stroke-width:0.313714;stroke-linejoin:round;stroke-dasharray:none;stroke-dashoffset:0;stroke-opacity:1"
         d="m 662.38574,833.54054 c -0.84835,0.35872 -1.38617,1.13688 -1.0894,1.69263 l 2.76948,5.18639 c 0.29673,0.55578 0.59612,0.73276 1.44448,0.37403 0.84836,-0.35872 0.95295,-0.77099 0.74724,-1.36582 l -1.89854,-5.48963 c -0.20573,-0.59482 -1.12489,-0.75632 -1.97326,-0.3976 z"
         sodipodi:nodetypes="sssssss"
         inkscape:transform-center-x="0.82554781"
         inkscape:transform-center-y="3.6773691" />
      <path
         id="rect1-7-8-5-1-8-52-7-5-6-7-6-7"
         style="stroke:#ffffff;stroke-width:0.374331;stroke-linejoin:round;stroke-dasharray:none;stroke-dashoffset:0;stroke-opacity:1"
         d="m 664.71604,839.3531 c -0.26952,0.74739 0.0808,1.9544 0.87349,1.83952 0.97918,-0.14193 1.87362,0.25661 2.31662,-0.68911 0.35146,-0.75019 0.0263,-1.84956 -0.66677,-2.04203 -0.77175,-0.21429 -2.25382,0.14423 -2.52334,0.89162 z"
         sodipodi:nodetypes="sssss"
         inkscape:transform-center-x="-2.6218744"
         inkscape:transform-center-y="-0.5029648" />
      <path
         id="rect1-7-8-5-1-5-4-8-8-8-0-0-8-3"
         style="stroke:#ffffff;stroke-width:0.374331;stroke-linejoin:round;stroke-dasharray:none;stroke-dashoffset:0;stroke-opacity:1"
         d="m 667.19963,839.26642 c -0.25624,0.75205 0.14789,1.56544 0.90602,1.82372 l 0.89247,0.30404 c 0.75814,0.25832 1.57475,-0.13924 1.83096,-0.89131 0.25624,-0.75205 -0.23748,-1.18312 -0.93513,-1.57665 -1.05964,-0.59777 -2.02354,-1.26792 -2.69432,0.3402 z"
         sodipodi:nodetypes="ssssss"
         inkscape:transform-center-x="-3.8586122"
         inkscape:transform-center-y="-1.0740924" />
      <path
         id="rect1-7-5-6-7-2-7-9"
         style="stroke:#ffffff;stroke-width:0.374331;stroke-linejoin:round;stroke-dasharray:none;stroke-dashoffset:0;stroke-opacity:1"
         d="m 662.17101,822.0776 0.98803,-0.53417 c 1.29486,-0.70007 1.86869,-3.04292 0.12014,-2.99711 l -2.49574,0.0654 c -2.15826,0.0566 -0.50165,4.48728 1.38757,3.46588 z"
         sodipodi:nodetypes="sssss"
         inkscape:transform-center-x="-1.650491"
         inkscape:transform-center-y="0.22600199" />
      <path
         id="rect10-1-1-22"
         style="fill:#e6e6e6;stroke-width:1.1;stroke-linejoin:round"
         d="m 644.59098,797.77498 -44.1854,6.61458 37.02286,15.08125 44.18542,-6.61458 z"
         sodipodi:nodetypes="ccccc" />
      <path
         id="rect10-1-1-5-1"
         style="fill:#999999;stroke-width:0.686506;stroke-linejoin:round"
         d="m 643.24477,801.57885 -27.57594,4.12813 23.10583,9.41216 27.57595,-4.12814 z"
         sodipodi:nodetypes="ccccc" />
    </g>
  </g>
</svg>
