<?xml version="1.0" encoding="UTF-8" standalone="no"?>
<!-- Created with Inkscape (http://www.inkscape.org/) -->

<svg
   width="36.33131mm"
   height="65.002754mm"
   viewBox="0 0 36.33131 65.002754"
   version="1.1"
   id="svg1"
   xmlns:inkscape="http://www.inkscape.org/namespaces/inkscape"
   xmlns:sodipodi="http://sodipodi.sourceforge.net/DTD/sodipodi-0.dtd"
   xmlns="http://www.w3.org/2000/svg"
   xmlns:svg="http://www.w3.org/2000/svg">
  <sodipodi:namedview
     id="namedview1"
     pagecolor="#ffffff"
     bordercolor="#000000"
     borderopacity="0.25"
     inkscape:showpageshadow="2"
     inkscape:pageopacity="0.0"
     inkscape:pagecheckerboard="0"
     inkscape:deskcolor="#d1d1d1"
     inkscape:document-units="mm" />
  <defs
     id="defs1" />
  <g
     inkscape:label="Layer 1"
     inkscape:groupmode="layer"
     id="layer1"
     transform="translate(724.02681,-1550.1247)">
    <g
       id="g75"
       transform="translate(-1247.7022,906.0647)">
      <path
         id="rect1-7-3-7-0-9-8-6-2"
         style="stroke:#ffffff;stroke-width:0.199939;stroke-linejoin:round;stroke-dasharray:none;stroke-dashoffset:0;stroke-opacity:1"
         d="m 547.8427,654.43641 c -0.71697,0.12899 -1.88049,3.7564 -1.41411,4.0556 1.75737,1.1274 3.28485,2.74013 5.55947,2.77555 0.55403,0.009 1.23342,0.0123 1.9504,-0.11665 0.71698,-0.129 1.25228,-2.05426 0.81469,-2.32287 -2.22255,-2.47114 -2.98692,-4.79947 -6.91045,-4.39163 z"
         sodipodi:nodetypes="ssssss"
         inkscape:transform-center-x="-2.6635275"
         inkscape:transform-center-y="1.4734479" />
      <path
         id="rect1-7-3-7-0-9-8-6"
         style="stroke:#ffffff;stroke-width:0.199939;stroke-linejoin:round;stroke-dasharray:none;stroke-dashoffset:0;stroke-opacity:1"
         d="m 536.48188,654.35476 c 0.71697,0.12899 1.88049,3.7564 1.41411,4.0556 -1.75737,1.1274 -3.28485,2.74013 -5.55947,2.77555 -0.55403,0.009 -1.23342,0.0123 -1.9504,-0.11665 -0.71698,-0.129 -1.25228,-2.05426 -0.81469,-2.32287 2.22255,-2.47114 2.98692,-4.79947 6.91045,-4.39163 z"
         sodipodi:nodetypes="ssssss"
         inkscape:transform-center-x="2.6635275"
         inkscape:transform-center-y="1.4734479" />
      <path
         id="rect1-7-8-3-2-6-6-9-4-8"
         style="stroke:#ffffff;stroke-width:0.317429;stroke-linejoin:round;stroke-dasharray:none;stroke-dashoffset:0;stroke-opacity:1"
         d="m 530.98632,659.92149 c 0.70045,-0.59657 0.83448,-1.4041 0.51014,-1.96228 l -3.77535,-6.49725 c -0.32437,-0.55823 -0.8034,-0.53692 -1.50378,0.0596 -0.70045,0.59657 -0.54038,0.9524 -0.28516,1.54482 l 3.0357,7.04658 c 0.25522,0.59242 1.31805,0.4051 2.01845,-0.19149 z"
         sodipodi:nodetypes="ssssssss"
         inkscape:transform-center-x="1.0265708"
         inkscape:transform-center-y="-2.8463761" />
      <path
         id="rect1-7-8-5-1-8-7-5-7-9-22-2-8"
         style="stroke:#ffffff;stroke-width:0.374331;stroke-linejoin:round;stroke-dasharray:none;stroke-dashoffset:0;stroke-opacity:1"
         d="m 525.44733,652.02744 c 0.77071,0.19297 1.57543,-0.21812 2.03272,-0.87567 0.48226,-0.6934 0.74734,-2.60878 -0.28701,-2.97239 -0.78156,-0.27475 -2.76497,0.71832 -2.88674,1.42725 -0.13554,0.78937 0.37031,2.22786 1.14105,2.4208 z"
         sodipodi:nodetypes="ssssss"
         inkscape:transform-center-x="3.6211872"
         inkscape:transform-center-y="-8.5087045" />
      <path
         id="rect1-9-4-4-31-7-6-95-0"
         style="stroke:#ffffff;stroke-width:0.387927;stroke-linejoin:round;stroke-dasharray:none;stroke-dashoffset:0;stroke-opacity:1"
         d="m 545.29339,690.74927 h 1.61153 c 0.91069,0 1.75553,0.7964 1.64384,1.76906 l -1.59696,13.90723 c -0.11169,0.97267 -0.0213,1.63699 -0.93196,1.63699 h -0.72645 c -0.91069,0 -1.64384,-0.78901 -1.64384,-1.76907 v -13.77515 c 0,-0.98006 0.73315,-1.76906 1.64384,-1.76906 z"
         sodipodi:nodetypes="sssssssss" />
      <path
         id="rect1-9-1-95-4-9-8-8"
         style="stroke:#ffffff;stroke-width:0.387927;stroke-linejoin:round;stroke-dasharray:none;stroke-dashoffset:0;stroke-opacity:1"
         d="m 537.02935,690.83618 h 1.61153 c 0.91068,0 1.68038,0.78978 1.64384,1.76906 l -0.51392,13.77514 c -0.0365,0.97928 -0.73315,1.76907 -1.64384,1.76907 h -0.61224 c -0.91069,0 -0.87343,-0.79309 -0.95652,-1.76907 l -1.17269,-13.77514 c -0.0831,-0.97598 0.73315,-1.76906 1.64384,-1.76906 z"
         sodipodi:nodetypes="sssssssss" />
      <path
         id="rect1-9-69-4-89-0-9"
         style="stroke:#ffffff;stroke-width:0.359059;stroke-linejoin:round;stroke-dasharray:none;stroke-dashoffset:0;stroke-opacity:1"
         d="m 537.0994,676.9858 2.62668,0.0372 c 0.91255,0.0129 2.55276,0.81702 2.43465,1.64778 l -1.79886,12.65353 c -0.1181,0.83076 -0.73475,1.51228 -1.64742,1.51228 h -1.61505 c -0.91267,0 -1.64401,-0.67448 -1.64742,-1.51228 l -0.0522,-12.81021 c -0.003,-0.83779 0.78705,-1.54114 1.69961,-1.52824 z"
         sodipodi:nodetypes="ssssssssss" />
      <path
         id="rect1-9-4-41-7-8-8-5"
         style="stroke:#ffffff;stroke-width:0.359059;stroke-linejoin:round;stroke-dasharray:none;stroke-dashoffset:0;stroke-opacity:1"
         d="m 544.26809,676.83722 2.74806,0.0743 c 0.91229,0.0247 1.70304,0.72238 1.69962,1.56017 l -0.0522,12.77828 c -0.003,0.83779 -0.73475,1.51227 -1.64743,1.51227 h -1.61504 c -0.91267,0 -1.51502,-0.68333 -1.64742,-1.51227 l -2.06786,-12.94564 c -0.13241,-0.82894 1.66997,-1.49177 2.58226,-1.4671 z"
         sodipodi:nodetypes="sssssssss" />
      <path
         id="rect1-0-0-1-6-6"
         style="stroke:none;stroke-width:0.374331;stroke-linejoin:round;stroke-dasharray:none;stroke-dashoffset:0;stroke-opacity:1"
         d="m 537.14714,653.90481 c 4.48101,-1.82226 6.95787,-0.63831 9.7985,0 0.88945,0.19987 1.70825,0.73607 1.64554,1.64554 -0.42585,6.17474 -2.31402,12.63188 -0.41772,18.40141 0.53578,1.63011 0.34141,3.07487 0.41772,4.56138 0.0467,0.91043 -0.73392,1.64554 -1.64554,1.64554 h -9.7985 c -0.91164,0 -1.66848,-0.7342 -1.64554,-1.64554 0.0443,-1.76206 -0.17825,-3.46578 0.44127,-5.40989 1.26391,-3.96625 0.86045,-8.2304 0.26331,-12.5119 -0.23477,-1.68333 0.15532,-3.88385 -0.0498,-5.55549 -0.11101,-0.90484 0.14625,-0.78763 0.99073,-1.13105 z"
         sodipodi:nodetypes="ssssssssssss" />
      <path
         id="rect1-7-8-5-1-5-4-34-31-3-3-8-4"
         style="stroke:#ffffff;stroke-width:0.485783;stroke-linejoin:round;stroke-dasharray:none;stroke-dashoffset:0;stroke-opacity:1"
         d="m 538.766,705.98323 c -0.70994,-0.70086 -2.11346,-0.87118 -3.14686,-0.38187 l -1.21653,0.576 c -1.03342,0.4893 -1.29383,1.44747 -0.58389,2.14834 0.70994,0.70087 1.71459,0.54999 2.86223,0.19914 1.7432,-0.53283 3.48839,-0.93686 2.08505,-2.54161 z"
         sodipodi:nodetypes="ssssss" />
      <path
         id="rect1-7-8-5-1-5-4-34-0-1-3-2-6-2"
         style="stroke:#ffffff;stroke-width:0.485783;stroke-linejoin:round;stroke-dasharray:none;stroke-dashoffset:0;stroke-opacity:1"
         d="m 544.62273,705.98323 c 0.70994,-0.70086 2.11345,-0.87118 3.14686,-0.38187 l 1.21653,0.576 c 1.03342,0.4893 1.29383,1.44747 0.58389,2.14834 -0.70994,0.70087 -1.7146,0.54999 -2.86223,0.19914 -1.7432,-0.53283 -3.48839,-0.93686 -2.08505,-2.54161 z"
         sodipodi:nodetypes="ssssss" />
      <path
         id="rect1-7-5-6-7-5-78-9"
         style="stroke:#ffffff;stroke-width:0.374331;stroke-linejoin:round;stroke-dasharray:none;stroke-dashoffset:0;stroke-opacity:1"
         d="m 544.03914,652.84797 -0.45533,-2.67901 c -0.24663,-1.45117 -2.90483,-1.35351 -3.18644,0.37283 l -0.40194,2.46403 c -0.34758,2.13083 4.40357,1.95947 4.04371,-0.15785 z"
         sodipodi:nodetypes="sssss" />
      <path
         id="path1-73-1-7-5-1"
         style="stroke:#ffffff;stroke-width:0.306754;stroke-linejoin:round;stroke-dasharray:none;stroke-dashoffset:0;stroke-opacity:1"
         d="m 545.57243,647.65551 c 0,2.21459 -1.37809,4.57763 -3.60666,4.57763 -2.22857,0 -3.54953,-2.36304 -3.54953,-4.57763 0,-2.2146 1.32096,-3.44212 3.54953,-3.44212 2.22857,0 3.60666,1.22752 3.60666,3.44212 z"
         sodipodi:nodetypes="sssss" />
      <path
         id="rect24-4"
         style="fill:#ffffff;stroke:none;stroke-width:0.143083;stroke-linejoin:round;stroke-dasharray:none"
         d="m 541.72044,657.70732 -0.6091,2.18007 -2.07854,-1.05833 0.99219,2.14468 -2.04322,0.76991 2.04322,0.7699 -1.15755,2.00142 2.01794,-1.14102 0.81852,2.20757 0.81851,-2.20757 2.09009,1.19063 -1.12448,-2.15625 2.21913,-0.68123 -2.21913,-0.68123 0.8599,-2.13413 -2.01837,0.97565 z"
         sodipodi:nodetypes="ccccccccccccccccc" />
      <path
         id="rect1-7-8-5-5-6-7-7-5-4-9-8-2-4-9-9-4-4-1"
         style="stroke:#ffffff;stroke-width:0.29568;stroke-linejoin:round;stroke-dasharray:none;stroke-dashoffset:0;stroke-opacity:1"
         d="m 524.55207,650.60588 c 0.61335,0.31794 2.57818,-0.90329 2.72993,-1.30736 0.26984,-0.71855 0.11033,-1.40507 -0.56686,-2.05297 -0.57342,-0.54856 -2.47273,0.55385 -2.83014,1.67993 -0.19393,0.61098 0.10716,0.96467 0.274,1.38814 0.0731,0.18542 0.2164,0.3393 0.39268,0.29202 z"
         sodipodi:nodetypes="sssssss"
         inkscape:transform-center-x="4.1016809"
         inkscape:transform-center-y="-9.7333957" />
      <path
         id="rect1-7-8-3-2-6-6-9-4-8-4"
         style="stroke:#ffffff;stroke-width:0.317429;stroke-linejoin:round;stroke-dasharray:none;stroke-dashoffset:0;stroke-opacity:1"
         d="m 552.6958,660.00766 c -0.70045,-0.59657 -0.83448,-1.4041 -0.51014,-1.96228 l 3.77535,-6.49725 c 0.32437,-0.55823 0.8034,-0.53692 1.50378,0.0596 0.70045,0.59657 0.54038,0.9524 0.28516,1.54482 l -3.0357,7.04658 c -0.25522,0.59242 -1.31805,0.4051 -2.01845,-0.19149 z"
         sodipodi:nodetypes="ssssssss"
         inkscape:transform-center-x="-3.0968637"
         inkscape:transform-center-y="-3.5916916" />
      <path
         id="rect1-7-8-5-1-8-7-5-7-9-22-2-8-6"
         style="stroke:#ffffff;stroke-width:0.374331;stroke-linejoin:round;stroke-dasharray:none;stroke-dashoffset:0;stroke-opacity:1"
         d="m 558.23479,652.11361 c -0.77071,0.19297 -1.57543,-0.21812 -2.03272,-0.87567 -0.48226,-0.6934 -0.74734,-2.60878 0.28701,-2.97239 0.78156,-0.27475 2.76497,0.71832 2.88674,1.42725 0.13554,0.78937 -0.37031,2.22786 -1.14105,2.4208 z"
         sodipodi:nodetypes="ssssss"
         inkscape:transform-center-x="-0.066497913"
         inkscape:transform-center-y="-1.9606011" />
      <path
         id="rect1-7-8-5-5-6-7-7-5-4-9-8-2-4-9-9-4-4-1-9"
         style="stroke:#ffffff;stroke-width:0.29568;stroke-linejoin:round;stroke-dasharray:none;stroke-dashoffset:0;stroke-opacity:1"
         d="m 559.13005,650.69205 c -0.61335,0.31794 -2.57818,-0.90329 -2.72993,-1.30736 -0.26984,-0.71855 -0.11033,-1.40507 0.56686,-2.05297 0.57342,-0.54856 2.47273,0.55385 2.83014,1.67993 0.19393,0.61098 -0.10716,0.96467 -0.274,1.38814 -0.0731,0.18542 -0.2164,0.3393 -0.39268,0.29202 z"
         sodipodi:nodetypes="sssssss"
         inkscape:transform-center-x="-0.54699167"
         inkscape:transform-center-y="-3.1852923" />
    </g>
  </g>
</svg>
