<?xml version="1.0" encoding="UTF-8" standalone="no"?>
<!-- Created with Inkscape (http://www.inkscape.org/) -->

<svg
   width="39.09729mm"
   height="64.20771mm"
   viewBox="0 0 39.09729 64.20771"
   version="1.1"
   id="svg1"
   xmlns:inkscape="http://www.inkscape.org/namespaces/inkscape"
   xmlns:sodipodi="http://sodipodi.sourceforge.net/DTD/sodipodi-0.dtd"
   xmlns="http://www.w3.org/2000/svg"
   xmlns:svg="http://www.w3.org/2000/svg">
  <sodipodi:namedview
     id="namedview1"
     pagecolor="#ffffff"
     bordercolor="#000000"
     borderopacity="0.25"
     inkscape:showpageshadow="2"
     inkscape:pageopacity="0.0"
     inkscape:pagecheckerboard="0"
     inkscape:deskcolor="#d1d1d1"
     inkscape:document-units="mm" />
  <defs
     id="defs1" />
  <g
     inkscape:label="Layer 1"
     inkscape:groupmode="layer"
     id="layer1"
     transform="translate(725.40981,-1644.9754)">
    <g
       id="g46"
       transform="translate(-919.14103,784.0906)">
      <path
         id="rect1-9-1-95-4-0-1-3"
         style="stroke:#ffffff;stroke-width:0.387927;stroke-linejoin:round;stroke-dasharray:none;stroke-dashoffset:0;stroke-opacity:1"
         d="m 218.44896,905.50446 h 1.61153 c 0.91068,0 1.68037,0.7898 1.64383,1.769 l -0.51391,13.7752 c -0.0365,0.9792 -0.73315,1.769 -1.64384,1.769 h -0.61225 c -0.91069,0 -0.87342,-0.7931 -0.95651,-1.769 l -1.1727,-13.7752 c -0.0831,-0.9759 0.73316,-1.769 1.64385,-1.769 z"
         sodipodi:nodetypes="sssssssss" />
      <path
         id="rect1-9-69-4-8-4-6"
         style="stroke:#ffffff;stroke-width:0.359059;stroke-linejoin:round;stroke-dasharray:none;stroke-dashoffset:0;stroke-opacity:1"
         d="m 221.93752,892.07586 2.54141,0.6649 c 0.88295,0.2309 2.28297,1.4043 1.96943,2.1827 l -4.77553,11.855 c -0.31352,0.7784 -1.07539,1.2924 -1.96153,1.074 l -1.56809,-0.3866 c -0.88613,-0.2185 -1.43475,-1.0484 -1.23752,-1.8627 l 3.01579,-12.4503 c 0.19755,-0.8141 1.13308,-1.3079 2.01603,-1.0769 z"
         sodipodi:nodetypes="ssssssssss" />
      <ellipse
         style="fill:#000000;stroke:#000000;stroke-width:0.427906;stroke-linejoin:round;stroke-dasharray:none"
         id="path23-6"
         cx="207.5817"
         cy="904.70349"
         rx="13.63652"
         ry="13.22172" />
      <path
         id="rect1-7-2-76-1-7-2-6-4"
         style="stroke:#ffffff;stroke-width:0.374331;stroke-linejoin:round;stroke-dasharray:none;stroke-dashoffset:0;stroke-opacity:1"
         d="m 232.09051,871.8894 c -0.65596,-0.62249 -2.6535,-0.82272 -2.83512,0.0706 l -1.83721,9.03616 c -0.18163,0.8934 -0.43907,1.8239 0.2169,2.4464 0.65597,0.6225 2.02347,0.7958 2.28298,-0.078 l 2.55761,-8.61307 c 0.25951,-0.87392 0.27081,-2.23951 -0.38516,-2.86201 z"
         sodipodi:nodetypes="ssssssss"
         inkscape:transform-center-x="1.1050706"
         inkscape:transform-center-y="4.2815945" />
      <path
         id="rect1-7-3-7-0-3-9-8"
         style="stroke:#ffffff;stroke-width:0.374331;stroke-linejoin:round;stroke-dasharray:none;stroke-dashoffset:0;stroke-opacity:1"
         d="m 222.83341,870.53581 c 0.8248,0.37078 1.57978,1.93826 1.01015,2.65 l -7.24775,9.05605 c -0.56962,0.7118 -1.52097,1.0981 -2.34577,0.7273 -0.8248,-0.3707 -1.31073,-1.391 -0.79378,-2.1419 l 6.58297,-9.56212 c 0.51694,-0.75089 1.96939,-1.10012 2.79418,-0.72933 z"
         sodipodi:nodetypes="sssssss"
         inkscape:transform-center-x="2.840698"
         inkscape:transform-center-y="4.6739625" />
      <path
         id="rect1-9-4-4-31-7-1-4-2"
         style="stroke:#ffffff;stroke-width:0.387927;stroke-linejoin:round;stroke-dasharray:none;stroke-dashoffset:0;stroke-opacity:1"
         d="m 227.40392,907.22156 1.60066,-0.1868 c 0.90456,-0.1056 1.83601,0.5875 1.83781,1.5666 l 0.0257,13.9986 c 0.002,0.979 0.1686,1.6284 -0.73595,1.7339 l -0.72155,0.084 c -0.90455,0.1056 -1.7242,-0.5931 -1.8378,-1.5666 l -1.5966,-13.6823 c -0.1136,-0.9734 0.52316,-1.8421 1.42771,-1.9476 z"
         sodipodi:nodetypes="sssssssss" />
      <path
         id="rect1-9-4-41-7-6-1-5"
         style="stroke:#ffffff;stroke-width:0.359059;stroke-linejoin:round;stroke-dasharray:none;stroke-dashoffset:0;stroke-opacity:1"
         d="m 227.55223,892.59666 2.73139,0.3113 c 0.90675,0.1033 1.63432,0.8667 1.55857,1.7011 l -1.1552,12.726 c -0.0754,0.8344 -0.86256,1.4432 -1.77184,1.3644 l -1.609,-0.1394 c -0.90927,-0.079 -1.45037,-0.8116 -1.51072,-1.6489 l -0.94249,-13.0758 c -0.0604,-0.8373 1.79253,-1.342 2.69928,-1.2387 z"
         sodipodi:nodetypes="sssssssss" />
      <path
         id="rect1-0-0-2-5-0"
         style="stroke:none;stroke-width:0.351231;stroke-linejoin:round;stroke-dasharray:none;stroke-dashoffset:0;stroke-opacity:1"
         d="m 221.57813,870.05423 c 3.74019,-1.01083 6.16808,0.4451 8.66893,1.08341 0.78307,0.19987 1.45566,0.32806 1.40044,1.23752 -0.37491,6.17475 -2.03724,12.6319 -0.36775,18.4014 0.47169,1.6301 0.30057,3.0749 0.36775,4.5614 0.0411,0.9104 -0.64613,1.6455 -1.44872,1.6455 h -8.62651 c -0.80259,0 -1.48588,-0.7348 -1.44871,-1.6455 0.0705,-1.7288 -0.0204,-3.3216 0.38849,-5.4099 1.10517,-5.6437 0.25132,-11.62948 -0.38849,-17.5529 -0.0977,-0.90484 0.66845,-2.10847 1.45457,-2.32093 z"
         sodipodi:nodetypes="sssssssssss" />
      <path
         id="rect1-7-8-5-1-5-4-34-31-3-6-5-2"
         style="stroke:#ffffff;stroke-width:0.453133;stroke-linejoin:round;stroke-dasharray:none;stroke-dashoffset:0;stroke-opacity:1"
         d="m 220.44375,921.17996 c -0.62285,-0.6997 -2.00014,-1.0415 -3.08805,-0.7665 l -1.28068,0.3238 c -1.08793,0.275 -1.46233,1.0597 -0.83947,1.7593 0.62284,0.6997 1.64147,0.7106 2.82652,0.5702 1.80001,-0.2133 3.58653,-0.3159 2.38168,-1.8868 z"
         sodipodi:nodetypes="ssssss" />
      <path
         id="rect1-7-8-5-1-5-4-34-0-1-3-9-6-8"
         style="stroke:#ffffff;stroke-width:0.419911;stroke-linejoin:round;stroke-dasharray:none;stroke-dashoffset:0;stroke-opacity:1"
         d="m 230.09486,923.03956 c -0.72948,-0.5834 -2.13739,-0.8257 -3.15673,-0.5432 l -1.19996,0.3325 c -1.01936,0.2824 -1.2527,0.9795 -0.52323,1.5629 0.72947,0.5834 1.72961,0.5523 2.86704,0.383 1.7277,-0.2572 3.46101,-0.4176 2.01288,-1.7352 z"
         sodipodi:nodetypes="ssssss" />
      <path
         id="rect1-7-5-6-7-4-6-2"
         style="stroke:#ffffff;stroke-width:0.374331;stroke-linejoin:round;stroke-dasharray:none;stroke-dashoffset:0;stroke-opacity:1"
         d="m 228.01307,869.67278 -0.45532,-2.67901 c -0.24664,-1.45117 -2.90483,-1.35351 -3.18644,0.37284 l -0.40194,2.46403 c -0.34759,2.13083 4.40356,1.95946 4.0437,-0.15786 z"
         sodipodi:nodetypes="sssss" />
      <path
         id="path1-73-1-5-7-1"
         style="stroke:#ffffff;stroke-width:0.287201;stroke-linejoin:round;stroke-dasharray:none;stroke-dashoffset:0;stroke-opacity:1"
         d="m 228.63812,864.47894 c 0,2.21999 -1.20507,4.58879 -3.15384,4.58879 -1.94877,0 -3.10388,-2.3688 -3.10388,-4.58879 0,-2.22 1.15511,-3.45052 3.10388,-3.45052 1.94877,0 3.15384,1.23052 3.15384,3.45052 z"
         sodipodi:nodetypes="sssss" />
      <path
         id="rect1-7-8-30-8-6-6-5-1"
         style="stroke:#ffffff;stroke-width:0.313714;stroke-linejoin:round;stroke-dasharray:none;stroke-dashoffset:0;stroke-opacity:1"
         d="m 215.705,881.13736 c 0.36592,0.8452 0.22564,1.8058 -0.38081,1.9765 l -7.04508,1.9833 c -0.60646,0.1707 -0.93717,0.1184 -1.3031,-0.7269 -0.36592,-0.8453 -0.17697,-1.2586 0.40264,-1.5039 l 6.62451,-2.804 c 0.57961,-0.2453 1.33591,0.2297 1.70184,1.075 z"
         sodipodi:nodetypes="sssssss"
         inkscape:transform-center-x="0.6365368"
         inkscape:transform-center-y="2.8354277" />
      <path
         id="rect1-7-8-5-1-8-52-7-5-7-4-0"
         style="stroke:#ffffff;stroke-width:0.374331;stroke-linejoin:round;stroke-dasharray:none;stroke-dashoffset:0;stroke-opacity:1"
         d="m 205.39891,883.14626 c 0.74452,-0.2774 1.95514,0.06 1.84857,0.8541 -0.13165,0.9806 0.27625,1.8708 -0.66474,2.3237 -0.74649,0.3593 -1.84919,0.046 -2.04893,-0.6453 -0.22236,-0.7694 0.1206,-2.2552 0.86512,-2.5325 z"
         sodipodi:nodetypes="sssss" />
      <path
         id="rect1-7-8-5-1-5-4-8-8-8-1-8-9"
         style="stroke:#ffffff;stroke-width:0.288532;stroke-linejoin:round;stroke-dasharray:none;stroke-dashoffset:0;stroke-opacity:1"
         d="m 205.3649,884.01226 c 0.5793,0.068 0.99588,0.6419 0.93402,1.2873 l -0.0728,0.7597 c -0.0618,0.6453 -0.57806,1.1103 -1.15737,1.0425 -0.57932,-0.068 -0.71393,-0.5776 -0.76069,-1.2246 -0.0711,-0.9827 -0.21978,-1.9196 1.05687,-1.8649 z"
         sodipodi:nodetypes="ssssss" />
      <path
         id="rect1-7-8-5-5-6-7-3-8-5-2-7-9"
         style="stroke:#ffffff;stroke-width:0.374331;stroke-linejoin:round;stroke-dasharray:none;stroke-dashoffset:0;stroke-opacity:1"
         d="m 205.95132,883.45726 c -0.089,-0.2175 -0.004,-0.4567 0.28122,-0.5735 l 1.62571,-0.6653 c 0.29337,-0.1201 0.60205,-0.042 0.69108,0.1756 0.089,0.2176 -0.0763,0.4897 -0.36964,0.6098 l -1.6257,0.6653 c -0.22906,0.094 -0.51361,0 -0.60265,-0.2119 z"
         sodipodi:nodetypes="sssssss" />
      <path
         id="rect1-7-8-3-2-6-6-1-0-9"
         style="stroke:#ffffff;stroke-width:0.317429;stroke-linejoin:round;stroke-dasharray:none;stroke-dashoffset:0;stroke-opacity:1"
         d="m 228.39437,882.47346 c -0.29979,-0.8699 -1.06971,-1.4925 -1.6407,-1.1911 l -6.87837,3.63 c -0.57099,0.3013 -0.79316,0.5519 -0.49336,1.4218 0.2998,0.8698 0.73219,1.0611 1.33416,0.8293 l 7.11986,-2.7409 c 0.60196,-0.2318 0.85821,-1.0793 0.55841,-1.9491 z"
         sodipodi:nodetypes="sssssss"
         inkscape:transform-center-x="-0.92606682"
         inkscape:transform-center-y="2.5990417" />
      <path
         id="rect1-7-8-5-1-8-7-5-7-9-2-9-3"
         style="stroke:#ffffff;stroke-width:0.374331;stroke-linejoin:round;stroke-dasharray:none;stroke-dashoffset:0;stroke-opacity:1"
         d="m 220.71602,886.11776 c -0.007,-0.7945 -0.75546,-1.8043 -1.45867,-1.4209 -0.86872,0.4736 -1.84592,0.4109 -1.93238,1.4517 -0.0686,0.8256 0.6185,1.7433 1.33529,1.6827 0.79808,-0.067 2.06297,-0.919 2.05576,-1.7135 z"
         sodipodi:nodetypes="sssss" />
      <path
         id="rect1-7-8-5-5-6-7-7-5-4-9-4-6-5"
         style="stroke:#ffffff;stroke-width:0.374331;stroke-linejoin:round;stroke-dasharray:none;stroke-dashoffset:0;stroke-opacity:1"
         d="m 219.60125,884.93806 c 0.0544,-0.2287 -0.0664,-0.4519 -0.36634,-0.5233 l -1.70889,-0.4065 c -0.30838,-0.073 -0.6013,0.052 -0.65571,0.2802 -0.0543,0.2287 0.15094,0.472 0.4593,0.5454 l 1.7089,0.4065 c 0.24077,0.057 0.50834,-0.074 0.56275,-0.3023 z"
         sodipodi:nodetypes="sssssss" />
      <path
         id="rect1-7-8-5-1-5-4-364-1-3-9-8-1-0"
         style="stroke:#ffffff;stroke-width:0.374331;stroke-linejoin:round;stroke-dasharray:none;stroke-dashoffset:0;stroke-opacity:1"
         d="m 219.14723,886.56476 c -0.15729,-0.7788 -0.91595,-1.2781 -1.70102,-1.1196 l -0.92418,0.1867 c -0.78507,0.1586 -1.29047,0.9132 -1.13318,1.692 0.15731,0.7787 0.80086,0.9026 1.60178,0.8914 1.2165,-0.017 2.38673,0.077 2.1566,-1.6505 z"
         sodipodi:nodetypes="ssssss" />
      <g
         id="g6-1-1-4-6-1-1-3-5"
         transform="matrix(0.27830156,0,0,0.27830156,186.79322,840.61939)"
         style="stroke-width:1.38527;stroke-dasharray:none">
        <rect
           style="opacity:1;fill:#000000;stroke:#ffffff;stroke-width:1.38527;stroke-linejoin:round;stroke-dasharray:none"
           id="rect5-8-3-8-1-3-7-6-4"
           width="10.664055"
           height="10.785408"
           x="81.009392"
           y="159.09109" />
        <path
           id="rect5-9-6-4-2-3-8-5-9-8"
           style="fill:#000000;stroke:#ffffff;stroke-width:1.7424;stroke-linejoin:round;stroke-dasharray:none"
           transform="matrix(0.63208417,-0.77489973,0,1,0,0)"
           d="m 145.0336,271.4776 5.6318,-0.31314 1e-5,10.65467 -5.63181,0.44388 z"
           sodipodi:nodetypes="ccccc" />
        <rect
           style="fill:#000000;stroke:#ffffff;stroke-width:1.54808;stroke-linejoin:round;stroke-dasharray:none"
           id="rect5-9-1-3-5-4-3-2-3-6-3"
           width="5.8412356"
           height="10.785408"
           x="-198.68402"
           y="-210.75246"
           transform="matrix(0.59903324,-0.80072416,-1,0,0,0)" />
      </g>
      <path
         id="path11-4-78-2"
         style="fill:#808080;stroke:none;stroke-width:0.0886796;stroke-linejoin:round;stroke-dasharray:none"
         d="m 210.01562,888.88666 v 1.8913 l -1.12986,0.012 1.75551,2.2363 c 0.0427,0 1.61833,-2.2731 1.61833,-2.2731 l -1.11971,0.012 v -1.879 z" />
      <ellipse
         style="opacity:1;fill:#ffffff;stroke:#000000;stroke-width:0.386001;stroke-linejoin:round;stroke-dasharray:none"
         id="path23"
         cx="207.5817"
         cy="904.70349"
         rx="12.30108"
         ry="11.926902" />
      <g
         id="g6-1-1-4-56"
         transform="matrix(0.27830156,0,0,0.27830156,185.30873,863.23767)"
         style="stroke-width:1.38527;stroke-dasharray:none">
        <rect
           style="opacity:1;fill:#000000;stroke:#ffffff;stroke-width:1.38527;stroke-linejoin:round;stroke-dasharray:none"
           id="rect5-8-3-8-8"
           width="10.664055"
           height="10.785408"
           x="81.009392"
           y="159.09109" />
        <path
           id="rect5-9-6-4-2-38"
           style="fill:#000000;stroke:#ffffff;stroke-width:1.7424;stroke-linejoin:round;stroke-dasharray:none"
           transform="matrix(0.63208417,-0.77489973,0,1,0,0)"
           d="m 145.0336,271.4776 5.6318,-0.31314 1e-5,10.65467 -5.63181,0.44388 z"
           sodipodi:nodetypes="ccccc" />
        <rect
           style="fill:#000000;stroke:#ffffff;stroke-width:1.54808;stroke-linejoin:round;stroke-dasharray:none"
           id="rect5-9-1-3-5-4-4"
           width="5.8412356"
           height="10.785408"
           x="-198.68402"
           y="-210.75246"
           transform="matrix(0.59903324,-0.80072416,-1,0,0,0)" />
      </g>
      <g
         id="g6-1-1-4-7-7"
         transform="matrix(0.27830156,0,0,0.27830156,189.76638,863.23767)"
         style="stroke-width:1.38527;stroke-dasharray:none">
        <rect
           style="opacity:1;fill:#000000;stroke:#ffffff;stroke-width:1.38527;stroke-linejoin:round;stroke-dasharray:none"
           id="rect5-8-3-8-7-48"
           width="10.664055"
           height="10.785408"
           x="81.009392"
           y="159.09109" />
        <path
           id="rect5-9-6-4-2-4-9"
           style="fill:#000000;stroke:#ffffff;stroke-width:1.7424;stroke-linejoin:round;stroke-dasharray:none"
           transform="matrix(0.63208417,-0.77489973,0,1,0,0)"
           d="m 145.0336,271.4776 5.6318,-0.31314 1e-5,10.65467 -5.63181,0.44388 z"
           sodipodi:nodetypes="ccccc" />
        <rect
           style="fill:#000000;stroke:#ffffff;stroke-width:1.54808;stroke-linejoin:round;stroke-dasharray:none"
           id="rect5-9-1-3-5-4-6-6"
           width="5.8412356"
           height="10.785408"
           x="-198.68402"
           y="-210.75246"
           transform="matrix(0.59903324,-0.80072416,-1,0,0,0)" />
      </g>
      <g
         id="g6-1-1-4-6-11"
         transform="matrix(0.27830156,0,0,0.27830156,176.39342,863.23767)"
         style="stroke-width:1.38527;stroke-dasharray:none">
        <rect
           style="opacity:1;fill:#000000;stroke:#ffffff;stroke-width:1.38527;stroke-linejoin:round;stroke-dasharray:none"
           id="rect5-8-3-8-1-39"
           width="10.664055"
           height="10.785408"
           x="81.009392"
           y="159.09109" />
        <path
           id="rect5-9-6-4-2-3-3"
           style="fill:#000000;stroke:#ffffff;stroke-width:1.7424;stroke-linejoin:round;stroke-dasharray:none"
           transform="matrix(0.63208417,-0.77489973,0,1,0,0)"
           d="m 145.0336,271.4776 5.6318,-0.31314 1e-5,10.65467 -5.63181,0.44388 z"
           sodipodi:nodetypes="ccccc" />
        <rect
           style="fill:#000000;stroke:#ffffff;stroke-width:1.54808;stroke-linejoin:round;stroke-dasharray:none"
           id="rect5-9-1-3-5-4-3-0"
           width="5.8412356"
           height="10.785408"
           x="-198.68402"
           y="-210.75246"
           transform="matrix(0.59903324,-0.80072416,-1,0,0,0)" />
      </g>
      <g
         id="g6-1-1-4-7-3-5"
         transform="matrix(0.27830156,0,0,0.27830156,180.85107,863.23767)"
         style="stroke-width:1.38527;stroke-dasharray:none">
        <rect
           style="opacity:1;fill:#000000;stroke:#ffffff;stroke-width:1.38527;stroke-linejoin:round;stroke-dasharray:none"
           id="rect5-8-3-8-7-4-5"
           width="10.664055"
           height="10.785408"
           x="81.009392"
           y="159.09109" />
        <path
           id="rect5-9-6-4-2-4-5-4"
           style="fill:#000000;stroke:#ffffff;stroke-width:1.7424;stroke-linejoin:round;stroke-dasharray:none"
           transform="matrix(0.63208417,-0.77489973,0,1,0,0)"
           d="m 145.0336,271.4776 5.6318,-0.31314 1e-5,10.65467 -5.63181,0.44388 z"
           sodipodi:nodetypes="ccccc" />
        <rect
           style="fill:#000000;stroke:#ffffff;stroke-width:1.54808;stroke-linejoin:round;stroke-dasharray:none"
           id="rect5-9-1-3-5-4-6-0-82"
           width="5.8412356"
           height="10.785408"
           x="-198.68402"
           y="-210.75246"
           transform="matrix(0.59903324,-0.80072416,-1,0,0,0)" />
      </g>
      <g
         id="g6-1-1-4-5-3"
         transform="matrix(0.27830156,0,0,0.27830156,188.37134,857.96456)"
         style="stroke-width:1.38527;stroke-dasharray:none">
        <rect
           style="opacity:1;fill:#000000;stroke:#ffffff;stroke-width:1.38527;stroke-linejoin:round;stroke-dasharray:none"
           id="rect5-8-3-8-72-6"
           width="10.664055"
           height="10.785408"
           x="81.009392"
           y="159.09109" />
        <path
           id="rect5-9-6-4-2-0-3"
           style="fill:#000000;stroke:#ffffff;stroke-width:1.7424;stroke-linejoin:round;stroke-dasharray:none"
           transform="matrix(0.63208417,-0.77489973,0,1,0,0)"
           d="m 145.0336,271.4776 5.6318,-0.31314 1e-5,10.65467 -5.63181,0.44388 z"
           sodipodi:nodetypes="ccccc" />
        <rect
           style="fill:#000000;stroke:#ffffff;stroke-width:1.54808;stroke-linejoin:round;stroke-dasharray:none"
           id="rect5-9-1-3-5-4-65-4"
           width="5.8412356"
           height="10.785408"
           x="-198.68402"
           y="-210.75246"
           transform="matrix(0.59903324,-0.80072416,-1,0,0,0)" />
      </g>
      <g
         id="g6-1-1-4-6-1-18"
         transform="matrix(0.27830156,0,0,0.27830156,179.45603,857.96456)"
         style="stroke-width:1.38527;stroke-dasharray:none">
        <rect
           style="opacity:1;fill:#000000;stroke:#ffffff;stroke-width:1.38527;stroke-linejoin:round;stroke-dasharray:none"
           id="rect5-8-3-8-1-3-8"
           width="10.664055"
           height="10.785408"
           x="81.009392"
           y="159.09109" />
        <path
           id="rect5-9-6-4-2-3-8-52"
           style="fill:#000000;stroke:#ffffff;stroke-width:1.7424;stroke-linejoin:round;stroke-dasharray:none"
           transform="matrix(0.63208417,-0.77489973,0,1,0,0)"
           d="m 145.0336,271.4776 5.6318,-0.31314 1e-5,10.65467 -5.63181,0.44388 z"
           sodipodi:nodetypes="ccccc" />
        <rect
           style="fill:#000000;stroke:#ffffff;stroke-width:1.54808;stroke-linejoin:round;stroke-dasharray:none"
           id="rect5-9-1-3-5-4-3-2-6"
           width="5.8412356"
           height="10.785408"
           x="-198.68402"
           y="-210.75246"
           transform="matrix(0.59903324,-0.80072416,-1,0,0,0)" />
      </g>
      <g
         id="g6-1-1-4-7-3-2-3"
         transform="matrix(0.27830156,0,0,0.27830156,183.91368,857.96456)"
         style="stroke-width:1.38527;stroke-dasharray:none">
        <rect
           style="opacity:1;fill:#000000;stroke:#ffffff;stroke-width:1.38527;stroke-linejoin:round;stroke-dasharray:none"
           id="rect5-8-3-8-7-4-6-7"
           width="10.664055"
           height="10.785408"
           x="81.009392"
           y="159.09109" />
        <path
           id="rect5-9-6-4-2-4-5-2-6"
           style="fill:#000000;stroke:#ffffff;stroke-width:1.7424;stroke-linejoin:round;stroke-dasharray:none"
           transform="matrix(0.63208417,-0.77489973,0,1,0,0)"
           d="m 145.0336,271.4776 5.6318,-0.31314 1e-5,10.65467 -5.63181,0.44388 z"
           sodipodi:nodetypes="ccccc" />
        <rect
           style="fill:#000000;stroke:#ffffff;stroke-width:1.54808;stroke-linejoin:round;stroke-dasharray:none"
           id="rect5-9-1-3-5-4-6-0-8-70"
           width="5.8412356"
           height="10.785408"
           x="-198.68402"
           y="-210.75246"
           transform="matrix(0.59903324,-0.80072416,-1,0,0,0)" />
      </g>
      <g
         id="g6-1-1-4-6-1-1-6"
         transform="matrix(0.27830156,0,0,0.27830156,182.04085,852.55722)"
         style="stroke-width:1.38527;stroke-dasharray:none">
        <rect
           style="opacity:1;fill:#000000;stroke:#ffffff;stroke-width:1.38527;stroke-linejoin:round;stroke-dasharray:none"
           id="rect5-8-3-8-1-3-7-3"
           width="10.664055"
           height="10.785408"
           x="81.009392"
           y="159.09109" />
        <path
           id="rect5-9-6-4-2-3-8-5-8"
           style="fill:#000000;stroke:#ffffff;stroke-width:1.7424;stroke-linejoin:round;stroke-dasharray:none"
           transform="matrix(0.63208417,-0.77489973,0,1,0,0)"
           d="m 145.0336,271.4776 5.6318,-0.31314 1e-5,10.65467 -5.63181,0.44388 z"
           sodipodi:nodetypes="ccccc" />
        <rect
           style="fill:#000000;stroke:#ffffff;stroke-width:1.54808;stroke-linejoin:round;stroke-dasharray:none"
           id="rect5-9-1-3-5-4-3-2-3-7"
           width="5.8412356"
           height="10.785408"
           x="-198.68402"
           y="-210.75246"
           transform="matrix(0.59903324,-0.80072416,-1,0,0,0)" />
      </g>
      <g
         id="g6-1-1-4-7-3-2-4-3"
         transform="matrix(0.27830156,0,0,0.27830156,186.4985,852.55722)"
         style="stroke-width:1.38527;stroke-dasharray:none">
        <rect
           style="opacity:1;fill:#000000;stroke:#ffffff;stroke-width:1.38527;stroke-linejoin:round;stroke-dasharray:none"
           id="rect5-8-3-8-7-4-6-0-9"
           width="10.664055"
           height="10.785408"
           x="81.009392"
           y="159.09109" />
        <path
           id="rect5-9-6-4-2-4-5-2-3-7"
           style="fill:#000000;stroke:#ffffff;stroke-width:1.7424;stroke-linejoin:round;stroke-dasharray:none"
           transform="matrix(0.63208417,-0.77489973,0,1,0,0)"
           d="m 145.0336,271.4776 5.6318,-0.31314 1e-5,10.65467 -5.63181,0.44388 z"
           sodipodi:nodetypes="ccccc" />
        <rect
           style="fill:#000000;stroke:#ffffff;stroke-width:1.54808;stroke-linejoin:round;stroke-dasharray:none"
           id="rect5-9-1-3-5-4-6-0-8-7-5"
           width="5.8412356"
           height="10.785408"
           x="-198.68402"
           y="-210.75246"
           transform="matrix(0.59903324,-0.80072416,-1,0,0,0)" />
      </g>
    </g>
  </g>
</svg>
