<?xml version="1.0" encoding="UTF-8" standalone="no"?>
<!-- Created with Inkscape (http://www.inkscape.org/) -->

<svg
   width="41.647133mm"
   height="56.568901mm"
   viewBox="0 0 41.647133 56.568901"
   version="1.1"
   id="svg1"
   xmlns:inkscape="http://www.inkscape.org/namespaces/inkscape"
   xmlns:sodipodi="http://sodipodi.sourceforge.net/DTD/sodipodi-0.dtd"
   xmlns="http://www.w3.org/2000/svg"
   xmlns:svg="http://www.w3.org/2000/svg">
  <sodipodi:namedview
     id="namedview1"
     pagecolor="#ffffff"
     bordercolor="#000000"
     borderopacity="0.25"
     inkscape:showpageshadow="2"
     inkscape:pageopacity="0.0"
     inkscape:pagecheckerboard="0"
     inkscape:deskcolor="#d1d1d1"
     inkscape:document-units="mm" />
  <defs
     id="defs1" />
  <g
     inkscape:label="Layer 1"
     inkscape:groupmode="layer"
     id="layer1"
     transform="translate(726.68471,-1761.6501)">
    <g
       id="g49"
       transform="translate(-921.66452,795.1649)">
      <path
         id="rect1-7-3-7-0-3-9-8-5"
         style="stroke:#ffffff;stroke-width:0.374331;stroke-linejoin:round;stroke-dasharray:none;stroke-dashoffset:0;stroke-opacity:1"
         d="m 212.71005,976.30546 c 0.85461,-0.2956 2.47884,0.3281 2.55207,1.2368 l 0.93139,11.5617 c 0.0732,0.9087 -0.35457,1.8422 -1.20926,2.1376 -0.85462,0.2956 -1.90784,-0.1142 -2.04623,-1.0152 l -1.76232,-11.4745 c -0.13841,-0.9011 0.67967,-2.151 1.53435,-2.4464 z"
         sodipodi:nodetypes="sssssss"
         inkscape:transform-center-x="15.796265"
         inkscape:transform-center-y="-6.0763313" />
      <path
         id="rect1-7-8-5-1-8-7-5-7-9-2-9-3-3"
         style="stroke:#ffffff;stroke-width:0.374331;stroke-linejoin:round;stroke-dasharray:none;stroke-dashoffset:0;stroke-opacity:1"
         d="m 234.04607,982.03556 c -0.79177,0.067 -1.74241,0.889 -1.30751,1.5612 0.53766,0.8306 0.54861,1.8098 1.59295,1.8177 0.82841,0.01 1.6919,-0.7479 1.57755,-1.4581 -0.12686,-0.7907 -1.07158,-1.988 -1.8633,-1.921 z"
         sodipodi:nodetypes="sssss"
         inkscape:transform-center-x="-13.726764"
         inkscape:transform-center-y="10.928993" />
      <path
         id="rect1-7-8-5-5-6-7-7-5-4-9-4-6-5-2"
         style="stroke:#ffffff;stroke-width:0.374331;stroke-linejoin:round;stroke-dasharray:none;stroke-dashoffset:0;stroke-opacity:1"
         d="m 233.51483,982.95536 c -0.23215,-0.037 -0.44564,0.1002 -0.4943,0.4046 l -0.27675,1.7347 c -0.0496,0.313 0.097,0.5956 0.32873,0.6328 0.23211,0.037 0.45925,-0.1861 0.50913,-0.4992 l 0.27683,-1.7346 c 0.0387,-0.2444 -0.11206,-0.5014 -0.34379,-0.5385 z"
         sodipodi:nodetypes="sssssss"
         inkscape:transform-center-x="-12.190546"
         inkscape:transform-center-y="11.826446" />
      <path
         id="rect1-7-8-5-1-5-4-364-1-3-9-8-1-0-5"
         style="stroke:#ffffff;stroke-width:0.374331;stroke-linejoin:round;stroke-dasharray:none;stroke-dashoffset:0;stroke-opacity:1"
         d="m 234.60983,983.56636 c -0.76478,0.2154 -1.20564,1.0094 -0.98852,1.7804 l 0.25571,0.9075 c 0.21716,0.7709 1.00768,1.2181 1.77246,1.0027 0.76466,-0.2154 0.83977,-0.8665 0.76837,-1.6643 -0.10846,-1.2118 -0.10276,-2.3858 -1.80802,-2.0263 z"
         sodipodi:nodetypes="ssssss"
         inkscape:transform-center-x="-14.454975"
         inkscape:transform-center-y="12.611152" />
      <path
         id="rect1-7-2-76-1-7-2-6-4-5"
         style="stroke:#ffffff;stroke-width:0.374331;stroke-linejoin:round;stroke-dasharray:none;stroke-dashoffset:0;stroke-opacity:1"
         d="m 219.00234,971.76366 c -0.5686,0.7031 -0.62074,2.7079 0.28404,2.8217 l 9.14883,1.1523 c 0.90449,0.1139 1.85177,0.3006 2.42314,-0.4003 0.56866,-0.7032 0.64131,-2.0777 -0.24949,-2.2706 l -8.78111,-1.9025 c -0.89091,-0.193 -2.25352,-0.1016 -2.82488,0.5994 z"
         sodipodi:nodetypes="ssssssss"
         inkscape:transform-center-x="-4.3881465"
         inkscape:transform-center-y="0.66770766" />
      <path
         id="rect1-9-4-4-31-7-1-4-2-8"
         style="stroke:#ffffff;stroke-width:0.387927;stroke-linejoin:round;stroke-dasharray:none;stroke-dashoffset:0;stroke-opacity:1"
         d="m 231.13255,1005.1831 1.60066,-0.1868 c 0.90456,-0.1056 1.83601,0.5875 1.83781,1.5666 l 0.0257,13.9986 c 0.002,0.979 0.1686,1.6284 -0.73595,1.7339 l -0.72155,0.084 c -0.90455,0.1056 -1.7242,-0.5931 -1.8378,-1.5666 l -1.5966,-13.6823 c -0.1136,-0.9734 0.52316,-1.8421 1.42771,-1.9476 z"
         sodipodi:nodetypes="sssssssss" />
      <path
         id="rect1-9-1-95-4-0-1-3-9"
         style="stroke:#ffffff;stroke-width:0.387927;stroke-linejoin:round;stroke-dasharray:none;stroke-dashoffset:0;stroke-opacity:1"
         d="m 222.17759,1003.466 h 1.61153 c 0.91068,0 1.68037,0.7898 1.64383,1.769 l -0.51391,13.7752 c -0.0365,0.9792 -0.73315,1.769 -1.64384,1.769 h -0.61225 c -0.91069,0 -0.87342,-0.7931 -0.95651,-1.769 l -1.1727,-13.7752 c -0.0831,-0.9759 0.73316,-1.769 1.64385,-1.769 z"
         sodipodi:nodetypes="sssssssss" />
      <path
         id="rect1-9-69-4-8-4-6-2"
         style="stroke:#ffffff;stroke-width:0.359059;stroke-linejoin:round;stroke-dasharray:none;stroke-dashoffset:0;stroke-opacity:1"
         d="m 225.66615,990.03736 2.54141,0.6649 c 0.88295,0.2309 2.28297,1.4043 1.96943,2.1827 l -4.77553,11.85504 c -0.31352,0.7784 -1.07539,1.2924 -1.96153,1.074 l -1.56809,-0.3866 c -0.88613,-0.2185 -1.43475,-1.0484 -1.23752,-1.8627 l 3.01579,-12.45034 c 0.19755,-0.8141 1.13308,-1.3079 2.01603,-1.0769 z"
         sodipodi:nodetypes="ssssssssss" />
      <path
         id="rect1-9-4-41-7-6-1-5-1"
         style="stroke:#ffffff;stroke-width:0.359059;stroke-linejoin:round;stroke-dasharray:none;stroke-dashoffset:0;stroke-opacity:1"
         d="m 231.28086,990.55816 2.73139,0.3113 c 0.90675,0.1033 1.63432,0.8667 1.55857,1.7011 l -1.1552,12.72604 c -0.0754,0.8344 -0.86256,1.4432 -1.77184,1.3644 l -1.609,-0.1394 c -0.90927,-0.079 -1.45037,-0.8116 -1.51072,-1.6489 l -0.94249,-13.07584 c -0.0604,-0.8373 1.79253,-1.342 2.69928,-1.2387 z"
         sodipodi:nodetypes="sssssssss" />
      <path
         id="rect1-0-0-2-5-0-0"
         style="stroke:none;stroke-width:0.351231;stroke-linejoin:round;stroke-dasharray:none;stroke-dashoffset:0;stroke-opacity:1"
         d="m 211.46599,976.81526 c 2.03005,-3.2999 4.7958,-3.9043 7.05411,-5.1539 0.70715,-0.3913 1.28465,-0.7591 1.86793,-0.059 3.96002,4.7526 8.89053,8.7372 12.34686,13.6492 4.54132,6.454 2.18946,6.4639 -2.81254,11.1737 -0.58432,0.5502 -1.58552,0.4836 -2.18276,-0.2049 -1.13381,-1.307 -2.29189,-2.4043 -3.42578,-4.205 -3.06427,-4.8665 -7.78933,-8.6392 -12.31578,-12.5131 -0.69139,-0.5917 -0.95876,-1.9933 -0.53203,-2.6869 z"
         sodipodi:nodetypes="ssssssssss"
         inkscape:transform-center-x="5.5313759"
         inkscape:transform-center-y="-5.859893" />
      <path
         id="rect1-7-8-5-1-5-4-34-31-3-6-5-2-7"
         style="stroke:#ffffff;stroke-width:0.453133;stroke-linejoin:round;stroke-dasharray:none;stroke-dashoffset:0;stroke-opacity:1"
         d="m 224.17238,1019.1415 c -0.62285,-0.6997 -2.00014,-1.0415 -3.08805,-0.7665 l -1.28068,0.3238 c -1.08793,0.275 -1.46233,1.0597 -0.83947,1.7593 0.62284,0.6997 1.64147,0.7106 2.82652,0.5702 1.80001,-0.2133 3.58653,-0.3159 2.38168,-1.8868 z"
         sodipodi:nodetypes="ssssss" />
      <path
         id="rect1-7-8-5-1-5-4-34-0-1-3-9-6-8-2"
         style="stroke:#ffffff;stroke-width:0.419911;stroke-linejoin:round;stroke-dasharray:none;stroke-dashoffset:0;stroke-opacity:1"
         d="m 233.82349,1021.0011 c -0.72948,-0.5834 -2.13739,-0.8257 -3.15673,-0.5432 l -1.19996,0.3325 c -1.01936,0.2824 -1.2527,0.9795 -0.52323,1.5629 0.72947,0.5834 1.72961,0.5523 2.86704,0.383 1.7277,-0.2572 3.46101,-0.4176 2.01288,-1.7352 z"
         sodipodi:nodetypes="ssssss" />
      <path
         id="rect1-7-5-6-7-4-6-2-4"
         style="stroke:#ffffff;stroke-width:0.374331;stroke-linejoin:round;stroke-dasharray:none;stroke-dashoffset:0;stroke-opacity:1"
         d="m 215.88942,972.12626 -2.16801,-1.6383 c -1.1744,-0.8875 -3.04272,1.0059 -2.06426,2.4558 l 1.3965,2.0695 c 1.20765,1.7896 4.54923,-1.5922 2.83577,-2.887 z"
         sodipodi:nodetypes="sssss"
         inkscape:transform-center-x="15.601333"
         inkscape:transform-center-y="-16.96788" />
      <path
         id="path1-73-1-5-7-1-3"
         style="stroke:#ffffff;stroke-width:0.287201;stroke-linejoin:round;stroke-dasharray:none;stroke-dashoffset:0;stroke-opacity:1"
         d="m 212.78401,967.91646 c 1.52187,1.6162 2.26838,4.1669 0.84958,5.5029 -1.4188,1.3359 -3.88365,0.4031 -5.40551,-1.2131 -1.52186,-1.6163 -1.52442,-3.304 -0.10562,-4.6399 1.4188,-1.336 3.13969,-1.2662 4.66155,0.3501 z"
         sodipodi:nodetypes="sssss"
         inkscape:transform-center-x="18.74633"
         inkscape:transform-center-y="-19.517026" />
      <path
         id="rect1-7-8-3-2-6-6-1-0-9-7"
         style="stroke:#ffffff;stroke-width:0.317429;stroke-linejoin:round;stroke-dasharray:none;stroke-dashoffset:0;stroke-opacity:1"
         d="m 229.83445,974.65306 c -0.84487,0.3644 -1.4078,1.179 -1.06427,1.7257 l 4.13712,6.5858 c 0.3434,0.5467 0.61004,0.7495 1.45492,0.3851 0.84475,-0.3644 1.00301,-0.81 0.72653,-1.3928 l -3.26867,-6.8935 c -0.27641,-0.5828 -1.1408,-0.7746 -1.98563,-0.4103 z"
         sodipodi:nodetypes="sssssss"
         inkscape:transform-center-x="-11.39313"
         inkscape:transform-center-y="6.2060067" />
      <ellipse
         style="fill:#ffffff;stroke:#000000;stroke-width:0.569921;stroke-linejoin:round;stroke-dasharray:none"
         id="path23-1"
         cx="213.427"
         cy="1002.9757"
         rx="18.162245"
         ry="17.609779" />
      <g
         id="g6-1-1-4-6-11-5"
         transform="matrix(0.27830156,0,0,0.27830156,181.57726,969.40126)"
         style="stroke-width:1.38527;stroke-dasharray:none">
        <rect
           style="opacity:1;fill:#000000;stroke:#ffffff;stroke-width:1.38527;stroke-linejoin:round;stroke-dasharray:none"
           id="rect5-8-3-8-1-39-4"
           width="10.664055"
           height="10.785408"
           x="81.009392"
           y="159.09109" />
        <path
           id="rect5-9-6-4-2-3-3-9"
           style="fill:#000000;stroke:#ffffff;stroke-width:1.7424;stroke-linejoin:round;stroke-dasharray:none"
           transform="matrix(0.63208417,-0.77489973,0,1,0,0)"
           d="m 145.0336,271.4776 5.6318,-0.31314 1e-5,10.65467 -5.63181,0.44388 z"
           sodipodi:nodetypes="ccccc" />
        <rect
           style="fill:#000000;stroke:#ffffff;stroke-width:1.54808;stroke-linejoin:round;stroke-dasharray:none"
           id="rect5-9-1-3-5-4-3-0-9"
           width="5.8412356"
           height="10.785408"
           x="-198.68402"
           y="-210.75246"
           transform="matrix(0.59903324,-0.80072416,-1,0,0,0)" />
      </g>
      <path
         id="path11-4-78-2-8-9"
         style="fill:#808080;stroke:none;stroke-width:0.0886796;stroke-linejoin:round;stroke-dasharray:none"
         d="m 214.42716,998.14236 h 1.8913 l 0.012,-1.1299 2.2363,1.7555 c 0,0.043 -2.2731,1.61844 -2.2731,1.61844 l 0.012,-1.11974 h -1.879 z" />
      <path
         id="path11-4-78-2-8-9-5"
         style="fill:#808080;stroke:none;stroke-width:0.0886796;stroke-linejoin:round;stroke-dasharray:none"
         d="m 210.76991,1003.7076 v 1.8913 l 1.1299,0.012 -1.7555,2.2363 c -0.043,0 -1.6184,-2.2731 -1.6184,-2.2731 l 1.1197,0.012 v -1.879 z" />
      <path
         id="path11-4-78-2-8"
         style="fill:#808080;stroke:none;stroke-width:0.0886796;stroke-linejoin:round;stroke-dasharray:none"
         d="m 206.38284,998.21636 h -1.8913 l -0.012,-1.1299 -2.2363,1.7555 c 0,0.043 2.2731,1.61844 2.2731,1.61844 l -0.012,-1.11974 h 1.879 z" />
      <path
         id="rect1-7-8-30-8-6-6-5-1-1"
         style="stroke:#ffffff;stroke-width:0.313714;stroke-linejoin:round;stroke-dasharray:none;stroke-dashoffset:0;stroke-opacity:1"
         d="m 214.78779,988.91056 c 0.84582,0.3645 1.4022,1.16 1.07769,1.7 l -3.76957,6.2735 c -0.32451,0.54 -0.60114,0.7287 -1.44703,0.3641 -0.84588,-0.3646 -0.99164,-0.795 -0.73781,-1.3709 l 2.90076,-6.5827 c 0.25383,-0.576 1.13007,-0.7486 1.97596,-0.384 z"
         sodipodi:nodetypes="sssssss"
         inkscape:transform-center-x="16.598402"
         inkscape:transform-center-y="3.2176049" />
      <path
         id="rect1-7-8-5-1-8-52-7-5-7-4-0-1"
         style="stroke:#ffffff;stroke-width:0.374331;stroke-linejoin:round;stroke-dasharray:none;stroke-dashoffset:0;stroke-opacity:1"
         d="m 208.66159,997.43816 c 0.35189,-0.7123 1.46457,-1.2966 1.93136,-0.6454 0.57638,0.8042 1.4836,1.1727 1.10899,2.1475 -0.29717,0.7733 -1.31477,1.30114 -1.93409,0.9348 -0.68933,-0.4078 -1.45819,-1.7246 -1.10624,-2.4369 z"
         sodipodi:nodetypes="sssss"
         inkscape:transform-center-x="19.295547"
         inkscape:transform-center-y="8.3918594" />
      <path
         id="rect1-7-8-5-1-5-4-8-8-8-1-8-9-1"
         style="stroke:#ffffff;stroke-width:0.288532;stroke-linejoin:round;stroke-dasharray:none;stroke-dashoffset:0;stroke-opacity:1"
         d="m 209.2305,998.09196 c 0.46837,-0.3476 1.16509,-0.2153 1.56249,0.297 l 0.46779,0.603 c 0.39737,0.5121 0.34028,1.20464 -0.12797,1.55244 -0.46839,0.3476 -0.91573,0.069 -1.39331,-0.3701 -0.72543,-0.66684 -1.47594,-1.24694 -0.50898,-2.08234 z"
         sodipodi:nodetypes="ssssss"
         inkscape:transform-center-x="19.328973"
         inkscape:transform-center-y="9.4393015" />
      <path
         id="rect1-7-8-5-5-6-7-3-8-5-2-7-9-2"
         style="stroke:#ffffff;stroke-width:0.374331;stroke-linejoin:round;stroke-dasharray:none;stroke-dashoffset:0;stroke-opacity:1"
         d="m 209.27697,997.28596 c -0.21389,-0.097 -0.31599,-0.3298 -0.1884,-0.6104 l 0.72752,-1.5988 c 0.13125,-0.2886 0.40953,-0.4433 0.62352,-0.3459 0.21396,0.097 0.28015,0.4088 0.14891,0.6974 l -0.72751,1.5988 c -0.10233,0.2254 -0.37393,0.3521 -0.58402,0.2588 z"
         sodipodi:nodetypes="sssssss"
         inkscape:transform-center-x="19.632965"
         inkscape:transform-center-y="6.1490212" />
    </g>
  </g>
</svg>
