<?xml version="1.0" encoding="UTF-8" standalone="no"?>
<!-- Created with Inkscape (http://www.inkscape.org/) -->

<svg
   width="32.645809mm"
   height="68.616356mm"
   viewBox="0 0 32.645809 68.616356"
   version="1.1"
   id="svg1"
   xmlns:inkscape="http://www.inkscape.org/namespaces/inkscape"
   xmlns:sodipodi="http://sodipodi.sourceforge.net/DTD/sodipodi-0.dtd"
   xmlns="http://www.w3.org/2000/svg"
   xmlns:svg="http://www.w3.org/2000/svg">
  <sodipodi:namedview
     id="namedview1"
     pagecolor="#ffffff"
     bordercolor="#000000"
     borderopacity="0.25"
     inkscape:showpageshadow="2"
     inkscape:pageopacity="0.0"
     inkscape:pagecheckerboard="0"
     inkscape:deskcolor="#d1d1d1"
     inkscape:document-units="mm" />
  <defs
     id="defs1" />
  <g
     inkscape:label="Layer 1"
     inkscape:groupmode="layer"
     id="layer1"
     transform="translate(722.1841,-1851.8367)">
    <g
       id="g52"
       transform="translate(-1256.2701,1804.2649)">
      <path
         id="rect4-1"
         style="fill:#cccccc;stroke-width:0.281202;stroke-linejoin:round"
         d="m 544.13336,69.004915 -1.14515,12.58185 -0.96744,10.63105 -1.7986,5.73489 0.45623,-11.41998 2.30981,-4.94596 -5.83132,-0.22233 -3.07085,5.16829 0.7718,24.145275 h 4.85591 v -0.002 l 21.39039,0.002 h 4.85551 l 0.7722,-24.145275 -3.07125,-5.16829 -5.80183,-0.0163 2.28033,5.18463 0.45582,11.39886 -1.76752,-5.78071 -0.96863,-10.80278 -1.1069,-12.34318 z" />
      <path
         id="rect1-7-8-30-5"
         style="stroke:#ffffff;stroke-width:0.313714;stroke-linejoin:round;stroke-dasharray:none;stroke-dashoffset:0;stroke-opacity:1"
         d="m 539.84378,80.415845 c 0.89619,0.21266 1.55591,0.89056 1.35569,1.48792 l -1.86853,5.5747 c -0.20019,0.59737 -0.46598,0.82167 -1.36218,0.60901 -0.8962,-0.21266 -1.06789,-0.6018 -0.96394,-1.22256 l 0.95929,-5.72889 c 0.10396,-0.62075 0.98346,-0.93285 1.87967,-0.72018 z"
         sodipodi:nodetypes="sssssss"
         inkscape:transform-center-x="0.63653683"
         inkscape:transform-center-y="2.8354278" />
      <path
         id="rect1-9-4-4-3-4"
         style="stroke:#ffffff;stroke-width:0.387927;stroke-linejoin:round;stroke-dasharray:none;stroke-dashoffset:0;stroke-opacity:1"
         d="m 553.83949,97.874605 h 1.61153 c 0.91069,0 1.75553,0.7964 1.64384,1.76906 l -1.59695,13.907235 c -0.1117,0.97267 -0.0213,1.63698 -0.93197,1.63698 h -0.72645 c -0.91069,0 -1.64384,-0.78901 -1.64384,-1.76907 V 99.643665 c 0,-0.98006 0.73315,-1.76906 1.64384,-1.76906 z"
         sodipodi:nodetypes="sssssssss" />
      <path
         id="rect1-9-1-4-4"
         style="stroke:#ffffff;stroke-width:0.387927;stroke-linejoin:round;stroke-dasharray:none;stroke-dashoffset:0;stroke-opacity:1"
         d="m 543.45798,96.165325 1.58791,-0.27488 c 0.89734,-0.15534 1.79047,0.4916 1.9215,1.46275 l 1.84324,13.660935 c 0.1311,0.97115 -0.42066,1.8682 -1.318,2.02354 l -0.60327,0.10443 c -0.89735,0.15533 -0.99591,-0.63249 -1.24425,-1.58 l -3.50513,-13.373245 c -0.24835,-0.9475 0.42065,-1.8682 1.318,-2.02353 z"
         sodipodi:nodetypes="sssssssss"
         inkscape:transform-center-x="-1.0211069"
         inkscape:transform-center-y="6.845113" />
      <path
         id="rect1-7-3-66"
         style="stroke:#ffffff;stroke-width:0.374331;stroke-linejoin:round;stroke-dasharray:none;stroke-dashoffset:0;stroke-opacity:1"
         d="m 546.52613,71.233705 c 0.82479,0.3708 1.55536,1.91939 1.01015,2.65001 l -6.16585,8.26266 c -0.5452,0.73063 -1.52097,1.09813 -2.34577,0.72733 -0.8248,-0.37079 -1.27825,-1.36972 -0.79378,-2.14196 l 5.50106,-8.7687 c 0.48446,-0.77224 1.96939,-1.10013 2.79419,-0.72934 z"
         sodipodi:nodetypes="sssssss"
         inkscape:transform-center-x="2.8406965"
         inkscape:transform-center-y="4.6739601" />
      <path
         id="rect1-9-7-4"
         style="stroke:#ffffff;stroke-width:0.226153;stroke-linejoin:round;stroke-dasharray:none;stroke-dashoffset:0;stroke-opacity:1"
         d="m 546.10566,92.088525 2.42247,1.08152 c 0.84161,0.37577 2.25029,1.35216 1.99022,1.58253 -1.23746,1.09616 -2.54096,1.46594 -3.66426,3.81796 -0.14972,0.31351 -0.91844,0.24493 -1.7622,-0.12622 l -1.49309,-0.65678 c -0.84377,-0.37116 -1.33628,-1.40544 -1.33121,-1.7345 0.0339,-2.19839 0.83553,-3.51941 1.741,-4.72174 0.19797,-0.26288 1.25544,0.38148 2.09706,0.75722 z"
         sodipodi:nodetypes="ssssssssss"
         inkscape:transform-center-x="1.3007951"
         inkscape:transform-center-y="1.7913472" />
      <path
         id="rect1-9-4-1-76"
         style="stroke:#ffffff;stroke-width:0.226153;stroke-linejoin:round;stroke-dasharray:none;stroke-dashoffset:0;stroke-opacity:1"
         d="m 552.93094,92.796995 2.7755,0.0292 c 0.92139,0.01 1.72004,0.28375 1.71658,0.61282 l -0.0527,5.01917 c -0.003,0.32908 -0.74208,0.59401 -1.66387,0.59401 h -1.63116 c -0.92178,0 -1.53015,-0.26841 -1.66387,-0.59401 l -2.0885,-5.0849 c -0.13373,-0.3256 1.68664,-0.58596 2.60803,-0.57627 z"
         sodipodi:nodetypes="sssssssss" />
      <path
         id="rect1-7-8-5-1-8-52-2"
         style="stroke:#ffffff;stroke-width:0.374331;stroke-linejoin:round;stroke-dasharray:none;stroke-dashoffset:0;stroke-opacity:1"
         d="m 537.73083,87.079835 c 0.7945,0 1.81108,0.73904 1.43412,1.44571 -0.46569,0.87298 -0.3942,1.84958 -1.43412,1.94548 -0.82495,0.0761 -1.74882,-0.60266 -1.69476,-1.31996 0.0602,-0.79866 0.90025,-2.07123 1.69476,-2.07123 z"
         sodipodi:nodetypes="sssss" />
      <path
         id="rect1-7-8-5-1-5-4-8-5"
         style="stroke:#ffffff;stroke-width:0.374331;stroke-linejoin:round;stroke-dasharray:none;stroke-dashoffset:0;stroke-opacity:1"
         d="m 537.15495,88.393185 c 0.76742,-0.20563 1.55214,0.25164 1.75943,1.02528 l 0.24403,0.9107 c 0.20729,0.77365 -0.24365,1.56201 -1.01109,1.76764 -0.76742,0.20563 -1.16471,-0.3156 -1.51097,-1.03789 -0.526,-1.09704 -1.13057,-2.10337 0.5186,-2.66573 z"
         sodipodi:nodetypes="ssssss" />
      <path
         id="rect1-7-8-5-5-6-7-3-22"
         style="stroke:#ffffff;stroke-width:0.374331;stroke-linejoin:round;stroke-dasharray:none;stroke-dashoffset:0;stroke-opacity:1"
         d="m 538.63642,87.548985 c 0.20357,-0.11753 0.45206,-0.0656 0.60621,0.20138 l 0.87829,1.52124 c 0.15849,0.27452 0.12264,0.59091 -0.0809,0.70844 -0.20357,0.11754 -0.4955,-0.01 -0.65399,-0.28413 l -0.87829,-1.52124 c -0.12374,-0.21433 -0.0749,-0.50815 0.12871,-0.62569 z"
         sodipodi:nodetypes="sssssss" />
      <path
         id="rect1-7-8-3-2-9"
         style="stroke:#ffffff;stroke-width:0.317429;stroke-linejoin:round;stroke-dasharray:none;stroke-dashoffset:0;stroke-opacity:1"
         d="m 561.70757,80.773775 c -0.87254,0.29189 -1.46391,1.03797 -1.206,1.62983 l 2.40696,5.52341 c 0.25789,0.59188 0.54473,0.79812 1.41726,0.50624 0.87252,-0.29189 1.00565,-0.70279 0.84141,-1.32658 l -1.5157,-5.75681 c -0.16425,-0.62377 -1.07141,-0.86797 -1.94393,-0.57609 z"
         sodipodi:nodetypes="sssssss"
         inkscape:transform-center-x="-0.92606868"
         inkscape:transform-center-y="2.5990388" />
      <path
         id="rect1-7-2-76-5"
         style="stroke:#ffffff;stroke-width:0.374331;stroke-linejoin:round;stroke-dasharray:none;stroke-dashoffset:0;stroke-opacity:1"
         d="m 555.37676,71.745905 c -0.8282,0.36316 -1.57302,1.90494 -1.03459,2.64056 l 6.08928,8.31925 c 0.53844,0.73563 1.51077,1.11213 2.33896,0.74897 0.8282,-0.36316 1.29084,-1.35786 0.81352,-2.13454 l -5.41984,-8.81914 c -0.47732,-0.77668 -1.95914,-1.11826 -2.78733,-0.7551 z"
         sodipodi:nodetypes="sssssss"
         inkscape:transform-center-x="-2.968664"
         inkscape:transform-center-y="4.0653421" />
      <path
         id="rect1-7-8-5-1-8-7-5-2"
         style="stroke:#ffffff;stroke-width:0.374331;stroke-linejoin:round;stroke-dasharray:none;stroke-dashoffset:0;stroke-opacity:1"
         d="m 564.12153,87.097265 c -0.7945,0 -1.81108,0.73905 -1.43412,1.44571 0.46569,0.87299 0.3942,1.84958 1.43412,1.94548 0.82495,0.0761 1.74882,-0.60266 1.69477,-1.31996 -0.0602,-0.79866 -0.90026,-2.07123 -1.69477,-2.07123 z"
         sodipodi:nodetypes="sssss" />
      <path
         id="rect1-7-8-5-1-5-4-364-1-7"
         style="stroke:#ffffff;stroke-width:0.374331;stroke-linejoin:round;stroke-dasharray:none;stroke-dashoffset:0;stroke-opacity:1"
         d="m 564.69742,88.410615 c -0.76743,-0.20563 -1.55214,0.25165 -1.75943,1.02528 l -0.24403,0.9107 c -0.2073,0.77365 0.24364,1.56201 1.01108,1.76764 0.76743,0.20563 1.16472,-0.3156 1.51097,-1.03789 0.526,-1.09704 1.13057,-2.10337 -0.51859,-2.66573 z"
         sodipodi:nodetypes="ssssss" />
      <path
         id="rect1-7-8-5-5-6-7-7-5-6"
         style="stroke:#ffffff;stroke-width:0.374331;stroke-linejoin:round;stroke-dasharray:none;stroke-dashoffset:0;stroke-opacity:1"
         d="m 563.21595,87.566415 c -0.20358,-0.11753 -0.45207,-0.0656 -0.60622,0.20138 l -0.87828,1.52124 c -0.1585,0.27452 -0.12265,0.59091 0.0809,0.70845 0.20357,0.11753 0.4955,-0.01 0.65399,-0.28413 l 0.87829,-1.52125 c 0.12374,-0.21433 0.0749,-0.50815 -0.12871,-0.62569 z"
         sodipodi:nodetypes="sssssss" />
      <path
         id="rect1-92-7"
         style="stroke:none;stroke-width:0.364535;stroke-linejoin:round;stroke-dasharray:none;stroke-dashoffset:0;stroke-opacity:1"
         d="m 545.78793,71.287465 c 4.48102,-1.72815 6.95788,-0.60535 9.7985,0 0.88945,0.18954 1.70826,0.69805 1.64554,1.56054 -0.42584,5.85583 -2.31401,11.97946 -0.41771,17.451 0.53577,1.54592 0.34141,2.91605 0.41771,4.32579 0.0467,0.8634 -0.73391,1.56054 -1.64554,1.56054 h -9.7985 c -0.91163,0 -1.66848,-0.69628 -1.64554,-1.56054 0.0443,-1.67105 -0.17824,-3.28678 0.44127,-5.13048 1.76084,-5.24025 0.28547,-11.02882 -0.44127,-16.64631 -0.11101,-0.85811 0.80107,-1.23486 1.64554,-1.56054 z"
         sodipodi:nodetypes="sssssssssss" />
      <path
         id="rect1-7-8-5-1-5-4-34-3-1"
         style="stroke:#ffffff;stroke-width:0.485783;stroke-linejoin:round;stroke-dasharray:none;stroke-dashoffset:0;stroke-opacity:1"
         d="m 547.69088,111.87753 c -0.70994,-0.70086 -2.11346,-0.87118 -3.14686,-0.38187 l -1.21653,0.576 c -1.03343,0.48931 -1.29384,1.44747 -0.58389,2.14834 0.70994,0.70087 1.71459,0.55 2.86223,0.19915 1.7432,-0.53284 3.48839,-0.93687 2.08505,-2.54162 z"
         sodipodi:nodetypes="ssssss" />
      <path
         id="rect1-7-8-5-1-5-4-34-0-6-5"
         style="stroke:#ffffff;stroke-width:0.485783;stroke-linejoin:round;stroke-dasharray:none;stroke-dashoffset:0;stroke-opacity:1"
         d="m 553.16883,113.10856 c 0.70994,-0.70086 2.11345,-0.87118 3.14686,-0.38186 l 1.21653,0.57599 c 1.03342,0.48931 1.29383,1.44747 0.58389,2.14834 -0.70994,0.70088 -1.7146,0.55 -2.86223,0.19915 -1.7432,-0.53284 -3.48839,-0.93686 -2.08505,-2.54162 z"
         sodipodi:nodetypes="ssssss" />
      <path
         id="rect1-7-5-2-2"
         style="stroke:#ffffff;stroke-width:0.374331;stroke-linejoin:round;stroke-dasharray:none;stroke-dashoffset:0;stroke-opacity:1"
         d="m 552.67994,70.012935 -0.45533,-2.67901 c -0.24664,-1.45117 -2.90483,-1.35351 -3.18644,0.37284 l -0.40194,2.46403 c -0.34759,2.13083 4.40356,1.95946 4.04371,-0.15786 z"
         sodipodi:nodetypes="sssss" />
      <path
         id="path1-75-0"
         style="stroke:#ffffff;stroke-width:0.307315;stroke-linejoin:round;stroke-dasharray:none;stroke-dashoffset:0;stroke-opacity:1"
         d="m 554.21295,64.848935 c 0,2.20069 -1.39188,4.5489 -3.64273,4.5489 -2.25086,0 -3.58503,-2.34821 -3.58503,-4.5489 0,-2.20069 1.33417,-3.42051 3.58503,-3.42051 2.25085,0 3.64273,1.21981 3.64273,3.42051 z"
         sodipodi:nodetypes="sssss" />
      <ellipse
         style="opacity:1;fill:#ffffff;stroke:#000000;stroke-width:0.310639;stroke-linejoin:round;stroke-dasharray:none"
         id="path25"
         cx="550.43536"
         cy="53.994144"
         rx="6.1642346"
         ry="6.2669721" />
      <path
         style="opacity:1;fill:#ffffff;stroke:#000000;stroke-width:0.4;stroke-linejoin:round;stroke-dasharray:none"
         d="m 548.22503,51.567889 2.06383,2.226259 3.95533,-3.061392"
         id="path26"
         sodipodi:nodetypes="ccc" />
      <path
         style="opacity:1;fill:#ffffff;stroke:#000000;stroke-width:0.4;stroke-linejoin:round;stroke-dasharray:none"
         d="m 550.43535,47.727171 v 1.012965"
         id="path27" />
      <path
         style="opacity:1;fill:#ffffff;stroke:#000000;stroke-width:0.4;stroke-linejoin:round;stroke-dasharray:none"
         d="M 550.43535,60.261116 V 59.356542"
         id="path28" />
      <path
         style="opacity:1;fill:#ffffff;stroke:#000000;stroke-width:0.4;stroke-linejoin:round;stroke-dasharray:none"
         d="m 556.59959,53.994145 -0.70829,-6e-6"
         id="path29" />
      <path
         style="opacity:1;fill:#ffffff;stroke:#000000;stroke-width:0.4;stroke-linejoin:round;stroke-dasharray:none"
         d="m 544.27112,53.994145 0.80534,-6e-6"
         id="path30" />
    </g>
  </g>
</svg>
