<?xml version="1.0" encoding="UTF-8" standalone="no"?>
<!-- Created with Inkscape (http://www.inkscape.org/) -->

<svg
   width="48.273796mm"
   height="68.135246mm"
   viewBox="0 0 48.273796 68.135246"
   version="1.1"
   id="svg1"
   xmlns:inkscape="http://www.inkscape.org/namespaces/inkscape"
   xmlns:sodipodi="http://sodipodi.sourceforge.net/DTD/sodipodi-0.dtd"
   xmlns="http://www.w3.org/2000/svg"
   xmlns:svg="http://www.w3.org/2000/svg">
  <sodipodi:namedview
     id="namedview1"
     pagecolor="#ffffff"
     bordercolor="#000000"
     borderopacity="0.25"
     inkscape:showpageshadow="2"
     inkscape:pageopacity="0.0"
     inkscape:pagecheckerboard="0"
     inkscape:deskcolor="#d1d1d1"
     inkscape:document-units="mm" />
  <defs
     id="defs1" />
  <g
     inkscape:label="Layer 1"
     inkscape:groupmode="layer"
     id="layer1"
     transform="translate(729.99806,-1962.6192)">
    <g
       id="g55"
       transform="translate(-1245.5667,1830.8718)">
      <g
         id="g6-1-1-4-6-5-7-3"
         transform="matrix(0.27830156,0,0,0.27830156,493.29159,89.080451)"
         style="stroke-width:1.38527;stroke-dasharray:none">
        <rect
           style="opacity:1;fill:#000000;stroke:#ffffff;stroke-width:1.38527;stroke-linejoin:round;stroke-dasharray:none"
           id="rect5-8-3-8-1-5-0-4"
           width="10.664055"
           height="10.785408"
           x="81.009392"
           y="159.09109" />
        <path
           id="rect5-9-6-4-2-3-4-2-3"
           style="fill:#000000;stroke:#ffffff;stroke-width:1.7424;stroke-linejoin:round;stroke-dasharray:none"
           transform="matrix(0.63208417,-0.77489973,0,1,0,0)"
           d="m 145.0336,271.4776 5.6318,-0.31314 1e-5,10.65467 -5.63181,0.44388 z"
           sodipodi:nodetypes="ccccc" />
        <rect
           style="fill:#000000;stroke:#ffffff;stroke-width:1.54808;stroke-linejoin:round;stroke-dasharray:none"
           id="rect5-9-1-3-5-4-3-07-9-3"
           width="5.8412356"
           height="10.785408"
           x="-198.68402"
           y="-210.75246"
           transform="matrix(0.59903324,-0.80072416,-1,0,0,0)" />
      </g>
      <path
         id="rect1-7-2-76-1-7-2-6-6"
         style="stroke:#ffffff;stroke-width:0.374331;stroke-linejoin:round;stroke-dasharray:none;stroke-dashoffset:0;stroke-opacity:1"
         d="m 560.27257,146.67941 c -0.65596,-0.62249 -2.6535,-0.82272 -2.83512,0.0706 l -1.83721,9.03618 c -0.18163,0.89334 -0.43907,1.82387 0.2169,2.44635 0.65597,0.6225 2.02347,0.79581 2.28298,-0.0781 l 2.55761,-8.61304 c 0.25951,-0.87392 0.27081,-2.23951 -0.38516,-2.86201 z"
         sodipodi:nodetypes="ssssssss"
         inkscape:transform-center-x="1.1050706"
         inkscape:transform-center-y="4.2815945" />
      <path
         id="rect1-7-3-7-0-3-9-0"
         style="stroke:#ffffff;stroke-width:0.374331;stroke-linejoin:round;stroke-dasharray:none;stroke-dashoffset:0;stroke-opacity:1"
         d="m 551.01547,145.32582 c 0.8248,0.37078 1.57978,1.93826 1.01015,2.65 l -7.24775,9.05606 c -0.56962,0.71175 -1.52097,1.09813 -2.34577,0.72733 -0.8248,-0.37079 -1.31073,-1.39107 -0.79378,-2.14196 l 6.58297,-9.5621 c 0.51694,-0.75089 1.96939,-1.10012 2.79418,-0.72933 z"
         sodipodi:nodetypes="sssssss"
         inkscape:transform-center-x="2.840698"
         inkscape:transform-center-y="4.6739625" />
      <path
         id="rect1-9-4-4-31-7-1-4-23"
         style="stroke:#ffffff;stroke-width:0.387927;stroke-linejoin:round;stroke-dasharray:none;stroke-dashoffset:0;stroke-opacity:1"
         d="m 555.58598,182.01152 1.60066,-0.18679 c 0.90456,-0.10555 1.83601,0.58757 1.83781,1.56661 l 0.0257,13.99861 c 0.002,0.97906 0.1686,1.62841 -0.73595,1.73396 l -0.72155,0.0842 c -0.90455,0.10555 -1.7242,-0.59316 -1.8378,-1.56662 l -1.5966,-13.6823 c -0.1136,-0.97345 0.52316,-1.84212 1.42771,-1.94767 z"
         sodipodi:nodetypes="sssssssss" />
      <path
         id="rect1-9-1-95-4-0-1-9"
         style="stroke:#ffffff;stroke-width:0.387927;stroke-linejoin:round;stroke-dasharray:none;stroke-dashoffset:0;stroke-opacity:1"
         d="m 546.63102,180.29443 h 1.61153 c 0.91068,0 1.68037,0.78979 1.64383,1.76907 l -0.51391,13.77514 c -0.0365,0.97927 -0.73315,1.76907 -1.64384,1.76907 h -0.61225 c -0.91069,0 -0.87342,-0.7931 -0.95651,-1.76907 l -1.1727,-13.77514 c -0.0831,-0.97598 0.73316,-1.76907 1.64385,-1.76907 z"
         sodipodi:nodetypes="sssssssss" />
      <path
         id="rect1-9-69-4-8-4-5"
         style="stroke:#ffffff;stroke-width:0.359059;stroke-linejoin:round;stroke-dasharray:none;stroke-dashoffset:0;stroke-opacity:1"
         d="m 550.11958,166.86591 2.54141,0.66485 c 0.88295,0.23095 2.28297,1.40433 1.96943,2.18267 l -4.77553,11.85505 c -0.31352,0.77834 -1.07539,1.29243 -1.96153,1.07395 l -1.56809,-0.3866 c -0.88613,-0.21848 -1.43475,-1.04841 -1.23752,-1.86266 l 3.01579,-12.45028 c 0.19755,-0.81417 1.13308,-1.30793 2.01603,-1.07696 z"
         sodipodi:nodetypes="ssssssssss" />
      <path
         id="rect1-9-4-41-7-6-1-4"
         style="stroke:#ffffff;stroke-width:0.359059;stroke-linejoin:round;stroke-dasharray:none;stroke-dashoffset:0;stroke-opacity:1"
         d="m 555.73429,167.38663 2.73139,0.3113 c 0.90675,0.10334 1.63432,0.86672 1.55857,1.70109 l -1.1552,12.72605 c -0.0754,0.8344 -0.86256,1.4432 -1.77184,1.3644 l -1.609,-0.13943 c -0.90927,-0.0788 -1.45037,-0.81158 -1.51072,-1.64885 L 553.035,168.62536 c -0.0604,-0.83728 1.79253,-1.34203 2.69928,-1.23869 z"
         sodipodi:nodetypes="sssssssss" />
      <path
         id="rect1-0-0-2-5-80"
         style="stroke:none;stroke-width:0.351231;stroke-linejoin:round;stroke-dasharray:none;stroke-dashoffset:0;stroke-opacity:1"
         d="m 549.76019,144.84424 c 3.74019,-1.01083 6.16808,0.4451 8.66893,1.08341 0.78307,0.19987 1.45566,0.32806 1.40044,1.23752 -0.37491,6.17475 -2.03724,12.63188 -0.36775,18.40142 0.47169,1.63011 0.30057,3.07486 0.36775,4.56138 0.0411,0.91042 -0.64613,1.64553 -1.44872,1.64553 h -8.62651 c -0.80259,0 -1.48588,-0.73479 -1.44871,-1.64553 0.0705,-1.72878 -0.0204,-3.32163 0.38849,-5.4099 1.10517,-5.64368 0.25132,-11.62948 -0.38849,-17.5529 -0.0977,-0.90484 0.66845,-2.10847 1.45457,-2.32093 z"
         sodipodi:nodetypes="sssssssssss" />
      <path
         id="rect1-7-8-5-1-5-4-34-31-3-6-5-3"
         style="stroke:#ffffff;stroke-width:0.453133;stroke-linejoin:round;stroke-dasharray:none;stroke-dashoffset:0;stroke-opacity:1"
         d="m 548.62581,195.96994 c -0.62285,-0.69964 -2.00014,-1.04147 -3.08805,-0.76643 l -1.28068,0.32376 c -1.08793,0.27503 -1.46233,1.05971 -0.83947,1.75934 0.62284,0.69964 1.64147,0.71058 2.82652,0.57013 1.80001,-0.21327 3.58653,-0.31588 2.38168,-1.8868 z"
         sodipodi:nodetypes="ssssss" />
      <path
         id="rect1-7-8-5-1-5-4-34-0-1-3-9-6-7"
         style="stroke:#ffffff;stroke-width:0.419911;stroke-linejoin:round;stroke-dasharray:none;stroke-dashoffset:0;stroke-opacity:1"
         d="m 558.27692,197.82952 c -0.72948,-0.58339 -2.13739,-0.82566 -3.15673,-0.54319 l -1.19996,0.33251 c -1.01936,0.28247 -1.2527,0.97955 -0.52323,1.56294 0.72947,0.58341 1.72961,0.55231 2.86704,0.38298 1.7277,-0.25716 3.46101,-0.4176 2.01288,-1.73524 z"
         sodipodi:nodetypes="ssssss" />
      <path
         id="rect1-7-5-6-7-4-6-8"
         style="stroke:#ffffff;stroke-width:0.374331;stroke-linejoin:round;stroke-dasharray:none;stroke-dashoffset:0;stroke-opacity:1"
         d="m 556.19513,144.46279 -0.45532,-2.67901 c -0.24664,-1.45117 -2.90483,-1.35351 -3.18644,0.37284 l -0.40194,2.46403 c -0.34759,2.13083 4.40356,1.95946 4.0437,-0.15786 z"
         sodipodi:nodetypes="sssss" />
      <path
         id="path1-73-1-5-7-7"
         style="stroke:#ffffff;stroke-width:0.287201;stroke-linejoin:round;stroke-dasharray:none;stroke-dashoffset:0;stroke-opacity:1"
         d="m 556.82018,139.26895 c 0,2.21999 -1.20507,4.58879 -3.15384,4.58879 -1.94877,0 -3.10388,-2.3688 -3.10388,-4.58879 0,-2.22 1.15511,-3.45052 3.10388,-3.45052 1.94877,0 3.15384,1.23052 3.15384,3.45052 z"
         sodipodi:nodetypes="sssss" />
      <path
         id="rect1-7-8-30-8-6-6-5-4"
         style="stroke:#ffffff;stroke-width:0.313714;stroke-linejoin:round;stroke-dasharray:none;stroke-dashoffset:0;stroke-opacity:1"
         d="m 543.88706,155.92733 c 0.36592,0.84528 0.22564,1.80583 -0.38081,1.97656 l -7.04508,1.98327 c -0.60646,0.17072 -0.93717,0.11837 -1.3031,-0.7269 -0.36592,-0.84529 -0.17697,-1.25856 0.40264,-1.5039 l 6.62451,-2.80401 c 0.57961,-0.24533 1.33591,0.2297 1.70184,1.07498 z"
         sodipodi:nodetypes="sssssss"
         inkscape:transform-center-x="0.6365368"
         inkscape:transform-center-y="2.8354277" />
      <path
         id="rect1-7-8-5-1-8-52-7-5-7-4-8"
         style="stroke:#ffffff;stroke-width:0.374331;stroke-linejoin:round;stroke-dasharray:none;stroke-dashoffset:0;stroke-opacity:1"
         d="m 533.58097,157.93623 c 0.74452,-0.27735 1.95514,0.0604 1.84857,0.85414 -0.13165,0.98063 0.27625,1.87083 -0.66474,2.32373 -0.74649,0.35929 -1.84919,0.0457 -2.04893,-0.64533 -0.22236,-0.76944 0.1206,-2.25519 0.86512,-2.53254 z"
         sodipodi:nodetypes="sssss" />
      <path
         id="rect1-7-8-5-1-5-4-8-8-8-1-8-1"
         style="stroke:#ffffff;stroke-width:0.288532;stroke-linejoin:round;stroke-dasharray:none;stroke-dashoffset:0;stroke-opacity:1"
         d="m 533.54696,158.80222 c 0.5793,0.0678 0.99588,0.64198 0.93402,1.28733 l -0.0728,0.75969 c -0.0618,0.64537 -0.57806,1.11031 -1.15737,1.04249 -0.57932,-0.0678 -0.71393,-0.57759 -0.76069,-1.22455 -0.0711,-0.98267 -0.21978,-1.91959 1.05687,-1.86496 z"
         sodipodi:nodetypes="ssssss" />
      <path
         id="rect1-7-8-5-5-6-7-3-8-5-2-7-24"
         style="stroke:#ffffff;stroke-width:0.374331;stroke-linejoin:round;stroke-dasharray:none;stroke-dashoffset:0;stroke-opacity:1"
         d="m 534.13338,158.24731 c -0.089,-0.21755 -0.004,-0.45679 0.28122,-0.57356 l 1.62571,-0.66531 c 0.29337,-0.12006 0.60205,-0.0419 0.69108,0.17565 0.089,0.21755 -0.0763,0.48969 -0.36964,0.60976 l -1.6257,0.66531 c -0.22906,0.0937 -0.51361,0.005 -0.60265,-0.21185 z"
         sodipodi:nodetypes="sssssss" />
      <path
         id="rect1-7-8-3-2-6-6-1-0-4"
         style="stroke:#ffffff;stroke-width:0.317429;stroke-linejoin:round;stroke-dasharray:none;stroke-dashoffset:0;stroke-opacity:1"
         d="m 556.57643,157.26346 c -0.29979,-0.86985 -1.06971,-1.49247 -1.6407,-1.19114 l -6.87837,3.63003 c -0.57099,0.30133 -0.79316,0.55195 -0.49336,1.42179 0.2998,0.86985 0.73219,1.06109 1.33416,0.82935 l 7.11986,-2.74094 c 0.60196,-0.23174 0.85821,-1.07925 0.55841,-1.94909 z"
         sodipodi:nodetypes="sssssss"
         inkscape:transform-center-x="-0.92606682"
         inkscape:transform-center-y="2.5990417" />
      <path
         id="rect1-7-8-5-1-8-7-5-7-9-2-9-38"
         style="stroke:#ffffff;stroke-width:0.374331;stroke-linejoin:round;stroke-dasharray:none;stroke-dashoffset:0;stroke-opacity:1"
         d="m 548.89808,160.90777 c -0.007,-0.79447 -0.75546,-1.8043 -1.45867,-1.42093 -0.86872,0.47358 -1.84592,0.41096 -1.93238,1.45171 -0.0686,0.82561 0.6185,1.74328 1.33529,1.68272 0.79808,-0.0675 2.06297,-0.91903 2.05576,-1.7135 z"
         sodipodi:nodetypes="sssss" />
      <path
         id="rect1-7-8-5-5-6-7-7-5-4-9-4-6-55"
         style="stroke:#ffffff;stroke-width:0.374331;stroke-linejoin:round;stroke-dasharray:none;stroke-dashoffset:0;stroke-opacity:1"
         d="m 547.78331,159.7281 c 0.0544,-0.2287 -0.0664,-0.45195 -0.36634,-0.5233 l -1.70889,-0.40653 c -0.30838,-0.0733 -0.6013,0.0515 -0.65571,0.28017 -0.0543,0.22868 0.15094,0.47205 0.4593,0.54541 l 1.7089,0.40653 c 0.24077,0.0573 0.50834,-0.0736 0.56275,-0.30228 z"
         sodipodi:nodetypes="sssssss" />
      <path
         id="rect1-7-8-5-1-5-4-364-1-3-9-8-1-5"
         style="stroke:#ffffff;stroke-width:0.374331;stroke-linejoin:round;stroke-dasharray:none;stroke-dashoffset:0;stroke-opacity:1"
         d="m 547.32929,161.35472 c -0.15729,-0.77878 -0.91595,-1.27808 -1.70102,-1.11951 l -0.92418,0.18665 c -0.78507,0.15857 -1.29047,0.91318 -1.13318,1.69197 0.15731,0.77877 0.80086,0.90266 1.60178,0.89139 1.2165,-0.017 2.38673,0.0766 2.1566,-1.6505 z"
         sodipodi:nodetypes="ssssss" />
      <path
         id="path11-4-78-8"
         style="fill:#808080;stroke:none;stroke-width:0.0886796;stroke-linejoin:round;stroke-dasharray:none"
         d="m 538.97192,139.44536 v -1.89127 l -1.12986,-0.0122 1.75551,-2.23628 c 0.0427,0 1.61833,2.27302 1.61833,2.27302 l -1.11971,-0.0122 v 1.87902 z" />
      <path
         id="path11-4-78-8-0"
         style="fill:#808080;stroke:none;stroke-width:0.0886796;stroke-linejoin:round;stroke-dasharray:none"
         d="m 538.97192,162.7443 v -1.89127 l -1.12986,-0.0122 1.75551,-2.23628 c 0.0427,0 1.61833,2.27302 1.61833,2.27302 l -1.11971,-0.0122 v 1.87902 z" />
      <path
         id="path11-4-78-8-0-2"
         style="fill:#808080;stroke:none;stroke-width:0.0886796;stroke-linejoin:round;stroke-dasharray:none"
         d="m 538.97192,156.70126 v -1.89127 l -1.12986,-0.0122 1.75551,-2.23628 c 0.0427,0 1.61833,2.27302 1.61833,2.27302 l -1.11971,-0.0122 v 1.87902 z" />
      <path
         id="path11-4-78-8-0-2-7"
         style="fill:#808080;stroke:none;stroke-width:0.0886796;stroke-linejoin:round;stroke-dasharray:none"
         d="m 538.96753,151.19891 v -1.89127 l -1.12986,-0.0122 1.75551,-2.23628 c 0.0427,0 1.61833,2.27302 1.61833,2.27302 l -1.11971,-0.0122 v 1.87902 z" />
      <ellipse
         style="fill:#ffffff;stroke:#000000;stroke-width:0.386001;stroke-linejoin:round;stroke-dasharray:none"
         id="path23-9"
         cx="537.7832"
         cy="175.6749"
         rx="12.30108"
         ry="11.926902" />
      <g
         id="g6-1-1-4-56-8"
         transform="matrix(0.27830156,0,0,0.27830156,515.51028,134.20908)"
         style="stroke-width:1.38527;stroke-dasharray:none">
        <rect
           style="opacity:1;fill:#000000;stroke:#ffffff;stroke-width:1.38527;stroke-linejoin:round;stroke-dasharray:none"
           id="rect5-8-3-8-8-8"
           width="10.664055"
           height="10.785408"
           x="81.009392"
           y="159.09109" />
        <path
           id="rect5-9-6-4-2-38-2"
           style="fill:#000000;stroke:#ffffff;stroke-width:1.7424;stroke-linejoin:round;stroke-dasharray:none"
           transform="matrix(0.63208417,-0.77489973,0,1,0,0)"
           d="m 145.0336,271.4776 5.6318,-0.31314 1e-5,10.65467 -5.63181,0.44388 z"
           sodipodi:nodetypes="ccccc" />
        <rect
           style="fill:#000000;stroke:#ffffff;stroke-width:1.54808;stroke-linejoin:round;stroke-dasharray:none"
           id="rect5-9-1-3-5-4-4-0"
           width="5.8412356"
           height="10.785408"
           x="-198.68402"
           y="-210.75246"
           transform="matrix(0.59903324,-0.80072416,-1,0,0,0)" />
      </g>
      <g
         id="g6-1-1-4-7-7-6"
         transform="matrix(0.27830156,0,0,0.27830156,519.96793,134.20908)"
         style="stroke-width:1.38527;stroke-dasharray:none">
        <rect
           style="opacity:1;fill:#000000;stroke:#ffffff;stroke-width:1.38527;stroke-linejoin:round;stroke-dasharray:none"
           id="rect5-8-3-8-7-48-5"
           width="10.664055"
           height="10.785408"
           x="81.009392"
           y="159.09109" />
        <path
           id="rect5-9-6-4-2-4-9-6"
           style="fill:#000000;stroke:#ffffff;stroke-width:1.7424;stroke-linejoin:round;stroke-dasharray:none"
           transform="matrix(0.63208417,-0.77489973,0,1,0,0)"
           d="m 145.0336,271.4776 5.6318,-0.31314 1e-5,10.65467 -5.63181,0.44388 z"
           sodipodi:nodetypes="ccccc" />
        <rect
           style="fill:#000000;stroke:#ffffff;stroke-width:1.54808;stroke-linejoin:round;stroke-dasharray:none"
           id="rect5-9-1-3-5-4-6-6-0"
           width="5.8412356"
           height="10.785408"
           x="-198.68402"
           y="-210.75246"
           transform="matrix(0.59903324,-0.80072416,-1,0,0,0)" />
      </g>
      <g
         id="g6-1-1-4-6-11-8"
         transform="matrix(0.27830156,0,0,0.27830156,506.59497,134.20908)"
         style="stroke-width:1.38527;stroke-dasharray:none">
        <rect
           style="opacity:1;fill:#000000;stroke:#ffffff;stroke-width:1.38527;stroke-linejoin:round;stroke-dasharray:none"
           id="rect5-8-3-8-1-39-7"
           width="10.664055"
           height="10.785408"
           x="81.009392"
           y="159.09109" />
        <path
           id="rect5-9-6-4-2-3-3-98"
           style="fill:#000000;stroke:#ffffff;stroke-width:1.7424;stroke-linejoin:round;stroke-dasharray:none"
           transform="matrix(0.63208417,-0.77489973,0,1,0,0)"
           d="m 145.0336,271.4776 5.6318,-0.31314 1e-5,10.65467 -5.63181,0.44388 z"
           sodipodi:nodetypes="ccccc" />
        <rect
           style="fill:#000000;stroke:#ffffff;stroke-width:1.54808;stroke-linejoin:round;stroke-dasharray:none"
           id="rect5-9-1-3-5-4-3-0-3"
           width="5.8412356"
           height="10.785408"
           x="-198.68402"
           y="-210.75246"
           transform="matrix(0.59903324,-0.80072416,-1,0,0,0)" />
      </g>
      <g
         id="g6-1-1-4-7-3-5-7"
         transform="matrix(0.27830156,0,0,0.27830156,511.05262,134.20908)"
         style="stroke-width:1.38527;stroke-dasharray:none">
        <rect
           style="opacity:1;fill:#000000;stroke:#ffffff;stroke-width:1.38527;stroke-linejoin:round;stroke-dasharray:none"
           id="rect5-8-3-8-7-4-5-6"
           width="10.664055"
           height="10.785408"
           x="81.009392"
           y="159.09109" />
        <path
           id="rect5-9-6-4-2-4-5-4-6"
           style="fill:#000000;stroke:#ffffff;stroke-width:1.7424;stroke-linejoin:round;stroke-dasharray:none"
           transform="matrix(0.63208417,-0.77489973,0,1,0,0)"
           d="m 145.0336,271.4776 5.6318,-0.31314 1e-5,10.65467 -5.63181,0.44388 z"
           sodipodi:nodetypes="ccccc" />
        <rect
           style="fill:#000000;stroke:#ffffff;stroke-width:1.54808;stroke-linejoin:round;stroke-dasharray:none"
           id="rect5-9-1-3-5-4-6-0-82-2"
           width="5.8412356"
           height="10.785408"
           x="-198.68402"
           y="-210.75246"
           transform="matrix(0.59903324,-0.80072416,-1,0,0,0)" />
      </g>
      <g
         id="g6-1-1-4-5-3-1"
         transform="matrix(0.27830156,0,0,0.27830156,518.57289,128.93597)"
         style="stroke-width:1.38527;stroke-dasharray:none">
        <rect
           style="opacity:1;fill:#000000;stroke:#ffffff;stroke-width:1.38527;stroke-linejoin:round;stroke-dasharray:none"
           id="rect5-8-3-8-72-6-2"
           width="10.664055"
           height="10.785408"
           x="81.009392"
           y="159.09109" />
        <path
           id="rect5-9-6-4-2-0-3-9"
           style="fill:#000000;stroke:#ffffff;stroke-width:1.7424;stroke-linejoin:round;stroke-dasharray:none"
           transform="matrix(0.63208417,-0.77489973,0,1,0,0)"
           d="m 145.0336,271.4776 5.6318,-0.31314 1e-5,10.65467 -5.63181,0.44388 z"
           sodipodi:nodetypes="ccccc" />
        <rect
           style="fill:#000000;stroke:#ffffff;stroke-width:1.54808;stroke-linejoin:round;stroke-dasharray:none"
           id="rect5-9-1-3-5-4-65-4-1"
           width="5.8412356"
           height="10.785408"
           x="-198.68402"
           y="-210.75246"
           transform="matrix(0.59903324,-0.80072416,-1,0,0,0)" />
      </g>
      <g
         id="g6-1-1-4-6-1-18-8"
         transform="matrix(0.27830156,0,0,0.27830156,509.65758,128.93597)"
         style="stroke-width:1.38527;stroke-dasharray:none">
        <rect
           style="opacity:1;fill:#000000;stroke:#ffffff;stroke-width:1.38527;stroke-linejoin:round;stroke-dasharray:none"
           id="rect5-8-3-8-1-3-8-8"
           width="10.664055"
           height="10.785408"
           x="81.009392"
           y="159.09109" />
        <path
           id="rect5-9-6-4-2-3-8-52-0"
           style="fill:#000000;stroke:#ffffff;stroke-width:1.7424;stroke-linejoin:round;stroke-dasharray:none"
           transform="matrix(0.63208417,-0.77489973,0,1,0,0)"
           d="m 145.0336,271.4776 5.6318,-0.31314 1e-5,10.65467 -5.63181,0.44388 z"
           sodipodi:nodetypes="ccccc" />
        <rect
           style="fill:#000000;stroke:#ffffff;stroke-width:1.54808;stroke-linejoin:round;stroke-dasharray:none"
           id="rect5-9-1-3-5-4-3-2-6-0"
           width="5.8412356"
           height="10.785408"
           x="-198.68402"
           y="-210.75246"
           transform="matrix(0.59903324,-0.80072416,-1,0,0,0)" />
      </g>
      <g
         id="g6-1-1-4-7-3-2-3-7"
         transform="matrix(0.27830156,0,0,0.27830156,514.11523,128.93597)"
         style="stroke-width:1.38527;stroke-dasharray:none">
        <rect
           style="opacity:1;fill:#000000;stroke:#ffffff;stroke-width:1.38527;stroke-linejoin:round;stroke-dasharray:none"
           id="rect5-8-3-8-7-4-6-7-7"
           width="10.664055"
           height="10.785408"
           x="81.009392"
           y="159.09109" />
        <path
           id="rect5-9-6-4-2-4-5-2-6-7"
           style="fill:#000000;stroke:#ffffff;stroke-width:1.7424;stroke-linejoin:round;stroke-dasharray:none"
           transform="matrix(0.63208417,-0.77489973,0,1,0,0)"
           d="m 145.0336,271.4776 5.6318,-0.31314 1e-5,10.65467 -5.63181,0.44388 z"
           sodipodi:nodetypes="ccccc" />
        <rect
           style="fill:#000000;stroke:#ffffff;stroke-width:1.54808;stroke-linejoin:round;stroke-dasharray:none"
           id="rect5-9-1-3-5-4-6-0-8-70-2"
           width="5.8412356"
           height="10.785408"
           x="-198.68402"
           y="-210.75246"
           transform="matrix(0.59903324,-0.80072416,-1,0,0,0)" />
      </g>
      <g
         id="g6-1-1-4-6-1-1-6-1"
         transform="matrix(0.27830156,0,0,0.27830156,512.2424,123.52863)"
         style="stroke-width:1.38527;stroke-dasharray:none">
        <rect
           style="opacity:1;fill:#000000;stroke:#ffffff;stroke-width:1.38527;stroke-linejoin:round;stroke-dasharray:none"
           id="rect5-8-3-8-1-3-7-3-6"
           width="10.664055"
           height="10.785408"
           x="81.009392"
           y="159.09109" />
        <path
           id="rect5-9-6-4-2-3-8-5-8-2"
           style="fill:#000000;stroke:#ffffff;stroke-width:1.7424;stroke-linejoin:round;stroke-dasharray:none"
           transform="matrix(0.63208417,-0.77489973,0,1,0,0)"
           d="m 145.0336,271.4776 5.6318,-0.31314 1e-5,10.65467 -5.63181,0.44388 z"
           sodipodi:nodetypes="ccccc" />
        <rect
           style="fill:#000000;stroke:#ffffff;stroke-width:1.54808;stroke-linejoin:round;stroke-dasharray:none"
           id="rect5-9-1-3-5-4-3-2-3-7-4"
           width="5.8412356"
           height="10.785408"
           x="-198.68402"
           y="-210.75246"
           transform="matrix(0.59903324,-0.80072416,-1,0,0,0)" />
      </g>
      <g
         id="g6-1-1-4-7-3-2-4-3-9"
         transform="matrix(0.27830156,0,0,0.27830156,516.70005,123.52863)"
         style="stroke-width:1.38527;stroke-dasharray:none">
        <rect
           style="opacity:1;fill:#000000;stroke:#ffffff;stroke-width:1.38527;stroke-linejoin:round;stroke-dasharray:none"
           id="rect5-8-3-8-7-4-6-0-9-5"
           width="10.664055"
           height="10.785408"
           x="81.009392"
           y="159.09109" />
        <path
           id="rect5-9-6-4-2-4-5-2-3-7-3"
           style="fill:#000000;stroke:#ffffff;stroke-width:1.7424;stroke-linejoin:round;stroke-dasharray:none"
           transform="matrix(0.63208417,-0.77489973,0,1,0,0)"
           d="m 145.0336,271.4776 5.6318,-0.31314 1e-5,10.65467 -5.63181,0.44388 z"
           sodipodi:nodetypes="ccccc" />
        <rect
           style="fill:#000000;stroke:#ffffff;stroke-width:1.54808;stroke-linejoin:round;stroke-dasharray:none"
           id="rect5-9-1-3-5-4-6-0-8-7-5-4"
           width="5.8412356"
           height="10.785408"
           x="-198.68402"
           y="-210.75246"
           transform="matrix(0.59903324,-0.80072416,-1,0,0,0)" />
      </g>
      <path
         style="opacity:1;fill:none;stroke:#000000;stroke-width:0.488;stroke-linejoin:round;stroke-dasharray:none"
         d="m 539.28309,145.55127 c -1.31411,-9.11221 -8.07651,-15.66791 -17.63056,-12.12039"
         id="path31"
         sodipodi:nodetypes="cc" />
      <g
         id="g6-1-1-4-6-5-7-3-9"
         transform="matrix(-0.27830156,0,0,0.27830156,586.11949,89.080451)"
         style="stroke-width:1.38527;stroke-dasharray:none">
        <rect
           style="opacity:1;fill:#000000;stroke:#ffffff;stroke-width:1.38527;stroke-linejoin:round;stroke-dasharray:none"
           id="rect5-8-3-8-1-5-0-4-2"
           width="10.664055"
           height="10.785408"
           x="81.009392"
           y="159.09109" />
        <path
           id="rect5-9-6-4-2-3-4-2-3-2"
           style="fill:#000000;stroke:#ffffff;stroke-width:1.7424;stroke-linejoin:round;stroke-dasharray:none"
           transform="matrix(0.63208417,-0.77489973,0,1,0,0)"
           d="m 145.0336,271.4776 5.6318,-0.31314 1e-5,10.65467 -5.63181,0.44388 z"
           sodipodi:nodetypes="ccccc" />
        <rect
           style="fill:#000000;stroke:#ffffff;stroke-width:1.54808;stroke-linejoin:round;stroke-dasharray:none"
           id="rect5-9-1-3-5-4-3-07-9-3-9"
           width="5.8412356"
           height="10.785408"
           x="-198.68402"
           y="-210.75246"
           transform="matrix(0.59903324,-0.80072416,-1,0,0,0)" />
      </g>
      <path
         style="fill:none;stroke:#000000;stroke-width:0.488;stroke-linejoin:round;stroke-dasharray:none"
         d="m 540.12799,145.55127 c 1.31411,-9.11221 8.07651,-15.66791 17.63056,-12.12039"
         id="path31-9"
         sodipodi:nodetypes="cc" />
    </g>
  </g>
</svg>
