<?xml version="1.0" encoding="UTF-8" standalone="no"?>
<!-- Created with Inkscape (http://www.inkscape.org/) -->

<svg
   width="62.143559mm"
   height="78.973991mm"
   viewBox="0 0 62.143559 78.973991"
   version="1.1"
   id="svg1"
   xmlns:inkscape="http://www.inkscape.org/namespaces/inkscape"
   xmlns:sodipodi="http://sodipodi.sourceforge.net/DTD/sodipodi-0.dtd"
   xmlns="http://www.w3.org/2000/svg"
   xmlns:svg="http://www.w3.org/2000/svg">
  <sodipodi:namedview
     id="namedview1"
     pagecolor="#ffffff"
     bordercolor="#000000"
     borderopacity="0.25"
     inkscape:showpageshadow="2"
     inkscape:pageopacity="0.0"
     inkscape:pagecheckerboard="0"
     inkscape:deskcolor="#d1d1d1"
     inkscape:document-units="mm" />
  <defs
     id="defs1" />
  <g
     inkscape:label="Layer 1"
     inkscape:groupmode="layer"
     id="layer1"
     transform="translate(736.93294,-2179.6208)">
    <g
       id="g29"
       transform="translate(-950.55856,1773.7988)">
      <g
         id="g6-1-1-4-6-9-1"
         transform="matrix(0.65688778,0,0,0.65688778,174.89861,340.37065)"
         style="stroke-width:0.435386;stroke-dasharray:none">
        <rect
           style="opacity:1;fill:#000000;stroke:#ffffff;stroke-width:0.435386;stroke-linejoin:round;stroke-dasharray:none"
           id="rect5-8-3-8-1-8-2"
           width="10.664055"
           height="10.785408"
           x="81.009392"
           y="159.09109" />
        <path
           id="rect5-9-6-4-2-3-0-7"
           style="fill:#000000;stroke:#ffffff;stroke-width:0.54763;stroke-linejoin:round;stroke-dasharray:none"
           transform="matrix(0.63208417,-0.77489973,0,1,0,0)"
           d="m 145.0336,271.4776 5.6318,-0.31314 1e-5,10.65467 -5.63181,0.44388 z"
           sodipodi:nodetypes="ccccc" />
        <rect
           style="fill:#000000;stroke:#ffffff;stroke-width:0.486557;stroke-linejoin:round;stroke-dasharray:none"
           id="rect5-9-1-3-5-4-3-5-1"
           width="5.8412356"
           height="10.785408"
           x="-198.68402"
           y="-210.75246"
           transform="matrix(0.59903324,-0.80072416,-1,0,0,0)" />
      </g>
      <path
         id="rect1-7-2-76-1-7-2-6-7"
         style="stroke:#ffffff;stroke-width:0.374331;stroke-linejoin:round;stroke-dasharray:none;stroke-dashoffset:0;stroke-opacity:1"
         d="m 268.89984,416.51425 c -0.90432,3e-5 -2.45719,1.29621 -1.95343,2.05597 l 5.09563,7.68521 c 0.50377,0.75978 0.98028,1.59948 1.88426,1.57519 0.904,-0.0243 1.99295,-0.86943 1.55796,-1.67059 l -4.28716,-7.89595 c -0.31031,-0.57152 -1.05487,-1.53232 -1.52954,-1.85604 -0.19073,-0.13007 0.0226,0.10618 -0.22986,0.10619 z"
         sodipodi:nodetypes="sssssssss"
         inkscape:transform-center-x="-2.0101285"
         inkscape:transform-center-y="3.8567855" />
      <path
         id="rect1-7-3-7-0-3-9-3"
         style="stroke:#ffffff;stroke-width:0.374331;stroke-linejoin:round;stroke-dasharray:none;stroke-dashoffset:0;stroke-opacity:1"
         d="m 261.00707,415.47286 c 0.8248,0.37078 1.57978,1.93826 1.01015,2.65 l -7.24775,9.05606 c -0.56962,0.71175 -1.52097,1.09813 -2.34577,0.72733 -0.8248,-0.37079 -1.31073,-1.39107 -0.79378,-2.14196 l 6.58297,-9.5621 c 0.51694,-0.75089 1.96939,-1.10012 2.79418,-0.72933 z"
         sodipodi:nodetypes="sssssss"
         inkscape:transform-center-x="2.840698"
         inkscape:transform-center-y="4.6739625" />
      <path
         id="rect1-9-4-4-31-7-1-4-3"
         style="stroke:#ffffff;stroke-width:0.387927;stroke-linejoin:round;stroke-dasharray:none;stroke-dashoffset:0;stroke-opacity:1"
         d="m 265.57758,452.15856 1.60066,-0.18679 c 0.90456,-0.10555 1.83601,0.58757 1.83781,1.56661 l 0.0257,13.99861 c 0.002,0.97906 0.1686,1.62841 -0.73595,1.73396 l -0.72155,0.0842 c -0.90455,0.10555 -1.7242,-0.59316 -1.8378,-1.56662 l -1.5966,-13.6823 c -0.1136,-0.97345 0.52316,-1.84212 1.42771,-1.94767 z"
         sodipodi:nodetypes="sssssssss" />
      <path
         id="rect1-9-1-95-4-0-1-8"
         style="stroke:#ffffff;stroke-width:0.387927;stroke-linejoin:round;stroke-dasharray:none;stroke-dashoffset:0;stroke-opacity:1"
         d="m 256.62262,450.44147 h 1.61153 c 0.91068,0 1.68037,0.78979 1.64383,1.76907 l -0.51391,13.77514 c -0.0365,0.97927 -0.73315,1.76907 -1.64384,1.76907 h -0.61225 c -0.91069,0 -0.87342,-0.7931 -0.95651,-1.76907 l -1.1727,-13.77514 c -0.0831,-0.97598 0.73316,-1.76907 1.64385,-1.76907 z"
         sodipodi:nodetypes="sssssssss" />
      <path
         id="rect1-9-69-4-8-4-7"
         style="stroke:#ffffff;stroke-width:0.359059;stroke-linejoin:round;stroke-dasharray:none;stroke-dashoffset:0;stroke-opacity:1"
         d="m 260.11118,437.01295 2.54141,0.66485 c 0.88295,0.23095 2.28297,1.40433 1.96943,2.18267 l -4.77553,11.85505 c -0.31352,0.77834 -1.07539,1.29243 -1.96153,1.07395 l -1.56809,-0.3866 c -0.88613,-0.21848 -1.43475,-1.04841 -1.23752,-1.86266 l 3.01579,-12.45028 c 0.19755,-0.81417 1.13308,-1.30793 2.01603,-1.07696 z"
         sodipodi:nodetypes="ssssssssss" />
      <path
         id="rect1-9-4-41-7-6-1-1"
         style="stroke:#ffffff;stroke-width:0.359059;stroke-linejoin:round;stroke-dasharray:none;stroke-dashoffset:0;stroke-opacity:1"
         d="m 265.72589,437.53367 2.73139,0.3113 c 0.90675,0.10334 1.63432,0.86672 1.55857,1.70109 l -1.1552,12.72605 c -0.0754,0.8344 -0.86256,1.4432 -1.77184,1.3644 l -1.609,-0.13943 c -0.90927,-0.0788 -1.45037,-0.81158 -1.51072,-1.64885 L 263.0266,438.7724 c -0.0604,-0.83728 1.79253,-1.34203 2.69928,-1.23869 z"
         sodipodi:nodetypes="sssssssss" />
      <path
         id="rect1-0-0-2-5-8"
         style="stroke:none;stroke-width:0.351231;stroke-linejoin:round;stroke-dasharray:none;stroke-dashoffset:0;stroke-opacity:1"
         d="m 259.75179,414.99128 c 3.74019,-1.01083 6.16808,0.4451 8.66893,1.08341 0.78307,0.19987 1.45566,0.32806 1.40044,1.23752 -0.37491,6.17475 -2.03724,12.63188 -0.36775,18.40142 0.47169,1.63011 0.30057,3.07486 0.36775,4.56138 0.0411,0.91042 -0.66528,1.47127 -1.44872,1.64553 l -5.9476,1.32292 c -0.78345,0.17426 -4.16479,-2.05771 -4.12762,-2.96845 0.0705,-1.72878 -0.0204,-3.32163 0.38849,-5.4099 1.10517,-5.64368 0.25132,-11.62948 -0.38849,-17.5529 -0.0977,-0.90484 0.66845,-2.10847 1.45457,-2.32093 z"
         sodipodi:nodetypes="sssssssssss" />
      <path
         id="rect1-7-8-5-1-5-4-34-31-3-6-5-5"
         style="stroke:#ffffff;stroke-width:0.453133;stroke-linejoin:round;stroke-dasharray:none;stroke-dashoffset:0;stroke-opacity:1"
         d="m 258.61741,466.11698 c -0.62285,-0.69964 -2.00014,-1.04147 -3.08805,-0.76643 l -1.28068,0.32376 c -1.08793,0.27503 -1.46233,1.05971 -0.83947,1.75934 0.62284,0.69964 1.64147,0.71058 2.82652,0.57013 1.80001,-0.21327 3.58653,-0.31588 2.38168,-1.8868 z"
         sodipodi:nodetypes="ssssss" />
      <path
         id="rect1-7-8-5-1-5-4-34-0-1-3-9-6-4"
         style="stroke:#ffffff;stroke-width:0.419911;stroke-linejoin:round;stroke-dasharray:none;stroke-dashoffset:0;stroke-opacity:1"
         d="m 268.26852,467.97656 c -0.72948,-0.58339 -2.13739,-0.82566 -3.15673,-0.54319 l -1.19996,0.33251 c -1.01936,0.28247 -1.2527,0.97955 -0.52323,1.56294 0.72947,0.58341 1.72961,0.55231 2.86704,0.38298 1.7277,-0.25716 3.46101,-0.4176 2.01288,-1.73524 z"
         sodipodi:nodetypes="ssssss" />
      <path
         id="rect1-7-5-6-7-4-6-3"
         style="stroke:#ffffff;stroke-width:0.374331;stroke-linejoin:round;stroke-dasharray:none;stroke-dashoffset:0;stroke-opacity:1"
         d="m 266.18673,414.60983 -0.45532,-2.67901 c -0.24664,-1.45117 -2.90483,-1.35351 -3.18644,0.37284 l -0.40194,2.46403 c -0.34759,2.13083 4.40356,1.95946 4.0437,-0.15786 z"
         sodipodi:nodetypes="sssss" />
      <path
         id="path1-73-1-5-7-3"
         style="stroke:#ffffff;stroke-width:0.287201;stroke-linejoin:round;stroke-dasharray:none;stroke-dashoffset:0;stroke-opacity:1"
         d="m 266.81178,409.41599 c 0,2.21999 -1.20507,4.58879 -3.15384,4.58879 -1.94877,0 -3.10388,-2.3688 -3.10388,-4.58879 0,-2.22 1.15511,-3.45052 3.10388,-3.45052 1.94877,0 3.15384,1.23052 3.15384,3.45052 z"
         sodipodi:nodetypes="sssss" />
      <path
         id="rect1-7-8-30-8-6-6-5-6"
         style="stroke:#ffffff;stroke-width:0.313714;stroke-linejoin:round;stroke-dasharray:none;stroke-dashoffset:0;stroke-opacity:1"
         d="m 253.87866,426.07437 c 0.36592,0.84528 0.22564,1.80583 -0.38081,1.97656 l -7.04508,1.98327 c -0.60646,0.17072 -0.93717,0.11837 -1.3031,-0.7269 -0.36592,-0.84529 -0.17697,-1.25856 0.40264,-1.5039 l 6.62451,-2.80401 c 0.57961,-0.24533 1.33591,0.2297 1.70184,1.07498 z"
         sodipodi:nodetypes="sssssss"
         inkscape:transform-center-x="0.6365368"
         inkscape:transform-center-y="2.8354277" />
      <path
         id="rect1-7-8-5-1-8-52-7-5-7-4-5"
         style="stroke:#ffffff;stroke-width:0.374331;stroke-linejoin:round;stroke-dasharray:none;stroke-dashoffset:0;stroke-opacity:1"
         d="m 243.57257,428.08327 c 0.74452,-0.27735 1.95514,0.0604 1.84857,0.85414 -0.13165,0.98063 0.27625,1.87083 -0.66474,2.32373 -0.74649,0.35929 -1.84919,0.0457 -2.04893,-0.64533 -0.22236,-0.76944 0.1206,-2.25519 0.86512,-2.53254 z"
         sodipodi:nodetypes="sssss" />
      <path
         id="rect1-7-8-5-1-5-4-8-8-8-1-8-2"
         style="stroke:#ffffff;stroke-width:0.288532;stroke-linejoin:round;stroke-dasharray:none;stroke-dashoffset:0;stroke-opacity:1"
         d="m 243.53856,428.94926 c 0.5793,0.0678 0.99588,0.64198 0.93402,1.28733 l -0.0728,0.75969 c -0.0618,0.64537 -0.57806,1.11031 -1.15737,1.04249 -0.57932,-0.0678 -0.71393,-0.57759 -0.76069,-1.22455 -0.0711,-0.98267 -0.21978,-1.91959 1.05687,-1.86496 z"
         sodipodi:nodetypes="ssssss" />
      <path
         id="rect1-7-8-5-5-6-7-3-8-5-2-7-2"
         style="stroke:#ffffff;stroke-width:0.374331;stroke-linejoin:round;stroke-dasharray:none;stroke-dashoffset:0;stroke-opacity:1"
         d="m 242.53473,429.21286 c -0.089,-0.21755 -0.004,-0.45679 0.28122,-0.57356 l 1.62571,-0.66531 c 0.29337,-0.12006 0.60205,-0.0419 0.69108,0.17565 0.089,0.21755 -0.0763,0.48969 -0.36964,0.60976 l -1.6257,0.66531 c -0.22906,0.0937 -0.51361,0.005 -0.60265,-0.21185 z"
         sodipodi:nodetypes="sssssss" />
      <path
         id="rect1-7-8-3-2-6-6-1-0-0"
         style="stroke:#ffffff;stroke-width:0.317429;stroke-linejoin:round;stroke-dasharray:none;stroke-dashoffset:0;stroke-opacity:1"
         d="m 274.89348,426.84924 c -0.29979,-0.86985 -1.06971,-1.49247 -1.6407,-1.19114 l -6.87837,3.63003 c -0.57099,0.30133 -0.79316,0.55195 -0.49336,1.42179 0.2998,0.86985 0.73219,1.06109 1.33416,0.82935 l 7.11986,-2.74094 c 0.60196,-0.23174 0.85821,-1.07925 0.55841,-1.94909 z"
         sodipodi:nodetypes="sssssss"
         inkscape:transform-center-x="-0.92606682"
         inkscape:transform-center-y="2.5990417" />
      <path
         id="rect1-7-8-5-1-8-7-5-7-9-2-9-8"
         style="stroke:#ffffff;stroke-width:0.374331;stroke-linejoin:round;stroke-dasharray:none;stroke-dashoffset:0;stroke-opacity:1"
         d="m 267.21513,430.49355 c -0.007,-0.79447 -0.75546,-1.8043 -1.45867,-1.42093 -0.86872,0.47358 -1.84592,0.41096 -1.93238,1.45171 -0.0686,0.82561 0.6185,1.74328 1.33529,1.68272 0.79808,-0.0675 2.06297,-0.91903 2.05576,-1.7135 z"
         sodipodi:nodetypes="sssss" />
      <path
         id="rect1-7-8-5-5-6-7-7-5-4-9-4-6-1"
         style="stroke:#ffffff;stroke-width:0.374331;stroke-linejoin:round;stroke-dasharray:none;stroke-dashoffset:0;stroke-opacity:1"
         d="m 266.10036,429.31388 c 0.0544,-0.2287 -0.0664,-0.45195 -0.36634,-0.5233 l -1.70889,-0.40653 c -0.30838,-0.0733 -0.6013,0.0515 -0.65571,0.28017 -0.0543,0.22868 0.15094,0.47205 0.4593,0.54541 l 1.7089,0.40653 c 0.24077,0.0573 0.50834,-0.0736 0.56275,-0.30228 z"
         sodipodi:nodetypes="sssssss" />
      <path
         id="rect1-7-8-5-1-5-4-364-1-3-9-8-1-8"
         style="stroke:#ffffff;stroke-width:0.374331;stroke-linejoin:round;stroke-dasharray:none;stroke-dashoffset:0;stroke-opacity:1"
         d="m 265.64634,430.9405 c -0.15729,-0.77878 -0.91595,-1.27808 -1.70102,-1.11951 l -0.92418,0.18665 c -0.78507,0.15857 -1.29047,0.91318 -1.13318,1.69197 0.15731,0.77877 0.80086,0.90266 1.60178,0.89139 1.2165,-0.017 2.38673,0.0766 2.1566,-1.6505 z"
         sodipodi:nodetypes="ssssss" />
      <path
         style="fill:#121212;stroke:#ffffff;stroke-width:0.237715;stroke-dasharray:none"
         d="m 236.12535,448.31621 0.0449,0.0442 1.73503,10e-4 0.0985,-0.87703 -1.81208,0.0115 -0.0662,0.82029 m 4.7628,0.0632 c -0.50648,-0.0725 -1.33207,0.21323 -1.779,-0.0612 -0.25248,-0.15501 -0.15263,-0.55181 -0.0618,-0.77892 0.34629,-0.86528 0.9432,-1.1041 1.6638,-1.2127 0.0862,-0.2009 0.17755,-0.61164 0.33399,-0.83147 -1.28565,-0.56493 -3.23939,1.36442 -2.97704,2.7789 0.30382,1.63814 2.16492,1.07687 2.81999,0.10534 m 2.28639,-1.99859 c -0.32839,0.29066 -0.6119,0.60918 -1.18336,0.78341 -0.77761,0.23708 -1.92416,0.0954 -2.71891,0.21148 -0.11783,0.25633 -0.2913,0.55918 -0.0933,0.83319 0.23554,0.15773 1.08877,0.0352 1.32764,0.0225 1.62164,-0.0863 2.68535,-0.42544 3.65312,-1.86099 m -3.61778,0.78224 c 0.26086,0.0374 0.62948,0.0152 0.89949,-0.0131 0.21296,-0.38395 0.4123,-1.43242 0.87206,-1.83652 0.36418,-0.28598 0.70615,-0.22756 0.92083,-0.0585 0.31669,-0.003 0.65768,-0.0209 0.91253,-0.0299 -0.0992,-0.97622 -1.51224,-1.14769 -2.15236,-0.77034 -0.88197,0.51993 -1.10686,1.78074 -1.45257,2.70753 m 1.39325,-0.92915 4.14829,-0.0623 0.0123,-0.87356 -3.64016,0.1005"
         id="path18"
         sodipodi:nodetypes="cccccccssccsccsccsccccccsccccc" />
      <g
         id="g6-1-1-4-6-9-1-6"
         transform="matrix(0.65688778,0,0,0.65688778,192.24242,340.37065)"
         style="stroke-width:0.435386;stroke-dasharray:none">
        <rect
           style="opacity:1;fill:#000000;stroke:#ffffff;stroke-width:0.435386;stroke-linejoin:round;stroke-dasharray:none"
           id="rect5-8-3-8-1-8-2-2"
           width="10.664055"
           height="10.785408"
           x="81.009392"
           y="159.09109" />
        <path
           id="rect5-9-6-4-2-3-0-7-7"
           style="fill:#000000;stroke:#ffffff;stroke-width:0.54763;stroke-linejoin:round;stroke-dasharray:none"
           transform="matrix(0.63208417,-0.77489973,0,1,0,0)"
           d="m 145.0336,271.4776 5.6318,-0.31314 1e-5,10.65467 -5.63181,0.44388 z"
           sodipodi:nodetypes="ccccc" />
        <rect
           style="fill:#000000;stroke:#ffffff;stroke-width:0.486557;stroke-linejoin:round;stroke-dasharray:none"
           id="rect5-9-1-3-5-4-3-5-1-4"
           width="5.8412356"
           height="10.785408"
           x="-198.68402"
           y="-210.75246"
           transform="matrix(0.59903324,-0.80072416,-1,0,0,0)" />
      </g>
      <path
         id="path1-73-1-5-7-3-7-0-4-1-5-4"
         style="stroke:#ffffff;stroke-width:0.287201;stroke-linejoin:round;stroke-dasharray:none;stroke-dashoffset:0;stroke-opacity:1"
         d="m 224.2286,423.66568 c 0.0914,2.2181 0.0649,4.7443 -1.81289,5.2658 -1.87761,0.5214 -3.62356,-1.4521 -4.21663,-3.5914 -0.59316,-2.1393 0.1202,-4.1313 2.06879,-4.1556 2.42579,-0.03 3.86014,0.041 3.96073,2.4812 z"
         sodipodi:nodetypes="sssss" />
      <path
         id="rect1-7-8-5-1-5-4-34-0-1-3-9-6-4-0-6-7-3-8-9"
         style="stroke:#ffffff;stroke-width:0.419911;stroke-linejoin:round;stroke-dasharray:none;stroke-dashoffset:0;stroke-opacity:1"
         d="m 217.44963,479.27982 c 0.49718,-0.7907 1.74722,-1.4823 2.80278,-1.5506 l 1.24257,-0.08 c 1.05555,-0.068 1.50506,0.5133 1.00788,1.3041 -0.49718,0.7908 -1.45197,1.0901 -2.58184,1.3041 -1.71625,0.325 -3.40597,0.7432 -2.47139,-0.9772 z"
         sodipodi:nodetypes="ssssss" />
      <path
         id="rect1-9-4-41-7-6-1-1-5-8-1-3-6-5"
         style="stroke:#ffffff;stroke-width:0.359059;stroke-linejoin:round;stroke-dasharray:none;stroke-dashoffset:0;stroke-opacity:1"
         d="m 221.01475,452.26702 -2.73139,0.3113 c -0.90675,0.1033 -1.63432,0.8667 -1.55857,1.7011 l 1.1552,12.726 c 0.0754,0.8344 0.86256,1.4432 1.77184,1.3644 l 1.609,-0.1394 c 0.90927,-0.079 1.45037,-0.8116 1.51072,-1.6489 l 0.94249,-13.0758 c 0.0604,-0.8373 -1.79253,-1.342 -2.69928,-1.2387 z"
         sodipodi:nodetypes="sssssssss" />
      <path
         id="rect1-7-8-5-5-6-7-3-8-5-1-5-2-2-98"
         style="stroke:#ffffff;stroke-width:0.374331;stroke-linejoin:round;stroke-dasharray:none;stroke-dashoffset:0;stroke-opacity:1"
         d="m 216.34929,446.11685 c 0.22197,-0.0772 0.4564,0.0204 0.55764,0.31157 l 0.57743,1.659 c 0.10452,0.29924 0.01,0.60339 -0.21246,0.68063 -0.22201,0.0773 -0.48488,-0.10232 -0.58906,-0.40173 l -0.57734,-1.65894 c -0.0814,-0.23376 0.0213,-0.51315 0.24376,-0.5905 z"
         sodipodi:nodetypes="sssssss" />
      <path
         id="rect1-7-3-7-0-3-9-3-9-7-1-2-3-8"
         style="stroke:#ffffff;stroke-width:0.374331;stroke-linejoin:round;stroke-dasharray:none;stroke-dashoffset:0;stroke-opacity:1"
         d="m 218.88848,430.22535 c -0.81652,-0.38863 -2.45732,0.0602 -2.67363,0.94579 l -1.71808,7.03486 c -0.21618,0.88561 0.14787,1.8702 0.96444,2.25873 0.8166,0.38853 1.83026,0.0733 2.14641,-0.7818 l 2.53405,-6.85582 c 0.31607,-0.85513 -0.4369,-2.21316 -1.25321,-2.60175 z"
         sodipodi:nodetypes="ssssssss"
         inkscape:transform-center-x="1.5631541"
         inkscape:transform-center-y="5.2629149" />
      <path
         id="rect1-7-8-30-8-6-6-5-6-4-9-9-6-1-10"
         style="stroke:#ffffff;stroke-width:0.313714;stroke-linejoin:round;stroke-dasharray:none;stroke-dashoffset:0;stroke-opacity:1"
         d="m 216.42554,437.24066 c -0.90626,-0.16453 -1.80987,0.19015 -1.83854,0.81946 l -0.33266,7.31131 c -0.0286,0.62941 0.0977,0.93958 1.00367,1.10417 0.90626,0.16453 1.26585,-0.11326 1.37328,-0.73345 l 1.22745,-7.08795 c 0.10737,-0.62022 -0.52697,-1.24897 -1.43322,-1.41352 z"
         sodipodi:nodetypes="sssssss"
         inkscape:transform-center-x="0.67240324"
         inkscape:transform-center-y="3.6525397" />
      <path
         id="rect1-7-2-76-1-7-2-6-7-2-5-0-5-1-1"
         style="stroke:#ffffff;stroke-width:0.374331;stroke-linejoin:round;stroke-dasharray:none;stroke-dashoffset:0;stroke-opacity:1"
         d="m 222.25559,432.15858 c -0.38349,-0.8191 0.47326,-1.9847 1.36335,-1.7884 l 9.2227,2.0356 c 0.89031,0.1957 1.86422,0.2097 2.22567,1.0383 0.36135,0.829 0.0595,2.1218 -0.85217,2.1194 l -8.858,-0.023 c -0.87553,-0.2296 -2.35894,-1.8765 -3.10154,-3.3822 z"
         sodipodi:nodetypes="csssscc"
         inkscape:transform-center-x="-5.5466797"
         inkscape:transform-center-y="0.85540272" />
      <path
         id="rect1-9-4-4-31-7-1-4-3-0-5-7-9-6-6"
         style="stroke:#ffffff;stroke-width:0.387927;stroke-linejoin:round;stroke-dasharray:none;stroke-dashoffset:0;stroke-opacity:1"
         d="m 221.06619,464.90752 -1.60066,-0.1868 c -0.90456,-0.1056 -1.80048,0.5882 -1.83781,1.5666 l -0.44665,11.7068 c -0.0373,0.9783 -0.16862,1.6286 0.73595,1.7339 l 0.72155,0.084 c 0.90458,0.1053 1.66686,-0.6016 1.8378,-1.5666 l 2.01755,-11.3905 c 0.17092,-0.965 -0.52316,-1.8421 -1.42771,-1.9476 z"
         sodipodi:nodetypes="ssssssssss" />
      <path
         id="rect1-7-8-5-1-5-4-34-31-3-6-5-5-8-2-4-6-4-55"
         style="stroke:#ffffff;stroke-width:0.453133;stroke-linejoin:round;stroke-dasharray:none;stroke-dashoffset:0;stroke-opacity:1"
         d="m 226.57162,483.27802 c 0.27136,-0.8965 1.37763,-1.7854 2.48046,-1.9927 l 1.29818,-0.2442 c 1.10285,-0.2074 1.7722,0.3474 1.50088,1.244 -0.27135,0.8965 -1.19114,1.3344 -2.32558,1.7047 -1.7231,0.5625 -3.38746,1.2199 -2.95394,-0.7118 z"
         sodipodi:nodetypes="ssssss" />
      <path
         id="rect1-7-8-3-2-6-6-1-0-0-7-4-5-1-6-85"
         style="stroke:#ffffff;stroke-width:0.317429;stroke-linejoin:round;stroke-dasharray:none;stroke-dashoffset:0;stroke-opacity:1"
         d="m 233.73595,434.67568 c -0.35951,-0.8469 -0.2042,-1.8248 0.42168,-1.983 l 7.54004,-1.9072 c 0.62589,-0.1583 0.95872,-0.1208 1.31819,0.726 0.35957,0.847 0.16632,1.2785 -0.43606,1.5093 l -7.12432,2.7292 c -0.60236,0.2308 -1.36004,-0.2275 -1.71953,-1.0743 z"
         sodipodi:nodetypes="sssssss"
         inkscape:transform-center-x="-11.587415"
         inkscape:transform-center-y="-0.42733574" />
      <path
         id="rect1-7-8-5-1-8-52-7-5-6-4-2-1-5"
         style="stroke:#ffffff;stroke-width:0.374331;stroke-linejoin:round;stroke-dasharray:none;stroke-dashoffset:0;stroke-opacity:1"
         d="m 214.59929,445.68986 c 0.69587,-0.38336 1.94291,-0.22654 1.95371,0.5743 0.0133,0.98935 0.5471,1.81025 -0.31753,2.39602 -0.6858,0.46471 -1.82254,0.3159 -2.12128,-0.33844 -0.33262,-0.72864 -0.2109,-2.24859 0.4851,-2.63188 z"
         sodipodi:nodetypes="sssss" />
      <path
         id="rect1-7-8-5-1-5-4-8-8-8-0-9-0-1-7"
         style="stroke:#ffffff;stroke-width:0.374331;stroke-linejoin:round;stroke-dasharray:none;stroke-dashoffset:0;stroke-opacity:1"
         d="m 215.27728,447.26654 c 0.7923,0.0588 1.38263,0.74899 1.32342,1.54777 l -0.0695,0.94021 c -0.0592,0.79879 -0.74475,1.39457 -1.5371,1.3359 -0.79227,-0.0586 -0.99564,-0.68171 -1.08449,-1.4779 -0.13511,-1.20909 -0.37437,-2.35843 1.3679,-2.34608 z"
         sodipodi:nodetypes="ssssss" />
      <path
         id="rect1-7-5-6-7-4-6-3-1-3-5-8-5-4"
         style="stroke:#ffffff;stroke-width:0.374331;stroke-linejoin:round;stroke-dasharray:none;stroke-dashoffset:0;stroke-opacity:1"
         d="m 218.70417,430.53368 -0.0408,-3.5389 c -0.017,-1.4718 2.90483,-1.3535 3.18644,0.3729 l 0.40194,2.464 c 0.34759,2.1308 -3.52286,2.8496 -3.54761,0.702 z"
         sodipodi:nodetypes="sssss" />
      <path
         id="rect1-9-69-4-8-4-7-7-73-7-5-9-36"
         style="stroke:#ffffff;stroke-width:0.359059;stroke-linejoin:round;stroke-dasharray:none;stroke-dashoffset:0;stroke-opacity:1"
         d="m 224.28363,452.07702 -2.54141,0.6648 c -0.88295,0.231 -2.28297,1.4044 -1.96943,2.1827 l 4.77553,11.855 c 0.31352,0.7784 1.07539,1.2925 1.96153,1.074 l 1.56809,-0.3866 c 0.88613,-0.2185 1.43475,-1.0484 1.23752,-1.8627 l -3.01579,-12.4502 c -0.19755,-0.8142 -1.13308,-1.308 -2.01603,-1.077 z"
         sodipodi:nodetypes="ssssssssss" />
      <path
         id="rect1-9-1-95-4-0-1-8-0-2-1-4-6-7"
         style="stroke:#ffffff;stroke-width:0.387927;stroke-linejoin:round;stroke-dasharray:none;stroke-dashoffset:0;stroke-opacity:1"
         d="m 227.90448,467.09302 h -1.61153 c -0.91068,0 -1.68037,0.7898 -1.64383,1.7691 l 0.51391,13.7751 c 0.0365,0.9793 0.73315,1.7691 1.64384,1.7691 h 0.61225 c 0.91069,0 0.87342,-0.7931 0.95651,-1.7691 l 1.1727,-13.7751 c 0.0831,-0.976 -0.73316,-1.7691 -1.64385,-1.7691 z"
         sodipodi:nodetypes="sssssssss" />
      <path
         id="rect1-0-0-2-5-8-0-4-2-7-8-6"
         style="stroke:none;stroke-width:0.314577;stroke-linejoin:round;stroke-dasharray:none;stroke-dashoffset:0;stroke-opacity:1"
         d="m 218.07991,430.14878 c 3.00028,-1.0108 4.94787,0.4451 6.95399,1.0834 0.62816,0.1999 2.9867,1.3533 2.94241,2.2628 -0.30075,6.1747 -3.45323,11.6066 -2.11401,17.37624 0.37838,1.6301 0.24111,3.0748 0.295,4.5613 0.033,0.9105 -0.56462,1.9068 -1.16213,1.6456 l -5.42582,-2.3722 c -0.59756,-0.2612 -2.68608,1.6374 -2.65626,0.7266 0.0565,-1.7288 -0.0164,-3.3216 0.31164,-5.4099 0.88653,-5.64364 0.2016,-11.62944 -0.31164,-17.55294 -0.0784,-0.9048 0.53621,-2.1084 1.16682,-2.3209 z"
         sodipodi:nodetypes="sssssssssss" />
      <path
         id="rect1-7-8-5-1-8-7-5-7-9-2-9-8-5-3-1-9-0-5"
         style="stroke:#ffffff;stroke-width:0.374331;stroke-linejoin:round;stroke-dasharray:none;stroke-dashoffset:0;stroke-opacity:1"
         d="m 242.18498,432.56968 c -0.59691,-0.5244 -0.87237,-1.7508 -0.12277,-2.0327 0.92614,-0.3482 1.51715,-1.1289 2.36158,-0.5144 0.66979,0.4874 0.91566,1.6071 0.40152,2.1102 -0.57239,0.5602 -2.04354,0.9614 -2.64033,0.4369 z"
         sodipodi:nodetypes="sssss"
         inkscape:transform-center-x="-16.914124"
         inkscape:transform-center-y="-5.1469575" />
      <path
         id="rect1-7-8-5-5-6-7-7-5-4-9-4-6-1-3-3-2-1-5-5"
         style="stroke:#ffffff;stroke-width:0.374331;stroke-linejoin:round;stroke-dasharray:none;stroke-dashoffset:0;stroke-opacity:1"
         d="m 242.12414,430.94028 c -0.20872,-0.1083 -0.29916,-0.3454 -0.15683,-0.6193 l 0.80861,-1.5594 c 0.14643,-0.2811 0.43152,-0.4219 0.64053,-0.3134 0.20858,0.1084 0.25878,0.4227 0.11286,0.7041 l -0.8087,1.5594 c -0.11369,0.2199 -0.38783,0.3367 -0.59653,0.2285 z"
         sodipodi:nodetypes="sssssss"
         inkscape:transform-center-x="-16.315294"
         inkscape:transform-center-y="-6.7546537" />
      <path
         id="rect1-7-8-5-1-5-4-364-1-3-9-8-1-8-3-7-2-2-2-9"
         style="stroke:#ffffff;stroke-width:0.374331;stroke-linejoin:round;stroke-dasharray:none;stroke-dashoffset:0;stroke-opacity:1"
         d="m 243.54828,431.67398 c -0.48684,-0.6279 -0.36911,-1.5284 0.26378,-2.0192 l 0.7451,-0.5777 c 0.63299,-0.4908 1.53444,-0.3804 2.02131,0.2476 0.48677,0.6278 0.16015,1.196 -0.37164,1.795 -0.80801,0.9095 -1.50133,1.857 -2.65858,0.5543 z"
         sodipodi:nodetypes="ssssss"
         inkscape:transform-center-x="-18.592212"
         inkscape:transform-center-y="-5.9091562" />
    </g>
  </g>
</svg>
