<?xml version="1.0" encoding="UTF-8" standalone="no"?>
<!-- Created with Inkscape (http://www.inkscape.org/) -->

<svg
   width="20.431698mm"
   height="67.834618mm"
   viewBox="0 0 20.431698 67.834618"
   version="1.1"
   id="svg1"
   xmlns:inkscape="http://www.inkscape.org/namespaces/inkscape"
   xmlns:sodipodi="http://sodipodi.sourceforge.net/DTD/sodipodi-0.dtd"
   xmlns="http://www.w3.org/2000/svg"
   xmlns:svg="http://www.w3.org/2000/svg">
  <sodipodi:namedview
     id="namedview1"
     pagecolor="#ffffff"
     bordercolor="#000000"
     borderopacity="0.25"
     inkscape:showpageshadow="2"
     inkscape:pageopacity="0.0"
     inkscape:pagecheckerboard="0"
     inkscape:deskcolor="#d1d1d1"
     inkscape:document-units="mm" />
  <defs
     id="defs1" />
  <g
     inkscape:label="Layer 1"
     inkscape:groupmode="layer"
     id="layer1"
     transform="translate(716.07698,-2272.8747)">
    <g
       id="g43"
       transform="translate(-948.48216,1498.8842)">
      <path
         id="rect1-7-8-5-5-6-7-7-5-4-9-8-2"
         style="stroke:#ffffff;stroke-width:0.374331;stroke-linejoin:round;stroke-dasharray:none;stroke-dashoffset:0;stroke-opacity:1"
         d="m 234.79437,778.44647 c 0.15565,0.17617 0.40782,0.2058 0.63879,10e-4 l 1.31599,-1.1635 c 0.23746,-0.21 0.30398,-0.52136 0.14828,-0.69746 -0.15564,-0.17618 -0.47292,-0.14823 -0.71039,0.0617 l -1.31599,1.1635 c -0.18541,0.16395 -0.2324,0.45807 -0.0767,0.63418 z"
         sodipodi:nodetypes="sssssss" />
      <path
         id="rect1-7-3-7-0-9-1-2"
         style="stroke:#ffffff;stroke-width:0.199939;stroke-linejoin:round;stroke-dasharray:none;stroke-dashoffset:0;stroke-opacity:1"
         d="m 248.64355,787.55472 c -0.67788,0.26678 -0.0857,2.13788 0.004,2.68454 l 1.02261,6.23545 c 0.0897,0.54678 1.47193,0.031 2.14982,-0.23579 0.67787,-0.26678 0.40293,-2.52956 0.3798,-3.04249 -0.12642,-2.8036 -0.32689,-5.44984 -1.43388,-6.16971 -0.43043,-0.27991 -1.44461,0.26127 -2.1225,0.528 z"
         sodipodi:nodetypes="ssssssss"
         inkscape:transform-center-x="-2.843214"
         inkscape:transform-center-y="0.90569864" />
      <path
         id="rect1-7-3-7-0-9-3"
         style="stroke:#ffffff;stroke-width:0.199939;stroke-linejoin:round;stroke-dasharray:none;stroke-dashoffset:0;stroke-opacity:1"
         d="m 240.6621,787.08398 c 0.71697,0.12899 1.0169,2.38596 0.52114,2.63346 l -5.55947,2.77555 c -0.49575,0.2475 -1.23342,0.0123 -1.9504,-0.11665 -0.71698,-0.129 -1.27011,-2.08575 -0.81469,-2.32287 l 5.31263,-2.76603 c 0.45542,-0.23712 1.77381,-0.33247 2.49079,-0.20346 z"
         sodipodi:nodetypes="sssssss"
         inkscape:transform-center-x="2.6635275"
         inkscape:transform-center-y="1.4734479" />
      <path
         id="rect1-9-4-4-31-7-6-3"
         style="stroke:#ffffff;stroke-width:0.387927;stroke-linejoin:round;stroke-dasharray:none;stroke-dashoffset:0;stroke-opacity:1"
         d="m 247.91918,823.51156 h 1.61153 c 0.91069,0 1.75553,0.7964 1.64384,1.76906 l -1.59696,13.90723 c -0.11169,0.97267 -0.0213,1.63699 -0.93196,1.63699 h -0.72645 c -0.91069,0 -1.64384,-0.78901 -1.64384,-1.76907 v -13.77515 c 0,-0.98006 0.73315,-1.76906 1.64384,-1.76906 z"
         sodipodi:nodetypes="sssssssss" />
      <path
         id="rect1-9-1-95-4-9-5"
         style="stroke:#ffffff;stroke-width:0.387927;stroke-linejoin:round;stroke-dasharray:none;stroke-dashoffset:0;stroke-opacity:1"
         d="m 239.65514,823.59847 h 1.61153 c 0.91068,0 1.68038,0.78978 1.64384,1.76906 l -0.51392,13.77514 c -0.0365,0.97928 -0.73315,1.76907 -1.64384,1.76907 h -0.61224 c -0.91069,0 -0.87343,-0.79309 -0.95652,-1.76907 l -1.17269,-13.77514 c -0.0831,-0.97598 0.73315,-1.76906 1.64384,-1.76906 z"
         sodipodi:nodetypes="sssssssss" />
      <path
         id="rect1-9-69-4-89-2"
         style="stroke:#ffffff;stroke-width:0.359059;stroke-linejoin:round;stroke-dasharray:none;stroke-dashoffset:0;stroke-opacity:1"
         d="m 239.72519,809.74809 2.62668,0.0372 c 0.91255,0.0129 2.55276,0.81702 2.43465,1.64778 l -1.79886,12.65353 c -0.1181,0.83076 -0.73475,1.51228 -1.64742,1.51228 h -1.61505 c -0.91267,0 -1.64401,-0.67448 -1.64742,-1.51228 l -0.0522,-12.81021 c -0.003,-0.83779 0.78705,-1.54114 1.69961,-1.52824 z"
         sodipodi:nodetypes="ssssssssss" />
      <path
         id="rect1-9-4-41-7-8-4"
         style="stroke:#ffffff;stroke-width:0.359059;stroke-linejoin:round;stroke-dasharray:none;stroke-dashoffset:0;stroke-opacity:1"
         d="m 246.89388,809.59951 2.74806,0.0743 c 0.91229,0.0247 1.70304,0.72238 1.69962,1.56017 l -0.0522,12.77828 c -0.003,0.83779 -0.73475,1.51227 -1.64743,1.51227 h -1.61504 c -0.91267,0 -1.51502,-0.68333 -1.64742,-1.51227 l -2.06786,-12.94564 c -0.13241,-0.82894 1.66997,-1.49177 2.58226,-1.4671 z"
         sodipodi:nodetypes="sssssssss" />
      <path
         id="rect1-0-0-1-5"
         style="stroke:none;stroke-width:0.374331;stroke-linejoin:round;stroke-dasharray:none;stroke-dashoffset:0;stroke-opacity:1"
         d="m 239.77293,786.6671 c 4.48101,-1.82226 6.95787,-0.63831 9.7985,0 0.88945,0.19987 1.70825,0.73607 1.64554,1.64554 -0.42585,6.17474 -2.31402,12.63188 -0.41772,18.40141 0.53578,1.63011 0.34141,3.07487 0.41772,4.56138 0.0467,0.91043 -0.73392,1.64554 -1.64554,1.64554 h -9.7985 c -0.91164,0 -1.66848,-0.7342 -1.64554,-1.64554 0.0443,-1.76206 -0.17825,-3.46578 0.44127,-5.40989 1.76084,-5.52564 0.28546,-11.62948 -0.44127,-17.5529 -0.11101,-0.90484 0.80106,-1.30212 1.64554,-1.64554 z"
         sodipodi:nodetypes="sssssssssss" />
      <path
         id="rect1-7-8-5-1-5-4-34-31-3-3-5"
         style="stroke:#ffffff;stroke-width:0.485783;stroke-linejoin:round;stroke-dasharray:none;stroke-dashoffset:0;stroke-opacity:1"
         d="m 241.39179,838.74552 c -0.70994,-0.70086 -2.11346,-0.87118 -3.14686,-0.38187 l -1.21653,0.576 c -1.03342,0.4893 -1.29383,1.44747 -0.58389,2.14834 0.70994,0.70087 1.71459,0.54999 2.86223,0.19914 1.7432,-0.53283 3.48839,-0.93686 2.08505,-2.54161 z"
         sodipodi:nodetypes="ssssss" />
      <path
         id="rect1-7-8-5-1-5-4-34-0-1-3-2-8"
         style="stroke:#ffffff;stroke-width:0.485783;stroke-linejoin:round;stroke-dasharray:none;stroke-dashoffset:0;stroke-opacity:1"
         d="m 247.24852,838.74552 c 0.70994,-0.70086 2.11345,-0.87118 3.14686,-0.38187 l 1.21653,0.576 c 1.03342,0.4893 1.29383,1.44747 0.58389,2.14834 -0.70994,0.70087 -1.7146,0.54999 -2.86223,0.19914 -1.7432,-0.53283 -3.48839,-0.93686 -2.08505,-2.54161 z"
         sodipodi:nodetypes="ssssss" />
      <path
         id="rect1-7-5-6-7-5-70"
         style="stroke:#ffffff;stroke-width:0.374331;stroke-linejoin:round;stroke-dasharray:none;stroke-dashoffset:0;stroke-opacity:1"
         d="m 246.66493,785.61026 -0.45533,-2.67901 c -0.24663,-1.45117 -2.90483,-1.35351 -3.18644,0.37283 l -0.40194,2.46403 c -0.34758,2.13083 4.40357,1.95947 4.04371,-0.15785 z"
         sodipodi:nodetypes="sssss" />
      <path
         id="path1-73-1-7-4"
         style="stroke:#ffffff;stroke-width:0.306754;stroke-linejoin:round;stroke-dasharray:none;stroke-dashoffset:0;stroke-opacity:1"
         d="m 248.19822,780.4178 c 0,2.21459 -1.37809,4.57763 -3.60666,4.57763 -2.22857,0 -3.54953,-2.36304 -3.54953,-4.57763 0,-2.2146 1.32096,-3.44212 3.54953,-3.44212 2.22857,0 3.60666,1.22752 3.60666,3.44212 z"
         sodipodi:nodetypes="sssss" />
      <path
         id="rect1-7-8-3-2-6-6-9-6"
         style="stroke:#ffffff;stroke-width:0.317429;stroke-linejoin:round;stroke-dasharray:none;stroke-dashoffset:0;stroke-opacity:1"
         d="m 234.26009,791.83923 c 0.91963,-0.0281 1.65128,-0.56814 1.62449,-1.21317 l -0.44689,-10.75914 c -0.0268,-0.64507 -0.2917,-0.92122 -1.21126,-0.89316 -0.91964,0.028 -1.15953,0.38341 -1.188,1.02784 l -0.47382,10.7258 c -0.0285,0.64442 0.77585,1.13991 1.69548,1.11183 z"
         sodipodi:nodetypes="sssssss"
         inkscape:transform-center-x="0.14406964"
         inkscape:transform-center-y="-4.2541137" />
      <path
         id="rect1-7-8-5-1-8-7-5-7-9-22-7"
         style="stroke:#ffffff;stroke-width:0.374331;stroke-linejoin:round;stroke-dasharray:none;stroke-dashoffset:0;stroke-opacity:1"
         d="m 233.63957,779.64742 c 0.72245,0.33061 1.95436,0.0817 1.90569,-0.71774 -0.0601,-0.98758 0.4113,-1.84584 -0.49439,-2.36583 -0.71843,-0.41252 -1.84097,-0.1798 -2.09034,0.49492 -0.27762,0.75126 -0.0434,2.258 0.67907,2.58865 z"
         sodipodi:nodetypes="sssss"
         inkscape:transform-center-x="-0.12710751"
         inkscape:transform-center-y="-0.92477364" />
      <path
         id="rect1-7-8-5-1-5-4-364-1-3-9-6-08"
         style="stroke:#ffffff;stroke-width:0.374331;stroke-linejoin:round;stroke-dasharray:none;stroke-dashoffset:0;stroke-opacity:1"
         d="m 234.04491,778.0118 c -0.79446,-0.008 -1.42791,-0.65842 -1.42029,-1.45931 l 0.009,-0.9428 c 0.008,-0.80089 0.65334,-1.43956 1.4478,-1.43201 0.79446,0.008 1.03753,0.6162 1.17755,1.40485 0.21273,1.1979 0.52552,2.32943 -1.21403,2.42927 z"
         sodipodi:nodetypes="ssssss"
         inkscape:transform-center-x="0.078168339"
         inkscape:transform-center-y="-2.9042708" />
      <path
         id="rect1-7-8-3-2-6-6-9-3-4"
         style="stroke:#ffffff;stroke-width:0.317429;stroke-linejoin:round;stroke-dasharray:none;stroke-dashoffset:0;stroke-opacity:1"
         d="m 251.98321,796.99065 c -0.29556,0.87131 -1.16456,1.64129 -1.63492,1.1991 l -3.75569,-3.53073 c -0.47038,-0.44225 -0.79577,-0.54817 -0.50023,-1.41939 0.29555,-0.8713 0.79208,-1.1916 1.33012,-0.83579 l 3.99287,2.64045 c 0.53806,0.35578 0.86344,1.07509 0.56785,1.94636 z"
         sodipodi:nodetypes="sssssss"
         inkscape:transform-center-x="-0.97454077"
         inkscape:transform-center-y="2.4815135" />
      <path
         id="rect1-7-8-5-5-6-7-7-5-4-9-8-2-9"
         style="stroke:#ffffff;stroke-width:0.374331;stroke-linejoin:round;stroke-dasharray:none;stroke-dashoffset:0;stroke-opacity:1"
         d="m 246.69831,791.93447 c 0.16577,-0.16668 0.17908,-0.42024 -0.0402,-0.63752 l -1.24591,-1.23826 c -0.22488,-0.22342 -0.53988,-0.26973 -0.70555,-0.10319 -0.16578,0.16667 -0.11743,0.48149 0.10737,0.70493 l 1.24591,1.23825 c 0.17557,0.17446 0.4721,0.20239 0.6378,0.0357 z"
         sodipodi:nodetypes="sssssss" />
      <path
         id="rect1-7-8-5-1-8-7-5-7-9-22-6-75"
         style="stroke:#ffffff;stroke-width:0.374331;stroke-linejoin:round;stroke-dasharray:none;stroke-dashoffset:0;stroke-opacity:1"
         d="m 246.93768,793.26898 c -0.28548,0.74145 -1.34045,1.42459 -1.86448,0.81886 -0.64733,-0.74825 -1.5844,-1.03245 -1.30022,-2.03739 0.2254,-0.79719 1.1908,-1.41544 1.84077,-1.10727 0.72368,0.34316 1.60941,1.58437 1.32391,2.32582 z"
         sodipodi:nodetypes="sssss" />
      <path
         id="rect1-7-8-5-1-5-4-364-1-3-9-6-0-4"
         style="stroke:#ffffff;stroke-width:0.374331;stroke-linejoin:round;stroke-dasharray:none;stroke-dashoffset:0;stroke-opacity:1"
         d="m 245.14945,792.27143 c -0.59605,0.52532 -1.50223,0.46449 -2.03179,-0.13638 l -0.62341,-0.70732 c -0.52957,-0.60087 -0.47603,-1.50751 0.12001,-2.03283 0.59604,-0.52532 1.18362,-0.235 1.81483,0.25811 0.95881,0.74891 1.94769,1.38162 0.72036,2.61842 z"
         sodipodi:nodetypes="ssssss" />
    </g>
  </g>
</svg>
