<?xml version="1.0" encoding="UTF-8" standalone="no"?>
<!-- Created with Inkscape (http://www.inkscape.org/) -->

<svg
   width="36.283443mm"
   height="63.092258mm"
   viewBox="0 0 36.283443 63.092258"
   version="1.1"
   id="svg1"
   xmlns:inkscape="http://www.inkscape.org/namespaces/inkscape"
   xmlns:sodipodi="http://sodipodi.sourceforge.net/DTD/sodipodi-0.dtd"
   xmlns="http://www.w3.org/2000/svg"
   xmlns:svg="http://www.w3.org/2000/svg">
  <sodipodi:namedview
     id="namedview1"
     pagecolor="#ffffff"
     bordercolor="#000000"
     borderopacity="0.25"
     inkscape:showpageshadow="2"
     inkscape:pageopacity="0.0"
     inkscape:pagecheckerboard="0"
     inkscape:deskcolor="#d1d1d1"
     inkscape:document-units="mm" />
  <defs
     id="defs1" />
  <g
     inkscape:label="Layer 1"
     inkscape:groupmode="layer"
     id="layer1"
     transform="translate(724.00282,221.34075)">
    <g
       id="g27"
       transform="translate(-419.67617,106.66667)">
      <g
         id="g6-1-1-4"
         transform="matrix(0.27830156,0,0,0.27830156,-317.68844,-313.02749)"
         style="stroke-width:1.38527;stroke-dasharray:none">
        <rect
           style="opacity:1;fill:#000000;stroke:#ffffff;stroke-width:1.38527;stroke-linejoin:round;stroke-dasharray:none"
           id="rect5-8-3-8"
           width="10.664055"
           height="10.785408"
           x="81.009392"
           y="159.09109" />
        <path
           id="rect5-9-6-4-2"
           style="fill:#000000;stroke:#ffffff;stroke-width:1.7424;stroke-linejoin:round;stroke-dasharray:none"
           transform="matrix(0.63208417,-0.77489973,0,1,0,0)"
           d="m 145.0336,271.4776 5.6318,-0.31314 1e-5,10.65467 -5.63181,0.44388 z"
           sodipodi:nodetypes="ccccc" />
        <rect
           style="fill:#000000;stroke:#ffffff;stroke-width:1.54808;stroke-linejoin:round;stroke-dasharray:none"
           id="rect5-9-1-3-5-4"
           width="5.8412356"
           height="10.785408"
           x="-198.68402"
           y="-210.75246"
           transform="matrix(0.59903324,-0.80072416,-1,0,0,0)" />
      </g>
      <g
         id="g6-1-1-4-7"
         transform="matrix(0.27830156,0,0,0.27830156,-313.23079,-313.02749)"
         style="stroke-width:1.38527;stroke-dasharray:none">
        <rect
           style="opacity:1;fill:#000000;stroke:#ffffff;stroke-width:1.38527;stroke-linejoin:round;stroke-dasharray:none"
           id="rect5-8-3-8-7"
           width="10.664055"
           height="10.785408"
           x="81.009392"
           y="159.09109" />
        <path
           id="rect5-9-6-4-2-4"
           style="fill:#000000;stroke:#ffffff;stroke-width:1.7424;stroke-linejoin:round;stroke-dasharray:none"
           transform="matrix(0.63208417,-0.77489973,0,1,0,0)"
           d="m 145.0336,271.4776 5.6318,-0.31314 1e-5,10.65467 -5.63181,0.44388 z"
           sodipodi:nodetypes="ccccc" />
        <rect
           style="fill:#000000;stroke:#ffffff;stroke-width:1.54808;stroke-linejoin:round;stroke-dasharray:none"
           id="rect5-9-1-3-5-4-6"
           width="5.8412356"
           height="10.785408"
           x="-198.68402"
           y="-210.75246"
           transform="matrix(0.59903324,-0.80072416,-1,0,0,0)" />
      </g>
      <g
         id="g6-1-1-4-6"
         transform="matrix(0.27830156,0,0,0.27830156,-326.60375,-313.02749)"
         style="stroke-width:1.38527;stroke-dasharray:none">
        <rect
           style="opacity:1;fill:#000000;stroke:#ffffff;stroke-width:1.38527;stroke-linejoin:round;stroke-dasharray:none"
           id="rect5-8-3-8-1"
           width="10.664055"
           height="10.785408"
           x="81.009392"
           y="159.09109" />
        <path
           id="rect5-9-6-4-2-3"
           style="fill:#000000;stroke:#ffffff;stroke-width:1.7424;stroke-linejoin:round;stroke-dasharray:none"
           transform="matrix(0.63208417,-0.77489973,0,1,0,0)"
           d="m 145.0336,271.4776 5.6318,-0.31314 1e-5,10.65467 -5.63181,0.44388 z"
           sodipodi:nodetypes="ccccc" />
        <rect
           style="fill:#000000;stroke:#ffffff;stroke-width:1.54808;stroke-linejoin:round;stroke-dasharray:none"
           id="rect5-9-1-3-5-4-3"
           width="5.8412356"
           height="10.785408"
           x="-198.68402"
           y="-210.75246"
           transform="matrix(0.59903324,-0.80072416,-1,0,0,0)" />
      </g>
      <g
         id="g6-1-1-4-7-3"
         transform="matrix(0.27830156,0,0,0.27830156,-322.1461,-313.02749)"
         style="stroke-width:1.38527;stroke-dasharray:none">
        <rect
           style="opacity:1;fill:#000000;stroke:#ffffff;stroke-width:1.38527;stroke-linejoin:round;stroke-dasharray:none"
           id="rect5-8-3-8-7-4"
           width="10.664055"
           height="10.785408"
           x="81.009392"
           y="159.09109" />
        <path
           id="rect5-9-6-4-2-4-5"
           style="fill:#000000;stroke:#ffffff;stroke-width:1.7424;stroke-linejoin:round;stroke-dasharray:none"
           transform="matrix(0.63208417,-0.77489973,0,1,0,0)"
           d="m 145.0336,271.4776 5.6318,-0.31314 1e-5,10.65467 -5.63181,0.44388 z"
           sodipodi:nodetypes="ccccc" />
        <rect
           style="fill:#000000;stroke:#ffffff;stroke-width:1.54808;stroke-linejoin:round;stroke-dasharray:none"
           id="rect5-9-1-3-5-4-6-0"
           width="5.8412356"
           height="10.785408"
           x="-198.68402"
           y="-210.75246"
           transform="matrix(0.59903324,-0.80072416,-1,0,0,0)" />
      </g>
      <g
         id="g6-1-1-4-5"
         transform="matrix(0.27830156,0,0,0.27830156,-314.62583,-318.3006)"
         style="stroke-width:1.38527;stroke-dasharray:none">
        <rect
           style="opacity:1;fill:#000000;stroke:#ffffff;stroke-width:1.38527;stroke-linejoin:round;stroke-dasharray:none"
           id="rect5-8-3-8-72"
           width="10.664055"
           height="10.785408"
           x="81.009392"
           y="159.09109" />
        <path
           id="rect5-9-6-4-2-0"
           style="fill:#000000;stroke:#ffffff;stroke-width:1.7424;stroke-linejoin:round;stroke-dasharray:none"
           transform="matrix(0.63208417,-0.77489973,0,1,0,0)"
           d="m 145.0336,271.4776 5.6318,-0.31314 1e-5,10.65467 -5.63181,0.44388 z"
           sodipodi:nodetypes="ccccc" />
        <rect
           style="fill:#000000;stroke:#ffffff;stroke-width:1.54808;stroke-linejoin:round;stroke-dasharray:none"
           id="rect5-9-1-3-5-4-65"
           width="5.8412356"
           height="10.785408"
           x="-198.68402"
           y="-210.75246"
           transform="matrix(0.59903324,-0.80072416,-1,0,0,0)" />
      </g>
      <g
         id="g6-1-1-4-6-1"
         transform="matrix(0.27830156,0,0,0.27830156,-323.54114,-318.3006)"
         style="stroke-width:1.38527;stroke-dasharray:none">
        <rect
           style="opacity:1;fill:#000000;stroke:#ffffff;stroke-width:1.38527;stroke-linejoin:round;stroke-dasharray:none"
           id="rect5-8-3-8-1-3"
           width="10.664055"
           height="10.785408"
           x="81.009392"
           y="159.09109" />
        <path
           id="rect5-9-6-4-2-3-8"
           style="fill:#000000;stroke:#ffffff;stroke-width:1.7424;stroke-linejoin:round;stroke-dasharray:none"
           transform="matrix(0.63208417,-0.77489973,0,1,0,0)"
           d="m 145.0336,271.4776 5.6318,-0.31314 1e-5,10.65467 -5.63181,0.44388 z"
           sodipodi:nodetypes="ccccc" />
        <rect
           style="fill:#000000;stroke:#ffffff;stroke-width:1.54808;stroke-linejoin:round;stroke-dasharray:none"
           id="rect5-9-1-3-5-4-3-2"
           width="5.8412356"
           height="10.785408"
           x="-198.68402"
           y="-210.75246"
           transform="matrix(0.59903324,-0.80072416,-1,0,0,0)" />
      </g>
      <g
         id="g6-1-1-4-7-3-2"
         transform="matrix(0.27830156,0,0,0.27830156,-319.08349,-318.3006)"
         style="stroke-width:1.38527;stroke-dasharray:none">
        <rect
           style="opacity:1;fill:#000000;stroke:#ffffff;stroke-width:1.38527;stroke-linejoin:round;stroke-dasharray:none"
           id="rect5-8-3-8-7-4-6"
           width="10.664055"
           height="10.785408"
           x="81.009392"
           y="159.09109" />
        <path
           id="rect5-9-6-4-2-4-5-2"
           style="fill:#000000;stroke:#ffffff;stroke-width:1.7424;stroke-linejoin:round;stroke-dasharray:none"
           transform="matrix(0.63208417,-0.77489973,0,1,0,0)"
           d="m 145.0336,271.4776 5.6318,-0.31314 1e-5,10.65467 -5.63181,0.44388 z"
           sodipodi:nodetypes="ccccc" />
        <rect
           style="fill:#000000;stroke:#ffffff;stroke-width:1.54808;stroke-linejoin:round;stroke-dasharray:none"
           id="rect5-9-1-3-5-4-6-0-8"
           width="5.8412356"
           height="10.785408"
           x="-198.68402"
           y="-210.75246"
           transform="matrix(0.59903324,-0.80072416,-1,0,0,0)" />
      </g>
      <g
         id="g6-1-1-4-6-1-1"
         transform="matrix(0.27830156,0,0,0.27830156,-320.95632,-323.70794)"
         style="stroke-width:1.38527;stroke-dasharray:none">
        <rect
           style="opacity:1;fill:#000000;stroke:#ffffff;stroke-width:1.38527;stroke-linejoin:round;stroke-dasharray:none"
           id="rect5-8-3-8-1-3-7"
           width="10.664055"
           height="10.785408"
           x="81.009392"
           y="159.09109" />
        <path
           id="rect5-9-6-4-2-3-8-5"
           style="fill:#000000;stroke:#ffffff;stroke-width:1.7424;stroke-linejoin:round;stroke-dasharray:none"
           transform="matrix(0.63208417,-0.77489973,0,1,0,0)"
           d="m 145.0336,271.4776 5.6318,-0.31314 1e-5,10.65467 -5.63181,0.44388 z"
           sodipodi:nodetypes="ccccc" />
        <rect
           style="fill:#000000;stroke:#ffffff;stroke-width:1.54808;stroke-linejoin:round;stroke-dasharray:none"
           id="rect5-9-1-3-5-4-3-2-3"
           width="5.8412356"
           height="10.785408"
           x="-198.68402"
           y="-210.75246"
           transform="matrix(0.59903324,-0.80072416,-1,0,0,0)" />
      </g>
      <g
         id="g6-1-1-4-7-3-2-4"
         transform="matrix(0.27830156,0,0,0.27830156,-316.49867,-323.70794)"
         style="stroke-width:1.38527;stroke-dasharray:none">
        <rect
           style="opacity:1;fill:#000000;stroke:#ffffff;stroke-width:1.38527;stroke-linejoin:round;stroke-dasharray:none"
           id="rect5-8-3-8-7-4-6-0"
           width="10.664055"
           height="10.785408"
           x="81.009392"
           y="159.09109" />
        <path
           id="rect5-9-6-4-2-4-5-2-3"
           style="fill:#000000;stroke:#ffffff;stroke-width:1.7424;stroke-linejoin:round;stroke-dasharray:none"
           transform="matrix(0.63208417,-0.77489973,0,1,0,0)"
           d="m 145.0336,271.4776 5.6318,-0.31314 1e-5,10.65467 -5.63181,0.44388 z"
           sodipodi:nodetypes="ccccc" />
        <rect
           style="fill:#000000;stroke:#ffffff;stroke-width:1.54808;stroke-linejoin:round;stroke-dasharray:none"
           id="rect5-9-1-3-5-4-6-0-8-7"
           width="5.8412356"
           height="10.785408"
           x="-198.68402"
           y="-210.75246"
           transform="matrix(0.59903324,-0.80072416,-1,0,0,0)" />
      </g>
      <path
         id="rect1-7-2-76-1-7-2-6"
         style="stroke:#ffffff;stroke-width:0.374331;stroke-linejoin:round;stroke-dasharray:none;stroke-dashoffset:0;stroke-opacity:1"
         d="m -273.74415,-319.02999 c -0.79916,-0.42323 -2.777,-0.0791 -2.71177,0.83018 l 0.65966,9.19743 c 0.0652,0.90929 0.0674,1.87477 0.86658,2.29799 0.79917,0.42323 2.16292,0.22253 2.17794,-0.68897 l 0.14797,-8.98354 c 0.015,-0.91151 -0.34122,-2.22987 -1.14039,-2.65311 z"
         sodipodi:nodetypes="ssssssss"
         inkscape:transform-center-x="0.33972044"
         inkscape:transform-center-y="-15.323348" />
      <path
         id="rect1-7-3-7-0-3-9"
         style="stroke:#ffffff;stroke-width:0.374331;stroke-linejoin:round;stroke-dasharray:none;stroke-dashoffset:0;stroke-opacity:1"
         d="m -283.02436,-317.84511 c 0.89412,0.13539 2.0427,1.4422 1.68538,2.28088 l -4.54635,10.67112 c -0.35731,0.83868 -1.16976,1.46659 -2.06388,1.33118 -0.89412,-0.13541 -1.63645,-0.98749 -1.34039,-1.84971 l 3.77,-10.97982 c 0.29604,-0.86222 1.60113,-1.58906 2.49524,-1.45365 z"
         sodipodi:nodetypes="sssssss"
         inkscape:transform-center-x="11.123235"
         inkscape:transform-center-y="-13.174869" />
      <path
         id="rect1-9-4-4-31-7-1-4"
         style="stroke:#ffffff;stroke-width:0.387927;stroke-linejoin:round;stroke-dasharray:none;stroke-dashoffset:0;stroke-opacity:1"
         d="m -272.66659,-282.78625 1.60066,-0.18679 c 0.90456,-0.10555 1.83601,0.58757 1.83781,1.56661 l 0.0257,13.99861 c 0.002,0.97906 0.1686,1.62841 -0.73595,1.73396 l -0.72155,0.0842 c -0.90455,0.10555 -1.7242,-0.59316 -1.8378,-1.56662 l -1.5966,-13.6823 c -0.1136,-0.97345 0.52316,-1.84212 1.42771,-1.94767 z"
         sodipodi:nodetypes="sssssssss" />
      <path
         id="rect1-9-1-95-4-0-1"
         style="stroke:#ffffff;stroke-width:0.387927;stroke-linejoin:round;stroke-dasharray:none;stroke-dashoffset:0;stroke-opacity:1"
         d="m -281.62155,-284.50334 h 1.61153 c 0.91068,0 1.68037,0.78979 1.64383,1.76907 l -0.51391,13.77514 c -0.0365,0.97927 -0.73315,1.76907 -1.64384,1.76907 h -0.61225 c -0.91069,0 -0.87342,-0.7931 -0.95651,-1.76907 l -1.1727,-13.77514 c -0.0831,-0.97598 0.73316,-1.76907 1.64385,-1.76907 z"
         sodipodi:nodetypes="sssssssss" />
      <path
         id="rect1-9-69-4-8-4"
         style="stroke:#ffffff;stroke-width:0.359059;stroke-linejoin:round;stroke-dasharray:none;stroke-dashoffset:0;stroke-opacity:1"
         d="m -278.13299,-297.93186 2.54141,0.66485 c 0.88295,0.23095 2.28297,1.40433 1.96943,2.18267 l -4.77553,11.85505 c -0.31352,0.77834 -1.07539,1.29243 -1.96153,1.07395 l -1.56809,-0.3866 c -0.88613,-0.21848 -1.43475,-1.04841 -1.23752,-1.86266 l 3.01579,-12.45028 c 0.19755,-0.81417 1.13308,-1.30793 2.01603,-1.07696 z"
         sodipodi:nodetypes="ssssssssss" />
      <path
         id="rect1-9-4-41-7-6-1"
         style="stroke:#ffffff;stroke-width:0.359059;stroke-linejoin:round;stroke-dasharray:none;stroke-dashoffset:0;stroke-opacity:1"
         d="m -272.51828,-297.41114 2.73139,0.3113 c 0.90675,0.10334 1.63432,0.86672 1.55857,1.70109 l -1.1552,12.72605 c -0.0754,0.8344 -0.86256,1.4432 -1.77184,1.3644 l -1.609,-0.13943 c -0.90927,-0.0788 -1.45037,-0.81158 -1.51072,-1.64885 l -0.94249,-13.07583 c -0.0604,-0.83728 1.79253,-1.34203 2.69928,-1.23869 z"
         sodipodi:nodetypes="sssssssss" />
      <path
         id="rect1-0-0-2-5"
         style="stroke:none;stroke-width:0.351231;stroke-linejoin:round;stroke-dasharray:none;stroke-dashoffset:0;stroke-opacity:1"
         d="m -284.36289,-317.9715 c 3.33075,-1.97911 6.06067,-1.22948 8.64105,-1.28699 0.80797,-0.018 1.49027,-0.0753 1.68157,0.81548 1.29888,6.04822 1.43365,12.71453 4.59274,17.82286 1.1966,1.93495 1.41952,6.04794 0.62746,6.26901 l -8.30894,2.31911 c -0.77304,0.21576 -1.62872,-0.30829 -1.83775,-1.19549 -0.39686,-1.68409 -0.91262,-3.19387 -1.08019,-5.31518 -0.45273,-5.73303 -2.88434,-11.26892 -5.09302,-16.80227 -0.33735,-0.84527 0.077,-2.21056 0.77708,-2.62653 z"
         sodipodi:nodetypes="ssssssssss"
         inkscape:transform-center-x="2.3304103"
         inkscape:transform-center-y="-8.1398041" />
      <path
         id="rect1-7-8-5-1-5-4-34-31-3-6-5"
         style="stroke:#ffffff;stroke-width:0.453133;stroke-linejoin:round;stroke-dasharray:none;stroke-dashoffset:0;stroke-opacity:1"
         d="m -279.62676,-268.82783 c -0.62285,-0.69964 -2.00014,-1.04147 -3.08805,-0.76643 l -1.28068,0.32376 c -1.08793,0.27503 -1.46233,1.05971 -0.83947,1.75934 0.62284,0.69964 1.64147,0.71058 2.82652,0.57013 1.80001,-0.21327 3.58653,-0.31588 2.38168,-1.8868 z"
         sodipodi:nodetypes="ssssss" />
      <path
         id="rect1-7-8-5-1-5-4-34-0-1-3-9-6"
         style="stroke:#ffffff;stroke-width:0.419911;stroke-linejoin:round;stroke-dasharray:none;stroke-dashoffset:0;stroke-opacity:1"
         d="m -269.97565,-266.96825 c -0.72948,-0.58339 -2.13739,-0.82566 -3.15673,-0.54319 l -1.19996,0.33251 c -1.01936,0.28247 -1.2527,0.97955 -0.52323,1.56294 0.72947,0.58341 1.72961,0.55231 2.86704,0.38298 1.7277,-0.25716 3.46101,-0.4176 2.01288,-1.73524 z"
         sodipodi:nodetypes="ssssss" />
      <path
         id="rect1-7-5-6-7-4-6"
         style="stroke:#ffffff;stroke-width:0.374331;stroke-linejoin:round;stroke-dasharray:none;stroke-dashoffset:0;stroke-opacity:1"
         d="m -278.26739,-320.06885 -1.15877,-2.45798 c -0.62769,-1.33144 -3.16177,-0.52276 -2.96891,1.21575 l 0.27528,2.48137 c 0.23805,2.14583 4.76822,0.70349 3.8524,-1.23914 z"
         sodipodi:nodetypes="sssss"
         inkscape:transform-center-x="6.0847336"
         inkscape:transform-center-y="-22.948994" />
      <path
         id="path1-73-1-5-7"
         style="stroke:#ffffff;stroke-width:0.287201;stroke-linejoin:round;stroke-dasharray:none;stroke-dashoffset:0;stroke-opacity:1"
         d="m -279.06164,-325.23952 c 0.59681,2.13827 0.0729,4.74383 -1.80411,5.26773 -1.87703,0.52389 -3.62643,-1.44717 -4.22324,-3.58543 -0.59681,-2.13828 0.18497,-3.63403 2.06199,-4.15793 1.87703,-0.52389 3.36855,0.33736 3.96536,2.47563 z"
         sodipodi:nodetypes="sssss"
         inkscape:transform-center-x="7.8659308"
         inkscape:transform-center-y="-26.347834" />
      <path
         id="rect1-7-8-30-8-6-6-5"
         style="stroke:#ffffff;stroke-width:0.313714;stroke-linejoin:round;stroke-dasharray:none;stroke-dashoffset:0;stroke-opacity:1"
         d="m -287.04029,-305.71752 c 0.57969,0.71579 0.9014,1.44284 0.57877,1.98399 l -5.01387,8.40952 c -0.32265,0.54116 -0.87085,0.36595 -1.45055,-0.34983 -0.57969,-0.71579 -0.26945,-0.98026 -0.0165,-1.55677 l 3.97396,-9.0648 c 0.25271,-0.57644 1.34848,-0.1379 1.92818,0.57789 z"
         sodipodi:nodetypes="sssssss"
         inkscape:transform-center-x="15.603849"
         inkscape:transform-center-y="-3.256588" />
      <path
         id="rect1-7-8-5-1-8-52-7-5-7-4"
         style="stroke:#ffffff;stroke-width:0.374331;stroke-linejoin:round;stroke-dasharray:none;stroke-dashoffset:0;stroke-opacity:1"
         d="m -292.80285,-297.2188 c 0.78906,-0.0929 1.88509,0.52218 1.59338,1.26803 -0.36037,0.92147 -0.17514,1.88299 -1.19668,2.0999 -0.81037,0.17209 -1.8073,-0.39399 -1.83752,-1.11267 -0.0336,-0.80023 0.6518,-2.16231 1.44084,-2.25526 z"
         sodipodi:nodetypes="sssss"
         inkscape:transform-center-x="18.51239"
         inkscape:transform-center-y="2.0036534" />
      <path
         id="rect1-7-8-5-1-5-4-8-8-8-1-8"
         style="stroke:#ffffff;stroke-width:0.288532;stroke-linejoin:round;stroke-dasharray:none;stroke-dashoffset:0;stroke-opacity:1"
         d="m -293.04119,-296.38556 c 0.54672,0.2032 0.81531,0.85978 0.60221,1.47206 l -0.25082,0.72078 c -0.21304,0.61231 -0.82481,0.94161 -1.37153,0.73839 -0.54672,-0.20321 -0.55664,-0.73038 -0.44871,-1.36998 0.16388,-0.97151 0.24156,-1.91697 1.46887,-1.56124 z"
         sodipodi:nodetypes="ssssss"
         inkscape:transform-center-x="19.274288"
         inkscape:transform-center-y="2.5993856" />
      <path
         id="rect1-7-8-5-5-6-7-3-8-5-2-7"
         style="stroke:#ffffff;stroke-width:0.374331;stroke-linejoin:round;stroke-dasharray:none;stroke-dashoffset:0;stroke-opacity:1"
         d="m -292.33993,-296.78562 c -0.0349,-0.23245 0.10441,-0.44472 0.40918,-0.49054 l 1.73709,-0.26094 c 0.31346,-0.0471 0.59482,0.10202 0.62974,0.33448 0.0349,0.23245 -0.19023,0.45763 -0.50366,0.50474 l -1.73708,0.26093 c -0.24474,0.0367 -0.50016,-0.1169 -0.53525,-0.34867 z"
         sodipodi:nodetypes="sssssss"
         inkscape:transform-center-x="16.762083"
         inkscape:transform-center-y="0.53893981" />
      <path
         id="rect1-7-8-3-2-6-6-1-0"
         style="stroke:#ffffff;stroke-width:0.317429;stroke-linejoin:round;stroke-dasharray:none;stroke-dashoffset:0;stroke-opacity:1"
         d="m -274.45886,-307.84192 c -0.5226,-0.75724 -1.43156,-1.14995 -1.90052,-0.70622 l -5.64928,5.34555 c -0.46896,0.44373 -0.61557,0.74486 -0.093,1.50208 0.52261,0.75723 0.9905,0.82519 1.50801,0.44015 l 6.12089,-4.55411 c 0.5175,-0.38503 0.53647,-1.27023 0.0139,-2.02745 z"
         sodipodi:nodetypes="sssssss"
         inkscape:transform-center-x="4.063327"
         inkscape:transform-center-y="-7.3550101" />
      <path
         id="rect1-7-8-5-1-8-7-5-7-9-2-9"
         style="stroke:#ffffff;stroke-width:0.374331;stroke-linejoin:round;stroke-dasharray:none;stroke-dashoffset:0;stroke-opacity:1"
         d="m -280.87483,-302.26756 c -0.22032,-0.76335 -1.2127,-1.53479 -1.78696,-0.97648 -0.70943,0.68968 -1.66749,0.89208 -1.47097,1.91775 0.15587,0.81366 1.06438,1.51283 1.7385,1.2618 0.75056,-0.27956 1.73996,-1.43979 1.51943,-2.20307 z"
         sodipodi:nodetypes="sssss"
         inkscape:transform-center-x="8.3104513"
         inkscape:transform-center-y="-4.196088" />
      <path
         id="rect1-7-8-5-5-6-7-7-5-4-9-4-6"
         style="stroke:#ffffff;stroke-width:0.374331;stroke-linejoin:round;stroke-dasharray:none;stroke-dashoffset:0;stroke-opacity:1"
         d="m -282.26569,-303.10412 c -0.009,-0.2349 -0.18546,-0.41746 -0.49354,-0.40555 l -1.75527,0.0678 c -0.31673,0.0123 -0.56532,0.21125 -0.55625,0.44613 0.009,0.23486 0.27229,0.41409 0.58902,0.40186 l 1.75528,-0.0679 c 0.24731,-0.01 0.46984,-0.20755 0.46077,-0.44244 z"
         sodipodi:nodetypes="sssssss"
         inkscape:transform-center-x="9.4775162"
         inkscape:transform-center-y="-5.5241548" />
      <path
         id="rect1-7-8-5-1-5-4-364-1-3-9-8-1"
         style="stroke:#ffffff;stroke-width:0.374331;stroke-linejoin:round;stroke-dasharray:none;stroke-dashoffset:0;stroke-opacity:1"
         d="m -282.26571,-301.41532 c -0.36086,-0.70783 -1.22582,-0.98479 -1.93936,-0.62101 l -0.83998,0.42823 c -0.71354,0.36379 -0.99747,1.22649 -0.6366,1.93432 0.36088,0.70782 1.01404,0.65414 1.78245,0.42797 1.16714,-0.34342 2.31946,-0.56786 1.63349,-2.16951 z"
         sodipodi:nodetypes="ssssss"
         inkscape:transform-center-x="9.7583423"
         inkscape:transform-center-y="-3.1180157" />
      <g
         id="g6-1-1-4-6-1-1-3"
         transform="matrix(0.27829887,0.00122518,-0.00122518,0.27829887,-315.13937,-338.87364)"
         style="stroke-width:1.38527;stroke-dasharray:none"
         inkscape:transform-center-x="-0.96532718"
         inkscape:transform-center-y="-0.88208985">
        <rect
           style="opacity:1;fill:#000000;stroke:#ffffff;stroke-width:1.38527;stroke-linejoin:round;stroke-dasharray:none"
           id="rect5-8-3-8-1-3-7-6"
           width="10.664055"
           height="10.785408"
           x="81.009392"
           y="159.09109" />
        <path
           id="rect5-9-6-4-2-3-8-5-9"
           style="fill:#000000;stroke:#ffffff;stroke-width:1.7424;stroke-linejoin:round;stroke-dasharray:none"
           transform="matrix(0.63208417,-0.77489973,0,1,0,0)"
           d="m 145.0336,271.4776 5.6318,-0.31314 1e-5,10.65467 -5.63181,0.44388 z"
           sodipodi:nodetypes="ccccc" />
        <rect
           style="fill:#000000;stroke:#ffffff;stroke-width:1.54808;stroke-linejoin:round;stroke-dasharray:none"
           id="rect5-9-1-3-5-4-3-2-3-6"
           width="5.8412356"
           height="10.785408"
           x="-198.68402"
           y="-210.75246"
           transform="matrix(0.59903324,-0.80072416,-1,0,0,0)" />
      </g>
      <path
         id="path11-4-78"
         style="fill:#808080;stroke:none;stroke-width:0.0886796;stroke-linejoin:round;stroke-dasharray:none"
         d="m -291.54616,-290.10674 -0.008,1.89126 -1.1299,0.007 1.74565,2.24399 c 0.0427,1.6e-4 1.62832,-2.26588 1.62832,-2.26588 l -1.11975,0.007 0.008,-1.87901 z"
         inkscape:transform-center-x="-0.78405558"
         inkscape:transform-center-y="4.7232206" />
    </g>
  </g>
</svg>
