<?xml version="1.0" encoding="UTF-8" standalone="no"?>
<!-- Created with Inkscape (http://www.inkscape.org/) -->

<svg
   width="27.331341mm"
   height="63.881615mm"
   viewBox="0 0 27.331341 63.881615"
   version="1.1"
   id="svg1"
   xmlns:inkscape="http://www.inkscape.org/namespaces/inkscape"
   xmlns:sodipodi="http://sodipodi.sourceforge.net/DTD/sodipodi-0.dtd"
   xmlns="http://www.w3.org/2000/svg"
   xmlns:svg="http://www.w3.org/2000/svg">
  <sodipodi:namedview
     id="namedview1"
     pagecolor="#ffffff"
     bordercolor="#000000"
     borderopacity="0.25"
     inkscape:showpageshadow="2"
     inkscape:pageopacity="0.0"
     inkscape:pagecheckerboard="0"
     inkscape:deskcolor="#d1d1d1"
     inkscape:document-units="mm" />
  <defs
     id="defs1" />
  <g
     inkscape:label="Layer 1"
     inkscape:groupmode="layer"
     id="layer1"
     transform="translate(719.52681,114.64243)">
    <g
       id="g37"
       transform="translate(-952.37289,-713.37278)">
      <path
         id="rect1-7-3-7-0-3-9-3-9-7"
         style="stroke:#ffffff;stroke-width:0.374331;stroke-linejoin:round;stroke-dasharray:none;stroke-dashoffset:0;stroke-opacity:1"
         d="m 252.1616,609.38749 c 0.27143,0.86263 -0.40095,2.42519 -1.308,2.51636 l -7.20535,0.7242 c -0.90704,0.0912 -1.83148,-0.40613 -2.10284,-1.26877 -0.27133,-0.86264 0.18165,-1.82277 1.07234,-2.01699 l 7.14139,-1.55722 c 0.8907,-0.19423 2.13109,0.73978 2.40244,1.60241 z"
         sodipodi:nodetypes="ssssssss"
         inkscape:transform-center-x="5.4468673"
         inkscape:transform-center-y="0.79335181" />
      <path
         id="rect1-7-8-30-8-6-6-5-6-4-9"
         style="stroke:#ffffff;stroke-width:0.313714;stroke-linejoin:round;stroke-dasharray:none;stroke-dashoffset:0;stroke-opacity:1"
         d="m 244.01846,610.4932 c 0.30013,0.87081 0.0867,1.8178 -0.531,1.94161 l -7.17622,1.43816 c -0.61776,0.12379 -0.94351,0.0463 -1.24365,-0.82453 -0.30014,-0.87082 -0.0801,-1.26842 0.51656,-1.46868 l 6.81972,-2.28868 c 0.59668,-0.20024 1.3144,0.33129 1.61456,1.2021 z"
         sodipodi:nodetypes="sssssss"
         inkscape:transform-center-x="3.4714137"
         inkscape:transform-center-y="1.2479144" />
      <path
         id="rect1-7-8-5-1-8-52-7-5-7-4-5-4-41"
         style="stroke:#ffffff;stroke-width:0.374331;stroke-linejoin:round;stroke-dasharray:none;stroke-dashoffset:0;stroke-opacity:1"
         d="m 233.24485,613.91541 c 0.49575,-0.62087 1.70762,-0.95408 2.0246,-0.21862 0.39162,0.90863 1.19937,1.46213 0.62548,2.33461 -0.45527,0.69214 -1.56218,0.99055 -2.08898,0.50075 -0.58653,-0.5454 -1.05681,-1.99588 -0.56108,-2.61675 z"
         sodipodi:nodetypes="sssss"
         inkscape:transform-center-x="5.5740014"
         inkscape:transform-center-y="7.6823974" />
      <path
         id="rect1-7-2-76-1-7-2-6-7-2-5"
         style="stroke:#ffffff;stroke-width:0.374331;stroke-linejoin:round;stroke-dasharray:none;stroke-dashoffset:0;stroke-opacity:1"
         d="m 259.99023,611.7726 c -0.0195,-0.90412 -1.30442,-1.56891 -2.01507,-0.99804 l -7.36314,5.91485 c -0.71071,0.57092 -1.57799,1.01452 -1.53422,1.91778 0.0438,0.90326 0.88775,1.92802 1.70377,1.52159 l 7.92904,-3.94916 c 0.68264,-0.59443 1.2819,-2.72812 1.27962,-4.40702 z"
         sodipodi:nodetypes="csssscc"
         inkscape:transform-center-x="3.8014056"
         inkscape:transform-center-y="2.0989427" />
      <path
         id="rect1-9-4-4-31-7-1-4-3-0-5"
         style="stroke:#ffffff;stroke-width:0.387927;stroke-linejoin:round;stroke-dasharray:none;stroke-dashoffset:0;stroke-opacity:1"
         d="m 253.25124,644.74088 1.60066,-0.18679 c 0.90456,-0.10555 1.83601,0.58757 1.83781,1.56661 l 0.0257,13.99861 c 0.002,0.97906 0.1686,1.62841 -0.73595,1.73396 l -0.72155,0.0842 c -0.90455,0.10555 -1.7242,-0.59316 -1.8378,-1.56662 l -1.5966,-13.6823 c -0.1136,-0.97345 0.52316,-1.84212 1.42771,-1.94767 z"
         sodipodi:nodetypes="sssssssss" />
      <path
         id="rect1-9-1-95-4-0-1-8-0-2"
         style="stroke:#ffffff;stroke-width:0.387927;stroke-linejoin:round;stroke-dasharray:none;stroke-dashoffset:0;stroke-opacity:1"
         d="m 246.80982,643.35452 h 1.61153 c 0.91068,0 1.68037,0.78979 1.64383,1.76907 l -0.51391,13.77514 c -0.0365,0.97927 -0.73315,1.76907 -1.64384,1.76907 h -0.61225 c -0.91069,0 -0.87342,-0.7931 -0.95651,-1.76907 l -1.1727,-13.77514 c -0.0831,-0.97598 0.73316,-1.76907 1.64385,-1.76907 z"
         sodipodi:nodetypes="sssssssss" />
      <path
         id="rect1-9-69-4-8-4-7-7-73"
         style="stroke:#ffffff;stroke-width:0.359059;stroke-linejoin:round;stroke-dasharray:none;stroke-dashoffset:0;stroke-opacity:1"
         d="m 250.29838,629.926 2.54141,0.66485 c 0.88295,0.23095 2.28297,1.40433 1.96943,2.18267 l -4.77553,11.85505 c -0.31352,0.77834 -1.07539,1.29243 -1.96153,1.07395 l -1.56809,-0.3866 c -0.88613,-0.21848 -1.43475,-1.04841 -1.23752,-1.86266 l 3.01579,-12.45028 c 0.19755,-0.81417 1.13308,-1.30793 2.01603,-1.07696 z"
         sodipodi:nodetypes="ssssssssss" />
      <path
         id="rect1-9-4-41-7-6-1-1-5-8"
         style="stroke:#ffffff;stroke-width:0.359059;stroke-linejoin:round;stroke-dasharray:none;stroke-dashoffset:0;stroke-opacity:1"
         d="m 253.56726,630.11599 2.73139,0.3113 c 0.90675,0.10334 1.63432,0.86672 1.55857,1.70109 l -1.1552,12.72605 c -0.0754,0.8344 -0.86256,1.4432 -1.77184,1.3644 l -1.609,-0.13943 c -0.90927,-0.0788 -1.45037,-0.81158 -1.51072,-1.64885 l -0.94249,-13.07583 c -0.0604,-0.83728 1.79253,-1.34203 2.69928,-1.23869 z"
         sodipodi:nodetypes="sssssssss" />
      <path
         id="rect1-0-0-2-5-8-0-4"
         style="stroke:none;stroke-width:0.314577;stroke-linejoin:round;stroke-dasharray:none;stroke-dashoffset:0;stroke-opacity:1"
         d="m 249.64957,607.90433 c 3.00028,-1.01083 4.94787,0.4451 6.95399,1.08341 0.62816,0.19987 2.9867,1.35332 2.94241,2.26278 -0.30075,6.17475 -3.45323,11.60662 -2.11401,17.37616 0.37838,1.63011 0.24111,3.07486 0.295,4.56138 0.033,0.91042 -0.64151,2.03833 -1.16213,1.64553 l -4.81778,-3.63493 c -0.52062,-0.39279 -3.29412,2.90014 -3.2643,1.9894 0.0565,-1.72878 -0.0164,-3.32163 0.31164,-5.4099 0.88653,-5.64368 0.2016,-11.62948 -0.31164,-17.5529 -0.0784,-0.90484 0.53621,-2.10847 1.16682,-2.32093 z"
         sodipodi:nodetypes="sssssssssss" />
      <path
         id="rect1-7-8-5-1-5-4-34-31-3-6-5-5-8-2"
         style="stroke:#ffffff;stroke-width:0.453133;stroke-linejoin:round;stroke-dasharray:none;stroke-dashoffset:0;stroke-opacity:1"
         d="m 248.80461,659.03003 c -0.62285,-0.69964 -2.00014,-1.04147 -3.08805,-0.76643 l -1.28068,0.32376 c -1.08793,0.27503 -1.46233,1.05971 -0.83947,1.75934 0.62284,0.69964 1.64147,0.71058 2.82652,0.57013 1.80001,-0.21327 3.58653,-0.31588 2.38168,-1.8868 z"
         sodipodi:nodetypes="ssssss" />
      <path
         id="rect1-7-8-5-1-5-4-34-0-1-3-9-6-4-0-6"
         style="stroke:#ffffff;stroke-width:0.419911;stroke-linejoin:round;stroke-dasharray:none;stroke-dashoffset:0;stroke-opacity:1"
         d="m 255.94218,660.55888 c -0.72948,-0.58339 -2.13739,-0.82566 -3.15673,-0.54319 l -1.19996,0.33251 c -1.01936,0.28247 -1.2527,0.97955 -0.52323,1.56294 0.72947,0.58341 1.72961,0.55231 2.86704,0.38298 1.7277,-0.25716 3.46101,-0.4176 2.01288,-1.73524 z"
         sodipodi:nodetypes="ssssss" />
      <path
         id="rect1-7-5-6-7-4-6-3-1-3"
         style="stroke:#ffffff;stroke-width:0.374331;stroke-linejoin:round;stroke-dasharray:none;stroke-dashoffset:0;stroke-opacity:1"
         d="m 255.87784,608.38278 0.0408,-3.53891 c 0.017,-1.47188 -2.90483,-1.35351 -3.18644,0.37284 l -0.40194,2.46403 c -0.34759,2.13083 3.52286,2.84958 3.54761,0.70204 z"
         sodipodi:nodetypes="sssss" />
      <path
         id="path1-73-1-5-7-3-7-0"
         style="stroke:#ffffff;stroke-width:0.287201;stroke-linejoin:round;stroke-dasharray:none;stroke-dashoffset:0;stroke-opacity:1"
         d="m 256.99898,602.32773 c -0.50452,2.1619 -1.20507,4.58929 -3.15384,4.59011 -1.94877,8.2e-4 -3.10388,-2.36749 -3.10388,-4.58748 0,-2.22 1.15656,-3.37658 3.10388,-3.45183 2.25026,-0.087 3.70893,1.0706 3.15384,3.4492 z"
         sodipodi:nodetypes="sssss" />
      <path
         id="rect1-7-8-3-2-6-6-1-0-0-7-4"
         style="stroke:#ffffff;stroke-width:0.317429;stroke-linejoin:round;stroke-dasharray:none;stroke-dashoffset:0;stroke-opacity:1"
         d="m 249.59038,619.088 c 0.14859,-0.90799 -0.23405,-1.82126 -0.87967,-1.82673 l -7.77718,-0.0658 c -0.6456,-0.005 -0.96005,0.10984 -1.10857,1.0178 -0.14859,0.90798 0.14144,1.28141 0.78132,1.36284 l 7.5682,0.9631 c 0.63986,0.0815 1.26737,-0.54321 1.4159,-1.4512 z"
         sodipodi:nodetypes="sssssss"
         inkscape:transform-center-x="3.9040867"
         inkscape:transform-center-y="-0.69052498" />
      <g
         id="g6-1-1-4-6-9-1-6-2-7-4-4"
         transform="matrix(0.31046595,0,0,0.31046595,216.51101,563.67347)"
         style="stroke-width:0.756927;stroke-dasharray:none">
        <rect
           style="opacity:1;fill:#000000;stroke:#ffffff;stroke-width:0.756927;stroke-linejoin:round;stroke-dasharray:none"
           id="rect5-8-3-8-1-8-2-2-7-3-8-3"
           width="10.664055"
           height="10.785408"
           x="81.009392"
           y="159.09109" />
        <path
           id="rect5-9-6-4-2-3-0-7-7-8-0-4-5"
           style="fill:#000000;stroke:#ffffff;stroke-width:0.952065;stroke-linejoin:round;stroke-dasharray:none"
           transform="matrix(0.63208417,-0.77489973,0,1,0,0)"
           d="m 145.0336,271.4776 5.6318,-0.31314 1e-5,10.65467 -5.63181,0.44388 z"
           sodipodi:nodetypes="ccccc" />
        <rect
           style="fill:#000000;stroke:#ffffff;stroke-width:0.845887;stroke-linejoin:round;stroke-dasharray:none"
           id="rect5-9-1-3-5-4-3-5-1-4-5-6-2-5"
           width="5.8412356"
           height="10.785408"
           x="-198.68402"
           y="-210.75246"
           transform="matrix(0.59903324,-0.80072416,-1,0,0,0)" />
      </g>
      <path
         id="rect1-7-8-5-1-8-7-5-7-9-2-9-8-5-3"
         style="stroke:#ffffff;stroke-width:0.374331;stroke-linejoin:round;stroke-dasharray:none;stroke-dashoffset:0;stroke-opacity:1"
         d="m 241.1021,618.65539 c 0.37054,-0.70279 0.19044,-1.94677 -0.61043,-1.94273 -0.9894,0.005 -1.82003,-0.51351 -2.38969,0.36178 -0.4519,0.69435 -0.28214,1.82811 0.37765,2.11469 0.73466,0.319 2.25207,0.16914 2.62247,-0.53374 z"
         sodipodi:nodetypes="sssss"
         inkscape:transform-center-x="9.0409262"
         inkscape:transform-center-y="-1.6046153" />
      <path
         id="rect1-7-8-5-5-6-7-7-5-4-9-4-6-1-3-3"
         style="stroke:#ffffff;stroke-width:0.374331;stroke-linejoin:round;stroke-dasharray:none;stroke-dashoffset:0;stroke-opacity:1"
         d="m 240.68003,617.08817 c 0.15634,-0.17559 0.15621,-0.42928 -0.0744,-0.63445 l -1.31173,-1.1683 c -0.23702,-0.21046 -0.5538,-0.23982 -0.71015,-0.0643 -0.15623,0.17564 -0.091,0.48716 0.14573,0.698 l 1.31175,1.16829 c 0.18476,0.16468 0.48244,0.17628 0.6388,6.9e-4 z"
         sodipodi:nodetypes="sssssss"
         inkscape:transform-center-x="8.9646093"
         inkscape:transform-center-y="-3.4004165" />
      <path
         id="rect1-7-8-5-1-5-4-364-1-3-9-8-1-8-3-7"
         style="stroke:#ffffff;stroke-width:0.374331;stroke-linejoin:round;stroke-dasharray:none;stroke-dashoffset:0;stroke-opacity:1"
         d="m 239.50898,618.30496 c 0.23083,-0.76023 -0.20037,-1.55958 -0.96672,-1.79226 l -0.90218,-0.27394 c -0.76639,-0.23268 -1.56919,0.19204 -1.79998,0.95232 -0.23083,0.76022 0.27703,1.17448 0.98751,1.54435 1.07909,0.56191 2.065,1.19924 2.6814,-0.43045 z"
         sodipodi:nodetypes="ssssss"
         inkscape:transform-center-x="10.931154"
         inkscape:transform-center-y="-1.8018625" />
      <path
         id="rect1-7-8-5-1-5-4-8-8-8-1-8-2-1-9"
         style="stroke:#ffffff;stroke-width:0.288532;stroke-linejoin:round;stroke-dasharray:none;stroke-dashoffset:0;stroke-opacity:1"
         d="m 233.66122,614.6755 c 0.53164,-0.2399 1.18426,0.0381 1.46322,0.62336 l 0.32842,0.68889 c 0.27905,0.5852 0.0755,1.2495 -0.45611,1.48938 -0.53165,0.23991 -0.90935,-0.12803 -1.2823,-0.6587 -0.56655,-0.80605 -1.17605,-1.53299 -0.0532,-2.14295 z"
         sodipodi:nodetypes="ssssss"
         inkscape:transform-center-x="5.8348131"
         inkscape:transform-center-y="8.7275249" />
      <path
         id="rect1-7-8-5-5-6-7-3-8-5-2-7-2-9-85"
         style="stroke:#ffffff;stroke-width:0.374331;stroke-linejoin:round;stroke-dasharray:none;stroke-dashoffset:0;stroke-opacity:1"
         d="m 233.8786,613.89796 c -0.18826,-0.14075 -0.23847,-0.38962 -0.0539,-0.63651 l 1.05178,-1.40689 c 0.18979,-0.25389 0.4947,-0.34567 0.68296,-0.20493 0.18826,0.14075 0.18651,0.45917 -0.003,0.71305 l -1.05176,1.40689 c -0.14821,0.19819 -0.43785,0.26852 -0.62577,0.12838 z"
         sodipodi:nodetypes="sssssss"
         inkscape:transform-center-x="5.4350898"
         inkscape:transform-center-y="5.4343373" />
    </g>
  </g>
</svg>
