<?xml version="1.0" encoding="UTF-8" standalone="no"?>
<!-- Created with Inkscape (http://www.inkscape.org/) -->

<svg
   width="68.036346mm"
   height="50.882603mm"
   viewBox="0 0 68.036346 50.882603"
   version="1.1"
   id="svg1"
   xmlns:inkscape="http://www.inkscape.org/namespaces/inkscape"
   xmlns:sodipodi="http://sodipodi.sourceforge.net/DTD/sodipodi-0.dtd"
   xmlns="http://www.w3.org/2000/svg"
   xmlns:svg="http://www.w3.org/2000/svg">
  <sodipodi:namedview
     id="namedview1"
     pagecolor="#ffffff"
     bordercolor="#000000"
     borderopacity="0.25"
     inkscape:showpageshadow="2"
     inkscape:pageopacity="0.0"
     inkscape:pagecheckerboard="0"
     inkscape:deskcolor="#d1d1d1"
     inkscape:document-units="mm" />
  <defs
     id="defs1" />
  <g
     inkscape:label="Layer 1"
     inkscape:groupmode="layer"
     id="layer1"
     transform="translate(739.87929,4.4095157)">
    <g
       id="g30"
       transform="translate(-1354.8458,-1064.6313)">
      <g
         id="g17"
         transform="translate(-4.3263734,7.3802841)">
        <path
           style="fill:#999999;stroke:none;stroke-width:1.1;stroke-linejoin:round;stroke-dasharray:none"
           d="m 627.21355,1052.8415 22.03213,8.7132 -0.41675,11.3498 -22.36869,-9.6406 z"
           id="path10-4-8"
           sodipodi:nodetypes="ccccc" />
        <path
           style="fill:#999999;stroke:none;stroke-width:1.1;stroke-linejoin:round;stroke-dasharray:none"
           d="m 619.29284,1060.1605 37.62532,14.7121 c 0,0 -19.17359,28.8515 -19.70275,28.8515 z"
           id="path11-6-9"
           sodipodi:nodetypes="cccc" />
      </g>
      <g
         id="g7"
         transform="matrix(-1,0,0,1,1303.2773,0)">
        <path
           id="rect1-9-1-95-4-6-40-7-8"
           style="fill:#ffffff;stroke:#000000;stroke-width:0.387927;stroke-linejoin:round;stroke-dasharray:none;stroke-dashoffset:0;stroke-opacity:1"
           inkscape:transform-center-x="6.3489403"
           inkscape:transform-center-y="0.0024464509"
           d="m 624.35052,1073.0565 c -0.55884,0.014 -1.13093,0.1774 -1.7017,0.4961 -1.82644,1.0198 -2.95077,3.2491 -1.56012,5.1748 1.38016,1.9112 4.15688,2.0266 5.98414,1.0315 l -1.21388,4.8963 c -0.0374,0.1508 -0.0441,0.2984 -0.0279,0.4408 -0.002,0.014 -0.005,0.028 -0.006,0.042 l -0.37672,5.655 c -1.06542,0.3875 -2.0097,0.9265 -2.95848,1.4598 -0.60068,0.5298 -0.99391,1.0538 -0.58705,1.7363 0.40683,0.6825 1.28815,0.9016 1.97611,0.4915 0.8361,-0.3173 1.70087,-0.8085 2.65617,-1.1276 0.76296,-0.3824 1.30586,-0.8708 1.26297,-1.6412 l 1.34876,-6.4177 c 10e-4,-0.01 0.002,-0.014 0.003,-0.021 0.054,-0.1046 0.10087,-0.2135 0.13952,-0.3256 l 1.5875,-4.6023 c 0.33159,0.4467 0.72974,0.8154 1.17823,1.1255 l -0.56224,6.9795 c -0.004,0.045 -0.003,0.089 -0.002,0.1333 -0.0398,0.076 -0.0676,0.1574 -0.0786,0.2449 l -0.59634,4.7951 c -0.47549,-0.021 -1.42225,0.3647 -1.74271,0.5316 l -1.14416,0.7858 c -0.60068,0.5298 -0.9944,1.0539 -0.58756,1.7363 0.40683,0.6825 1.28817,0.9022 1.97611,0.492 0.71588,-0.5283 1.56292,-0.7227 2.39749,-0.9888 0.8846,-0.1771 1.08488,-0.6342 1.33015,-1.0728 l 1.63194,-5.6487 c 0.0427,-0.1478 0.0332,-0.2979 -0.0176,-0.4434 0.13362,-0.2316 0.22741,-0.4896 0.2713,-0.7596 l 0.88573,-5.4488 c 2.74422,0.4514 5.99701,0.3517 8.82996,0.8532 0.49892,0.088 0.64258,0.4492 0.65164,0.9301 l -3.23288,7.7277 c -1.06274,2.2508 2.50882,3.7012 3.71398,3.0815 l 11.7011,-5.2979 c 0.0921,0.1792 0.2006,0.3489 0.32659,0.5023 l 0.8537,1.0408 c 0.72551,0.8837 1.71863,0.9038 2.22622,0.045 0.50762,-0.8587 0.1171,-1.797 -0.50178,-2.8252 -0.26694,-0.4435 -0.5235,-0.8868 -0.78238,-1.2583 l -0.009,-0.029 1.23455,0.6822 c 0.21484,0.1187 0.44535,0.1945 0.67748,0.2258 0.32892,0.6891 1.13772,1.0981 1.95802,0.8883 4.39819,-1.5984 9.45835,-1.749 13.53008,-4.0661 0.52878,0.1311 2.13641,0.1061 2.82602,0.1666 1.19548,0.1048 2.20962,0.044 2.75849,-0.7891 0.54888,-0.833 0.095,-1.7163 -1.01751,-1.9802 l -1.30948,-0.3106 c -0.8359,-0.1984 -2.72103,0.079 -3.38102,0.5481 -0.64029,-0.053 -1.12563,0.056 -1.83257,0.1474 l -11.18127,1.3119 c -0.0238,-0.021 -0.0468,-0.042 -0.0723,-0.062 l -10.19731,-7.754 c -0.26608,-0.2021 -0.59112,-0.2888 -0.91984,-0.2755 -1.98275,-0.9151 -2.90423,-0.6004 -4.86844,-0.4583 -5.78429,0.4183 -8.02497,0.901 -13.61364,-1.1922 -0.5733,-0.2148 -2.2733,-0.6593 -3.36413,-0.6558 -0.10605,-0.035 -0.21062,-0.06 -0.3111,-0.068 -0.72338,-0.061 -1.68595,0.4465 -2.15129,1.1069 l -0.68833,-0.051 c -0.95002,-1.2949 -2.10399,-1.9667 -3.31969,-1.9352 z m 27.81484,10.4164 5.42654,2.9983 c -0.0652,0.014 -0.1303,0.03 -0.19533,0.051 l -8.16385,2.6226 z"
           sodipodi:nodetypes="cssccccccsccccccccccccccscccccscsccccccssccscccssssccccccsscsccscccccc" />
        <path
           id="rect1-9-1-95-4-6-40-7-8-3"
           style="fill:#333333;stroke:none;stroke-width:0.387927;stroke-linejoin:round;stroke-dasharray:none;stroke-dashoffset:0;stroke-opacity:1"
           inkscape:transform-center-x="6.3489403"
           inkscape:transform-center-y="0.0024464509"
           d="m 626.56951,1081.7898 -0.71055,2.8654 c -0.0374,0.1508 -0.0441,0.2984 -0.0279,0.4408 -0.002,0.014 -0.005,0.028 -0.006,0.042 l -0.37672,5.655 c -1.06542,0.3875 -2.0097,0.9265 -2.95848,1.4598 -0.60068,0.5298 -0.9939,1.0538 -0.58704,1.7363 0.40683,0.6825 1.28815,0.9016 1.97611,0.4915 0.83609,-0.3173 1.70086,-0.8085 2.65616,-1.1276 0.76296,-0.3824 1.30587,-0.8708 1.26298,-1.6412 l 1.34875,-6.4177 c 10e-4,-0.01 0.002,-0.014 0.003,-0.021 0.054,-0.1046 0.10088,-0.2135 0.13953,-0.3256 l 1.08934,-3.1579 z m 5.45961,0 -0.5364,6.6606 c -0.004,0.045 -0.003,0.089 -0.002,0.1333 -0.0398,0.076 -0.0675,0.1574 -0.0785,0.2449 l -0.59635,4.7951 c -0.47549,-0.021 -1.42207,0.3643 -1.74253,0.5312 l -1.14412,0.786 c -0.60068,0.5298 -0.9944,1.0539 -0.58756,1.7363 0.40683,0.6825 1.28817,0.9022 1.97611,0.492 0.71588,-0.5283 1.5627,-0.7225 2.39727,-0.9886 0.8846,-0.1771 1.08488,-0.6342 1.33015,-1.0728 l 1.63194,-5.6487 c 0.0427,-0.1478 0.0332,-0.2979 -0.0176,-0.4434 0.13362,-0.2316 0.22741,-0.4896 0.2713,-0.7596 l 0.88574,-5.4488 c 2.74421,0.4514 5.997,0.3517 8.82995,0.8532 0.49892,0.088 0.64258,0.4492 0.65164,0.9301 l -3.23288,7.7277 c -1.06274,2.2508 2.50883,3.7012 3.71399,3.0815 l 11.70109,-5.2979 c 0.0921,0.1792 0.20061,0.3489 0.3266,0.5023 l 0.85369,1.0408 c 0.72551,0.8837 1.71863,0.9038 2.22622,0.045 0.50762,-0.8587 0.1171,-1.797 -0.50178,-2.8252 -0.26694,-0.4435 -0.5235,-0.8868 -0.78238,-1.2583 l -0.009,-0.029 1.23455,0.6822 c 0.21484,0.1187 0.44535,0.1945 0.67748,0.2258 0.32892,0.6891 1.13772,1.0981 1.95802,0.8883 4.39818,-1.5984 9.45819,-1.7493 13.52992,-4.0664 0.52878,0.1311 2.13657,0.1064 2.82618,0.1669 1.19548,0.1048 2.20962,0.044 2.75849,-0.7891 0.54888,-0.833 0.095,-1.7163 -1.01751,-1.9802 l -1.30948,-0.3106 c -0.8359,-0.1984 -2.7212,0.079 -3.38119,0.5478 -0.64029,-0.053 -1.1255,0.056 -1.83244,0.1478 l -11.18123,1.3115 c -0.0238,-0.021 -0.0468,-0.042 -0.0723,-0.062 l -3.35328,-2.5497 z m 20.13624,1.6831 5.42654,2.9983 c -0.0652,0.014 -0.1303,0.03 -0.19533,0.051 l -8.16385,2.6226 z" />
        <path
           id="rect1-9-1-95-4-6-40-7-8-3-5"
           style="fill:#000000;stroke:none;stroke-width:0.387927;stroke-linejoin:round;stroke-dasharray:none;stroke-dashoffset:0;stroke-opacity:1"
           inkscape:transform-center-x="6.3489403"
           inkscape:transform-center-y="0.0024464509"
           d="m 625.54425,1089.348 -0.0961,1.4449 c -1.06542,0.3875 -2.0097,0.9265 -2.95848,1.4598 -0.60068,0.5298 -0.9939,1.0538 -0.58704,1.7363 0.40683,0.6825 1.28815,0.9016 1.97611,0.4915 0.83608,-0.3173 1.70086,-0.8085 2.65616,-1.1276 0.76296,-0.3824 1.30587,-0.8708 1.26298,-1.6412 l 0.49661,-2.3637 z m 5.80326,0 -0.53175,4.2757 c -0.47549,-0.021 -1.42207,0.3643 -1.74253,0.5312 l -1.14412,0.786 c -0.60068,0.5298 -0.9944,1.0539 -0.58756,1.7363 0.40683,0.6825 1.28817,0.9022 1.97611,0.492 0.71588,-0.5283 1.5627,-0.7225 2.39727,-0.9886 0.8846,-0.1771 1.08488,-0.6342 1.33015,-1.0728 l 1.63194,-5.6487 c 0.0107,-0.037 0.009,-0.074 0.0129,-0.1111 z m 11.96051,0 -1.24282,2.9703 c -1.06274,2.2508 2.50883,3.7012 3.71399,3.0815 l 11.70109,-5.2979 c 0.0921,0.1792 0.20061,0.3489 0.3266,0.5023 l 0.85369,1.0408 c 0.72551,0.8837 1.71863,0.9038 2.22622,0.045 0.42635,-0.7213 0.20523,-1.5024 -0.23874,-2.342 z m 19.21175,0 c 0.29354,0.091 0.61679,0.1094 0.94361,0.026 0.0251,-0.01 0.0508,-0.017 0.076,-0.026 z" />
      </g>
    </g>
  </g>
</svg>
