<?xml version="1.0" encoding="UTF-8" standalone="no"?>
<!-- Created with Inkscape (http://www.inkscape.org/) -->

<svg
   width="42.582478mm"
   height="65.727097mm"
   viewBox="0 0 42.582478 65.727097"
   version="1.1"
   id="svg1"
   xmlns:inkscape="http://www.inkscape.org/namespaces/inkscape"
   xmlns:sodipodi="http://sodipodi.sourceforge.net/DTD/sodipodi-0.dtd"
   xmlns="http://www.w3.org/2000/svg"
   xmlns:svg="http://www.w3.org/2000/svg">
  <sodipodi:namedview
     id="namedview1"
     pagecolor="#ffffff"
     bordercolor="#000000"
     borderopacity="0.25"
     inkscape:showpageshadow="2"
     inkscape:pageopacity="0.0"
     inkscape:pagecheckerboard="0"
     inkscape:deskcolor="#d1d1d1"
     inkscape:document-units="mm" />
  <defs
     id="defs1" />
  <g
     inkscape:label="Layer 1"
     inkscape:groupmode="layer"
     id="layer1"
     transform="translate(727.15236,-315.83193)">
    <g
       id="g97"
       transform="translate(-1519.3958,-665.26517)">
      <path
         id="rect1-9-4-4-31-7-1-4-3-0-5-7-5-8"
         style="stroke:#ffffff;stroke-width:0.387927;stroke-linejoin:round;stroke-dasharray:none;stroke-dashoffset:0;stroke-opacity:1"
         d="m 827.8997,1028.9531 1.60066,-0.1868 c 0.90456,-0.1056 1.83601,0.5876 1.83781,1.5666 l 0.0257,13.9986 c 0.002,0.9791 0.1686,1.6284 -0.73595,1.734 l -0.72155,0.084 c -0.90455,0.1055 -1.7242,-0.5932 -1.8378,-1.5666 l -1.5966,-13.6823 c -0.1136,-0.9735 0.52316,-1.8422 1.42771,-1.9477 z"
         sodipodi:nodetypes="sssssssss" />
      <path
         id="rect1-9-1-95-4-0-1-8-0-2-1-8-9"
         style="stroke:#ffffff;stroke-width:0.387927;stroke-linejoin:round;stroke-dasharray:none;stroke-dashoffset:0;stroke-opacity:1"
         d="m 821.45828,1027.5667 h 1.61153 c 0.91068,0 1.68037,0.7898 1.64383,1.7691 l -0.51391,13.7751 c -0.0365,0.9793 -0.73315,1.7691 -1.64384,1.7691 h -0.61225 c -0.91069,0 -0.87342,-0.7931 -0.95651,-1.7691 l -1.1727,-13.7751 c -0.0831,-0.976 0.73316,-1.7691 1.64385,-1.7691 z"
         sodipodi:nodetypes="sssssssss" />
      <path
         id="rect1-7-8-5-1-5-4-34-31-3-6-5-5-8-2-4-3-5"
         style="stroke:#ffffff;stroke-width:0.453133;stroke-linejoin:round;stroke-dasharray:none;stroke-dashoffset:0;stroke-opacity:1"
         d="m 823.45307,1043.2422 c -0.62285,-0.6996 -2.00014,-1.0414 -3.08805,-0.7664 l -1.28068,0.3238 c -1.08793,0.275 -1.46233,1.0597 -0.83947,1.7593 0.62284,0.6996 1.64147,0.7106 2.82652,0.5701 1.80001,-0.2132 3.58653,-0.3159 2.38168,-1.8868 z"
         sodipodi:nodetypes="ssssss" />
      <path
         id="rect1-7-8-5-1-5-4-34-0-1-3-9-6-4-0-6-7-6-8"
         style="stroke:#ffffff;stroke-width:0.419911;stroke-linejoin:round;stroke-dasharray:none;stroke-dashoffset:0;stroke-opacity:1"
         d="m 830.59064,1044.7711 c -0.72948,-0.5834 -2.13739,-0.8257 -3.15673,-0.5432 l -1.19996,0.3325 c -1.01936,0.2825 -1.2527,0.9796 -0.52323,1.5629 0.72947,0.5835 1.72961,0.5524 2.86704,0.383 1.7277,-0.2571 3.46101,-0.4176 2.01288,-1.7352 z"
         sodipodi:nodetypes="ssssss" />
      <g
         id="g96">
        <path
           id="rect1-7-8-5-5-6-7-3-8-5-1-5-5-6"
           style="stroke:#ffffff;stroke-width:0.374331;stroke-linejoin:round;stroke-dasharray:none;stroke-dashoffset:0;stroke-opacity:1"
           d="m 809.95181,998.79348 c 0.0427,-0.2311 -0.0893,-0.4479 -0.39252,-0.5039 l -1.72738,-0.319 c -0.31171,-0.058 -0.5979,0.082 -0.64058,0.3132 -0.0427,0.2312 0.17475,0.4638 0.48648,0.5213 l 1.72738,0.319 c 0.24337,0.045 0.50393,-0.099 0.54662,-0.3306 z"
           sodipodi:nodetypes="sssssss" />
        <path
           id="rect1-7-3-7-0-3-9-3-9-7-1-5-7"
           style="stroke:#ffffff;stroke-width:0.374331;stroke-linejoin:round;stroke-dasharray:none;stroke-dashoffset:0;stroke-opacity:1"
           d="m 826.06199,993.59108 c 0.50801,0.7481 0.31335,2.438 -0.52917,2.7862 l -6.69279,2.7655 c -0.84252,0.3482 -1.87091,0.1377 -2.37886,-0.6105 -0.50793,-0.7482 -0.35017,-1.798 0.44706,-2.2401 l 6.39199,-3.545 c 0.79723,-0.4422 2.2538,0.096 2.76174,0.8439 z"
           sodipodi:nodetypes="ssssssss"
           inkscape:transform-center-x="4.9372213"
           inkscape:transform-center-y="2.3757066" />
        <path
           id="rect1-7-8-30-8-6-6-5-6-4-9-9-2-8"
           style="stroke:#ffffff;stroke-width:0.313714;stroke-linejoin:round;stroke-dasharray:none;stroke-dashoffset:0;stroke-opacity:1"
           d="m 818.71369,997.37138 c 0.30013,0.8708 0.0867,1.8178 -0.531,1.9416 l -7.17622,1.43822 c -0.61776,0.1238 -0.94351,0.046 -1.24365,-0.82462 -0.30014,-0.8708 -0.0801,-1.2684 0.51656,-1.4686 l 6.81972,-2.2887 c 0.59668,-0.2002 1.3144,0.3313 1.61456,1.2021 z"
           sodipodi:nodetypes="sssssss"
           inkscape:transform-center-x="3.4714137"
           inkscape:transform-center-y="1.2479144" />
        <path
           id="rect1-7-2-76-1-7-2-6-7-2-5-0-1-3"
           style="stroke:#ffffff;stroke-width:0.374331;stroke-linejoin:round;stroke-dasharray:none;stroke-dashoffset:0;stroke-opacity:1"
           d="m 834.63869,995.98478 c -0.0195,-0.9041 -1.30442,-1.5689 -2.01507,-0.998 l -7.36314,5.91482 c -0.71071,0.5709 -1.57799,1.0145 -1.53422,1.9178 0.0438,0.9033 0.88775,1.928 1.70377,1.5216 l 7.92904,-3.9492 c 0.68264,-0.59442 1.2819,-2.72812 1.27962,-4.40702 z"
           sodipodi:nodetypes="csssscc"
           inkscape:transform-center-x="3.8014056"
           inkscape:transform-center-y="2.0989427" />
        <path
           id="rect1-9-69-4-8-4-7-7-73-7-93-1"
           style="stroke:#ffffff;stroke-width:0.359059;stroke-linejoin:round;stroke-dasharray:none;stroke-dashoffset:0;stroke-opacity:1"
           d="m 824.94684,1014.1382 2.54141,0.6648 c 0.88295,0.231 2.28297,1.4044 1.96943,2.1827 l -4.77553,11.8551 c -0.31352,0.7783 -1.07539,1.2924 -1.96153,1.0739 l -1.56809,-0.3866 c -0.88613,-0.2185 -1.43475,-1.0484 -1.23752,-1.8626 l 3.01579,-12.4503 c 0.19755,-0.8142 1.13308,-1.308 2.01603,-1.077 z"
           sodipodi:nodetypes="ssssssssss" />
        <path
           id="rect1-9-4-41-7-6-1-1-5-8-1-8-4"
           style="stroke:#ffffff;stroke-width:0.359059;stroke-linejoin:round;stroke-dasharray:none;stroke-dashoffset:0;stroke-opacity:1"
           d="m 828.21572,1014.3282 2.73139,0.3113 c 0.90675,0.1033 1.63432,0.8667 1.55857,1.7011 l -1.1552,12.726 c -0.0754,0.8344 -0.86256,1.4432 -1.77184,1.3644 l -1.609,-0.1394 c -0.90927,-0.079 -1.45037,-0.8116 -1.51072,-1.6489 l -0.94249,-13.0758 c -0.0604,-0.8373 1.79253,-1.342 2.69928,-1.2387 z"
           sodipodi:nodetypes="sssssssss" />
        <path
           id="rect1-0-0-2-5-8-0-4-2-02-6"
           style="stroke:none;stroke-width:0.314577;stroke-linejoin:round;stroke-dasharray:none;stroke-dashoffset:0;stroke-opacity:1"
           d="m 824.29803,992.11648 c 3.00028,-1.0108 4.94787,0.4451 6.95399,1.0834 0.62816,0.1999 2.9867,1.3534 2.94241,2.2628 -0.30075,6.17482 -3.45323,11.60662 -2.11401,17.37622 0.37838,1.6301 0.24111,3.0748 0.295,4.5614 0.033,0.9104 -0.64151,2.0383 -1.16213,1.6455 l -4.81778,-3.6349 c -0.52062,-0.3928 -3.29412,2.9001 -3.2643,1.9894 0.0565,-1.7288 -0.0164,-3.3217 0.31164,-5.4099 0.88653,-5.6437 0.2016,-11.6295 -0.31164,-17.55292 -0.0784,-0.9049 0.53621,-2.1085 1.16682,-2.321 z"
           sodipodi:nodetypes="sssssssssss" />
        <path
           id="rect1-7-5-6-7-4-6-3-1-3-5-9-4"
           style="stroke:#ffffff;stroke-width:0.374331;stroke-linejoin:round;stroke-dasharray:none;stroke-dashoffset:0;stroke-opacity:1"
           d="m 830.5263,992.59498 0.0408,-3.5389 c 0.017,-1.4719 -2.90483,-1.3535 -3.18644,0.3728 l -0.40194,2.464 c -0.34759,2.1309 3.52286,2.8496 3.54761,0.7021 z"
           sodipodi:nodetypes="sssss" />
        <path
           id="path1-73-1-5-7-3-7-0-4-5-0"
           style="stroke:#ffffff;stroke-width:0.287201;stroke-linejoin:round;stroke-dasharray:none;stroke-dashoffset:0;stroke-opacity:1"
           d="m 831.64744,986.53988 c -0.50452,2.1619 -1.20507,4.5893 -3.15384,4.5901 -1.94877,9e-4 -3.10388,-2.3675 -3.10388,-4.5874 0,-2.2201 1.15656,-3.3766 3.10388,-3.4519 2.25026,-0.087 3.70893,1.0706 3.15384,3.4492 z"
           sodipodi:nodetypes="sssss" />
        <path
           id="rect1-7-8-3-2-6-6-1-0-0-7-4-5-0-5"
           style="stroke:#ffffff;stroke-width:0.317429;stroke-linejoin:round;stroke-dasharray:none;stroke-dashoffset:0;stroke-opacity:1"
           d="m 828.9898,1001.9456 c 0.20934,-0.8959 -0.11096,-1.8328 -0.75477,-1.8817 l -7.75508,-0.58922 c -0.64379,-0.049 -0.96525,0.045 -1.17455,0.94082 -0.20939,0.896 0.0549,1.2881 0.6878,1.4124 l 7.4862,1.4704 c 0.63291,0.1244 1.30105,-0.4567 1.5104,-1.3527 z"
           sodipodi:nodetypes="sssssss"
           inkscape:transform-center-x="3.8744428"
           inkscape:transform-center-y="-0.26836482" />
        <path
           id="rect1-7-8-5-1-8-7-5-7-9-2-9-8-5-3-1-48-5"
           style="stroke:#ffffff;stroke-width:0.374331;stroke-linejoin:round;stroke-dasharray:none;stroke-dashoffset:0;stroke-opacity:1"
           d="m 819.51629,1001.1971 c 0.39543,-0.689 0.25993,-1.93872 -0.5406,-1.96332 -0.98893,-0.03 -1.80049,-0.5783 -2.40109,0.2761 -0.47644,0.67782 -0.34734,1.81692 0.30176,2.12692 0.72269,0.3452 2.24462,0.2495 2.63993,-0.4397 z"
           sodipodi:nodetypes="sssss"
           inkscape:transform-center-x="10.009262"
           inkscape:transform-center-y="-1.2259099" />
        <path
           id="rect1-7-8-5-5-6-7-7-5-4-9-4-6-1-3-3-2-8-5"
           style="stroke:#ffffff;stroke-width:0.374331;stroke-linejoin:round;stroke-dasharray:none;stroke-dashoffset:0;stroke-opacity:1"
           d="m 819.04741,999.63538 c 0.16255,-0.1699 0.1715,-0.4234 -0.0516,-0.6367 l -1.26913,-1.2145 c -0.22939,-0.2187 -0.54468,-0.2598 -0.70737,-0.09 -0.16237,0.17 -0.10839,0.4837 0.12068,0.7028 l 1.26913,1.2144 c 0.17865,0.1714 0.47584,0.1935 0.63837,0.024 z"
           sodipodi:nodetypes="sssssss"
           inkscape:transform-center-x="9.9724757"
           inkscape:transform-center-y="-2.9874201" />
        <path
           id="rect1-7-8-5-1-5-4-364-1-3-9-8-1-8-3-7-2-5-8"
           style="stroke:#ffffff;stroke-width:0.374331;stroke-linejoin:round;stroke-dasharray:none;stroke-dashoffset:0;stroke-opacity:1"
           d="m 817.93672,1000.7899 c 0.25787,-0.7515 -0.1445,-1.56572 -0.90201,-1.82572 l -0.89181,-0.306 c -0.7576,-0.2599 -1.57509,0.1359 -1.83291,0.8874 -0.25787,0.75152 0.23486,1.18362 0.93166,1.57862 1.05854,0.5998 2.02079,1.2724 2.69505,-0.3342 z"
           sodipodi:nodetypes="ssssss"
           inkscape:transform-center-x="11.891028"
           inkscape:transform-center-y="-1.4741885" />
        <path
           id="rect1-7-8-5-1-8-52-7-5-6-4-0-5"
           style="stroke:#ffffff;stroke-width:0.374331;stroke-linejoin:round;stroke-dasharray:none;stroke-dashoffset:0;stroke-opacity:1"
           d="m 810.63944,1000.4585 c 0.27331,-0.74602 -0.0709,-1.95482 -0.86414,-1.84392 -0.9799,0.1369 -1.8723,-0.2662 -2.32009,0.6773 -0.35524,0.74842 -0.0357,1.84942 0.6564,2.04542 0.77064,0.2182 2.25452,-0.1328 2.52783,-0.8788 z"
           sodipodi:nodetypes="sssss" />
        <path
           id="rect1-7-8-5-1-5-4-8-8-8-0-9-4-8"
           style="stroke:#ffffff;stroke-width:0.374331;stroke-linejoin:round;stroke-dasharray:none;stroke-dashoffset:0;stroke-opacity:1"
           d="m 808.93249,999.57208 c -0.4868,-0.6279 -1.38829,-0.7384 -2.02126,-0.2476 l -0.74513,0.5777 c -0.63299,0.49072 -0.75065,1.39132 -0.26386,2.01922 0.4868,0.6279 1.11844,0.4531 1.83103,0.087 1.08238,-0.5556 2.17247,-0.9913 1.19922,-2.43662 z"
           sodipodi:nodetypes="ssssss" />
        <path
           style="opacity:1;fill:none;stroke:#000000;stroke-width:0.997;stroke-linejoin:round;stroke-dasharray:none"
           d="m 812.61964,981.18648 c -1.22587,6.7243 -5.68276,8.2961 -7.20294,14.3123 -0.99211,3.9264 -0.40261,8.75722 2.05798,11.97372 2.79192,3.6497 6.48613,1.5393 8.69964,8.3254"
           id="path70"
           sodipodi:nodetypes="caac" />
        <path
           style="opacity:1;fill:none;stroke:#000000;stroke-width:0.897;stroke-linejoin:round;stroke-dasharray:none"
           d="m 816.15158,999.63488 -23.90187,0.3339"
           id="path71" />
      </g>
    </g>
  </g>
</svg>
