<?xml version="1.0" encoding="UTF-8" standalone="no"?>
<!-- Created with Inkscape (http://www.inkscape.org/) -->

<svg
   width="33.261536mm"
   height="64.207771mm"
   viewBox="0 0 33.261536 64.207771"
   version="1.1"
   id="svg1"
   xmlns:inkscape="http://www.inkscape.org/namespaces/inkscape"
   xmlns:sodipodi="http://sodipodi.sourceforge.net/DTD/sodipodi-0.dtd"
   xmlns="http://www.w3.org/2000/svg"
   xmlns:svg="http://www.w3.org/2000/svg">
  <sodipodi:namedview
     id="namedview1"
     pagecolor="#ffffff"
     bordercolor="#000000"
     borderopacity="0.25"
     inkscape:showpageshadow="2"
     inkscape:pageopacity="0.0"
     inkscape:pagecheckerboard="0"
     inkscape:deskcolor="#d1d1d1"
     inkscape:document-units="mm" />
  <defs
     id="defs1" />
  <g
     inkscape:label="Layer 1"
     inkscape:groupmode="layer"
     id="layer1"
     transform="translate(1010.1187,-424.44268)">
    <g
       id="g40"
       transform="translate(-606.70342,420.49283)">
      <path
         id="rect1-7-2-76-1-7-2-6-7-2-4"
         style="stroke:#ffffff;stroke-width:0.374331;stroke-linejoin:round;stroke-dasharray:none;stroke-dashoffset:0;stroke-opacity:1"
         d="m -370.95621,14.98095 c -0.60899,-0.66853 -2.61293,-0.94369 -2.83537,-0.0597 l -2.25016,8.94229 c -0.22245,0.88407 -0.52235,1.80179 0.10435,2.45373 0.62671,0.65195 1.9848,0.88788 2.28416,0.0268 l 2.95037,-8.48652 c 0.21355,-0.61427 0.42247,-1.8117 0.34215,-2.38061 -0.0323,-0.22859 -0.0633,0.0882 -0.23329,-0.0984 z"
         sodipodi:nodetypes="sssssssss"
         inkscape:transform-center-x="1.2989776"
         inkscape:transform-center-y="4.2610447" />
      <path
         id="rect1-7-3-7-0-3-9-3-9-2"
         style="stroke:#ffffff;stroke-width:0.374331;stroke-linejoin:round;stroke-dasharray:none;stroke-dashoffset:0;stroke-opacity:1"
         d="m -380.22703,13.60082 c 0.8248,0.37078 1.57978,1.93826 1.01015,2.65 l -7.24775,9.05606 c -0.56962,0.71175 -1.52097,1.09813 -2.34577,0.72733 -0.8248,-0.37079 -1.31073,-1.39107 -0.79378,-2.14196 l 6.58297,-9.5621 c 0.51694,-0.75089 1.96939,-1.10012 2.79418,-0.72933 z"
         sodipodi:nodetypes="sssssss"
         inkscape:transform-center-x="2.840698"
         inkscape:transform-center-y="4.6739625" />
      <path
         id="rect1-9-4-4-31-7-1-4-3-0-2"
         style="stroke:#ffffff;stroke-width:0.387927;stroke-linejoin:round;stroke-dasharray:none;stroke-dashoffset:0;stroke-opacity:1"
         d="m -375.65652,50.28651 1.60066,-0.18679 c 0.90456,-0.10555 1.83601,0.58757 1.83781,1.56661 l 0.0257,13.99861 c 0.002,0.97906 0.1686,1.62841 -0.73595,1.73396 l -0.72155,0.0842 c -0.90455,0.10555 -1.7242,-0.59316 -1.8378,-1.56662 l -1.5966,-13.6823 c -0.1136,-0.97345 0.52316,-1.84212 1.42771,-1.94767 z"
         sodipodi:nodetypes="sssssssss" />
      <path
         id="rect1-9-1-95-4-0-1-8-0-4"
         style="stroke:#ffffff;stroke-width:0.387927;stroke-linejoin:round;stroke-dasharray:none;stroke-dashoffset:0;stroke-opacity:1"
         d="m -384.61148,48.56942 h 1.61153 c 0.91068,0 1.68037,0.78979 1.64383,1.76907 l -0.51391,13.77514 c -0.0365,0.97927 -0.73315,1.76907 -1.64384,1.76907 h -0.61225 c -0.91069,0 -0.87342,-0.7931 -0.95651,-1.76907 l -1.1727,-13.77514 c -0.0831,-0.97598 0.73316,-1.76907 1.64385,-1.76907 z"
         sodipodi:nodetypes="sssssssss" />
      <path
         id="rect1-9-69-4-8-4-7-7-7"
         style="stroke:#ffffff;stroke-width:0.359059;stroke-linejoin:round;stroke-dasharray:none;stroke-dashoffset:0;stroke-opacity:1"
         d="m -381.12292,35.1409 2.54141,0.66485 c 0.88295,0.23095 2.28297,1.40433 1.96943,2.18267 l -4.77553,11.85505 c -0.31352,0.77834 -1.07539,1.29243 -1.96153,1.07395 l -1.56809,-0.3866 c -0.88613,-0.21848 -1.43475,-1.04841 -1.23752,-1.86266 l 3.01579,-12.45028 c 0.19755,-0.81417 1.13308,-1.30793 2.01603,-1.07696 z"
         sodipodi:nodetypes="ssssssssss" />
      <path
         id="rect1-9-4-41-7-6-1-1-5-9"
         style="stroke:#ffffff;stroke-width:0.359059;stroke-linejoin:round;stroke-dasharray:none;stroke-dashoffset:0;stroke-opacity:1"
         d="m -375.50821,35.66162 2.73139,0.3113 c 0.90675,0.10334 1.63432,0.86672 1.55857,1.70109 l -1.1552,12.72605 c -0.0754,0.8344 -0.86256,1.4432 -1.77184,1.3644 l -1.609,-0.13943 c -0.90927,-0.0788 -1.45037,-0.81158 -1.51072,-1.64885 l -0.94249,-13.07583 c -0.0604,-0.83728 1.79253,-1.34203 2.69928,-1.23869 z"
         sodipodi:nodetypes="sssssssss" />
      <path
         id="rect1-0-0-2-5-8-0-3"
         style="stroke:none;stroke-width:0.351231;stroke-linejoin:round;stroke-dasharray:none;stroke-dashoffset:0;stroke-opacity:1"
         d="m -381.48231,13.11924 c 3.74019,-1.01083 6.16808,0.4451 8.66893,1.08341 0.78307,0.19987 1.45566,0.32806 1.40044,1.23752 -0.37491,6.17475 -2.03724,12.63188 -0.36775,18.40141 0.47169,1.63011 0.30057,3.07486 0.36775,4.56138 0.0411,0.91042 -0.66528,1.47127 -1.44872,1.64553 l -5.9476,1.32292 c -0.78345,0.17426 -4.16479,-2.05771 -4.12762,-2.96845 0.0705,-1.72878 -0.0204,-3.32163 0.38849,-5.4099 1.10517,-5.64367 0.25132,-11.62947 -0.38849,-17.55289 -0.0977,-0.90484 0.66845,-2.10847 1.45457,-2.32093 z"
         sodipodi:nodetypes="sssssssssss" />
      <path
         id="rect1-7-8-5-1-5-4-34-31-3-6-5-5-8-7"
         style="stroke:#ffffff;stroke-width:0.453133;stroke-linejoin:round;stroke-dasharray:none;stroke-dashoffset:0;stroke-opacity:1"
         d="m -382.61669,64.24493 c -0.62285,-0.69964 -2.00014,-1.04147 -3.08805,-0.76643 l -1.28068,0.32376 c -1.08793,0.27503 -1.46233,1.05971 -0.83947,1.75934 0.62284,0.69964 1.64147,0.71058 2.82652,0.57013 1.80001,-0.21327 3.58653,-0.31588 2.38168,-1.8868 z"
         sodipodi:nodetypes="ssssss" />
      <path
         id="rect1-7-8-5-1-5-4-34-0-1-3-9-6-4-0-4"
         style="stroke:#ffffff;stroke-width:0.419911;stroke-linejoin:round;stroke-dasharray:none;stroke-dashoffset:0;stroke-opacity:1"
         d="m -372.96558,66.10451 c -0.72948,-0.58339 -2.13739,-0.82566 -3.15673,-0.54319 l -1.19996,0.33251 c -1.01936,0.28247 -1.2527,0.97955 -0.52323,1.56294 0.72947,0.58341 1.72961,0.55231 2.86704,0.38298 1.7277,-0.25716 3.46101,-0.4176 2.01288,-1.73524 z"
         sodipodi:nodetypes="ssssss" />
      <path
         id="rect1-7-5-6-7-4-6-3-1-0"
         style="stroke:#ffffff;stroke-width:0.374331;stroke-linejoin:round;stroke-dasharray:none;stroke-dashoffset:0;stroke-opacity:1"
         d="m -375.04737,12.73779 -0.45532,-2.67901 c -0.24664,-1.45117 -2.90483,-1.35351 -3.18644,0.37284 l -0.40194,2.46403 c -0.34759,2.13083 4.40356,1.95946 4.0437,-0.15786 z"
         sodipodi:nodetypes="sssss" />
      <path
         id="path1-73-1-5-7-3-7-7"
         style="stroke:#ffffff;stroke-width:0.287201;stroke-linejoin:round;stroke-dasharray:none;stroke-dashoffset:0;stroke-opacity:1"
         d="m -374.42232,7.54395 c 0,2.21999 -1.20507,4.58879 -3.15384,4.58879 -1.94877,0 -3.10388,-2.3688 -3.10388,-4.58879 0,-2.22 1.15511,-3.45052 3.10388,-3.45052 1.94877,0 3.15384,1.23052 3.15384,3.45052 z"
         sodipodi:nodetypes="sssss" />
      <path
         id="rect1-7-8-30-8-6-6-5-6-4-1"
         style="stroke:#ffffff;stroke-width:0.313714;stroke-linejoin:round;stroke-dasharray:none;stroke-dashoffset:0;stroke-opacity:1"
         d="m -387.35544,24.20233 c 0.36592,0.84528 0.22564,1.80583 -0.38081,1.97656 l -7.04508,1.98327 c -0.60646,0.17072 -0.93717,0.11837 -1.3031,-0.7269 -0.36592,-0.84529 -0.17697,-1.25856 0.40264,-1.5039 l 6.62451,-2.80401 c 0.57961,-0.24533 1.33591,0.2297 1.70184,1.07498 z"
         sodipodi:nodetypes="sssssss"
         inkscape:transform-center-x="0.6365368"
         inkscape:transform-center-y="2.8354277" />
      <path
         id="rect1-7-8-5-1-8-52-7-5-7-4-5-4-4"
         style="stroke:#ffffff;stroke-width:0.374331;stroke-linejoin:round;stroke-dasharray:none;stroke-dashoffset:0;stroke-opacity:1"
         d="m -397.66153,26.21123 c 0.74452,-0.27735 1.95514,0.0604 1.84857,0.85414 -0.13165,0.98063 0.27625,1.87082 -0.66474,2.32372 -0.74649,0.35929 -1.84919,0.0457 -2.04893,-0.64533 -0.22236,-0.76943 0.1206,-2.25518 0.86512,-2.53253 z"
         sodipodi:nodetypes="sssss" />
      <path
         id="rect1-7-8-5-1-5-4-8-8-8-1-8-2-1-8"
         style="stroke:#ffffff;stroke-width:0.288532;stroke-linejoin:round;stroke-dasharray:none;stroke-dashoffset:0;stroke-opacity:1"
         d="m -397.69554,27.07722 c 0.5793,0.0678 0.99588,0.64198 0.93402,1.28733 l -0.0728,0.75968 c -0.0618,0.64537 -0.57806,1.11031 -1.15737,1.04249 -0.57932,-0.0678 -0.71393,-0.57759 -0.76069,-1.22455 -0.0711,-0.98266 -0.21978,-1.91958 1.05687,-1.86495 z"
         sodipodi:nodetypes="ssssss" />
      <path
         id="rect1-7-8-5-5-6-7-3-8-5-2-7-2-9-8"
         style="stroke:#ffffff;stroke-width:0.374331;stroke-linejoin:round;stroke-dasharray:none;stroke-dashoffset:0;stroke-opacity:1"
         d="m -397.10912,26.52231 c -0.089,-0.21755 -0.004,-0.45679 0.28122,-0.57356 l 1.62571,-0.66531 c 0.29337,-0.12006 0.60205,-0.0419 0.69108,0.17565 0.089,0.21755 -0.0763,0.48969 -0.36964,0.60976 l -1.6257,0.66531 c -0.22906,0.0937 -0.51361,0.005 -0.60265,-0.21185 z"
         sodipodi:nodetypes="sssssss" />
      <path
         id="rect1-7-8-3-2-6-6-1-0-0-7-9"
         style="stroke:#ffffff;stroke-width:0.317429;stroke-linejoin:round;stroke-dasharray:none;stroke-dashoffset:0;stroke-opacity:1"
         d="m -377.91614,27.75533 c -0.29979,-0.86985 -1.06971,-1.49247 -1.6407,-1.19114 l -6.87837,3.63002 c -0.57099,0.30133 -0.79316,0.55195 -0.49336,1.42179 0.2998,0.86985 0.73219,1.06109 1.33416,0.82935 l 7.11986,-2.74094 c 0.60196,-0.23174 0.85821,-1.07925 0.55841,-1.94908 z"
         sodipodi:nodetypes="sssssss"
         inkscape:transform-center-x="-0.92606682"
         inkscape:transform-center-y="2.5990417" />
      <path
         id="rect1-7-8-5-1-8-7-5-7-9-2-9-8-5-6"
         style="stroke:#ffffff;stroke-width:0.374331;stroke-linejoin:round;stroke-dasharray:none;stroke-dashoffset:0;stroke-opacity:1"
         d="m -385.59449,31.39963 c -0.007,-0.79447 -0.75546,-1.8043 -1.45867,-1.42093 -0.86872,0.47358 -1.84592,0.41096 -1.93238,1.45171 -0.0686,0.82561 0.6185,1.74328 1.33529,1.68272 0.79808,-0.0675 2.06297,-0.91903 2.05576,-1.7135 z"
         sodipodi:nodetypes="sssss" />
      <path
         id="rect1-7-8-5-5-6-7-7-5-4-9-4-6-1-3-9"
         style="stroke:#ffffff;stroke-width:0.374331;stroke-linejoin:round;stroke-dasharray:none;stroke-dashoffset:0;stroke-opacity:1"
         d="m -386.70926,30.21996 c 0.0544,-0.2287 -0.0664,-0.45195 -0.36634,-0.5233 l -1.70889,-0.40653 c -0.30838,-0.0733 -0.6013,0.0515 -0.65571,0.28017 -0.0543,0.22868 0.15094,0.47205 0.4593,0.54541 l 1.7089,0.40653 c 0.24077,0.0573 0.50834,-0.0736 0.56275,-0.30228 z"
         sodipodi:nodetypes="sssssss" />
      <path
         id="rect1-7-8-5-1-5-4-364-1-3-9-8-1-8-3-8"
         style="stroke:#ffffff;stroke-width:0.374331;stroke-linejoin:round;stroke-dasharray:none;stroke-dashoffset:0;stroke-opacity:1"
         d="m -387.16328,31.84658 c -0.15729,-0.77878 -0.91595,-1.27808 -1.70102,-1.11951 l -0.92418,0.18665 c -0.78507,0.15857 -1.29047,0.91318 -1.13318,1.69197 0.15731,0.77877 0.80086,0.90266 1.60178,0.89139 1.2165,-0.017 2.38673,0.0766 2.1566,-1.6505 z"
         sodipodi:nodetypes="ssssss" />
      <g
         id="g20"
         transform="translate(-485.60159,-240.45903)">
        <path
           id="rect5-8-3-8-1-8-2-2-7-2"
           style="stroke:#ffffff;stroke-width:0.286;stroke-linejoin:round"
           d="m 87.803223,279.97286 h 7.005087 v 1.89236 h -7.005087 z"
           sodipodi:nodetypes="ccccc" />
        <path
           id="rect5-9-6-4-2-3-0-7-7-8-5"
           style="fill:#000000;stroke:#ffffff;stroke-width:0.286;stroke-linejoin:round;stroke-dasharray:none"
           d="m 94.808308,279.97288 2.33837,-3.07241 4e-6,1.80647 -2.338374,3.1583 z"
           sodipodi:nodetypes="ccccc" />
        <rect
           style="fill:#000000;stroke:#ffffff;stroke-width:0.319613;stroke-linejoin:round;stroke-dasharray:none"
           id="rect5-9-1-3-5-4-3-5-1-4-5-5"
           width="3.8370364"
           height="7.0848026"
           x="-349.6496"
           y="-304.2999"
           transform="matrix(0.59903324,-0.80072416,-1,0,0,0)" />
      </g>
      <path
         id="rect5-8-3-8-1-8-2-2-7-2-3"
         style="stroke:#ffffff;stroke-width:0.286;stroke-linejoin:round"
         d="m -400.70879,36.567 h 7.00509 v 1.89236 h -7.00509 z"
         sodipodi:nodetypes="ccccc" />
      <path
         id="rect5-9-6-4-2-3-0-7-7-8-5-1"
         style="fill:#000000;stroke:#ffffff;stroke-width:0.286;stroke-linejoin:round;stroke-dasharray:none"
         d="m -393.7037,36.56702 2.33837,-3.07241 v 1.80647 l -2.33837,3.1583 z"
         sodipodi:nodetypes="ccccc" />
      <rect
         style="fill:#000000;stroke:#ffffff;stroke-width:0.319613;stroke-linejoin:round;stroke-dasharray:none"
         id="rect5-9-1-3-5-4-3-5-1-4-5-5-5"
         width="3.8370364"
         height="7.0848026"
         x="-45.667492"
         y="366.3075"
         transform="matrix(0.59903324,-0.80072416,-1,0,0,0)" />
      <g
         id="g19"
         transform="translate(-490.72789,-240.29367)">
        <path
           id="rect5-8-3-8-1-8-2-2-7-2-3-0"
           style="stroke:#ffffff;stroke-width:0.286;stroke-linejoin:round"
           d="m 87.53861,273.91719 h 7.005087 v 1.89236 H 87.53861 Z"
           sodipodi:nodetypes="ccccc" />
        <path
           id="rect5-9-6-4-2-3-0-7-7-8-5-1-1"
           style="fill:#000000;stroke:#ffffff;stroke-width:0.286;stroke-linejoin:round;stroke-dasharray:none"
           d="m 94.543695,273.91721 2.33837,-3.07241 4e-6,1.80647 -2.338374,3.1583 z"
           sodipodi:nodetypes="ccccc" />
        <rect
           style="fill:#000000;stroke:#ffffff;stroke-width:0.319613;stroke-linejoin:round;stroke-dasharray:none"
           id="rect5-9-1-3-5-4-3-5-1-4-5-5-5-6"
           width="3.8370364"
           height="7.0848026"
           x="-342.08682"
           y="-299.50497"
           transform="matrix(0.59903324,-0.80072416,-1,0,0,0)" />
      </g>
    </g>
  </g>
</svg>
