<?xml version="1.0" encoding="UTF-8" standalone="no"?>
<!-- Created with Inkscape (http://www.inkscape.org/) -->

<svg
   width="73.823013mm"
   height="72.676895mm"
   viewBox="0 0 73.823013 72.676895"
   version="1.1"
   id="svg1"
   xmlns:inkscape="http://www.inkscape.org/namespaces/inkscape"
   xmlns:sodipodi="http://sodipodi.sourceforge.net/DTD/sodipodi-0.dtd"
   xmlns="http://www.w3.org/2000/svg"
   xmlns:svg="http://www.w3.org/2000/svg">
  <sodipodi:namedview
     id="namedview1"
     pagecolor="#ffffff"
     bordercolor="#000000"
     borderopacity="0.25"
     inkscape:showpageshadow="2"
     inkscape:pageopacity="0.0"
     inkscape:pagecheckerboard="0"
     inkscape:deskcolor="#d1d1d1"
     inkscape:document-units="mm" />
  <defs
     id="defs1" />
  <g
     inkscape:label="Layer 1"
     inkscape:groupmode="layer"
     id="layer1"
     transform="translate(1030.3996,-638.77311)">
    <g
       id="g80"
       transform="translate(-1442.192,-236.0319)">
      <g
         id="g6-1-1-4-6-11-0-5"
         transform="matrix(0.66332327,0,0,0.66332327,368.05899,827.99132)"
         style="stroke-width:0.631668;stroke-dasharray:none">
        <rect
           style="opacity:1;fill:#000000;stroke:#ffffff;stroke-width:0.631668;stroke-linejoin:round;stroke-dasharray:none"
           id="rect5-8-3-8-1-39-9-6"
           width="10.664055"
           height="10.785408"
           x="81.009392"
           y="159.09109" />
        <path
           id="rect5-9-6-4-2-3-3-6-9"
           style="fill:#000000;stroke:#ffffff;stroke-width:0.794514;stroke-linejoin:round;stroke-dasharray:none"
           transform="matrix(0.63208417,-0.77489973,0,1,0,0)"
           d="m 145.0336,271.4776 5.6318,-0.31314 1e-5,10.65467 -5.63181,0.44388 z"
           sodipodi:nodetypes="ccccc" />
        <rect
           style="fill:#000000;stroke:#ffffff;stroke-width:0.705907;stroke-linejoin:round;stroke-dasharray:none"
           id="rect5-9-1-3-5-4-3-0-38-5"
           width="5.8412356"
           height="10.785408"
           x="-198.68402"
           y="-210.75246"
           transform="matrix(0.59903324,-0.80072416,-1,0,0,0)" />
      </g>
      <g
         id="g6-1-1-4-6-11-0-5-0"
         transform="matrix(0.66332327,0,0,0.66332327,384.11038,827.99132)"
         style="stroke-width:0.631668;stroke-dasharray:none">
        <rect
           style="opacity:1;fill:#000000;stroke:#ffffff;stroke-width:0.631668;stroke-linejoin:round;stroke-dasharray:none"
           id="rect5-8-3-8-1-39-9-6-2"
           width="10.664055"
           height="10.785408"
           x="81.009392"
           y="159.09109" />
        <path
           id="rect5-9-6-4-2-3-3-6-9-7"
           style="fill:#000000;stroke:#ffffff;stroke-width:0.794514;stroke-linejoin:round;stroke-dasharray:none"
           transform="matrix(0.63208417,-0.77489973,0,1,0,0)"
           d="m 145.0336,271.4776 5.6318,-0.31314 1e-5,10.65467 -5.63181,0.44388 z"
           sodipodi:nodetypes="ccccc" />
        <rect
           style="fill:#000000;stroke:#ffffff;stroke-width:0.705907;stroke-linejoin:round;stroke-dasharray:none"
           id="rect5-9-1-3-5-4-3-0-38-5-6"
           width="5.8412356"
           height="10.785408"
           x="-198.68402"
           y="-210.75246"
           transform="matrix(0.59903324,-0.80072416,-1,0,0,0)" />
      </g>
      <g
         id="g6-1-1-4-6-11-0-5-2"
         transform="matrix(0.66332327,0,0,0.66332327,400.16177,827.99132)"
         style="stroke-width:0.631668;stroke-dasharray:none">
        <rect
           style="opacity:1;fill:#000000;stroke:#ffffff;stroke-width:0.631668;stroke-linejoin:round;stroke-dasharray:none"
           id="rect5-8-3-8-1-39-9-6-1"
           width="10.664055"
           height="10.785408"
           x="81.009392"
           y="159.09109" />
        <path
           id="rect5-9-6-4-2-3-3-6-9-72"
           style="fill:#000000;stroke:#ffffff;stroke-width:0.794514;stroke-linejoin:round;stroke-dasharray:none"
           transform="matrix(0.63208417,-0.77489973,0,1,0,0)"
           d="m 145.0336,271.4776 5.6318,-0.31314 1e-5,10.65467 -5.63181,0.44388 z"
           sodipodi:nodetypes="ccccc" />
        <rect
           style="fill:#000000;stroke:#ffffff;stroke-width:0.705907;stroke-linejoin:round;stroke-dasharray:none"
           id="rect5-9-1-3-5-4-3-0-38-5-4"
           width="5.8412356"
           height="10.785408"
           x="-198.68402"
           y="-210.75246"
           transform="matrix(0.59903324,-0.80072416,-1,0,0,0)" />
      </g>
      <g
         id="g6-1-1-4-6-11-0-5-0-1"
         transform="matrix(0.66332327,0,0,0.66332327,416.21316,827.99132)"
         style="stroke-width:0.631668;stroke-dasharray:none">
        <rect
           style="opacity:1;fill:#000000;stroke:#ffffff;stroke-width:0.631668;stroke-linejoin:round;stroke-dasharray:none"
           id="rect5-8-3-8-1-39-9-6-2-1"
           width="10.664055"
           height="10.785408"
           x="81.009392"
           y="159.09109" />
        <path
           id="rect5-9-6-4-2-3-3-6-9-7-5"
           style="fill:#000000;stroke:#ffffff;stroke-width:0.794514;stroke-linejoin:round;stroke-dasharray:none"
           transform="matrix(0.63208417,-0.77489973,0,1,0,0)"
           d="m 145.0336,271.4776 5.6318,-0.31314 1e-5,10.65467 -5.63181,0.44388 z"
           sodipodi:nodetypes="ccccc" />
        <rect
           style="fill:#000000;stroke:#ffffff;stroke-width:0.705907;stroke-linejoin:round;stroke-dasharray:none"
           id="rect5-9-1-3-5-4-3-0-38-5-6-6"
           width="5.8412356"
           height="10.785408"
           x="-198.68402"
           y="-210.75246"
           transform="matrix(0.59903324,-0.80072416,-1,0,0,0)" />
      </g>
      <g
         id="g6-1-1-4-6-11-0-5-23"
         transform="matrix(0.66332327,0,0,0.66332327,368.05899,810.44391)"
         style="stroke-width:0.631668;stroke-dasharray:none">
        <rect
           style="opacity:1;fill:#000000;stroke:#ffffff;stroke-width:0.631668;stroke-linejoin:round;stroke-dasharray:none"
           id="rect5-8-3-8-1-39-9-6-13"
           width="10.664055"
           height="10.785408"
           x="81.009392"
           y="159.09109" />
        <path
           id="rect5-9-6-4-2-3-3-6-9-3"
           style="fill:#000000;stroke:#ffffff;stroke-width:0.794514;stroke-linejoin:round;stroke-dasharray:none"
           transform="matrix(0.63208417,-0.77489973,0,1,0,0)"
           d="m 145.0336,271.4776 5.6318,-0.31314 1e-5,10.65467 -5.63181,0.44388 z"
           sodipodi:nodetypes="ccccc" />
        <rect
           style="fill:#000000;stroke:#ffffff;stroke-width:0.705907;stroke-linejoin:round;stroke-dasharray:none"
           id="rect5-9-1-3-5-4-3-0-38-5-8"
           width="5.8412356"
           height="10.785408"
           x="-198.68402"
           y="-210.75246"
           transform="matrix(0.59903324,-0.80072416,-1,0,0,0)" />
      </g>
      <g
         id="g6-1-1-4-6-11-0-5-0-8"
         transform="matrix(0.66332327,0,0,0.66332327,384.11038,810.44391)"
         style="stroke-width:0.631668;stroke-dasharray:none">
        <rect
           style="opacity:1;fill:#000000;stroke:#ffffff;stroke-width:0.631668;stroke-linejoin:round;stroke-dasharray:none"
           id="rect5-8-3-8-1-39-9-6-2-2"
           width="10.664055"
           height="10.785408"
           x="81.009392"
           y="159.09109" />
        <path
           id="rect5-9-6-4-2-3-3-6-9-7-4"
           style="fill:#000000;stroke:#ffffff;stroke-width:0.794514;stroke-linejoin:round;stroke-dasharray:none"
           transform="matrix(0.63208417,-0.77489973,0,1,0,0)"
           d="m 145.0336,271.4776 5.6318,-0.31314 1e-5,10.65467 -5.63181,0.44388 z"
           sodipodi:nodetypes="ccccc" />
        <rect
           style="fill:#000000;stroke:#ffffff;stroke-width:0.705907;stroke-linejoin:round;stroke-dasharray:none"
           id="rect5-9-1-3-5-4-3-0-38-5-6-8"
           width="5.8412356"
           height="10.785408"
           x="-198.68402"
           y="-210.75246"
           transform="matrix(0.59903324,-0.80072416,-1,0,0,0)" />
      </g>
      <g
         id="g6-1-1-4-6-11-0-5-2-3"
         transform="matrix(0.66332327,0,0,0.66332327,400.16177,810.44391)"
         style="stroke-width:0.631668;stroke-dasharray:none">
        <rect
           style="opacity:1;fill:#000000;stroke:#ffffff;stroke-width:0.631668;stroke-linejoin:round;stroke-dasharray:none"
           id="rect5-8-3-8-1-39-9-6-1-7"
           width="10.664055"
           height="10.785408"
           x="81.009392"
           y="159.09109" />
        <path
           id="rect5-9-6-4-2-3-3-6-9-72-3"
           style="fill:#000000;stroke:#ffffff;stroke-width:0.794514;stroke-linejoin:round;stroke-dasharray:none"
           transform="matrix(0.63208417,-0.77489973,0,1,0,0)"
           d="m 145.0336,271.4776 5.6318,-0.31314 1e-5,10.65467 -5.63181,0.44388 z"
           sodipodi:nodetypes="ccccc" />
        <rect
           style="fill:#000000;stroke:#ffffff;stroke-width:0.705907;stroke-linejoin:round;stroke-dasharray:none"
           id="rect5-9-1-3-5-4-3-0-38-5-4-2"
           width="5.8412356"
           height="10.785408"
           x="-198.68402"
           y="-210.75246"
           transform="matrix(0.59903324,-0.80072416,-1,0,0,0)" />
      </g>
      <g
         id="g6-1-1-4-6-11-0-5-0-1-3"
         transform="matrix(0.66332327,0,0,0.66332327,416.21316,810.44391)"
         style="stroke-width:0.631668;stroke-dasharray:none">
        <rect
           style="opacity:1;fill:#000000;stroke:#ffffff;stroke-width:0.631668;stroke-linejoin:round;stroke-dasharray:none"
           id="rect5-8-3-8-1-39-9-6-2-1-3"
           width="10.664055"
           height="10.785408"
           x="81.009392"
           y="159.09109" />
        <path
           id="rect5-9-6-4-2-3-3-6-9-7-5-7"
           style="fill:#000000;stroke:#ffffff;stroke-width:0.794514;stroke-linejoin:round;stroke-dasharray:none"
           transform="matrix(0.63208417,-0.77489973,0,1,0,0)"
           d="m 145.0336,271.4776 5.6318,-0.31314 1e-5,10.65467 -5.63181,0.44388 z"
           sodipodi:nodetypes="ccccc" />
        <rect
           style="fill:#000000;stroke:#ffffff;stroke-width:0.705907;stroke-linejoin:round;stroke-dasharray:none"
           id="rect5-9-1-3-5-4-3-0-38-5-6-6-5"
           width="5.8412356"
           height="10.785408"
           x="-198.68402"
           y="-210.75246"
           transform="matrix(0.59903324,-0.80072416,-1,0,0,0)" />
      </g>
      <g
         id="g6-1-1-4-6-11-0-5-5"
         transform="matrix(0.66332327,0,0,0.66332327,368.05899,794.16226)"
         style="stroke-width:0.631668;stroke-dasharray:none">
        <rect
           style="opacity:1;fill:#000000;stroke:#ffffff;stroke-width:0.631668;stroke-linejoin:round;stroke-dasharray:none"
           id="rect5-8-3-8-1-39-9-6-0"
           width="10.664055"
           height="10.785408"
           x="81.009392"
           y="159.09109" />
        <path
           id="rect5-9-6-4-2-3-3-6-9-1"
           style="fill:#000000;stroke:#ffffff;stroke-width:0.794514;stroke-linejoin:round;stroke-dasharray:none"
           transform="matrix(0.63208417,-0.77489973,0,1,0,0)"
           d="m 145.0336,271.4776 5.6318,-0.31314 1e-5,10.65467 -5.63181,0.44388 z"
           sodipodi:nodetypes="ccccc" />
        <rect
           style="fill:#000000;stroke:#ffffff;stroke-width:0.705907;stroke-linejoin:round;stroke-dasharray:none"
           id="rect5-9-1-3-5-4-3-0-38-5-48"
           width="5.8412356"
           height="10.785408"
           x="-198.68402"
           y="-210.75246"
           transform="matrix(0.59903324,-0.80072416,-1,0,0,0)" />
      </g>
      <g
         id="g6-1-1-4-6-11-0-5-0-4"
         transform="matrix(0.66332327,0,0,0.66332327,384.11038,794.16226)"
         style="stroke-width:0.631668;stroke-dasharray:none">
        <rect
           style="opacity:1;fill:#000000;stroke:#ffffff;stroke-width:0.631668;stroke-linejoin:round;stroke-dasharray:none"
           id="rect5-8-3-8-1-39-9-6-2-23"
           width="10.664055"
           height="10.785408"
           x="81.009392"
           y="159.09109" />
        <path
           id="rect5-9-6-4-2-3-3-6-9-7-41"
           style="fill:#000000;stroke:#ffffff;stroke-width:0.794514;stroke-linejoin:round;stroke-dasharray:none"
           transform="matrix(0.63208417,-0.77489973,0,1,0,0)"
           d="m 145.0336,271.4776 5.6318,-0.31314 1e-5,10.65467 -5.63181,0.44388 z"
           sodipodi:nodetypes="ccccc" />
        <rect
           style="fill:#000000;stroke:#ffffff;stroke-width:0.705907;stroke-linejoin:round;stroke-dasharray:none"
           id="rect5-9-1-3-5-4-3-0-38-5-6-9"
           width="5.8412356"
           height="10.785408"
           x="-198.68402"
           y="-210.75246"
           transform="matrix(0.59903324,-0.80072416,-1,0,0,0)" />
      </g>
      <g
         id="g6-1-1-4-6-11-0-5-2-5"
         transform="matrix(0.66332327,0,0,0.66332327,400.16177,794.16226)"
         style="stroke-width:0.631668;stroke-dasharray:none">
        <rect
           style="opacity:1;fill:#000000;stroke:#ffffff;stroke-width:0.631668;stroke-linejoin:round;stroke-dasharray:none"
           id="rect5-8-3-8-1-39-9-6-1-2"
           width="10.664055"
           height="10.785408"
           x="81.009392"
           y="159.09109" />
        <path
           id="rect5-9-6-4-2-3-3-6-9-72-0"
           style="fill:#000000;stroke:#ffffff;stroke-width:0.794514;stroke-linejoin:round;stroke-dasharray:none"
           transform="matrix(0.63208417,-0.77489973,0,1,0,0)"
           d="m 145.0336,271.4776 5.6318,-0.31314 1e-5,10.65467 -5.63181,0.44388 z"
           sodipodi:nodetypes="ccccc" />
        <rect
           style="fill:#000000;stroke:#ffffff;stroke-width:0.705907;stroke-linejoin:round;stroke-dasharray:none"
           id="rect5-9-1-3-5-4-3-0-38-5-4-7"
           width="5.8412356"
           height="10.785408"
           x="-198.68402"
           y="-210.75246"
           transform="matrix(0.59903324,-0.80072416,-1,0,0,0)" />
      </g>
      <g
         id="g6-1-1-4-6-11-0-5-0-1-9"
         transform="matrix(0.66332327,0,0,0.66332327,416.21316,794.16226)"
         style="stroke-width:0.631668;stroke-dasharray:none">
        <rect
           style="opacity:1;fill:#000000;stroke:#ffffff;stroke-width:0.631668;stroke-linejoin:round;stroke-dasharray:none"
           id="rect5-8-3-8-1-39-9-6-2-1-1"
           width="10.664055"
           height="10.785408"
           x="81.009392"
           y="159.09109" />
        <path
           id="rect5-9-6-4-2-3-3-6-9-7-5-6"
           style="fill:#000000;stroke:#ffffff;stroke-width:0.794514;stroke-linejoin:round;stroke-dasharray:none"
           transform="matrix(0.63208417,-0.77489973,0,1,0,0)"
           d="m 145.0336,271.4776 5.6318,-0.31314 1e-5,10.65467 -5.63181,0.44388 z"
           sodipodi:nodetypes="ccccc" />
        <rect
           style="fill:#000000;stroke:#ffffff;stroke-width:0.705907;stroke-linejoin:round;stroke-dasharray:none"
           id="rect5-9-1-3-5-4-3-0-38-5-6-6-8"
           width="5.8412356"
           height="10.785408"
           x="-198.68402"
           y="-210.75246"
           transform="matrix(0.59903324,-0.80072416,-1,0,0,0)" />
      </g>
      <g
         id="g6-1-1-4-6-11-0-5-23-2"
         transform="matrix(0.66332327,0,0,0.66332327,368.05899,779.23409)"
         style="stroke-width:0.631668;stroke-dasharray:none">
        <rect
           style="opacity:1;fill:#000000;stroke:#ffffff;stroke-width:0.631668;stroke-linejoin:round;stroke-dasharray:none"
           id="rect5-8-3-8-1-39-9-6-13-5"
           width="10.664055"
           height="10.785408"
           x="81.009392"
           y="159.09109" />
        <path
           id="rect5-9-6-4-2-3-3-6-9-3-6"
           style="fill:#000000;stroke:#ffffff;stroke-width:0.794514;stroke-linejoin:round;stroke-dasharray:none"
           transform="matrix(0.63208417,-0.77489973,0,1,0,0)"
           d="m 145.0336,271.4776 5.6318,-0.31314 1e-5,10.65467 -5.63181,0.44388 z"
           sodipodi:nodetypes="ccccc" />
        <rect
           style="fill:#000000;stroke:#ffffff;stroke-width:0.705907;stroke-linejoin:round;stroke-dasharray:none"
           id="rect5-9-1-3-5-4-3-0-38-5-8-8"
           width="5.8412356"
           height="10.785408"
           x="-198.68402"
           y="-210.75246"
           transform="matrix(0.59903324,-0.80072416,-1,0,0,0)" />
      </g>
      <g
         id="g6-1-1-4-6-11-0-5-0-8-0"
         transform="matrix(0.66332327,0,0,0.66332327,384.11038,779.23409)"
         style="stroke-width:0.631668;stroke-dasharray:none">
        <rect
           style="opacity:1;fill:#000000;stroke:#ffffff;stroke-width:0.631668;stroke-linejoin:round;stroke-dasharray:none"
           id="rect5-8-3-8-1-39-9-6-2-2-9"
           width="10.664055"
           height="10.785408"
           x="81.009392"
           y="159.09109" />
        <path
           id="rect5-9-6-4-2-3-3-6-9-7-4-0"
           style="fill:#000000;stroke:#ffffff;stroke-width:0.794514;stroke-linejoin:round;stroke-dasharray:none"
           transform="matrix(0.63208417,-0.77489973,0,1,0,0)"
           d="m 145.0336,271.4776 5.6318,-0.31314 1e-5,10.65467 -5.63181,0.44388 z"
           sodipodi:nodetypes="ccccc" />
        <rect
           style="fill:#000000;stroke:#ffffff;stroke-width:0.705907;stroke-linejoin:round;stroke-dasharray:none"
           id="rect5-9-1-3-5-4-3-0-38-5-6-8-3"
           width="5.8412356"
           height="10.785408"
           x="-198.68402"
           y="-210.75246"
           transform="matrix(0.59903324,-0.80072416,-1,0,0,0)" />
      </g>
      <g
         id="g6-1-1-4-6-11-0-5-2-3-3"
         transform="matrix(0.66332327,0,0,0.66332327,400.16177,779.23409)"
         style="stroke-width:0.631668;stroke-dasharray:none">
        <rect
           style="opacity:1;fill:#000000;stroke:#ffffff;stroke-width:0.631668;stroke-linejoin:round;stroke-dasharray:none"
           id="rect5-8-3-8-1-39-9-6-1-7-3"
           width="10.664055"
           height="10.785408"
           x="81.009392"
           y="159.09109" />
        <path
           id="rect5-9-6-4-2-3-3-6-9-72-3-3"
           style="fill:#000000;stroke:#ffffff;stroke-width:0.794514;stroke-linejoin:round;stroke-dasharray:none"
           transform="matrix(0.63208417,-0.77489973,0,1,0,0)"
           d="m 145.0336,271.4776 5.6318,-0.31314 1e-5,10.65467 -5.63181,0.44388 z"
           sodipodi:nodetypes="ccccc" />
        <rect
           style="fill:#000000;stroke:#ffffff;stroke-width:0.705907;stroke-linejoin:round;stroke-dasharray:none"
           id="rect5-9-1-3-5-4-3-0-38-5-4-2-7"
           width="5.8412356"
           height="10.785408"
           x="-198.68402"
           y="-210.75246"
           transform="matrix(0.59903324,-0.80072416,-1,0,0,0)" />
      </g>
      <g
         id="g6-1-1-4-6-11-0-5-0-1-3-3"
         transform="matrix(0.66332327,0,0,0.66332327,416.21316,779.23409)"
         style="stroke-width:0.631668;stroke-dasharray:none">
        <rect
           style="opacity:1;fill:#000000;stroke:#ffffff;stroke-width:0.631668;stroke-linejoin:round;stroke-dasharray:none"
           id="rect5-8-3-8-1-39-9-6-2-1-3-7"
           width="10.664055"
           height="10.785408"
           x="81.009392"
           y="159.09109" />
        <path
           id="rect5-9-6-4-2-3-3-6-9-7-5-7-7"
           style="fill:#000000;stroke:#ffffff;stroke-width:0.794514;stroke-linejoin:round;stroke-dasharray:none"
           transform="matrix(0.63208417,-0.77489973,0,1,0,0)"
           d="m 145.0336,271.4776 5.6318,-0.31314 1e-5,10.65467 -5.63181,0.44388 z"
           sodipodi:nodetypes="ccccc" />
        <rect
           style="fill:#000000;stroke:#ffffff;stroke-width:0.705907;stroke-linejoin:round;stroke-dasharray:none"
           id="rect5-9-1-3-5-4-3-0-38-5-6-6-5-2"
           width="5.8412356"
           height="10.785408"
           x="-198.68402"
           y="-210.75246"
           transform="matrix(0.59903324,-0.80072416,-1,0,0,0)" />
      </g>
      <g
         id="g66"
         transform="translate(0,-8.2319015)">
        <path
           id="path11-4-78-8-5-7"
           style="fill:#808080;stroke:none;stroke-width:0.0886796;stroke-linejoin:round;stroke-dasharray:none"
           d="m 425.93472,951.57404 v 1.89127 l -1.12986,0.0122 1.75551,2.23628 c 0.0427,0 1.61833,-2.27302 1.61833,-2.27302 l -1.11971,0.0122 v -1.87902 z" />
        <path
           id="path11-4-78-8-5-7-1"
           style="fill:#808080;stroke:none;stroke-width:0.0886796;stroke-linejoin:round;stroke-dasharray:none"
           d="m 441.98611,951.57404 v 1.89127 l -1.12986,0.0122 1.75551,2.23628 c 0.0427,0 1.61833,-2.27302 1.61833,-2.27302 l -1.11971,0.0122 v -1.87902 z" />
        <path
           id="path11-4-78-8-5-7-1-9"
           style="fill:#808080;stroke:none;stroke-width:0.0886796;stroke-linejoin:round;stroke-dasharray:none"
           d="m 458.0375,951.57404 v 1.89127 l -1.12986,0.0122 1.75551,2.23628 c 0.0427,0 1.61833,-2.27302 1.61833,-2.27302 l -1.11971,0.0122 v -1.87902 z" />
        <path
           id="path11-4-78-8-5-7-1-6"
           style="fill:#808080;stroke:none;stroke-width:0.0886796;stroke-linejoin:round;stroke-dasharray:none"
           d="m 474.08889,951.57404 v 1.89127 l -1.12986,0.0122 1.75551,2.23628 c 0.0427,0 1.61833,-2.27302 1.61833,-2.27302 l -1.11971,0.0122 v -1.87902 z" />
      </g>
      <path
         id="path11-4-78-8-5-7-7"
         style="fill:#808080;stroke:none;stroke-width:0.0886796;stroke-linejoin:round;stroke-dasharray:none"
         d="m 425.93472,878.94476 v -1.89127 l -1.12986,-0.0122 1.75551,-2.23628 c 0.0427,0 1.61833,2.27302 1.61833,2.27302 l -1.11971,-0.0122 v 1.87902 z" />
      <path
         id="path11-4-78-8-5-7-1-66"
         style="fill:#808080;stroke:none;stroke-width:0.0886796;stroke-linejoin:round;stroke-dasharray:none"
         d="m 441.98611,878.94476 v -1.89127 l -1.12986,-0.0122 1.75551,-2.23628 c 0.0427,0 1.61833,2.27302 1.61833,2.27302 l -1.11971,-0.0122 v 1.87902 z" />
      <path
         id="path11-4-78-8-5-7-1-9-4"
         style="fill:#808080;stroke:none;stroke-width:0.0886796;stroke-linejoin:round;stroke-dasharray:none"
         d="m 458.0375,878.94476 v -1.89127 l -1.12986,-0.0122 1.75551,-2.23628 c 0.0427,0 1.61833,2.27302 1.61833,2.27302 l -1.11971,-0.0122 v 1.87902 z" />
      <path
         id="path11-4-78-8-5-7-1-6-1"
         style="fill:#808080;stroke:none;stroke-width:0.0886796;stroke-linejoin:round;stroke-dasharray:none"
         d="m 474.08889,878.94476 v -1.89127 l -1.12986,-0.0122 1.75551,-2.23628 c 0.0427,0 1.61833,2.27302 1.61833,2.27302 l -1.11971,-0.0122 v 1.87902 z" />
      <path
         id="path11-4-78-8-5-7-7-3"
         style="fill:#808080;stroke:none;stroke-width:0.0886796;stroke-linejoin:round;stroke-dasharray:none"
         d="m 415.93226,936.93918 h -1.89127 l -0.0122,1.12986 -2.23628,-1.75551 c 0,-0.0427 2.27302,-1.61833 2.27302,-1.61833 l -0.0122,1.11971 h 1.87902 z" />
      <path
         id="path11-4-78-8-5-7-1-66-9"
         style="fill:#808080;stroke:none;stroke-width:0.0886796;stroke-linejoin:round;stroke-dasharray:none"
         d="m 415.93226,920.88779 h -1.89127 l -0.0122,1.12986 -2.23628,-1.75551 c 0,-0.0427 2.27302,-1.61833 2.27302,-1.61833 l -0.0122,1.11971 h 1.87902 z" />
      <path
         id="path11-4-78-8-5-7-1-9-4-2"
         style="fill:#808080;stroke:none;stroke-width:0.0886796;stroke-linejoin:round;stroke-dasharray:none"
         d="m 415.93226,904.8364 h -1.89127 l -0.0122,1.12986 -2.23628,-1.75551 c 0,-0.0427 2.27302,-1.61833 2.27302,-1.61833 l -0.0122,1.11971 h 1.87902 z" />
      <path
         id="path11-4-78-8-5-7-1-6-1-8"
         style="fill:#808080;stroke:none;stroke-width:0.0886796;stroke-linejoin:round;stroke-dasharray:none"
         d="m 415.93226,888.78501 h -1.89127 l -0.0122,1.12986 -2.23628,-1.75551 c 0,-0.0427 2.27302,-1.61833 2.27302,-1.61833 l -0.0122,1.11971 h 1.87902 z" />
      <g
         id="g66-0-0-2"
         transform="rotate(-90,446.38782,916.48609)">
        <path
           id="path11-4-78-8-5-7-7-3-5"
           style="fill:#808080;stroke:none;stroke-width:0.0886796;stroke-linejoin:round;stroke-dasharray:none"
           d="m 425.93472,951.57404 v 1.89127 l -1.12986,0.0122 1.75551,2.23628 c 0.0427,0 1.61833,-2.27302 1.61833,-2.27302 l -1.11971,0.0122 v -1.87902 z" />
        <path
           id="path11-4-78-8-5-7-1-66-9-4"
           style="fill:#808080;stroke:none;stroke-width:0.0886796;stroke-linejoin:round;stroke-dasharray:none"
           d="m 441.98611,951.57404 v 1.89127 l -1.12986,0.0122 1.75551,2.23628 c 0.0427,0 1.61833,-2.27302 1.61833,-2.27302 l -1.11971,0.0122 v -1.87902 z" />
        <path
           id="path11-4-78-8-5-7-1-9-4-2-7"
           style="fill:#808080;stroke:none;stroke-width:0.0886796;stroke-linejoin:round;stroke-dasharray:none"
           d="m 458.0375,951.57404 v 1.89127 l -1.12986,0.0122 1.75551,2.23628 c 0.0427,0 1.61833,-2.27302 1.61833,-2.27302 l -1.11971,0.0122 v -1.87902 z" />
        <path
           id="path11-4-78-8-5-7-1-6-1-8-7"
           style="fill:#808080;stroke:none;stroke-width:0.0886796;stroke-linejoin:round;stroke-dasharray:none"
           d="m 474.08889,951.57404 v 1.89127 l -1.12986,0.0122 1.75551,2.23628 c 0.0427,0 1.61833,-2.27302 1.61833,-2.27302 l -1.11971,0.0122 v -1.87902 z" />
      </g>
    </g>
  </g>
</svg>
