<?xml version="1.0" encoding="UTF-8" standalone="no"?>
<!-- Created with Inkscape (http://www.inkscape.org/) -->

<svg
   width="36.33131mm"
   height="63.881634mm"
   viewBox="0 0 36.33131 63.881634"
   version="1.1"
   id="svg1"
   xmlns:inkscape="http://www.inkscape.org/namespaces/inkscape"
   xmlns:sodipodi="http://sodipodi.sourceforge.net/DTD/sodipodi-0.dtd"
   xmlns="http://www.w3.org/2000/svg"
   xmlns:svg="http://www.w3.org/2000/svg">
  <sodipodi:namedview
     id="namedview1"
     pagecolor="#ffffff"
     bordercolor="#000000"
     borderopacity="0.25"
     inkscape:showpageshadow="2"
     inkscape:pageopacity="0.0"
     inkscape:pagecheckerboard="0"
     inkscape:deskcolor="#d1d1d1"
     inkscape:document-units="mm" />
  <defs
     id="defs1" />
  <g
     inkscape:label="Layer 1"
     inkscape:groupmode="layer"
     id="layer1"
     transform="translate(1011.6537,-754.92033)">
    <g
       id="g71"
       transform="translate(-1459.4862,203.50883)">
      <path
         id="path11-4-78-8-5-8-4-3"
         style="fill:#808080;stroke:none;stroke-width:0.0886796;stroke-linejoin:round;stroke-dasharray:none"
         d="m 458.98971,557.45404 h 1.89127 l 0.0122,1.12986 2.23628,-1.75551 c 0,-0.0427 -2.27302,-1.61833 -2.27302,-1.61833 l 0.0122,1.11971 h -1.87902 z" />
      <path
         id="path11-4-78-8-5-8-4-5-3"
         style="fill:#808080;stroke:none;stroke-width:0.0886796;stroke-linejoin:round;stroke-dasharray:none"
         d="m 455.15325,585.36758 h 1.89127 l 0.0122,1.12986 2.23628,-1.75551 c 0,-0.0427 -2.27302,-1.61833 -2.27302,-1.61833 l 0.0122,1.11971 h -1.87902 z" />
      <path
         id="path11-4-78-8-5-8-4-5-1-6"
         style="fill:#808080;stroke:none;stroke-width:0.0886796;stroke-linejoin:round;stroke-dasharray:none"
         d="m 453.43346,607.328 h 1.89127 l 0.0122,1.12986 2.23628,-1.75551 c 0,-0.0427 -2.27302,-1.61833 -2.27302,-1.61833 l 0.0122,1.11971 h -1.87902 z" />
      <path
         id="path11-4-78-8-5-8-4-5-1-5-0"
         style="fill:#808080;stroke:none;stroke-width:0.0886796;stroke-linejoin:round;stroke-dasharray:none"
         d="m 480.45959,603.88842 h -1.89127 l -0.0122,1.12986 -2.23628,-1.75551 c 0,-0.0427 2.27302,-1.61833 2.27302,-1.61833 l -0.0122,1.11971 h 1.87902 z" />
      <path
         id="path11-4-78-8-5-8-4-5-1-5-2-2"
         style="fill:#808080;stroke:none;stroke-width:0.0886796;stroke-linejoin:round;stroke-dasharray:none"
         d="m 482.0471,585.63217 h -1.89127 l -0.0122,1.12986 -2.23628,-1.75551 c 0,-0.0427 2.27302,-1.61833 2.27302,-1.61833 l -0.0122,1.11971 h 1.87902 z" />
      <path
         id="path11-4-78-8-5-8-4-5-1-5-2-0-9"
         style="fill:#808080;stroke:none;stroke-width:0.0886796;stroke-linejoin:round;stroke-dasharray:none"
         d="m 484.16374,566.71446 h -1.89127 l -0.0122,1.12986 -2.23628,-1.75551 c 0,-0.0427 2.27302,-1.61833 2.27302,-1.61833 l -0.0122,1.11971 h 1.87902 z" />
      <path
         id="rect1-7-8-5-5-6-7-3-8-5-1-5-25-6"
         style="stroke:#ffffff;stroke-width:0.374331;stroke-linejoin:round;stroke-dasharray:none;stroke-dashoffset:0;stroke-opacity:1"
         d="m 452.36794,567.26248 c 0.0427,-0.23115 -0.0893,-0.44798 -0.39252,-0.50396 l -1.72738,-0.31896 c -0.31171,-0.0576 -0.5979,0.082 -0.64058,0.3132 -0.0427,0.23116 0.17475,0.46376 0.48648,0.52132 l 1.72738,0.31896 c 0.24337,0.0449 0.50393,-0.0994 0.54662,-0.33056 z"
         sodipodi:nodetypes="sssssss" />
      <path
         id="rect1-7-3-7-0-3-9-3-9-7-1-4-7"
         style="stroke:#ffffff;stroke-width:0.374331;stroke-linejoin:round;stroke-dasharray:none;stroke-dashoffset:0;stroke-opacity:1"
         d="m 468.47812,562.06003 c 0.50801,0.74814 0.31335,2.43805 -0.52917,2.78619 l -6.69279,2.76553 c -0.84252,0.34814 -1.87091,0.13768 -2.37886,-0.6105 -0.50793,-0.74819 -0.35017,-1.79802 0.44706,-2.24015 l 6.39199,-3.54498 c 0.79723,-0.44215 2.2538,0.0957 2.76174,0.8439 z"
         sodipodi:nodetypes="ssssssss"
         inkscape:transform-center-x="4.9372213"
         inkscape:transform-center-y="2.3757066" />
      <path
         id="rect1-7-8-30-8-6-6-5-6-4-9-9-4-9"
         style="stroke:#ffffff;stroke-width:0.313714;stroke-linejoin:round;stroke-dasharray:none;stroke-dashoffset:0;stroke-opacity:1"
         d="m 461.12982,565.84035 c 0.30013,0.87081 0.0867,1.8178 -0.531,1.94161 l -7.17622,1.43815 c -0.61776,0.1238 -0.94351,0.0463 -1.24365,-0.82452 -0.30014,-0.87083 -0.0801,-1.26842 0.51656,-1.46868 l 6.81972,-2.28868 c 0.59668,-0.20024 1.3144,0.33129 1.61456,1.2021 z"
         sodipodi:nodetypes="sssssss"
         inkscape:transform-center-x="3.4714137"
         inkscape:transform-center-y="1.2479144" />
      <path
         id="rect1-7-2-76-1-7-2-6-7-2-5-0-7-9"
         style="stroke:#ffffff;stroke-width:0.374331;stroke-linejoin:round;stroke-dasharray:none;stroke-dashoffset:0;stroke-opacity:1"
         d="m 477.05482,564.45373 c -0.0195,-0.90411 -1.30442,-1.56891 -2.01507,-0.99804 l -7.36314,5.91486 c -0.71071,0.57091 -1.57799,1.01452 -1.53422,1.91777 0.0438,0.90327 0.88775,1.92802 1.70377,1.52159 l 7.92904,-3.94915 c 0.68264,-0.59444 1.2819,-2.72812 1.27962,-4.40703 z"
         sodipodi:nodetypes="csssscc"
         inkscape:transform-center-x="3.8014056"
         inkscape:transform-center-y="2.0989427" />
      <path
         id="rect1-9-4-4-31-7-1-4-3-0-5-7-99-4"
         style="stroke:#ffffff;stroke-width:0.387927;stroke-linejoin:round;stroke-dasharray:none;stroke-dashoffset:0;stroke-opacity:1"
         d="m 470.31583,597.42202 1.60066,-0.18679 c 0.90456,-0.10555 1.83601,0.58757 1.83781,1.56661 l 0.0257,13.99861 c 0.002,0.97906 0.1686,1.62841 -0.73595,1.73396 l -0.72155,0.0842 c -0.90455,0.10555 -1.7242,-0.59316 -1.8378,-1.56662 l -1.5966,-13.6823 c -0.1136,-0.97345 0.52316,-1.84212 1.42771,-1.94767 z"
         sodipodi:nodetypes="sssssssss" />
      <path
         id="rect1-9-1-95-4-0-1-8-0-2-1-48-9"
         style="stroke:#ffffff;stroke-width:0.387927;stroke-linejoin:round;stroke-dasharray:none;stroke-dashoffset:0;stroke-opacity:1"
         d="m 463.87441,596.03566 h 1.61153 c 0.91068,0 1.68037,0.78979 1.64383,1.76907 l -0.51391,13.77514 c -0.0365,0.97927 -0.73315,1.76907 -1.64384,1.76907 h -0.61225 c -0.91069,0 -0.87342,-0.7931 -0.95651,-1.76907 l -1.1727,-13.77514 c -0.0831,-0.97598 0.73316,-1.76907 1.64385,-1.76907 z"
         sodipodi:nodetypes="sssssssss" />
      <path
         id="rect1-9-69-4-8-4-7-7-73-7-1-8"
         style="stroke:#ffffff;stroke-width:0.359059;stroke-linejoin:round;stroke-dasharray:none;stroke-dashoffset:0;stroke-opacity:1"
         d="m 467.36297,582.60714 2.54141,0.66485 c 0.88295,0.23095 2.28297,1.40433 1.96943,2.18267 l -4.77553,11.85505 c -0.31352,0.77834 -1.07539,1.29243 -1.96153,1.07395 l -1.56809,-0.3866 c -0.88613,-0.21848 -1.43475,-1.04841 -1.23752,-1.86266 l 3.01579,-12.45028 c 0.19755,-0.81417 1.13308,-1.30793 2.01603,-1.07696 z"
         sodipodi:nodetypes="ssssssssss" />
      <path
         id="rect1-9-4-41-7-6-1-1-5-8-1-5-5"
         style="stroke:#ffffff;stroke-width:0.359059;stroke-linejoin:round;stroke-dasharray:none;stroke-dashoffset:0;stroke-opacity:1"
         d="m 470.63185,582.79713 2.73139,0.3113 c 0.90675,0.10334 1.63432,0.86672 1.55857,1.70109 l -1.1552,12.72605 c -0.0754,0.8344 -0.86256,1.4432 -1.77184,1.3644 l -1.609,-0.13943 c -0.90927,-0.0788 -1.45037,-0.81158 -1.51072,-1.64885 l -0.94249,-13.07583 c -0.0604,-0.83728 1.79253,-1.34203 2.69928,-1.23869 z"
         sodipodi:nodetypes="sssssssss" />
      <path
         id="rect1-0-0-2-5-8-0-4-2-0-83"
         style="stroke:none;stroke-width:0.314577;stroke-linejoin:round;stroke-dasharray:none;stroke-dashoffset:0;stroke-opacity:1"
         d="m 466.71416,560.58547 c 3.00028,-1.01083 4.94787,0.4451 6.95399,1.08341 0.62816,0.19987 2.9867,1.35332 2.94241,2.26278 -0.30075,6.17475 -3.45323,11.60662 -2.11401,17.37616 0.37838,1.63011 0.24111,3.07486 0.295,4.56138 0.033,0.91042 -0.64151,2.03832 -1.16213,1.64553 l -4.81778,-3.63493 c -0.52062,-0.3928 -3.29412,2.90014 -3.2643,1.9894 0.0565,-1.72878 -0.0164,-3.32163 0.31164,-5.4099 0.88653,-5.64368 0.2016,-11.62948 -0.31164,-17.5529 -0.0784,-0.90484 0.53621,-2.10847 1.16682,-2.32093 z"
         sodipodi:nodetypes="sssssssssss" />
      <path
         id="rect1-7-8-5-1-5-4-34-31-3-6-5-5-8-2-4-2-8"
         style="stroke:#ffffff;stroke-width:0.453133;stroke-linejoin:round;stroke-dasharray:none;stroke-dashoffset:0;stroke-opacity:1"
         d="m 465.8692,611.71117 c -0.62285,-0.69964 -2.00014,-1.04147 -3.08805,-0.76643 l -1.28068,0.32376 c -1.08793,0.27503 -1.46233,1.05971 -0.83947,1.75934 0.62284,0.69964 1.64147,0.71058 2.82652,0.57013 1.80001,-0.21327 3.58653,-0.31588 2.38168,-1.8868 z"
         sodipodi:nodetypes="ssssss" />
      <path
         id="rect1-7-8-5-1-5-4-34-0-1-3-9-6-4-0-6-7-9-44"
         style="stroke:#ffffff;stroke-width:0.419911;stroke-linejoin:round;stroke-dasharray:none;stroke-dashoffset:0;stroke-opacity:1"
         d="m 473.00677,613.24002 c -0.72948,-0.58339 -2.13739,-0.82566 -3.15673,-0.54319 l -1.19996,0.33251 c -1.01936,0.28247 -1.2527,0.97955 -0.52323,1.56294 0.72947,0.58341 1.72961,0.55231 2.86704,0.38298 1.7277,-0.25716 3.46101,-0.4176 2.01288,-1.73524 z"
         sodipodi:nodetypes="ssssss" />
      <path
         id="rect1-7-5-6-7-4-6-3-1-3-5-5-0"
         style="stroke:#ffffff;stroke-width:0.374331;stroke-linejoin:round;stroke-dasharray:none;stroke-dashoffset:0;stroke-opacity:1"
         d="m 472.94243,561.06391 0.0408,-3.5389 c 0.017,-1.47189 -2.90483,-1.35351 -3.18644,0.37284 l -0.40194,2.46403 c -0.34759,2.13083 3.52286,2.84957 3.54761,0.70203 z"
         sodipodi:nodetypes="sssss" />
      <path
         id="path1-73-1-5-7-3-7-0-4-71-2"
         style="stroke:#ffffff;stroke-width:0.287201;stroke-linejoin:round;stroke-dasharray:none;stroke-dashoffset:0;stroke-opacity:1"
         d="m 474.06357,555.00886 c -0.50452,2.1619 -1.20507,4.5893 -3.15384,4.59012 -1.94877,8.2e-4 -3.10388,-2.3675 -3.10388,-4.58749 0,-2.22 1.15656,-3.37657 3.10388,-3.45182 2.25026,-0.087 3.70893,1.07059 3.15384,3.44919 z"
         sodipodi:nodetypes="sssss" />
      <path
         id="rect1-7-8-3-2-6-6-1-0-0-7-4-5-8-1"
         style="stroke:#ffffff;stroke-width:0.317429;stroke-linejoin:round;stroke-dasharray:none;stroke-dashoffset:0;stroke-opacity:1"
         d="m 471.42425,569.91068 c -0.24857,-0.88585 -0.98096,-1.55225 -1.56855,-1.28469 l -7.07814,3.22317 c -0.58758,0.26753 -0.82396,0.50482 -0.57534,1.39062 0.24857,0.88585 0.66912,1.10196 1.28357,0.90568 l 7.26745,-2.32153 c 0.61445,-0.19623 0.91963,-1.02742 0.67101,-1.91324 z"
         sodipodi:nodetypes="sssssss"
         inkscape:transform-center-x="3.9264431"
         inkscape:transform-center-y="0.63511165" />
      <path
         id="rect1-7-8-5-1-8-7-5-7-9-2-9-8-5-3-1-1-7"
         style="stroke:#ffffff;stroke-width:0.374331;stroke-linejoin:round;stroke-dasharray:none;stroke-dashoffset:0;stroke-opacity:1"
         d="m 462.76381,573.82277 c 0.0142,-0.79437 -0.70708,-1.82379 -1.42024,-1.45936 -0.88104,0.45022 -1.85621,0.36154 -1.97042,1.39962 -0.0906,0.82348 0.57175,1.75918 1.28989,1.71776 0.7996,-0.0462 2.08676,-0.86364 2.10077,-1.65802 z"
         sodipodi:nodetypes="sssss"
         inkscape:transform-center-x="8.8090691"
         inkscape:transform-center-y="2.6353789" />
      <path
         id="rect1-7-8-5-5-6-7-7-5-4-9-4-6-1-3-3-2-4-0"
         style="stroke:#ffffff;stroke-width:0.374331;stroke-linejoin:round;stroke-dasharray:none;stroke-dashoffset:0;stroke-opacity:1"
         d="m 461.60002,572.68062 c 0.0605,-0.2272 -0.0539,-0.45362 -0.35226,-0.53289 l -1.69742,-0.45202 c -0.30642,-0.0811 -0.60246,0.0354 -0.66295,0.26257 -0.0603,0.22719 0.13825,0.47591 0.44458,0.55748 l 1.69743,0.45202 c 0.23914,0.0638 0.51012,-0.06 0.5706,-0.2872 z"
         sodipodi:nodetypes="sssssss"
         inkscape:transform-center-x="9.5464727"
         inkscape:transform-center-y="1.010782" />
      <path
         id="rect1-7-8-5-1-5-4-364-1-3-9-8-1-8-3-7-2-3-9"
         style="stroke:#ffffff;stroke-width:0.374331;stroke-linejoin:round;stroke-dasharray:none;stroke-dashoffset:0;stroke-opacity:1"
         d="m 461.18365,574.22768 c -0.13643,-0.7827 -0.88153,-1.30206 -1.67052,-1.16451 l -0.92885,0.16191 c -0.78903,0.13755 -1.31439,0.87841 -1.17789,1.66114 0.13643,0.78269 0.77647,0.92372 1.57739,0.93382 1.21653,0.0155 2.38385,0.14028 2.19991,-1.59235 z"
         sodipodi:nodetypes="ssssss"
         inkscape:transform-center-x="10.579621"
         inkscape:transform-center-y="3.1848687" />
      <path
         id="rect1-7-8-5-1-8-52-7-5-6-4-3-9"
         style="stroke:#ffffff;stroke-width:0.374331;stroke-linejoin:round;stroke-dasharray:none;stroke-dashoffset:0;stroke-opacity:1"
         d="m 453.05557,568.92743 c 0.27331,-0.74601 -0.0709,-1.95478 -0.86414,-1.84392 -0.9799,0.13695 -1.8723,-0.26612 -2.32009,0.67734 -0.35524,0.74842 -0.0357,1.8494 0.6564,2.04539 0.77064,0.2182 2.25452,-0.13279 2.52783,-0.87881 z"
         sodipodi:nodetypes="sssss" />
      <path
         id="rect1-7-8-5-1-5-4-8-8-8-0-9-5-55"
         style="stroke:#ffffff;stroke-width:0.374331;stroke-linejoin:round;stroke-dasharray:none;stroke-dashoffset:0;stroke-opacity:1"
         d="m 451.34862,568.04101 c -0.4868,-0.62789 -1.38829,-0.73832 -2.02126,-0.24758 l -0.74513,0.57768 c -0.63299,0.49075 -0.75065,1.39131 -0.26386,2.01922 0.4868,0.62789 1.11844,0.45307 1.83103,0.0873 1.08238,-0.55555 2.17247,-0.99133 1.19922,-2.43659 z"
         sodipodi:nodetypes="ssssss" />
      <path
         id="rect1-7-8-5-5-6-7-3-8-5-1-5-25-6-5"
         style="fill:none;stroke:#ffffff;stroke-width:0.374331;stroke-linejoin:round;stroke-dasharray:none;stroke-dashoffset:0;stroke-opacity:1"
         d="m 470.8629,552.11103 c -1.26426,-0.0512 -2.45525,0.90081 -2.53563,2.19368 -0.21265,1.64175 0.25676,3.49095 1.55337,4.57099 0.24781,0.48467 0.14917,1.2323 -0.16916,1.63231 -0.46653,0.57837 -1.24543,0.13033 -1.8707,0.35051 -0.57772,0.0752 -1.15805,0.23239 -1.54194,0.68674 -2.27811,1.10191 -4.44295,2.48769 -6.70937,3.62632 -2.42672,0.82298 -4.8741,1.61692 -7.28711,2.46094 -0.53396,-0.5035 -1.29949,-0.43236 -1.96875,-0.60743 0.30105,0.52131 0.13306,1.03064 -0.50663,1.07758 -0.61334,0.39163 -1.63918,0.94302 -1.24728,1.82477 0.3879,0.79991 1.28131,0.0403 1.81028,-0.17995 0.58653,-0.52827 1.47855,-0.31649 2.04714,-0.87669 2.82957,-0.55492 5.70224,-1.09747 8.53017,-1.71965 1.52488,-0.61731 3.04176,-1.25632 4.56358,-1.88192 0.70598,0.21085 0.85672,0.76539 0.81366,1.4399 0.0724,1.21982 0.26497,2.47873 0.21731,3.67733 -0.31072,0.75132 -1.27339,0.7755 -1.89586,1.17912 -0.79927,0.37089 -1.67719,0.71608 -2.37683,1.17844 -0.63435,0.40055 -1.26501,-0.16234 -1.93015,-0.24627 0.24725,0.66407 -0.18008,1.07516 -0.83195,1.11236 -0.67853,0.0736 -1.74654,0.20424 -1.66412,1.12796 0.0834,0.78243 1.1173,0.51475 1.65622,0.58195 0.70739,0.0929 1.22104,-0.4157 1.85118,-0.62567 0.56336,-0.19464 0.66225,-0.91588 1.27462,-0.97239 0.49333,-0.0302 1.01639,-0.1457 1.51274,-0.3439 0.65318,-0.15241 1.34425,-0.54237 1.97378,-0.54636 0.6281,0.23491 0.68836,0.76488 0.62011,1.36136 0.0531,2.59867 -0.24937,5.18127 -0.60157,7.75 -0.0639,0.6584 0.0196,1.32785 -0.35937,1.91992 -0.9978,4.21661 -2.08566,8.42019 -3.02735,12.64493 0.17651,0.63771 -0.21359,1.25185 -0.0135,1.90603 0.35281,4.14057 0.70563,8.28113 1.05844,12.4217 -0.24769,0.49683 -0.66858,0.63662 -1.17825,0.69954 -0.58531,0.24272 -1.55491,0.13464 -1.80027,0.83757 0.33591,0.96058 1.66319,0.80415 2.40604,0.73491 0.80547,-0.14002 1.71456,-0.0747 2.4299,-0.50639 0.61855,-1.02612 0.30873,-2.28494 0.44896,-3.42372 0.1476,-4.02051 0.30783,-8.06495 0.44362,-12.07042 0.5026,-1.24805 1.00521,-2.4961 1.50781,-3.74415 0.65015,-0.3748 1.21747,0.17592 1.06803,0.85834 0.14386,1.13515 0.0382,2.32173 0.35384,3.42291 0.40273,0.62383 -0.35425,1.23622 -0.11154,1.91154 0.50658,4.33353 1.01317,8.66705 1.51975,13.00057 -0.25376,0.60832 -0.81825,0.6487 -1.37955,0.78675 -0.42052,0.18966 -1.09885,0.13941 -1.34311,0.58239 0.66217,0.94051 2.01116,0.62318 2.98826,0.50353 0.67236,-0.0996 1.35821,-0.19304 1.9844,-0.46446 0.11678,-1.6347 -10e-4,-3.29755 0.0361,-4.94257 -0.0259,-3.47738 0.0263,-6.96066 -0.0478,-10.43439 -0.25348,-0.64282 0.18822,-1.29716 0.12439,-1.97443 0.3425,-4.01417 0.7735,-8.02845 1.0609,-12.04256 -0.29191,-1.01248 -0.097,-2.11744 -0.40404,-3.14316 -1.00592,-4.30701 0.47486,-8.61537 1.40625,-12.79102 0.81415,-1.25185 1.15827,-2.80091 1.11719,-4.2832 -0.86969,-1.27384 -2.34896,-1.97545 -3.78711,-2.44531 -0.55556,-0.6906 -0.197,-1.60897 -0.28219,-2.42802 -0.006,-0.72671 -0.0599,-1.4736 0.37305,-2.09991 0.3921,-1.11109 0.9099,-2.4089 0.81514,-3.67824 -0.15148,-1.29887 -1.59741,-1.65586 -2.69507,-1.59071 z" />
      <path
         id="rect1-7-8-5-5-6-7-3-8-5-1-5-25-6-5-9"
         style="fill:none;stroke:#ffffff;stroke-width:0.374331;stroke-linejoin:round;stroke-dasharray:none;stroke-dashoffset:0;stroke-opacity:1"
         d="m 470.38244,553.09827 c -0.97257,0.15414 -1.32498,1.22678 -1.17423,2.08813 -0.0159,1.14803 0.56064,2.17689 1.34024,2.97437 1.02938,1.36768 0.004,3.758 -1.79883,3.64844 -0.87945,-0.18539 -1.71323,0.20103 -2.3838,0.72844 -2.55073,1.21552 -4.86318,2.93211 -7.54003,3.87312 2.29077,-0.33397 4.28091,-1.60757 6.47461,-2.24609 1.36293,-0.0568 2.15119,1.45161 1.97811,2.65844 0.0323,1.37791 0.47993,2.8346 -0.0294,4.16253 -0.0512,0.43787 -1.22365,0.75502 -0.53073,0.93098 1.21261,0.70361 0.96561,2.26106 0.94879,3.43866 -0.0627,2.7489 -0.45061,5.48354 -0.78804,8.20535 -0.82888,2.62144 -1.33511,5.38564 -2.04406,8.0796 -0.48206,2.21551 -1.25721,4.41258 -1.18895,6.70217 0.4009,4.13314 0.74596,8.27696 1.05468,12.41992 0.15611,0.4188 -0.84649,1.21259 -0.22381,1.005 0.52719,-0.13911 0.33063,-0.9236 0.40948,-1.36934 0.0683,-3.33958 0.25134,-6.67908 0.34922,-10.01968 0.0854,-1.2796 0.036,-2.58725 0.23927,-3.84722 0.58443,-1.31149 0.97612,-2.72992 1.71251,-3.96057 1.01953,-1.13564 3.09364,-0.0526 2.89249,1.41673 0.0508,1.29436 0.0522,2.6099 0.4392,3.85712 -0.007,0.74778 -0.43087,1.45457 -0.15088,2.20033 0.46071,4.19635 1.05031,8.38561 1.4087,12.58873 -0.46209,0.86782 0.4828,0.45376 0.19651,-0.25076 0.003,-4.58498 0.0512,-9.17209 -0.0583,-13.75579 -0.0803,-1.4966 0.31847,-2.97069 0.35816,-4.46846 0.24832,-3.26137 0.68285,-6.51539 0.80486,-9.79962 -0.17053,-1.30917 -0.21939,-2.63465 -0.5378,-3.92014 -0.5906,-4.19731 0.71995,-8.33093 1.70332,-12.36187 0.61626,-1.05727 1.10812,-2.33195 0.91797,-3.55469 -0.87895,-1.021 -2.25573,-1.33224 -3.3789,-1.9707 -1.01761,-1.0342 -0.47166,-2.53509 -0.63282,-3.7836 0.0439,-1.54605 1.05299,-2.8579 1.19912,-4.3936 0.22205,-0.64109 -0.24214,-1.2719 -0.91711,-1.25785 -0.34633,-0.0456 -0.70198,-0.0428 -1.04958,-0.0181 z" />
    </g>
  </g>
</svg>
