<?xml version="1.0" encoding="UTF-8" standalone="no"?>
<!-- Created with Inkscape (http://www.inkscape.org/) -->

<svg
   width="55.549191mm"
   height="80.044533mm"
   viewBox="0 0 55.549191 80.044533"
   version="1.1"
   id="svg1"
   xmlns:inkscape="http://www.inkscape.org/namespaces/inkscape"
   xmlns:sodipodi="http://sodipodi.sourceforge.net/DTD/sodipodi-0.dtd"
   xmlns="http://www.w3.org/2000/svg"
   xmlns:svg="http://www.w3.org/2000/svg">
  <sodipodi:namedview
     id="namedview1"
     pagecolor="#ffffff"
     bordercolor="#000000"
     borderopacity="0.25"
     inkscape:showpageshadow="2"
     inkscape:pageopacity="0.0"
     inkscape:pagecheckerboard="0"
     inkscape:deskcolor="#d1d1d1"
     inkscape:document-units="mm" />
  <defs
     id="defs1" />
  <g
     inkscape:label="Layer 1"
     inkscape:groupmode="layer"
     id="layer1"
     transform="translate(1021.2626,-847.63175)">
    <g
       id="g105"
       transform="translate(-1711.9379,701.39526)">
      <path
         id="path1-73-1-5-7-3-7-0-4-1-5-5-9"
         style="stroke:#ffffff;stroke-width:0.287201;stroke-linejoin:round;stroke-dasharray:none;stroke-dashoffset:0;stroke-opacity:1"
         d="m 703.99087,165.15074 c 0.0914,2.2181 0.0649,4.7443 -1.81289,5.2658 -1.87761,0.5214 -3.62356,-1.4521 -4.21663,-3.5914 -0.59316,-2.1393 0.1202,-4.1313 2.06879,-4.1556 2.42579,-0.03 3.86014,0.041 3.96073,2.4812 z"
         sodipodi:nodetypes="sssss" />
      <path
         id="rect1-7-8-5-1-5-4-34-0-1-3-9-6-4-0-6-7-3-8-1-4"
         style="stroke:#ffffff;stroke-width:0.419911;stroke-linejoin:round;stroke-dasharray:none;stroke-dashoffset:0;stroke-opacity:1"
         d="m 697.2119,220.76488 c 0.49718,-0.7907 1.74722,-1.4823 2.80278,-1.5506 l 1.24257,-0.08 c 1.05555,-0.068 1.50506,0.5133 1.00788,1.3041 -0.49718,0.7908 -1.45197,1.0901 -2.58184,1.3041 -1.71625,0.325 -3.40597,0.7432 -2.47139,-0.9772 z"
         sodipodi:nodetypes="ssssss" />
      <path
         id="rect1-9-4-41-7-6-1-1-5-8-1-3-6-7-8"
         style="stroke:#ffffff;stroke-width:0.359059;stroke-linejoin:round;stroke-dasharray:none;stroke-dashoffset:0;stroke-opacity:1"
         d="m 700.77702,193.75208 -2.73139,0.3113 c -0.90675,0.1033 -1.63432,0.8667 -1.55857,1.7011 l 1.1552,12.726 c 0.0754,0.8344 0.86256,1.4432 1.77184,1.3644 l 1.609,-0.1394 c 0.90927,-0.079 1.45037,-0.8116 1.51072,-1.6489 l 0.94249,-13.0758 c 0.0604,-0.8373 -1.79253,-1.342 -2.69928,-1.2387 z"
         sodipodi:nodetypes="sssssssss" />
      <path
         id="rect1-7-8-5-5-6-7-3-8-5-1-5-2-2-1-5"
         style="stroke:#ffffff;stroke-width:0.374331;stroke-linejoin:round;stroke-dasharray:none;stroke-dashoffset:0;stroke-opacity:1"
         d="m 693.88191,187.38889 c 0.23198,-0.0377 0.446,0.099 0.49534,0.40334 l 0.28174,1.73387 c 0.0512,0.31283 -0.0949,0.59597 -0.32699,0.63363 -0.23204,0.0377 -0.45988,-0.18465 -0.5107,-0.49757 l -0.28166,-1.7338 c -0.0398,-0.24433 0.10979,-0.50173 0.34224,-0.53944 z"
         sodipodi:nodetypes="sssssss" />
      <path
         id="rect1-7-3-7-0-3-9-3-9-7-1-2-3-7-2"
         style="stroke:#ffffff;stroke-width:0.374331;stroke-linejoin:round;stroke-dasharray:none;stroke-dashoffset:0;stroke-opacity:1"
         d="m 699.13179,172.1762 c -0.73699,-0.52401 -2.43068,-0.3658 -2.79693,0.46905 l -2.90909,6.63161 c -0.36612,0.83486 -0.1779,1.86757 0.55917,2.39151 0.73709,0.52393 1.79,0.38877 2.24929,-0.39872 l 3.6818,-6.31412 c 0.45922,-0.78757 -0.0475,-2.25538 -0.78425,-2.77931 z"
         sodipodi:nodetypes="ssssssss"
         inkscape:transform-center-x="2.4868785"
         inkscape:transform-center-y="4.8807218" />
      <path
         id="rect1-7-8-30-8-6-6-5-6-4-9-9-6-1-1-2"
         style="stroke:#ffffff;stroke-width:0.313714;stroke-linejoin:round;stroke-dasharray:none;stroke-dashoffset:0;stroke-opacity:1"
         d="m 695.49244,178.65972 c -0.86413,-0.31882 -1.81548,-0.12582 -1.95256,0.48906 l -1.59238,7.14355 c -0.13705,0.61497 -0.0663,0.94231 0.79752,1.26114 0.86414,0.31882 1.26636,0.10737 1.47946,-0.48484 l 2.43504,-6.76877 c 0.21304,-0.59229 -0.30297,-1.3213 -1.16709,-1.64013 z"
         sodipodi:nodetypes="sssssss"
         inkscape:transform-center-x="1.3277433"
         inkscape:transform-center-y="3.4382978" />
      <path
         id="rect1-7-2-76-1-7-2-6-7-2-5-0-5-1-4-2"
         style="stroke:#ffffff;stroke-width:0.374331;stroke-linejoin:round;stroke-dasharray:none;stroke-dashoffset:0;stroke-opacity:1"
         d="m 702.01786,173.64364 c -0.38349,-0.8191 0.47326,-1.9847 1.36335,-1.7884 l 9.2227,2.0356 c 0.89031,0.1957 1.86422,0.2097 2.22567,1.0383 0.36135,0.829 0.0595,2.1218 -0.85217,2.1194 l -8.858,-0.023 c -0.87553,-0.2296 -2.35894,-1.8765 -3.10154,-3.3822 z"
         sodipodi:nodetypes="csssscc"
         inkscape:transform-center-x="-5.5466797"
         inkscape:transform-center-y="0.85540272" />
      <path
         id="rect1-9-4-4-31-7-1-4-3-0-5-7-9-6-3-1"
         style="stroke:#ffffff;stroke-width:0.387927;stroke-linejoin:round;stroke-dasharray:none;stroke-dashoffset:0;stroke-opacity:1"
         d="m 700.82846,206.39258 -1.60066,-0.1868 c -0.90456,-0.1056 -1.80048,0.5882 -1.83781,1.5666 l -0.44665,11.7068 c -0.0373,0.9783 -0.16862,1.6286 0.73595,1.7339 l 0.72155,0.084 c 0.90458,0.1053 1.66686,-0.6016 1.8378,-1.5666 l 2.01755,-11.3905 c 0.17092,-0.965 -0.52316,-1.8421 -1.42771,-1.9476 z"
         sodipodi:nodetypes="ssssssssss" />
      <path
         id="rect1-7-8-5-1-5-4-34-31-3-6-5-5-8-2-4-6-4-5-0"
         style="stroke:#ffffff;stroke-width:0.453133;stroke-linejoin:round;stroke-dasharray:none;stroke-dashoffset:0;stroke-opacity:1"
         d="m 706.33389,224.76308 c 0.27136,-0.8965 1.37763,-1.7854 2.48046,-1.9927 l 1.29818,-0.2442 c 1.10285,-0.2074 1.7722,0.3474 1.50088,1.244 -0.27135,0.8965 -1.19114,1.3344 -2.32558,1.7047 -1.7231,0.5625 -3.38746,1.2199 -2.95394,-0.7118 z"
         sodipodi:nodetypes="ssssss" />
      <path
         id="rect1-7-8-3-2-6-6-1-0-0-7-4-5-1-6-0-5"
         style="stroke:#ffffff;stroke-width:0.317429;stroke-linejoin:round;stroke-dasharray:none;stroke-dashoffset:0;stroke-opacity:1"
         d="m 713.49822,176.16074 c -0.35951,-0.8469 -0.2042,-1.8248 0.42168,-1.983 l 7.54004,-1.9072 c 0.62589,-0.1583 0.95872,-0.1208 1.31819,0.726 0.35957,0.847 0.16632,1.2785 -0.43606,1.5093 l -7.12432,2.7292 c -0.60236,0.2308 -1.36004,-0.2275 -1.71953,-1.0743 z"
         sodipodi:nodetypes="sssssss"
         inkscape:transform-center-x="-11.587415"
         inkscape:transform-center-y="-0.42733574" />
      <path
         id="rect1-7-8-5-1-8-52-7-5-6-4-2-1-2-5"
         style="stroke:#ffffff;stroke-width:0.374331;stroke-linejoin:round;stroke-dasharray:none;stroke-dashoffset:0;stroke-opacity:1"
         d="m 692.23216,186.66562 c 0.75169,-0.2572 1.95281,0.11297 1.82491,0.90361 -0.15807,0.97673 0.22571,1.87759 -0.72722,2.30497 -0.75585,0.33906 -1.84972,-0.004 -2.03076,-0.70029 -0.20157,-0.77519 0.1813,-2.25116 0.93307,-2.50829 z"
         sodipodi:nodetypes="sssss" />
      <path
         id="rect1-7-8-5-1-5-4-8-8-8-0-9-0-1-8-3"
         style="stroke:#ffffff;stroke-width:0.374331;stroke-linejoin:round;stroke-dasharray:none;stroke-dashoffset:0;stroke-opacity:1"
         d="m 692.62719,188.33582 c 0.77019,0.19492 1.23222,0.97687 1.03572,1.75337 l -0.23111,0.91401 c -0.19649,0.77649 -0.97476,1.24472 -1.74502,1.04986 -0.77018,-0.1948 -0.8627,-0.84367 -0.81249,-1.64322 0.0761,-1.21423 0.0392,-2.38764 1.75312,-2.07409 z"
         sodipodi:nodetypes="ssssss" />
      <path
         id="rect1-7-5-6-7-4-6-3-1-3-5-8-5-5-3"
         style="stroke:#ffffff;stroke-width:0.374331;stroke-linejoin:round;stroke-dasharray:none;stroke-dashoffset:0;stroke-opacity:1"
         d="m 698.46644,172.01874 -0.0408,-3.5389 c -0.017,-1.4718 2.90483,-1.3535 3.18644,0.3729 l 0.40194,2.464 c 0.34759,2.1308 -3.52286,2.8496 -3.54761,0.702 z"
         sodipodi:nodetypes="sssss" />
      <path
         id="rect1-9-69-4-8-4-7-7-73-7-5-9-3-0"
         style="stroke:#ffffff;stroke-width:0.359059;stroke-linejoin:round;stroke-dasharray:none;stroke-dashoffset:0;stroke-opacity:1"
         d="m 704.0459,193.56208 -2.54141,0.6648 c -0.88295,0.231 -2.28297,1.4044 -1.96943,2.1827 l 4.77553,11.855 c 0.31352,0.7784 1.07539,1.2925 1.96153,1.074 l 1.56809,-0.3866 c 0.88613,-0.2185 1.43475,-1.0484 1.23752,-1.8627 l -3.01579,-12.4502 c -0.19755,-0.8142 -1.13308,-1.308 -2.01603,-1.077 z"
         sodipodi:nodetypes="ssssssssss" />
      <path
         id="rect1-9-1-95-4-0-1-8-0-2-1-4-6-4-6"
         style="stroke:#ffffff;stroke-width:0.387927;stroke-linejoin:round;stroke-dasharray:none;stroke-dashoffset:0;stroke-opacity:1"
         d="m 707.66675,208.57808 h -1.61153 c -0.91068,0 -1.68037,0.7898 -1.64383,1.7691 l 0.51391,13.7751 c 0.0365,0.9793 0.73315,1.7691 1.64384,1.7691 h 0.61225 c 0.91069,0 0.87342,-0.7931 0.95651,-1.7691 l 1.1727,-13.7751 c 0.0831,-0.976 -0.73316,-1.7691 -1.64385,-1.7691 z"
         sodipodi:nodetypes="sssssssss" />
      <path
         id="rect1-0-0-2-5-8-0-4-2-7-8-4-0"
         style="stroke:none;stroke-width:0.314577;stroke-linejoin:round;stroke-dasharray:none;stroke-dashoffset:0;stroke-opacity:1"
         d="m 697.84218,171.63384 c 3.00028,-1.0108 4.94787,0.4451 6.95399,1.0834 0.62816,0.1999 2.9867,1.3533 2.94241,2.2628 -0.30075,6.1747 -3.45323,11.6066 -2.11401,17.37624 0.37838,1.6301 0.24111,3.0748 0.295,4.5613 0.033,0.9105 -0.56462,1.9068 -1.16213,1.6456 l -5.42582,-2.3722 c -0.59756,-0.2612 -2.68608,1.6374 -2.65626,0.7266 0.0565,-1.7288 -0.0164,-3.3216 0.31164,-5.4099 0.88653,-5.64364 0.2016,-11.62944 -0.31164,-17.55294 -0.0784,-0.9048 0.53621,-2.1084 1.16682,-2.3209 z"
         sodipodi:nodetypes="sssssssssss" />
      <g
         id="g3-6-3-7-1-5"
         transform="matrix(0.49996159,0.26188381,-0.26188381,0.49996159,731.05174,117.14713)"
         style="fill:#4d4d4d;stroke-width:0.661458;stroke-dasharray:none"
         inkscape:transform-center-x="-5.2412177"
         inkscape:transform-center-y="-11.824103">
        <path
           style="fill:#4d4d4d;fill-opacity:1;stroke:#ffffff;stroke-width:0.661458;stroke-linejoin:round;stroke-dasharray:none;stroke-dashoffset:0;stroke-opacity:1"
           d="M 33.86842,40.815787 31.610527,51.58421 31.436841,94.136841 h 3.821052 l 0.303948,-42.682896 z"
           id="path2-6-54-4-5-19"
           sodipodi:nodetypes="cccccc" />
        <rect
           style="fill:#4d4d4d;fill-opacity:1;stroke:#ffffff;stroke-width:0.661458;stroke-linejoin:round;stroke-dasharray:none;stroke-dashoffset:0;stroke-opacity:1"
           id="rect3-9-9-1-5-05"
           width="11.541431"
           height="3.7543805"
           x="27.576651"
           y="85.616226" />
      </g>
      <path
         id="rect1-7-8-5-1-8-7-5-7-9-2-9-8-5-3-1-9-0-3-0"
         style="stroke:#ffffff;stroke-width:0.374331;stroke-linejoin:round;stroke-dasharray:none;stroke-dashoffset:0;stroke-opacity:1"
         d="m 721.94725,174.05474 c -0.59691,-0.5244 -0.87237,-1.7508 -0.12277,-2.0327 0.92614,-0.3482 1.51715,-1.1289 2.36158,-0.5144 0.66979,0.4874 0.91566,1.6071 0.40152,2.1102 -0.57239,0.5602 -2.04354,0.9614 -2.64033,0.4369 z"
         sodipodi:nodetypes="sssss"
         inkscape:transform-center-x="-16.914124"
         inkscape:transform-center-y="-5.1469575" />
      <path
         id="rect1-7-8-5-5-6-7-7-5-4-9-4-6-1-3-3-2-1-5-3-4"
         style="stroke:#ffffff;stroke-width:0.374331;stroke-linejoin:round;stroke-dasharray:none;stroke-dashoffset:0;stroke-opacity:1"
         d="m 721.88641,172.42534 c -0.20872,-0.1083 -0.29916,-0.3454 -0.15683,-0.6193 l 0.80861,-1.5594 c 0.14643,-0.2811 0.43152,-0.4219 0.64053,-0.3134 0.20858,0.1084 0.25878,0.4227 0.11286,0.7041 l -0.8087,1.5594 c -0.11369,0.2199 -0.38783,0.3367 -0.59653,0.2285 z"
         sodipodi:nodetypes="sssssss"
         inkscape:transform-center-x="-16.315294"
         inkscape:transform-center-y="-6.7546537" />
      <path
         id="rect1-7-8-5-1-5-4-364-1-3-9-8-1-8-3-7-2-2-2-5-4"
         style="stroke:#ffffff;stroke-width:0.374331;stroke-linejoin:round;stroke-dasharray:none;stroke-dashoffset:0;stroke-opacity:1"
         d="m 723.31055,173.15904 c -0.48684,-0.6279 -0.36911,-1.5284 0.26378,-2.0192 l 0.7451,-0.5777 c 0.63299,-0.4908 1.53444,-0.3804 2.02131,0.2476 0.48677,0.6278 0.16015,1.196 -0.37164,1.795 -0.80801,0.9095 -1.50133,1.857 -2.65858,0.5543 z"
         sodipodi:nodetypes="ssssss"
         inkscape:transform-center-x="-18.592212"
         inkscape:transform-center-y="-5.9091562" />
      <path
         id="rect1-9-1-75-3-2-8-9"
         style="stroke:#ffffff;stroke-width:0.387927;stroke-linejoin:round;stroke-dasharray:none;stroke-dashoffset:0;stroke-opacity:1"
         d="m 718.25123,208.4954 0.20182,-1.59884 c 0.11404,-0.90352 0.99401,-1.56824 1.96101,-1.40934 l 13.60233,2.23498 c 0.96699,0.15885 1.66333,0.94893 1.54928,1.85245 l -0.0767,0.60742 c -0.11405,0.90353 -0.89623,0.76724 -1.87493,0.72744 l -13.81356,-0.56167 c -0.97869,-0.0398 -1.66331,-0.94892 -1.54927,-1.85244 z"
         sodipodi:nodetypes="sssssssss"
         inkscape:transform-center-x="-7.3187379"
         inkscape:transform-center-y="0.050489573" />
      <path
         id="rect1-7-8-5-5-6-7-12-3-5-6-2"
         style="stroke:#ffffff;stroke-width:0.374331;stroke-linejoin:round;stroke-dasharray:none;stroke-dashoffset:0;stroke-opacity:1"
         d="m 725.28896,202.75396 c -0.22755,-0.059 -0.4532,0.0573 -0.53052,0.35582 l -0.4407,1.70039 c -0.0795,0.30684 0.0394,0.60221 0.26699,0.66118 0.22755,0.059 0.47499,-0.14144 0.55451,-0.44828 l 0.4407,-1.70041 c 0.062,-0.23957 -0.0634,-0.50971 -0.29086,-0.56872 z"
         sodipodi:nodetypes="sssssss"
         inkscape:transform-center-x="4.0763658"
         inkscape:transform-center-y="10.261755" />
      <path
         id="rect1-9-4-4-0-8-2-2-3"
         style="stroke:#ffffff;stroke-width:0.387927;stroke-linejoin:round;stroke-dasharray:none;stroke-dashoffset:0;stroke-opacity:1"
         d="m 724.989,208.93326 -0.007,1.61151 c -0.004,0.91068 0.78893,1.7589 1.76204,1.65135 l 13.91392,-1.53768 c 0.97314,-0.10749 1.63706,-0.0143 1.64094,-0.92497 l 0.003,-0.72645 c 0.004,-0.91068 -0.78199,-1.64718 -1.76205,-1.65136 l -13.77502,-0.0587 c -0.98005,-0.004 -1.77218,0.72559 -1.77605,1.63628 z"
         sodipodi:nodetypes="sssssssss"
         inkscape:transform-center-x="-7.6661933"
         inkscape:transform-center-y="0.10117012" />
      <path
         id="rect1-7-6-6-8-7-6"
         style="stroke:#ffffff;stroke-width:0.374331;stroke-linejoin:round;stroke-dasharray:none;stroke-dashoffset:0;stroke-opacity:1"
         d="m 733.28132,181.4462 c 0.89422,0.1347 2.01521,1.42901 1.68716,2.27956 l -3.71003,9.61898 c -0.32805,0.85056 -1.16862,1.46751 -2.06285,1.3328 -0.89422,-0.1347 -1.60017,-0.9744 -1.34184,-1.84866 l 2.93344,-9.92707 c 0.25835,-0.87426 1.59989,-1.59032 2.49412,-1.45561 z"
         sodipodi:nodetypes="sssssss"
         inkscape:transform-center-x="1.3849994"
         inkscape:transform-center-y="4.8620995" />
      <path
         id="rect1-7-6-6-8-7-3-2"
         style="stroke:#ffffff;stroke-width:0.374331;stroke-linejoin:round;stroke-dasharray:none;stroke-dashoffset:0;stroke-opacity:1"
         d="m 739.66927,182.44922 c -0.9036,0.0357 -2.15998,1.19901 -1.92734,2.08045 l 2.63103,9.96829 c 0.23264,0.88144 1.00036,1.58699 1.90397,1.55132 0.90361,-0.0357 1.69752,-0.79274 1.53678,-1.69009 l -1.82529,-10.18921 c -0.16076,-0.89735 -1.41553,-1.75643 -2.31915,-1.72076 z"
         sodipodi:nodetypes="sssssss"
         inkscape:transform-center-x="-0.81754893"
         inkscape:transform-center-y="5.003071" />
      <path
         id="rect1-9-6-3-8-3-7"
         style="stroke:#ffffff;stroke-width:0.359059;stroke-linejoin:round;stroke-dasharray:none;stroke-dashoffset:0;stroke-opacity:1"
         d="m 732.56291,201.37391 1.03857,2.41292 c 0.36083,0.8383 0.29649,2.66387 -0.51009,2.89527 l -12.28523,3.52434 c -0.80655,0.23148 -2.50729,0.0791 -2.87993,-0.75409 -0.54955,-1.15328 -0.6284,-2.88467 0.87523,-3.72788 l 11.67246,-5.27805 c 0.76339,-0.34518 1.72817,0.0892 2.089,0.9275 z"
         sodipodi:nodetypes="sssssssss"
         inkscape:transform-center-x="6.9889274"
         inkscape:transform-center-y="2.8675267" />
      <path
         id="rect1-9-4-32-7-9-5-5"
         style="stroke:#ffffff;stroke-width:0.359059;stroke-linejoin:round;stroke-dasharray:none;stroke-dashoffset:0;stroke-opacity:1"
         d="m 738.99839,203.28556 -1.66495,-2.18755 c -0.55274,-0.72618 -1.58086,-0.96074 -2.25899,-0.46877 l -10.34316,7.50373 c -0.67839,0.49164 -1.55935,2.20713 -1.02642,2.94806 0.76752,1.1528 2.3227,1.71474 3.89336,1.03789 l 11.71695,-5.88035 c 0.75025,-0.37654 0.23593,-2.22678 -0.31678,-2.95299 z"
         sodipodi:nodetypes="sssssssss"
         inkscape:transform-center-x="5.9421457"
         inkscape:transform-center-y="2.236521" />
      <path
         id="rect1-7-8-0-69-2-5-2"
         style="stroke:#ffffff;stroke-width:0.374331;stroke-linejoin:round;stroke-dasharray:none;stroke-dashoffset:0;stroke-opacity:1"
         d="m 729.69181,193.06642 c 0.79502,0.43097 1.13356,1.45127 0.65082,2.22457 l -4.50515,7.21675 c -0.48275,0.77332 -0.85449,1.03302 -1.64951,0.60204 -0.79501,-0.43096 -0.78245,-0.98334 -0.38485,-1.80371 l 3.66942,-7.57096 c 0.3976,-0.82034 1.42426,-1.09968 2.21928,-0.6687 z"
         sodipodi:nodetypes="sssssss"
         inkscape:transform-center-x="1.9692887"
         inkscape:transform-center-y="4.2426251" />
      <path
         id="rect1-7-8-5-1-8-70-8-3-5-5"
         style="stroke:#ffffff;stroke-width:0.374331;stroke-linejoin:round;stroke-dasharray:none;stroke-dashoffset:0;stroke-opacity:1"
         d="m 725.82448,201.45478 c -0.29435,-0.73796 -1.35735,-1.40848 -1.87411,-0.79655 -0.63837,0.75592 -1.57197,1.05129 -1.27583,2.05275 0.23492,0.79445 1.2076,1.40116 1.85385,1.08524 0.71935,-0.35215 1.5904,-1.60346 1.2961,-2.34144 z"
         sodipodi:nodetypes="sssss"
         inkscape:transform-center-x="4.7701411"
         inkscape:transform-center-y="8.301655" />
      <path
         id="rect1-7-8-5-1-5-4-4-1-2-5-8"
         style="stroke:#ffffff;stroke-width:0.374331;stroke-linejoin:round;stroke-dasharray:none;stroke-dashoffset:0;stroke-opacity:1"
         d="m 724.81669,202.47553 c 0.31482,0.72947 -0.0237,1.57223 -0.75904,1.88961 l -0.86564,0.37364 c -0.73534,0.31744 -1.58083,-0.0143 -1.89567,-0.7438 -0.31482,-0.72947 0.1432,-1.19819 0.80759,-1.64561 1.00908,-0.67966 1.917,-1.4239 2.71278,0.12619 z"
         sodipodi:nodetypes="ssssss"
         inkscape:transform-center-x="5.9562331"
         inkscape:transform-center-y="9.3614388" />
      <path
         id="rect1-73-2-6-6-5"
         style="stroke:none;stroke-width:0.328672;stroke-linejoin:round;stroke-dasharray:none;stroke-dashoffset:0;stroke-opacity:1"
         d="m 732.54649,181.9852 c 3.45453,-1.82227 4.04347,-0.56881 6.23338,0.0695 0.68569,0.19987 3.02412,0.92316 2.97577,1.83263 -0.3283,6.17474 -3.49114,12.4448 -2.02921,18.21432 0.10358,0.4088 0.95452,1.55631 -0.0411,3.35701 -0.54862,0.99227 -2.21377,1.47742 -2.81143,1.10765 -4.00319,-2.00562 -3.62527,1.15178 -3.06243,-2.22194 0.0342,-1.76206 -3.99153,-1.14713 -3.51393,-3.09123 1.35749,-5.52564 1.54061,-11.69898 0.98035,-17.62241 -0.0856,-0.90484 0.61757,-1.30212 1.2686,-1.64553 z"
         sodipodi:nodetypes="sssssssssss" />
      <path
         id="rect1-7-8-5-1-5-4-34-2-8-8-0-4"
         style="stroke:#ffffff;stroke-width:0.286;stroke-linejoin:round;stroke-dasharray:none;stroke-dashoffset:0;stroke-opacity:1"
         d="m 745.60831,209.02666 c -0.15488,-0.98552 -1.18288,-1.95613 -2.3049,-2.17625 l -1.32081,-0.25913 c -1.12203,-0.22011 -1.90061,0.39608 -1.74572,1.3816 0.15489,0.98552 1.05276,1.46083 2.18444,1.86018 1.7189,0.60667 3.3629,1.31813 3.18699,-0.8064 z"
         sodipodi:nodetypes="ssssss" />
      <path
         id="rect1-7-5-3-1-8-9-8"
         style="stroke:#ffffff;stroke-width:0.365365;stroke-linejoin:round;stroke-dasharray:none;stroke-dashoffset:0;stroke-opacity:1"
         d="m 737.62123,180.69723 -0.43306,-2.68346 c -0.23458,-1.4536 -2.76275,-1.35577 -3.03058,0.37345 l -0.38229,2.46814 c -0.33058,2.13438 4.18819,1.96273 3.84593,-0.15813 z"
         sodipodi:nodetypes="sssss" />
      <path
         id="path1-57-2-6-1-1"
         style="stroke:#ffffff;stroke-width:0.278138;stroke-linejoin:round;stroke-dasharray:none;stroke-dashoffset:0;stroke-opacity:1"
         d="m 738.41936,176.25105 c -0.27821,2.09818 -1.74203,4.11923 -3.62917,3.76703 -1.88713,-0.3522 -2.70884,-2.79978 -2.43061,-4.89794 0.27821,-2.09819 1.55099,-3.05244 3.43811,-2.70025 1.88713,0.3522 2.89989,1.73298 2.62167,3.83116 z"
         sodipodi:nodetypes="sssss" />
      <g
         id="g14-0-1"
         inkscape:transform-center-x="-1.0272156"
         inkscape:transform-center-y="6.4025278"
         transform="rotate(-53.354448,497.36713,-552.54352)">
        <path
           id="rect1-7-8-3-5-8-8-0-3"
           style="stroke:#ffffff;stroke-width:0.374331;stroke-linejoin:round;stroke-dasharray:none;stroke-dashoffset:0;stroke-opacity:1"
           d="m 45.797157,87.656666 c -0.69831,-0.57461 -1.77102,-0.50464 -2.30603,0.23347 l -4.993,6.88823 c -0.53503,0.73812 -0.6359,1.18023 0.0624,1.75483 0.6983,0.5746 1.20541,0.35526 1.81605,-0.32164 l 5.63547,-6.24705 c 0.61064,-0.6769 0.4834,-1.73324 -0.21489,-2.30784 z"
           sodipodi:nodetypes="sssssss"
           inkscape:transform-center-x="3.1706017"
           inkscape:transform-center-y="3.9376306" />
        <g
           id="g13-6-4">
          <g
             id="g3-98-3-6-0"
             transform="matrix(0.47343937,0.31002829,-0.31002829,0.47343937,1.4722529,10.21224)"
             inkscape:transform-center-x="2.330254"
             inkscape:transform-center-y="1.0206982">
            <path
               id="rect1-7-8-5-1-8-7-3-8-6-3-0"
               style="stroke:#ffffff;stroke-width:0.661458;stroke-linejoin:round;stroke-dasharray:none;stroke-dashoffset:0;stroke-opacity:1"
               d="m 137.55397,90.157273 c -1.40392,0 -3.20026,1.30593 -2.53415,2.55464 0.82288,1.5426 0.69657,3.268276 2.53415,3.437746 1.45772,0.13443 3.09023,-1.064926 2.99471,-2.332426 -0.10635,-1.41127 -1.59079,-3.65996 -2.99471,-3.65996 z"
               sodipodi:nodetypes="sssss" />
            <path
               id="rect1-7-8-5-1-5-4-364-7-2-4-3-5"
               style="stroke:#ffffff;stroke-width:0.661458;stroke-linejoin:round;stroke-dasharray:none;stroke-dashoffset:0;stroke-opacity:1"
               d="m 138.57158,92.478023 c -1.35608,-0.36336 -2.7427,0.44467 -3.10899,1.81171 l -0.43121,1.609256 c -0.3663,1.36706 0.43054,2.76013 1.78662,3.12349 1.35608,0.36336 2.05811,-0.55768 2.66996,-1.83399 0.92945,-1.938526 1.99777,-3.716746 -0.91638,-4.710466 z"
               sodipodi:nodetypes="ssssss" />
            <path
               id="rect1-7-8-5-5-6-7-7-4-0-8-7-3"
               style="stroke:#ffffff;stroke-width:0.661458;stroke-linejoin:round;stroke-dasharray:none;stroke-dashoffset:0;stroke-opacity:1"
               d="m 135.95376,90.986293 c -0.35972,-0.20769 -0.79882,-0.11595 -1.07121,0.35584 l -1.55197,2.6881 c -0.28007,0.48508 -0.21672,1.04416 0.14301,1.25185 0.35972,0.20769 0.87557,-0.017 1.15564,-0.50207 l 1.55197,-2.6881 c 0.21866,-0.37873 0.13229,-0.89793 -0.22744,-1.10562 z"
               sodipodi:nodetypes="sssssss" />
          </g>
        </g>
      </g>
      <path
         id="rect2-6-6-2-2-3-8"
         style="fill:#4d4d4d;stroke:#ffffff;stroke-width:0.364395;stroke-linejoin:round;stroke-dasharray:none"
         d="m 726.69154,200.29712 c -0.7791,-1.46158 -1.17187,-3.5803 -1.61519,-5.61307 -0.48661,-2.23136 -2.13715,-3.66254 -4.14279,-3.04692 l -9.29925,2.85439 c -2.00563,0.61563 -3.44155,2.98331 -3.09776,5.26938 0.32702,2.17471 0.85225,4.0647 1.61518,5.61309 0.96154,1.95141 2.13717,3.66253 4.1428,3.0469 l 9.29925,-2.85439 c 2.00563,-0.61562 4.11464,-3.36178 3.09776,-5.26938 z"
         sodipodi:nodetypes="sssssssss" />
    </g>
  </g>
</svg>
