<?xml version="1.0" encoding="UTF-8" standalone="no"?>
<!-- Created with Inkscape (http://www.inkscape.org/) -->

<svg
   width="27.331278mm"
   height="66.379028mm"
   viewBox="0 0 27.331278 66.379028"
   version="1.1"
   id="svg1"
   xmlns:inkscape="http://www.inkscape.org/namespaces/inkscape"
   xmlns:sodipodi="http://sodipodi.sourceforge.net/DTD/sodipodi-0.dtd"
   xmlns="http://www.w3.org/2000/svg"
   xmlns:svg="http://www.w3.org/2000/svg">
  <sodipodi:namedview
     id="namedview1"
     pagecolor="#ffffff"
     bordercolor="#000000"
     borderopacity="0.25"
     inkscape:showpageshadow="2"
     inkscape:pageopacity="0.0"
     inkscape:pagecheckerboard="0"
     inkscape:deskcolor="#d1d1d1"
     inkscape:document-units="mm" />
  <defs
     id="defs1" />
  <g
     inkscape:label="Layer 1"
     inkscape:groupmode="layer"
     id="layer1"
     transform="translate(1007.1536,-1075.2785)">
    <g
       id="g99"
       transform="translate(-1717.5599,-19.715781)">
      <path
         style="fill:#252121;stroke:none;stroke-width:0.213772"
         d="m 716.67971,1095.0153 c 0.26754,0.085 0.31484,0.4279 0.15796,0.6316 -0.20015,0.26 -0.49694,0.4623 -0.71872,0.7075 -0.43784,0.4841 -0.82276,1.0281 -1.11483,1.6122 -1.12857,2.2568 -1.13248,4.9448 0.13221,7.1557 0.45773,0.8002 1.08606,1.3546 1.67856,2.0375 0.25077,0.289 0.054,0.7113 -0.33305,0.6747 -0.24823,-0.024 -0.45722,-0.2846 -0.62223,-0.4496 -0.46531,-0.4651 -0.88004,-0.9681 -1.22817,-1.5273 -1.54547,-2.4824 -1.6194,-5.4847 -0.42822,-8.1173 0.37553,-0.8299 0.95919,-1.5937 1.59982,-2.2344 0.22269,-0.2226 0.5153,-0.6053 0.87667,-0.4906 m 1.01831,1.1849 c 0.25297,0.054 0.39568,0.3427 0.27777,0.5785 -0.0872,0.1745 -0.28344,0.2908 -0.41908,0.4247 -0.23477,0.2317 -0.44971,0.4956 -0.64231,0.7632 -1.26459,1.7571 -1.4731,4.1753 -0.4818,6.1092 0.37925,0.7398 0.9175,1.2585 1.46033,1.8667 0.22177,0.2485 0.10193,0.7154 -0.27975,0.6992 -0.21066,-0.01 -0.36174,-0.1873 -0.50911,-0.3152 -0.40782,-0.3542 -0.74284,-0.8105 -1.03675,-1.2608 -1.29661,-1.9863 -1.39767,-4.6265 -0.32774,-6.7314 0.32218,-0.6339 0.75923,-1.2639 1.27966,-1.7511 0.17414,-0.163 0.41022,-0.44 0.67878,-0.383 m 2.94147,0.3952 c 0.42582,0.032 0.75483,0.3982 1.07477,0.6457 0.70889,0.5485 1.40954,1.108 2.12125,1.6528 0.54109,0.4141 1.454,-0.1359 2.03599,0.2478 0.34319,0.2263 0.33981,0.5801 0.33981,0.9461 v 2.3193 c 0,0.3484 0.0728,0.7694 -0.12865,1.0743 -0.50403,0.7631 -1.65574,0 -2.27543,0.4813 -0.72598,0.5655 -1.45427,1.1283 -2.17782,1.697 -0.30772,0.2418 -0.64805,0.6112 -1.07477,0.5793 -0.94262,-0.07 -0.76365,-1.1619 -0.76365,-1.8238 v -5.9112 c 0,-0.6524 -0.19179,-1.9864 0.8485,-1.9086 m -0.0566,0.8055 v 8.0325 c 0.71884,-0.3581 1.37256,-1.0454 2.00811,-1.5372 0.22754,-0.176 0.65058,-0.3924 0.79115,-0.6454 0.0656,-0.1181 0.029,-0.3169 0.029,-0.4478 v -1.0464 -1.4991 c 0,-0.1882 0.0529,-0.4716 -0.0171,-0.6479 -0.0956,-0.2412 -0.54429,-0.4724 -0.74659,-0.6282 -0.65489,-0.5043 -1.32536,-1.2122 -2.06468,-1.5805 m -1.92327,0.4112 c 0.35114,0.08 0.39286,0.4836 0.16673,0.7176 -0.34434,0.3564 -0.65602,0.6922 -0.89335,1.1339 -0.56731,1.0557 -0.5627,2.3841 -0.0294,3.4506 0.17689,0.3537 0.41504,0.6688 0.67924,0.9612 0.10546,0.1167 0.24925,0.203 0.33107,0.3398 0.16286,0.2723 -0.0391,0.6435 -0.36743,0.6158 -0.4501,-0.038 -0.93297,-0.8064 -1.14262,-1.1532 -0.83957,-1.3889 -0.9313,-3.1271 -0.19359,-4.5819 0.2267,-0.4471 0.53623,-0.8981 0.91237,-1.2325 0.153,-0.1359 0.31291,-0.302 0.53698,-0.2513 m 5.14756,1.9929 v 3.2243 h 1.61216 v -3.2243 z"
         id="path35-3-6" />
      <path
         id="rect1-7-3-7-0-3-9-3-9-7-3"
         style="stroke:#ffffff;stroke-width:0.374331;stroke-linejoin:round;stroke-dasharray:none;stroke-dashoffset:0;stroke-opacity:1"
         d="m 729.72176,1108.1488 c 0.27143,0.8626 -0.40095,2.4252 -1.308,2.5164 l -7.20535,0.7242 c -0.90704,0.091 -1.83148,-0.4062 -2.10284,-1.2688 -0.27133,-0.8627 0.18165,-1.8228 1.07234,-2.017 l 7.14139,-1.5572 c 0.8907,-0.1942 2.13109,0.7398 2.40244,1.6024 z"
         sodipodi:nodetypes="ssssssss"
         inkscape:transform-center-x="5.4468673"
         inkscape:transform-center-y="0.79335181" />
      <path
         id="rect1-7-8-30-8-6-6-5-6-4-9-5"
         style="stroke:#ffffff;stroke-width:0.313714;stroke-linejoin:round;stroke-dasharray:none;stroke-dashoffset:0;stroke-opacity:1"
         d="m 721.57862,1109.2545 c 0.30013,0.8708 0.0867,1.8178 -0.531,1.9416 l -7.17622,1.4382 c -0.61776,0.1238 -0.94351,0.046 -1.24365,-0.8245 -0.30014,-0.8709 -0.0801,-1.2685 0.51656,-1.4687 l 6.81972,-2.2887 c 0.59668,-0.2002 1.3144,0.3313 1.61456,1.2021 z"
         sodipodi:nodetypes="sssssss"
         inkscape:transform-center-x="3.4714137"
         inkscape:transform-center-y="1.2479144" />
      <path
         id="rect1-7-8-5-1-8-52-7-5-7-4-5-4-41-6"
         style="stroke:#ffffff;stroke-width:0.374331;stroke-linejoin:round;stroke-dasharray:none;stroke-dashoffset:0;stroke-opacity:1"
         d="m 710.80501,1112.6767 c 0.49575,-0.6208 1.70762,-0.9541 2.0246,-0.2186 0.39162,0.9086 1.19937,1.4621 0.62548,2.3346 -0.45527,0.6922 -1.56218,0.9906 -2.08898,0.5008 -0.58653,-0.5454 -1.05681,-1.9959 -0.56108,-2.6168 z"
         sodipodi:nodetypes="sssss"
         inkscape:transform-center-x="5.5740014"
         inkscape:transform-center-y="7.6823974" />
      <path
         id="rect1-7-2-76-1-7-2-6-7-2-5-8"
         style="stroke:#ffffff;stroke-width:0.374331;stroke-linejoin:round;stroke-dasharray:none;stroke-dashoffset:0;stroke-opacity:1"
         d="m 737.55039,1110.5339 c -0.0195,-0.9041 -1.30442,-1.5689 -2.01507,-0.998 l -7.36314,5.9148 c -0.71071,0.5709 -1.57799,1.0145 -1.53422,1.9178 0.0438,0.9033 0.88775,1.928 1.70377,1.5216 l 7.92904,-3.9492 c 0.68264,-0.5944 1.2819,-2.7281 1.27962,-4.407 z"
         sodipodi:nodetypes="csssscc"
         inkscape:transform-center-x="3.8014056"
         inkscape:transform-center-y="2.0989427" />
      <path
         id="rect1-9-4-4-31-7-1-4-3-0-5-4"
         style="stroke:#ffffff;stroke-width:0.387927;stroke-linejoin:round;stroke-dasharray:none;stroke-dashoffset:0;stroke-opacity:1"
         d="m 730.8114,1143.5022 1.60066,-0.1868 c 0.90456,-0.1055 1.83601,0.5876 1.83781,1.5666 l 0.0257,13.9986 c 0.002,0.9791 0.1686,1.6284 -0.73595,1.734 l -0.72155,0.084 c -0.90455,0.1055 -1.7242,-0.5932 -1.8378,-1.5666 l -1.5966,-13.6823 c -0.1136,-0.9735 0.52316,-1.8422 1.42771,-1.9477 z"
         sodipodi:nodetypes="sssssssss" />
      <path
         id="rect1-9-1-95-4-0-1-8-0-2-6"
         style="stroke:#ffffff;stroke-width:0.387927;stroke-linejoin:round;stroke-dasharray:none;stroke-dashoffset:0;stroke-opacity:1"
         d="m 724.36998,1142.1158 h 1.61153 c 0.91068,0 1.68037,0.7898 1.64383,1.7691 l -0.51391,13.7751 c -0.0365,0.9793 -0.73315,1.7691 -1.64384,1.7691 h -0.61225 c -0.91069,0 -0.87342,-0.7931 -0.95651,-1.7691 l -1.1727,-13.7751 c -0.0831,-0.976 0.73316,-1.7691 1.64385,-1.7691 z"
         sodipodi:nodetypes="sssssssss" />
      <path
         id="rect1-9-69-4-8-4-7-7-73-6"
         style="stroke:#ffffff;stroke-width:0.359059;stroke-linejoin:round;stroke-dasharray:none;stroke-dashoffset:0;stroke-opacity:1"
         d="m 727.85854,1128.6873 2.54141,0.6649 c 0.88295,0.2309 2.28297,1.4043 1.96943,2.1826 l -4.77553,11.8551 c -0.31352,0.7783 -1.07539,1.2924 -1.96153,1.0739 l -1.56809,-0.3866 c -0.88613,-0.2184 -1.43475,-1.0484 -1.23752,-1.8626 l 3.01579,-12.4503 c 0.19755,-0.8142 1.13308,-1.3079 2.01603,-1.077 z"
         sodipodi:nodetypes="ssssssssss" />
      <path
         id="rect1-9-4-41-7-6-1-1-5-8-3"
         style="stroke:#ffffff;stroke-width:0.359059;stroke-linejoin:round;stroke-dasharray:none;stroke-dashoffset:0;stroke-opacity:1"
         d="m 731.12742,1128.8773 2.73139,0.3113 c 0.90675,0.1033 1.63432,0.8667 1.55857,1.7011 l -1.1552,12.726 c -0.0754,0.8344 -0.86256,1.4432 -1.77184,1.3644 l -1.609,-0.1394 c -0.90927,-0.079 -1.45037,-0.8116 -1.51072,-1.6488 l -0.94249,-13.0759 c -0.0604,-0.8372 1.79253,-1.342 2.69928,-1.2387 z"
         sodipodi:nodetypes="sssssssss" />
      <path
         id="rect1-0-0-2-5-8-0-4-6"
         style="stroke:none;stroke-width:0.314577;stroke-linejoin:round;stroke-dasharray:none;stroke-dashoffset:0;stroke-opacity:1"
         d="m 727.20973,1106.6656 c 3.00028,-1.0108 4.94787,0.4451 6.95399,1.0834 0.62816,0.1999 2.9867,1.3534 2.94241,2.2628 -0.30075,6.1748 -3.45323,11.6066 -2.11401,17.3762 0.37838,1.6301 0.24111,3.0748 0.295,4.5614 0.033,0.9104 -0.64151,2.0383 -1.16213,1.6455 l -4.81778,-3.6349 c -0.52062,-0.3928 -3.29412,2.9001 -3.2643,1.9894 0.0565,-1.7288 -0.0164,-3.3217 0.31164,-5.4099 0.88653,-5.6437 0.2016,-11.6295 -0.31164,-17.5529 -0.0784,-0.9049 0.53621,-2.1085 1.16682,-2.321 z"
         sodipodi:nodetypes="sssssssssss" />
      <path
         id="rect1-7-8-5-1-5-4-34-31-3-6-5-5-8-2-7"
         style="stroke:#ffffff;stroke-width:0.453133;stroke-linejoin:round;stroke-dasharray:none;stroke-dashoffset:0;stroke-opacity:1"
         d="m 726.36477,1157.7913 c -0.62285,-0.6996 -2.00014,-1.0414 -3.08805,-0.7664 l -1.28068,0.3238 c -1.08793,0.275 -1.46233,1.0597 -0.83947,1.7593 0.62284,0.6997 1.64147,0.7106 2.82652,0.5701 1.80001,-0.2132 3.58653,-0.3158 2.38168,-1.8868 z"
         sodipodi:nodetypes="ssssss" />
      <path
         id="rect1-7-8-5-1-5-4-34-0-1-3-9-6-4-0-6-2"
         style="stroke:#ffffff;stroke-width:0.419911;stroke-linejoin:round;stroke-dasharray:none;stroke-dashoffset:0;stroke-opacity:1"
         d="m 733.50234,1159.3202 c -0.72948,-0.5834 -2.13739,-0.8257 -3.15673,-0.5432 l -1.19996,0.3325 c -1.01936,0.2825 -1.2527,0.9796 -0.52323,1.563 0.72947,0.5834 1.72961,0.5523 2.86704,0.3829 1.7277,-0.2571 3.46101,-0.4176 2.01288,-1.7352 z"
         sodipodi:nodetypes="ssssss" />
      <path
         id="rect1-7-5-6-7-4-6-3-1-3-9"
         style="stroke:#ffffff;stroke-width:0.374331;stroke-linejoin:round;stroke-dasharray:none;stroke-dashoffset:0;stroke-opacity:1"
         d="m 733.438,1107.1441 0.0408,-3.5389 c 0.017,-1.4719 -2.90483,-1.3535 -3.18644,0.3728 l -0.40194,2.4641 c -0.34759,2.1308 3.52286,2.8495 3.54761,0.702 z"
         sodipodi:nodetypes="sssss" />
      <path
         id="path1-73-1-5-7-3-7-0-0"
         style="stroke:#ffffff;stroke-width:0.287201;stroke-linejoin:round;stroke-dasharray:none;stroke-dashoffset:0;stroke-opacity:1"
         d="m 734.55914,1101.089 c -0.50452,2.1619 -1.20507,4.5893 -3.15384,4.5901 -1.94877,9e-4 -3.10388,-2.3674 -3.10388,-4.5874 0,-2.22 1.15656,-3.3766 3.10388,-3.4519 2.25026,-0.087 3.70893,1.0706 3.15384,3.4492 z"
         sodipodi:nodetypes="sssss" />
      <path
         id="rect1-7-8-3-2-6-6-1-0-0-7-4-7"
         style="stroke:#ffffff;stroke-width:0.317429;stroke-linejoin:round;stroke-dasharray:none;stroke-dashoffset:0;stroke-opacity:1"
         d="m 727.15054,1117.8493 c 0.14859,-0.908 -0.23405,-1.8213 -0.87967,-1.8267 l -7.77718,-0.066 c -0.6456,-0.01 -0.96005,0.1098 -1.10857,1.0178 -0.14859,0.908 0.14144,1.2814 0.78132,1.3628 l 7.5682,0.9631 c 0.63986,0.082 1.26737,-0.5432 1.4159,-1.4512 z"
         sodipodi:nodetypes="sssssss"
         inkscape:transform-center-x="3.9040867"
         inkscape:transform-center-y="-0.69052498" />
      <g
         id="g6-1-1-4-6-9-1-6-2-7-4-4-9"
         transform="matrix(0.31046595,0,0,0.31046595,694.07117,1062.4348)"
         style="stroke-width:0.756927;stroke-dasharray:none">
        <rect
           style="opacity:1;fill:#000000;stroke:#ffffff;stroke-width:0.756927;stroke-linejoin:round;stroke-dasharray:none"
           id="rect5-8-3-8-1-8-2-2-7-3-8-3-74"
           width="10.664055"
           height="10.785408"
           x="81.009392"
           y="159.09109" />
        <path
           id="rect5-9-6-4-2-3-0-7-7-8-0-4-5-0"
           style="fill:#000000;stroke:#ffffff;stroke-width:0.952065;stroke-linejoin:round;stroke-dasharray:none"
           transform="matrix(0.63208417,-0.77489973,0,1,0,0)"
           d="m 145.0336,271.4776 5.6318,-0.31314 1e-5,10.65467 -5.63181,0.44388 z"
           sodipodi:nodetypes="ccccc" />
        <rect
           style="fill:#000000;stroke:#ffffff;stroke-width:0.845887;stroke-linejoin:round;stroke-dasharray:none"
           id="rect5-9-1-3-5-4-3-5-1-4-5-6-2-5-5"
           width="5.8412356"
           height="10.785408"
           x="-198.68402"
           y="-210.75246"
           transform="matrix(0.59903324,-0.80072416,-1,0,0,0)" />
      </g>
      <path
         id="rect1-7-8-5-1-8-7-5-7-9-2-9-8-5-3-9"
         style="stroke:#ffffff;stroke-width:0.374331;stroke-linejoin:round;stroke-dasharray:none;stroke-dashoffset:0;stroke-opacity:1"
         d="m 718.66226,1117.4167 c 0.37054,-0.7028 0.19044,-1.9468 -0.61043,-1.9427 -0.9894,0 -1.82003,-0.5135 -2.38969,0.3618 -0.4519,0.6943 -0.28214,1.8281 0.37765,2.1146 0.73466,0.319 2.25207,0.1692 2.62247,-0.5337 z"
         sodipodi:nodetypes="sssss"
         inkscape:transform-center-x="9.0409262"
         inkscape:transform-center-y="-1.6046153" />
      <path
         id="rect1-7-8-5-5-6-7-7-5-4-9-4-6-1-3-3-0"
         style="stroke:#ffffff;stroke-width:0.374331;stroke-linejoin:round;stroke-dasharray:none;stroke-dashoffset:0;stroke-opacity:1"
         d="m 718.24019,1115.8495 c 0.15634,-0.1756 0.15621,-0.4293 -0.0744,-0.6345 l -1.31173,-1.1683 c -0.23702,-0.2104 -0.5538,-0.2398 -0.71015,-0.064 -0.15623,0.1757 -0.091,0.4872 0.14573,0.698 l 1.31175,1.1683 c 0.18476,0.1647 0.48244,0.1763 0.6388,7e-4 z"
         sodipodi:nodetypes="sssssss"
         inkscape:transform-center-x="8.9646093"
         inkscape:transform-center-y="-3.4004165" />
      <path
         id="rect1-7-8-5-1-5-4-364-1-3-9-8-1-8-3-7-7"
         style="stroke:#ffffff;stroke-width:0.374331;stroke-linejoin:round;stroke-dasharray:none;stroke-dashoffset:0;stroke-opacity:1"
         d="m 717.06914,1117.0663 c 0.23083,-0.7603 -0.20037,-1.5596 -0.96672,-1.7923 l -0.90218,-0.2739 c -0.76639,-0.2327 -1.56919,0.192 -1.79998,0.9523 -0.23083,0.7602 0.27703,1.1745 0.98751,1.5443 1.07909,0.5619 2.065,1.1993 2.6814,-0.4304 z"
         sodipodi:nodetypes="ssssss"
         inkscape:transform-center-x="10.931154"
         inkscape:transform-center-y="-1.8018625" />
      <path
         id="rect1-7-8-5-1-5-4-8-8-8-1-8-2-1-9-6"
         style="stroke:#ffffff;stroke-width:0.288532;stroke-linejoin:round;stroke-dasharray:none;stroke-dashoffset:0;stroke-opacity:1"
         d="m 711.22138,1113.4368 c 0.53164,-0.2399 1.18426,0.038 1.46322,0.6234 l 0.32842,0.6889 c 0.27905,0.5852 0.0755,1.2495 -0.45611,1.4893 -0.53165,0.24 -0.90935,-0.128 -1.2823,-0.6587 -0.56655,-0.806 -1.17605,-1.5329 -0.0532,-2.1429 z"
         sodipodi:nodetypes="ssssss"
         inkscape:transform-center-x="5.8348131"
         inkscape:transform-center-y="8.7275249" />
      <path
         id="rect1-7-8-5-5-6-7-3-8-5-2-7-2-9-85-3"
         style="stroke:#ffffff;stroke-width:0.374331;stroke-linejoin:round;stroke-dasharray:none;stroke-dashoffset:0;stroke-opacity:1"
         d="m 711.43876,1112.6593 c -0.18826,-0.1408 -0.23847,-0.3896 -0.0539,-0.6365 l 1.05178,-1.4069 c 0.18979,-0.2539 0.4947,-0.3457 0.68296,-0.205 0.18826,0.1408 0.18651,0.4592 -0.003,0.7131 l -1.05176,1.4069 c -0.14821,0.1982 -0.43785,0.2685 -0.62577,0.1284 z"
         sodipodi:nodetypes="sssssss"
         inkscape:transform-center-x="5.4350898"
         inkscape:transform-center-y="5.4343373" />
    </g>
  </g>
</svg>
