<?xml version="1.0" encoding="UTF-8" standalone="no"?>
<!-- Created with Inkscape (http://www.inkscape.org/) -->

<svg
   width="51.69006mm"
   height="76.55127mm"
   viewBox="0 0 51.69006 76.55127"
   version="1.1"
   id="svg1"
   xmlns:inkscape="http://www.inkscape.org/namespaces/inkscape"
   xmlns:sodipodi="http://sodipodi.sourceforge.net/DTD/sodipodi-0.dtd"
   xmlns="http://www.w3.org/2000/svg"
   xmlns:svg="http://www.w3.org/2000/svg">
  <sodipodi:namedview
     id="namedview1"
     pagecolor="#ffffff"
     bordercolor="#000000"
     borderopacity="0.25"
     inkscape:showpageshadow="2"
     inkscape:pageopacity="0.0"
     inkscape:pagecheckerboard="0"
     inkscape:deskcolor="#d1d1d1"
     inkscape:document-units="mm" />
  <defs
     id="defs1" />
  <g
     inkscape:label="Layer 1"
     inkscape:groupmode="layer"
     id="layer1"
     transform="translate(1019.333,-1328.1518)">
    <g
       id="g108"
       transform="translate(-1692.39,1078.1674)">
      <path
         id="rect1-7-8-5-5-6-7-3-8-5-1-5-2-2-5"
         style="stroke:#ffffff;stroke-width:0.374331;stroke-linejoin:round;stroke-dasharray:none;stroke-dashoffset:0;stroke-opacity:1"
         d="m 675.32627,284.48623 c 0.18897,-0.13978 0.44166,-0.11688 0.62505,0.1318 l 1.04431,1.41249 c 0.18872,0.25468 0.18856,0.57326 -5.9e-4,0.71304 -0.18901,0.1398 -0.49341,0.0461 -0.68184,-0.20855 l -1.04417,-1.41248 c -0.14721,-0.199 -0.1319,-0.49638 0.0572,-0.63626 z"
         sodipodi:nodetypes="sssssss"
         inkscape:transform-center-x="5.8788585"
         inkscape:transform-center-y="13.037781" />
      <path
         id="rect1-7-8-5-1-5-4-8-8-8-0-9-0-1-9"
         style="stroke:#ffffff;stroke-width:0.374331;stroke-linejoin:round;stroke-dasharray:none;stroke-dashoffset:0;stroke-opacity:1"
         d="m 674.23163,286.09405 c 0.36539,-0.70549 1.23193,-0.97724 1.94324,-0.609 l 0.83731,0.43329 c 0.71127,0.36831 0.98991,1.23274 0.62464,1.93834 -0.36525,0.70546 -1.01802,0.64778 -1.7851,0.41672 -1.16495,-0.35075 -2.3159,-0.58224 -1.6201,-2.17958 z"
         sodipodi:nodetypes="ssssss"
         inkscape:transform-center-x="-1.2887133"
         inkscape:transform-center-y="0.82043286" />
      <path
         id="path1-73-1-5-7-3-7-0-4-1-5-6"
         style="stroke:#ffffff;stroke-width:0.287201;stroke-linejoin:round;stroke-dasharray:none;stroke-dashoffset:0;stroke-opacity:1"
         d="m 688.59568,265.54575 c 0.0914,2.2181 0.0649,4.7443 -1.81289,5.2658 -1.87761,0.5214 -3.62356,-1.4521 -4.21663,-3.5914 -0.59316,-2.1393 0.1202,-4.1313 2.06879,-4.1556 2.42579,-0.03 3.86014,0.041 3.96073,2.4812 z"
         sodipodi:nodetypes="sssss" />
      <path
         id="rect1-7-8-5-1-5-4-34-0-1-3-9-6-4-0-6-7-3-8-4"
         style="stroke:#ffffff;stroke-width:0.419911;stroke-linejoin:round;stroke-dasharray:none;stroke-dashoffset:0;stroke-opacity:1"
         d="m 681.95703,321.01957 c 0.49718,-0.7907 1.74722,-1.4823 2.80278,-1.5506 l 1.24257,-0.08 c 1.05555,-0.068 1.50506,0.5133 1.00788,1.3041 -0.49718,0.7908 -1.45197,1.0901 -2.58184,1.3041 -1.71625,0.325 -3.40597,0.7432 -2.47139,-0.9772 z"
         sodipodi:nodetypes="ssssss" />
      <path
         id="rect1-9-4-41-7-6-1-1-5-8-1-3-6-8"
         style="stroke:#ffffff;stroke-width:0.359059;stroke-linejoin:round;stroke-dasharray:none;stroke-dashoffset:0;stroke-opacity:1"
         d="m 685.52215,294.00677 -2.73139,0.3113 c -0.90675,0.1033 -1.63432,0.8667 -1.55857,1.7011 l 1.1552,12.726 c 0.0754,0.8344 0.86256,1.4432 1.77184,1.3644 l 1.609,-0.1394 c 0.90927,-0.079 1.45037,-0.8116 1.51072,-1.6489 l 0.94249,-13.0758 c 0.0604,-0.8373 -1.79253,-1.342 -2.69928,-1.2387 z"
         sodipodi:nodetypes="sssssssss" />
      <path
         id="rect1-7-8-5-5-6-7-3-8-5-1-5-2-0"
         style="stroke:#ffffff;stroke-width:0.374331;stroke-linejoin:round;stroke-dasharray:none;stroke-dashoffset:0;stroke-opacity:1"
         d="m 699.87296,265.83551 c 0.0427,-0.2311 -0.0893,-0.448 -0.39252,-0.5039 l -1.72738,-0.319 c -0.31171,-0.058 -0.5979,0.082 -0.64058,0.3132 -0.0427,0.2312 0.17475,0.4638 0.48648,0.5213 l 1.72738,0.319 c 0.24337,0.045 0.50393,-0.099 0.54662,-0.3306 z"
         sodipodi:nodetypes="sssssss" />
      <path
         id="rect1-7-3-7-0-3-9-3-9-7-1-2-9"
         style="stroke:#ffffff;stroke-width:0.374331;stroke-linejoin:round;stroke-dasharray:none;stroke-dashoffset:0;stroke-opacity:1"
         d="m 715.98314,260.63311 c 0.50801,0.7481 0.31335,2.438 -0.52917,2.7862 l -6.69279,2.7655 c -0.84252,0.3481 -1.87091,0.1377 -2.37886,-0.6105 -0.50793,-0.7482 -0.35017,-1.798 0.44706,-2.2402 l 6.39199,-3.5449 c 0.79723,-0.4422 2.2538,0.096 2.76174,0.8439 z"
         sodipodi:nodetypes="ssssssss"
         inkscape:transform-center-x="4.9372213"
         inkscape:transform-center-y="2.3757066" />
      <path
         id="rect1-7-8-30-8-6-6-5-6-4-9-9-6-2"
         style="stroke:#ffffff;stroke-width:0.313714;stroke-linejoin:round;stroke-dasharray:none;stroke-dashoffset:0;stroke-opacity:1"
         d="m 708.63484,264.41341 c 0.30013,0.8708 0.0867,1.8178 -0.531,1.9416 l -7.17622,1.4381 c -0.61776,0.1238 -0.94351,0.046 -1.24365,-0.8245 -0.30014,-0.8708 -0.0801,-1.2684 0.51656,-1.4687 l 6.81972,-2.2886 c 0.59668,-0.2003 1.3144,0.3313 1.61456,1.2021 z"
         sodipodi:nodetypes="sssssss"
         inkscape:transform-center-x="3.4714137"
         inkscape:transform-center-y="1.2479144" />
      <path
         id="rect1-7-2-76-1-7-2-6-7-2-5-0-5-6"
         style="stroke:#ffffff;stroke-width:0.374331;stroke-linejoin:round;stroke-dasharray:none;stroke-dashoffset:0;stroke-opacity:1"
         d="m 724.55984,263.02681 c -0.0195,-0.9041 -1.30442,-1.5689 -2.01507,-0.9981 l -7.36314,5.9149 c -0.71071,0.5709 -1.57799,1.0145 -1.53422,1.9178 0.0438,0.9032 0.88775,1.928 1.70377,1.5215 l 7.92904,-3.9491 c 0.68264,-0.5944 1.2819,-2.7281 1.27962,-4.407 z"
         sodipodi:nodetypes="csssscc"
         inkscape:transform-center-x="3.8014056"
         inkscape:transform-center-y="2.0989427" />
      <path
         id="rect1-9-4-4-31-7-1-4-3-0-5-7-9-63"
         style="stroke:#ffffff;stroke-width:0.387927;stroke-linejoin:round;stroke-dasharray:none;stroke-dashoffset:0;stroke-opacity:1"
         d="m 717.82085,295.99515 1.60066,-0.1868 c 0.90456,-0.1056 1.83601,0.5875 1.83781,1.5666 l 0.0257,13.9986 c 0.002,0.979 0.1686,1.6284 -0.73595,1.7339 l -0.72155,0.084 c -0.90455,0.1056 -1.7242,-0.5931 -1.8378,-1.5666 l -1.5966,-13.6823 c -0.1136,-0.9734 0.52316,-1.8421 1.42771,-1.9476 z"
         sodipodi:nodetypes="sssssssss" />
      <path
         id="rect1-9-1-95-4-0-1-8-0-2-1-4-0"
         style="stroke:#ffffff;stroke-width:0.387927;stroke-linejoin:round;stroke-dasharray:none;stroke-dashoffset:0;stroke-opacity:1"
         d="m 711.37943,294.60875 h 1.61153 c 0.91068,0 1.68037,0.7898 1.64383,1.7691 l -0.51391,13.7751 c -0.0365,0.9793 -0.73315,1.7691 -1.64384,1.7691 h -0.61225 c -0.91069,0 -0.87342,-0.7931 -0.95651,-1.7691 l -1.1727,-13.7751 c -0.0831,-0.976 0.73316,-1.7691 1.64385,-1.7691 z"
         sodipodi:nodetypes="sssssssss" />
      <path
         id="rect1-9-69-4-8-4-7-7-73-7-5-3"
         style="stroke:#ffffff;stroke-width:0.359059;stroke-linejoin:round;stroke-dasharray:none;stroke-dashoffset:0;stroke-opacity:1"
         d="m 714.86799,281.18021 2.54141,0.6648 c 0.88295,0.231 2.28297,1.4044 1.96943,2.1827 l -4.77553,11.85504 c -0.31352,0.7784 -1.07539,1.2925 -1.96153,1.074 l -1.56809,-0.3866 c -0.88613,-0.2185 -1.43475,-1.0484 -1.23752,-1.8627 l 3.01579,-12.45024 c 0.19755,-0.8142 1.13308,-1.308 2.01603,-1.077 z"
         sodipodi:nodetypes="ssssssssss" />
      <path
         id="rect1-9-4-41-7-6-1-1-5-8-1-3-0"
         style="stroke:#ffffff;stroke-width:0.359059;stroke-linejoin:round;stroke-dasharray:none;stroke-dashoffset:0;stroke-opacity:1"
         d="m 718.13687,281.37021 2.73139,0.3113 c 0.90675,0.1033 1.63432,0.8667 1.55857,1.7011 l -1.1552,12.72604 c -0.0754,0.8344 -0.86256,1.4432 -1.77184,1.3644 l -1.609,-0.1394 c -0.90927,-0.079 -1.45037,-0.8116 -1.51072,-1.6489 l -0.94249,-13.07584 c -0.0604,-0.8373 1.79253,-1.342 2.69928,-1.2387 z"
         sodipodi:nodetypes="sssssssss" />
      <path
         id="rect1-0-0-2-5-8-0-4-2-7-2"
         style="stroke:none;stroke-width:0.314577;stroke-linejoin:round;stroke-dasharray:none;stroke-dashoffset:0;stroke-opacity:1"
         d="m 714.21918,259.15851 c 3.00028,-1.0108 4.94787,0.4451 6.95399,1.0834 0.62816,0.1999 2.9867,1.3533 2.94241,2.2628 -0.30075,6.1747 -3.45323,11.6066 -2.11401,17.3762 0.37838,1.6301 0.24111,3.0748 0.295,4.5613 0.033,0.9105 -0.64151,2.0383 -1.16213,1.6456 l -4.81778,-3.635 c -0.52062,-0.3928 -3.29412,2.9002 -3.2643,1.9894 0.0565,-1.7288 -0.0164,-3.3216 0.31164,-5.4099 0.88653,-5.6436 0.2016,-11.6294 -0.31164,-17.5529 -0.0784,-0.9048 0.53621,-2.1084 1.16682,-2.3209 z"
         sodipodi:nodetypes="sssssssssss" />
      <path
         id="rect1-7-8-5-1-5-4-34-31-3-6-5-5-8-2-4-6-8"
         style="stroke:#ffffff;stroke-width:0.453133;stroke-linejoin:round;stroke-dasharray:none;stroke-dashoffset:0;stroke-opacity:1"
         d="m 713.37422,310.28425 c -0.62285,-0.6996 -2.00014,-1.0415 -3.08805,-0.7664 l -1.28068,0.3237 c -1.08793,0.2751 -1.46233,1.0597 -0.83947,1.7594 0.62284,0.6996 1.64147,0.7106 2.82652,0.5701 1.80001,-0.2133 3.58653,-0.3159 2.38168,-1.8868 z"
         sodipodi:nodetypes="ssssss" />
      <path
         id="rect1-7-8-5-1-5-4-34-0-1-3-9-6-4-0-6-7-3-2"
         style="stroke:#ffffff;stroke-width:0.419911;stroke-linejoin:round;stroke-dasharray:none;stroke-dashoffset:0;stroke-opacity:1"
         d="m 720.51179,311.81315 c -0.72948,-0.5834 -2.13739,-0.8257 -3.15673,-0.5432 l -1.19996,0.3325 c -1.01936,0.2824 -1.2527,0.9795 -0.52323,1.5629 0.72947,0.5834 1.72961,0.5523 2.86704,0.383 1.7277,-0.2572 3.46101,-0.4176 2.01288,-1.7352 z"
         sodipodi:nodetypes="ssssss" />
      <path
         id="rect1-7-5-6-7-4-6-3-1-3-5-8-9"
         style="stroke:#ffffff;stroke-width:0.374331;stroke-linejoin:round;stroke-dasharray:none;stroke-dashoffset:0;stroke-opacity:1"
         d="m 720.44745,259.63691 0.0408,-3.5389 c 0.017,-1.4718 -2.90483,-1.3535 -3.18644,0.3729 l -0.40194,2.464 c -0.34759,2.1308 3.52286,2.8496 3.54761,0.702 z"
         sodipodi:nodetypes="sssss" />
      <path
         id="path1-73-1-5-7-3-7-0-4-1-47"
         style="stroke:#ffffff;stroke-width:0.287201;stroke-linejoin:round;stroke-dasharray:none;stroke-dashoffset:0;stroke-opacity:1"
         d="m 721.56859,253.58191 c -0.50452,2.1619 -1.20507,4.5893 -3.15384,4.5901 -1.94877,8e-4 -3.10388,-2.3675 -3.10388,-4.5875 0,-2.22 1.15656,-3.3765 3.10388,-3.4518 2.25026,-0.087 3.70893,1.0706 3.15384,3.4492 z"
         sodipodi:nodetypes="sssss" />
      <path
         id="rect1-7-8-3-2-6-6-1-0-0-7-4-5-1-1"
         style="stroke:#ffffff;stroke-width:0.317429;stroke-linejoin:round;stroke-dasharray:none;stroke-dashoffset:0;stroke-opacity:1"
         d="m 718.92927,268.48371 c -0.24857,-0.8858 -0.98096,-1.5522 -1.56855,-1.2847 l -7.07814,3.2232 c -0.58758,0.2675 -0.82396,0.5048 -0.57534,1.3906 0.24857,0.8859 0.66912,1.102 1.28357,0.9057 l 7.26745,-2.3215 c 0.61445,-0.1963 0.91963,-1.0275 0.67101,-1.9133 z"
         sodipodi:nodetypes="sssssss"
         inkscape:transform-center-x="3.9264431"
         inkscape:transform-center-y="0.63511165" />
      <path
         id="rect1-7-8-5-1-8-7-5-7-9-2-9-8-5-3-1-9-05"
         style="stroke:#ffffff;stroke-width:0.374331;stroke-linejoin:round;stroke-dasharray:none;stroke-dashoffset:0;stroke-opacity:1"
         d="m 710.26883,272.39581 c 0.0142,-0.7944 -0.70708,-1.8238 -1.42024,-1.4594 -0.88104,0.4503 -1.85621,0.3616 -1.97042,1.3997 -0.0906,0.8234 0.57175,1.7591 1.28989,1.7177 0.7996,-0.046 2.08676,-0.8636 2.10077,-1.658 z"
         sodipodi:nodetypes="sssss"
         inkscape:transform-center-x="8.8090691"
         inkscape:transform-center-y="2.6353789" />
      <path
         id="rect1-7-8-5-5-6-7-7-5-4-9-4-6-1-3-3-2-1-8"
         style="stroke:#ffffff;stroke-width:0.374331;stroke-linejoin:round;stroke-dasharray:none;stroke-dashoffset:0;stroke-opacity:1"
         d="m 709.10504,271.25371 c 0.0605,-0.2272 -0.0539,-0.4537 -0.35226,-0.5329 l -1.69742,-0.4521 c -0.30642,-0.081 -0.60246,0.035 -0.66295,0.2626 -0.0603,0.2272 0.13825,0.4759 0.44458,0.5575 l 1.69743,0.452 c 0.23914,0.064 0.51012,-0.06 0.5706,-0.2872 z"
         sodipodi:nodetypes="sssssss"
         inkscape:transform-center-x="9.5464727"
         inkscape:transform-center-y="1.010782" />
      <path
         id="rect1-7-8-5-1-5-4-364-1-3-9-8-1-8-3-7-2-2-9"
         style="stroke:#ffffff;stroke-width:0.374331;stroke-linejoin:round;stroke-dasharray:none;stroke-dashoffset:0;stroke-opacity:1"
         d="m 708.68867,272.80071 c -0.13643,-0.7827 -0.88153,-1.302 -1.67052,-1.1645 l -0.92885,0.1619 c -0.78903,0.1376 -1.31439,0.8784 -1.17789,1.6612 0.13643,0.7826 0.77647,0.9237 1.57739,0.9338 1.21653,0.015 2.38385,0.1403 2.19991,-1.5924 z"
         sodipodi:nodetypes="ssssss"
         inkscape:transform-center-x="10.579621"
         inkscape:transform-center-y="3.1848687" />
      <path
         id="rect1-7-8-5-1-8-52-7-5-6-4-2-5"
         style="stroke:#ffffff;stroke-width:0.374331;stroke-linejoin:round;stroke-dasharray:none;stroke-dashoffset:0;stroke-opacity:1"
         d="m 700.56059,267.50051 c 0.27331,-0.746 -0.0709,-1.9548 -0.86414,-1.844 -0.9799,0.137 -1.8723,-0.2661 -2.32009,0.6774 -0.35524,0.7484 -0.0357,1.8494 0.6564,2.0454 0.77064,0.2182 2.25452,-0.1328 2.52783,-0.8788 z"
         sodipodi:nodetypes="sssss" />
      <path
         id="rect1-7-8-5-1-5-4-8-8-8-0-9-0-9"
         style="stroke:#ffffff;stroke-width:0.374331;stroke-linejoin:round;stroke-dasharray:none;stroke-dashoffset:0;stroke-opacity:1"
         d="m 698.85364,266.61401 c -0.4868,-0.6278 -1.38829,-0.7383 -2.02126,-0.2475 l -0.74513,0.5776 c -0.63299,0.4908 -0.75065,1.3914 -0.26386,2.0193 0.4868,0.6279 1.11844,0.453 1.83103,0.087 1.08238,-0.5556 2.17247,-0.9914 1.19922,-2.4366 z"
         sodipodi:nodetypes="ssssss" />
      <path
         id="rect1-7-3-7-0-3-9-3-9-7-1-2-3-6"
         style="stroke:#ffffff;stroke-width:0.374331;stroke-linejoin:round;stroke-dasharray:none;stroke-dashoffset:0;stroke-opacity:1"
         d="m 683.95991,272.00638 c -0.50303,-0.75147 -2.1426,-1.20469 -2.78131,-0.55419 l -5.07338,5.16739 c -0.6386,0.65057 -0.82917,1.68285 -0.326,2.43427 0.50314,0.75142 1.53547,0.9988 2.24438,0.42556 l 5.6831,-4.59631 c 0.70885,-0.5733 0.7561,-2.12538 0.25324,-2.8767 z"
         sodipodi:nodetypes="ssssssss"
         inkscape:transform-center-x="2.1387933"
         inkscape:transform-center-y="2.9005336" />
      <path
         id="rect1-7-8-30-8-6-6-5-6-4-9-9-6-1-4"
         style="stroke:#ffffff;stroke-width:0.313714;stroke-linejoin:round;stroke-dasharray:none;stroke-dashoffset:0;stroke-opacity:1"
         d="m 678.03816,276.59867 c -0.8143,-0.43044 -1.78283,-0.36511 -2.00015,0.22619 l -2.52431,6.86977 c -0.21714,0.59147 -0.19053,0.92524 0.6235,1.35563 0.81429,0.43044 1.24098,0.27412 1.53063,-0.28465 l 3.3099,-6.38672 c 0.28966,-0.55884 -0.12532,-1.34978 -0.93962,-1.78022 z"
         sodipodi:nodetypes="sssssss"
         inkscape:transform-center-x="5.7985164"
         inkscape:transform-center-y="8.2421932" />
      <path
         id="rect1-7-2-76-1-7-2-6-7-2-5-0-5-1-5"
         style="stroke:#ffffff;stroke-width:0.374331;stroke-linejoin:round;stroke-dasharray:none;stroke-dashoffset:0;stroke-opacity:1"
         d="m 687.95637,273.17019 c 0.6606,-0.61774 2.03383,-0.16291 2.12206,0.74429 l 0.91262,9.40047 c 0.0889,0.90723 0.37637,1.83784 -0.30006,2.43755 -0.67686,0.59974 -1.99967,0.71197 -2.27899,-0.15586 l -2.71416,-8.43197 c -0.0521,-0.90363 1.05612,-2.8232 2.25882,-3.99456 z"
         sodipodi:nodetypes="csssscc"
         inkscape:transform-center-x="-0.55135249"
         inkscape:transform-center-y="5.2002615" />
      <path
         id="rect1-9-4-4-31-7-1-4-3-0-5-7-9-6-35"
         style="stroke:#ffffff;stroke-width:0.387927;stroke-linejoin:round;stroke-dasharray:none;stroke-dashoffset:0;stroke-opacity:1"
         d="m 685.57359,306.64727 -1.60066,-0.1868 c -0.90456,-0.1056 -1.80048,0.5882 -1.83781,1.5666 l -0.44665,11.7068 c -0.0373,0.9783 -0.16862,1.6286 0.73595,1.7339 l 0.72155,0.084 c 0.90458,0.1053 1.66686,-0.6016 1.8378,-1.5666 l 2.01755,-11.3905 c 0.17092,-0.965 -0.52316,-1.8421 -1.42771,-1.9476 z"
         sodipodi:nodetypes="ssssssssss" />
      <path
         id="rect1-7-8-5-1-5-4-34-31-3-6-5-5-8-2-4-6-4-8"
         style="stroke:#ffffff;stroke-width:0.453133;stroke-linejoin:round;stroke-dasharray:none;stroke-dashoffset:0;stroke-opacity:1"
         d="m 691.07902,325.01777 c 0.27136,-0.8965 1.37763,-1.7854 2.48046,-1.9927 l 1.29818,-0.2442 c 1.10285,-0.2074 1.7722,0.3474 1.50088,1.244 -0.27135,0.8965 -1.19114,1.3344 -2.32558,1.7047 -1.7231,0.5625 -3.38746,1.2199 -2.95394,-0.7118 z"
         sodipodi:nodetypes="ssssss" />
      <path
         id="rect1-7-8-5-1-8-52-7-5-6-4-2-1-9"
         style="stroke:#ffffff;stroke-width:0.374331;stroke-linejoin:round;stroke-dasharray:none;stroke-dashoffset:0;stroke-opacity:1"
         d="m 673.52844,284.59853 c 0.55052,-0.57281 1.78785,-0.79362 2.03612,-0.0322 0.30673,0.94069 1.06028,1.56593 0.40874,2.38214 -0.51676,0.6475 -1.64637,0.84319 -2.12605,0.30714 -0.53409,-0.59687 -0.86944,-2.08437 -0.31882,-2.65714 z"
         sodipodi:nodetypes="sssss"
         inkscape:transform-center-x="7.2938944"
         inkscape:transform-center-y="13.254874" />
      <path
         id="rect1-9-69-4-8-4-7-7-73-7-5-9-2"
         style="stroke:#ffffff;stroke-width:0.359059;stroke-linejoin:round;stroke-dasharray:none;stroke-dashoffset:0;stroke-opacity:1"
         d="m 688.79103,293.81677 -2.54141,0.6648 c -0.88295,0.231 -2.28297,1.4044 -1.96943,2.1827 l 4.77553,11.855 c 0.31352,0.7784 1.07539,1.2925 1.96153,1.074 l 1.56809,-0.3866 c 0.88613,-0.2185 1.43475,-1.0484 1.23752,-1.8627 l -3.01579,-12.4502 c -0.19755,-0.8142 -1.13308,-1.308 -2.01603,-1.077 z"
         sodipodi:nodetypes="ssssssssss" />
      <path
         id="rect1-9-1-95-4-0-1-8-0-2-1-4-6-1"
         style="stroke:#ffffff;stroke-width:0.387927;stroke-linejoin:round;stroke-dasharray:none;stroke-dashoffset:0;stroke-opacity:1"
         d="m 692.41188,308.83277 h -1.61153 c -0.91068,0 -1.68037,0.7898 -1.64383,1.7691 l 0.51391,13.7751 c 0.0365,0.9793 0.73315,1.7691 1.64384,1.7691 h 0.61225 c 0.91069,0 0.87342,-0.7931 0.95651,-1.7691 l 1.1727,-13.7751 c 0.0831,-0.976 -0.73316,-1.7691 -1.64385,-1.7691 z"
         sodipodi:nodetypes="sssssssss" />
      <path
         id="rect1-0-0-2-5-8-0-4-2-7-8-2"
         style="stroke:none;stroke-width:0.314577;stroke-linejoin:round;stroke-dasharray:none;stroke-dashoffset:0;stroke-opacity:1"
         d="m 682.58731,271.88853 c 3.00028,-1.0108 4.94787,0.4451 6.95399,1.0834 0.62816,0.1999 2.9867,1.3533 2.94241,2.2628 -0.30075,6.1747 -3.45323,11.6066 -2.11401,17.37624 0.37838,1.6301 0.24111,3.0748 0.295,4.5613 0.033,0.9105 -0.56462,1.9068 -1.16213,1.6456 l -5.42582,-2.3722 c -0.59756,-0.2612 -2.68608,1.6374 -2.65626,0.7266 0.0565,-1.7288 -0.0164,-3.3216 0.31164,-5.4099 0.88653,-5.64364 0.2016,-11.62944 -0.31164,-17.55294 -0.0784,-0.9048 0.53621,-2.1084 1.16682,-2.3209 z"
         sodipodi:nodetypes="sssssssssss" />
      <g
         id="g6-1-1-4-6-9-1-6-2-7-4-4-7-5-5"
         transform="matrix(0.31046595,0,0,0.31046595,651.37602,233.67042)"
         style="stroke-width:0.756927;stroke-dasharray:none">
        <rect
           style="opacity:1;fill:#000000;stroke:#ffffff;stroke-width:0.756927;stroke-linejoin:round;stroke-dasharray:none"
           id="rect5-8-3-8-1-8-2-2-7-3-8-3-7-8-6"
           width="10.664055"
           height="10.785408"
           x="81.009392"
           y="159.09109" />
        <path
           id="rect5-9-6-4-2-3-0-7-7-8-0-4-5-9-2-7"
           style="fill:#000000;stroke:#ffffff;stroke-width:0.952065;stroke-linejoin:round;stroke-dasharray:none"
           transform="matrix(0.63208417,-0.77489973,0,1,0,0)"
           d="m 145.0336,271.4776 5.6318,-0.31314 1e-5,10.65467 -5.63181,0.44388 z"
           sodipodi:nodetypes="ccccc" />
        <rect
           style="fill:#000000;stroke:#ffffff;stroke-width:0.845887;stroke-linejoin:round;stroke-dasharray:none"
           id="rect5-9-1-3-5-4-3-5-1-4-5-6-2-5-4-2-5"
           width="5.8412356"
           height="10.785408"
           x="-198.68402"
           y="-210.75246"
           transform="matrix(0.59903324,-0.80072416,-1,0,0,0)" />
      </g>
      <path
         id="rect1-7-8-3-2-6-6-1-0-0-7-4-5-1-6-8"
         style="stroke:#ffffff;stroke-width:0.317429;stroke-linejoin:round;stroke-dasharray:none;stroke-dashoffset:0;stroke-opacity:1"
         d="m 689.65199,284.55547 c 0.86736,-0.30685 1.83389,-0.0918 1.95338,0.54259 l 1.44084,7.64289 c 0.11958,0.63442 0.0617,0.96432 -0.80555,1.27113 -0.86747,0.30691 -1.28629,0.0875 -1.4797,-0.52782 l -2.28679,-7.2784 c -0.1934,-0.61539 0.31054,-1.34351 1.1778,-1.65035 z"
         sodipodi:nodetypes="sssssss"
         inkscape:transform-center-x="-0.56364834"
         inkscape:transform-center-y="3.1415871" />
      <path
         id="rect1-7-8-5-1-8-7-5-7-9-2-9-8-5-3-1-9-0-39"
         style="stroke:#ffffff;stroke-width:0.374331;stroke-linejoin:round;stroke-dasharray:none;stroke-dashoffset:0;stroke-opacity:1"
         d="m 691.23546,293.11783 c 0.56004,-0.5636 1.80104,-0.76327 2.0364,0.002 0.2907,0.94578 1.03365,1.58359 0.36849,2.38871 -0.5276,0.63861 -1.66027,0.81529 -2.13087,0.27124 -0.52401,-0.60569 -0.83416,-2.09869 -0.27402,-2.66216 z"
         sodipodi:nodetypes="sssss"
         inkscape:transform-center-x="-2.2241913"
         inkscape:transform-center-y="8.2185691" />
      <path
         id="rect1-7-8-5-5-6-7-7-5-4-9-4-6-1-3-3-2-1-5-6"
         style="stroke:#ffffff;stroke-width:0.374331;stroke-linejoin:round;stroke-dasharray:none;stroke-dashoffset:0;stroke-opacity:1"
         d="m 692.86552,293.15711 c 0.12087,-0.2017 0.36311,-0.2774 0.62776,-0.11852 l 1.50683,0.90279 c 0.2716,0.16336 0.39462,0.4566 0.2735,0.65856 -0.12102,0.20152 -0.43779,0.23235 -0.7097,0.0694 l -1.50683,-0.90289 c -0.21251,-0.12696 -0.31226,-0.40776 -0.19145,-0.60942 z"
         sodipodi:nodetypes="sssssss"
         inkscape:transform-center-x="-3.8675791"
         inkscape:transform-center-y="7.7214902" />
      <path
         id="rect1-7-8-5-1-5-4-364-1-3-9-8-1-8-3-7-2-2-2-2"
         style="stroke:#ffffff;stroke-width:0.374331;stroke-linejoin:round;stroke-dasharray:none;stroke-dashoffset:0;stroke-opacity:1"
         d="m 692.04579,294.53353 c 0.65661,-0.44738 1.54818,-0.27461 1.99921,0.38721 l 0.53088,0.77915 c 0.45103,0.66193 0.2855,1.5549 -0.37119,2.0023 -0.65649,0.44734 -1.20358,0.0865 -1.7688,-0.4811 -0.8582,-0.86231 -1.76136,-1.61247 -0.39009,-2.68759 z"
         sodipodi:nodetypes="ssssss"
         inkscape:transform-center-x="-2.8857579"
         inkscape:transform-center-y="9.9520531" />
      <path
         id="rect1-7-5-6-7-4-6-3-1-3-5-8-5-8"
         style="stroke:#ffffff;stroke-width:0.374331;stroke-linejoin:round;stroke-dasharray:none;stroke-dashoffset:0;stroke-opacity:1"
         d="m 683.21157,272.27343 -0.0408,-3.5389 c -0.017,-1.4718 2.90483,-1.3535 3.18644,0.3729 l 0.40194,2.464 c 0.34759,2.1308 -3.52286,2.8496 -3.54761,0.702 z"
         sodipodi:nodetypes="sssss" />
      <path
         id="rect5-8-3-8-1-8-2-2-7-3-8-3-7-8-6-9"
         style="fill:#f9f9f9;stroke:#ffffff;stroke-width:0.235;stroke-linejoin:round;stroke-dasharray:none"
         d="m 715.46566,261.76188 -1.08624,1.45211 h 0.0191 v 3.34863 h 3.31039 l 1.10536,-1.49293 v -3.30781 z" />
    </g>
  </g>
</svg>
