<?xml version="1.0" encoding="UTF-8" standalone="no"?>
<!-- Created with Inkscape (http://www.inkscape.org/) -->

<svg
   width="34.395767mm"
   height="49.39518mm"
   viewBox="0 0 34.395767 49.39518"
   version="1.1"
   id="svg1"
   xmlns:inkscape="http://www.inkscape.org/namespaces/inkscape"
   xmlns:sodipodi="http://sodipodi.sourceforge.net/DTD/sodipodi-0.dtd"
   xmlns="http://www.w3.org/2000/svg"
   xmlns:svg="http://www.w3.org/2000/svg">
  <sodipodi:namedview
     id="namedview1"
     pagecolor="#ffffff"
     bordercolor="#000000"
     borderopacity="0.25"
     inkscape:showpageshadow="2"
     inkscape:pageopacity="0.0"
     inkscape:pagecheckerboard="0"
     inkscape:deskcolor="#d1d1d1"
     inkscape:document-units="mm" />
  <defs
     id="defs1" />
  <g
     inkscape:label="Layer 1"
     inkscape:groupmode="layer"
     id="layer1"
     transform="translate(1010.6859,-1455.2478)">
    <g
       id="g84"
       transform="translate(-988.91406,1571.6261)">
      <path
         id="path11-4-78-8-5"
         style="fill:#808080;stroke:none;stroke-width:0.0886796;stroke-linejoin:round;stroke-dasharray:none"
         d="m 10.37994,-101.4514 v 1.89127 l -1.12986,0.0122 1.75551,2.23628 c 0.0427,0 1.61833,-2.27302 1.61833,-2.27302 l -1.11971,0.0122 v -1.87902 z" />
      <path
         id="path11-4-78-8-5-1"
         style="fill:#808080;stroke:none;stroke-width:0.0886796;stroke-linejoin:round;stroke-dasharray:none"
         d="m 9.99245,-91.0989 v 1.89127 l -1.12986,0.0122 1.75551,2.23628 c 0.0427,0 1.61833,-2.27302 1.61833,-2.27302 l -1.11971,0.0122 v -1.87902 z" />
      <path
         id="path11-4-78-8-5-1-2"
         style="fill:#808080;stroke:none;stroke-width:0.0886796;stroke-linejoin:round;stroke-dasharray:none"
         d="m 9.92827,-80.74639 v 1.89127 l -1.12986,0.0122 1.75551,2.23628 c 0.0427,0 1.61833,-2.27302 1.61833,-2.27302 l -1.11971,0.0122 v -1.87902 z" />
      <path
         id="rect24-0-7"
         style="fill:#000000;stroke:none;stroke-width:0.509793;stroke-linejoin:round;stroke-dasharray:none"
         d="m -8.45129,-116.37836 -2.17018,7.7674 -7.40566,-3.77073 3.53509,7.64131 -7.27981,2.74312 7.27981,2.74308 -4.12424,7.13089 7.18975,-4.06535 2.91631,7.86538 2.91628,-7.86538 7.44681,4.24211 -4.00643,-7.68254 7.90656,-2.42716 -7.90656,-2.42716 3.06374,-7.60372 -7.19128,3.47615 z"
         sodipodi:nodetypes="ccccccccccccccccc" />
      <path
         id="rect24-0-7-7"
         style="fill:#4d4d4d;stroke:none;stroke-width:0.432949;stroke-linejoin:round;stroke-dasharray:none"
         d="m -8.38468,-103.05663 -1.84306,6.59658 -6.28936,-3.20235 3.00222,6.48949 -6.18248,2.32963 6.18248,2.3296 -3.50257,6.05602 6.106,-3.45256 2.47672,6.67979 2.47669,-6.67979 6.32431,3.60267 -3.40252,-6.52451 6.71476,-2.0613 -6.71476,-2.0613 2.60193,-6.45756 -6.1073,2.95217 z"
         sodipodi:nodetypes="ccccccccccccccccc" />
      <path
         id="rect24-0-7-7-9"
         style="fill:#666666;stroke:none;stroke-width:0.343025;stroke-linejoin:round;stroke-dasharray:none"
         d="m -8.30675,-91.53442 -1.46025,5.22646 -4.98305,-2.53721 2.37866,5.14161 -4.89838,1.84577 4.89838,1.84574 -2.77509,4.79817 4.83778,-2.73545 1.9623,5.29239 1.96228,-5.29239 5.01075,2.85439 -2.69581,-5.16936 5.3201,-1.63317 -5.3201,-1.63316 2.0615,-5.11633 -4.83881,2.339 z"
         sodipodi:nodetypes="ccccccccccccccccc" />
      <path
         id="rect24-0-7-7-9-3"
         style="fill:#999999;stroke:none;stroke-width:0.287436;stroke-linejoin:round;stroke-dasharray:none"
         d="m -8.25857,-82.80151 -1.22361,4.37948 -4.17552,-2.12604 1.99319,4.30839 -4.10456,1.54665 4.10456,1.54662 -2.32537,4.0206 4.0538,-2.29216 1.6443,4.43473 1.64428,-4.43473 4.19872,2.39183 -2.25895,-4.33164 4.45795,-1.3685 -4.45795,-1.36851 1.72743,-4.28719 -4.05465,1.95995 z"
         sodipodi:nodetypes="ccccccccccccccccc" />
    </g>
  </g>
</svg>
