<?xml version="1.0" encoding="UTF-8" standalone="no"?>
<!-- Created with Inkscape (http://www.inkscape.org/) -->

<svg
   width="32.645809mm"
   height="61.495472mm"
   viewBox="0 0 32.645809 61.495472"
   version="1.1"
   id="svg1"
   xmlns:inkscape="http://www.inkscape.org/namespaces/inkscape"
   xmlns:sodipodi="http://sodipodi.sourceforge.net/DTD/sodipodi-0.dtd"
   xmlns="http://www.w3.org/2000/svg"
   xmlns:svg="http://www.w3.org/2000/svg">
  <sodipodi:namedview
     id="namedview1"
     pagecolor="#ffffff"
     bordercolor="#000000"
     borderopacity="0.25"
     inkscape:showpageshadow="2"
     inkscape:pageopacity="0.0"
     inkscape:pagecheckerboard="0"
     inkscape:deskcolor="#d1d1d1"
     inkscape:document-units="mm" />
  <defs
     id="defs1" />
  <g
     inkscape:label="Layer 1"
     inkscape:groupmode="layer"
     id="layer1"
     transform="translate(1009.8109,-1646.3315)">
    <g
       id="g50"
       transform="translate(-606.70343,1258.1894)">
      <path
         id="rect4-7"
         style="fill:#cccccc;stroke-width:0.281202;stroke-linejoin:round"
         d="m -393.06018,388.14217 -1.14515,26.89419 -0.96744,10.631 -1.7986,5.7349 0.45623,-11.42 2.30981,-4.9459 -5.83132,-0.2224 -3.07085,5.1683 0.7718,24.1453 h 4.85591 v 0 h 21.39039 4.85551 l 0.7722,-24.1453 -3.07125,-5.1683 -5.80183,-0.016 2.28033,5.1847 0.45582,11.3988 -1.76752,-5.7807 -0.96863,-10.8028 -1.1069,-26.65545 z"
         sodipodi:nodetypes="cccccccccccccccccccccc" />
      <path
         id="rect1-7-8-30-4"
         style="stroke:#ffffff;stroke-width:0.313714;stroke-linejoin:round;stroke-dasharray:none;stroke-dashoffset:0;stroke-opacity:1"
         d="m -397.34976,413.86536 c 0.89619,0.2127 1.55591,0.8906 1.35569,1.488 l -1.86853,5.5747 c -0.20019,0.5973 -0.46598,0.8216 -1.36218,0.609 -0.8962,-0.2127 -1.06789,-0.6018 -0.96394,-1.2226 l 0.95929,-5.7289 c 0.10396,-0.6207 0.98346,-0.9328 1.87967,-0.7202 z"
         sodipodi:nodetypes="sssssss"
         inkscape:transform-center-x="0.63653683"
         inkscape:transform-center-y="2.8354278" />
      <path
         id="rect1-9-4-4-3-7"
         style="stroke:#ffffff;stroke-width:0.387927;stroke-linejoin:round;stroke-dasharray:none;stroke-dashoffset:0;stroke-opacity:1"
         d="m -383.35405,431.32416 h 1.61153 c 0.91069,0 1.75553,0.7964 1.64384,1.7691 l -1.59695,13.9072 c -0.1117,0.9727 -0.0213,1.637 -0.93197,1.637 h -0.72645 c -0.91069,0 -1.64384,-0.789 -1.64384,-1.7691 v -13.7751 c 0,-0.9801 0.73315,-1.7691 1.64384,-1.7691 z"
         sodipodi:nodetypes="sssssssss" />
      <path
         id="rect1-9-1-4-5"
         style="stroke:#ffffff;stroke-width:0.387927;stroke-linejoin:round;stroke-dasharray:none;stroke-dashoffset:0;stroke-opacity:1"
         d="m -393.73556,429.61486 1.58791,-0.2749 c 0.89734,-0.1553 1.79047,0.4916 1.9215,1.4628 l 1.84324,13.6609 c 0.1311,0.9712 -0.42066,1.8682 -1.318,2.0236 l -0.60327,0.1044 c -0.89735,0.1553 -0.99591,-0.6325 -1.24425,-1.58 l -3.50513,-13.3733 c -0.24835,-0.9475 0.42065,-1.8682 1.318,-2.0235 z"
         sodipodi:nodetypes="sssssssss"
         inkscape:transform-center-x="-1.0211069"
         inkscape:transform-center-y="6.845113" />
      <path
         id="rect1-7-3-6"
         style="stroke:#ffffff;stroke-width:0.374331;stroke-linejoin:round;stroke-dasharray:none;stroke-dashoffset:0;stroke-opacity:1"
         d="m -390.66741,404.68326 c 0.82479,0.3708 1.55536,1.9194 1.01015,2.65 l -6.16585,8.2627 c -0.5452,0.7306 -1.52097,1.0981 -2.34577,0.7273 -0.8248,-0.3708 -1.27825,-1.3697 -0.79378,-2.142 l 5.50106,-8.7687 c 0.48446,-0.7722 1.96939,-1.1001 2.79419,-0.7293 z"
         sodipodi:nodetypes="sssssss"
         inkscape:transform-center-x="2.8406965"
         inkscape:transform-center-y="4.6739601" />
      <path
         id="rect1-9-7-8"
         style="stroke:#ffffff;stroke-width:0.226153;stroke-linejoin:round;stroke-dasharray:none;stroke-dashoffset:0;stroke-opacity:1"
         d="m -391.08788,425.53806 2.42247,1.0815 c 0.84161,0.3758 2.25029,1.3522 1.99022,1.5826 -1.23746,1.0961 -2.54096,1.4659 -3.66426,3.8179 -0.14972,0.3135 -0.91844,0.245 -1.7622,-0.1262 l -1.49309,-0.6568 c -0.84377,-0.3711 -1.33628,-1.4054 -1.33121,-1.7345 0.0339,-2.1984 0.83553,-3.5194 1.741,-4.7217 0.19797,-0.2629 1.25544,0.3815 2.09706,0.7572 z"
         sodipodi:nodetypes="ssssssssss"
         inkscape:transform-center-x="1.3007951"
         inkscape:transform-center-y="1.7913472" />
      <path
         id="rect1-9-4-1-7"
         style="stroke:#ffffff;stroke-width:0.226153;stroke-linejoin:round;stroke-dasharray:none;stroke-dashoffset:0;stroke-opacity:1"
         d="m -384.2626,426.24656 2.7755,0.029 c 0.92139,0.01 1.72004,0.2837 1.71658,0.6128 l -0.0527,5.0192 c -0.003,0.3291 -0.74208,0.594 -1.66387,0.594 h -1.63116 c -0.92178,0 -1.53015,-0.2684 -1.66387,-0.594 l -2.0885,-5.0849 c -0.13373,-0.3256 1.68664,-0.586 2.60803,-0.5763 z"
         sodipodi:nodetypes="sssssssss" />
      <path
         id="rect1-7-8-5-1-8-52-3"
         style="stroke:#ffffff;stroke-width:0.374331;stroke-linejoin:round;stroke-dasharray:none;stroke-dashoffset:0;stroke-opacity:1"
         d="m -400.04654,421.14626 c 0.42601,-0.6707 1.59496,-1.1325 1.98928,-0.4354 0.48719,0.8612 1.34986,1.3245 0.87321,2.2537 -0.37818,0.7371 -1.44636,1.1531 -2.02284,0.7228 -0.6419,-0.4791 -1.26566,-1.8705 -0.83965,-2.5411 z"
         sodipodi:nodetypes="sssss" />
      <path
         id="rect1-7-8-5-5-6-7-3-2"
         style="stroke:#ffffff;stroke-width:0.374331;stroke-linejoin:round;stroke-dasharray:none;stroke-dashoffset:0;stroke-opacity:1"
         d="m -399.16492,420.63336 c 0.01,-0.2348 0.18669,-0.4169 0.49505,-0.4037 l 1.75497,0.074 c 0.31669,0.013 0.56454,0.2134 0.55458,0.4482 -0.01,0.2349 -0.27413,0.4128 -0.59047,0.3997 l -1.75498,-0.074 c -0.24732,-0.011 -0.46912,-0.2093 -0.45913,-0.4442 z"
         sodipodi:nodetypes="sssssss" />
      <path
         id="rect1-7-8-3-2-69"
         style="stroke:#ffffff;stroke-width:0.317429;stroke-linejoin:round;stroke-dasharray:none;stroke-dashoffset:0;stroke-opacity:1"
         d="m -375.48597,414.22336 c -0.87254,0.2919 -1.46391,1.0379 -1.206,1.6298 l 2.40696,5.5234 c 0.25789,0.5919 0.54473,0.7981 1.41726,0.5062 0.87252,-0.2918 1.00565,-0.7027 0.84141,-1.3265 l -1.5157,-5.7568 c -0.16425,-0.6238 -1.07141,-0.868 -1.94393,-0.5761 z"
         sodipodi:nodetypes="sssssss"
         inkscape:transform-center-x="-0.92606868"
         inkscape:transform-center-y="2.5990388" />
      <path
         id="rect1-7-2-76-0"
         style="stroke:#ffffff;stroke-width:0.374331;stroke-linejoin:round;stroke-dasharray:none;stroke-dashoffset:0;stroke-opacity:1"
         d="m -381.81678,405.19546 c -0.8282,0.3631 -1.57302,1.9049 -1.03459,2.6406 l 6.08928,8.3192 c 0.53844,0.7356 1.51077,1.1121 2.33896,0.749 0.8282,-0.3632 1.29084,-1.3579 0.81352,-2.1346 l -5.41984,-8.8191 c -0.47732,-0.7767 -1.95914,-1.1183 -2.78733,-0.7551 z"
         sodipodi:nodetypes="sssssss"
         inkscape:transform-center-x="-2.968664"
         inkscape:transform-center-y="4.0653421" />
      <path
         id="rect1-7-8-5-1-8-7-5-8"
         style="stroke:#ffffff;stroke-width:0.374331;stroke-linejoin:round;stroke-dasharray:none;stroke-dashoffset:0;stroke-opacity:1"
         d="m -373.07201,420.54686 c -0.7945,0 -1.81108,0.739 -1.43412,1.4457 0.46569,0.873 0.3942,1.8495 1.43412,1.9454 0.82495,0.076 1.74882,-0.6026 1.69477,-1.3199 -0.0602,-0.7987 -0.90026,-2.0712 -1.69477,-2.0712 z"
         sodipodi:nodetypes="sssss" />
      <path
         id="rect1-7-8-5-1-5-4-364-1-4"
         style="stroke:#ffffff;stroke-width:0.374331;stroke-linejoin:round;stroke-dasharray:none;stroke-dashoffset:0;stroke-opacity:1"
         d="m -372.49612,421.86016 c -0.76743,-0.2056 -1.55214,0.2517 -1.75943,1.0253 l -0.24403,0.9107 c -0.2073,0.7736 0.24364,1.562 1.01108,1.7676 0.76743,0.2057 1.16472,-0.3156 1.51097,-1.0379 0.526,-1.097 1.13057,-2.1033 -0.51859,-2.6657 z"
         sodipodi:nodetypes="ssssss" />
      <path
         id="rect1-7-8-5-5-6-7-7-5-2"
         style="stroke:#ffffff;stroke-width:0.374331;stroke-linejoin:round;stroke-dasharray:none;stroke-dashoffset:0;stroke-opacity:1"
         d="m -373.97759,421.01596 c -0.20358,-0.1175 -0.45207,-0.066 -0.60622,0.2014 l -0.87828,1.5212 c -0.1585,0.2745 -0.12265,0.5909 0.0809,0.7085 0.20357,0.1175 0.4955,-0.01 0.65399,-0.2842 l 0.87829,-1.5212 c 0.12374,-0.2143 0.0749,-0.5082 -0.12871,-0.6257 z"
         sodipodi:nodetypes="sssssss" />
      <path
         id="rect1-92-8"
         style="stroke:none;stroke-width:0.364535;stroke-linejoin:round;stroke-dasharray:none;stroke-dashoffset:0;stroke-opacity:1"
         d="m -391.40561,404.73696 c 4.48102,-1.7281 6.95788,-0.6053 9.7985,0 0.88945,0.1896 1.70826,0.6981 1.64554,1.5606 -0.42584,5.8558 -2.31401,11.9795 -0.41771,17.451 0.53577,1.5459 0.34141,2.916 0.41771,4.3258 0.0467,0.8634 -0.73391,1.5605 -1.64554,1.5605 h -9.7985 c -0.91163,0 -1.66848,-0.6963 -1.64554,-1.5605 0.0443,-1.6711 -0.17824,-3.2868 0.44127,-5.1305 1.76084,-5.2402 0.28547,-11.0288 -0.44127,-16.6463 -0.11101,-0.8581 0.80107,-1.2349 1.64554,-1.5606 z"
         sodipodi:nodetypes="sssssssssss" />
      <path
         id="rect1-7-8-5-1-5-4-34-3-9"
         style="stroke:#ffffff;stroke-width:0.485783;stroke-linejoin:round;stroke-dasharray:none;stroke-dashoffset:0;stroke-opacity:1"
         d="m -389.50266,445.32706 c -0.70994,-0.7008 -2.11346,-0.8712 -3.14686,-0.3818 l -1.21653,0.576 c -1.03343,0.4893 -1.29384,1.4474 -0.58389,2.1483 0.70994,0.7009 1.71459,0.55 2.86223,0.1991 1.7432,-0.5328 3.48839,-0.9368 2.08505,-2.5416 z"
         sodipodi:nodetypes="ssssss" />
      <path
         id="rect1-7-8-5-1-5-4-34-0-6-0"
         style="stroke:#ffffff;stroke-width:0.485783;stroke-linejoin:round;stroke-dasharray:none;stroke-dashoffset:0;stroke-opacity:1"
         d="m -384.02471,446.55816 c 0.70994,-0.7009 2.11345,-0.8712 3.14686,-0.3819 l 1.21653,0.576 c 1.03342,0.4893 1.29383,1.4475 0.58389,2.1483 -0.70994,0.7009 -1.7146,0.55 -2.86223,0.1992 -1.7432,-0.5329 -3.48839,-0.9369 -2.08505,-2.5416 z"
         sodipodi:nodetypes="ssssss" />
      <path
         id="rect1-7-5-2-8"
         style="stroke:#ffffff;stroke-width:0.374331;stroke-linejoin:round;stroke-dasharray:none;stroke-dashoffset:0;stroke-opacity:1"
         d="m -384.5136,403.46246 -0.45533,-2.679 c -0.24664,-1.4512 -2.90483,-1.3535 -3.18644,0.3728 l -0.40194,2.4641 c -0.34759,2.1308 4.40356,1.9594 4.04371,-0.1579 z"
         sodipodi:nodetypes="sssss" />
      <path
         id="path1-75-2"
         style="stroke:#ffffff;stroke-width:0.307315;stroke-linejoin:round;stroke-dasharray:none;stroke-dashoffset:0;stroke-opacity:1"
         d="m -382.98059,398.29846 c 0,2.2007 -1.39188,4.5489 -3.64273,4.5489 -2.25086,0 -3.58503,-2.3482 -3.58503,-4.5489 0,-2.2007 1.33417,-3.4205 3.58503,-3.4205 2.25085,0 3.64273,1.2198 3.64273,3.4205 z"
         sodipodi:nodetypes="sssss" />
      <path
         id="rect25"
         style="stroke:#ffffff;stroke-width:0.285999;stroke-linejoin:round"
         d="m -389.39973,393.58368 h 5.49538 l 0.70158,2.79748 h -6.94531 z"
         sodipodi:nodetypes="ccccc" />
      <path
         id="rect141"
         style="fill:#ffffff;fill-opacity:1;stroke:#000000;stroke-width:0.4;stroke-linejoin:round;stroke-dasharray:none;stroke-dashoffset:0"
         d="m -397.39333,413.73126 v 0.5199 c -2.36339,0.307 -0.29694,1.2153 -0.0775,2.2298 -1.55491,-0.056 -2.14684,2.6648 0.0775,2.8138 v 27.6474 h 1.14515 v -27.652 c 2.63287,0 2.04634,-2.9262 0.19689,-2.8092 0.22297,-1.0308 2.35158,-1.9517 -0.19689,-2.2438 v -0.5059 z"
         sodipodi:nodetypes="ccccccccccc" />
      <path
         id="rect1-7-8-5-1-5-4-8-0"
         style="stroke:#ffffff;stroke-width:0.374331;stroke-linejoin:round;stroke-dasharray:none;stroke-dashoffset:0;stroke-opacity:1"
         d="m -399.24669,422.33656 c 0.23786,-0.7581 1.04462,-1.1752 1.80885,-0.9354 l 0.89956,0.2824 c 0.76414,0.2398 1.18783,1.0432 0.94988,1.8012 -0.23794,0.758 -0.89091,0.8139 -1.68626,0.7189 -1.20801,-0.1442 -2.38167,-0.1735 -1.97203,-1.8671 z"
         sodipodi:nodetypes="ssssss" />
    </g>
  </g>
</svg>
