<?xml version="1.0" encoding="UTF-8" standalone="no"?>
<!-- Created with Inkscape (http://www.inkscape.org/) -->

<svg
   width="52.695747mm"
   height="79.99073mm"
   viewBox="0 0 52.695747 79.99073"
   version="1.1"
   id="svg1"
   xmlns:inkscape="http://www.inkscape.org/namespaces/inkscape"
   xmlns:sodipodi="http://sodipodi.sourceforge.net/DTD/sodipodi-0.dtd"
   xmlns="http://www.w3.org/2000/svg"
   xmlns:svg="http://www.w3.org/2000/svg">
  <sodipodi:namedview
     id="namedview1"
     pagecolor="#ffffff"
     bordercolor="#000000"
     borderopacity="0.25"
     inkscape:showpageshadow="2"
     inkscape:pageopacity="0.0"
     inkscape:pagecheckerboard="0"
     inkscape:deskcolor="#d1d1d1"
     inkscape:document-units="mm" />
  <defs
     id="defs1" />
  <g
     inkscape:label="Layer 1"
     inkscape:groupmode="layer"
     id="layer1"
     transform="translate(1019.8359,-1749.9392)">
    <g
       id="g48"
       transform="translate(-1137.4937,794.53238)">
      <path
         id="path1-73-1-5-7-3-7-0-4-1-5"
         style="stroke:#ffffff;stroke-width:0.287201;stroke-linejoin:round;stroke-dasharray:none;stroke-dashoffset:0;stroke-opacity:1"
         d="m 125.34671,974.26726 c 0.0914,2.2181 0.0649,4.7443 -1.81289,5.2658 -1.87761,0.5214 -3.62356,-1.4521 -4.21663,-3.5914 -0.59316,-2.1393 0.1202,-4.1313 2.06879,-4.1556 2.42579,-0.03 3.86014,0.041 3.96073,2.4812 z"
         sodipodi:nodetypes="sssss" />
      <path
         id="rect1-7-8-5-1-5-4-34-0-1-3-9-6-4-0-6-7-3-8"
         style="stroke:#ffffff;stroke-width:0.419911;stroke-linejoin:round;stroke-dasharray:none;stroke-dashoffset:0;stroke-opacity:1"
         d="m 118.56774,1029.8814 c 0.49718,-0.7907 1.74722,-1.4823 2.80278,-1.5506 l 1.24257,-0.08 c 1.05555,-0.068 1.50506,0.5133 1.00788,1.3041 -0.49718,0.7908 -1.45197,1.0901 -2.58184,1.3041 -1.71625,0.325 -3.40597,0.7432 -2.47139,-0.9772 z"
         sodipodi:nodetypes="ssssss" />
      <path
         id="rect1-9-4-41-7-6-1-1-5-8-1-3-6"
         style="stroke:#ffffff;stroke-width:0.359059;stroke-linejoin:round;stroke-dasharray:none;stroke-dashoffset:0;stroke-opacity:1"
         d="m 122.13286,1002.8686 -2.73139,0.3113 c -0.90675,0.1033 -1.63432,0.8667 -1.55857,1.7011 l 1.1552,12.726 c 0.0754,0.8344 0.86256,1.4432 1.77184,1.3644 l 1.609,-0.1394 c 0.90927,-0.079 1.45037,-0.8116 1.51072,-1.6489 l 0.94249,-13.0758 c 0.0604,-0.8373 -1.79253,-1.342 -2.69928,-1.2387 z"
         sodipodi:nodetypes="sssssssss" />
      <path
         id="rect1-7-8-5-5-6-7-3-8-5-1-5-2"
         style="stroke:#ffffff;stroke-width:0.374331;stroke-linejoin:round;stroke-dasharray:none;stroke-dashoffset:0;stroke-opacity:1"
         d="m 145.4795,971.25776 c 0.0427,-0.2311 -0.0893,-0.448 -0.39252,-0.5039 l -1.72738,-0.319 c -0.31171,-0.058 -0.5979,0.082 -0.64058,0.3132 -0.0427,0.2312 0.17475,0.4638 0.48648,0.5213 l 1.72738,0.319 c 0.24337,0.045 0.50393,-0.099 0.54662,-0.3306 z"
         sodipodi:nodetypes="sssssss" />
      <path
         id="rect1-7-3-7-0-3-9-3-9-7-1-2"
         style="stroke:#ffffff;stroke-width:0.374331;stroke-linejoin:round;stroke-dasharray:none;stroke-dashoffset:0;stroke-opacity:1"
         d="m 161.58968,966.05536 c 0.50801,0.7481 0.31335,2.438 -0.52917,2.7862 l -6.69279,2.7655 c -0.84252,0.3481 -1.87091,0.1377 -2.37886,-0.6105 -0.50793,-0.7482 -0.35017,-1.798 0.44706,-2.2402 l 6.39199,-3.5449 c 0.79723,-0.4422 2.2538,0.096 2.76174,0.8439 z"
         sodipodi:nodetypes="ssssssss"
         inkscape:transform-center-x="4.9372213"
         inkscape:transform-center-y="2.3757066" />
      <path
         id="rect1-7-8-30-8-6-6-5-6-4-9-9-6"
         style="stroke:#ffffff;stroke-width:0.313714;stroke-linejoin:round;stroke-dasharray:none;stroke-dashoffset:0;stroke-opacity:1"
         d="m 154.24138,969.83566 c 0.30013,0.8708 0.0867,1.8178 -0.531,1.9416 l -7.17622,1.4381 c -0.61776,0.1238 -0.94351,0.046 -1.24365,-0.8245 -0.30014,-0.8708 -0.0801,-1.2684 0.51656,-1.4687 l 6.81972,-2.2886 c 0.59668,-0.2003 1.3144,0.3313 1.61456,1.2021 z"
         sodipodi:nodetypes="sssssss"
         inkscape:transform-center-x="3.4714137"
         inkscape:transform-center-y="1.2479144" />
      <path
         id="rect1-7-2-76-1-7-2-6-7-2-5-0-5"
         style="stroke:#ffffff;stroke-width:0.374331;stroke-linejoin:round;stroke-dasharray:none;stroke-dashoffset:0;stroke-opacity:1"
         d="m 170.16638,968.44906 c -0.0195,-0.9041 -1.30442,-1.5689 -2.01507,-0.9981 l -7.36314,5.9149 c -0.71071,0.5709 -1.57799,1.0145 -1.53422,1.9178 0.0438,0.9032 0.88775,1.928 1.70377,1.5215 l 7.92904,-3.9491 c 0.68264,-0.5944 1.2819,-2.7281 1.27962,-4.407 z"
         sodipodi:nodetypes="csssscc"
         inkscape:transform-center-x="3.8014056"
         inkscape:transform-center-y="2.0989427" />
      <path
         id="rect1-9-4-4-31-7-1-4-3-0-5-7-9"
         style="stroke:#ffffff;stroke-width:0.387927;stroke-linejoin:round;stroke-dasharray:none;stroke-dashoffset:0;stroke-opacity:1"
         d="m 163.42739,1001.4174 1.60066,-0.1868 c 0.90456,-0.1056 1.83601,0.5875 1.83781,1.5666 l 0.0257,13.9986 c 0.002,0.979 0.1686,1.6284 -0.73595,1.7339 l -0.72155,0.084 c -0.90455,0.1056 -1.7242,-0.5931 -1.8378,-1.5666 l -1.5966,-13.6823 c -0.1136,-0.9734 0.52316,-1.8421 1.42771,-1.9476 z"
         sodipodi:nodetypes="sssssssss" />
      <path
         id="rect1-9-1-95-4-0-1-8-0-2-1-4"
         style="stroke:#ffffff;stroke-width:0.387927;stroke-linejoin:round;stroke-dasharray:none;stroke-dashoffset:0;stroke-opacity:1"
         d="m 156.98597,1000.031 h 1.61153 c 0.91068,0 1.68037,0.7898 1.64383,1.7691 l -0.51391,13.7751 c -0.0365,0.9793 -0.73315,1.7691 -1.64384,1.7691 h -0.61225 c -0.91069,0 -0.87342,-0.7931 -0.95651,-1.7691 l -1.1727,-13.7751 c -0.0831,-0.976 0.73316,-1.7691 1.64385,-1.7691 z"
         sodipodi:nodetypes="sssssssss" />
      <path
         id="rect1-9-69-4-8-4-7-7-73-7-5"
         style="stroke:#ffffff;stroke-width:0.359059;stroke-linejoin:round;stroke-dasharray:none;stroke-dashoffset:0;stroke-opacity:1"
         d="m 160.47453,986.60246 2.54141,0.6648 c 0.88295,0.231 2.28297,1.4044 1.96943,2.1827 l -4.77553,11.85504 c -0.31352,0.7784 -1.07539,1.2925 -1.96153,1.074 l -1.56809,-0.3866 c -0.88613,-0.2185 -1.43475,-1.0484 -1.23752,-1.8627 l 3.01579,-12.45024 c 0.19755,-0.8142 1.13308,-1.308 2.01603,-1.077 z"
         sodipodi:nodetypes="ssssssssss" />
      <path
         id="rect1-9-4-41-7-6-1-1-5-8-1-3"
         style="stroke:#ffffff;stroke-width:0.359059;stroke-linejoin:round;stroke-dasharray:none;stroke-dashoffset:0;stroke-opacity:1"
         d="m 163.74341,986.79246 2.73139,0.3113 c 0.90675,0.1033 1.63432,0.8667 1.55857,1.7011 l -1.1552,12.72604 c -0.0754,0.8344 -0.86256,1.4432 -1.77184,1.3644 l -1.609,-0.1394 c -0.90927,-0.079 -1.45037,-0.8116 -1.51072,-1.6489 l -0.94249,-13.07584 c -0.0604,-0.8373 1.79253,-1.342 2.69928,-1.2387 z"
         sodipodi:nodetypes="sssssssss" />
      <path
         id="rect1-0-0-2-5-8-0-4-2-7"
         style="stroke:none;stroke-width:0.314577;stroke-linejoin:round;stroke-dasharray:none;stroke-dashoffset:0;stroke-opacity:1"
         d="m 159.82572,964.58076 c 3.00028,-1.0108 4.94787,0.4451 6.95399,1.0834 0.62816,0.1999 2.9867,1.3533 2.94241,2.2628 -0.30075,6.1747 -3.45323,11.6066 -2.11401,17.3762 0.37838,1.6301 0.24111,3.0748 0.295,4.5613 0.033,0.9105 -0.64151,2.0383 -1.16213,1.6456 l -4.81778,-3.635 c -0.52062,-0.3928 -3.29412,2.9002 -3.2643,1.9894 0.0565,-1.7288 -0.0164,-3.3216 0.31164,-5.4099 0.88653,-5.6436 0.2016,-11.6294 -0.31164,-17.5529 -0.0784,-0.9048 0.53621,-2.1084 1.16682,-2.3209 z"
         sodipodi:nodetypes="sssssssssss" />
      <path
         id="rect1-7-8-5-1-5-4-34-31-3-6-5-5-8-2-4-6"
         style="stroke:#ffffff;stroke-width:0.453133;stroke-linejoin:round;stroke-dasharray:none;stroke-dashoffset:0;stroke-opacity:1"
         d="m 158.98076,1015.7065 c -0.62285,-0.6996 -2.00014,-1.0415 -3.08805,-0.7664 l -1.28068,0.3237 c -1.08793,0.2751 -1.46233,1.0597 -0.83947,1.7594 0.62284,0.6996 1.64147,0.7106 2.82652,0.5701 1.80001,-0.2133 3.58653,-0.3159 2.38168,-1.8868 z"
         sodipodi:nodetypes="ssssss" />
      <path
         id="rect1-7-8-5-1-5-4-34-0-1-3-9-6-4-0-6-7-3"
         style="stroke:#ffffff;stroke-width:0.419911;stroke-linejoin:round;stroke-dasharray:none;stroke-dashoffset:0;stroke-opacity:1"
         d="m 166.11833,1017.2354 c -0.72948,-0.5834 -2.13739,-0.8257 -3.15673,-0.5432 l -1.19996,0.3325 c -1.01936,0.2824 -1.2527,0.9795 -0.52323,1.5629 0.72947,0.5834 1.72961,0.5523 2.86704,0.383 1.7277,-0.2572 3.46101,-0.4176 2.01288,-1.7352 z"
         sodipodi:nodetypes="ssssss" />
      <path
         id="rect1-7-5-6-7-4-6-3-1-3-5-8"
         style="stroke:#ffffff;stroke-width:0.374331;stroke-linejoin:round;stroke-dasharray:none;stroke-dashoffset:0;stroke-opacity:1"
         d="m 166.05399,965.05916 0.0408,-3.5389 c 0.017,-1.4718 -2.90483,-1.3535 -3.18644,0.3729 l -0.40194,2.464 c -0.34759,2.1308 3.52286,2.8496 3.54761,0.702 z"
         sodipodi:nodetypes="sssss" />
      <path
         id="path1-73-1-5-7-3-7-0-4-1"
         style="stroke:#ffffff;stroke-width:0.287201;stroke-linejoin:round;stroke-dasharray:none;stroke-dashoffset:0;stroke-opacity:1"
         d="m 167.17513,959.00416 c -0.50452,2.1619 -1.20507,4.5893 -3.15384,4.5901 -1.94877,8e-4 -3.10388,-2.3675 -3.10388,-4.5875 0,-2.22 1.15656,-3.3765 3.10388,-3.4518 2.25026,-0.087 3.70893,1.0706 3.15384,3.4492 z"
         sodipodi:nodetypes="sssss" />
      <path
         id="rect1-7-8-3-2-6-6-1-0-0-7-4-5-1"
         style="stroke:#ffffff;stroke-width:0.317429;stroke-linejoin:round;stroke-dasharray:none;stroke-dashoffset:0;stroke-opacity:1"
         d="m 164.53581,973.90596 c -0.24857,-0.8858 -0.98096,-1.5522 -1.56855,-1.2847 l -7.07814,3.2232 c -0.58758,0.2675 -0.82396,0.5048 -0.57534,1.3906 0.24857,0.8859 0.66912,1.102 1.28357,0.9057 l 7.26745,-2.3215 c 0.61445,-0.1963 0.91963,-1.0275 0.67101,-1.9133 z"
         sodipodi:nodetypes="sssssss"
         inkscape:transform-center-x="3.9264431"
         inkscape:transform-center-y="0.63511165" />
      <path
         id="rect1-7-8-5-1-8-7-5-7-9-2-9-8-5-3-1-9"
         style="stroke:#ffffff;stroke-width:0.374331;stroke-linejoin:round;stroke-dasharray:none;stroke-dashoffset:0;stroke-opacity:1"
         d="m 155.87537,977.81806 c 0.0142,-0.7944 -0.70708,-1.8238 -1.42024,-1.4594 -0.88104,0.4503 -1.85621,0.3616 -1.97042,1.3997 -0.0906,0.8234 0.57175,1.7591 1.28989,1.7177 0.7996,-0.046 2.08676,-0.8636 2.10077,-1.658 z"
         sodipodi:nodetypes="sssss"
         inkscape:transform-center-x="8.8090691"
         inkscape:transform-center-y="2.6353789" />
      <path
         id="rect1-7-8-5-5-6-7-7-5-4-9-4-6-1-3-3-2-1"
         style="stroke:#ffffff;stroke-width:0.374331;stroke-linejoin:round;stroke-dasharray:none;stroke-dashoffset:0;stroke-opacity:1"
         d="m 154.71158,976.67596 c 0.0605,-0.2272 -0.0539,-0.4537 -0.35226,-0.5329 l -1.69742,-0.4521 c -0.30642,-0.081 -0.60246,0.035 -0.66295,0.2626 -0.0603,0.2272 0.13825,0.4759 0.44458,0.5575 l 1.69743,0.452 c 0.23914,0.064 0.51012,-0.06 0.5706,-0.2872 z"
         sodipodi:nodetypes="sssssss"
         inkscape:transform-center-x="9.5464727"
         inkscape:transform-center-y="1.010782" />
      <path
         id="rect1-7-8-5-1-5-4-364-1-3-9-8-1-8-3-7-2-2"
         style="stroke:#ffffff;stroke-width:0.374331;stroke-linejoin:round;stroke-dasharray:none;stroke-dashoffset:0;stroke-opacity:1"
         d="m 154.29521,978.22296 c -0.13643,-0.7827 -0.88153,-1.302 -1.67052,-1.1645 l -0.92885,0.1619 c -0.78903,0.1376 -1.31439,0.8784 -1.17789,1.6612 0.13643,0.7826 0.77647,0.9237 1.57739,0.9338 1.21653,0.015 2.38385,0.1403 2.19991,-1.5924 z"
         sodipodi:nodetypes="ssssss"
         inkscape:transform-center-x="10.579621"
         inkscape:transform-center-y="3.1848687" />
      <path
         id="rect1-7-8-5-1-8-52-7-5-6-4-2"
         style="stroke:#ffffff;stroke-width:0.374331;stroke-linejoin:round;stroke-dasharray:none;stroke-dashoffset:0;stroke-opacity:1"
         d="m 146.16713,972.92276 c 0.27331,-0.746 -0.0709,-1.9548 -0.86414,-1.844 -0.9799,0.137 -1.8723,-0.2661 -2.32009,0.6774 -0.35524,0.7484 -0.0357,1.8494 0.6564,2.0454 0.77064,0.2182 2.25452,-0.1328 2.52783,-0.8788 z"
         sodipodi:nodetypes="sssss" />
      <path
         id="rect1-7-8-5-1-5-4-8-8-8-0-9-0"
         style="stroke:#ffffff;stroke-width:0.374331;stroke-linejoin:round;stroke-dasharray:none;stroke-dashoffset:0;stroke-opacity:1"
         d="m 144.46018,972.03626 c -0.4868,-0.6278 -1.38829,-0.7383 -2.02126,-0.2475 l -0.74513,0.5776 c -0.63299,0.4908 -0.75065,1.3914 -0.26386,2.0193 0.4868,0.6279 1.11844,0.453 1.83103,0.087 1.08238,-0.5556 2.17247,-0.9914 1.19922,-2.4366 z"
         sodipodi:nodetypes="ssssss" />
      <path
         id="rect1-7-8-5-5-6-7-3-8-5-1-5-2-2"
         style="stroke:#ffffff;stroke-width:0.374331;stroke-linejoin:round;stroke-dasharray:none;stroke-dashoffset:0;stroke-opacity:1"
         d="m 135.4347,975.29666 c -0.19639,-0.1291 -0.26166,-0.3745 -0.0922,-0.6321 l 0.96486,-1.4679 c 0.1738,-0.2651 0.47289,-0.3749 0.66935,-0.2457 0.19647,0.1291 0.21395,0.447 0.0398,0.7119 l -0.96487,1.4678 c -0.1359,0.2069 -0.42015,0.2954 -0.6169,0.166 z"
         sodipodi:nodetypes="sssssss" />
      <path
         id="rect1-7-3-7-0-3-9-3-9-7-1-2-3"
         style="stroke:#ffffff;stroke-width:0.374331;stroke-linejoin:round;stroke-dasharray:none;stroke-dashoffset:0;stroke-opacity:1"
         d="m 121.28031,982.95436 c 0.18863,0.8844 1.5434,1.9131 2.37774,1.5457 l 6.62743,-2.9186 c 0.83426,-0.3675 1.3939,-1.2556 1.20516,-2.14 -0.18876,-0.8844 -1.05586,-1.4968 -1.92673,-1.2272 l -6.98202,2.1622 c -0.87087,0.2697 -1.49009,1.6937 -1.30156,2.5779 z"
         sodipodi:nodetypes="ssssssss"
         inkscape:transform-center-x="-5.2108491"
         inkscape:transform-center-y="-1.6708892" />
      <path
         id="rect1-7-8-30-8-6-6-5-6-4-9-9-6-1"
         style="stroke:#ffffff;stroke-width:0.313714;stroke-linejoin:round;stroke-dasharray:none;stroke-dashoffset:0;stroke-opacity:1"
         d="m 128.3456,980.63866 c 0.42105,0.8192 1.25244,1.3203 1.76921,0.96 l 6.00354,-4.1861 c 0.51681,-0.3604 0.68603,-0.6494 0.26521,-1.4684 -0.42105,-0.8192 -0.86036,-0.9354 -1.4178,-0.6432 l -6.37093,3.3402 c -0.55746,0.2923 -0.67024,1.1783 -0.24921,1.9975 z"
         sodipodi:nodetypes="sssssss"
         inkscape:transform-center-x="-3.4293696"
         inkscape:transform-center-y="-1.3689934" />
      <path
         id="rect1-7-2-76-1-7-2-6-7-2-5-0-5-1"
         style="stroke:#ffffff;stroke-width:0.374331;stroke-linejoin:round;stroke-dasharray:none;stroke-dashoffset:0;stroke-opacity:1"
         d="m 123.3737,982.76016 c -0.38349,-0.8191 0.47326,-1.9847 1.36335,-1.7884 l 9.2227,2.0356 c 0.89031,0.1957 1.86422,0.2097 2.22567,1.0383 0.36135,0.829 0.0595,2.1218 -0.85217,2.1194 l -8.858,-0.023 c -0.87553,-0.2296 -2.35894,-1.8765 -3.10154,-3.3822 z"
         sodipodi:nodetypes="csssscc"
         inkscape:transform-center-x="-5.5466797"
         inkscape:transform-center-y="0.85540272" />
      <path
         id="rect1-9-4-4-31-7-1-4-3-0-5-7-9-6"
         style="stroke:#ffffff;stroke-width:0.387927;stroke-linejoin:round;stroke-dasharray:none;stroke-dashoffset:0;stroke-opacity:1"
         d="m 122.1843,1015.5091 -1.60066,-0.1868 c -0.90456,-0.1056 -1.80048,0.5882 -1.83781,1.5666 l -0.44665,11.7068 c -0.0373,0.9783 -0.16862,1.6286 0.73595,1.7339 l 0.72155,0.084 c 0.90458,0.1053 1.66686,-0.6016 1.8378,-1.5666 l 2.01755,-11.3905 c 0.17092,-0.965 -0.52316,-1.8421 -1.42771,-1.9476 z"
         sodipodi:nodetypes="ssssssssss" />
      <path
         id="rect1-7-8-5-1-5-4-34-31-3-6-5-5-8-2-4-6-4"
         style="stroke:#ffffff;stroke-width:0.453133;stroke-linejoin:round;stroke-dasharray:none;stroke-dashoffset:0;stroke-opacity:1"
         d="m 127.68973,1033.8796 c 0.27136,-0.8965 1.37763,-1.7854 2.48046,-1.9927 l 1.29818,-0.2442 c 1.10285,-0.2074 1.7722,0.3474 1.50088,1.244 -0.27135,0.8965 -1.19114,1.3344 -2.32558,1.7047 -1.7231,0.5625 -3.38746,1.2199 -2.95394,-0.7118 z"
         sodipodi:nodetypes="ssssss" />
      <path
         id="rect1-7-8-3-2-6-6-1-0-0-7-4-5-1-6"
         style="stroke:#ffffff;stroke-width:0.317429;stroke-linejoin:round;stroke-dasharray:none;stroke-dashoffset:0;stroke-opacity:1"
         d="m 134.85406,985.27726 c -0.35951,-0.8469 -0.2042,-1.8248 0.42168,-1.983 l 7.54004,-1.9072 c 0.62589,-0.1583 0.95872,-0.1208 1.31819,0.726 0.35957,0.847 0.16632,1.2785 -0.43606,1.5093 l -7.12432,2.7292 c -0.60236,0.2308 -1.36004,-0.2275 -1.71953,-1.0743 z"
         sodipodi:nodetypes="sssssss"
         inkscape:transform-center-x="-11.587415"
         inkscape:transform-center-y="-0.42733574" />
      <path
         id="rect1-7-8-5-1-8-52-7-5-6-4-2-1"
         style="stroke:#ffffff;stroke-width:0.374331;stroke-linejoin:round;stroke-dasharray:none;stroke-dashoffset:0;stroke-opacity:1"
         d="m 136.16105,976.94506 c -0.72771,-0.3188 -1.3623,-1.4037 -0.73345,-1.8997 0.7769,-0.6127 1.10332,-1.5359 2.09435,-1.2064 0.78613,0.2613 1.35995,1.2538 1.02259,1.8891 -0.37567,0.7074 -1.65578,1.5359 -2.38349,1.217 z"
         sodipodi:nodetypes="sssss" />
      <path
         id="rect1-7-8-5-1-5-4-8-8-8-0-9-0-1"
         style="stroke:#ffffff;stroke-width:0.374331;stroke-linejoin:round;stroke-dasharray:none;stroke-dashoffset:0;stroke-opacity:1"
         d="m 136.99939,975.44746 c -0.43562,-0.6644 -0.24726,-1.5529 0.42256,-1.9921 l 0.78831,-0.5171 c 0.66982,-0.4392 1.5598,-0.2579 1.99551,0.4065 0.43569,0.6643 0.0651,1.2049 -0.51254,1.76 -0.87711,0.8431 -1.64341,1.7325 -2.69405,0.3426 z"
         sodipodi:nodetypes="ssssss" />
      <path
         id="rect1-7-5-6-7-4-6-3-1-3-5-8-5"
         style="stroke:#ffffff;stroke-width:0.374331;stroke-linejoin:round;stroke-dasharray:none;stroke-dashoffset:0;stroke-opacity:1"
         d="m 119.82228,981.13526 -0.0408,-3.5389 c -0.017,-1.4718 2.90483,-1.3535 3.18644,0.3729 l 0.40194,2.464 c 0.34759,2.1308 -3.52286,2.8496 -3.54761,0.702 z"
         sodipodi:nodetypes="sssss" />
      <path
         id="rect1-9-69-4-8-4-7-7-73-7-5-9"
         style="stroke:#ffffff;stroke-width:0.359059;stroke-linejoin:round;stroke-dasharray:none;stroke-dashoffset:0;stroke-opacity:1"
         d="m 125.40174,1002.6786 -2.54141,0.6648 c -0.88295,0.231 -2.28297,1.4044 -1.96943,2.1827 l 4.77553,11.855 c 0.31352,0.7784 1.07539,1.2925 1.96153,1.074 l 1.56809,-0.3866 c 0.88613,-0.2185 1.43475,-1.0484 1.23752,-1.8627 l -3.01579,-12.4502 c -0.19755,-0.8142 -1.13308,-1.308 -2.01603,-1.077 z"
         sodipodi:nodetypes="ssssssssss" />
      <path
         id="rect1-9-1-95-4-0-1-8-0-2-1-4-6"
         style="stroke:#ffffff;stroke-width:0.387927;stroke-linejoin:round;stroke-dasharray:none;stroke-dashoffset:0;stroke-opacity:1"
         d="m 129.02259,1017.6946 h -1.61153 c -0.91068,0 -1.68037,0.7898 -1.64383,1.7691 l 0.51391,13.7751 c 0.0365,0.9793 0.73315,1.7691 1.64384,1.7691 h 0.61225 c 0.91069,0 0.87342,-0.7931 0.95651,-1.7691 l 1.1727,-13.7751 c 0.0831,-0.976 -0.73316,-1.7691 -1.64385,-1.7691 z"
         sodipodi:nodetypes="sssssssss" />
      <path
         id="rect1-0-0-2-5-8-0-4-2-7-8"
         style="stroke:none;stroke-width:0.314577;stroke-linejoin:round;stroke-dasharray:none;stroke-dashoffset:0;stroke-opacity:1"
         d="m 119.19802,980.75036 c 3.00028,-1.0108 4.94787,0.4451 6.95399,1.0834 0.62816,0.1999 2.9867,1.3533 2.94241,2.2628 -0.30075,6.1747 -3.45323,11.6066 -2.11401,17.37624 0.37838,1.6301 0.24111,3.0748 0.295,4.5613 0.033,0.9105 -0.56462,1.9068 -1.16213,1.6456 l -5.42582,-2.3722 c -0.59756,-0.2612 -2.68608,1.6374 -2.65626,0.7266 0.0565,-1.7288 -0.0164,-3.3216 0.31164,-5.4099 0.88653,-5.64364 0.2016,-11.62944 -0.31164,-17.55294 -0.0784,-0.9048 0.53621,-2.1084 1.16682,-2.3209 z"
         sodipodi:nodetypes="sssssssssss" />
      <g
         id="g6-1-1-4-6-9-1-6-2-7-4-4-7-5"
         transform="matrix(0.31046595,0,0,0.31046595,116.25696,926.14966)"
         style="stroke-width:0.756927;stroke-dasharray:none">
        <rect
           style="opacity:1;fill:#000000;stroke:#ffffff;stroke-width:0.756927;stroke-linejoin:round;stroke-dasharray:none"
           id="rect5-8-3-8-1-8-2-2-7-3-8-3-7-8"
           width="10.664055"
           height="10.785408"
           x="81.009392"
           y="159.09109" />
        <path
           id="rect5-9-6-4-2-3-0-7-7-8-0-4-5-9-2"
           style="fill:#000000;stroke:#ffffff;stroke-width:0.952065;stroke-linejoin:round;stroke-dasharray:none"
           transform="matrix(0.63208417,-0.77489973,0,1,0,0)"
           d="m 145.0336,271.4776 5.6318,-0.31314 1e-5,10.65467 -5.63181,0.44388 z"
           sodipodi:nodetypes="ccccc" />
        <rect
           style="fill:#000000;stroke:#ffffff;stroke-width:0.845887;stroke-linejoin:round;stroke-dasharray:none"
           id="rect5-9-1-3-5-4-3-5-1-4-5-6-2-5-4-2"
           width="5.8412356"
           height="10.785408"
           x="-198.68402"
           y="-210.75246"
           transform="matrix(0.59903324,-0.80072416,-1,0,0,0)" />
      </g>
      <path
         id="rect1-7-8-5-1-8-7-5-7-9-2-9-8-5-3-1-9-0"
         style="stroke:#ffffff;stroke-width:0.374331;stroke-linejoin:round;stroke-dasharray:none;stroke-dashoffset:0;stroke-opacity:1"
         d="m 143.30309,983.17126 c -0.59691,-0.5244 -0.87237,-1.7508 -0.12277,-2.0327 0.92614,-0.3482 1.51715,-1.1289 2.36158,-0.5144 0.66979,0.4874 0.91566,1.6071 0.40152,2.1102 -0.57239,0.5602 -2.04354,0.9614 -2.64033,0.4369 z"
         sodipodi:nodetypes="sssss"
         inkscape:transform-center-x="-16.914124"
         inkscape:transform-center-y="-5.1469575" />
      <path
         id="rect1-7-8-5-5-6-7-7-5-4-9-4-6-1-3-3-2-1-5"
         style="stroke:#ffffff;stroke-width:0.374331;stroke-linejoin:round;stroke-dasharray:none;stroke-dashoffset:0;stroke-opacity:1"
         d="m 143.24225,981.54186 c -0.20872,-0.1083 -0.29916,-0.3454 -0.15683,-0.6193 l 0.80861,-1.5594 c 0.14643,-0.2811 0.43152,-0.4219 0.64053,-0.3134 0.20858,0.1084 0.25878,0.4227 0.11286,0.7041 l -0.8087,1.5594 c -0.11369,0.2199 -0.38783,0.3367 -0.59653,0.2285 z"
         sodipodi:nodetypes="sssssss"
         inkscape:transform-center-x="-16.315294"
         inkscape:transform-center-y="-6.7546537" />
      <path
         id="rect1-7-8-5-1-5-4-364-1-3-9-8-1-8-3-7-2-2-2"
         style="stroke:#ffffff;stroke-width:0.374331;stroke-linejoin:round;stroke-dasharray:none;stroke-dashoffset:0;stroke-opacity:1"
         d="m 144.66639,982.27556 c -0.48684,-0.6279 -0.36911,-1.5284 0.26378,-2.0192 l 0.7451,-0.5777 c 0.63299,-0.4908 1.53444,-0.3804 2.02131,0.2476 0.48677,0.6278 0.16015,1.196 -0.37164,1.795 -0.80801,0.9095 -1.50133,1.857 -2.65858,0.5543 z"
         sodipodi:nodetypes="ssssss"
         inkscape:transform-center-x="-18.592212"
         inkscape:transform-center-y="-5.9091562" />
      <path
         id="rect10-1-1-3-8-0-0-6-1-2"
         style="fill:#cccccc;stroke-width:0.22124;stroke-linejoin:round"
         d="m 144.47641,964.40266 -7.47034,3.2525 -1.58802,-0.2403 -2.48305,2.1828 9.76271,-1.0811 -2.4381,-0.3689 7.51376,-3.3001 z" />
    </g>
  </g>
</svg>
