<?xml version="1.0" encoding="UTF-8" standalone="no"?>
<!-- Created with Inkscape (http://www.inkscape.org/) -->

<svg
   width="45.380627mm"
   height="39.084564mm"
   viewBox="0 0 45.380627 39.084564"
   version="1.1"
   id="svg1"
   xmlns:inkscape="http://www.inkscape.org/namespaces/inkscape"
   xmlns:sodipodi="http://sodipodi.sourceforge.net/DTD/sodipodi-0.dtd"
   xmlns="http://www.w3.org/2000/svg"
   xmlns:svg="http://www.w3.org/2000/svg">
  <sodipodi:namedview
     id="namedview1"
     pagecolor="#ffffff"
     bordercolor="#000000"
     borderopacity="0.25"
     inkscape:showpageshadow="2"
     inkscape:pageopacity="0.0"
     inkscape:pagecheckerboard="0"
     inkscape:deskcolor="#d1d1d1"
     inkscape:document-units="mm" />
  <defs
     id="defs1" />
  <g
     inkscape:label="Layer 1"
     inkscape:groupmode="layer"
     id="layer1"
     transform="translate(1016.1783,-1866.6026)">
    <g
       id="g62"
       transform="translate(-988.91406,2402.8983)">
      <path
         id="rect2-6-6-8-6-38"
         style="fill:#666666;stroke:#ffffff;stroke-width:0.314324;stroke-linejoin:round;stroke-dasharray:none"
         d="m -20.60481,-511.1185 c 1.3432,-0.54014 3.11176,-0.65493 4.82468,-0.82534 1.88025,-0.18707 3.41071,-1.52118 3.41071,-3.41071 v -8.76091 c 0,-1.88953 -1.52187,-3.46198 -3.41071,-3.4107 -1.79683,0.0488 -3.41684,0.30976 -4.82468,0.82534 -1.77429,0.64979 -3.4107,1.52117 -3.4107,3.4107 v 8.76092 c 0,1.88953 1.6576,4.11567 3.4107,3.4107 z"
         sodipodi:nodetypes="sssssssss" />
      <path
         id="rect2-6-6-8-6-3-6"
         style="fill:#666666;stroke:#ffffff;stroke-width:0.314324;stroke-linejoin:round;stroke-dasharray:none"
         d="m 11.51326,-511.1185 c -1.3432,-0.54014 -3.11176,-0.65493 -4.82468,-0.82534 -1.88025,-0.18707 -3.4107,-1.52118 -3.4107,-3.41071 v -8.76091 c 0,-1.88953 1.52186,-3.46198 3.4107,-3.4107 1.79683,0.0488 3.41685,0.30976 4.82468,0.82534 1.77429,0.64979 3.41071,1.52117 3.41071,3.4107 v 8.76092 c 0,1.88953 -1.65761,4.11567 -3.41071,3.4107 z"
         sodipodi:nodetypes="sssssssss" />
      <path
         id="rect2-6-6-8-6-5-2"
         style="fill:#666666;stroke:#ffffff;stroke-width:0.314324;stroke-linejoin:round;stroke-dasharray:none"
         d="m -6.73365,-512.6911 c 1.3432,-0.28801 3.11176,-0.0708 4.82468,0.0803 1.88025,0.16586 3.4107,-0.88097 3.4107,-2.7705 v -8.76091 c 0,-1.88953 -1.52186,-3.74764 -3.4107,-4.05091 -1.79683,-0.28848 -3.41684,-0.33161 -4.82468,-0.0803 -1.77429,0.31675 -3.41071,0.88096 -3.41071,2.77049 v 8.76092 c 0,1.88953 1.65761,4.42681 3.41071,4.05091 z"
         sodipodi:nodetypes="sssssssss" />
      <path
         id="rect24-0"
         style="fill:#000000;stroke:#ffffff;stroke-width:0.509793;stroke-linejoin:round;stroke-dasharray:none"
         d="m -4.56347,-536.04082 -2.17018,7.7674 -7.40566,-3.77074 3.53509,7.64131 -7.27981,2.74313 7.27981,2.74308 -4.12424,7.13089 7.18975,-4.06536 2.91631,7.86538 2.91628,-7.86538 7.44681,4.24211 -4.00643,-7.68253 7.90656,-2.42716 -7.90656,-2.42716 3.06374,-7.60372 -7.19128,3.47615 z"
         sodipodi:nodetypes="ccccccccccccccccc" />
      <path
         id="rect2-6-6-8-1"
         style="fill:#666666;stroke:#ffffff;stroke-width:0.373325;stroke-linejoin:round;stroke-dasharray:none"
         d="m -18.08901,-516.88669 c 1.59533,0.64153 3.69586,0.77787 5.73031,0.98027 2.23319,0.22218 4.05092,1.80671 4.05092,4.05092 v 10.40541 c 0,2.2442 -1.80753,4.11182 -4.05092,4.05091 -2.13411,-0.0579 -4.05821,-0.3679 -5.73031,-0.98026 -2.10734,-0.77176 -4.05092,-1.80671 -4.05092,-4.05092 v -10.40541 c 0,-2.24421 1.96875,-4.88822 4.05092,-4.05092 z"
         sodipodi:nodetypes="sssssssss" />
      <path
         id="rect2-6-6-8-3-6"
         style="fill:#666666;stroke:#ffffff;stroke-width:0.373325;stroke-linejoin:round;stroke-dasharray:none"
         d="m 8.46733,-516.88669 c -1.59533,0.64153 -3.69586,0.77787 -5.73031,0.98027 -2.23319,0.22218 -4.05092,1.80671 -4.05092,4.05092 v 10.40541 c 0,2.2442 1.80753,4.11182 4.05092,4.05091 2.13411,-0.0579 4.05821,-0.3679 5.73031,-0.98026 2.10734,-0.77176 4.05092,-1.80671 4.05092,-4.05092 v -10.40541 c 0,-2.24421 -1.96875,-4.88822 -4.05092,-4.05092 z"
         sodipodi:nodetypes="sssssssss" />
      <path
         id="rect2-6-6-8-3-7-3"
         style="fill:#666666;stroke:#ffffff;stroke-width:0.214133;stroke-linejoin:round;stroke-dasharray:none"
         d="m 16.54167,-521.92538 c -0.57799,0.58258 -1.339,0.70639 -2.07607,0.89019 -0.80907,0.20176 -1.46763,1.64067 -1.46763,3.67864 v 9.44914 c 0,2.03796 0.65486,3.73394 1.46763,3.67863 0.77318,-0.0525 1.47027,-0.33409 2.07607,-0.89017 0.76347,-0.70084 1.46762,-1.64068 1.46762,-3.67864 v -9.44915 c 0,-2.03796 -0.71327,-4.43899 -1.46762,-3.67864 z"
         sodipodi:nodetypes="sssssssss" />
      <path
         id="rect2-6-6-8-3-7-6-9"
         style="fill:#666666;stroke:#ffffff;stroke-width:0.214133;stroke-linejoin:round;stroke-dasharray:none"
         d="m -25.68958,-521.92538 c 0.57798,0.58258 1.33899,0.70639 2.07606,0.89019 0.80907,0.20176 1.46763,1.64067 1.46763,3.67864 v 9.44914 c 0,2.03796 -0.65486,3.73394 -1.46763,3.67863 -0.77318,-0.0525 -1.47027,-0.33409 -2.07606,-0.89017 -0.76348,-0.70084 -1.46763,-1.64068 -1.46763,-3.67864 v -9.44915 c 0,-2.03796 0.71327,-4.43899 1.46763,-3.67864 z"
         sodipodi:nodetypes="sssssssss" />
    </g>
  </g>
</svg>
