<?xml version="1.0" encoding="UTF-8" standalone="no"?>
<!-- Created with Inkscape (http://www.inkscape.org/) -->

<svg
   width="59.573109mm"
   height="65.002754mm"
   viewBox="0 0 59.573109 65.002754"
   version="1.1"
   id="svg1"
   xmlns:inkscape="http://www.inkscape.org/namespaces/inkscape"
   xmlns:sodipodi="http://sodipodi.sourceforge.net/DTD/sodipodi-0.dtd"
   xmlns="http://www.w3.org/2000/svg"
   xmlns:svg="http://www.w3.org/2000/svg">
  <sodipodi:namedview
     id="namedview1"
     pagecolor="#ffffff"
     bordercolor="#000000"
     borderopacity="0.25"
     inkscape:showpageshadow="2"
     inkscape:pageopacity="0.0"
     inkscape:pagecheckerboard="0"
     inkscape:deskcolor="#d1d1d1"
     inkscape:document-units="mm" />
  <defs
     id="defs1" />
  <g
     inkscape:label="Layer 1"
     inkscape:groupmode="layer"
     id="layer1"
     transform="translate(1023.2745,-1964.1855)">
    <g
       id="g54"
       transform="translate(-1459.8415,1835.024)">
      <path
         style="fill:#000000;stroke:#000000;stroke-width:1.00392;stroke-linejoin:round;stroke-dasharray:none"
         d="m 437.3412,140.74331 10.61398,-2.99367 -0.27218,6.80382 5.71524,-0.13592 -0.27215,-6.93991 10.75004,0.27217 0.13592,6.66774 5.44309,-0.13592 v -6.12346 c 0,0 9.79751,1.63291 10.61396,2.3133 0.81647,0.68039 0.27215,9.66145 0.27215,9.66145 l -4.08229,5.30699 c -11.69277,-3.08929 -23.23333,-3.43852 -34.56344,0 l -4.62661,-4.62661 z"
         id="path32-5"
         sodipodi:nodetypes="cccccccccsccccc" />
      <path
         style="fill:#000000;stroke:#000000;stroke-width:1.00392;stroke-linejoin:round;stroke-dasharray:none"
         d="m 441.96781,158.56936 c 12.67772,-3.59819 23.6546,-3.45311 33.06661,0.13592 v 25.17417 c -13.10823,7.67125 -20.59577,4.93396 -32.93054,-0.27215 z"
         id="path33-7"
         sodipodi:nodetypes="ccccc" />
      <path
         style="fill:#ffffff;stroke:#000000;stroke-width:1.00392;stroke-linejoin:round;stroke-dasharray:none"
         d="m 455.77957,162.44752 c 1.91188,-4.27842 5.47398,-1.1743 5.57915,0 l -0.0682,15.37667 -5.57914,0.068 z"
         id="path34-5"
         sodipodi:nodetypes="ccccc" />
      <path
         id="rect1-7-3-7-0-6-4-0-6-2-7"
         style="stroke:#ffffff;stroke-width:0.374331;stroke-linejoin:round;stroke-dasharray:none;stroke-dashoffset:0;stroke-opacity:1"
         d="m 474.32803,139.29449 c 0.8248,0.37079 1.55537,1.91938 1.01015,2.65001 l -6.16583,8.26265 c -0.54521,0.73062 -1.52098,1.09812 -2.34578,0.72732 -0.8248,-0.37079 -1.27825,-1.3697 -0.79378,-2.14194 l 5.50106,-8.76871 c 0.48446,-0.77224 1.96939,-1.10012 2.79418,-0.72933 z"
         sodipodi:nodetypes="sssssss"
         inkscape:transform-center-x="2.8406965"
         inkscape:transform-center-y="4.6739597" />
      <path
         id="rect1-7-8-30-8-6-5-6-6-8-9-8"
         style="stroke:#ffffff;stroke-width:0.313714;stroke-linejoin:round;stroke-dasharray:none;stroke-dashoffset:0;stroke-opacity:1"
         d="m 467.64569,148.47662 c 0.89619,0.21266 1.55591,0.89056 1.35569,1.48792 l -1.86853,5.57469 c -0.20019,0.59738 -0.46598,0.82168 -1.36218,0.60901 -0.8962,-0.21266 -1.06789,-0.6018 -0.96394,-1.22255 l 0.95928,-5.72889 c 0.10396,-0.62074 0.98347,-0.93284 1.87968,-0.72018 z"
         sodipodi:nodetypes="sssssss"
         inkscape:transform-center-x="-0.82554458"
         inkscape:transform-center-y="3.6773691" />
      <path
         id="rect1-7-8-5-1-8-52-7-5-6-7-9-8-9-4"
         style="stroke:#ffffff;stroke-width:0.374331;stroke-linejoin:round;stroke-dasharray:none;stroke-dashoffset:0;stroke-opacity:1"
         d="m 465.53274,155.1406 c 0.7945,0 1.81108,0.73905 1.43412,1.44572 -0.46568,0.87298 -0.3942,1.84957 -1.43412,1.94548 -0.82494,0.0761 -1.74881,-0.60267 -1.69476,-1.31996 0.0602,-0.79867 0.90026,-2.07124 1.69476,-2.07124 z"
         sodipodi:nodetypes="sssss" />
      <path
         id="rect1-7-8-5-5-6-7-3-8-5-1-2-6-9-7-1"
         style="stroke:#ffffff;stroke-width:0.374331;stroke-linejoin:round;stroke-dasharray:none;stroke-dashoffset:0;stroke-opacity:1"
         d="m 466.43833,155.60975 c 0.20357,-0.11753 0.45206,-0.0656 0.60621,0.20138 l 0.87829,1.52124 c 0.15849,0.27452 0.12265,0.59091 -0.0809,0.70845 -0.20357,0.11753 -0.49549,-0.01 -0.65399,-0.28413 l -0.87829,-1.52125 c -0.12374,-0.21433 -0.0749,-0.50815 0.12872,-0.62569 z"
         sodipodi:nodetypes="sssssss" />
      <path
         id="rect1-7-3-7-0-6-9-0-3-4"
         style="stroke:#ffffff;stroke-width:0.374331;stroke-linejoin:round;stroke-dasharray:none;stroke-dashoffset:0;stroke-opacity:1"
         d="m 482.56364,139.60587 c -0.8248,0.37079 -1.55537,1.91938 -1.01015,2.65001 l 6.16583,8.26264 c 0.54521,0.73063 1.52098,1.09813 2.34578,0.72733 0.8248,-0.37079 1.27825,-1.3697 0.79378,-2.14194 l -5.50106,-8.76871 c -0.48446,-0.77224 -1.96939,-1.10012 -2.79418,-0.72933 z"
         sodipodi:nodetypes="sssssss"
         inkscape:transform-center-x="-2.8406933"
         inkscape:transform-center-y="4.6739597" />
      <path
         id="rect1-9-4-4-31-7-8-7-0-3-7"
         style="stroke:#ffffff;stroke-width:0.387927;stroke-linejoin:round;stroke-dasharray:none;stroke-dashoffset:0;stroke-opacity:1"
         d="m 475.04782,175.85073 h -1.61153 c -0.9107,0 -1.75553,0.79641 -1.64385,1.76906 l 1.59696,13.90724 c 0.11169,0.97267 0.0213,1.63698 0.93196,1.63698 h 0.72646 c 0.91068,0 1.64383,-0.789 1.64383,-1.76907 v -13.77515 c 0,-0.98005 -0.73315,-1.76906 -1.64383,-1.76906 z"
         sodipodi:nodetypes="sssssssss" />
      <path
         id="rect1-9-1-95-4-6-7-9-83-5"
         style="stroke:#ffffff;stroke-width:0.387927;stroke-linejoin:round;stroke-dasharray:none;stroke-dashoffset:0;stroke-opacity:1"
         d="m 483.31185,175.93764 h -1.61153 c -0.91068,0 -1.68037,0.78979 -1.64383,1.76907 l 0.51391,13.77514 c 0.0365,0.97927 0.73315,1.76907 1.64384,1.76907 h 0.61225 c 0.91069,0 0.87342,-0.7931 0.95651,-1.76907 l 1.1727,-13.77514 c 0.0831,-0.97598 -0.73315,-1.76907 -1.64385,-1.76907 z"
         sodipodi:nodetypes="sssssssss" />
      <path
         id="rect1-9-69-4-3-1-1-3-0"
         style="stroke:#ffffff;stroke-width:0.359059;stroke-linejoin:round;stroke-dasharray:none;stroke-dashoffset:0;stroke-opacity:1"
         d="m 483.2418,162.08726 -2.62667,0.0372 c -0.91256,0.0129 -2.55276,0.81702 -2.43465,1.64777 l 1.79886,12.65354 c 0.11809,0.83076 0.73474,1.51227 1.64742,1.51227 h 1.61504 c 0.91268,0 1.64402,-0.67447 1.64742,-1.51227 l 0.0522,-12.81021 c 0.003,-0.83779 -0.78704,-1.54114 -1.69961,-1.52824 z"
         sodipodi:nodetypes="ssssssssss" />
      <path
         id="rect1-9-4-41-7-7-5-9-82-3"
         style="stroke:#ffffff;stroke-width:0.359059;stroke-linejoin:round;stroke-dasharray:none;stroke-dashoffset:0;stroke-opacity:1"
         d="m 476.07312,161.93868 -2.74806,0.0743 c -0.91229,0.0247 -1.70305,0.72239 -1.69963,1.56018 l 0.0522,12.77828 c 0.003,0.83779 0.73475,1.51227 1.64743,1.51227 h 1.61504 c 0.91267,0 1.51502,-0.68334 1.64743,-1.51227 l 2.06786,-12.94564 c 0.1324,-0.82894 -1.66998,-1.49177 -2.58227,-1.46711 z"
         sodipodi:nodetypes="sssssssss" />
      <path
         id="rect1-0-0-6-1-0-2-0"
         style="stroke:#ffffff;stroke-width:0.374331;stroke-linejoin:round;stroke-dasharray:none;stroke-dashoffset:0;stroke-opacity:1"
         d="m 483.19407,139.00629 c -4.48102,-1.82227 -6.95788,-0.63832 -9.7985,0 -0.88945,0.19987 -1.70826,0.73607 -1.64554,1.64554 0.42584,6.17474 2.31401,12.63186 0.41771,18.4014 -0.53577,1.63011 -0.34141,3.07486 -0.41771,4.56138 -0.0467,0.91042 0.73391,1.64553 1.64554,1.64553 h 9.7985 c 0.91163,0 1.66848,-0.7342 1.64554,-1.64553 -0.0443,-1.76206 0.17824,-3.46578 -0.44127,-5.4099 -1.76085,-5.52563 -0.28547,-11.62946 0.44127,-17.55288 0.111,-0.90484 -0.80107,-1.30213 -1.64554,-1.64554 z"
         sodipodi:nodetypes="sssssssssss" />
      <path
         id="rect1-7-8-5-1-5-4-34-31-3-1-9-3-8-7"
         style="stroke:#ffffff;stroke-width:0.485783;stroke-linejoin:round;stroke-dasharray:none;stroke-dashoffset:0;stroke-opacity:1"
         d="m 481.57521,191.0847 c 0.70994,-0.70086 2.11345,-0.87119 3.14686,-0.38187 l 1.21652,0.57599 c 1.03343,0.48931 1.29383,1.44747 0.58389,2.14834 -0.70993,0.70088 -1.71459,0.55 -2.86223,0.19915 -1.7432,-0.53283 -3.48838,-0.93686 -2.08504,-2.54161 z"
         sodipodi:nodetypes="ssssss" />
      <path
         id="rect1-7-8-5-1-5-4-34-0-1-3-5-4-5-0-1"
         style="stroke:#ffffff;stroke-width:0.485783;stroke-linejoin:round;stroke-dasharray:none;stroke-dashoffset:0;stroke-opacity:1"
         d="m 475.71847,191.0847 c -0.70994,-0.70086 -2.11345,-0.87119 -3.14686,-0.38187 l -1.21653,0.57599 c -1.03342,0.48931 -1.29382,1.44747 -0.58389,2.14834 0.70994,0.70088 1.7146,0.55 2.86224,0.19915 1.7432,-0.53283 3.48838,-0.93686 2.08504,-2.54161 z"
         sodipodi:nodetypes="ssssss" />
      <path
         id="rect1-7-5-6-7-2-3-7-0-2"
         style="stroke:#ffffff;stroke-width:0.374331;stroke-linejoin:round;stroke-dasharray:none;stroke-dashoffset:0;stroke-opacity:1"
         d="m 476.30206,137.94944 0.45533,-2.679 c 0.24664,-1.45118 2.90483,-1.35352 3.18644,0.37283 l 0.40194,2.46403 c 0.34759,2.13083 -4.40356,1.95946 -4.04371,-0.15786 z"
         sodipodi:nodetypes="sssss" />
      <path
         id="path1-73-1-3-2-2-91-5"
         style="stroke:#ffffff;stroke-width:0.306754;stroke-linejoin:round;stroke-dasharray:none;stroke-dashoffset:0;stroke-opacity:1"
         d="m 474.76877,132.75699 c 0,2.21459 1.3781,4.57763 3.60666,4.57763 2.22857,0 3.54953,-2.36304 3.54953,-4.57763 0,-2.2146 -1.32096,-3.44213 -3.54953,-3.44213 -2.22856,0 -3.60666,1.22753 -3.60666,3.44213 z"
         sodipodi:nodetypes="sssss" />
      <g
         id="g4-1-6-1-7-31-7"
         transform="matrix(-0.77104791,0,0,0.77104791,614.03603,27.337704)">
        <path
           id="rect1-7-8-30-8-6-5-0-7-40-9"
           style="opacity:1;stroke:#ffffff;stroke-width:0.406867;stroke-linejoin:round;stroke-dasharray:none;stroke-dashoffset:0;stroke-opacity:1"
           d="m 161.84474,157.5133 c 1.1623,0.27581 2.01792,1.155 1.75824,1.92974 l -2.42336,7.23003 c -0.25963,0.77476 -0.60435,1.06566 -1.76666,0.78985 -1.16231,-0.27581 -1.38498,-0.7805 -1.25017,-1.58558 l 1.24413,-7.43001 c 0.13483,-0.80507 1.2755,-1.20984 2.43782,-0.93403 z"
           sodipodi:nodetypes="sssssss"
           inkscape:transform-center-x="0.82554781"
           inkscape:transform-center-y="3.6773691" />
        <path
           id="rect1-7-8-5-1-8-52-7-5-6-76-9-7-7"
           style="opacity:1;stroke:#ffffff;stroke-width:0.485483;stroke-linejoin:round;stroke-dasharray:none;stroke-dashoffset:0;stroke-opacity:1"
           d="m 159.10438,166.15607 c 1.03042,0 2.34886,0.9585 1.85996,1.875 -0.60396,1.1322 -0.51125,2.39878 -1.85996,2.52317 -1.0699,0.0987 -2.2681,-0.78162 -2.19799,-1.71191 0.0781,-1.03582 1.16757,-2.68626 2.19799,-2.68626 z"
           sodipodi:nodetypes="sssss" />
        <path
           id="rect1-7-8-5-1-5-4-8-8-8-0-7-6-6-7"
           style="opacity:1;stroke:#ffffff;stroke-width:0.485483;stroke-linejoin:round;stroke-dasharray:none;stroke-dashoffset:0;stroke-opacity:1"
           d="m 158.3575,167.8594 c 0.9953,-0.26669 2.01303,0.32637 2.28187,1.32972 l 0.31649,1.18113 c 0.26885,1.00337 -0.316,2.02582 -1.31131,2.29252 -0.9953,0.26669 -1.51056,-0.40932 -1.95964,-1.34608 -0.68218,-1.4228 -1.46628,-2.72794 0.67259,-3.45729 z"
           sodipodi:nodetypes="ssssss" />
        <path
           id="rect1-7-8-5-5-6-7-3-8-5-1-9-9-53-1"
           style="opacity:1;stroke:#ffffff;stroke-width:0.485483;stroke-linejoin:round;stroke-dasharray:none;stroke-dashoffset:0;stroke-opacity:1"
           d="m 160.27887,166.76453 c 0.26402,-0.15243 0.5863,-0.0851 0.78622,0.26118 l 1.13909,1.97295 c 0.20555,0.35603 0.15906,0.76637 -0.10497,0.91881 -0.26402,0.15243 -0.64263,-0.0125 -0.84819,-0.3685 l -1.13908,-1.97296 c -0.16049,-0.27797 -0.0971,-0.65904 0.16693,-0.81148 z"
           sodipodi:nodetypes="sssssss" />
      </g>
      <g
         id="g3-6-3-3"
         transform="matrix(-0.25825854,-0.50184385,-0.50184385,0.25825854,520.62542,151.61811)"
         style="fill:#4d4d4d;stroke-width:0.661458;stroke-dasharray:none"
         inkscape:transform-center-x="-11.871109"
         inkscape:transform-center-y="-5.1396018">
        <path
           style="fill:#4d4d4d;fill-opacity:1;stroke:#ffffff;stroke-width:0.661458;stroke-linejoin:round;stroke-dasharray:none;stroke-dashoffset:0;stroke-opacity:1"
           d="M 33.86842,40.815787 31.610527,51.58421 31.436841,94.136841 h 3.821052 l 0.303948,-42.682896 z"
           id="path2-6-54-9"
           sodipodi:nodetypes="cccccc" />
        <rect
           style="fill:#4d4d4d;fill-opacity:1;stroke:#ffffff;stroke-width:0.661458;stroke-linejoin:round;stroke-dasharray:none;stroke-dashoffset:0;stroke-opacity:1"
           id="rect3-9-9-8"
           width="11.541431"
           height="3.7543805"
           x="27.576651"
           y="85.616226" />
      </g>
      <path
         id="rect2-6-6-2-2"
         style="fill:#4d4d4d;stroke:#ffffff;stroke-width:0.373325;stroke-linejoin:round;stroke-dasharray:none"
         d="m 491.90247,147.49988 c -1.59533,0.64153 -3.69586,0.77787 -5.73031,0.98027 -2.23319,0.22218 -4.05092,1.8067 -4.05092,4.05091 v 10.40541 c 0,2.2442 1.80753,4.11182 4.05092,4.05091 2.13411,-0.0579 4.05821,-0.3679 5.73031,-0.98026 2.10734,-0.77176 4.05092,-1.80671 4.05092,-4.05092 v -10.40541 c 0,-2.2442 -1.96875,-4.88821 -4.05092,-4.05091 z"
         sodipodi:nodetypes="sssssssss" />
      <path
         id="rect1-7-8-5-1-5-4-8-8-8-0-0-3-9-0-8"
         style="stroke:#ffffff;stroke-width:0.374331;stroke-linejoin:round;stroke-dasharray:none;stroke-dashoffset:0;stroke-opacity:1"
         d="m 464.95686,156.45395 c 0.76742,-0.20563 1.55214,0.25165 1.75943,1.02528 l 0.24403,0.91071 c 0.2073,0.77364 -0.24365,1.562 -1.01108,1.76764 -0.76743,0.20563 -1.16472,-0.31561 -1.51098,-1.03789 -0.52599,-1.09705 -1.13057,-2.10338 0.5186,-2.66574 z"
         sodipodi:nodetypes="ssssss" />
    </g>
  </g>
</svg>
