<?xml version="1.0" encoding="UTF-8" standalone="no"?>
<!-- Created with Inkscape (http://www.inkscape.org/) -->

<svg
   width="36.720303mm"
   height="71.562042mm"
   viewBox="0 0 36.720303 71.562042"
   version="1.1"
   id="svg1"
   xmlns:inkscape="http://www.inkscape.org/namespaces/inkscape"
   xmlns:sodipodi="http://sodipodi.sourceforge.net/DTD/sodipodi-0.dtd"
   xmlns="http://www.w3.org/2000/svg"
   xmlns:svg="http://www.w3.org/2000/svg">
  <sodipodi:namedview
     id="namedview1"
     pagecolor="#ffffff"
     bordercolor="#000000"
     borderopacity="0.25"
     inkscape:showpageshadow="2"
     inkscape:pageopacity="0.0"
     inkscape:pagecheckerboard="0"
     inkscape:deskcolor="#d1d1d1"
     inkscape:document-units="mm" />
  <defs
     id="defs1" />
  <g
     inkscape:label="Layer 1"
     inkscape:groupmode="layer"
     id="layer1"
     transform="translate(1011.8482,-2069.947)">
    <g
       id="g26"
       transform="translate(-1161.3703,1750.9328)">
      <path
         style="opacity:1;fill:#999999;stroke:none;stroke-width:1.1;stroke-linejoin:round;stroke-dasharray:none"
         d="m 152.97834,330.26969 c 13.56069,-8.22731 19.89306,-8.33462 30.22865,-0.39688 l 1.78594,-2.38125 c -3.30373,-4.57458 -8.21721,-7.71827 -16.27188,-8.06979 -9.37226,0.84651 -13.74358,5.48684 -18.12396,10.12031 z"
         id="path12"
         sodipodi:nodetypes="cccccc" />
      <g
         id="g6-1-1-4-7-3-2-4-9"
         transform="matrix(0.27830156,0,0,0.27830156,144.84814,276.34721)"
         style="stroke-width:1.38527;stroke-dasharray:none">
        <rect
           style="opacity:1;fill:#000000;stroke:#ffffff;stroke-width:1.38527;stroke-linejoin:round;stroke-dasharray:none"
           id="rect5-8-3-8-7-4-6-0-1"
           width="10.664055"
           height="10.785408"
           x="81.009392"
           y="159.09109" />
        <path
           id="rect5-9-6-4-2-4-5-2-3-9"
           style="fill:#000000;stroke:#ffffff;stroke-width:1.7424;stroke-linejoin:round;stroke-dasharray:none"
           transform="matrix(0.63208417,-0.77489973,0,1,0,0)"
           d="m 145.0336,271.4776 5.6318,-0.31314 1e-5,10.65467 -5.63181,0.44388 z"
           sodipodi:nodetypes="ccccc" />
        <rect
           style="fill:#000000;stroke:#ffffff;stroke-width:1.54808;stroke-linejoin:round;stroke-dasharray:none"
           id="rect5-9-1-3-5-4-6-0-8-7-0"
           width="5.8412356"
           height="10.785408"
           x="-198.68402"
           y="-210.75246"
           transform="matrix(0.59903324,-0.80072416,-1,0,0,0)" />
      </g>
      <path
         id="rect1-7-3-7-0-9-1-4"
         style="stroke:#ffffff;stroke-width:0.199939;stroke-linejoin:round;stroke-dasharray:none;stroke-dashoffset:0;stroke-opacity:1"
         d="m 174.11397,336.09677 c -0.71698,0.129 -0.99892,2.35282 -0.52114,2.63347 l 5.20246,3.05606 c 0.47775,0.28065 1.43742,0.31835 2.1544,0.18936 0.71697,-0.129 1.41821,-2.66306 0.9677,-2.90939 l -5.61864,-3.07205 c -0.45051,-0.24631 -1.46781,-0.0264 -2.18478,0.10255 z"
         sodipodi:nodetypes="sssssss"
         inkscape:transform-center-x="-2.663525"
         inkscape:transform-center-y="1.4734571" />
      <path
         id="rect1-7-3-7-0-9-4"
         style="stroke:#ffffff;stroke-width:0.199939;stroke-linejoin:round;stroke-dasharray:none;stroke-dashoffset:0;stroke-opacity:1"
         d="m 165.87769,335.835 c 0.71697,0.12899 1.0169,2.38596 0.52114,2.63346 l -5.55947,2.77555 c -0.49575,0.2475 -1.23342,0.0123 -1.9504,-0.11665 -0.71698,-0.129 -1.27011,-2.08575 -0.81469,-2.32287 l 5.31263,-2.76603 c 0.45542,-0.23712 1.77381,-0.33247 2.49079,-0.20346 z"
         sodipodi:nodetypes="sssssss"
         inkscape:transform-center-x="2.6635275"
         inkscape:transform-center-y="1.4734479" />
      <path
         id="rect1-9-4-4-31-7-6-9"
         style="stroke:#ffffff;stroke-width:0.387927;stroke-linejoin:round;stroke-dasharray:none;stroke-dashoffset:0;stroke-opacity:1"
         d="m 173.13477,372.26259 h 1.61153 c 0.91069,0 1.75553,0.7964 1.64384,1.76906 l -1.59696,13.90723 c -0.11169,0.97267 -0.0213,1.63699 -0.93196,1.63699 h -0.72645 c -0.91069,0 -1.64384,-0.78901 -1.64384,-1.76907 v -13.77515 c 0,-0.98006 0.73315,-1.76906 1.64384,-1.76906 z"
         sodipodi:nodetypes="sssssssss" />
      <path
         id="rect1-9-1-95-4-9-9"
         style="stroke:#ffffff;stroke-width:0.387927;stroke-linejoin:round;stroke-dasharray:none;stroke-dashoffset:0;stroke-opacity:1"
         d="m 164.87073,372.3495 h 1.61153 c 0.91068,0 1.68038,0.78978 1.64384,1.76906 l -0.51392,13.77514 c -0.0365,0.97928 -0.73315,1.76907 -1.64384,1.76907 h -0.61224 c -0.91069,0 -0.87343,-0.79309 -0.95652,-1.76907 l -1.17269,-13.77514 c -0.0831,-0.97598 0.73315,-1.76906 1.64384,-1.76906 z"
         sodipodi:nodetypes="sssssssss" />
      <path
         id="rect1-9-69-4-89-8"
         style="stroke:#ffffff;stroke-width:0.359059;stroke-linejoin:round;stroke-dasharray:none;stroke-dashoffset:0;stroke-opacity:1"
         d="m 164.94078,358.49912 2.62668,0.0372 c 0.91255,0.0129 2.55276,0.81702 2.43465,1.64778 l -1.79886,12.65353 c -0.1181,0.83076 -0.73475,1.51228 -1.64742,1.51228 h -1.61505 c -0.91267,0 -1.64401,-0.67448 -1.64742,-1.51228 l -0.0522,-12.81021 c -0.003,-0.83779 0.78705,-1.54114 1.69961,-1.52824 z"
         sodipodi:nodetypes="ssssssssss" />
      <path
         id="rect1-9-4-41-7-8-3"
         style="stroke:#ffffff;stroke-width:0.359059;stroke-linejoin:round;stroke-dasharray:none;stroke-dashoffset:0;stroke-opacity:1"
         d="m 172.10947,358.35054 2.74806,0.0743 c 0.91229,0.0247 1.70304,0.72238 1.69962,1.56017 l -0.0522,12.77828 c -0.003,0.83779 -0.73475,1.51227 -1.64743,1.51227 h -1.61504 c -0.91267,0 -1.51502,-0.68333 -1.64742,-1.51227 l -2.06786,-12.94564 c -0.13241,-0.82894 1.66997,-1.49177 2.58226,-1.4671 z"
         sodipodi:nodetypes="sssssssss" />
      <path
         id="rect1-0-0-1-9"
         style="stroke:none;stroke-width:0.374331;stroke-linejoin:round;stroke-dasharray:none;stroke-dashoffset:0;stroke-opacity:1"
         d="m 164.98852,335.41812 c 4.48101,-1.82226 6.95787,-0.63831 9.7985,0 0.88945,0.19987 1.70825,0.73607 1.64554,1.64554 -0.42585,6.17474 -2.31402,12.63188 -0.41772,18.40141 0.53578,1.63012 0.34141,3.07488 0.41772,4.56139 0.0467,0.91043 -0.73392,1.64554 -1.64554,1.64554 h -9.7985 c -0.91164,0 -1.66848,-0.7342 -1.64554,-1.64554 0.0443,-1.76206 -0.17825,-3.46578 0.44127,-5.4099 1.76084,-5.52564 0.28546,-11.62948 -0.44127,-17.5529 -0.11101,-0.90484 0.80106,-1.30212 1.64554,-1.64554 z"
         sodipodi:nodetypes="sssssssssss" />
      <path
         id="rect1-7-8-5-1-5-4-34-31-3-3-2"
         style="stroke:#ffffff;stroke-width:0.485783;stroke-linejoin:round;stroke-dasharray:none;stroke-dashoffset:0;stroke-opacity:1"
         d="m 166.60738,387.49655 c -0.70994,-0.70086 -2.11346,-0.87118 -3.14686,-0.38187 l -1.21653,0.576 c -1.03342,0.4893 -1.29383,1.44747 -0.58389,2.14834 0.70994,0.70087 1.71459,0.54999 2.86223,0.19914 1.7432,-0.53283 3.48839,-0.93686 2.08505,-2.54161 z"
         sodipodi:nodetypes="ssssss" />
      <path
         id="rect1-7-8-5-1-5-4-34-0-1-3-2-3"
         style="stroke:#ffffff;stroke-width:0.485783;stroke-linejoin:round;stroke-dasharray:none;stroke-dashoffset:0;stroke-opacity:1"
         d="m 172.46411,387.49655 c 0.70994,-0.70086 2.11345,-0.87118 3.14686,-0.38187 l 1.21653,0.576 c 1.03342,0.4893 1.29383,1.44747 0.58389,2.14834 -0.70994,0.70087 -1.7146,0.54999 -2.86223,0.19914 -1.7432,-0.53283 -3.48839,-0.93686 -2.08505,-2.54161 z"
         sodipodi:nodetypes="ssssss" />
      <path
         id="rect1-7-5-6-7-5-7"
         style="stroke:#ffffff;stroke-width:0.374331;stroke-linejoin:round;stroke-dasharray:none;stroke-dashoffset:0;stroke-opacity:1"
         d="m 171.88052,334.36128 -0.45533,-2.67901 c -0.24663,-1.45117 -2.90483,-1.35351 -3.18644,0.37283 l -0.40194,2.46403 c -0.34758,2.13083 4.40357,1.95947 4.04371,-0.15785 z"
         sodipodi:nodetypes="sssss" />
      <path
         id="path1-73-1-7-9"
         style="stroke:#ffffff;stroke-width:0.306754;stroke-linejoin:round;stroke-dasharray:none;stroke-dashoffset:0;stroke-opacity:1"
         d="m 173.41381,329.16882 c 0,2.21459 -1.37809,4.57763 -3.60666,4.57763 -2.22857,0 -3.54953,-2.36304 -3.54953,-4.57763 0,-2.2146 1.32096,-3.44212 3.54953,-3.44212 2.22857,0 3.60666,1.22752 3.60666,3.44212 z"
         sodipodi:nodetypes="sssss" />
      <g
         id="g11"
         inkscape:transform-center-x="4.2433462"
         inkscape:transform-center-y="-4.3259615"
         transform="rotate(-61.56039,337.81063,149.85329)">
        <path
           id="rect1-7-8-5-5-6-7-7-5-4-9-8-9"
           style="stroke:#ffffff;stroke-width:0.374331;stroke-linejoin:round;stroke-dasharray:none;stroke-dashoffset:0;stroke-opacity:1"
           d="m 89.755347,74.743216 c 0.15799,0.17405 0.41047,0.20045 0.63875,-0.007 l 1.30065,-1.18061 c 0.23472,-0.21306 0.29714,-0.52529 0.13915,-0.69935 -0.158,-0.17405 -0.47481,-0.14204 -0.70951,0.071 l -1.30066,1.18063 c -0.18325,0.16634 -0.22639,0.46106 -0.0684,0.63512 z"
           sodipodi:nodetypes="sssssss" />
        <path
           id="rect1-7-8-3-2-6-6-9-8"
           style="stroke:#ffffff;stroke-width:0.317429;stroke-linejoin:round;stroke-dasharray:none;stroke-dashoffset:0;stroke-opacity:1"
           d="m 85.76912,84.489496 c 0.86408,0.31604 1.75114,0.0893 1.95919,-0.52184 l 2.717407,-7.98253 c 0.20806,-0.61118 0.0719,-0.96362 -0.79211,-1.27963 -0.86408,-0.31605 -1.21175,-0.0721 -1.48508,0.51218 l -3.559647,7.6091 c -0.27333,0.58427 0.29616,1.34671 1.16024,1.66272 z"
           sodipodi:nodetypes="sssssss"
           inkscape:transform-center-x="0.97454466"
           inkscape:transform-center-y="2.4815147" />
        <path
           id="rect1-7-8-5-1-8-7-5-7-9-22-3"
           style="stroke:#ffffff;stroke-width:0.374331;stroke-linejoin:round;stroke-dasharray:none;stroke-dashoffset:0;stroke-opacity:1"
           d="m 89.146477,75.382426 c 0.7566,0.24248 1.95023,-0.15106 1.80692,-0.93906 -0.17704,-0.97345 0.18908,-1.88164 -0.77196,-2.29034 -0.76236,-0.32424 -1.8493,0.0402 -2.01674,0.73976 -0.186397,0.77893 0.22518,2.24716 0.98181,2.48964 z"
           sodipodi:nodetypes="sssss" />
        <path
           id="rect1-7-8-5-1-5-4-364-1-3-9-6-9"
           style="stroke:#ffffff;stroke-width:0.374331;stroke-linejoin:round;stroke-dasharray:none;stroke-dashoffset:0;stroke-opacity:1"
           d="m 89.247307,74.084436 c 0.76916,0.19903 1.54992,-0.26495 1.75057,-1.04033 l 0.23622,-0.91277 c 0.20066,-0.77539 -0.25703,-1.55985 -1.0262,-1.7589 -0.76915,-0.19904 -1.16196,0.32557 -1.50201,1.0508 -0.51658,1.10151 -1.112507,2.11298 0.54142,2.6612 z"
           sodipodi:nodetypes="ssssss" />
      </g>
      <path
         id="rect1-7-8-3-2-6-6-9-3-9"
         style="stroke:#ffffff;stroke-width:0.317429;stroke-linejoin:round;stroke-dasharray:none;stroke-dashoffset:0;stroke-opacity:1"
         d="m 180.00557,340.89879 c -0.82223,-0.41287 -1.26483,-1.21438 -0.96222,-1.78463 l 3.95276,-7.44854 c 0.30264,-0.5703 0.65265,-0.71259 1.4748,-0.29975 0.82223,0.41286 0.88274,0.83325 0.64442,1.43265 l -3.10369,7.80621 c -0.23832,0.59939 -1.18387,0.70696 -2.00607,0.29406 z"
         sodipodi:nodetypes="sssssss"
         inkscape:transform-center-x="-0.97454077"
         inkscape:transform-center-y="2.4815135" />
      <g
         id="g12"
         inkscape:transform-center-x="0.31159355"
         inkscape:transform-center-y="-1.9087653"
         transform="rotate(-41.298957,487.44054,106.20195)">
        <path
           id="rect1-7-8-5-5-6-7-7-5-4-9-8-3-6"
           style="stroke:#ffffff;stroke-width:0.374331;stroke-linejoin:round;stroke-dasharray:none;stroke-dashoffset:0;stroke-opacity:1"
           d="m 111.03497,75.329684 c -0.23502,0.0042 -0.42723,-0.161647 -0.43253,-0.470062 l -0.0311,-1.756298 c -0.006,-0.316942 0.17903,-0.576338 0.41407,-0.580504 0.23503,-0.0042 0.42877,0.248525 0.4344,0.56546 l 0.0311,1.756312 c 0.004,0.247448 -0.18074,0.480796 -0.41577,0.48497 z"
           sodipodi:nodetypes="sssssss" />
        <path
           id="rect1-7-8-5-1-8-7-5-7-9-22-6-7"
           style="stroke:#ffffff;stroke-width:0.374331;stroke-linejoin:round;stroke-dasharray:none;stroke-dashoffset:0;stroke-opacity:1"
           d="m 110.98653,76.211147 c -0.695,-0.384983 -1.22616,-1.524073 -0.55397,-1.959575 0.83037,-0.537985 1.24105,-1.426916 2.19721,-1.006894 0.7585,0.333162 1.23774,1.374586 0.8429,1.975856 -0.43967,0.669452 -1.79115,1.375589 -2.48615,0.990585 z"
           sodipodi:nodetypes="sssss" />
        <path
           id="rect1-7-8-5-1-5-4-364-1-3-9-6-0-2"
           style="stroke:#ffffff;stroke-width:0.374331;stroke-linejoin:round;stroke-dasharray:none;stroke-dashoffset:0;stroke-opacity:1"
           d="m 111.86292,75.248389 c -0.67196,-0.423894 -0.86892,-1.3105 -0.4416,-1.987899 l 0.50303,-0.797441 c 0.42732,-0.677414 1.31231,-0.881493 1.98428,-0.457606 0.67197,0.423888 0.55897,1.069453 0.26368,1.814026 -0.44843,1.130972 -0.77689,2.25806 -2.30939,1.42892 z"
           sodipodi:nodetypes="ssssss" />
      </g>
      <path
         style="fill:none;stroke:#000000;stroke-width:0.848153;stroke-linejoin:round;stroke-dasharray:none"
         d="m 170.08911,338.52182 -1.37042,1.33435 1.2442,0.73931 -1.20813,0.97371 1.71302,1.71302"
         id="path9-2"
         sodipodi:nodetypes="ccccc" />
    </g>
  </g>
</svg>
