<?xml version="1.0" encoding="UTF-8" standalone="no"?>
<!-- Created with Inkscape (http://www.inkscape.org/) -->

<svg
   width="55.770885mm"
   height="64.802765mm"
   viewBox="0 0 55.770885 64.802765"
   version="1.1"
   id="svg1"
   xmlns:inkscape="http://www.inkscape.org/namespaces/inkscape"
   xmlns:sodipodi="http://sodipodi.sourceforge.net/DTD/sodipodi-0.dtd"
   xmlns="http://www.w3.org/2000/svg"
   xmlns:svg="http://www.w3.org/2000/svg">
  <sodipodi:namedview
     id="namedview1"
     pagecolor="#ffffff"
     bordercolor="#000000"
     borderopacity="0.25"
     inkscape:showpageshadow="2"
     inkscape:pageopacity="0.0"
     inkscape:pagecheckerboard="0"
     inkscape:deskcolor="#d1d1d1"
     inkscape:document-units="mm" />
  <defs
     id="defs1" />
  <g
     inkscape:label="Layer 1"
     inkscape:groupmode="layer"
     id="layer1"
     transform="translate(1021.3734,-2186.7048)">
    <path
       id="rect1-7-3-7-0-9-1-4-5"
       style="fill:#f9f9f9;stroke:#000000;stroke-width:0.199939;stroke-linejoin:round;stroke-dasharray:none;stroke-dashoffset:0;stroke-opacity:1"
       inkscape:transform-center-x="-2.9271845"
       inkscape:transform-center-y="0.33228839"
       d="m -993.60092,2186.8047 c -2.22857,0 -3.54965,1.2276 -3.54965,3.4422 0,1.5493 0.64734,3.1702 1.79885,4.0049 l -0.21962,1.3451 c -0.004,0.025 -0.007,0.05 -0.009,0.074 -0.85821,0.1429 -1.79236,0.3991 -2.83911,0.8248 -0.1662,0.068 -0.33193,0.1413 -0.49506,0.2165 -0.22527,-0.095 -0.43443,-0.1478 -0.60409,-0.1235 l -8.4491,1.2118 c -0.04,0.01 -0.08,0.029 -0.1173,0.065 l -8.0419,2.0572 c -0.2099,0.054 -0.3827,0.1239 -0.5152,0.2264 -0.4946,-0.4117 -1.25,-0.6873 -1.7684,-0.6625 0,10e-5 0,4e-4 -0.01,5e-4 -0.4397,-0.049 -0.9804,0.1147 -1.5379,0.2579 -0.7758,0.1992 -1.3645,0.4878 -1.312,1.2805 0.053,0.7928 0.7382,1.3883 1.5373,1.3353 l 0.9385,-0.062 -0.1359,0.1029 c -0.253,0.191 -0.3432,0.496 -0.2016,0.6837 0.1417,0.1872 0.4597,0.1842 0.7127,-0.01 l 0.8299,-0.6264 c 0.06,0.019 0.1202,0.04 0.1803,0.063 0.3475,0.1336 0.6646,-0.033 0.8951,-0.3281 0.1762,0.1352 0.4083,0.1592 0.7141,0.1157 l 8.3489,-1.1849 c 0.015,0 0.029,-0.01 0.044,-0.01 0.4658,0.046 0.952,-0.025 1.2945,-0.063 l 6.34016,-0.7023 c 0.74579,5.2208 1.6886,10.5083 0.14521,15.3515 -0.55797,1.7511 -0.43417,3.3078 -0.43617,4.8871 -0.068,0.1644 -0.1076,0.3406 -0.1069,0.524 l 0.052,12.81 c 6e-4,0.1635 0.03,0.3205 0.082,0.4677 -0.1157,0.2437 -0.1733,0.5201 -0.1484,0.8134 l 1.08576,12.7481 c -0.29641,0.041 -0.58657,0.1223 -0.85215,0.248 l -1.21651,0.5762 c -1.0334,0.4893 -1.2938,1.4473 -0.5839,2.1482 0.7099,0.7009 1.7147,0.5498 2.86236,0.1989 0.41356,-0.1264 0.82615,-0.2455 1.19786,-0.3751 h 0.24805 c 0.91069,0 1.60733,-0.7896 1.64383,-1.7689 l 0.51418,-13.7754 c 0.009,-0.2407 -0.0315,-0.4696 -0.11007,-0.6785 0.0929,-0.1849 0.15668,-0.3888 0.18706,-0.6026 l 1.5875,-11.1657 h 0.0331 l 1.77147,11.0913 c 0.0222,0.1388 0.0587,0.273 0.10645,0.401 -0.13369,0.2562 -0.21084,0.5518 -0.21084,0.8677 v 13.7749 c 0,0.9723 0.72191,1.7561 1.62264,1.7683 0.42859,0.165 0.93085,0.3088 1.43557,0.463 1.14763,0.3509 2.15242,0.502 2.86236,-0.1989 0.70994,-0.7009 0.44947,-1.6589 -0.58394,-2.1482 l -1.21647,-0.5762 c -0.21914,-0.1038 -0.45534,-0.1765 -0.69763,-0.2222 l 1.47691,-12.8607 c 0.0243,-0.2112 10e-4,-0.4133 -0.0558,-0.6015 0.10753,-0.2012 0.16968,-0.4272 0.17054,-0.6672 l 0.0522,-12.778 c 8.7e-4,-0.2147 -0.0511,-0.4199 -0.14315,-0.6072 -0.0159,-1.2634 0.0582,-2.5206 -0.39945,-3.9129 -1.66016,-5.0511 -0.41942,-10.6291 0.20102,-16.0833 l 6.33191,0.7013 c 0.34256,0.038 0.82857,0.1094 1.29449,0.063 0.0149,0 0.0293,0.01 0.0444,0.01 l 8.34884,1.1854 c 0.30583,0.043 0.53793,0.019 0.71417,-0.1163 0.23049,0.2952 0.54757,0.4617 0.89504,0.3282 0.0603,-0.023 0.12048,-0.043 0.18086,-0.062 l 0.82889,0.6258 c 0.253,0.191 0.5715,0.194 0.71314,0.01 0.14163,-0.1876 0.0514,-0.4927 -0.20154,-0.6837 l -0.13591,-0.1028 0.93844,0.062 c 0.79918,0.053 1.48486,-0.5426 1.53738,-1.3353 0.0525,-0.7928 -0.53625,-1.0808 -1.31207,-1.2801 -0.55832,-0.1434 -1.09981,-0.3079 -1.53995,-0.2578 -0.002,-1e-4 -0.003,-5e-4 -0.005,-6e-4 -0.51833,-0.025 -1.27377,0.2504 -1.76837,0.662 -0.13252,-0.1025 -0.30526,-0.1721 -0.51522,-0.2258 l -8.04188,-2.0578 c -0.0377,-0.035 -0.0769,-0.058 -0.11731,-0.064 l -8.4491,-1.2123 c -0.12524,-0.018 -0.27175,0.01 -0.43046,0.058 -0.22806,-0.1172 -0.47943,-0.2081 -0.74001,-0.2666 -0.97519,-0.2192 -1.90863,-0.5004 -2.89388,-0.7044 0.012,-0.1108 0.009,-0.2281 -0.0124,-0.3524 l -0.21394,-1.2583 c 1.10924,-0.8534 1.74718,-2.4278 1.74718,-3.9342 0,-2.2146 -1.37793,-3.4421 -3.6065,-3.4421 z" />
  </g>
</svg>
