<?xml version="1.0" encoding="UTF-8" standalone="no"?>
<!-- Created with Inkscape (http://www.inkscape.org/) -->

<svg
   width="30.786621mm"
   height="65.002754mm"
   viewBox="0 0 30.786621 65.002754"
   version="1.1"
   id="svg1"
   xmlns:inkscape="http://www.inkscape.org/namespaces/inkscape"
   xmlns:sodipodi="http://sodipodi.sourceforge.net/DTD/sodipodi-0.dtd"
   xmlns="http://www.w3.org/2000/svg"
   xmlns:svg="http://www.w3.org/2000/svg">
  <sodipodi:namedview
     id="namedview1"
     pagecolor="#ffffff"
     bordercolor="#000000"
     borderopacity="0.25"
     inkscape:showpageshadow="2"
     inkscape:pageopacity="0.0"
     inkscape:pagecheckerboard="0"
     inkscape:deskcolor="#d1d1d1"
     inkscape:document-units="mm" />
  <defs
     id="defs1" />
  <g
     inkscape:label="Layer 1"
     inkscape:groupmode="layer"
     id="layer1"
     transform="translate(1008.8813,-2274.2907)">
    <g
       id="g149"
       transform="translate(-1164.8713,1362.7632)">
      <path
         id="rect1-7-3-7-0-6-4-0-4-7"
         style="stroke:#ffffff;stroke-width:0.374331;stroke-linejoin:round;stroke-dasharray:none;stroke-dashoffset:0;stroke-opacity:1"
         d="m 176.09704,921.73926 c -0.8248,0.37079 -1.55537,1.91938 -1.01015,2.65001 l 6.16583,8.26265 c 0.54521,0.73063 1.52098,1.09813 2.34578,0.72733 0.8248,-0.37079 1.14655,-1.30134 0.79378,-2.14195 -1.25368,-2.98735 -1.98507,-6.03273 -5.50106,-8.76871 -0.71946,-0.55985 -1.96939,-1.10012 -2.79418,-0.72933 z"
         sodipodi:nodetypes="sssssss"
         inkscape:transform-center-x="-2.8406933"
         inkscape:transform-center-y="4.6739597" />
      <path
         id="rect1-7-8-30-8-6-5-6-6-87-2"
         style="stroke:#ffffff;stroke-width:0.313714;stroke-linejoin:round;stroke-dasharray:none;stroke-dashoffset:0;stroke-opacity:1"
         d="m 182.77938,930.92139 c -0.89619,0.21267 -1.55591,0.89056 -1.35569,1.48793 l 1.86853,5.5747 c 0.20019,0.59737 0.46598,0.82167 1.36218,0.60901 0.8962,-0.21267 1.06789,-0.60181 0.96394,-1.22256 l -0.95928,-5.72889 c -0.10396,-0.62075 -0.98347,-0.93285 -1.87968,-0.72019 z"
         sodipodi:nodetypes="sssssss"
         inkscape:transform-center-x="0.82554781"
         inkscape:transform-center-y="3.6773691" />
      <path
         id="rect1-7-8-5-1-8-52-7-5-6-7-9-2-8"
         style="stroke:#ffffff;stroke-width:0.374331;stroke-linejoin:round;stroke-dasharray:none;stroke-dashoffset:0;stroke-opacity:1"
         d="m 184.89233,937.58538 c -0.7945,0 -1.81108,0.73905 -1.43412,1.44572 0.46568,0.87298 0.3942,1.84957 1.43412,1.94548 0.82494,0.0761 1.74881,-0.60266 1.69476,-1.31996 -0.0602,-0.79867 -0.90026,-2.07124 -1.69476,-2.07124 z"
         sodipodi:nodetypes="sssss" />
      <path
         id="rect1-7-8-5-1-5-4-8-8-8-0-0-3-1-6"
         style="stroke:#ffffff;stroke-width:0.292397;stroke-linejoin:round;stroke-dasharray:none;stroke-dashoffset:0;stroke-opacity:1"
         d="m 185.24944,938.97009 c -0.78741,-0.12228 -1.59257,0.14965 -1.80526,0.60969 l -0.25039,0.54156 c -0.2127,0.46004 0.25,0.92885 1.03742,1.05113 0.78742,0.12228 1.19506,-0.18767 1.55034,-0.61719 0.53969,-0.65236 1.16002,-1.25077 -0.53211,-1.58519 z"
         sodipodi:nodetypes="ssssss" />
      <path
         id="rect1-7-8-5-5-6-7-3-8-5-1-2-6-7-1"
         style="stroke:#ffffff;stroke-width:0.374331;stroke-linejoin:round;stroke-dasharray:none;stroke-dashoffset:0;stroke-opacity:1"
         d="m 183.98674,938.05454 c -0.20357,-0.11754 -0.45206,-0.0656 -0.60621,0.20138 l -0.87829,1.52124 c -0.15849,0.27451 -0.12265,0.5909 0.0809,0.70844 0.20357,0.11753 0.4955,-0.01 0.654,-0.28413 l 0.87828,-1.52124 c 0.12375,-0.21433 0.0749,-0.50816 -0.12871,-0.62569 z"
         sodipodi:nodetypes="sssssss" />
      <path
         id="rect1-7-8-5-5-6-7-7-5-4-9-8-2-4"
         style="stroke:#ffffff;stroke-width:0.374331;stroke-linejoin:round;stroke-dasharray:none;stroke-dashoffset:0;stroke-opacity:1"
         d="m 159.61379,916.17499 c 0.22437,0.0702 0.45547,-0.035 0.54709,-0.32977 l 0.52384,-1.67664 c 0.0944,-0.30261 -0.01,-0.60343 -0.2341,-0.67353 -0.22437,-0.0702 -0.48138,0.1179 -0.57595,0.42043 l -0.52382,1.67664 c -0.0738,0.23626 0.0383,0.51222 0.2626,0.58234 z"
         sodipodi:nodetypes="sssssss" />
      <path
         id="rect1-7-3-7-0-9-8"
         style="stroke:#ffffff;stroke-width:0.199939;stroke-linejoin:round;stroke-dasharray:none;stroke-dashoffset:0;stroke-opacity:1"
         d="m 166.52586,921.82214 c 0.71697,0.12899 1.88049,3.7564 1.41411,4.0556 -1.75737,1.1274 -3.28485,2.74013 -5.55947,2.77555 -0.55403,0.009 -1.23342,0.0123 -1.9504,-0.11665 -0.71698,-0.129 -1.26588,-2.07779 -0.81469,-2.32287 1.75515,-0.95336 2.94409,-2.85304 5.37144,-3.75157 0.48152,-0.17824 0.82203,-0.76907 1.53901,-0.64006 z"
         sodipodi:nodetypes="sssssss"
         inkscape:transform-center-x="2.6635275"
         inkscape:transform-center-y="1.4734479" />
      <path
         id="rect1-9-4-4-31-7-6-95"
         style="stroke:#ffffff;stroke-width:0.387927;stroke-linejoin:round;stroke-dasharray:none;stroke-dashoffset:0;stroke-opacity:1"
         d="m 175.33737,958.21665 h 1.61153 c 0.91069,0 1.75553,0.7964 1.64384,1.76906 l -1.59696,13.90723 c -0.11169,0.97267 -0.0213,1.63699 -0.93196,1.63699 h -0.72645 c -0.91069,0 -1.64384,-0.78901 -1.64384,-1.76907 v -13.77515 c 0,-0.98006 0.73315,-1.76906 1.64384,-1.76906 z"
         sodipodi:nodetypes="sssssssss" />
      <path
         id="rect1-9-1-95-4-9-8"
         style="stroke:#ffffff;stroke-width:0.387927;stroke-linejoin:round;stroke-dasharray:none;stroke-dashoffset:0;stroke-opacity:1"
         d="m 167.07333,958.30356 h 1.61153 c 0.91068,0 1.68038,0.78978 1.64384,1.76906 l -0.51392,13.77514 c -0.0365,0.97928 -0.73315,1.76907 -1.64384,1.76907 h -0.61224 c -0.91069,0 -0.87343,-0.79309 -0.95652,-1.76907 l -1.17269,-13.77514 c -0.0831,-0.97598 0.73315,-1.76906 1.64384,-1.76906 z"
         sodipodi:nodetypes="sssssssss" />
      <path
         id="rect1-9-69-4-89-0"
         style="stroke:#ffffff;stroke-width:0.359059;stroke-linejoin:round;stroke-dasharray:none;stroke-dashoffset:0;stroke-opacity:1"
         d="m 167.14338,944.45318 2.62668,0.0372 c 0.91255,0.0129 2.55276,0.81702 2.43465,1.64778 l -1.79886,12.65353 c -0.1181,0.83076 -0.73475,1.51228 -1.64742,1.51228 h -1.61505 c -0.91267,0 -1.64401,-0.67448 -1.64742,-1.51228 l -0.0522,-12.81021 c -0.003,-0.83779 0.78705,-1.54114 1.69961,-1.52824 z"
         sodipodi:nodetypes="ssssssssss" />
      <path
         id="rect1-9-4-41-7-8-8"
         style="stroke:#ffffff;stroke-width:0.359059;stroke-linejoin:round;stroke-dasharray:none;stroke-dashoffset:0;stroke-opacity:1"
         d="m 174.31207,944.3046 2.74806,0.0743 c 0.91229,0.0247 1.70304,0.72238 1.69962,1.56017 l -0.0522,12.77828 c -0.003,0.83779 -0.73475,1.51227 -1.64743,1.51227 h -1.61504 c -0.91267,0 -1.51502,-0.68333 -1.64742,-1.51227 l -2.06786,-12.94564 c -0.13241,-0.82894 1.66997,-1.49177 2.58226,-1.4671 z"
         sodipodi:nodetypes="sssssssss" />
      <path
         id="rect1-0-0-1-6"
         style="stroke:none;stroke-width:0.374331;stroke-linejoin:round;stroke-dasharray:none;stroke-dashoffset:0;stroke-opacity:1"
         d="m 167.19112,921.37219 c 4.48101,-1.82226 6.95787,-0.63831 9.7985,0 0.88945,0.19987 1.70825,0.73607 1.64554,1.64554 -0.42585,6.17474 -2.31402,12.63188 -0.41772,18.40141 0.53578,1.63011 0.34141,3.07487 0.41772,4.56138 0.0467,0.91043 -0.73392,1.64554 -1.64554,1.64554 h -9.7985 c -0.91164,0 -1.66848,-0.7342 -1.64554,-1.64554 0.0443,-1.76206 -0.17825,-3.46578 0.44127,-5.40989 1.26391,-3.96625 0.86045,-8.2304 0.26331,-12.5119 -0.23477,-1.68333 0.15532,-3.88385 -0.0498,-5.55549 -0.11101,-0.90484 0.14625,-0.78763 0.99073,-1.13105 z"
         sodipodi:nodetypes="ssssssssssss" />
      <path
         id="rect1-7-8-5-1-5-4-34-31-3-3-8"
         style="stroke:#ffffff;stroke-width:0.485783;stroke-linejoin:round;stroke-dasharray:none;stroke-dashoffset:0;stroke-opacity:1"
         d="m 168.80998,973.45061 c -0.70994,-0.70086 -2.11346,-0.87118 -3.14686,-0.38187 l -1.21653,0.576 c -1.03342,0.4893 -1.29383,1.44747 -0.58389,2.14834 0.70994,0.70087 1.71459,0.54999 2.86223,0.19914 1.7432,-0.53283 3.48839,-0.93686 2.08505,-2.54161 z"
         sodipodi:nodetypes="ssssss" />
      <path
         id="rect1-7-8-5-1-5-4-34-0-1-3-2-6"
         style="stroke:#ffffff;stroke-width:0.485783;stroke-linejoin:round;stroke-dasharray:none;stroke-dashoffset:0;stroke-opacity:1"
         d="m 174.66671,973.45061 c 0.70994,-0.70086 2.11345,-0.87118 3.14686,-0.38187 l 1.21653,0.576 c 1.03342,0.4893 1.29383,1.44747 0.58389,2.14834 -0.70994,0.70087 -1.7146,0.54999 -2.86223,0.19914 -1.7432,-0.53283 -3.48839,-0.93686 -2.08505,-2.54161 z"
         sodipodi:nodetypes="ssssss" />
      <path
         id="rect1-7-5-6-7-5-78"
         style="stroke:#ffffff;stroke-width:0.374331;stroke-linejoin:round;stroke-dasharray:none;stroke-dashoffset:0;stroke-opacity:1"
         d="m 174.08312,920.31535 -0.45533,-2.67901 c -0.24663,-1.45117 -2.90483,-1.35351 -3.18644,0.37283 l -0.40194,2.46403 c -0.34758,2.13083 4.40357,1.95947 4.04371,-0.15785 z"
         sodipodi:nodetypes="sssss" />
      <path
         id="path1-73-1-7-5"
         style="stroke:#ffffff;stroke-width:0.306754;stroke-linejoin:round;stroke-dasharray:none;stroke-dashoffset:0;stroke-opacity:1"
         d="m 175.61641,915.12289 c 0,2.21459 -1.37809,4.57763 -3.60666,4.57763 -2.22857,0 -3.54953,-2.36304 -3.54953,-4.57763 0,-2.2146 1.32096,-3.44212 3.54953,-3.44212 2.22857,0 3.60666,1.22752 3.60666,3.44212 z"
         sodipodi:nodetypes="sssss" />
      <path
         id="rect1-7-8-3-2-6-6-9-4"
         style="stroke:#ffffff;stroke-width:0.317429;stroke-linejoin:round;stroke-dasharray:none;stroke-dashoffset:0;stroke-opacity:1"
         d="m 161.6309,928.7025 c 0.87,-0.29938 1.41442,-1.03419 1.19186,-1.64019 l -3.4374,-9.35954 c -0.22258,-0.60604 -0.55166,-0.79335 -1.42158,-0.49397 -0.87,0.29938 -0.9954,0.71034 -0.82991,1.33381 l 2.54818,9.60062 c 0.16548,0.62346 1.07889,0.85869 1.94885,0.55927 z"
         sodipodi:nodetypes="sssssss"
         inkscape:transform-center-x="1.2163542"
         inkscape:transform-center-y="-3.7677496" />
      <path
         id="rect1-7-8-5-1-8-7-5-7-9-22-2"
         style="stroke:#ffffff;stroke-width:0.374331;stroke-linejoin:round;stroke-dasharray:none;stroke-dashoffset:0;stroke-opacity:1"
         d="m 156.50704,917.23774 c 0.57799,0.54514 1.48097,0.57994 2.20135,0.22988 0.75967,-0.36916 1.92733,-1.9104 1.20278,-2.73328 -0.54747,-0.62176 -2.7632,-0.72512 -3.21601,-0.16621 -0.50415,0.62234 -0.76612,2.1245 -0.1881,2.66962 z"
         sodipodi:nodetypes="ssssss"
         inkscape:transform-center-x="-7.1651755"
         inkscape:transform-center-y="-7.1797922" />
      <path
         id="rect1-7-8-5-5-6-7-7-5-4-9-8-2-4-9-9-4-4"
         style="stroke:#ffffff;stroke-width:0.29568;stroke-linejoin:round;stroke-dasharray:none;stroke-dashoffset:0;stroke-opacity:1"
         d="m 156.42104,915.55998 c 0.37962,0.57721 2.69067,0.47244 3.0206,0.19414 0.58668,-0.49491 0.78317,-1.17177 0.50916,-2.06803 -0.232,-0.75888 -2.42784,-0.72573 -3.29015,0.0819 -0.46788,0.43818 -0.37814,0.89392 -0.43962,1.34489 -0.0269,0.1975 0.0229,0.40179 0.19976,0.44674 z"
         sodipodi:nodetypes="sssssss"
         inkscape:transform-center-x="-1.3590376"
         inkscape:transform-center-y="-1.3419783" />
      <path
         id="rect24"
         style="fill:#ffffff;stroke:none;stroke-width:0.143083;stroke-linejoin:round;stroke-dasharray:none"
         d="m 171.76442,925.1747 -0.6091,2.18007 -2.07854,-1.05833 0.99219,2.14468 -2.04322,0.76991 2.04322,0.7699 -1.15755,2.00142 2.01794,-1.14102 0.81852,2.20757 0.81851,-2.20757 2.09009,1.19063 -1.12448,-2.15625 2.21913,-0.68123 -2.21913,-0.68123 0.8599,-2.13413 -2.01837,0.97565 z"
         sodipodi:nodetypes="ccccccccccccccccc" />
    </g>
  </g>
</svg>
