<?xml version="1.0" encoding="UTF-8" standalone="no"?>
<!-- Created with Inkscape (http://www.inkscape.org/) -->

<svg
   width="89.713318mm"
   height="73.748245mm"
   viewBox="0 0 89.713318 73.748245"
   version="1.1"
   id="svg1"
   xmlns:inkscape="http://www.inkscape.org/namespaces/inkscape"
   xmlns:sodipodi="http://sodipodi.sourceforge.net/DTD/sodipodi-0.dtd"
   xmlns="http://www.w3.org/2000/svg"
   xmlns:svg="http://www.w3.org/2000/svg">
  <sodipodi:namedview
     id="namedview1"
     pagecolor="#ffffff"
     bordercolor="#000000"
     borderopacity="0.25"
     inkscape:showpageshadow="2"
     inkscape:pageopacity="0.0"
     inkscape:pagecheckerboard="0"
     inkscape:deskcolor="#d1d1d1"
     inkscape:document-units="mm" />
  <defs
     id="defs1" />
  <g
     inkscape:label="Layer 1"
     inkscape:groupmode="layer"
     id="layer1"
     transform="translate(1038.3448,344.90737)">
    <g
       id="g111"
       transform="translate(-1713.038,-773.00223)">
      <path
         id="rect1-7-3-7-0-3-9-3-9-7-1-2-3-6-9"
         style="stroke:#ffffff;stroke-width:0.374331;stroke-linejoin:round;stroke-dasharray:none;stroke-dashoffset:0;stroke-opacity:1"
         d="m 705.25343,437.2532 c 0.76397,-0.48382 2.55333,-0.268 2.76783,0.61804 l 2.14297,8.85176 c 0.21454,0.88602 0.0777,1.87443 -0.68633,2.35818 -0.76408,0.48373 -1.92987,0.34419 -2.22475,-0.51851 l -2.93155,-8.57609 c -0.29488,-0.86266 0.16808,-2.24961 0.93184,-2.73336 z"
         sodipodi:nodetypes="ssssssss"
         inkscape:transform-center-x="1.6599241"
         inkscape:transform-center-y="-5.0485809" />
      <path
         id="rect10-0-1-37"
         style="fill:#999999;stroke-width:0.57068;stroke-linejoin:round"
         d="m 750.91939,495.81935 -55.78585,-0.17931 c -1.56652,2.07621 -3.13514,4.15427 -4.66448,6.20307 l -15.77577,-16.5435 41.22029,-16.89461 c -2.64529,3.45404 -5.37594,7.02099 -8.08681,10.56065 l 56.57987,0.63923 z"
         sodipodi:nodetypes="cccccccc" />
      <path
         id="rect1-7-8-5-1-5-4-34-0-1-3-9-6-4-0-6-7-3-8-4-6"
         style="stroke:#ffffff;stroke-width:0.419911;stroke-linejoin:round;stroke-dasharray:none;stroke-dashoffset:0;stroke-opacity:1"
         d="m 693.31262,487.01924 c -0.49718,-0.7907 -1.74722,-1.4823 -2.80278,-1.5506 l -1.24257,-0.08 c -1.05555,-0.068 -1.50506,0.5133 -1.00788,1.3041 0.49718,0.7908 1.45197,1.0901 2.58184,1.3041 1.71625,0.325 3.40597,0.7432 2.47139,-0.9772 z"
         sodipodi:nodetypes="ssssss" />
      <path
         id="rect1-7-8-5-1-5-4-8-8-8-0-9-0-1-9-3"
         style="stroke:#ffffff;stroke-width:0.374331;stroke-linejoin:round;stroke-dasharray:none;stroke-dashoffset:0;stroke-opacity:1"
         d="m 708.88749,456.63031 c -0.79344,-0.0407 -1.46539,0.57034 -1.50647,1.37025 l -0.0485,0.94153 c -0.0411,0.79992 0.56463,1.47672 1.35811,1.51752 0.79337,0.0408 1.07302,-0.55195 1.26068,-1.33078 0.28513,-1.18273 0.66616,-2.29316 -1.064,-2.49865 z"
         sodipodi:nodetypes="ssssss"
         inkscape:transform-center-x="0.40263677"
         inkscape:transform-center-y="10.791261" />
      <path
         id="rect1-7-8-5-5-6-7-3-8-5-1-5-2-2-5-5"
         style="stroke:#ffffff;stroke-width:0.374331;stroke-linejoin:round;stroke-dasharray:none;stroke-dashoffset:0;stroke-opacity:1"
         d="m 707.96756,455.35566 c -0.21057,-0.1044 -0.45533,-0.0371 -0.59221,0.23946 l -0.78023,1.57381 c -0.14112,0.28385 -0.0849,0.59748 0.12571,0.70186 0.21061,0.10442 0.49387,-0.0409 0.63466,-0.32495 l 0.78012,-1.57378 c 0.11002,-0.22176 0.0432,-0.5118 -0.16803,-0.61636 z"
         sodipodi:nodetypes="sssssss"
         inkscape:transform-center-x="1.8144123"
         inkscape:transform-center-y="8.8531046" />
      <path
         id="rect1-7-8-30-8-6-6-5-6-4-9-9-6-1-4-5"
         style="stroke:#ffffff;stroke-width:0.313714;stroke-linejoin:round;stroke-dasharray:none;stroke-dashoffset:0;stroke-opacity:1"
         d="m 710.45831,448.64067 -0.58362,8.22162 c -0.0446,0.62848 -0.21435,0.92 -1.13378,0.97008 -0.91971,0.05 -1.24512,-0.27047 -1.27086,-0.89931 l -0.33202,-8.11183 c 0.83233,-2.58496 2.64889,-1.95565 3.32028,-0.18056 z"
         sodipodi:nodetypes="cssscc"
         inkscape:transform-center-x="0.10369424"
         inkscape:transform-center-y="3.4407355" />
      <path
         id="rect1-7-8-5-1-8-52-7-5-6-4-2-1-9-8"
         style="stroke:#ffffff;stroke-width:0.374331;stroke-linejoin:round;stroke-dasharray:none;stroke-dashoffset:0;stroke-opacity:1"
         d="m 709.75721,455.15073 c -0.6425,-0.46731 -1.89937,-0.46758 -2.01018,0.32561 -0.13684,0.97992 -0.76904,1.72767 0.0156,2.41691 0.62236,0.54677 1.76878,0.5412 2.14695,-0.0707 0.42108,-0.68134 0.4902,-2.2046 -0.15238,-2.67186 z"
         sodipodi:nodetypes="sssss"
         inkscape:transform-center-x="0.3622737"
         inkscape:transform-center-y="8.8091382" />
      <path
         id="rect1-7-8-5-5-6-7-7-5-4-9-4-6-1-3-3-2-1-5-6-8"
         style="stroke:#ffffff;stroke-width:0.374331;stroke-linejoin:round;stroke-dasharray:none;stroke-dashoffset:0;stroke-opacity:1"
         d="m 692.99033,458.60182 c 0.22062,-0.0814 0.45679,0.0116 0.56335,0.30125 l 0.60784,1.64806 c 0.10917,0.29755 0.0211,0.60312 -0.19983,0.68452 -0.22063,0.0811 -0.48674,-0.0935 -0.5964,-0.3909 l -0.60778,-1.64814 c -0.0859,-0.23215 0.0124,-0.51343 0.23295,-0.59479 z"
         sodipodi:nodetypes="sssssss"
         inkscape:transform-center-x="1.8441222"
         inkscape:transform-center-y="8.4494261" />
      <path
         id="path1-73-1-5-7-3-7-0-4-1-5-6-4"
         style="stroke:#ffffff;stroke-width:0.287201;stroke-linejoin:round;stroke-dasharray:none;stroke-dashoffset:0;stroke-opacity:1"
         d="m 699.15672,430.72426 c -0.0914,2.2181 -0.0649,4.7443 1.81289,5.2658 1.87761,0.5214 3.62356,-1.4521 4.21663,-3.5914 0.59316,-2.1393 -0.1202,-4.1313 -2.06879,-4.1556 -2.42579,-0.03 -3.86014,0.041 -3.96073,2.4812 z"
         sodipodi:nodetypes="sssss" />
      <path
         id="rect1-7-2-76-1-7-2-6-7-2-5-0-5-1-5-8"
         style="stroke:#ffffff;stroke-width:0.374331;stroke-linejoin:round;stroke-dasharray:none;stroke-dashoffset:0;stroke-opacity:1"
         d="m 698.7521,438.66561 c -0.59869,-0.67791 -2.00903,-0.35609 -2.18336,0.53856 l -1.80478,9.27063 c -0.17501,0.89462 -0.54989,1.79358 0.0663,2.45506 0.61658,0.66154 1.92266,0.89938 2.28346,0.0622 l 3.50577,-8.13476 c 0.138,-0.89455 -0.78212,-2.91104 -1.86766,-4.19174 z"
         sodipodi:nodetypes="csssscc"
         inkscape:transform-center-x="-2.0015374"
         inkscape:transform-center-y="-4.6439063" />
      <path
         id="rect1-7-8-5-1-5-4-34-0-1-3-9-6-4-0-6-7-3-8-4-6-6"
         style="fill:#4d4d4d;stroke:none;stroke-width:0.419911;stroke-linejoin:round;stroke-dasharray:none;stroke-dashoffset:0;stroke-opacity:1"
         d="m 719.99034,483.65462 c -0.49718,-0.7907 -1.74722,-1.4823 -2.80278,-1.5506 l -1.24257,-0.08 c -1.05555,-0.068 -1.50506,0.5133 -1.00788,1.3041 0.49718,0.7908 1.45197,1.0901 2.58184,1.3041 1.71625,0.325 3.40597,0.7432 2.47139,-0.9772 z"
         sodipodi:nodetypes="ssssss" />
      <path
         id="rect1-7-8-5-1-5-4-34-0-1-3-9-6-4-0-6-7-3-8-4-6-6-0"
         style="fill:#4d4d4d;stroke:none;stroke-width:0.419911;stroke-linejoin:round;stroke-dasharray:none;stroke-dashoffset:0;stroke-opacity:1"
         d="m 731.15829,489.21685 c -0.49718,-0.7907 -1.74722,-1.4823 -2.80278,-1.5506 l -1.24257,-0.08 c -1.05555,-0.068 -1.50506,0.5133 -1.00788,1.3041 0.49718,0.7908 1.45197,1.0901 2.58184,1.3041 1.71625,0.325 3.40597,0.7432 2.47139,-0.9772 z"
         sodipodi:nodetypes="ssssss" />
      <path
         id="rect1-7-8-5-1-5-4-34-0-1-3-9-6-4-0-6-7-3-8-4-6-6-0-9"
         style="fill:#4d4d4d;stroke:none;stroke-width:0.419911;stroke-linejoin:round;stroke-dasharray:none;stroke-dashoffset:0;stroke-opacity:1"
         d="m 713.72365,489.08653 c -0.49718,-0.7907 -1.74722,-1.4823 -2.80278,-1.5506 l -1.24257,-0.08 c -1.05555,-0.068 -1.50506,0.5133 -1.00788,1.3041 0.49718,0.7908 1.45197,1.0901 2.58184,1.3041 1.71625,0.325 3.40597,0.7432 2.47139,-0.9772 z"
         sodipodi:nodetypes="ssssss" />
      <path
         id="rect1-7-8-5-1-5-4-34-0-1-3-9-6-4-0-6-7-3-8-4-6-6-06"
         style="fill:#4d4d4d;stroke:none;stroke-width:0.419911;stroke-linejoin:round;stroke-dasharray:none;stroke-dashoffset:0;stroke-opacity:1"
         d="m 738.56481,484.43327 c -0.49718,-0.7907 -1.74722,-1.4823 -2.80278,-1.5506 l -1.24257,-0.08 c -1.05555,-0.068 -1.50506,0.5133 -1.00788,1.3041 0.49718,0.7908 1.45197,1.0901 2.58184,1.3041 1.71625,0.325 3.40597,0.7432 2.47139,-0.9772 z"
         sodipodi:nodetypes="ssssss" />
      <path
         id="rect1-7-8-5-1-5-4-34-0-1-3-9-6-4-0-6-7-3-8-4-6-6-06-2"
         style="fill:#4d4d4d;stroke:none;stroke-width:0.419911;stroke-linejoin:round;stroke-dasharray:none;stroke-dashoffset:0;stroke-opacity:1"
         d="m 758.92122,484.35256 c -0.49718,-0.7907 -1.74722,-1.4823 -2.80278,-1.5506 l -1.24257,-0.08 c -1.05555,-0.068 -1.50506,0.5133 -1.00788,1.3041 0.49718,0.7908 1.45197,1.0901 2.58184,1.3041 1.71625,0.325 3.40597,0.7432 2.47139,-0.9772 z"
         sodipodi:nodetypes="ssssss" />
      <path
         id="rect1-7-8-5-1-5-4-34-0-1-3-9-6-4-0-6-7-3-8-4-6-6-0-4"
         style="fill:#4d4d4d;stroke:none;stroke-width:0.419911;stroke-linejoin:round;stroke-dasharray:none;stroke-dashoffset:0;stroke-opacity:1"
         d="m 749.73276,489.9955 c -0.49718,-0.7907 -1.74722,-1.4823 -2.80278,-1.5506 l -1.24257,-0.08 c -1.05555,-0.068 -1.50506,0.5133 -1.00788,1.3041 0.49718,0.7908 1.45197,1.0901 2.58184,1.3041 1.71625,0.325 3.40597,0.7432 2.47139,-0.9772 z"
         sodipodi:nodetypes="ssssss" />
      <path
         id="rect1-9-4-41-7-6-1-1-5-8-1-3-6-8-2"
         style="stroke:#ffffff;stroke-width:0.359059;stroke-linejoin:round;stroke-dasharray:none;stroke-dashoffset:0;stroke-opacity:1"
         d="m 703.83628,458.03262 2.42515,1.29462 c 0.8051,0.42973 0.18574,1.24938 -0.13592,2.02299 l -4.79827,11.5401 c -0.32165,0.7736 -1.33314,1.0245 -2.14961,0.61661 l -1.44478,-0.72173 c -0.81638,-0.40807 -1.04991,-1.28838 -0.7979,-2.08915 l 3.93562,-12.50501 c 0.25198,-0.80078 2.1606,-0.58817 2.9657,-0.15843 z"
         sodipodi:nodetypes="ssssssssss"
         inkscape:transform-center-x="2.8649676"
         inkscape:transform-center-y="5.8206316" />
      <path
         id="rect1-9-4-4-31-7-1-4-3-0-5-7-9-6-35-6"
         style="stroke:#ffffff;stroke-width:0.387927;stroke-linejoin:round;stroke-dasharray:none;stroke-dashoffset:0;stroke-opacity:1"
         d="m 698.69742,472.2144 1.50791,0.56851 c 0.85217,0.32124 1.34005,1.35364 0.91407,2.23523 l -5.63639,11.66488 c -0.42593,0.8815 -0.59748,1.5244 -1.44951,1.20289 l -0.67965,-0.25645 c -0.85205,-0.32151 -1.22814,-1.30691 -0.91405,-2.23523 l 4.09548,-12.10466 c 0.31409,-0.92833 1.3101,-1.39667 2.16221,-1.07534 z"
         sodipodi:nodetypes="ssssssssss"
         inkscape:transform-center-x="2.5221313"
         inkscape:transform-center-y="6.1873254" />
      <path
         id="rect1-9-69-4-8-4-7-7-73-7-5-9-2-0"
         style="stroke:#ffffff;stroke-width:0.359059;stroke-linejoin:round;stroke-dasharray:none;stroke-dashoffset:0;stroke-opacity:1"
         d="m 701.68266,456.20754 2.62683,-0.0217 c 0.91264,-0.008 2.57044,0.7597 2.47096,1.59284 l -1.51497,12.69061 c -0.0994,0.83326 -0.70066,1.52844 -1.61312,1.54887 l -1.61463,0.0362 c -0.91244,0.0204 -1.6587,-0.63747 -1.6809,-1.475 l -0.33913,-12.80578 c -0.0219,-0.83753 0.75231,-1.55845 1.66495,-1.56597 z"
         sodipodi:nodetypes="ssssssssss"
         inkscape:transform-center-x="-1.2903522"
         inkscape:transform-center-y="-6.4883806" />
      <path
         id="rect1-9-1-95-4-0-1-8-0-2-1-4-6-1-8"
         style="stroke:#ffffff;stroke-width:0.387927;stroke-linejoin:round;stroke-dasharray:none;stroke-dashoffset:0;stroke-opacity:1"
         d="m 701.97702,471.4816 1.27465,-0.98605 c 0.72031,-0.55722 1.81236,-0.40347 2.38266,0.39347 l 8.0221,11.20997 c 0.57034,0.79692 0.50257,1.84787 -0.21775,2.4051 l -0.48426,0.37462 c -0.72032,0.55723 -1.17611,-0.0929 -1.83902,-0.81403 l -9.35613,-10.17798 c -0.66292,-0.72113 -0.50257,-1.84788 0.21775,-2.4051 z"
         sodipodi:nodetypes="sssssssss"
         inkscape:transform-center-x="-4.6661202"
         inkscape:transform-center-y="5.6695693" />
      <path
         id="rect1-0-0-2-5-8-0-4-2-7-8-2-4"
         style="stroke:none;stroke-width:0.314577;stroke-linejoin:round;stroke-dasharray:none;stroke-dashoffset:0;stroke-opacity:1"
         d="m 706.62776,436.05411 c -3.00028,-1.0108 -4.94787,0.4451 -6.95399,1.0834 -0.62816,0.1999 -2.9867,1.3533 -2.94241,2.2628 0.30075,6.1747 3.1225,11.73889 3.50307,17.37624 0.11272,1.66964 0.31319,3.07672 0.0275,4.5365 -0.23971,1.22469 0.002,1.76669 0.64123,1.63733 l 1.58936,-0.32168 c 0.63919,-0.12937 3.71134,-0.47925 3.68152,-1.39007 -0.0565,-1.7288 1.63697,-3.22238 1.30893,-5.31068 -0.88653,-5.64364 -0.2016,-11.62944 0.31164,-17.55294 0.0784,-0.9048 -0.53621,-2.1084 -1.16682,-2.3209 z"
         sodipodi:nodetypes="ssssssssssss" />
      <path
         id="rect1-7-8-3-2-6-6-1-0-0-7-4-5-1-6-8-1"
         style="stroke:#ffffff;stroke-width:0.317429;stroke-linejoin:round;stroke-dasharray:none;stroke-dashoffset:0;stroke-opacity:1"
         d="m 696.38663,450.30086 c -0.79863,-0.45679 -1.78802,-0.41777 -2.01887,0.18509 l -2.78235,7.2628 c -0.23094,0.60287 -0.23289,0.93781 0.56564,1.39454 0.79873,0.45687 1.25,0.31576 1.55017,-0.25513 l 3.54962,-6.75313 c 0.30018,-0.57096 -0.0657,-1.37736 -0.86419,-1.83413 z"
         sodipodi:nodetypes="sssssss"
         inkscape:transform-center-x="1.161467"
         inkscape:transform-center-y="2.9392822" />
      <path
         id="rect1-7-8-5-1-8-7-5-7-9-2-9-8-5-3-1-9-0-39-0"
         style="stroke:#ffffff;stroke-width:0.374331;stroke-linejoin:round;stroke-dasharray:none;stroke-dashoffset:0;stroke-opacity:1"
         d="m 691.74508,457.54919 c 0.78966,-0.0879 1.88163,0.5346 1.58517,1.27834 -0.36652,0.91906 -0.18763,1.88175 -1.2106,2.09193 -0.81142,0.1667 -1.80458,-0.40581 -1.83009,-1.12471 -0.0285,-0.8004 0.666,-2.15795 1.45565,-2.24572 z"
         sodipodi:nodetypes="sssss"
         inkscape:transform-center-x="3.4772263"
         inkscape:transform-center-y="7.7796037" />
      <path
         id="rect1-7-8-5-1-5-4-364-1-3-9-8-1-8-3-7-2-2-2-2-6"
         style="stroke:#ffffff;stroke-width:0.374331;stroke-linejoin:round;stroke-dasharray:none;stroke-dashoffset:0;stroke-opacity:1"
         d="m 691.48874,459.16014 c 0.79202,0.0632 1.37826,0.75675 1.31468,1.55511 l -0.0749,0.93984 c -0.0636,0.79845 -0.75247,1.39032 -1.54457,1.32714 -0.7919,-0.0631 -0.99186,-0.68723 -1.07632,-1.4838 -0.12791,-1.20984 -0.36117,-2.36051 1.38118,-2.3383 z"
         sodipodi:nodetypes="ssssss"
         inkscape:transform-center-x="3.8974046"
         inkscape:transform-center-y="9.6081996" />
      <path
         id="rect1-7-5-6-7-4-6-3-1-3-5-8-5-8-1"
         style="stroke:none;stroke-width:0.374331;stroke-linejoin:round;stroke-dasharray:none;stroke-dashoffset:0;stroke-opacity:1"
         d="m 704.41325,438.02926 0.0408,-3.5389 c 0.017,-1.4718 -2.90483,-1.3535 -3.18644,0.3729 l -0.40194,2.464 c -0.34759,2.1308 3.52286,2.8496 3.54761,0.702 z"
         sodipodi:nodetypes="sssss" />
      <path
         id="rect1-7-8-5-1-5-4-34-31-3-6-5-5-8-2-4-6-4-8-2"
         style="stroke:#ffffff;stroke-width:0.453133;stroke-linejoin:round;stroke-dasharray:none;stroke-dashoffset:0;stroke-opacity:1"
         d="m 712.77558,484.28998 c -0.92154,-0.1676 -2.2173,0.41122 -2.90495,1.29799 l -0.80962,1.04374 c -0.68776,0.88673 -0.4995,1.73549 0.42213,1.90316 0.92155,0.16759 1.7309,-0.45107 2.57802,-1.29156 1.28675,-1.27663 2.63114,-2.45767 0.71443,-2.95331 z"
         sodipodi:nodetypes="ssssss"
         inkscape:transform-center-x="1.5231359"
         inkscape:transform-center-y="1.6559412" />
    </g>
  </g>
</svg>
