<?xml version="1.0" encoding="UTF-8" standalone="no"?>
<!-- Created with Inkscape (http://www.inkscape.org/) -->

<svg
   width="35.595886mm"
   height="64.918243mm"
   viewBox="0 0 35.595886 64.918243"
   version="1.1"
   id="svg1"
   xmlns:inkscape="http://www.inkscape.org/namespaces/inkscape"
   xmlns:sodipodi="http://sodipodi.sourceforge.net/DTD/sodipodi-0.dtd"
   xmlns="http://www.w3.org/2000/svg"
   xmlns:svg="http://www.w3.org/2000/svg">
  <sodipodi:namedview
     id="namedview1"
     pagecolor="#ffffff"
     bordercolor="#000000"
     borderopacity="0.25"
     inkscape:showpageshadow="2"
     inkscape:pageopacity="0.0"
     inkscape:pagecheckerboard="0"
     inkscape:deskcolor="#d1d1d1"
     inkscape:document-units="mm" />
  <defs
     id="defs1" />
  <g
     inkscape:label="Layer 1"
     inkscape:groupmode="layer"
     id="layer1"
     transform="translate(1011.2859,222.25375)">
    <g
       id="g1"
       transform="translate(-623.18517,113.99827)">
      <path
         id="rect1-7-8-5-5-6-7-7-5-4-9-4-6-1-3-3-2-1-5-6-8-4-6-7-7-4-1-6"
         style="fill:#000000;stroke:#ffffff;stroke-width:0.374331;stroke-linejoin:round;stroke-dasharray:none;stroke-dashoffset:0;stroke-opacity:1"
         d="m -380.89081,-304.03225 c 0.23189,-0.0391 0.44672,0.0961 0.49772,0.40049 l 0.29168,1.7322 c 0.0521,0.31263 -0.0911,0.59657 -0.3233,0.63558 -0.23184,0.0388 -0.46095,-0.18214 -0.51356,-0.49471 l -0.29162,-1.73226 c -0.0414,-0.24405 0.1074,-0.50222 0.33921,-0.54128 z"
         sodipodi:nodetypes="sssssss"
         inkscape:transform-center-x="-0.013547373"
         inkscape:transform-center-y="0.9139767" />
      <path
         id="rect1-7-3-7-0-6-9-1-4-1-6-53-4-6"
         style="stroke:#ffffff;stroke-width:0.374331;stroke-linejoin:round;stroke-dasharray:none;stroke-dashoffset:0;stroke-opacity:1"
         d="m -365.32727,-323.0595 c -0.76448,0.48305 -1.258,2.10713 -0.62761,2.76569 l 6.82473,7.1297 c 0.6304,0.65856 1.66024,0.87342 2.42473,0.39036 0.76449,-0.48305 1.05757,-1.52301 0.48481,-2.23226 l -6.2377,-7.72418 c -0.57275,-0.70924 -2.10448,-0.81236 -2.86896,-0.32931 z"
         sodipodi:nodetypes="sssssss"
         inkscape:transform-center-x="-3.5306519"
         inkscape:transform-center-y="4.0599293" />
      <path
         id="rect1-7-3-7-0-6-4-0-4-0-0-7-0-0-6"
         style="stroke:#ffffff;stroke-width:0.374331;stroke-linejoin:round;stroke-dasharray:none;stroke-dashoffset:0;stroke-opacity:1"
         d="m -373.31685,-323.23711 c 0.86416,0.26644 1.74735,1.69575 1.32861,2.50553 l -4.1268,7.98068 c -0.41873,0.80976 -1.37427,1.27697 -2.23844,1.01051 -0.86417,-0.26645 -1.39377,-1.18311 -1.05136,-2.02798 l 3.40481,-8.40107 c 0.34241,-0.84487 1.81901,-1.33413 2.68318,-1.06767 z"
         sodipodi:nodetypes="sssssss"
         inkscape:transform-center-x="2.2071756"
         inkscape:transform-center-y="5.0047739" />
      <path
         id="rect1-9-69-4-3-1-8-2-7-5-0-0-2"
         style="stroke:#ffffff;stroke-width:0.359059;stroke-linejoin:round;stroke-dasharray:none;stroke-dashoffset:0;stroke-opacity:1"
         d="m -363.89176,-298.97786 -2.29211,-1.28338 c -0.79614,-0.4462 -2.61869,-0.57142 -2.93255,0.20678 l -4.78066,11.85299 c -0.31388,0.77819 -0.12149,1.67691 0.66846,2.13403 l 1.39784,0.80894 c 0.78998,0.45708 1.76076,0.23964 2.18332,-0.48379 l 6.46127,-11.06147 c 0.4222,-0.72364 0.0907,-1.72811 -0.70562,-2.17401 z"
         sodipodi:nodetypes="ssssssssss"
         inkscape:transform-center-x="1.1110263"
         inkscape:transform-center-y="10.359242" />
      <path
         id="rect1-9-4-41-7-7-5-0-8-1-1-5-4-7"
         style="stroke:#ffffff;stroke-width:0.359059;stroke-linejoin:round;stroke-dasharray:none;stroke-dashoffset:0;stroke-opacity:1"
         d="m -370.94404,-301.11897 -2.44053,-1.26537 c -0.81021,-0.42005 -1.83989,-0.19239 -2.24249,0.54233 l -6.14054,11.20629 c -0.40297,0.73453 -0.0892,1.67895 0.70938,2.1208 l 1.41316,0.78187 c 0.79859,0.44184 1.65647,0.13553 2.17363,-0.52569 l 8.07662,-10.32637 c 0.51715,-0.66122 -0.73904,-2.11377 -1.54924,-2.53385 z"
         sodipodi:nodetypes="sssssssss"
         inkscape:transform-center-x="7.4665598"
         inkscape:transform-center-y="6.8135533" />
      <path
         id="rect1-0-0-6-1-2-1-4-8-93-3-7"
         style="stroke:none;stroke-width:0.374331;stroke-linejoin:round;stroke-dasharray:none;stroke-dashoffset:0;stroke-opacity:1"
         d="m -363.77567,-323.32983 c -4.48101,-1.82227 -6.95787,-0.63832 -9.79849,0 -0.88945,0.19987 -1.70826,0.73607 -1.64554,1.64554 0.42584,6.17474 2.31401,12.63187 0.41771,18.40141 -0.53577,1.63011 -0.34141,3.07486 -0.41771,4.56138 -0.0467,0.91042 0.78359,1.94237 1.64554,1.64553 3.57386,-1.23079 7.62496,-4.37055 9.79849,0 0.40594,0.81626 1.66848,-0.7342 1.64554,-1.64553 -0.0443,-1.76206 0.17824,-3.46578 -0.44127,-5.4099 -1.76085,-5.52563 -0.28547,-11.62947 0.44127,-17.55289 0.111,-0.90484 -0.80107,-1.30213 -1.64554,-1.64554 z"
         sodipodi:nodetypes="sssssssssss" />
      <path
         id="rect1-7-8-5-1-8-52-7-5-6-7-9-2-2-2-5-1-1-7"
         style="stroke:#ffffff;stroke-width:0.374331;stroke-linejoin:round;stroke-dasharray:none;stroke-dashoffset:0;stroke-opacity:1"
         d="m -381.7919,-305.67666 c 0.7944,0.0123 1.79937,0.76709 1.41148,1.46781 -0.47918,0.86565 -0.42288,1.84323 -1.46416,1.92299 -0.82602,0.0633 -1.73923,-0.62976 -1.67403,-1.34615 0.0726,-0.79764 0.93231,-2.05701 1.72681,-2.0446 z"
         sodipodi:nodetypes="sssss"
         inkscape:transform-center-x="4.3127844"
         inkscape:transform-center-y="10.170377" />
      <path
         id="rect1-9-4-4-31-7-8-7-2-4-1-7-12-2-1"
         style="stroke:#ffffff;stroke-width:0.387927;stroke-linejoin:round;stroke-dasharray:none;stroke-dashoffset:0;stroke-opacity:1"
         d="m -379.59994,-291.08968 -1.43932,0.72484 c -0.81337,0.40961 -1.20971,1.50091 -0.67249,2.31939 l 7.68156,11.70279 c 0.53724,0.8185 0.7553,1.45247 1.56866,1.04286 l 0.64883,-0.32673 c 0.81338,-0.40959 1.11329,-1.44405 0.67247,-2.3194 l -6.19584,-12.3031 c -0.44083,-0.87531 -1.4505,-1.25026 -2.26386,-0.84064 z"
         sodipodi:nodetypes="sssssssss"
         inkscape:transform-center-x="-2.987545"
         inkscape:transform-center-y="5.9032282" />
      <path
         id="rect1-9-1-95-4-6-7-6-1-8-2-1-3-4"
         style="stroke:#ffffff;stroke-width:0.387927;stroke-linejoin:round;stroke-dasharray:none;stroke-dashoffset:0;stroke-opacity:1"
         d="m -372.94341,-288.01127 -0.98816,1.27303 c -0.5581,0.71963 -0.40651,1.81166 0.38948,2.38329 l 11.19657,8.04087 c 0.79596,0.57161 1.847,0.50564 2.40542,-0.21374 l 0.37615,-0.48307 c 0.55808,-0.71966 -0.0909,-1.17626 -0.81088,-1.84038 l -10.16234,-9.37315 c -0.72009,-0.66404 -1.84702,-0.50565 -2.40546,0.21374 z"
         sodipodi:nodetypes="sssssssss"
         inkscape:transform-center-x="-4.6728865"
         inkscape:transform-center-y="4.4744313" />
      <path
         id="rect1-7-8-5-1-5-4-34-0-1-3-5-4-0-3-0-0-9-8-1"
         style="stroke:#ffffff;stroke-width:0.485783;stroke-linejoin:round;stroke-dasharray:none;stroke-dashoffset:0;stroke-opacity:1"
         d="m -371.61815,-277.37125 c -0.66739,-0.74148 -2.05842,-0.99422 -3.11888,-0.56665 l -1.24836,0.50331 c -1.06046,0.42755 -1.37687,1.36871 -0.70948,2.1102 0.66741,0.74151 1.67922,0.65008 2.84553,0.36747 1.77158,-0.42917 3.53753,-0.72968 2.23119,-2.41433 z"
         sodipodi:nodetypes="ssssss"
         inkscape:transform-center-x="1.6885238"
         inkscape:transform-center-y="0.080232287" />
      <path
         id="rect1-7-5-6-7-2-3-77-9-3-7-36-1-3"
         style="stroke:#ffffff;stroke-width:0.374331;stroke-linejoin:round;stroke-dasharray:none;stroke-dashoffset:0;stroke-opacity:1"
         d="m -370.66767,-324.38668 0.45533,-2.679 c 0.24664,-1.45118 2.90482,-1.35352 3.18643,0.37283 l 0.40194,2.46403 c 0.34759,2.13083 -4.40355,1.95946 -4.0437,-0.15786 z"
         sodipodi:nodetypes="sssss" />
      <path
         id="path1-73-1-3-2-1-7-3-6-3-8-7"
         style="stroke:#ffffff;stroke-width:0.306754;stroke-linejoin:round;stroke-dasharray:none;stroke-dashoffset:0;stroke-opacity:1"
         d="m -371.98939,-330.06893 c -0.59721,2.16765 0.11811,4.68151 2.30542,5.00642 2.18729,0.32491 4.12106,-1.79546 4.71828,-3.96312 0.59722,-2.16764 -0.36825,-3.56174 -2.55555,-3.88665 -2.1873,-0.32489 -3.87094,0.6757 -4.46815,2.84335 z"
         sodipodi:nodetypes="sssss" />
      <path
         id="rect1-7-8-30-8-6-5-0-4-7-0-7-5-5-3"
         style="stroke:#ffffff;stroke-width:0.313714;stroke-linejoin:round;stroke-dasharray:none;stroke-dashoffset:0;stroke-opacity:1"
         d="m -357.39674,-315.03716 c -0.92028,-0.0382 -1.74639,0.28745 -1.70816,1.06489 l -0.13459,0.77611 -1.85941,9.36124 c -0.12274,0.61796 0.2259,0.9172 1.14619,0.95536 0.92029,0.0382 1.08388,-0.31111 1.25915,-0.91562 l 2.91105,-10.03938 c 0.175,-0.60457 -0.6939,-1.16445 -1.6142,-1.20259 z"
         sodipodi:nodetypes="sscssssss"
         inkscape:transform-center-x="1.4693895"
         inkscape:transform-center-y="5.4037178" />
      <path
         id="rect1-7-8-30-8-6-5-6-6-87-6-4-1-2-9-1"
         style="stroke:#ffffff;stroke-width:0.313714;stroke-linejoin:round;stroke-dasharray:none;stroke-dashoffset:0;stroke-opacity:1"
         d="m -377.11315,-315.40755 c 0.89278,0.22656 1.59752,0.93726 1.33242,1.50879 l -4.12503,8.89298 c -0.26511,0.57152 -0.47869,0.81433 -1.37148,0.58777 -0.89277,-0.22657 -1.15549,-0.64428 -0.94483,-1.23737 l 3.21829,-9.06127 c 0.21064,-0.5931 0.99784,-0.91746 1.89063,-0.6909 z"
         sodipodi:nodetypes="sssssss"
         inkscape:transform-center-x="1.7044954"
         inkscape:transform-center-y="3.9952129" />
      <path
         id="rect1-7-8-5-1-5-4-34-31-3-1-9-1-0-9-0-31-6-0"
         style="stroke:#ffffff;stroke-width:0.485783;stroke-linejoin:round;stroke-dasharray:none;stroke-dashoffset:0;stroke-opacity:1"
         d="m -360.00195,-277.91094 c -0.73164,-0.6782 -2.1398,-0.80429 -3.15728,-0.28316 l -1.19781,0.61394 c -1.01754,0.5216 -1.24767,1.48744 -0.51605,2.16564 0.73162,0.67821 1.73103,0.4958 2.86708,0.10903 1.72558,-0.58737 3.45718,-1.04609 2.00408,-2.60591 z"
         sodipodi:nodetypes="ssssss"
         inkscape:transform-center-x="1.9877198"
         inkscape:transform-center-y="0.62119847" />
      <path
         id="rect1-7-8-5-1-5-4-364-1-3-9-8-1-8-3-7-2-2-2-2-6-0-3-9-8-5-6-9"
         style="fill:#000000;stroke:#ffffff;stroke-width:0.374331;stroke-linejoin:round;stroke-dasharray:none;stroke-dashoffset:0;stroke-opacity:1"
         d="m -381.90015,-303.48806 c 0.55041,0.57301 0.5285,1.48086 -0.049,2.03577 l -0.67987,0.65321 c -0.57757,0.55496 -1.48568,0.54037 -2.03616,-0.0327 -0.55039,-0.57285 -0.28565,-1.17238 0.17993,-1.82422 0.70741,-0.98976 1.29675,-2.0052 2.58515,-0.83204 z"
         sodipodi:nodetypes="ssssss"
         inkscape:transform-center-x="0.86390857"
         inkscape:transform-center-y="0.93473961" />
      <path
         id="rect1-7-8-5-1-5-4-8-8-8-0-9-0-1-9-3-7-7-2-4-2-0-4"
         style="fill:#000000;stroke:#ffffff;stroke-width:0.374331;stroke-linejoin:round;stroke-dasharray:none;stroke-dashoffset:0;stroke-opacity:1"
         d="m -359.70872,-302.44634 c -0.79344,-0.0407 -1.46539,0.57034 -1.50647,1.37025 l -0.0485,0.94153 c -0.0411,0.79992 0.56463,1.47672 1.35811,1.51752 0.79337,0.0408 1.07302,-0.55195 1.26068,-1.33078 0.28513,-1.18273 0.66616,-2.29316 -1.064,-2.49865 z"
         sodipodi:nodetypes="ssssss"
         inkscape:transform-center-x="0.4026393"
         inkscape:transform-center-y="10.791261" />
      <path
         id="rect1-7-8-5-5-6-7-3-8-5-1-5-2-2-5-5-7-9-5-6-44-4-2"
         style="fill:#000000;stroke:#ffffff;stroke-width:0.374331;stroke-linejoin:round;stroke-dasharray:none;stroke-dashoffset:0;stroke-opacity:1"
         d="m -360.62865,-303.72099 c -0.21057,-0.1044 -0.45533,-0.0371 -0.59221,0.23946 l -0.78023,1.57381 c -0.14112,0.28385 -0.0849,0.59748 0.12571,0.70186 0.21061,0.10442 0.49387,-0.0409 0.63466,-0.32495 l 0.78012,-1.57378 c 0.11002,-0.22176 0.0432,-0.5118 -0.16803,-0.61636 z"
         sodipodi:nodetypes="sssssss"
         inkscape:transform-center-x="1.8144148"
         inkscape:transform-center-y="8.8531046" />
      <path
         id="rect1-7-8-5-1-8-52-7-5-6-4-2-1-9-8-7-6-7-7-9-2-3"
         style="fill:#000000;stroke:#ffffff;stroke-width:0.374331;stroke-linejoin:round;stroke-dasharray:none;stroke-dashoffset:0;stroke-opacity:1"
         d="m -358.839,-303.92592 c -0.6425,-0.46731 -1.89937,-0.46758 -2.01018,0.32561 -0.13684,0.97992 -0.76904,1.72767 0.0156,2.41691 0.62236,0.54677 1.76878,0.5412 2.14695,-0.0707 0.42108,-0.68134 0.4902,-2.2046 -0.15238,-2.67186 z"
         sodipodi:nodetypes="sssss"
         inkscape:transform-center-x="0.36227623"
         inkscape:transform-center-y="8.8091382" />
      <path
         id="rect1-7-8-5-5-6-7-7-5-4-9-4-6-1-3-3-2-1-5-6-8-4-6-7-7-4-1-7-3"
         style="fill:none;stroke:#000000;stroke-width:0.374331;stroke-linejoin:round;stroke-dasharray:4.49197, 4.49197;stroke-dashoffset:0;stroke-opacity:1"
         inkscape:transform-center-x="-0.013547373"
         inkscape:transform-center-y="0.9139767"
         d="m -368.66479,-334.47239 c -2.83179,0.0417 -5.05261,2.73878 -5.08635,5.47285 -0.10361,1.36823 0.21713,2.81306 1.04338,3.91582 -1.45606,0.38185 -3.25037,0.28972 -4.24218,1.625 -0.94984,1.24454 -1.23971,2.83269 -1.91621,4.22313 -1.32225,3.14144 -2.48797,6.34367 -3.57951,9.57137 -0.42986,1.07644 -0.71668,2.24935 -1.22499,3.26995 -0.89231,0.84825 -1.2737,2.08182 -2.16141,2.93701 -0.93734,1.20182 -0.99442,3.20322 0.37821,4.11573 1.24143,0.94047 3.17168,0.72204 4.19141,-0.44727 1.32039,0.7432 2.95824,-0.68386 2.78581,-2.09596 -0.023,-0.77193 -0.61476,-1.66587 -0.0243,-2.34504 1.03722,-2.02806 1.90633,-4.16898 2.90254,-6.17619 0.11301,2.4588 -0.01,4.86272 -0.87109,7.20313 -1.07399,1.24116 -1.60765,2.83329 -2.47746,4.21096 -1.49952,2.78503 -3.11701,5.51569 -4.47567,8.37107 -0.16932,1.29828 -0.21819,2.72787 0.58708,3.8423 1.73958,2.5808 3.42937,5.19821 5.12844,7.80817 0.59791,0.49373 0.0839,0.76488 -0.27997,1.17179 -0.97015,1.13931 -0.78456,2.97674 0.40368,3.89035 1.33602,1.13461 3.22526,0.88208 4.77796,0.42996 1.48724,-0.27521 3.09992,-1.14798 3.37891,-2.77344 0.32997,-1.39569 -0.44192,-2.70661 -1.07031,-3.89258 1.28776,0.92448 2.57552,1.84896 3.86328,2.77344 -0.77028,1.65833 0.46318,3.77732 2.2722,3.97888 1.79557,0.3243 3.5165,-0.54863 5.12038,-1.22888 1.62769,-0.92347 2.00278,-3.4739 0.57577,-4.74259 -2.76938,-2.56581 -5.55354,-5.11918 -8.32773,-7.68123 1.82564,-3.04983 3.50565,-6.19676 5.45655,-9.16559 0.41897,-0.28596 0.43419,-1.21563 1.06163,-0.8158 1.44171,0.33851 3.03244,-0.63331 3.2773,-2.12111 0.49363,-1.54371 0.50025,-3.21703 0.24618,-4.79825 0.87269,-3.31454 2.01555,-6.58273 2.76074,-9.93551 -0.15899,-1.95267 -1.89372,-3.18563 -2.93045,-4.69232 -1.57388,-1.88196 -2.98008,-3.91896 -4.73328,-5.64134 -1.00586,-0.57805 -2.17369,-0.80777 -3.26953,-1.12891 -0.20684,-0.0118 0.45498,-0.49444 0.48098,-0.67685 1.39568,-1.87114 2.08219,-4.69236 0.58152,-6.70205 -1.09084,-1.35968 -2.93019,-1.8167 -4.60351,-1.75 z m 7.72656,21.7832 c -0.27448,1.38143 -0.54352,2.76395 -0.82226,4.14453 -0.0963,-1.61553 -0.006,-3.23522 0.15234,-4.84375 0.22331,0.23307 0.44662,0.46615 0.66992,0.69922 z" />
      <path
         id="rect1-7-8-5-5-6-7-7-5-4-9-4-6-1-3-3-2-1-5-6-8-4-6-7-7-4-1-7-7-0"
         style="fill:none;stroke:#000000;stroke-width:0.374331;stroke-linejoin:round;stroke-dasharray:4.49197, 4.49197;stroke-dashoffset:0;stroke-opacity:1"
         inkscape:transform-center-x="-0.013547373"
         inkscape:transform-center-y="0.9139767"
         d="m -368.99487,-336.04856 c -3.86517,0.24715 -6.7595,4.22718 -6.34046,7.97301 0.0184,0.61148 0.14475,1.22799 0.29749,1.80824 -1.71612,0.35151 -3.33943,1.46024 -3.93791,3.15982 -0.98646,2.19811 -1.78037,4.4158 -2.71443,6.62729 -1.18005,3.06103 -2.13281,6.21539 -3.39017,9.24151 -0.84113,1.24471 -1.77159,2.43666 -2.55115,3.71748 -1.05922,2.04424 -0.28384,4.92417 1.90707,5.85945 1.31134,0.64582 2.92587,0.66208 4.23542,0.002 -1.21591,2.28549 -2.61296,4.50613 -3.52297,6.93283 -0.35637,2.02646 0.12947,4.20931 1.48997,5.77979 1.40545,2.09168 2.74996,4.22357 4.16191,6.3108 -1.63285,2.12536 -0.70829,5.61566 1.79883,6.61133 2.21151,1.00036 4.72788,0.33823 6.88672,-0.46875 1.04762,-0.49808 1.93979,-1.3645 2.45507,-2.38476 0.69825,2.11857 3.01909,3.48571 5.21282,3.10361 1.89797,-0.21722 3.7523,-0.94857 5.31696,-2.02947 2.09042,-1.83024 1.93776,-5.58709 -0.37867,-7.16734 -2.30297,-2.12453 -4.60594,-4.24907 -6.90892,-6.37359 1.60076,-2.70246 3.07607,-5.44564 4.83789,-8.05078 2.34401,0.2328 4.46932,-1.79969 4.66947,-4.08516 0.43115,-1.5388 0.15507,-3.15763 0.23092,-4.71323 0.86478,-3.30513 2.11319,-6.52667 2.61914,-9.9145 -0.28748,-2.62407 -2.54308,-4.30056 -3.96926,-6.32203 -1.51548,-1.79462 -2.84114,-3.93787 -4.8122,-5.33472 -0.32273,-0.33334 -1.50701,-0.25584 -1.0369,-0.8452 1.18812,-2.43189 1.15692,-5.71793 -0.91601,-7.67188 -1.48823,-1.41443 -3.64294,-1.88027 -5.64063,-1.76562 z" />
    </g>
  </g>
</svg>
