<?xml version="1.0" encoding="UTF-8" standalone="no"?>
<!-- Created with Inkscape (http://www.inkscape.org/) -->

<svg
   width="83.129616mm"
   height="80.257408mm"
   viewBox="0 0 83.129616 80.257408"
   version="1.1"
   id="svg1"
   xmlns:inkscape="http://www.inkscape.org/namespaces/inkscape"
   xmlns:sodipodi="http://sodipodi.sourceforge.net/DTD/sodipodi-0.dtd"
   xmlns="http://www.w3.org/2000/svg"
   xmlns:svg="http://www.w3.org/2000/svg">
  <sodipodi:namedview
     id="namedview1"
     pagecolor="#ffffff"
     bordercolor="#000000"
     borderopacity="0.25"
     inkscape:showpageshadow="2"
     inkscape:pageopacity="0.0"
     inkscape:pagecheckerboard="0"
     inkscape:deskcolor="#d1d1d1"
     inkscape:document-units="mm" />
  <defs
     id="defs1" />
  <g
     inkscape:label="Layer 1"
     inkscape:groupmode="layer"
     id="layer1"
     transform="translate(1035.0529,122.83033)">
    <g
       id="g42"
       transform="translate(-606.70342,-214.66668)">
      <path
         id="rect10-1-1-3-8"
         style="fill:#e6e6e6;stroke-width:1.1;stroke-linejoin:round"
         d="m -383.91324,167.55088 -44.18538,-6.61457 37.02285,-15.08125 44.18541,6.61458 z"
         sodipodi:nodetypes="ccccc" />
      <path
         id="rect10-1-1-3-8-0-0-6"
         style="fill:#cccccc;stroke-width:0.22124;stroke-linejoin:round"
         d="m -408.99196,167.96288 -8.83707,-1.33787 7.40457,-3.05035 8.83707,1.33787 z"
         sodipodi:nodetypes="ccccc" />
      <path
         id="rect10-1-1-3-8-0-0-6-6"
         style="fill:#cccccc;stroke-width:0.338156;stroke-linejoin:round"
         d="m -423.90052,172.09376 4.20838,-5.73862 13.5071,2.04489 z"
         sodipodi:nodetypes="cccc" />
      <path
         id="rect10-1-1-3-8-0-0-6-66"
         style="fill:#cccccc;stroke-width:0.338156;stroke-linejoin:round"
         d="m -364.3857,164.57712 11.31759,-4.66234 7.84831,4.37605 z"
         sodipodi:nodetypes="cccc" />
      <path
         id="rect10-1-1-3-8-0-0-6-6-2"
         style="fill:#cccccc;stroke-width:0.22124;stroke-linejoin:round"
         d="m -362.42919,163.77112 -8.83707,-1.33787 7.40456,-3.05035 8.83708,1.33787 z"
         sodipodi:nodetypes="ccccc" />
      <path
         id="rect10-1-1-3-8-0-0-6-66-2"
         style="fill:#cccccc;stroke-width:0.22124;stroke-linejoin:round"
         d="m -410.65386,153.84724 -8.83707,-1.33787 7.40456,-3.05036 8.83707,1.33788 z"
         sodipodi:nodetypes="ccccc" />
      <path
         id="rect10-1-1-3-8-0-0-6-6-2-9"
         style="fill:#cccccc;stroke-width:0.338156;stroke-linejoin:round"
         d="m -420.50108,153.40605 -7.84832,-4.37605 19.1659,-0.28629 z"
         sodipodi:nodetypes="cccc" />
      <path
         id="rect10-1-1-3-8-0-0-6-6-5-2"
         style="fill:#cccccc;stroke-width:0.338156;stroke-linejoin:round"
         d="m -354.82492,147.09706 -13.50711,-2.0449 16.34422,-3.90133 z"
         sodipodi:nodetypes="cccc" />
      <path
         id="rect10-1-1-3-8-0-0-6-6-5-7-9"
         style="fill:#cccccc;stroke-width:0.22124;stroke-linejoin:round"
         d="m -364.5645,149.7939 -8.83708,-1.33787 7.40457,-3.05035 8.83707,1.33787 z"
         sodipodi:nodetypes="ccccc" />
      <g
         id="g6-1-3-41"
         transform="matrix(0.64978474,0,0,0.64978474,-465.55737,45.34163)">
        <rect
           style="opacity:1;fill:#000000;stroke:#ffffff;stroke-width:0.661458;stroke-linejoin:round"
           id="rect5-8-8-4"
           width="10.664055"
           height="10.785408"
           x="81.009392"
           y="159.09109" />
        <path
           id="rect5-9-6-0-8"
           style="fill:#000000;stroke:#ffffff;stroke-width:0.550995;stroke-linejoin:round"
           transform="matrix(0.63208417,-0.77489973,0,1,0,0)"
           d="m 145.0336,271.4776 5.6318,-0.31314 1e-5,10.65467 -5.63181,0.44388 z"
           sodipodi:nodetypes="ccccc" />
        <rect
           style="fill:#000000;stroke:#ffffff;stroke-width:0.489546;stroke-linejoin:round"
           id="rect5-9-1-3-0-4"
           width="5.8412356"
           height="10.785408"
           x="-198.68402"
           y="-210.75246"
           transform="matrix(0.59903324,-0.80072416,-1,0,0,0)" />
      </g>
      <path
         id="path1-7-0-3-2-1-2"
         style="fill:#f9f9f9;stroke:#ffffff;stroke-width:0.129248;stroke-linejoin:round;stroke-dasharray:none;stroke-dashoffset:0;stroke-opacity:1"
         d="m -410.14829,150.72551 a 0.75152022,0.76794241 9.9841497 0 0 -0.75201,0.77308 0.75152022,0.76794241 9.9841497 0 0 0.17034,0.48392 l -0.009,4e-5 1.15176,1.41313 1.11832,-1.39511 a 0.75152022,0.76794241 9.9841497 0 0 0.1995,-0.52186 0.75152022,0.76794241 9.9841497 0 0 -0.75201,-0.76175 0.75152022,0.76794241 9.9841497 0 0 -0.56329,0.26396 0.75152022,0.76794241 9.9841497 0 0 -0.56371,-0.25547 z" />
      <g
         id="g6-1-3-41-7"
         transform="matrix(0.64978474,0,0,0.64978474,-426.97873,45.34163)">
        <rect
           style="opacity:1;fill:#000000;stroke:#ffffff;stroke-width:0.661458;stroke-linejoin:round"
           id="rect5-8-8-4-4"
           width="10.664055"
           height="10.785408"
           x="81.009392"
           y="159.09109" />
        <path
           id="rect5-9-6-0-8-5"
           style="fill:#000000;stroke:#ffffff;stroke-width:0.550995;stroke-linejoin:round"
           transform="matrix(0.63208417,-0.77489973,0,1,0,0)"
           d="m 145.0336,271.4776 5.6318,-0.31314 1e-5,10.65467 -5.63181,0.44388 z"
           sodipodi:nodetypes="ccccc" />
        <rect
           style="fill:#000000;stroke:#ffffff;stroke-width:0.489546;stroke-linejoin:round"
           id="rect5-9-1-3-0-4-7"
           width="5.8412356"
           height="10.785408"
           x="-198.68402"
           y="-210.75246"
           transform="matrix(0.59903324,-0.80072416,-1,0,0,0)" />
      </g>
      <path
         id="path1-7-0-3-2-1-2-2"
         style="fill:#f9f9f9;stroke:#ffffff;stroke-width:0.129248;stroke-linejoin:round;stroke-dasharray:none;stroke-dashoffset:0;stroke-opacity:1"
         d="m -371.56965,150.72551 a 0.75152022,0.76794241 9.9841497 0 0 -0.75201,0.77308 0.75152022,0.76794241 9.9841497 0 0 0.17034,0.48392 l -0.009,4e-5 1.15176,1.41313 1.11832,-1.39511 a 0.75152022,0.76794241 9.9841497 0 0 0.1995,-0.52186 0.75152022,0.76794241 9.9841497 0 0 -0.75201,-0.76175 0.75152022,0.76794241 9.9841497 0 0 -0.56329,0.26396 0.75152022,0.76794241 9.9841497 0 0 -0.56371,-0.25547 z" />
      <path
         id="rect1-7-3-7-0-6-4-0-4"
         style="stroke:#ffffff;stroke-width:0.374331;stroke-linejoin:round;stroke-dasharray:none;stroke-dashoffset:0;stroke-opacity:1"
         d="m -384.93691,101.96936 c -0.8248,0.37079 -1.55537,1.91938 -1.01015,2.65001 l 6.16583,8.26265 c 0.54521,0.73063 1.52098,1.09813 2.34578,0.72733 0.8248,-0.37079 1.27825,-1.36971 0.79378,-2.14195 l -5.50106,-8.76871 c -0.48446,-0.77224 -1.96939,-1.10012 -2.79418,-0.72933 z"
         sodipodi:nodetypes="sssssss"
         inkscape:transform-center-x="-2.8406933"
         inkscape:transform-center-y="4.6739597" />
      <g
         id="g4-1-6-0-7-7"
         transform="matrix(-0.77104791,0,0,0.77104791,-253.46452,-10.29881)">
        <path
           id="rect1-7-8-30-8-6-5-6-6-87"
           style="opacity:1;stroke:#ffffff;stroke-width:0.406867;stroke-linejoin:round;stroke-dasharray:none;stroke-dashoffset:0;stroke-opacity:1"
           d="m 161.84474,157.5133 c 1.1623,0.27581 2.01792,1.155 1.75824,1.92974 l -2.42336,7.23003 c -0.25963,0.77476 -0.60435,1.06566 -1.76666,0.78985 -1.16231,-0.27581 -1.38498,-0.7805 -1.25017,-1.58558 l 1.24413,-7.43001 c 0.13483,-0.80507 1.2755,-1.20984 2.43782,-0.93403 z"
           sodipodi:nodetypes="sssssss"
           inkscape:transform-center-x="0.82554781"
           inkscape:transform-center-y="3.6773691" />
        <path
           id="rect1-7-8-5-1-8-52-7-5-6-7-9-2"
           style="opacity:1;stroke:#ffffff;stroke-width:0.485483;stroke-linejoin:round;stroke-dasharray:none;stroke-dashoffset:0;stroke-opacity:1"
           d="m 159.10438,166.15607 c 1.03042,0 2.34886,0.9585 1.85996,1.875 -0.60396,1.1322 -0.51125,2.39878 -1.85996,2.52317 -1.0699,0.0987 -2.2681,-0.78162 -2.19799,-1.71191 0.0781,-1.03582 1.16757,-2.68626 2.19799,-2.68626 z"
           sodipodi:nodetypes="sssss" />
        <path
           id="rect1-7-8-5-1-5-4-8-8-8-0-0-3-1"
           style="opacity:1;stroke:#ffffff;stroke-width:0.485483;stroke-linejoin:round;stroke-dasharray:none;stroke-dashoffset:0;stroke-opacity:1"
           d="m 158.3575,167.8594 c 0.9953,-0.26669 2.01303,0.32637 2.28187,1.32972 l 0.31649,1.18113 c 0.26885,1.00337 -0.316,2.02582 -1.31131,2.29252 -0.9953,0.26669 -1.51056,-0.40932 -1.95964,-1.34608 -0.68218,-1.4228 -1.46628,-2.72794 0.67259,-3.45729 z"
           sodipodi:nodetypes="ssssss" />
        <path
           id="rect1-7-8-5-5-6-7-3-8-5-1-2-6-7"
           style="opacity:1;stroke:#ffffff;stroke-width:0.485483;stroke-linejoin:round;stroke-dasharray:none;stroke-dashoffset:0;stroke-opacity:1"
           d="m 160.27887,166.76453 c 0.26402,-0.15243 0.5863,-0.0851 0.78622,0.26118 l 1.13909,1.97295 c 0.20555,0.35603 0.15906,0.76637 -0.10497,0.91881 -0.26402,0.15243 -0.64263,-0.0125 -0.84819,-0.3685 l -1.13908,-1.97296 c -0.16049,-0.27797 -0.0971,-0.65904 0.16693,-0.81148 z"
           sodipodi:nodetypes="sssssss" />
      </g>
      <path
         id="rect1-7-3-7-0-6-9-1"
         style="stroke:#ffffff;stroke-width:0.374331;stroke-linejoin:round;stroke-dasharray:none;stroke-dashoffset:0;stroke-opacity:1"
         d="m -393.17251,102.28074 c 0.8248,0.37079 1.55537,1.91938 1.01015,2.65001 l -6.16583,8.26265 c -0.54521,0.73063 -1.52098,1.09813 -2.34578,0.72733 -0.8248,-0.37079 -1.27825,-1.36971 -0.79378,-2.14195 l 5.50106,-8.76871 c 0.48446,-0.77224 1.96939,-1.10012 2.79418,-0.72933 z"
         sodipodi:nodetypes="sssssss"
         inkscape:transform-center-x="2.8406965"
         inkscape:transform-center-y="4.6739597" />
      <path
         id="rect1-9-4-4-31-7-8-7-2"
         style="stroke:#ffffff;stroke-width:0.387927;stroke-linejoin:round;stroke-dasharray:none;stroke-dashoffset:0;stroke-opacity:1"
         d="m -385.6567,138.52561 h 1.61153 c 0.9107,0 1.75553,0.79641 1.64385,1.76906 l -1.59696,13.90724 c -0.11169,0.97267 -0.0213,1.63698 -0.93196,1.63698 h -0.72646 c -0.91068,0 -1.64383,-0.789 -1.64383,-1.76907 v -13.77515 c 0,-0.98005 0.73315,-1.76906 1.64383,-1.76906 z"
         sodipodi:nodetypes="sssssssss" />
      <path
         id="rect1-9-1-95-4-6-7-6"
         style="stroke:#ffffff;stroke-width:0.387927;stroke-linejoin:round;stroke-dasharray:none;stroke-dashoffset:0;stroke-opacity:1"
         d="m -393.92072,138.61252 h 1.61153 c 0.91068,0 1.68037,0.78979 1.64383,1.76907 l -0.51391,13.77514 c -0.0365,0.97927 -0.73315,1.76907 -1.64384,1.76907 h -0.61225 c -0.91069,0 -0.87342,-0.7931 -0.95651,-1.76907 l -1.1727,-13.77514 c -0.0831,-0.97598 0.73315,-1.76907 1.64385,-1.76907 z"
         sodipodi:nodetypes="sssssssss" />
      <path
         id="rect1-9-69-4-3-1-8"
         style="stroke:#ffffff;stroke-width:0.359059;stroke-linejoin:round;stroke-dasharray:none;stroke-dashoffset:0;stroke-opacity:1"
         d="m -393.85067,124.76214 2.62667,0.0372 c 0.91256,0.0129 2.55275,0.81702 2.43464,1.64777 l -1.79885,12.65354 c -0.11809,0.83076 -0.73474,1.51227 -1.64742,1.51227 h -1.61504 c -0.91268,0 -1.64402,-0.67447 -1.64742,-1.51227 l -0.0522,-12.81021 c -0.003,-0.83779 0.78704,-1.54114 1.69961,-1.52824 z"
         sodipodi:nodetypes="ssssssssss" />
      <path
         id="rect1-9-4-41-7-7-5-0"
         style="stroke:#ffffff;stroke-width:0.359059;stroke-linejoin:round;stroke-dasharray:none;stroke-dashoffset:0;stroke-opacity:1"
         d="m -386.682,124.61356 2.74806,0.0743 c 0.91229,0.0247 1.70305,0.72239 1.69963,1.56018 l -0.0522,12.77828 c -0.003,0.83779 -0.73475,1.51227 -1.64743,1.51227 h -1.61504 c -0.91267,0 -1.51502,-0.68334 -1.64743,-1.51227 l -2.06786,-12.94564 c -0.1324,-0.82894 1.66998,-1.49177 2.58227,-1.46711 z"
         sodipodi:nodetypes="sssssssss" />
      <path
         id="rect1-0-0-6-1-2"
         style="stroke:none;stroke-width:0.374331;stroke-linejoin:round;stroke-dasharray:none;stroke-dashoffset:0;stroke-opacity:1"
         d="m -393.80294,101.68116 c 4.48101,-1.82227 6.95787,-0.63832 9.79849,0 0.88945,0.19987 1.70826,0.73607 1.64554,1.64554 -0.42584,6.17474 -2.31401,12.63187 -0.41771,18.40141 0.53577,1.63011 0.34141,3.07486 0.41771,4.56138 0.0467,0.91042 -0.73391,1.64553 -1.64554,1.64553 h -9.79849 c -0.91163,0 -1.66848,-0.7342 -1.64554,-1.64553 0.0443,-1.76206 -0.17824,-3.46578 0.44127,-5.4099 1.76085,-5.52563 0.28547,-11.62947 -0.44127,-17.55289 -0.111,-0.90484 0.80107,-1.30213 1.64554,-1.64554 z"
         sodipodi:nodetypes="sssssssssss" />
      <path
         id="rect1-7-8-5-1-5-4-34-31-3-1-9-1"
         style="stroke:#ffffff;stroke-width:0.485783;stroke-linejoin:round;stroke-dasharray:none;stroke-dashoffset:0;stroke-opacity:1"
         d="m -392.18408,153.75958 c -0.70994,-0.70086 -2.11345,-0.87119 -3.14686,-0.38187 l -1.21652,0.57599 c -1.03343,0.48931 -1.29383,1.44747 -0.58389,2.14834 0.70993,0.70088 1.71459,0.55 2.86223,0.19915 1.7432,-0.53283 3.48838,-0.93686 2.08504,-2.54161 z"
         sodipodi:nodetypes="ssssss" />
      <path
         id="rect1-7-8-5-1-5-4-34-0-1-3-5-4-0"
         style="stroke:#ffffff;stroke-width:0.485783;stroke-linejoin:round;stroke-dasharray:none;stroke-dashoffset:0;stroke-opacity:1"
         d="m -386.32735,153.75958 c 0.70994,-0.70086 2.11345,-0.87119 3.14686,-0.38187 l 1.21653,0.57599 c 1.03342,0.48931 1.29382,1.44747 0.58389,2.14834 -0.70994,0.70088 -1.7146,0.55 -2.86224,0.19915 -1.7432,-0.53283 -3.48838,-0.93686 -2.08504,-2.54161 z"
         sodipodi:nodetypes="ssssss" />
      <path
         id="rect1-7-5-6-7-2-3-77"
         style="stroke:#ffffff;stroke-width:0.374331;stroke-linejoin:round;stroke-dasharray:none;stroke-dashoffset:0;stroke-opacity:1"
         d="m -386.91094,100.62431 -0.45533,-2.679 c -0.24664,-1.45118 -2.90482,-1.35352 -3.18643,0.37283 l -0.40194,2.46403 c -0.34759,2.13083 4.40355,1.95946 4.0437,-0.15786 z"
         sodipodi:nodetypes="sssss" />
      <path
         id="path1-73-1-3-2-1"
         style="stroke:#ffffff;stroke-width:0.306754;stroke-linejoin:round;stroke-dasharray:none;stroke-dashoffset:0;stroke-opacity:1"
         d="m -385.37765,95.43186 c 0,2.21459 -1.3781,4.57763 -3.60666,4.57763 -2.22856,0 -3.54952,-2.36304 -3.54952,-4.57763 0,-2.2146 1.32096,-3.44213 3.54952,-3.44213 2.22856,0 3.60666,1.22753 3.60666,3.44213 z"
         sodipodi:nodetypes="sssss" />
      <g
         id="g4-1-6-1-8"
         transform="matrix(0.77104791,0,0,0.77104791,-524.64488,-9.98743)">
        <path
           id="rect1-7-8-30-8-6-5-0-4"
           style="opacity:1;stroke:#ffffff;stroke-width:0.406867;stroke-linejoin:round;stroke-dasharray:none;stroke-dashoffset:0;stroke-opacity:1"
           d="m 161.84474,157.5133 c 1.1623,0.27581 2.01792,1.155 1.75824,1.92974 l -2.42336,7.23003 c -0.25963,0.77476 -0.60435,1.06566 -1.76666,0.78985 -1.16231,-0.27581 -1.38498,-0.7805 -1.25017,-1.58558 l 1.24413,-7.43001 c 0.13483,-0.80507 1.2755,-1.20984 2.43782,-0.93403 z"
           sodipodi:nodetypes="sssssss"
           inkscape:transform-center-x="0.82554781"
           inkscape:transform-center-y="3.6773691" />
        <path
           id="rect1-7-8-5-1-8-52-7-5-6-76-0"
           style="opacity:1;stroke:#ffffff;stroke-width:0.485483;stroke-linejoin:round;stroke-dasharray:none;stroke-dashoffset:0;stroke-opacity:1"
           d="m 159.10438,166.15607 c 1.03042,0 2.34886,0.9585 1.85996,1.875 -0.60396,1.1322 -0.51125,2.39878 -1.85996,2.52317 -1.0699,0.0987 -2.2681,-0.78162 -2.19799,-1.71191 0.0781,-1.03582 1.16757,-2.68626 2.19799,-2.68626 z"
           sodipodi:nodetypes="sssss" />
        <path
           id="rect1-7-8-5-1-5-4-8-8-8-0-7-2"
           style="opacity:1;stroke:#ffffff;stroke-width:0.485483;stroke-linejoin:round;stroke-dasharray:none;stroke-dashoffset:0;stroke-opacity:1"
           d="m 158.3575,167.8594 c 0.9953,-0.26669 2.01303,0.32637 2.28187,1.32972 l 0.31649,1.18113 c 0.26885,1.00337 -0.316,2.02582 -1.31131,2.29252 -0.9953,0.26669 -1.51056,-0.40932 -1.95964,-1.34608 -0.68218,-1.4228 -1.46628,-2.72794 0.67259,-3.45729 z"
           sodipodi:nodetypes="ssssss" />
        <path
           id="rect1-7-8-5-5-6-7-3-8-5-1-9-6"
           style="opacity:1;stroke:#ffffff;stroke-width:0.485483;stroke-linejoin:round;stroke-dasharray:none;stroke-dashoffset:0;stroke-opacity:1"
           d="m 160.27887,166.76453 c 0.26402,-0.15243 0.5863,-0.0851 0.78622,0.26118 l 1.13909,1.97295 c 0.20555,0.35603 0.15906,0.76637 -0.10497,0.91881 -0.26402,0.15243 -0.64263,-0.0125 -0.84819,-0.3685 l -1.13908,-1.97296 c -0.16049,-0.27797 -0.0971,-0.65904 0.16693,-0.81148 z"
           sodipodi:nodetypes="sssssss" />
      </g>
    </g>
  </g>
</svg>
