<?xml version="1.0" encoding="UTF-8" standalone="no"?>
<!-- Created with Inkscape (http://www.inkscape.org/) -->

<svg
   width="34.295063mm"
   height="68.823334mm"
   viewBox="0 0 34.295063 68.823334"
   version="1.1"
   id="svg1"
   xmlns:inkscape="http://www.inkscape.org/namespaces/inkscape"
   xmlns:sodipodi="http://sodipodi.sourceforge.net/DTD/sodipodi-0.dtd"
   xmlns="http://www.w3.org/2000/svg"
   xmlns:svg="http://www.w3.org/2000/svg">
  <sodipodi:namedview
     id="namedview1"
     pagecolor="#ffffff"
     bordercolor="#000000"
     borderopacity="0.25"
     inkscape:showpageshadow="2"
     inkscape:pageopacity="0.0"
     inkscape:pagecheckerboard="0"
     inkscape:deskcolor="#d1d1d1"
     inkscape:document-units="mm" />
  <defs
     id="defs1" />
  <g
     inkscape:label="Layer 1"
     inkscape:groupmode="layer"
     id="layer1"
     transform="translate(1010.6355,-91.518766)">
    <g
       id="g92"
       transform="translate(-1729.164,-790.8249)">
      <path
         id="rect1-7-8-5-5-6-7-3-8-5-1-5-25-2-1-8"
         style="fill:#000000;stroke:none;stroke-width:0.374331;stroke-linejoin:round;stroke-dasharray:none;stroke-dashoffset:0;stroke-opacity:1"
         d="m 744.0198,882.35237 c -3.1693,-0.1187 -5.98411,2.901 -5.68901,6.0515 -0.0539,1.094 0.21331,2.2342 0.51714,3.2297 -2.21207,1.1847 -4.35395,2.4991 -6.59479,3.6326 -1.94796,0.9751 -4.08149,1.4702 -6.12274,2.2042 -0.80452,0.3377 -1.6126,-0.2565 -2.44883,-0.2055 -1.45522,-0.1858 -3.0082,0.653 -3.41372,2.1109 -0.32857,0.6708 -1.07693,1.0573 -1.31795,1.8058 -0.94874,1.8504 -0.2575,4.4097 1.69099,5.2958 1.41538,0.7158 3.12418,0.3887 4.39373,-0.4729 1.40214,-0.6591 2.93539,-0.9635 4.45002,-1.242 -0.40973,0.5159 -0.99567,0.941 -1.20952,1.6161 -0.86426,1.8391 -0.15104,4.4584 1.89315,5.1349 2.1506,0.8497 4.67624,0.338 6.50973,-1.0088 -0.18753,2.8529 -0.52285,5.7135 -1.3433,8.4624 -0.85522,3.5916 -1.83783,7.1605 -2.49868,10.7934 -0.23813,2.6526 0.30265,5.2927 0.43537,7.9379 0.12821,1.5093 0.26572,3.0179 0.37146,4.529 -1.7956,0.5861 -3.28537,2.5593 -2.62865,4.48 0.65103,2.2935 3.32147,3.4273 5.54091,2.9885 0.79552,-0.048 1.59528,-0.179 2.36703,-0.3416 1.30165,1.7731 3.74599,2.0621 5.76112,1.6432 1.76133,-0.1587 3.89198,-0.6974 4.61193,-2.5201 0.58678,-1.6606 0.12035,-3.4388 0.27344,-5.1528 0.0354,-4.2037 -0.10858,-8.4125 0.0234,-12.6128 0.36383,-4.4119 0.90984,-8.8165 1.07414,-13.24 -0.22811,-2.6072 -0.99007,-5.2101 -0.54281,-7.8362 0.35483,-2.2335 0.88389,-4.4527 1.49414,-6.6016 0.68176,-1.3875 1.15473,-2.883 1.18631,-4.4404 0.16078,-1.6443 -0.67675,-3.2249 -1.97696,-4.197 -0.64142,-0.5354 -1.37044,-0.9548 -2.11365,-1.3314 0.14244,-1.7395 1.18531,-3.2763 1.23265,-5.041 0.24154,-2.1794 -1.02609,-4.4619 -3.12695,-5.2124 -0.88284,-0.3622 -1.84778,-0.5067 -2.79906,-0.4594 z" />
      <path
         id="rect1-7-8-5-5-6-7-3-8-5-1-5-25-2-5"
         style="fill:#ffffff;stroke:#000000;stroke-width:0.374331;stroke-linejoin:round;stroke-dasharray:none;stroke-dashoffset:0;stroke-opacity:1"
         d="m 743.77138,883.19077 c -2.45861,-0.09 -4.72073,2.1108 -4.62446,4.5865 -0.10262,1.4655 0.19255,2.9772 0.93892,4.2514 -1.29883,0.1954 -2.24756,1.1479 -3.41249,1.6597 -2.29402,1.2193 -4.4073,2.6983 -6.91508,3.3818 -1.4468,0.4855 -2.8936,0.971 -4.3404,1.4566 -1.10915,-0.2965 -2.38902,-0.7083 -3.48588,-0.1981 -0.67252,0.3277 -0.92033,1.1081 -1.1091,1.725 -1.29243,0.8929 -1.97392,2.7264 -1.13354,4.1508 0.76137,1.3997 2.74997,1.8413 4.04097,0.9093 0.99853,-0.5204 2.0763,-0.877 3.14912,-1.1933 2.37069,-0.453 4.75367,-0.8686 7.10025,-1.4403 1.14943,-0.266 2.20788,-0.7973 3.2995,-1.2288 -0.0267,0.5865 0.40339,1.4435 -0.4471,1.5421 -0.7589,0.3437 -1.52037,0.683 -2.25797,1.0712 -1.21078,-0.3878 -2.77804,-0.9983 -3.83594,0.051 -0.37181,0.3483 -0.48154,0.8954 -0.58399,1.3379 -1.71396,0.98 -2.0407,3.8905 -0.19726,4.9121 2.10979,1.0311 4.74753,0.3516 6.41602,-1.2012 0.39768,0.072 1.23074,-0.5637 1.20703,-0.045 -0.10532,2.4459 -0.39922,4.8877 -0.75226,7.305 -0.97366,3.5308 -1.75617,7.1124 -2.6365,10.6674 -0.32706,1.3696 -0.66998,2.74 -0.63827,4.1571 0.15942,2.6321 0.45097,5.2646 0.65078,7.8979 0.0843,1.2749 0.2718,2.6255 0.29226,3.8534 -1.37794,0.2604 -2.92055,1.2646 -2.81836,2.8399 0.11547,1.9785 2.33163,3.1187 4.1331,2.8062 1.13095,-0.035 2.35855,-0.245 3.37862,-0.5269 0.68265,1.6754 2.73573,2.1935 4.37505,1.89 1.4457,-0.1455 3.11027,-0.2642 4.18355,-1.3549 0.90334,-1.24 0.36654,-2.8378 0.50835,-4.2484 9.2e-4,-4.3216 -0.0122,-8.6449 -0.049,-12.9651 0.39236,-4.5524 0.89062,-9.1005 1.17739,-13.6615 -0.22224,-1.5838 -0.33987,-3.1824 -0.65736,-4.7505 -0.35707,-3.499 0.8169,-6.8813 1.54799,-10.2495 0.9703,-1.7192 1.48057,-3.8091 1.07802,-5.7591 -0.71904,-1.6423 -2.41268,-2.5935 -3.93154,-3.3073 -0.11143,-1.0826 0.13732,-2.1509 0.59023,-3.1338 0.60928,-1.7858 1.13104,-4.0251 -0.20546,-5.624 -0.96768,-1.1675 -2.55548,-1.6665 -4.03516,-1.5644 z m -2.18945,61.3926 c -0.77852,0.4703 -0.37773,-0.4661 -0.42661,-0.9154 0.0381,-0.7456 0.0349,-1.4928 0.0575,-2.2389 0.12305,1.0514 0.24609,2.1029 0.36914,3.1543 z" />
      <path
         id="rect1-7-8-5-5-6-7-3-8-5-1-5-25-9"
         style="fill:#4d4d4d;stroke:none;stroke-width:0.374331;stroke-linejoin:round;stroke-dasharray:none;stroke-dashoffset:0;stroke-opacity:1"
         d="m 725.47277,900.32727 c 0.0427,-0.2311 -0.0893,-0.4479 -0.39252,-0.5039 l -1.72738,-0.319 c -0.31171,-0.058 -0.5979,0.082 -0.64058,0.3132 -0.0427,0.2312 0.17475,0.4638 0.48648,0.5213 l 1.72738,0.319 c 0.24337,0.045 0.50393,-0.099 0.54662,-0.3306 z"
         sodipodi:nodetypes="sssssss" />
      <path
         id="rect1-7-3-7-0-3-9-3-9-7-1-4-5"
         style="fill:#4d4d4d;stroke:none;stroke-width:0.374331;stroke-linejoin:round;stroke-dasharray:none;stroke-dashoffset:0;stroke-opacity:1"
         d="m 741.58295,895.12487 c 0.50801,0.7481 0.31335,2.438 -0.52917,2.7862 l -6.69279,2.7655 c -0.84252,0.3482 -1.87091,0.1377 -2.37886,-0.6105 -0.50793,-0.7482 -0.35017,-1.798 0.44706,-2.2401 l 6.39199,-3.545 c 0.79723,-0.4422 2.2538,0.096 2.76174,0.8439 z"
         sodipodi:nodetypes="ssssssss"
         inkscape:transform-center-x="4.9372213"
         inkscape:transform-center-y="2.3757066" />
      <path
         id="rect1-7-8-30-8-6-6-5-6-4-9-9-4-6"
         style="fill:#4d4d4d;stroke:none;stroke-width:0.313714;stroke-linejoin:round;stroke-dasharray:none;stroke-dashoffset:0;stroke-opacity:1"
         d="m 734.23465,898.90517 c 0.30013,0.8708 0.0867,1.8178 -0.531,1.9416 l -7.17622,1.4382 c -0.61776,0.1238 -0.94351,0.046 -1.24365,-0.8245 -0.30014,-0.8709 -0.0801,-1.2685 0.51656,-1.4687 l 6.81972,-2.2887 c 0.59668,-0.2002 1.3144,0.3313 1.61456,1.2021 z"
         sodipodi:nodetypes="sssssss"
         inkscape:transform-center-x="3.4714137"
         inkscape:transform-center-y="1.2479144" />
      <path
         id="rect1-7-2-76-1-7-2-6-7-2-5-0-7-3"
         style="fill:#4d4d4d;stroke:none;stroke-width:0.374331;stroke-linejoin:round;stroke-dasharray:none;stroke-dashoffset:0;stroke-opacity:1"
         d="m 750.15965,897.51857 c -0.0195,-0.9041 -1.30442,-1.5689 -2.01507,-0.998 l -7.36314,5.9148 c -0.71071,0.5709 -1.57799,1.0145 -1.53422,1.9178 0.0438,0.9033 0.88775,1.928 1.70377,1.5216 l 7.92904,-3.9492 c 0.68264,-0.5944 1.2819,-2.7281 1.27962,-4.407 z"
         sodipodi:nodetypes="csssscc"
         inkscape:transform-center-x="3.8014056"
         inkscape:transform-center-y="2.0989427" />
      <path
         id="rect1-9-4-4-31-7-1-4-3-0-5-7-99-5"
         style="fill:#4d4d4d;stroke:none;stroke-width:0.387927;stroke-linejoin:round;stroke-dasharray:none;stroke-dashoffset:0;stroke-opacity:1"
         d="m 743.42066,930.48687 1.60066,-0.1868 c 0.90456,-0.1056 1.83601,0.5876 1.83781,1.5666 l 0.0257,13.9986 c 0.002,0.9791 0.1686,1.6284 -0.73595,1.734 l -0.72155,0.084 c -0.90455,0.1055 -1.7242,-0.5932 -1.8378,-1.5666 l -1.5966,-13.6824 c -0.1136,-0.9734 0.52316,-1.8421 1.42771,-1.9476 z"
         sodipodi:nodetypes="sssssssss" />
      <path
         id="rect1-9-1-95-4-0-1-8-0-2-1-48-5"
         style="fill:#4d4d4d;stroke:none;stroke-width:0.387927;stroke-linejoin:round;stroke-dasharray:none;stroke-dashoffset:0;stroke-opacity:1"
         d="m 736.97924,929.10047 h 1.61153 c 0.91068,0 1.68037,0.7898 1.64383,1.7691 l -0.51391,13.7751 c -0.0365,0.9793 -0.73315,1.7691 -1.64384,1.7691 h -0.61225 c -0.91069,0 -0.87342,-0.7931 -0.95651,-1.7691 l -1.1727,-13.7751 c -0.0831,-0.976 0.73316,-1.7691 1.64385,-1.7691 z"
         sodipodi:nodetypes="sssssssss" />
      <path
         id="rect1-9-69-4-8-4-7-7-73-7-1-3"
         style="fill:#4d4d4d;stroke:none;stroke-width:0.359059;stroke-linejoin:round;stroke-dasharray:none;stroke-dashoffset:0;stroke-opacity:1"
         d="m 740.4678,915.67197 2.54141,0.6649 c 0.88295,0.2309 2.28297,1.4043 1.96943,2.1826 l -4.77553,11.8551 c -0.31352,0.7783 -1.07539,1.2924 -1.96153,1.0739 l -1.56809,-0.3866 c -0.88613,-0.2185 -1.43475,-1.0484 -1.23752,-1.8626 l 3.01579,-12.4503 c 0.19755,-0.8142 1.13308,-1.308 2.01603,-1.077 z"
         sodipodi:nodetypes="ssssssssss" />
      <path
         id="rect1-9-4-41-7-6-1-1-5-8-1-5-2"
         style="fill:#4d4d4d;stroke:none;stroke-width:0.359059;stroke-linejoin:round;stroke-dasharray:none;stroke-dashoffset:0;stroke-opacity:1"
         d="m 743.73668,915.86197 2.73139,0.3113 c 0.90675,0.1033 1.63432,0.8667 1.55857,1.7011 l -1.1552,12.726 c -0.0754,0.8344 -0.86256,1.4432 -1.77184,1.3644 l -1.609,-0.1394 c -0.90927,-0.079 -1.45037,-0.8116 -1.51072,-1.6488 l -0.94249,-13.0759 c -0.0604,-0.8373 1.79253,-1.342 2.69928,-1.2387 z"
         sodipodi:nodetypes="sssssssss" />
      <path
         id="rect1-0-0-2-5-8-0-4-2-0-8"
         style="fill:#4d4d4d;stroke:none;stroke-width:0.314577;stroke-linejoin:round;stroke-dasharray:none;stroke-dashoffset:0;stroke-opacity:1"
         d="m 739.81899,893.65027 c 3.00028,-1.0108 4.94787,0.4451 6.95399,1.0834 0.62816,0.1999 2.9867,1.3534 2.94241,2.2628 -0.30075,6.1748 -3.45323,11.6066 -2.11401,17.3762 0.37838,1.6301 0.24111,3.0748 0.295,4.5614 0.033,0.9104 -0.64151,2.0383 -1.16213,1.6455 l -4.81778,-3.6349 c -0.52062,-0.3928 -3.29412,2.9001 -3.2643,1.9894 0.0565,-1.7288 -0.0164,-3.3217 0.31164,-5.4099 0.88653,-5.6437 0.2016,-11.6295 -0.31164,-17.5529 -0.0784,-0.9049 0.53621,-2.1085 1.16682,-2.321 z"
         sodipodi:nodetypes="sssssssssss" />
      <path
         id="rect1-7-8-5-1-5-4-34-31-3-6-5-5-8-2-4-2-4"
         style="fill:#4d4d4d;stroke:none;stroke-width:0.453133;stroke-linejoin:round;stroke-dasharray:none;stroke-dashoffset:0;stroke-opacity:1"
         d="m 738.97403,944.77597 c -0.62285,-0.6996 -2.00014,-1.0414 -3.08805,-0.7664 l -1.28068,0.3238 c -1.08793,0.275 -1.46233,1.0597 -0.83947,1.7593 0.62284,0.6996 1.64147,0.7106 2.82652,0.5701 1.80001,-0.2132 3.58653,-0.3159 2.38168,-1.8868 z"
         sodipodi:nodetypes="ssssss" />
      <path
         id="rect1-7-8-5-1-5-4-34-0-1-3-9-6-4-0-6-7-9-4"
         style="fill:#4d4d4d;stroke:none;stroke-width:0.419911;stroke-linejoin:round;stroke-dasharray:none;stroke-dashoffset:0;stroke-opacity:1"
         d="m 746.1116,946.30487 c -0.72948,-0.5834 -2.13739,-0.8257 -3.15673,-0.5432 l -1.19996,0.3325 c -1.01936,0.2825 -1.2527,0.9796 -0.52323,1.5629 0.72947,0.5835 1.72961,0.5524 2.86704,0.383 1.7277,-0.2571 3.46101,-0.4176 2.01288,-1.7352 z"
         sodipodi:nodetypes="ssssss" />
      <path
         id="rect1-7-5-6-7-4-6-3-1-3-5-5-2"
         style="fill:#4d4d4d;stroke:none;stroke-width:0.374331;stroke-linejoin:round;stroke-dasharray:none;stroke-dashoffset:0;stroke-opacity:1"
         d="m 746.04726,894.12877 0.0408,-3.5389 c 0.017,-1.4719 -2.90483,-1.3535 -3.18644,0.3728 l -0.40194,2.464 c -0.34759,2.1309 3.52286,2.8496 3.54761,0.7021 z"
         sodipodi:nodetypes="sssss" />
      <path
         id="path1-73-1-5-7-3-7-0-4-71-1"
         style="fill:#4d4d4d;stroke:none;stroke-width:0.287201;stroke-linejoin:round;stroke-dasharray:none;stroke-dashoffset:0;stroke-opacity:1"
         d="m 747.1684,888.07367 c -0.50452,2.1619 -1.20507,4.5893 -3.15384,4.5901 -1.94877,9e-4 -3.10388,-2.3675 -3.10388,-4.5874 0,-2.22 1.15656,-3.3766 3.10388,-3.4519 2.25026,-0.087 3.70893,1.0706 3.15384,3.4492 z"
         sodipodi:nodetypes="sssss" />
      <path
         id="rect1-7-8-3-2-6-6-1-0-0-7-4-5-8-8"
         style="fill:#4d4d4d;stroke:none;stroke-width:0.317429;stroke-linejoin:round;stroke-dasharray:none;stroke-dashoffset:0;stroke-opacity:1"
         d="m 744.52908,902.97547 c -0.24857,-0.8858 -0.98096,-1.5522 -1.56855,-1.2846 l -7.07814,3.2231 c -0.58758,0.2676 -0.82396,0.5048 -0.57534,1.3906 0.24857,0.8859 0.66912,1.102 1.28357,0.9057 l 7.26745,-2.3215 c 0.61445,-0.1962 0.91963,-1.0274 0.67101,-1.9132 z"
         sodipodi:nodetypes="sssssss"
         inkscape:transform-center-x="3.9264431"
         inkscape:transform-center-y="0.63511165" />
      <path
         id="rect1-7-8-5-1-8-7-5-7-9-2-9-8-5-3-1-1-3"
         style="fill:#4d4d4d;stroke:none;stroke-width:0.374331;stroke-linejoin:round;stroke-dasharray:none;stroke-dashoffset:0;stroke-opacity:1"
         d="m 735.86864,906.88757 c 0.0142,-0.7943 -0.70708,-1.8238 -1.42024,-1.4593 -0.88104,0.4502 -1.85621,0.3615 -1.97042,1.3996 -0.0906,0.8235 0.57175,1.7592 1.28989,1.7178 0.7996,-0.046 2.08676,-0.8637 2.10077,-1.6581 z"
         sodipodi:nodetypes="sssss"
         inkscape:transform-center-x="8.8090691"
         inkscape:transform-center-y="2.6353789" />
      <path
         id="rect1-7-8-5-5-6-7-7-5-4-9-4-6-1-3-3-2-4-3"
         style="fill:#4d4d4d;stroke:none;stroke-width:0.374331;stroke-linejoin:round;stroke-dasharray:none;stroke-dashoffset:0;stroke-opacity:1"
         d="m 734.70485,905.74547 c 0.0605,-0.2272 -0.0539,-0.4536 -0.35226,-0.5329 l -1.69742,-0.452 c -0.30642,-0.081 -0.60246,0.035 -0.66295,0.2625 -0.0603,0.2272 0.13825,0.476 0.44458,0.5575 l 1.69743,0.452 c 0.23914,0.064 0.51012,-0.06 0.5706,-0.2872 z"
         sodipodi:nodetypes="sssssss"
         inkscape:transform-center-x="9.5464727"
         inkscape:transform-center-y="1.010782" />
      <path
         id="rect1-7-8-5-1-5-4-364-1-3-9-8-1-8-3-7-2-3-6"
         style="fill:#4d4d4d;stroke:none;stroke-width:0.374331;stroke-linejoin:round;stroke-dasharray:none;stroke-dashoffset:0;stroke-opacity:1"
         d="m 734.28848,907.29247 c -0.13643,-0.7827 -0.88153,-1.302 -1.67052,-1.1645 l -0.92885,0.1619 c -0.78903,0.1376 -1.31439,0.8785 -1.17789,1.6612 0.13643,0.7827 0.77647,0.9237 1.57739,0.9338 1.21653,0.015 2.38385,0.1403 2.19991,-1.5923 z"
         sodipodi:nodetypes="ssssss"
         inkscape:transform-center-x="10.579621"
         inkscape:transform-center-y="3.1848687" />
      <path
         id="rect1-7-8-5-1-8-52-7-5-6-4-3-7"
         style="fill:#4d4d4d;stroke:none;stroke-width:0.374331;stroke-linejoin:round;stroke-dasharray:none;stroke-dashoffset:0;stroke-opacity:1"
         d="m 726.1604,901.99227 c 0.27331,-0.746 -0.0709,-1.9548 -0.86414,-1.8439 -0.9799,0.1369 -1.8723,-0.2661 -2.32009,0.6773 -0.35524,0.7484 -0.0357,1.8494 0.6564,2.0454 0.77064,0.2182 2.25452,-0.1328 2.52783,-0.8788 z"
         sodipodi:nodetypes="sssss" />
      <path
         id="rect1-7-8-5-1-5-4-8-8-8-0-9-5-5"
         style="fill:#4d4d4d;stroke:none;stroke-width:0.374331;stroke-linejoin:round;stroke-dasharray:none;stroke-dashoffset:0;stroke-opacity:1"
         d="m 724.45345,901.10587 c -0.4868,-0.6279 -1.38829,-0.7384 -2.02126,-0.2476 l -0.74513,0.5777 c -0.63299,0.4907 -0.75065,1.3913 -0.26386,2.0192 0.4868,0.6279 1.11844,0.4531 1.83103,0.087 1.08238,-0.5556 2.17247,-0.9913 1.19922,-2.4366 z"
         sodipodi:nodetypes="ssssss" />
    </g>
  </g>
</svg>
