<?xml version="1.0" encoding="UTF-8" standalone="no"?>
<!-- Created with Inkscape (http://www.inkscape.org/) -->

<svg
   width="36.22789mm"
   height="80.516747mm"
   viewBox="0 0 36.22789 80.516747"
   version="1.1"
   id="svg1"
   xmlns:inkscape="http://www.inkscape.org/namespaces/inkscape"
   xmlns:sodipodi="http://sodipodi.sourceforge.net/DTD/sodipodi-0.dtd"
   xmlns="http://www.w3.org/2000/svg"
   xmlns:svg="http://www.w3.org/2000/svg">
  <sodipodi:namedview
     id="namedview1"
     pagecolor="#ffffff"
     bordercolor="#000000"
     borderopacity="0.25"
     inkscape:showpageshadow="2"
     inkscape:pageopacity="0.0"
     inkscape:pagecheckerboard="0"
     inkscape:deskcolor="#d1d1d1"
     inkscape:document-units="mm" />
  <defs
     id="defs1" />
  <g
     inkscape:label="Layer 1"
     inkscape:groupmode="layer"
     id="layer1"
     transform="translate(1011.602,-201.00674)">
    <g
       id="g102"
       transform="translate(-1712.7478,160.96222)">
      <path
         style="fill:#252121;stroke:none;stroke-width:0.213772"
         d="m 724.67042,40.065502 c 0.26754,0.0849 0.31484,0.42786 0.15796,0.63164 -0.20015,0.26 -0.49694,0.46229 -0.71872,0.7075 -0.43784,0.4841 -0.82276,1.02807 -1.11483,1.61214 -1.12857,2.25686 -1.13248,4.94478 0.13221,7.15569 0.45773,0.80021 1.08606,1.35465 1.67856,2.03752 0.25077,0.28902 0.054,0.71133 -0.33305,0.6747 -0.24823,-0.0235 -0.45722,-0.2846 -0.62223,-0.44955 -0.46531,-0.46513 -0.88004,-0.9681 -1.22817,-1.5273 -1.54547,-2.48246 -1.6194,-5.48477 -0.42822,-8.11732 0.37553,-0.82994 0.95919,-1.59376 1.59982,-2.23438 0.22269,-0.22269 0.5153,-0.60534 0.87667,-0.49064 m 1.01831,1.18491 c 0.25297,0.0537 0.39568,0.34267 0.27777,0.57848 -0.0872,0.17447 -0.28344,0.29076 -0.41908,0.42466 -0.23477,0.23178 -0.44971,0.49563 -0.64231,0.76323 -1.26459,1.75708 -1.4731,4.17535 -0.4818,6.10921 0.37925,0.73985 0.9175,1.25855 1.46033,1.86673 0.22177,0.24846 0.10193,0.7154 -0.27975,0.69918 -0.21066,-0.009 -0.36174,-0.18728 -0.50911,-0.31524 -0.40782,-0.35415 -0.74284,-0.81051 -1.03675,-1.26075 -1.29661,-1.9863 -1.39767,-4.62651 -0.32774,-6.73144 0.32218,-0.63385 0.75923,-1.26389 1.27966,-1.75103 0.17414,-0.163 0.41022,-0.44008 0.67878,-0.38303 m 2.94147,0.39514 c 0.42582,0.0318 0.75483,0.39822 1.07477,0.64576 0.70889,0.54849 1.40954,1.10799 2.12125,1.65276 0.54109,0.41417 1.454,-0.13584 2.03599,0.24785 0.34319,0.22626 0.33981,0.5801 0.33981,0.94612 v 2.31924 c 0,0.34841 0.0728,0.76944 -0.12865,1.07435 -0.50403,0.76305 -1.65574,-0.002 -2.27543,0.48125 -0.72598,0.56553 -1.45427,1.12835 -2.17782,1.69698 -0.30772,0.24182 -0.64805,0.61119 -1.07477,0.5793 -0.94262,-0.0704 -0.76365,-1.16188 -0.76365,-1.82377 v -5.91122 c 0,-0.65239 -0.19179,-1.98636 0.8485,-1.90862 m -0.0566,0.80557 v 8.03247 c 0.71884,-0.35807 1.37256,-1.04544 2.00811,-1.53718 0.22754,-0.17605 0.65058,-0.39243 0.79115,-0.64546 0.0656,-0.11803 0.029,-0.31682 0.029,-0.44771 v -1.04648 -1.49902 c 0,-0.18828 0.0529,-0.47165 -0.0171,-0.64798 -0.0956,-0.24117 -0.54429,-0.47235 -0.74659,-0.62813 -0.65489,-0.5043 -1.32536,-1.21224 -2.06468,-1.58051 m -1.92327,0.41113 c 0.35114,0.0795 0.39286,0.48365 0.16673,0.71767 -0.34434,0.35637 -0.65602,0.69221 -0.89335,1.13387 -0.56731,1.05574 -0.5627,2.38409 -0.0294,3.45057 0.17689,0.35373 0.41504,0.66888 0.67924,0.96122 0.10546,0.11668 0.24925,0.20304 0.33107,0.33983 0.16286,0.27233 -0.0391,0.64351 -0.36743,0.61576 -0.4501,-0.0381 -0.93297,-0.80635 -1.14262,-1.15316 -0.83957,-1.38892 -0.9313,-3.12707 -0.19359,-4.58191 0.2267,-0.44707 0.53623,-0.89813 0.91237,-1.23246 0.153,-0.13599 0.31291,-0.30209 0.53698,-0.25139 m 5.14756,1.99296 v 3.2243 h 1.61216 v -3.2243 z"
         id="path35-3" />
      <path
         id="rect1-7-8-5-5-6-7-3-8-5-1-5-7"
         style="stroke:#ffffff;stroke-width:0.374331;stroke-linejoin:round;stroke-dasharray:none;stroke-dashoffset:0;stroke-opacity:1"
         d="m 712.49968,72.530657 c 0.0427,-0.23115 -0.0893,-0.44798 -0.39252,-0.50396 l -1.72738,-0.31896 c -0.31171,-0.0576 -0.5979,0.082 -0.64058,0.3132 -0.0427,0.23116 0.17475,0.46376 0.48648,0.52132 l 1.72738,0.31896 c 0.24337,0.0449 0.50393,-0.0994 0.54662,-0.33056 z"
         sodipodi:nodetypes="sssssss" />
      <path
         id="rect10-1-1-3-8-0-0-6-1-6"
         style="fill:#cccccc;stroke-width:0.22124;stroke-linejoin:round"
         d="m 712.68725,76.424187 -7.47034,3.25252 -1.58802,-0.2403 -2.48305,2.18281 9.76271,-1.08107 -2.4381,-0.36897 7.51376,-3.30005 z" />
      <path
         id="rect10-1-1-3-8-0-0-6-1-4-8"
         style="fill:#cccccc;stroke-width:0.22124;stroke-linejoin:round"
         d="m 720.24823,66.999247 -3.21467,-0.51105 7.91719,-3.44723 3.29737,0.4449 z"
         sodipodi:nodetypes="ccccc" />
      <path
         id="rect10-1-1-3-8-0-0-6-6-1-3-9"
         style="fill:#cccccc;stroke-width:0.182247;stroke-linejoin:round"
         d="m 713.40946,68.236247 2.48305,-2.18328 7.27955,1.10208 z"
         sodipodi:nodetypes="cccc" />
      <path
         id="rect1-7-3-7-0-3-9-3-9-7-1-29"
         style="stroke:#ffffff;stroke-width:0.374331;stroke-linejoin:round;stroke-dasharray:none;stroke-dashoffset:0;stroke-opacity:1"
         d="m 728.60986,67.328207 c 0.50801,0.74814 0.31335,2.43805 -0.52917,2.78619 l -6.69279,2.76553 c -0.84252,0.34814 -1.87091,0.13768 -2.37886,-0.6105 -0.50793,-0.74819 -0.35017,-1.79802 0.44706,-2.24015 l 6.39199,-3.54498 c 0.79723,-0.44215 2.2538,0.0957 2.76174,0.8439 z"
         sodipodi:nodetypes="ssssssss"
         inkscape:transform-center-x="4.9372213"
         inkscape:transform-center-y="2.3757066" />
      <path
         id="rect1-7-8-30-8-6-6-5-6-4-9-9-5"
         style="stroke:#ffffff;stroke-width:0.313714;stroke-linejoin:round;stroke-dasharray:none;stroke-dashoffset:0;stroke-opacity:1"
         d="m 721.26156,71.108527 c 0.30013,0.87081 0.0867,1.8178 -0.531,1.94161 l -7.17622,1.43815 c -0.61776,0.1238 -0.94351,0.0463 -1.24365,-0.82452 -0.30014,-0.87083 -0.0801,-1.26842 0.51656,-1.46868 l 6.81972,-2.28868 c 0.59668,-0.20024 1.3144,0.33129 1.61456,1.2021 z"
         sodipodi:nodetypes="sssssss"
         inkscape:transform-center-x="3.4714137"
         inkscape:transform-center-y="1.2479144" />
      <path
         id="rect1-7-2-76-1-7-2-6-7-2-5-0-2"
         style="stroke:#ffffff;stroke-width:0.374331;stroke-linejoin:round;stroke-dasharray:none;stroke-dashoffset:0;stroke-opacity:1"
         d="m 737.18656,69.721907 c -0.0195,-0.90411 -1.30442,-1.56891 -2.01507,-0.99804 l -7.36314,5.91486 c -0.71071,0.57091 -1.57799,1.01452 -1.53422,1.91777 0.0438,0.90327 0.88775,1.92802 1.70377,1.52159 l 7.92904,-3.94915 c 0.68264,-0.59444 1.2819,-2.72812 1.27962,-4.40703 z"
         sodipodi:nodetypes="csssscc"
         inkscape:transform-center-x="3.8014056"
         inkscape:transform-center-y="2.0989427" />
      <path
         id="rect1-9-4-4-31-7-1-4-3-0-5-7-06"
         style="stroke:#ffffff;stroke-width:0.387927;stroke-linejoin:round;stroke-dasharray:none;stroke-dashoffset:0;stroke-opacity:1"
         d="m 730.44757,102.6902 1.60066,-0.18679 c 0.90456,-0.10555 1.83601,0.58757 1.83781,1.56661 l 0.0257,13.9986 c 0.002,0.97906 0.1686,1.62841 -0.73595,1.73396 l -0.72155,0.0842 c -0.90455,0.10555 -1.7242,-0.59316 -1.8378,-1.56662 l -1.5966,-13.68229 c -0.1136,-0.97345 0.52316,-1.84212 1.42771,-1.94767 z"
         sodipodi:nodetypes="sssssssss" />
      <path
         id="rect1-9-1-95-4-0-1-8-0-2-1-9"
         style="stroke:#ffffff;stroke-width:0.387927;stroke-linejoin:round;stroke-dasharray:none;stroke-dashoffset:0;stroke-opacity:1"
         d="m 724.00615,101.30384 h 1.61153 c 0.91068,0 1.68037,0.78979 1.64383,1.76907 l -0.51391,13.77513 c -0.0365,0.97927 -0.73315,1.76907 -1.64384,1.76907 h -0.61225 c -0.91069,0 -0.87342,-0.7931 -0.95651,-1.76907 l -1.1727,-13.77513 c -0.0831,-0.97598 0.73316,-1.76907 1.64385,-1.76907 z"
         sodipodi:nodetypes="sssssssss" />
      <path
         id="rect1-9-69-4-8-4-7-7-73-7-6"
         style="stroke:#ffffff;stroke-width:0.359059;stroke-linejoin:round;stroke-dasharray:none;stroke-dashoffset:0;stroke-opacity:1"
         d="m 727.49471,87.875317 2.54141,0.66485 c 0.88295,0.23095 2.28297,1.40433 1.96943,2.18267 l -4.77553,11.855053 c -0.31352,0.77834 -1.07539,1.29243 -1.96153,1.07395 l -1.56809,-0.3866 c -0.88613,-0.21848 -1.43475,-1.04841 -1.23752,-1.86266 l 3.01579,-12.450283 c 0.19755,-0.81417 1.13308,-1.30793 2.01603,-1.07696 z"
         sodipodi:nodetypes="ssssssssss" />
      <path
         id="rect1-9-4-41-7-6-1-1-5-8-1-7"
         style="stroke:#ffffff;stroke-width:0.359059;stroke-linejoin:round;stroke-dasharray:none;stroke-dashoffset:0;stroke-opacity:1"
         d="m 730.76359,88.065307 2.73139,0.3113 c 0.90675,0.10334 1.63432,0.86672 1.55857,1.70109 l -1.1552,12.726053 c -0.0754,0.8344 -0.86256,1.4432 -1.77184,1.3644 l -1.609,-0.13943 c -0.90927,-0.0788 -1.45037,-0.81158 -1.51072,-1.64885 L 728.0643,89.304037 c -0.0604,-0.83728 1.79253,-1.34203 2.69928,-1.23869 z"
         sodipodi:nodetypes="sssssssss" />
      <path
         id="rect1-0-0-2-5-8-0-4-2-6"
         style="stroke:none;stroke-width:0.314577;stroke-linejoin:round;stroke-dasharray:none;stroke-dashoffset:0;stroke-opacity:1"
         d="m 726.8459,65.853647 c 3.00028,-1.01083 4.94787,0.4451 6.95399,1.08341 0.62816,0.19987 2.9867,1.35332 2.94241,2.26278 -0.30075,6.17475 -3.45323,11.60662 -2.11401,17.37616 0.37838,1.63011 0.24111,3.07486 0.295,4.56138 0.033,0.91042 -0.64151,2.03832 -1.16213,1.64553 l -4.81778,-3.63493 c -0.52062,-0.3928 -3.29412,2.90014 -3.2643,1.9894 0.0565,-1.72878 -0.0164,-3.32163 0.31164,-5.4099 0.88653,-5.64368 0.2016,-11.62948 -0.31164,-17.5529 -0.0784,-0.90484 0.53621,-2.10847 1.16682,-2.32093 z"
         sodipodi:nodetypes="sssssssssss" />
      <path
         id="rect1-7-8-5-1-5-4-34-31-3-6-5-5-8-2-4-1"
         style="stroke:#ffffff;stroke-width:0.453133;stroke-linejoin:round;stroke-dasharray:none;stroke-dashoffset:0;stroke-opacity:1"
         d="m 726.00094,116.97934 c -0.62285,-0.69964 -2.00014,-1.04147 -3.08805,-0.76643 l -1.28068,0.32376 c -1.08793,0.27503 -1.46233,1.05971 -0.83947,1.75934 0.62284,0.69964 1.64147,0.71058 2.82652,0.57013 1.80001,-0.21327 3.58653,-0.31588 2.38168,-1.8868 z"
         sodipodi:nodetypes="ssssss" />
      <path
         id="rect1-7-8-5-1-5-4-34-0-1-3-9-6-4-0-6-7-57"
         style="stroke:#ffffff;stroke-width:0.419911;stroke-linejoin:round;stroke-dasharray:none;stroke-dashoffset:0;stroke-opacity:1"
         d="m 733.13851,118.50819 c -0.72948,-0.58339 -2.13739,-0.82566 -3.15673,-0.54319 l -1.19996,0.33251 c -1.01936,0.28247 -1.2527,0.97955 -0.52323,1.56294 0.72947,0.58341 1.72961,0.55231 2.86704,0.38298 1.7277,-0.25716 3.46101,-0.4176 2.01288,-1.73524 z"
         sodipodi:nodetypes="ssssss" />
      <path
         id="rect1-7-5-6-7-4-6-3-1-3-5-7"
         style="stroke:#ffffff;stroke-width:0.374331;stroke-linejoin:round;stroke-dasharray:none;stroke-dashoffset:0;stroke-opacity:1"
         d="m 733.07417,66.332087 0.0408,-3.5389 c 0.017,-1.47189 -2.90483,-1.35351 -3.18644,0.37284 l -0.40194,2.46403 c -0.34759,2.13083 3.52286,2.84957 3.54761,0.70203 z"
         sodipodi:nodetypes="sssss" />
      <path
         id="path1-73-1-5-7-3-7-0-4-4"
         style="stroke:#ffffff;stroke-width:0.287201;stroke-linejoin:round;stroke-dasharray:none;stroke-dashoffset:0;stroke-opacity:1"
         d="m 734.19531,60.277037 c -0.50452,2.1619 -1.20507,4.5893 -3.15384,4.59012 -1.94877,8.2e-4 -3.10388,-2.3675 -3.10388,-4.58749 0,-2.22 1.15656,-3.37657 3.10388,-3.45182 2.25026,-0.087 3.70893,1.07059 3.15384,3.44919 z"
         sodipodi:nodetypes="sssss" />
      <path
         id="rect1-7-8-3-2-6-6-1-0-0-7-4-5-56"
         style="stroke:#ffffff;stroke-width:0.317429;stroke-linejoin:round;stroke-dasharray:none;stroke-dashoffset:0;stroke-opacity:1"
         d="m 731.55599,75.178857 c -0.24857,-0.88585 -0.98096,-1.55225 -1.56855,-1.28469 l -7.07814,3.22317 c -0.58758,0.26753 -0.82396,0.50482 -0.57534,1.39062 0.24857,0.88585 0.66912,1.10196 1.28357,0.90568 l 7.26745,-2.32153 c 0.61445,-0.19623 0.91963,-1.02742 0.67101,-1.91324 z"
         sodipodi:nodetypes="sssssss"
         inkscape:transform-center-x="3.9264431"
         inkscape:transform-center-y="0.63511165" />
      <g
         id="g6-1-1-4-6-9-1-6-2-7-4-4-7-1"
         transform="matrix(0.31046595,0,0,0.31046595,692.49126,23.774297)"
         style="stroke-width:0.756927;stroke-dasharray:none">
        <rect
           style="opacity:1;fill:#000000;stroke:#ffffff;stroke-width:0.756927;stroke-linejoin:round;stroke-dasharray:none"
           id="rect5-8-3-8-1-8-2-2-7-3-8-3-7-1"
           width="10.664055"
           height="10.785408"
           x="81.009392"
           y="159.09109" />
        <path
           id="rect5-9-6-4-2-3-0-7-7-8-0-4-5-9-0"
           style="fill:#000000;stroke:#ffffff;stroke-width:0.952065;stroke-linejoin:round;stroke-dasharray:none"
           transform="matrix(0.63208417,-0.77489973,0,1,0,0)"
           d="m 145.0336,271.4776 5.6318,-0.31314 1e-5,10.65467 -5.63181,0.44388 z"
           sodipodi:nodetypes="ccccc" />
        <rect
           style="fill:#000000;stroke:#ffffff;stroke-width:0.845887;stroke-linejoin:round;stroke-dasharray:none"
           id="rect5-9-1-3-5-4-3-5-1-4-5-6-2-5-4-4"
           width="5.8412356"
           height="10.785408"
           x="-198.68402"
           y="-210.75246"
           transform="matrix(0.59903324,-0.80072416,-1,0,0,0)" />
      </g>
      <path
         id="rect1-7-8-5-1-8-7-5-7-9-2-9-8-5-3-1-4"
         style="stroke:#ffffff;stroke-width:0.374331;stroke-linejoin:round;stroke-dasharray:none;stroke-dashoffset:0;stroke-opacity:1"
         d="m 722.89555,79.090947 c 0.0142,-0.79437 -0.70708,-1.82379 -1.42024,-1.45936 -0.88104,0.45022 -1.85621,0.36154 -1.97042,1.39962 -0.0906,0.82348 0.57175,1.75918 1.28989,1.71776 0.7996,-0.0462 2.08676,-0.86364 2.10077,-1.65802 z"
         sodipodi:nodetypes="sssss"
         inkscape:transform-center-x="8.8090691"
         inkscape:transform-center-y="2.6353789" />
      <path
         id="rect1-7-8-5-5-6-7-7-5-4-9-4-6-1-3-3-2-5"
         style="stroke:#ffffff;stroke-width:0.374331;stroke-linejoin:round;stroke-dasharray:none;stroke-dashoffset:0;stroke-opacity:1"
         d="m 721.73176,77.948797 c 0.0605,-0.2272 -0.0539,-0.45362 -0.35226,-0.53289 l -1.69742,-0.45202 c -0.30642,-0.0811 -0.60246,0.0354 -0.66295,0.26257 -0.0603,0.22719 0.13825,0.47591 0.44458,0.55748 l 1.69743,0.45202 c 0.23914,0.0638 0.51012,-0.06 0.5706,-0.2872 z"
         sodipodi:nodetypes="sssssss"
         inkscape:transform-center-x="9.5464727"
         inkscape:transform-center-y="1.010782" />
      <path
         id="rect1-7-8-5-1-5-4-364-1-3-9-8-1-8-3-7-2-20"
         style="stroke:#ffffff;stroke-width:0.374331;stroke-linejoin:round;stroke-dasharray:none;stroke-dashoffset:0;stroke-opacity:1"
         d="m 721.31539,79.495857 c -0.13643,-0.7827 -0.88153,-1.30206 -1.67052,-1.16451 l -0.92885,0.16191 c -0.78903,0.13755 -1.31439,0.87841 -1.17789,1.66114 0.13643,0.78269 0.77647,0.92372 1.57739,0.93382 1.21653,0.0155 2.38385,0.14028 2.19991,-1.59235 z"
         sodipodi:nodetypes="ssssss"
         inkscape:transform-center-x="10.579621"
         inkscape:transform-center-y="3.1848687" />
      <path
         id="rect1-7-8-5-1-8-52-7-5-6-4-4"
         style="stroke:#ffffff;stroke-width:0.374331;stroke-linejoin:round;stroke-dasharray:none;stroke-dashoffset:0;stroke-opacity:1"
         d="m 713.18731,74.195607 c 0.27331,-0.74601 -0.0709,-1.95478 -0.86414,-1.84392 -0.9799,0.13695 -1.8723,-0.26612 -2.32009,0.67734 -0.35524,0.74842 -0.0357,1.8494 0.6564,2.04539 0.77064,0.2182 2.25452,-0.13279 2.52783,-0.87881 z"
         sodipodi:nodetypes="sssss" />
      <path
         id="rect1-7-8-5-1-5-4-8-8-8-0-9-1"
         style="stroke:#ffffff;stroke-width:0.374331;stroke-linejoin:round;stroke-dasharray:none;stroke-dashoffset:0;stroke-opacity:1"
         d="m 711.48036,73.309187 c -0.4868,-0.62789 -1.38829,-0.73832 -2.02126,-0.24758 l -0.74513,0.57768 c -0.63299,0.49075 -0.75065,1.39131 -0.26386,2.01922 0.4868,0.62789 1.11844,0.45307 1.83103,0.0873 1.08238,-0.55555 2.17247,-0.99133 1.19922,-2.43659 z"
         sodipodi:nodetypes="ssssss" />
    </g>
  </g>
</svg>
