<?xml version="1.0" encoding="UTF-8" standalone="no"?>
<!-- Created with Inkscape (http://www.inkscape.org/) -->

<svg
   width="57.019581mm"
   height="39.244732mm"
   viewBox="0 0 57.019581 39.244732"
   version="1.1"
   id="svg1"
   xmlns:inkscape="http://www.inkscape.org/namespaces/inkscape"
   xmlns:sodipodi="http://sodipodi.sourceforge.net/DTD/sodipodi-0.dtd"
   xmlns="http://www.w3.org/2000/svg"
   xmlns:svg="http://www.w3.org/2000/svg">
  <sodipodi:namedview
     id="namedview1"
     pagecolor="#ffffff"
     bordercolor="#000000"
     borderopacity="0.25"
     inkscape:showpageshadow="2"
     inkscape:pageopacity="0.0"
     inkscape:pagecheckerboard="0"
     inkscape:deskcolor="#d1d1d1"
     inkscape:document-units="mm" />
  <defs
     id="defs1" />
  <g
     inkscape:label="Layer 1"
     inkscape:groupmode="layer"
     id="layer1"
     transform="translate(1021.9978,-329.07311)">
    <g
       id="g95"
       transform="translate(-1726.1072,-661.11)">
      <g
         id="g6-1-1-4-6-11-0-5-23-2-6"
         transform="matrix(0.58767995,0,0,0.58767995,704.92053,899.73248)"
         style="stroke-width:0.631668;stroke-dasharray:none">
        <rect
           style="opacity:1;fill:#000000;stroke:#ffffff;stroke-width:0.631668;stroke-linejoin:round;stroke-dasharray:none"
           id="rect5-8-3-8-1-39-9-6-13-5-3"
           width="10.664055"
           height="10.785408"
           x="81.009392"
           y="159.09109" />
        <path
           id="rect5-9-6-4-2-3-3-6-9-3-6-7"
           style="fill:#000000;stroke:#ffffff;stroke-width:0.794514;stroke-linejoin:round;stroke-dasharray:none"
           transform="matrix(0.63208417,-0.77489973,0,1,0,0)"
           d="m 145.0336,271.4776 5.6318,-0.31314 1e-5,10.65467 -5.63181,0.44388 z"
           sodipodi:nodetypes="ccccc" />
        <rect
           style="fill:#000000;stroke:#ffffff;stroke-width:0.705907;stroke-linejoin:round;stroke-dasharray:none"
           id="rect5-9-1-3-5-4-3-0-38-5-8-8-6"
           width="5.8412356"
           height="10.785408"
           x="-198.68402"
           y="-210.75246"
           transform="matrix(0.59903324,-0.80072416,-1,0,0,0)" />
      </g>
      <path
         id="path11-4-78-8-5-7-7-9"
         style="fill:#808080;stroke:none;stroke-width:0.0785668;stroke-linejoin:round;stroke-dasharray:none"
         d="m 750.40141,995.51558 h -1.67554 l -0.0106,1.001 -1.98128,-1.5553 c 0,-0.038 2.0138,-1.4338 2.0138,-1.4338 l -0.0106,0.992 h 1.66472 z" />
      <g
         id="g6-1-1-4-6-11-0-5-23-2-6-5"
         transform="matrix(0.58767995,0,0,0.58767995,688.89357,899.73248)"
         style="stroke-width:0.631668;stroke-dasharray:none">
        <rect
           style="opacity:1;fill:#000000;stroke:#ffffff;stroke-width:0.631668;stroke-linejoin:round;stroke-dasharray:none"
           id="rect5-8-3-8-1-39-9-6-13-5-3-1"
           width="10.664055"
           height="10.785408"
           x="81.009392"
           y="159.09109" />
        <path
           id="rect5-9-6-4-2-3-3-6-9-3-6-7-7"
           style="fill:#000000;stroke:#ffffff;stroke-width:0.794514;stroke-linejoin:round;stroke-dasharray:none"
           transform="matrix(0.63208417,-0.77489973,0,1,0,0)"
           d="m 145.0336,271.4776 5.6318,-0.31314 1e-5,10.65467 -5.63181,0.44388 z"
           sodipodi:nodetypes="ccccc" />
        <rect
           style="fill:#000000;stroke:#ffffff;stroke-width:0.705907;stroke-linejoin:round;stroke-dasharray:none"
           id="rect5-9-1-3-5-4-3-0-38-5-8-8-6-4"
           width="5.8412356"
           height="10.785408"
           x="-198.68402"
           y="-210.75246"
           transform="matrix(0.59903324,-0.80072416,-1,0,0,0)" />
      </g>
      <path
         id="path11-4-78-8-5-7-7-9-6"
         style="fill:#808080;stroke:none;stroke-width:0.0785668;stroke-linejoin:round;stroke-dasharray:none"
         d="m 734.37444,995.51558 h -1.67553 l -0.0106,1.001 -1.98128,-1.5553 c 0,-0.038 2.01379,-1.4338 2.01379,-1.4338 l -0.0106,0.992 h 1.66472 z" />
      <g
         id="g6-1-1-4-6-11-0-5-23-2-6-5-5"
         transform="matrix(0.58767995,0,0,0.58767995,672.83641,899.73248)"
         style="stroke-width:0.631668;stroke-dasharray:none">
        <rect
           style="opacity:1;fill:#000000;stroke:#ffffff;stroke-width:0.631668;stroke-linejoin:round;stroke-dasharray:none"
           id="rect5-8-3-8-1-39-9-6-13-5-3-1-8"
           width="10.664055"
           height="10.785408"
           x="81.009392"
           y="159.09109" />
        <path
           id="rect5-9-6-4-2-3-3-6-9-3-6-7-7-6"
           style="fill:#000000;stroke:#ffffff;stroke-width:0.794514;stroke-linejoin:round;stroke-dasharray:none"
           transform="matrix(0.63208417,-0.77489973,0,1,0,0)"
           d="m 145.0336,271.4776 5.6318,-0.31314 1e-5,10.65467 -5.63181,0.44388 z"
           sodipodi:nodetypes="ccccc" />
        <rect
           style="fill:#000000;stroke:#ffffff;stroke-width:0.705907;stroke-linejoin:round;stroke-dasharray:none"
           id="rect5-9-1-3-5-4-3-0-38-5-8-8-6-4-4"
           width="5.8412356"
           height="10.785408"
           x="-198.68402"
           y="-210.75246"
           transform="matrix(0.59903324,-0.80072416,-1,0,0,0)" />
      </g>
      <path
         id="path11-4-78-8-5-7-7-9-6-1"
         style="fill:#808080;stroke:none;stroke-width:0.0785668;stroke-linejoin:round;stroke-dasharray:none"
         d="m 718.31728,995.51558 h -1.67553 l -0.0106,1.001 -1.98128,-1.5553 c 0,-0.038 2.01379,-1.4339 2.01379,-1.4339 l -0.0106,0.9921 h 1.66472 z" />
      <g
         id="g6-1-1-4-6-11-0-5-23-2-6-5-5-2"
         transform="matrix(0.58767995,0,0,0.58767995,656.77925,899.73248)"
         style="stroke-width:0.631668;stroke-dasharray:none">
        <rect
           style="opacity:1;fill:#000000;stroke:#ffffff;stroke-width:0.631668;stroke-linejoin:round;stroke-dasharray:none"
           id="rect5-8-3-8-1-39-9-6-13-5-3-1-8-1"
           width="10.664055"
           height="10.785408"
           x="81.009392"
           y="159.09109" />
        <path
           id="rect5-9-6-4-2-3-3-6-9-3-6-7-7-6-9"
           style="fill:#000000;stroke:#ffffff;stroke-width:0.794514;stroke-linejoin:round;stroke-dasharray:none"
           transform="matrix(0.63208417,-0.77489973,0,1,0,0)"
           d="m 145.0336,271.4776 5.6318,-0.31314 1e-5,10.65467 -5.63181,0.44388 z"
           sodipodi:nodetypes="ccccc" />
        <rect
           style="fill:#000000;stroke:#ffffff;stroke-width:0.705907;stroke-linejoin:round;stroke-dasharray:none"
           id="rect5-9-1-3-5-4-3-0-38-5-8-8-6-4-4-9"
           width="5.8412356"
           height="10.785408"
           x="-198.68402"
           y="-210.75246"
           transform="matrix(0.59903324,-0.80072416,-1,0,0,0)" />
      </g>
      <path
         id="path11-4-78-8-5-7-7-9-6-1-1"
         style="fill:#808080;stroke:none;stroke-width:0.0785668;stroke-linejoin:round;stroke-dasharray:none"
         d="m 709.04216,1000.8583 v 1.6755 l 1.00096,0.011 -1.55531,1.9813 c -0.0381,0 -1.43384,-2.0139 -1.43384,-2.0139 l 0.99201,0.011 v -1.6647 z" />
      <g
         id="g6-1-1-4-6-11-0-5-23-2-6-5-5-2-6"
         transform="matrix(0.58767995,0,0,0.58767995,656.77925,914.97018)"
         style="stroke-width:0.631668;stroke-dasharray:none">
        <rect
           style="opacity:1;fill:#000000;stroke:#ffffff;stroke-width:0.631668;stroke-linejoin:round;stroke-dasharray:none"
           id="rect5-8-3-8-1-39-9-6-13-5-3-1-8-1-9"
           width="10.664055"
           height="10.785408"
           x="81.009392"
           y="159.09109" />
        <path
           id="rect5-9-6-4-2-3-3-6-9-3-6-7-7-6-9-9"
           style="fill:#000000;stroke:#ffffff;stroke-width:0.794514;stroke-linejoin:round;stroke-dasharray:none"
           transform="matrix(0.63208417,-0.77489973,0,1,0,0)"
           d="m 145.0336,271.4776 5.6318,-0.31314 1e-5,10.65467 -5.63181,0.44388 z"
           sodipodi:nodetypes="ccccc" />
        <rect
           style="fill:#000000;stroke:#ffffff;stroke-width:0.705907;stroke-linejoin:round;stroke-dasharray:none"
           id="rect5-9-1-3-5-4-3-0-38-5-8-8-6-4-4-9-3"
           width="5.8412356"
           height="10.785408"
           x="-198.68402"
           y="-210.75246"
           transform="matrix(0.59903324,-0.80072416,-1,0,0,0)" />
      </g>
      <path
         id="path11-4-78-8-5-7-7-9-6-1-1-5"
         style="fill:#808080;stroke:none;stroke-width:0.0785668;stroke-linejoin:round;stroke-dasharray:none"
         d="m 709.04216,1014.915 v 1.6756 l 1.00096,0.011 -1.55531,1.9813 c -0.0381,0 -1.43384,-2.0139 -1.43384,-2.0139 l 0.99201,0.011 v -1.6647 z" />
      <path
         id="path11-4-78-8-5-7-7-9-6-1-1-7"
         style="fill:#808080;stroke:none;stroke-width:0.0785668;stroke-linejoin:round;stroke-dasharray:none"
         d="m 757.18345,1018.5819 v -1.6755 l 1.00096,-0.011 -1.55531,-1.9813 c -0.0381,0 -1.43384,2.0139 -1.43384,2.0139 l 0.99201,-0.011 v 1.6647 z" />
      <g
         id="g6-1-1-4-6-11-0-5-23-2-6-5-5-2-6-1"
         transform="matrix(0.58767995,0,0,0.58767995,656.77925,929.29948)"
         style="stroke-width:0.631668;stroke-dasharray:none">
        <rect
           style="opacity:1;fill:#000000;stroke:#ffffff;stroke-width:0.631668;stroke-linejoin:round;stroke-dasharray:none"
           id="rect5-8-3-8-1-39-9-6-13-5-3-1-8-1-9-5"
           width="10.664055"
           height="10.785408"
           x="81.009392"
           y="159.09109" />
        <path
           id="rect5-9-6-4-2-3-3-6-9-3-6-7-7-6-9-9-6"
           style="fill:#000000;stroke:#ffffff;stroke-width:0.794514;stroke-linejoin:round;stroke-dasharray:none"
           transform="matrix(0.63208417,-0.77489973,0,1,0,0)"
           d="m 145.0336,271.4776 5.6318,-0.31314 1e-5,10.65467 -5.63181,0.44388 z"
           sodipodi:nodetypes="ccccc" />
        <rect
           style="fill:#000000;stroke:#ffffff;stroke-width:0.705907;stroke-linejoin:round;stroke-dasharray:none"
           id="rect5-9-1-3-5-4-3-0-38-5-8-8-6-4-4-9-3-5"
           width="5.8412356"
           height="10.785408"
           x="-198.68402"
           y="-210.75246"
           transform="matrix(0.59903324,-0.80072416,-1,0,0,0)" />
      </g>
      <path
         id="path11-4-78-8-5-7-7-9-6-1-1-5-3"
         style="fill:#808080;stroke:none;stroke-width:0.0785668;stroke-linejoin:round;stroke-dasharray:none"
         d="m 757.18345,1004.5252 v -1.6756 l 1.00096,-0.011 -1.55531,-1.9813 c -0.0381,0 -1.43384,2.0139 -1.43384,2.0139 l 0.99201,-0.011 v 1.6647 z" />
      <g
         id="g6-1-1-4-6-11-0-5-23-2-6-5-5-2-6-3"
         transform="matrix(0.58767995,0,0,0.58767995,704.92053,914.60638)"
         style="stroke-width:0.631668;stroke-dasharray:none">
        <rect
           style="opacity:1;fill:#000000;stroke:#ffffff;stroke-width:0.631668;stroke-linejoin:round;stroke-dasharray:none"
           id="rect5-8-3-8-1-39-9-6-13-5-3-1-8-1-9-2"
           width="10.664055"
           height="10.785408"
           x="81.009392"
           y="159.09109" />
        <path
           id="rect5-9-6-4-2-3-3-6-9-3-6-7-7-6-9-9-7"
           style="fill:#000000;stroke:#ffffff;stroke-width:0.794514;stroke-linejoin:round;stroke-dasharray:none"
           transform="matrix(0.63208417,-0.77489973,0,1,0,0)"
           d="m 145.0336,271.4776 5.6318,-0.31314 1e-5,10.65467 -5.63181,0.44388 z"
           sodipodi:nodetypes="ccccc" />
        <rect
           style="fill:#000000;stroke:#ffffff;stroke-width:0.705907;stroke-linejoin:round;stroke-dasharray:none"
           id="rect5-9-1-3-5-4-3-0-38-5-8-8-6-4-4-9-3-7"
           width="5.8412356"
           height="10.785408"
           x="-198.68402"
           y="-210.75246"
           transform="matrix(0.59903324,-0.80072416,-1,0,0,0)" />
      </g>
      <path
         id="path11-4-78-8-5-7-7-9-1"
         style="fill:#808080;stroke:none;stroke-width:0.0785668;stroke-linejoin:round;stroke-dasharray:none"
         d="m 714.43134,1025.0826 h 1.67553 l 0.0106,1.001 1.98127,-1.5553 c 0,-0.038 -2.01379,-1.4338 -2.01379,-1.4338 l 0.0106,0.992 h -1.66472 z" />
      <g
         id="g6-1-1-4-6-11-0-5-23-2-6-5-6"
         transform="matrix(0.58767995,0,0,0.58767995,704.92053,929.29948)"
         style="stroke-width:0.631668;stroke-dasharray:none">
        <rect
           style="opacity:1;fill:#000000;stroke:#ffffff;stroke-width:0.631668;stroke-linejoin:round;stroke-dasharray:none"
           id="rect5-8-3-8-1-39-9-6-13-5-3-1-2"
           width="10.664055"
           height="10.785408"
           x="81.009392"
           y="159.09109" />
        <path
           id="rect5-9-6-4-2-3-3-6-9-3-6-7-7-2"
           style="fill:#000000;stroke:#ffffff;stroke-width:0.794514;stroke-linejoin:round;stroke-dasharray:none"
           transform="matrix(0.63208417,-0.77489973,0,1,0,0)"
           d="m 145.0336,271.4776 5.6318,-0.31314 1e-5,10.65467 -5.63181,0.44388 z"
           sodipodi:nodetypes="ccccc" />
        <rect
           style="fill:#000000;stroke:#ffffff;stroke-width:0.705907;stroke-linejoin:round;stroke-dasharray:none"
           id="rect5-9-1-3-5-4-3-0-38-5-8-8-6-4-0"
           width="5.8412356"
           height="10.785408"
           x="-198.68402"
           y="-210.75246"
           transform="matrix(0.59903324,-0.80072416,-1,0,0,0)" />
      </g>
      <path
         id="path11-4-78-8-5-7-7-9-6-7"
         style="fill:#808080;stroke:none;stroke-width:0.0785668;stroke-linejoin:round;stroke-dasharray:none"
         d="m 730.45831,1025.0826 h 1.67553 l 0.0106,1.001 1.98128,-1.5553 c 0,-0.038 -2.01379,-1.4338 -2.01379,-1.4338 l 0.0106,0.992 h -1.66473 z" />
      <g
         id="g6-1-1-4-6-11-0-5-23-2-6-5-5-7"
         transform="matrix(0.58767995,0,0,0.58767995,688.45775,929.29948)"
         style="stroke-width:0.631668;stroke-dasharray:none">
        <rect
           style="opacity:1;fill:#000000;stroke:#ffffff;stroke-width:0.631668;stroke-linejoin:round;stroke-dasharray:none"
           id="rect5-8-3-8-1-39-9-6-13-5-3-1-8-5"
           width="10.664055"
           height="10.785408"
           x="81.009392"
           y="159.09109" />
        <path
           id="rect5-9-6-4-2-3-3-6-9-3-6-7-7-6-7"
           style="fill:#000000;stroke:#ffffff;stroke-width:0.794514;stroke-linejoin:round;stroke-dasharray:none"
           transform="matrix(0.63208417,-0.77489973,0,1,0,0)"
           d="m 145.0336,271.4776 5.6318,-0.31314 1e-5,10.65467 -5.63181,0.44388 z"
           sodipodi:nodetypes="ccccc" />
        <rect
           style="fill:#000000;stroke:#ffffff;stroke-width:0.705907;stroke-linejoin:round;stroke-dasharray:none"
           id="rect5-9-1-3-5-4-3-0-38-5-8-8-6-4-4-1"
           width="5.8412356"
           height="10.785408"
           x="-198.68402"
           y="-210.75246"
           transform="matrix(0.59903324,-0.80072416,-1,0,0,0)" />
      </g>
      <path
         id="path11-4-78-8-5-7-7-9-6-1-7"
         style="fill:#808080;stroke:none;stroke-width:0.0785668;stroke-linejoin:round;stroke-dasharray:none"
         d="m 746.51547,1025.0826 h 1.67553 l 0.0106,1.001 1.98128,-1.5553 c 0,-0.038 -2.01379,-1.4339 -2.01379,-1.4339 l 0.0106,0.992 h -1.66473 z" />
      <g
         id="g6-1-1-4-6-11-0-5-23-2-6-5-5-2-3"
         transform="matrix(0.58767995,0,0,0.58767995,672.40059,929.29948)"
         style="stroke-width:0.631668;stroke-dasharray:none">
        <rect
           style="opacity:1;fill:#000000;stroke:#ffffff;stroke-width:0.631668;stroke-linejoin:round;stroke-dasharray:none"
           id="rect5-8-3-8-1-39-9-6-13-5-3-1-8-1-7"
           width="10.664055"
           height="10.785408"
           x="81.009392"
           y="159.09109" />
        <path
           id="rect5-9-6-4-2-3-3-6-9-3-6-7-7-6-9-7"
           style="fill:#000000;stroke:#ffffff;stroke-width:0.794514;stroke-linejoin:round;stroke-dasharray:none"
           transform="matrix(0.63208417,-0.77489973,0,1,0,0)"
           d="m 145.0336,271.4776 5.6318,-0.31314 1e-5,10.65467 -5.63181,0.44388 z"
           sodipodi:nodetypes="ccccc" />
        <rect
           style="fill:#000000;stroke:#ffffff;stroke-width:0.705907;stroke-linejoin:round;stroke-dasharray:none"
           id="rect5-9-1-3-5-4-3-0-38-5-8-8-6-4-4-9-5"
           width="5.8412356"
           height="10.785408"
           x="-198.68402"
           y="-210.75246"
           transform="matrix(0.59903324,-0.80072416,-1,0,0,0)" />
      </g>
    </g>
  </g>
</svg>
