<?xml version="1.0" encoding="UTF-8" standalone="no"?>
<!-- Created with Inkscape (http://www.inkscape.org/) -->

<svg
   width="59.664444mm"
   height="63.791328mm"
   viewBox="0 0 59.664444 63.791328"
   version="1.1"
   id="svg1"
   xmlns:inkscape="http://www.inkscape.org/namespaces/inkscape"
   xmlns:sodipodi="http://sodipodi.sourceforge.net/DTD/sodipodi-0.dtd"
   xmlns="http://www.w3.org/2000/svg"
   xmlns:svg="http://www.w3.org/2000/svg">
  <sodipodi:namedview
     id="namedview1"
     pagecolor="#ffffff"
     bordercolor="#000000"
     borderopacity="0.25"
     inkscape:showpageshadow="2"
     inkscape:pageopacity="0.0"
     inkscape:pagecheckerboard="0"
     inkscape:deskcolor="#d1d1d1"
     inkscape:document-units="mm" />
  <defs
     id="defs1" />
  <g
     inkscape:label="Layer 1"
     inkscape:groupmode="layer"
     id="layer1"
     transform="translate(1250.3792,640.64903)">
    <g
       id="g2"
       transform="translate(-1324.895,-683.91514)"
       inkscape:export-filename="1.svg"
       inkscape:export-xdpi="96"
       inkscape:export-ydpi="96">
      <path
         id="rect1-7-8-5-5-6-7-3-8-5-1-5-2-2-9"
         style="stroke:#ffffff;stroke-width:0.374331;stroke-linejoin:round;stroke-dasharray:none;stroke-dashoffset:0;stroke-opacity:1"
         d="M 87.11095,58.709746 C 86.917755,58.57591 86.858476,58.328993 87.03415,58.07559 l 1.000273,-1.444001 c 0.180197,-0.260793 0.481864,-0.363293 0.675126,-0.22935 0.193277,0.133836 0.203019,0.45207 0.02248,0.712657 l -1.000279,1.443902 c -0.140892,0.203534 -0.427213,0.285091 -0.620755,0.150949 z"
         sodipodi:nodetypes="sssssss"
         inkscape:transform-center-x="-14.598239"
         inkscape:transform-center-y="-9.177661" />
      <path
         id="rect1-7-8-30-8-6-6-5-6-4-9-9-6-1-0"
         style="stroke:#ffffff;stroke-width:0.313714;stroke-linejoin:round;stroke-dasharray:none;stroke-dashoffset:0;stroke-opacity:1"
         d="m 75.620706,52.81023 c -0.776644,0.495171 -1.198523,1.36943 -0.791873,1.850577 l 4.724563,5.589671 c 0.406753,0.481179 0.710194,0.622883 1.486661,0.127957 0.776645,-0.495171 0.851624,-0.943361 0.509011,-1.471316 l -3.91636,-6.033889 c -0.342714,-0.527966 -1.235353,-0.558134 -2.011999,-0.06298 z"
         sodipodi:nodetypes="sssssss"
         inkscape:transform-center-x="-1.9764077"
         inkscape:transform-center-y="2.9488615" />
      <path
         id="rect1-7-8-5-1-8-52-7-5-6-4-2-1-0"
         style="stroke:#ffffff;stroke-width:0.374331;stroke-linejoin:round;stroke-dasharray:none;stroke-dashoffset:0;stroke-opacity:1"
         d="m 87.796998,60.375322 c -0.719742,-0.336403 -1.327762,-1.436415 -0.687037,-1.916974 0.791572,-0.593626 1.140349,-1.508612 2.12307,-1.155113 0.779543,0.280342 1.329057,1.286503 0.976347,1.913411 -0.392762,0.698054 -1.692641,1.495179 -2.41238,1.158676 z"
         sodipodi:nodetypes="sssss"
         inkscape:transform-center-x="-15.281926"
         inkscape:transform-center-y="-7.8974933" />
      <path
         id="rect1-7-8-5-1-5-4-8-8-8-0-9-0-1-3"
         style="stroke:#ffffff;stroke-width:0.374331;stroke-linejoin:round;stroke-dasharray:none;stroke-dashoffset:0;stroke-opacity:1"
         d="m 88.671509,58.898553 c -0.419334,-0.674798 -0.209422,-1.558455 0.47088,-1.981236 l 0.800652,-0.497776 c 0.680304,-0.422778 1.565611,-0.219891 1.985035,0.454909 0.419403,0.6747 0.03578,1.206127 -0.55519,1.747016 -0.897353,0.821519 -1.685055,1.69202 -2.701585,0.276981 z"
         sodipodi:nodetypes="ssssss"
         inkscape:transform-center-x="-16.983097"
         inkscape:transform-center-y="-8.8127686" />
      <path
         id="rect1-9-1-75-3-2-8-9-3-5"
         style="fill:#808080;stroke:none;stroke-width:0.387927;stroke-linejoin:round;stroke-dasharray:none;stroke-dashoffset:0;stroke-opacity:1"
         inkscape:transform-center-x="-7.3187379"
         inkscape:transform-center-y="0.050489573"
         d="m 123.2664,43.891898 c -1.51164,-0.0246 -2.51661,0.9355 -2.76004,2.77141 -0.23306,1.7575 0.3061,3.75981 1.59628,4.57078 l -0.18035,1.16478 c -0.0318,0.20517 -0.0182,0.38851 0.031,0.55139 -0.0865,0.033 -0.17762,0.0713 -0.26872,0.10955 -0.0865,-0.0317 -0.17245,-0.0576 -0.25631,-0.0703 -0.89423,-0.13471 -2.23556,0.58147 -2.49391,1.45573 l -2.93367,9.92704 c -0.0671,0.22722 -0.0676,0.45171 -0.0181,0.66249 l -3.25199,6.70967 c -0.0953,0.0384 -0.18299,0.0998 -0.2589,0.18965 -0.43953,0.52047 -1.01906,0.82267 -1.24075,1.28726 -0.1978,0.12422 -0.3993,0.26512 -0.60565,0.40411 -0.66439,0.44742 -1.12252,0.91591 -0.8077,1.64538 0.0768,0.178 0.18609,0.33135 0.31677,0.45837 l -2.81171,1.27124 c -1.50363,0.84321 -1.42495,2.57466 -0.8754,3.727942 0.19688,0.4402 0.76504,0.68881 1.37563,0.79272 0.15476,0.0589 0.32169,0.0956 0.49867,0.10283 l 3.74396,0.15245 c 0.002,0.22293 0.0481,0.42423 0.16071,0.58084 0.76752,1.1528 2.32265,1.71451 3.89331,1.03766 l 0.0434,-0.0217 13.01626,-1.43867 c 0.78175,-0.0863 1.36295,-0.0443 1.56373,-0.4961 1.65312,0.5895 3.18209,1.18312 3.01222,-0.86868 -0.15488,-0.985522 -1.18275,-1.955972 -2.30477,-2.176092 l -1.32085,-0.2589 c -0.72494,-0.14222 -1.30584,0.065 -1.58491,0.49506 l -2.90525,-0.0124 2.19676,-1.10278 c 0.36814,-0.18477 0.43083,-0.72453 0.33487,-1.31206 0.40332,-1.34227 -0.21038,-2.21301 -0.29766,-2.55747 -0.72181,-2.84863 -0.31532,-5.81986 0.31988,-8.8408 l 0.32659,1.23713 c 0.0753,0.28532 0.20748,0.55154 0.38138,0.78083 l 2.10529,6.71019 c 0.076,0.24231 0.15446,0.44252 0.24598,0.60254 -0.17402,0.1404 -0.32665,0.31434 -0.43718,0.49972 -0.14505,0.0454 -0.26035,0.17448 -0.29714,0.38602 l -0.30127,1.73064 c -0.0543,0.3123 0.0883,0.59742 0.31987,0.63769 0.23159,0.0403 0.46194,-0.17969 0.51625,-0.49196 l 0.14315,-0.82424 c 0.0692,0.0803 0.13474,0.15933 0.19895,0.23823 -0.001,0.0538 -1.2e-4,0.10783 0.005,0.16278 l 0.0842,0.93948 c 0.0717,0.79771 0.76673,1.38266 1.55805,1.31154 0.79131,-0.0711 0.98498,-0.69767 1.06143,-1.49499 0.0597,-0.62224 0.14624,-1.22838 -0.0191,-1.66605 -0.003,-0.11537 -0.027,-0.22743 -0.0744,-0.33177 -0.15745,-0.34635 -0.51669,-0.73216 -0.9307,-1.01285 0.29908,-0.28977 0.31913,-0.73193 0.19793,-1.33842 l -1.31155,-6.56446 c 0.0192,-0.1331 0.0207,-0.27143 -0.005,-0.41393 l -1.82573,-10.18904 c -0.14104,-0.78729 -1.12372,-1.54503 -1.97301,-1.69499 -0.50143,-0.20009 -0.98143,-0.34671 -1.23506,-0.42064 -0.51021,-0.14871 -0.93003,-0.32986 -1.32292,-0.49868 0.1506,-0.23648 0.21793,-0.52296 0.16381,-0.85835 l -0.28938,-1.79214 c 0.56915,-0.71228 0.95789,-1.67452 1.08778,-2.6541 0.27822,-2.09817 -0.73441,-3.47909 -2.62154,-3.83129 -0.23589,-0.044 -0.46256,-0.0678 -0.67851,-0.0713 z m -1.09451,12.73772 h 4.86792 v 4.80901 l -1.60662,2.16989 h -4.81314 v -4.86792 h -0.0274 z m -2.52594,7.6352 c -0.13341,2.60141 -0.45101,5.16326 -0.98857,7.6109 l -4.33566,1.96009 c 0.0127,-0.0198 0.0244,-0.0317 0.0372,-0.0522 l 4.50515,-7.21661 c 0.20952,-0.33562 0.26334,-0.71767 0.19327,-1.07797 0.14453,-0.17915 0.26386,-0.38207 0.3483,-0.601 z" />
      <g
         id="g6-1-1-4-6-9-1-6-2-70-4-5-0-7-1"
         transform="matrix(0.45133278,0,0,0.45133278,67.386413,-12.39837)"
         style="stroke-width:0.435386;stroke-dasharray:none">
        <rect
           style="opacity:1;fill:#000000;stroke:#ffffff;stroke-width:0.435386;stroke-linejoin:round;stroke-dasharray:none"
           id="rect5-8-3-8-1-8-2-2-7-21-1-3-7-7-9"
           width="10.664055"
           height="10.785408"
           x="81.009392"
           y="159.09109" />
        <path
           id="rect5-9-6-4-2-3-0-7-7-8-9-4-2-1-4-7"
           style="fill:#000000;stroke:#ffffff;stroke-width:0.54763;stroke-linejoin:round;stroke-dasharray:none"
           transform="matrix(0.63208417,-0.77489973,0,1,0,0)"
           d="m 145.0336,271.4776 5.6318,-0.31314 1e-5,10.65467 -5.63181,0.44388 z"
           sodipodi:nodetypes="ccccc" />
        <rect
           style="fill:#000000;stroke:#ffffff;stroke-width:0.486557;stroke-linejoin:round;stroke-dasharray:none"
           id="rect5-9-1-3-5-4-3-5-1-4-5-9-8-8-8-0-5"
           width="5.8412356"
           height="10.785408"
           x="-198.68402"
           y="-210.75246"
           transform="matrix(0.59903324,-0.80072416,-1,0,0,0)" />
      </g>
      <path
         id="path1-73-1-5-7-3-7-0-4-1-5-55"
         style="stroke:#ffffff;stroke-width:0.287201;stroke-linejoin:round;stroke-dasharray:none;stroke-dashoffset:0;stroke-opacity:1"
         d="m 83.475429,47.178963 c -0.07827,2.193265 -0.29763,4.639052 -2.209765,4.39662 -1.911947,-0.242457 -3.502074,-2.858292 -3.930025,-5.175175 -0.428041,-2.316918 0.52774,-3.073905 2.611637,-2.983459 2.586361,0.112255 3.614224,1.349122 3.528153,3.762014 z"
         sodipodi:nodetypes="sssss" />
      <path
         id="rect1-7-8-5-1-5-4-34-0-1-3-9-6-4-0-6-7-3-8-10"
         style="stroke:#ffffff;stroke-width:0.419911;stroke-linejoin:round;stroke-dasharray:none;stroke-dashoffset:0;stroke-opacity:1"
         d="m 76.596151,101.54133 c 0.49718,-0.7907 1.74722,-1.4823 2.80278,-1.550597 l 1.24257,-0.08 c 1.05555,-0.068 1.50506,0.513297 1.00788,1.304097 -0.49718,0.7908 -1.45197,1.0901 -2.58184,1.3041 -1.71625,0.325 -3.40597,0.7432 -2.47139,-0.9772 z"
         sodipodi:nodetypes="ssssss" />
      <path
         id="rect1-9-4-41-7-6-1-1-5-8-1-3-6-0"
         style="stroke:#ffffff;stroke-width:0.359059;stroke-linejoin:round;stroke-dasharray:none;stroke-dashoffset:0;stroke-opacity:1"
         d="m 80.161271,74.528535 -2.73139,0.3113 c -0.90675,0.1033 -1.63432,0.8667 -1.55857,1.7011 l 1.1552,12.726 c 0.0754,0.8344 0.86256,1.4432 1.77184,1.3644 l 1.609,-0.1394 c 0.90927,-0.079 1.45037,-0.8116 1.51072,-1.6489 l 0.94249,-13.0758 c 0.0604,-0.8373 -1.79253,-1.342 -2.69928,-1.2387 z"
         sodipodi:nodetypes="sssssssss" />
      <path
         id="rect1-7-3-7-0-3-9-3-9-7-1-2-3-66"
         style="stroke:#ffffff;stroke-width:0.374331;stroke-linejoin:round;stroke-dasharray:none;stroke-dashoffset:0;stroke-opacity:1"
         d="m 79.297903,54.7864 c -0.849885,0.308936 -1.681673,1.792767 -1.202591,2.568387 l 3.805722,6.160968 c 0.479169,0.775528 1.436035,1.207184 2.285904,0.898139 0.849866,-0.309065 1.336677,-1.252417 0.949414,-2.07772 L 82.030826,55.719572 C 81.643464,54.894282 80.147605,54.47761 79.297905,54.78642 Z"
         sodipodi:nodetypes="ssssssss"
         inkscape:transform-center-x="-2.408574"
         inkscape:transform-center-y="4.9054128" />
      <path
         id="rect1-7-2-76-1-7-2-6-7-2-5-0-5-1-7"
         style="stroke:#ffffff;stroke-width:0.374331;stroke-linejoin:round;stroke-dasharray:none;stroke-dashoffset:0;stroke-opacity:1"
         d="m 84.066368,55.487737 c 0.436443,-0.792154 1.883026,-0.785635 2.248255,0.04947 l 3.783015,8.65394 c 0.365844,0.83493 0.927783,1.630493 0.470688,2.410419 -0.457479,0.780083 -1.680269,1.297025 -2.214952,0.558606 l -5.19536,-7.174463 c -0.329739,-0.842937 0.12848,-3.011535 0.908606,-4.49814 z"
         sodipodi:nodetypes="csssscc"
         inkscape:transform-center-x="-2.8118437"
         inkscape:transform-center-y="4.8121484" />
      <path
         id="rect1-9-4-4-31-7-1-4-3-0-5-7-9-6-33"
         style="stroke:#ffffff;stroke-width:0.387927;stroke-linejoin:round;stroke-dasharray:none;stroke-dashoffset:0;stroke-opacity:1"
         d="m 80.212711,87.169035 -1.60066,-0.1868 c -0.90456,-0.1056 -1.80048,0.5882 -1.83781,1.5666 l -0.44665,11.706795 c -0.0373,0.9783 -0.16862,1.6286 0.73595,1.7339 l 0.72155,0.084 c 0.90458,0.1053 1.66686,-0.6016 1.8378,-1.5666 l 2.01755,-11.390495 c 0.17092,-0.965 -0.52316,-1.8421 -1.42771,-1.9476 z"
         sodipodi:nodetypes="ssssssssss" />
      <path
         id="rect1-7-8-5-1-5-4-34-31-3-6-5-5-8-2-4-6-4-1"
         style="stroke:#ffffff;stroke-width:0.453133;stroke-linejoin:round;stroke-dasharray:none;stroke-dashoffset:0;stroke-opacity:1"
         d="m 85.718141,105.53953 c 0.27136,-0.8965 1.37763,-1.7854 2.48046,-1.9927 l 1.29818,-0.2442 c 1.10285,-0.2074 1.7722,0.3474 1.50088,1.244 -0.27135,0.8965 -1.19114,1.3344 -2.32558,1.7047 -1.7231,0.5625 -3.38746,1.2199 -2.95394,-0.7118 z"
         sodipodi:nodetypes="ssssss" />
      <path
         id="rect1-7-8-3-2-6-6-1-0-0-7-4-5-1-6-3"
         style="stroke:#ffffff;stroke-width:0.317429;stroke-linejoin:round;stroke-dasharray:none;stroke-dashoffset:0;stroke-opacity:1"
         d="M 88.309729,66.320831 C 87.998463,65.455036 88.208576,64.48743 88.84237,64.364714 l 7.635446,-1.479721 c 0.633809,-0.122816 0.964,-0.06664 1.27523,0.799054 0.31132,0.865898 0.09409,1.285835 -0.520332,1.482359 l -7.266659,2.32382 c -0.614397,0.196526 -1.345076,-0.3037 -1.656326,-1.169395 z"
         sodipodi:nodetypes="sssssss"
         inkscape:transform-center-x="-3.6563357"
         inkscape:transform-center-y="-0.87018142" />
      <path
         id="rect1-7-5-6-7-4-6-3-1-3-5-8-5-3"
         style="stroke:#ffffff;stroke-width:0.374331;stroke-linejoin:round;stroke-dasharray:none;stroke-dashoffset:0;stroke-opacity:1"
         d="m 77.850691,52.795195 -0.0408,-3.5389 c -0.017,-1.4718 2.90483,-1.3535 3.18644,0.3729 l 0.40194,2.464 c 0.34759,2.1308 -3.52286,2.8496 -3.54761,0.702 z"
         sodipodi:nodetypes="sssss" />
      <path
         id="rect1-9-69-4-8-4-7-7-73-7-5-9-0"
         style="stroke:#ffffff;stroke-width:0.359059;stroke-linejoin:round;stroke-dasharray:none;stroke-dashoffset:0;stroke-opacity:1"
         d="m 83.430151,74.338535 -2.54141,0.6648 c -0.88295,0.231 -2.28297,1.4044 -1.96943,2.1827 l 4.77553,11.855 c 0.31352,0.7784 1.07539,1.2925 1.96153,1.074 l 1.56809,-0.3866 c 0.88613,-0.2185 1.43475,-1.0484 1.23752,-1.8627 l -3.01579,-12.4502 c -0.19755,-0.8142 -1.13308,-1.308 -2.01603,-1.077 z"
         sodipodi:nodetypes="ssssssssss" />
      <path
         id="rect1-9-1-95-4-0-1-8-0-2-1-4-6-6"
         style="stroke:#ffffff;stroke-width:0.387927;stroke-linejoin:round;stroke-dasharray:none;stroke-dashoffset:0;stroke-opacity:1"
         d="m 87.051001,89.354535 h -1.61153 c -0.91068,0 -1.68037,0.7898 -1.64383,1.7691 l 0.51391,13.775095 c 0.0365,0.9793 0.73315,1.7691 1.64384,1.7691 h 0.61225 c 0.91069,0 0.87342,-0.7931 0.95651,-1.7691 l 1.1727,-13.775095 c 0.0831,-0.976 -0.73316,-1.7691 -1.64385,-1.7691 z"
         sodipodi:nodetypes="sssssssss" />
      <path
         id="rect1-0-0-2-5-8-0-4-2-7-8-9"
         style="stroke:none;stroke-width:0.314577;stroke-linejoin:round;stroke-dasharray:none;stroke-dashoffset:0;stroke-opacity:1"
         d="m 77.226431,52.410295 c 3.00028,-1.0108 4.94787,0.4451 6.95399,1.0834 0.62816,0.1999 2.9867,1.3533 2.94241,2.2628 -0.30075,6.1747 -3.45323,11.6066 -2.11401,17.37624 0.37838,1.6301 0.24111,3.0748 0.295,4.5613 0.033,0.9105 -0.56462,1.9068 -1.16213,1.6456 l -5.42582,-2.3722 c -0.59756,-0.2612 -2.68608,1.6374 -2.65626,0.7266 0.0565,-1.7288 -0.0164,-3.3216 0.31164,-5.4099 0.88653,-5.64364 0.2016,-11.62944 -0.31164,-17.55294 -0.0784,-0.9048 0.53621,-2.1084 1.16682,-2.3209 z"
         sodipodi:nodetypes="sssssssssss" />
      <path
         id="rect1-7-8-5-1-8-7-5-7-9-2-9-8-5-3-1-9-0-2"
         style="stroke:#ffffff;stroke-width:0.374331;stroke-linejoin:round;stroke-dasharray:none;stroke-dashoffset:0;stroke-opacity:1"
         d="m 96.863915,64.693796 c -0.566446,-0.55717 -0.772428,-1.797133 -0.0081,-2.036389 0.944273,-0.295511 1.578293,-1.041703 2.386792,-0.380643 0.641293,0.524331 0.823743,1.656098 0.282094,2.129457 -0.603018,0.527092 -2.09442,0.844838 -2.660738,0.287575 z"
         sodipodi:nodetypes="sssss"
         inkscape:transform-center-x="-8.7263249"
         inkscape:transform-center-y="-2.5556327" />
      <path
         id="rect1-7-8-5-5-6-7-7-5-4-9-4-6-1-3-3-2-1-5-7"
         style="stroke:#ffffff;stroke-width:0.374331;stroke-linejoin:round;stroke-dasharray:none;stroke-dashoffset:0;stroke-opacity:1"
         d="M 96.894895,63.063554 C 96.692604,62.943676 96.615651,62.701862 96.773176,62.436408 L 97.668289,60.925 c 0.162021,-0.272411 0.454588,-0.396936 0.657155,-0.276849 0.202147,0.119969 0.234559,0.436603 0.07304,0.709337 l -0.895201,1.511402 c -0.125891,0.21315 -0.406172,0.31433 -0.608448,0.194558 z"
         sodipodi:nodetypes="sssssss"
         inkscape:transform-center-x="-8.2205932"
         inkscape:transform-center-y="-4.1962001" />
      <path
         id="rect1-7-8-5-1-5-4-364-1-3-9-8-1-8-3-7-2-2-2-8"
         style="stroke:#ffffff;stroke-width:0.374331;stroke-linejoin:round;stroke-dasharray:none;stroke-dashoffset:0;stroke-opacity:1"
         d="m 97.887194,63.540178 c -0.305797,-0.733321 0.04322,-1.571744 0.782389,-1.880057 l 0.870199,-0.36286 c 0.739268,-0.30828 1.580518,0.0339 1.886328,0.767323 0.30578,0.733194 -0.15804,1.196284 -0.82791,1.635461 -1.017638,0.666683 -1.934513,1.400024 -2.711033,-0.159871 z"
         sodipodi:nodetypes="ssssss"
         inkscape:transform-center-x="-10.274785"
         inkscape:transform-center-y="-3.228521" />
      <path
         id="rect10-1-1-3-8-0-0-6-1-2-1"
         style="fill:#cccccc;stroke-width:0.22124;stroke-linejoin:round"
         d="m 99.616883,55.777132 7.470337,-3.2525 1.58802,0.2403 2.48305,-2.1828 -9.76271,1.0811 2.4381,0.3689 -7.513757,3.3001 z" />
    </g>
  </g>
</svg>
