<?xml version="1.0" encoding="UTF-8" standalone="no"?>
<!-- Created with Inkscape (http://www.inkscape.org/) -->

<svg
   width="17.033457mm"
   height="81.63504mm"
   viewBox="0 0 17.033457 81.63504"
   version="1.1"
   id="svg1"
   xmlns:inkscape="http://www.inkscape.org/namespaces/inkscape"
   xmlns:sodipodi="http://sodipodi.sourceforge.net/DTD/sodipodi-0.dtd"
   xmlns="http://www.w3.org/2000/svg"
   xmlns:svg="http://www.w3.org/2000/svg">
  <sodipodi:namedview
     id="namedview1"
     pagecolor="#ffffff"
     bordercolor="#000000"
     borderopacity="0.25"
     inkscape:showpageshadow="2"
     inkscape:pageopacity="0.0"
     inkscape:pagecheckerboard="0"
     inkscape:deskcolor="#d1d1d1"
     inkscape:document-units="mm" />
  <defs
     id="defs1" />
  <g
     inkscape:label="Layer 1"
     inkscape:groupmode="layer"
     id="layer1"
     transform="translate(1229.0636,-518.23406)">
    <g
       id="g56"
       transform="translate(-1597.7726,309.74367)"
       inkscape:export-filename="12.svg"
       inkscape:export-xdpi="96"
       inkscape:export-ydpi="96">
      <path
         id="rect1-7-3-7-0-9-1-2-1-3"
         style="stroke:#ffffff;stroke-width:0.199939;stroke-linejoin:round;stroke-dasharray:none;stroke-dashoffset:0;stroke-opacity:1"
         d="m 373.36962,236.34534 c 0.67788,0.26678 0.0469,2.13291 -0.004,2.68454 l -0.75803,8.21983 c -0.0509,0.55174 -1.505,-1.49036 -2.0506,-2.25324 -0.42377,-0.59254 -0.76673,-2.49649 -0.7436,-3.00942 0.12642,-2.8036 0.32689,-5.44984 1.43388,-6.16971 0.43043,-0.27991 1.44461,0.26127 2.1225,0.528 z"
         sodipodi:nodetypes="ssssssss"
         inkscape:transform-center-x="2.843215"
         inkscape:transform-center-y="0.90569864" />
      <path
         id="rect1-7-3-7-0-9-1-2-1"
         style="stroke:#ffffff;stroke-width:0.199939;stroke-linejoin:round;stroke-dasharray:none;stroke-dashoffset:0;stroke-opacity:1"
         d="m 381.40881,235.94861 c -0.67788,0.26678 -0.0311,2.13168 0.004,2.68454 l 0.52652,8.28597 c 0.0351,0.55297 2.03417,-1.62264 2.64591,-2.28631 0.49373,-0.53564 0.40293,-2.52956 0.3798,-3.04249 -0.12642,-2.8036 -0.32689,-5.44984 -1.43388,-6.16971 -0.43043,-0.27991 -1.44461,0.26127 -2.1225,0.528 z"
         sodipodi:nodetypes="ssssssss"
         inkscape:transform-center-x="-2.843214"
         inkscape:transform-center-y="0.90569864" />
      <path
         id="rect1-9-4-4-31-7-6-3-8"
         style="stroke:#ffffff;stroke-width:0.387927;stroke-linejoin:round;stroke-dasharray:none;stroke-dashoffset:0;stroke-opacity:1"
         d="m 380.82476,271.81191 h 1.61153 c 0.91069,0 1.75553,0.7964 1.64384,1.76906 l -1.59696,13.90723 c -0.11169,0.97267 -0.0213,1.63699 -0.93196,1.63699 h -0.72645 c -0.91069,0 -1.64384,-0.78901 -1.64384,-1.76907 v -13.77515 c 0,-0.98006 0.73315,-1.76906 1.64384,-1.76906 z"
         sodipodi:nodetypes="sssssssss" />
      <path
         id="rect1-9-1-95-4-9-5-6"
         style="stroke:#ffffff;stroke-width:0.387927;stroke-linejoin:round;stroke-dasharray:none;stroke-dashoffset:0;stroke-opacity:1"
         d="m 372.56072,271.89882 h 1.61153 c 0.91068,0 1.68038,0.78978 1.64384,1.76906 l -0.51392,13.77514 c -0.0365,0.97928 -0.73315,1.76907 -1.64384,1.76907 h -0.61224 c -0.91069,0 -0.87343,-0.79309 -0.95652,-1.76907 l -1.17269,-13.77514 c -0.0831,-0.97598 0.73315,-1.76906 1.64384,-1.76906 z"
         sodipodi:nodetypes="sssssssss" />
      <path
         id="rect1-9-69-4-89-2-9"
         style="stroke:#ffffff;stroke-width:0.359059;stroke-linejoin:round;stroke-dasharray:none;stroke-dashoffset:0;stroke-opacity:1"
         d="m 372.63077,258.04844 2.62668,0.0372 c 0.91255,0.0129 2.55276,0.81702 2.43465,1.64778 l -1.79886,12.65353 c -0.1181,0.83076 -0.73475,1.51228 -1.64742,1.51228 h -1.61505 c -0.91267,0 -1.64401,-0.67448 -1.64742,-1.51228 l -0.0522,-12.81021 c -0.003,-0.83779 0.78705,-1.54114 1.69961,-1.52824 z"
         sodipodi:nodetypes="ssssssssss" />
      <path
         id="rect1-9-4-41-7-8-4-9"
         style="stroke:#ffffff;stroke-width:0.359059;stroke-linejoin:round;stroke-dasharray:none;stroke-dashoffset:0;stroke-opacity:1"
         d="m 379.79946,257.89986 2.74806,0.0743 c 0.91229,0.0247 1.70304,0.72238 1.69962,1.56017 l -0.0522,12.77828 c -0.003,0.83779 -0.73475,1.51227 -1.64743,1.51227 h -1.61504 c -0.91267,0 -1.51502,-0.68333 -1.64742,-1.51227 l -2.06786,-12.94564 c -0.13241,-0.82894 1.66997,-1.49177 2.58226,-1.4671 z"
         sodipodi:nodetypes="sssssssss" />
      <path
         id="rect1-0-0-1-5-9"
         style="stroke:none;stroke-width:0.374331;stroke-linejoin:round;stroke-dasharray:none;stroke-dashoffset:0;stroke-opacity:1"
         d="m 372.67851,234.96745 c 4.48101,-1.82226 6.95787,-0.63831 9.7985,0 0.88945,0.19987 1.70825,0.73607 1.64554,1.64554 -0.42585,6.17474 -2.31402,12.63188 -0.41772,18.40141 0.53578,1.63011 0.34141,3.07487 0.41772,4.56138 0.0467,0.91043 -0.73392,1.64554 -1.64554,1.64554 h -9.7985 c -0.91164,0 -1.66848,-0.7342 -1.64554,-1.64554 0.0443,-1.76206 -0.17825,-3.46578 0.44127,-5.40989 1.76084,-5.52564 0.28546,-11.62948 -0.44127,-17.5529 -0.11101,-0.90484 0.80106,-1.30212 1.64554,-1.64554 z"
         sodipodi:nodetypes="sssssssssss" />
      <path
         id="rect1-7-8-5-1-5-4-34-31-3-3-5-8"
         style="stroke:#ffffff;stroke-width:0.485783;stroke-linejoin:round;stroke-dasharray:none;stroke-dashoffset:0;stroke-opacity:1"
         d="m 374.29737,287.04587 c -0.70994,-0.70086 -2.11346,-0.87118 -3.14686,-0.38187 l -1.21653,0.576 c -1.03342,0.4893 -1.29383,1.44747 -0.58389,2.14834 0.70994,0.70087 1.71459,0.54999 2.86223,0.19914 1.7432,-0.53283 3.48839,-0.93686 2.08505,-2.54161 z"
         sodipodi:nodetypes="ssssss" />
      <path
         id="rect1-7-8-5-1-5-4-34-0-1-3-2-8-1"
         style="stroke:#ffffff;stroke-width:0.485783;stroke-linejoin:round;stroke-dasharray:none;stroke-dashoffset:0;stroke-opacity:1"
         d="m 380.1541,287.04587 c 0.70994,-0.70086 2.11345,-0.87118 3.14686,-0.38187 l 1.21653,0.576 c 1.03342,0.4893 1.29383,1.44747 0.58389,2.14834 -0.70994,0.70087 -1.7146,0.54999 -2.86223,0.19914 -1.7432,-0.53283 -3.48839,-0.93686 -2.08505,-2.54161 z"
         sodipodi:nodetypes="ssssss" />
      <path
         id="path1-73-1-7-4-8"
         style="stroke:#ffffff;stroke-width:0.306754;stroke-linejoin:round;stroke-dasharray:none;stroke-dashoffset:0;stroke-opacity:1"
         d="m 381.1038,228.71815 c 0,2.21459 -1.37809,4.57763 -3.60666,4.57763 -2.22857,0 -3.54953,-2.36304 -3.54953,-4.57763 0,-2.2146 1.32096,-3.44212 3.54953,-3.44212 2.22857,0 3.60666,1.22752 3.60666,3.44212 z"
         sodipodi:nodetypes="sssss" />
      <path
         id="rect1-7-8-3-2-6-6-9-3-4-2"
         style="stroke:#ffffff;stroke-width:0.317429;stroke-linejoin:round;stroke-dasharray:none;stroke-dashoffset:0;stroke-opacity:1"
         d="m 382.89636,240.63525 c -0.60025,0.6973 -1.6943,1.08598 -1.96492,0.49986 l -2.16084,-4.67996 c -0.27061,-0.58619 -0.53269,-0.80622 0.0675,-1.50345 0.60023,-0.6973 1.18056,-0.80843 1.54628,-0.27707 l 2.71405,3.94321 c 0.36575,0.53134 0.39819,1.32015 -0.20208,2.01741 z"
         sodipodi:nodetypes="sssssss"
         inkscape:transform-center-x="-0.87597294"
         inkscape:transform-center-y="3.1224072" />
      <path
         id="rect1-7-8-5-1-8-7-5-7-9-22-6-75-3"
         style="stroke:#ffffff;stroke-width:0.374331;stroke-linejoin:round;stroke-dasharray:none;stroke-dashoffset:0;stroke-opacity:1"
         d="m 380.66678,234.8969 c -0.28548,0.74145 -1.34045,1.42459 -1.86448,0.81886 -0.64734,-0.74825 -1.58441,-1.03245 -1.30023,-2.03739 0.2254,-0.79719 1.19081,-1.41544 1.84077,-1.10727 0.72369,0.34316 1.60942,1.58437 1.32392,2.32582 z"
         sodipodi:nodetypes="sssss" />
      <path
         id="rect1-7-8-5-1-5-4-364-1-3-9-6-0-4-9"
         style="stroke:#ffffff;stroke-width:0.374331;stroke-linejoin:round;stroke-dasharray:none;stroke-dashoffset:0;stroke-opacity:1"
         d="m 378.7732,234.30133 c -0.59605,0.52532 -1.50223,0.46449 -2.03179,-0.13638 l -0.62341,-0.70732 c -0.52957,-0.60087 -0.47603,-1.50751 0.12001,-2.03283 0.59604,-0.52532 1.18362,-0.235 1.81483,0.25811 0.95881,0.74891 1.94769,1.38162 0.72036,2.61842 z"
         sodipodi:nodetypes="ssssss" />
      <path
         id="rect1-7-8-3-2-6-6-9-3-4-2-1"
         style="stroke:#ffffff;stroke-width:0.317429;stroke-linejoin:round;stroke-dasharray:none;stroke-dashoffset:0;stroke-opacity:1"
         d="m 371.78853,240.6578 c 0.60025,0.6973 1.6943,1.08598 1.96492,0.49986 l 2.16084,-4.67996 c 0.27061,-0.58619 0.53269,-0.80622 -0.0675,-1.50345 -0.60023,-0.6973 -1.18056,-0.80843 -1.54628,-0.27707 l -2.71405,3.94321 c -0.36575,0.53134 -0.39819,1.32015 0.20208,2.01741 z"
         sodipodi:nodetypes="sssssss"
         inkscape:transform-center-x="0.87597392"
         inkscape:transform-center-y="3.1224072" />
      <path
         id="rect1-7-8-5-1-8-7-5-7-9-22-6-75-3-6"
         style="stroke:#ffffff;stroke-width:0.374331;stroke-linejoin:round;stroke-dasharray:none;stroke-dashoffset:0;stroke-opacity:1"
         d="m 374.01811,234.91945 c 0.28548,0.74145 1.34045,1.42459 1.86448,0.81886 0.64734,-0.74825 1.58441,-1.03245 1.30023,-2.03739 -0.2254,-0.79719 -1.19081,-1.41544 -1.84077,-1.10727 -0.72369,0.34316 -1.60942,1.58437 -1.32392,2.32582 z"
         sodipodi:nodetypes="sssss" />
      <path
         style="fill:#252121;stroke:none;stroke-width:0.213772"
         d="m 380.34627,210.68021 c -0.26754,0.0849 -0.31484,0.42786 -0.15796,0.63164 0.20015,0.26 0.49694,0.46229 0.71872,0.7075 0.43784,0.4841 0.82276,1.02807 1.11483,1.61214 1.12857,2.25686 1.13248,4.94478 -0.13221,7.15569 -0.45773,0.80021 -1.08606,1.35465 -1.67856,2.03752 -0.25077,0.28902 -0.054,0.71133 0.33305,0.6747 0.24823,-0.0235 0.45722,-0.2846 0.62223,-0.44955 0.46531,-0.46513 0.88004,-0.9681 1.22817,-1.5273 1.54547,-2.48246 1.6194,-5.48477 0.42822,-8.11732 -0.37553,-0.82994 -0.95919,-1.59376 -1.59982,-2.23438 -0.22269,-0.22269 -0.5153,-0.60534 -0.87667,-0.49064 m -1.01831,1.18491 c -0.25297,0.0537 -0.39568,0.34267 -0.27777,0.57848 0.0872,0.17447 0.28344,0.29076 0.41908,0.42466 0.23477,0.23178 0.44971,0.49563 0.64231,0.76323 1.26459,1.75708 1.4731,4.17535 0.4818,6.10921 -0.37925,0.73985 -0.9175,1.25855 -1.46033,1.86673 -0.22177,0.24846 -0.10193,0.7154 0.27975,0.69918 0.21066,-0.009 0.36174,-0.18728 0.50911,-0.31524 0.40782,-0.35415 0.74284,-0.81051 1.03675,-1.26075 1.29661,-1.9863 1.39767,-4.62651 0.32774,-6.73144 -0.32218,-0.63385 -0.75923,-1.26389 -1.27966,-1.75103 -0.17414,-0.163 -0.41022,-0.44008 -0.67878,-0.38303 m -2.94147,0.39514 c -0.42582,0.0318 -0.75483,0.39822 -1.07477,0.64576 -0.70889,0.54849 -1.40954,1.10799 -2.12125,1.65276 -0.54109,0.41417 -1.454,-0.13584 -2.03599,0.24785 -0.34319,0.22626 -0.33981,0.5801 -0.33981,0.94612 v 2.31924 c 0,0.34841 -0.0728,0.76944 0.12865,1.07435 0.50403,0.76305 1.65574,-0.002 2.27543,0.48125 0.72598,0.56553 1.45427,1.12835 2.17782,1.69698 0.30772,0.24182 0.64805,0.61119 1.07477,0.5793 0.94262,-0.0704 0.76365,-1.16188 0.76365,-1.82377 v -5.91122 c 0,-0.65239 0.19179,-1.98636 -0.8485,-1.90862 m 0.0566,0.80557 v 8.03247 c -0.71884,-0.35807 -1.37256,-1.04544 -2.00811,-1.53718 -0.22754,-0.17605 -0.65058,-0.39243 -0.79115,-0.64546 -0.0656,-0.11803 -0.029,-0.31682 -0.029,-0.44771 v -1.04648 -1.49902 c 0,-0.18828 -0.0529,-0.47165 0.0171,-0.64798 0.0956,-0.24117 0.54429,-0.47235 0.74659,-0.62813 0.65489,-0.5043 1.32536,-1.21224 2.06468,-1.58051 m 1.92327,0.41113 c -0.35114,0.0795 -0.39286,0.48365 -0.16673,0.71767 0.34434,0.35637 0.65602,0.69221 0.89335,1.13387 0.56731,1.05574 0.5627,2.38409 0.0294,3.45057 -0.17689,0.35373 -0.41504,0.66888 -0.67924,0.96122 -0.10546,0.11668 -0.24925,0.20304 -0.33107,0.33983 -0.16286,0.27233 0.0391,0.64351 0.36743,0.61576 0.4501,-0.0381 0.93297,-0.80635 1.14262,-1.15316 0.83957,-1.38892 0.9313,-3.12707 0.19359,-4.58191 -0.2267,-0.44707 -0.53623,-0.89813 -0.91237,-1.23246 -0.153,-0.13599 -0.31291,-0.30209 -0.53698,-0.25139 m -5.14756,1.99296 v 3.2243 h -1.61216 v -3.2243 z"
         id="path35-6" />
      <path
         style="fill:#4d4d4d;stroke:#000000;stroke-width:1.097;stroke-linejoin:round;stroke-dasharray:none"
         d="m 369.2195,223.00969 14.59291,-14.1252"
         id="path17" />
      <path
         style="fill:#4d4d4d;stroke:#000000;stroke-width:1.097;stroke-linejoin:round;stroke-dasharray:none"
         d="m 383.81242,223.00969 -14.59291,-14.1252"
         id="path17-6" />
    </g>
  </g>
</svg>
