<?xml version="1.0" encoding="UTF-8" standalone="no"?>
<!-- Created with Inkscape (http://www.inkscape.org/) -->

<svg
   width="61.899193mm"
   height="64.207901mm"
   viewBox="0 0 61.899193 64.207901"
   version="1.1"
   id="svg1"
   xmlns:inkscape="http://www.inkscape.org/namespaces/inkscape"
   xmlns:sodipodi="http://sodipodi.sourceforge.net/DTD/sodipodi-0.dtd"
   xmlns="http://www.w3.org/2000/svg"
   xmlns:svg="http://www.w3.org/2000/svg">
  <sodipodi:namedview
     id="namedview1"
     pagecolor="#ffffff"
     bordercolor="#000000"
     borderopacity="0.25"
     inkscape:showpageshadow="2"
     inkscape:pageopacity="0.0"
     inkscape:pagecheckerboard="0"
     inkscape:deskcolor="#d1d1d1"
     inkscape:document-units="mm" />
  <defs
     id="defs1" />
  <g
     inkscape:label="Layer 1"
     inkscape:groupmode="layer"
     id="layer1"
     transform="translate(1251.4965,-855.55002)">
    <g
       id="g106"
       transform="translate(-1843.9092,697.21775)"
       inkscape:export-filename="15.svg"
       inkscape:export-xdpi="96"
       inkscape:export-ydpi="96">
      <path
         id="rect1-9-1-75-3-2-8-9-3"
         style="fill:#808080;stroke:none;stroke-width:0.387927;stroke-linejoin:round;stroke-dasharray:none;stroke-dashoffset:0;stroke-opacity:1"
         inkscape:transform-center-x="-7.3187379"
         inkscape:transform-center-y="0.050489573"
         d="m 643.39794,170.2971 c -1.51164,-0.0246 -2.51661,0.9355 -2.76004,2.77141 -0.23306,1.7575 0.3061,3.75981 1.59628,4.57078 l -0.18035,1.16478 c -0.0318,0.20517 -0.0182,0.38851 0.031,0.55139 -0.0865,0.033 -0.17762,0.0713 -0.26872,0.10955 -0.0865,-0.0317 -0.17245,-0.0576 -0.25631,-0.0703 -0.89423,-0.13471 -2.23556,0.58147 -2.49391,1.45573 l -2.93367,9.92704 c -0.0671,0.22722 -0.0676,0.45171 -0.0181,0.66249 l -3.25199,6.70967 c -0.0953,0.0384 -0.18299,0.0998 -0.2589,0.18965 -0.43953,0.52047 -1.01906,0.82267 -1.24075,1.28726 -0.1978,0.12422 -0.3993,0.26512 -0.60565,0.40411 -0.66439,0.44742 -1.12252,0.91591 -0.8077,1.64538 0.0768,0.178 0.18609,0.33135 0.31677,0.45837 l -2.81171,1.27124 c -1.50363,0.84321 -1.42495,2.57466 -0.8754,3.72794 0.19688,0.4402 0.76504,0.68881 1.37563,0.79272 0.15476,0.0589 0.32169,0.0956 0.49867,0.10283 l 3.74396,0.15245 c 0.002,0.22293 0.0481,0.42423 0.16071,0.58084 0.76752,1.1528 2.32265,1.71451 3.89331,1.03766 l 0.0434,-0.0217 13.01626,-1.43867 c 0.78175,-0.0863 1.36295,-0.0443 1.56373,-0.4961 1.65312,0.5895 3.18209,1.18312 3.01222,-0.86868 -0.15488,-0.98552 -1.18275,-1.95597 -2.30477,-2.17609 l -1.32085,-0.2589 c -0.72494,-0.14222 -1.30584,0.065 -1.58491,0.49506 l -2.90525,-0.0124 2.19676,-1.10278 c 0.36814,-0.18477 0.43083,-0.72453 0.33487,-1.31206 0.40332,-1.34227 -0.21038,-2.21301 -0.29766,-2.55747 -0.72181,-2.84863 -0.31532,-5.81986 0.31988,-8.8408 l 0.32659,1.23713 c 0.0753,0.28532 0.20748,0.55154 0.38138,0.78083 l 2.10529,6.71019 c 0.076,0.24231 0.15446,0.44252 0.24598,0.60254 -0.17402,0.1404 -0.32665,0.31434 -0.43718,0.49972 -0.14505,0.0454 -0.26035,0.17448 -0.29714,0.38602 l -0.30127,1.73064 c -0.0543,0.3123 0.0883,0.59742 0.31987,0.63769 0.23159,0.0403 0.46194,-0.17969 0.51625,-0.49196 l 0.14315,-0.82424 c 0.0692,0.0803 0.13474,0.15933 0.19895,0.23823 -10e-4,0.0538 -1.2e-4,0.10783 0.005,0.16278 l 0.0842,0.93948 c 0.0717,0.79771 0.76673,1.38266 1.55805,1.31154 0.79131,-0.0711 0.98498,-0.69767 1.06143,-1.49499 0.0597,-0.62224 0.14624,-1.22838 -0.0191,-1.66605 -0.003,-0.11537 -0.027,-0.22743 -0.0744,-0.33177 -0.15745,-0.34635 -0.51669,-0.73216 -0.9307,-1.01285 0.29908,-0.28977 0.31913,-0.73193 0.19793,-1.33842 l -1.31155,-6.56446 c 0.0192,-0.1331 0.0207,-0.27143 -0.005,-0.41393 l -1.82573,-10.18904 c -0.14104,-0.78729 -1.12372,-1.54503 -1.97301,-1.69499 -0.50143,-0.20009 -0.98143,-0.34671 -1.23506,-0.42064 -0.51021,-0.14871 -0.93003,-0.32986 -1.32292,-0.49868 0.1506,-0.23648 0.21793,-0.52296 0.16381,-0.85835 l -0.28938,-1.79214 c 0.56915,-0.71228 0.95789,-1.67452 1.08778,-2.6541 0.27822,-2.09817 -0.73441,-3.47909 -2.62154,-3.83129 -0.23589,-0.044 -0.46256,-0.0678 -0.67851,-0.0713 z m -1.09451,12.73772 h 4.86792 v 4.80901 l -1.60662,2.16989 h -4.81314 v -4.86792 h -0.0274 z m -2.52594,7.6352 c -0.13341,2.60141 -0.45101,5.16326 -0.98857,7.6109 l -4.33566,1.96009 c 0.0127,-0.0198 0.0244,-0.0317 0.0372,-0.0522 l 4.50515,-7.21661 c 0.20952,-0.33562 0.26334,-0.71767 0.19327,-1.07797 0.14453,-0.17915 0.26386,-0.38207 0.3483,-0.601 z" />
      <path
         id="rect10-1-1-3-8-0-0-6-1-2-2-7"
         style="fill:#cccccc;stroke-width:0.22124;stroke-linejoin:round"
         d="m 633.74316,184.49208 -7.47034,3.2525 -1.58802,-0.2403 -2.48305,2.1828 9.76271,-1.0811 -2.4381,-0.3689 7.51376,-3.3001 z" />
      <path
         id="rect1-7-2-76-1-7-2-9-9"
         style="stroke:#ffffff;stroke-width:0.374331;stroke-linejoin:round;stroke-dasharray:none;stroke-dashoffset:0;stroke-opacity:1"
         d="m 620.51912,169.3369 c -0.65596,-0.6225 -2.6535,-0.8227 -2.83513,0.071 l -1.8372,9.0362 c -0.18164,0.8933 -0.43907,1.8239 0.21689,2.4463 0.65597,0.6225 2.02348,0.7958 2.28298,-0.078 l 2.55761,-8.613 c 0.25951,-0.8739 0.27082,-2.2395 -0.38515,-2.862 z"
         sodipodi:nodetypes="ssssssss"
         inkscape:transform-center-x="1.1050691"
         inkscape:transform-center-y="4.2815941" />
      <path
         id="rect1-7-3-7-0-3-33-1"
         style="stroke:#ffffff;stroke-width:0.374331;stroke-linejoin:round;stroke-dasharray:none;stroke-dashoffset:0;stroke-opacity:1"
         d="m 611.26202,167.9833 c 0.8248,0.3708 1.57978,1.9383 1.01015,2.65 l -7.24775,9.0561 c -0.56963,0.7117 -1.52097,1.0981 -2.34578,0.7273 -0.8248,-0.3708 -1.31072,-1.3911 -0.79378,-2.142 l 6.58297,-9.5621 c 0.51694,-0.7508 1.96939,-1.1001 2.79419,-0.7293 z"
         sodipodi:nodetypes="sssssss"
         inkscape:transform-center-x="2.8406965"
         inkscape:transform-center-y="4.6739621" />
      <path
         id="rect1-9-4-4-31-7-1-41-3"
         style="stroke:#ffffff;stroke-width:0.387927;stroke-linejoin:round;stroke-dasharray:none;stroke-dashoffset:0;stroke-opacity:1"
         d="m 615.83252,204.66904 1.60067,-0.1868 c 0.90455,-0.1055 1.836,0.5876 1.83781,1.5666 l 0.0257,13.9986 c 0.002,0.9791 0.16859,1.6285 -0.73595,1.734 l -0.72156,0.084 c -0.90455,0.1056 -1.7242,-0.5932 -1.8378,-1.5666 l -1.5966,-13.6823 c -0.1136,-0.9735 0.52316,-1.8421 1.42771,-1.9477 z"
         sodipodi:nodetypes="sssssssss" />
      <path
         id="rect1-9-1-95-4-0-2-9"
         style="stroke:#ffffff;stroke-width:0.387927;stroke-linejoin:round;stroke-dasharray:none;stroke-dashoffset:0;stroke-opacity:1"
         d="m 606.87757,202.95194 h 1.61153 c 0.91068,0 1.68037,0.7898 1.64383,1.7691 l -0.51391,13.7751 c -0.0365,0.9793 -0.73315,1.7691 -1.64384,1.7691 h -0.61225 c -0.91069,0 -0.87342,-0.7931 -0.95651,-1.7691 l -1.1727,-13.7751 c -0.0831,-0.976 0.73315,-1.7691 1.64385,-1.7691 z"
         sodipodi:nodetypes="sssssssss" />
      <path
         id="rect1-9-69-4-8-1-2"
         style="stroke:#ffffff;stroke-width:0.359059;stroke-linejoin:round;stroke-dasharray:none;stroke-dashoffset:0;stroke-opacity:1"
         d="m 610.36612,189.5234 2.54142,0.6649 c 0.88294,0.2309 2.28297,1.4043 1.96943,2.1826 l -4.77553,11.85514 c -0.31353,0.7783 -1.07539,1.2924 -1.96153,1.0739 l -1.56809,-0.3866 c -0.88614,-0.2185 -1.43476,-1.0484 -1.23752,-1.8626 l 3.01579,-12.45034 c 0.19755,-0.8142 1.13307,-1.3079 2.01602,-1.077 z"
         sodipodi:nodetypes="ssssssssss" />
      <path
         id="rect1-9-4-41-7-6-7-9"
         style="stroke:#ffffff;stroke-width:0.359059;stroke-linejoin:round;stroke-dasharray:none;stroke-dashoffset:0;stroke-opacity:1"
         d="m 615.98084,190.0441 2.73138,0.3113 c 0.90675,0.1034 1.63432,0.8667 1.55858,1.7011 l -1.1552,12.72614 c -0.0754,0.8344 -0.86257,1.4432 -1.77184,1.3644 l -1.60901,-0.1395 c -0.90926,-0.079 -1.45037,-0.8115 -1.51071,-1.6488 l -0.9425,-13.07584 c -0.0603,-0.8373 1.79253,-1.3421 2.69929,-1.2387 z"
         sodipodi:nodetypes="sssssssss" />
      <path
         id="rect1-0-0-2-1-1"
         style="stroke:none;stroke-width:0.351231;stroke-linejoin:round;stroke-dasharray:none;stroke-dashoffset:0;stroke-opacity:1"
         d="m 610.00674,167.5017 c 3.74019,-1.0108 6.16807,0.4451 8.66893,1.0834 0.78307,0.1999 1.45565,0.3281 1.40044,1.2376 -0.37491,6.1747 -2.03724,12.6318 -0.36776,18.4014 0.4717,1.6301 0.30058,3.0748 0.36776,4.5614 0.0411,0.9104 -0.64614,1.6455 -1.44872,1.6455 h -8.62651 c -0.80259,0 -1.48588,-0.7348 -1.44872,-1.6455 0.0705,-1.7288 -0.0204,-3.3217 0.38849,-5.4099 1.10518,-5.6437 0.25132,-11.6295 -0.38849,-17.5529 -0.0977,-0.9049 0.66845,-2.1085 1.45458,-2.321 z"
         sodipodi:nodetypes="sssssssssss" />
      <path
         id="rect1-7-8-5-1-5-4-34-31-3-6-1-4"
         style="stroke:#ffffff;stroke-width:0.453133;stroke-linejoin:round;stroke-dasharray:none;stroke-dashoffset:0;stroke-opacity:1"
         d="m 608.87235,218.62744 c -0.62285,-0.6996 -2.00013,-1.0414 -3.08804,-0.7664 l -1.28068,0.3238 c -1.08794,0.275 -1.46233,1.0597 -0.83948,1.7593 0.62284,0.6996 1.64148,0.7106 2.82653,0.5701 1.80001,-0.2132 3.58652,-0.3158 2.38167,-1.8868 z"
         sodipodi:nodetypes="ssssss" />
      <path
         id="rect1-7-8-5-1-5-4-34-0-1-3-9-5-1"
         style="stroke:#ffffff;stroke-width:0.419911;stroke-linejoin:round;stroke-dasharray:none;stroke-dashoffset:0;stroke-opacity:1"
         d="m 618.52346,220.48704 c -0.72948,-0.5834 -2.13738,-0.8257 -3.15673,-0.5432 l -1.19996,0.3325 c -1.01935,0.2825 -1.2527,0.9796 -0.52323,1.563 0.72948,0.5834 1.72961,0.5523 2.86704,0.383 1.72771,-0.2572 3.46102,-0.4176 2.01288,-1.7353 z"
         sodipodi:nodetypes="ssssss" />
      <path
         id="rect1-7-5-6-7-4-2-9"
         style="stroke:#ffffff;stroke-width:0.374331;stroke-linejoin:round;stroke-dasharray:none;stroke-dashoffset:0;stroke-opacity:1"
         d="m 616.44168,167.1203 -0.45532,-2.679 c -0.24664,-1.4512 -2.90483,-1.3535 -3.18644,0.3728 l -0.40194,2.464 c -0.34759,2.1309 4.40356,1.9595 4.0437,-0.1578 z"
         sodipodi:nodetypes="sssss" />
      <path
         id="path1-73-1-5-9-0"
         style="stroke:#ffffff;stroke-width:0.287201;stroke-linejoin:round;stroke-dasharray:none;stroke-dashoffset:0;stroke-opacity:1"
         d="m 617.06672,161.9264 c 0,2.22 -1.20507,4.5888 -3.15384,4.5888 -1.94876,0 -3.10387,-2.3688 -3.10387,-4.5888 0,-2.22 1.15511,-3.4505 3.10387,-3.4505 1.94877,0 3.15384,1.2305 3.15384,3.4505 z"
         sodipodi:nodetypes="sssss" />
      <path
         id="rect1-7-8-30-8-6-6-3-1"
         style="stroke:#ffffff;stroke-width:0.313714;stroke-linejoin:round;stroke-dasharray:none;stroke-dashoffset:0;stroke-opacity:1"
         d="m 604.13361,178.5848 c 0.36592,0.8453 0.22563,1.8059 -0.38082,1.9766 l -7.04508,1.9833 c -0.60646,0.1707 -0.93717,0.1183 -1.30309,-0.7269 -0.36593,-0.8453 -0.17697,-1.2586 0.40264,-1.5039 l 6.62451,-2.8041 c 0.57961,-0.2453 1.33591,0.2297 1.70184,1.075 z"
         sodipodi:nodetypes="sssssss"
         inkscape:transform-center-x="0.63653695"
         inkscape:transform-center-y="2.8354273" />
      <path
         id="rect1-7-8-5-1-8-52-7-5-7-9-3"
         style="stroke:#ffffff;stroke-width:0.374331;stroke-linejoin:round;stroke-dasharray:none;stroke-dashoffset:0;stroke-opacity:1"
         d="m 593.82752,180.5937 c 0.74452,-0.2773 1.95513,0.06 1.84856,0.8542 -0.13164,0.9806 0.27626,1.8708 -0.66474,2.3237 -0.74649,0.3593 -1.84918,0.046 -2.04892,-0.6453 -0.22236,-0.7695 0.1206,-2.2552 0.86512,-2.5326 z"
         sodipodi:nodetypes="sssss" />
      <path
         id="rect1-7-8-5-1-5-4-8-8-8-1-1-0"
         style="stroke:#ffffff;stroke-width:0.350611;stroke-linejoin:round;stroke-dasharray:none;stroke-dashoffset:0;stroke-opacity:1"
         d="m 593.92981,181.35894 c 0.70395,0.0826 1.21016,0.78013 1.13498,1.56427 l -0.0885,0.92316 c -0.0752,0.78426 -0.70244,1.34918 -1.4064,1.2668 -0.70395,-0.0826 -0.86753,-0.70188 -0.92433,-1.48796 -0.0864,-1.19414 -0.26708,-2.33261 1.28425,-2.26627 z"
         sodipodi:nodetypes="ssssss" />
      <path
         id="rect1-7-8-5-5-6-7-3-8-5-2-86-0"
         style="stroke:#ffffff;stroke-width:0.374331;stroke-linejoin:round;stroke-dasharray:none;stroke-dashoffset:0;stroke-opacity:1"
         d="m 594.37993,180.9048 c -0.089,-0.2175 -0.004,-0.4568 0.28122,-0.5736 l 1.62571,-0.6653 c 0.29337,-0.12 0.60204,-0.042 0.69108,0.1757 0.089,0.2175 -0.0763,0.4897 -0.36964,0.6097 l -1.62571,0.6654 c -0.22905,0.094 -0.51361,0 -0.60264,-0.2119 z"
         sodipodi:nodetypes="sssssss" />
      <path
         id="rect1-7-8-3-2-6-6-1-3-4"
         style="stroke:#ffffff;stroke-width:0.317429;stroke-linejoin:round;stroke-dasharray:none;stroke-dashoffset:0;stroke-opacity:1"
         d="m 616.82298,179.921 c -0.2998,-0.8699 -1.06972,-1.4925 -1.6407,-1.1912 l -6.87838,3.63 c -0.57099,0.3014 -0.79315,0.552 -0.49335,1.4218 0.29979,0.8699 0.73218,1.0611 1.33415,0.8294 l 7.11986,-2.741 c 0.60197,-0.2317 0.85822,-1.0792 0.55842,-1.949 z"
         sodipodi:nodetypes="sssssss"
         inkscape:transform-center-x="-0.9260688"
         inkscape:transform-center-y="2.5990413" />
      <path
         id="rect1-7-8-5-1-8-7-5-7-9-2-91-4"
         style="stroke:#ffffff;stroke-width:0.374331;stroke-linejoin:round;stroke-dasharray:none;stroke-dashoffset:0;stroke-opacity:1"
         d="m 609.14462,183.5653 c -0.007,-0.7945 -0.75545,-1.8043 -1.45867,-1.421 -0.86872,0.4736 -1.84592,0.411 -1.93238,1.4517 -0.0686,0.8257 0.61851,1.7433 1.33529,1.6828 0.79809,-0.068 2.06298,-0.9191 2.05576,-1.7135 z"
         sodipodi:nodetypes="sssss" />
      <path
         id="rect1-7-8-5-5-6-7-7-5-4-9-4-1-1"
         style="stroke:#ffffff;stroke-width:0.374331;stroke-linejoin:round;stroke-dasharray:none;stroke-dashoffset:0;stroke-opacity:1"
         d="m 608.02986,182.3856 c 0.0544,-0.2287 -0.0664,-0.452 -0.36635,-0.5233 l -1.70888,-0.4065 c -0.30839,-0.073 -0.60131,0.052 -0.65571,0.2801 -0.0544,0.2287 0.15094,0.4721 0.4593,0.5454 l 1.70889,0.4066 c 0.24077,0.057 0.50834,-0.074 0.56275,-0.3023 z"
         sodipodi:nodetypes="sssssss" />
      <path
         id="rect1-7-8-5-1-5-4-364-1-3-9-8-6-4"
         style="stroke:#ffffff;stroke-width:0.374331;stroke-linejoin:round;stroke-dasharray:none;stroke-dashoffset:0;stroke-opacity:1"
         d="m 607.57584,184.0122 c -0.1573,-0.7788 -0.91596,-1.2781 -1.70102,-1.1195 l -0.92418,0.1867 c -0.78508,0.1585 -1.29047,0.9131 -1.13318,1.6919 0.1573,0.7788 0.80086,0.9027 1.60177,0.8914 1.21651,-0.017 2.38674,0.077 2.15661,-1.6505 z"
         sodipodi:nodetypes="ssssss" />
      <path
         id="path1-7-0-3-2-1-8-5"
         style="fill:#f9f9f9;stroke:#ffffff;stroke-width:0.157056;stroke-linejoin:round;stroke-dasharray:none;stroke-dashoffset:0;stroke-opacity:1"
         d="m 599.38232,182.46992 a 0.91321415,0.93316967 9.9841497 0 0 -0.91381,0.93944 0.91321415,0.93316967 9.9841497 0 0 0.20699,0.58801 l -0.0109,1.3e-4 1.39957,1.71713 1.35894,-1.69526 a 0.91321415,0.93316967 9.9841497 0 0 0.24243,-0.63419 0.91321415,0.93316967 9.9841497 0 0 -0.91381,-0.92559 0.91321415,0.93316967 9.9841497 0 0 -0.68449,0.32081 0.91321415,0.93316967 9.9841497 0 0 -0.68499,-0.31048 z" />
      <g
         id="g6-1-3-4-2-8-5"
         transform="matrix(0.49415159,0,0,0.49415159,556.01127,104.74663)"
         style="stroke-width:0.98363;stroke-dasharray:none">
        <rect
           style="opacity:1;fill:#000000;stroke:#ffffff;stroke-width:0.98363;stroke-linejoin:round;stroke-dasharray:none"
           id="rect5-8-8-5-2-0-2"
           width="10.664055"
           height="10.785408"
           x="81.009392"
           y="159.09109" />
        <path
           id="rect5-9-6-0-9-4-5-7"
           style="fill:#000000;stroke:#ffffff;stroke-width:1.23721;stroke-linejoin:round;stroke-dasharray:none"
           transform="matrix(0.63208417,-0.77489973,0,1,0,0)"
           d="m 145.0336,271.4776 5.6318,-0.31314 1e-5,10.65467 -5.63181,0.44388 z"
           sodipodi:nodetypes="ccccc" />
        <rect
           style="fill:#000000;stroke:#ffffff;stroke-width:1.09923;stroke-linejoin:round;stroke-dasharray:none"
           id="rect5-9-1-3-0-6-1-1-5"
           width="5.8412356"
           height="10.785408"
           x="-198.68402"
           y="-210.75246"
           transform="matrix(0.59903324,-0.80072416,-1,0,0,0)" />
      </g>
    </g>
  </g>
</svg>
