<?xml version="1.0" encoding="UTF-8" standalone="no"?>
<!-- Created with Inkscape (http://www.inkscape.org/) -->

<svg
   width="24.55018mm"
   height="78.939499mm"
   viewBox="0 0 24.55018 78.939499"
   version="1.1"
   id="svg1"
   xmlns:inkscape="http://www.inkscape.org/namespaces/inkscape"
   xmlns:sodipodi="http://sodipodi.sourceforge.net/DTD/sodipodi-0.dtd"
   xmlns="http://www.w3.org/2000/svg"
   xmlns:svg="http://www.w3.org/2000/svg">
  <sodipodi:namedview
     id="namedview1"
     pagecolor="#ffffff"
     bordercolor="#000000"
     borderopacity="0.25"
     inkscape:showpageshadow="2"
     inkscape:pageopacity="0.0"
     inkscape:pagecheckerboard="0"
     inkscape:deskcolor="#d1d1d1"
     inkscape:document-units="mm" />
  <defs
     id="defs1" />
  <g
     inkscape:label="Layer 1"
     inkscape:groupmode="layer"
     id="layer1"
     transform="translate(1232.8219,-1189.1563)">
    <g
       id="g59"
       transform="translate(-1591.0678,859.39932)"
       inkscape:export-filename="18.svg"
       inkscape:export-xdpi="96"
       inkscape:export-ydpi="96">
      <path
         id="rect1-7-3-7-0-9-1-7"
         style="stroke:#ffffff;stroke-width:0.199939;stroke-linejoin:round;stroke-dasharray:none;stroke-dashoffset:0;stroke-opacity:1"
         d="m 374.63911,354.21719 c -0.71698,0.129 -0.99892,2.35282 -0.52114,2.63347 l 5.20246,3.05606 c 0.47775,0.28065 1.43742,0.31835 2.1544,0.18936 0.71697,-0.129 1.41821,-2.66306 0.9677,-2.90939 l -5.61864,-3.07205 c -0.45051,-0.24631 -1.46781,-0.0264 -2.18478,0.10255 z"
         sodipodi:nodetypes="sssssss"
         inkscape:transform-center-x="-2.663525"
         inkscape:transform-center-y="1.4734571" />
      <path
         id="rect1-7-3-7-0-9-6"
         style="stroke:#ffffff;stroke-width:0.199939;stroke-linejoin:round;stroke-dasharray:none;stroke-dashoffset:0;stroke-opacity:1"
         d="m 366.40283,353.95542 c 0.71697,0.12899 1.0169,2.38596 0.52114,2.63346 l -5.55947,2.77555 c -0.49575,0.2475 -1.23342,0.0123 -1.9504,-0.11665 -0.71698,-0.129 -1.27011,-2.08575 -0.81469,-2.32287 l 5.31263,-2.76603 c 0.45542,-0.23712 1.77381,-0.33247 2.49079,-0.20346 z"
         sodipodi:nodetypes="sssssss"
         inkscape:transform-center-x="2.6635275"
         inkscape:transform-center-y="1.4734479" />
      <path
         id="rect1-9-4-4-31-7-6-2"
         style="stroke:#ffffff;stroke-width:0.387927;stroke-linejoin:round;stroke-dasharray:none;stroke-dashoffset:0;stroke-opacity:1"
         d="m 373.65991,390.383 h 1.61153 c 0.91069,0 1.75553,0.7964 1.64384,1.76906 l -1.59696,13.90723 c -0.11169,0.97267 -0.0213,1.63699 -0.93196,1.63699 h -0.72645 c -0.91069,0 -1.64384,-0.78901 -1.64384,-1.76907 v -13.77515 c 0,-0.98006 0.73315,-1.76906 1.64384,-1.76906 z"
         sodipodi:nodetypes="sssssssss" />
      <path
         id="rect1-9-1-95-4-9-4"
         style="stroke:#ffffff;stroke-width:0.387927;stroke-linejoin:round;stroke-dasharray:none;stroke-dashoffset:0;stroke-opacity:1"
         d="m 365.39587,390.46991 h 1.61153 c 0.91068,0 1.68038,0.78978 1.64384,1.76906 l -0.51392,13.77514 c -0.0365,0.97928 -0.73315,1.76907 -1.64384,1.76907 h -0.61224 c -0.91069,0 -0.87343,-0.79309 -0.95652,-1.76907 l -1.17269,-13.77514 c -0.0831,-0.97598 0.73315,-1.76906 1.64384,-1.76906 z"
         sodipodi:nodetypes="sssssssss" />
      <path
         id="rect1-9-69-4-89-25"
         style="stroke:#ffffff;stroke-width:0.359059;stroke-linejoin:round;stroke-dasharray:none;stroke-dashoffset:0;stroke-opacity:1"
         d="m 365.46592,376.61953 2.62668,0.0372 c 0.91255,0.0129 2.55276,0.81702 2.43465,1.64778 l -1.79886,12.65353 c -0.1181,0.83076 -0.73475,1.51228 -1.64742,1.51228 h -1.61505 c -0.91267,0 -1.64401,-0.67448 -1.64742,-1.51228 l -0.0522,-12.81021 c -0.003,-0.83779 0.78705,-1.54114 1.69961,-1.52824 z"
         sodipodi:nodetypes="ssssssssss" />
      <path
         id="rect1-9-4-41-7-8-42"
         style="stroke:#ffffff;stroke-width:0.359059;stroke-linejoin:round;stroke-dasharray:none;stroke-dashoffset:0;stroke-opacity:1"
         d="m 372.63461,376.47095 2.74806,0.0743 c 0.91229,0.0247 1.70304,0.72238 1.69962,1.56017 l -0.0522,12.77828 c -0.003,0.83779 -0.73475,1.51227 -1.64743,1.51227 h -1.61504 c -0.91267,0 -1.51502,-0.68333 -1.64742,-1.51227 l -2.06786,-12.94564 c -0.13241,-0.82894 1.66997,-1.49177 2.58226,-1.4671 z"
         sodipodi:nodetypes="sssssssss" />
      <path
         id="rect1-0-0-1-78"
         style="stroke:none;stroke-width:0.374331;stroke-linejoin:round;stroke-dasharray:none;stroke-dashoffset:0;stroke-opacity:1"
         d="m 365.51366,353.53854 c 4.48101,-1.82226 6.95787,-0.63831 9.7985,0 0.88945,0.19987 1.70825,0.73607 1.64554,1.64554 -0.42585,6.17474 -2.31402,12.63188 -0.41772,18.40141 0.53578,1.63011 0.34141,3.07487 0.41772,4.56138 0.0467,0.91043 -0.73392,1.64554 -1.64554,1.64554 h -9.7985 c -0.91164,0 -1.66848,-0.7342 -1.64554,-1.64554 0.0443,-1.76206 -0.17825,-3.46578 0.44127,-5.40989 1.76084,-5.52564 0.28546,-11.62948 -0.44127,-17.5529 -0.11101,-0.90484 0.80106,-1.30212 1.64554,-1.64554 z"
         sodipodi:nodetypes="sssssssssss" />
      <path
         id="rect1-7-8-5-1-5-4-34-31-3-3-0"
         style="stroke:#ffffff;stroke-width:0.485783;stroke-linejoin:round;stroke-dasharray:none;stroke-dashoffset:0;stroke-opacity:1"
         d="m 367.13252,405.61696 c -0.70994,-0.70086 -2.11346,-0.87118 -3.14686,-0.38187 l -1.21653,0.576 c -1.03342,0.4893 -1.29383,1.44747 -0.58389,2.14834 0.70994,0.70087 1.71459,0.54999 2.86223,0.19914 1.7432,-0.53283 3.48839,-0.93686 2.08505,-2.54161 z"
         sodipodi:nodetypes="ssssss" />
      <path
         id="rect1-7-8-5-1-5-4-34-0-1-3-2-5"
         style="stroke:#ffffff;stroke-width:0.485783;stroke-linejoin:round;stroke-dasharray:none;stroke-dashoffset:0;stroke-opacity:1"
         d="m 372.98925,405.61696 c 0.70994,-0.70086 2.11345,-0.87118 3.14686,-0.38187 l 1.21653,0.576 c 1.03342,0.4893 1.29383,1.44747 0.58389,2.14834 -0.70994,0.70087 -1.7146,0.54999 -2.86223,0.19914 -1.7432,-0.53283 -3.48839,-0.93686 -2.08505,-2.54161 z"
         sodipodi:nodetypes="ssssss" />
      <path
         id="rect1-7-5-6-7-5-81"
         style="stroke:#ffffff;stroke-width:0.374331;stroke-linejoin:round;stroke-dasharray:none;stroke-dashoffset:0;stroke-opacity:1"
         d="m 372.40566,352.4817 -0.45533,-2.67901 c -0.24663,-1.45117 -2.90483,-1.35351 -3.18644,0.37283 l -0.40194,2.46403 c -0.34758,2.13083 4.40357,1.95947 4.04371,-0.15785 z"
         sodipodi:nodetypes="sssss" />
      <path
         id="path1-73-1-7-8"
         style="stroke:#ffffff;stroke-width:0.306754;stroke-linejoin:round;stroke-dasharray:none;stroke-dashoffset:0;stroke-opacity:1"
         d="m 373.93895,347.28924 c 0,2.21459 -1.37809,4.57763 -3.60666,4.57763 -2.22857,0 -3.54953,-2.36304 -3.54953,-4.57763 0,-2.2146 1.32096,-3.44212 3.54953,-3.44212 2.22857,0 3.60666,1.22752 3.60666,3.44212 z"
         sodipodi:nodetypes="sssss" />
      <path
         id="rect1-7-8-5-5-6-7-7-5-4-9-8-0"
         style="stroke:#ffffff;stroke-width:0.374331;stroke-linejoin:round;stroke-dasharray:none;stroke-dashoffset:0;stroke-opacity:1"
         d="m 363.61925,348.85155 c 0.15799,0.17405 0.41047,0.20045 0.63875,-0.007 l 1.30065,-1.18061 c 0.23472,-0.21306 0.29714,-0.52529 0.13915,-0.69935 -0.158,-0.17405 -0.47481,-0.14204 -0.70951,0.071 l -1.30066,1.18063 c -0.18325,0.16634 -0.22639,0.46106 -0.0684,0.63512 z"
         sodipodi:nodetypes="sssssss" />
      <path
         id="rect1-7-8-3-2-6-6-9-61"
         style="stroke:#ffffff;stroke-width:0.317429;stroke-linejoin:round;stroke-dasharray:none;stroke-dashoffset:0;stroke-opacity:1"
         d="m 359.63302,358.59783 c 0.86408,0.31604 1.75114,0.0893 1.95919,-0.52184 l 2.71741,-7.98253 c 0.20806,-0.61118 0.0719,-0.96362 -0.79211,-1.27963 -0.86408,-0.31605 -1.21175,-0.0721 -1.48508,0.51218 l -3.55965,7.6091 c -0.27333,0.58427 0.29616,1.34671 1.16024,1.66272 z"
         sodipodi:nodetypes="sssssss"
         inkscape:transform-center-x="0.97454466"
         inkscape:transform-center-y="2.4815147" />
      <path
         id="rect1-7-8-5-1-8-7-5-7-9-22-32"
         style="stroke:#ffffff;stroke-width:0.374331;stroke-linejoin:round;stroke-dasharray:none;stroke-dashoffset:0;stroke-opacity:1"
         d="m 363.01038,349.49076 c 0.7566,0.24248 1.95023,-0.15106 1.80692,-0.93906 -0.17704,-0.97345 0.18908,-1.88164 -0.77196,-2.29034 -0.76236,-0.32424 -1.8493,0.0402 -2.01674,0.73976 -0.1864,0.77893 0.22518,2.24716 0.98181,2.48964 z"
         sodipodi:nodetypes="sssss" />
      <path
         id="rect1-7-8-5-1-5-4-364-1-3-9-6-04"
         style="stroke:#ffffff;stroke-width:0.374331;stroke-linejoin:round;stroke-dasharray:none;stroke-dashoffset:0;stroke-opacity:1"
         d="m 363.11121,348.19277 c 0.76916,0.19903 1.54992,-0.26495 1.75057,-1.04033 l 0.23622,-0.91277 c 0.20066,-0.77539 -0.25703,-1.55985 -1.0262,-1.7589 -0.76915,-0.19904 -1.16196,0.32557 -1.50201,1.0508 -0.51658,1.10151 -1.11251,2.11298 0.54142,2.6612 z"
         sodipodi:nodetypes="ssssss" />
      <path
         id="rect1-7-8-5-5-6-7-7-5-4-9-8-3-3"
         style="stroke:#ffffff;stroke-width:0.374331;stroke-linejoin:round;stroke-dasharray:none;stroke-dashoffset:0;stroke-opacity:1"
         d="m 377.42268,349.11333 c -0.15798,0.17405 -0.41046,0.20045 -0.63874,-0.007 l -1.30065,-1.18062 c -0.23472,-0.21305 -0.29715,-0.52528 -0.13915,-0.69934 0.158,-0.17405 0.4748,-0.14205 0.70951,0.071 l 1.30066,1.18063 c 0.18325,0.16634 0.22639,0.46106 0.0684,0.63512 z"
         sodipodi:nodetypes="sssssss" />
      <path
         id="rect1-7-8-3-2-6-6-9-3-1"
         style="stroke:#ffffff;stroke-width:0.317429;stroke-linejoin:round;stroke-dasharray:none;stroke-dashoffset:0;stroke-opacity:1"
         d="m 381.40892,358.8596 c -0.86408,0.31605 -1.75115,0.0893 -1.9592,-0.52183 l -2.7174,-7.98253 c -0.20806,-0.61118 -0.0719,-0.96362 0.7921,-1.27963 0.86408,-0.31605 1.21175,-0.0721 1.48508,0.51217 l 3.55966,7.60911 c 0.27333,0.58426 -0.29616,1.34671 -1.16024,1.66271 z"
         sodipodi:nodetypes="sssssss"
         inkscape:transform-center-x="-0.97454077"
         inkscape:transform-center-y="2.4815135" />
      <path
         id="rect1-7-8-5-1-8-7-5-7-9-22-6-3"
         style="stroke:#ffffff;stroke-width:0.374331;stroke-linejoin:round;stroke-dasharray:none;stroke-dashoffset:0;stroke-opacity:1"
         d="m 378.03156,349.75254 c -0.7566,0.24248 -1.95024,-0.15106 -1.80692,-0.93907 0.17704,-0.97344 -0.18909,-1.88163 0.77196,-2.29033 0.76236,-0.32424 1.84929,0.0402 2.01674,0.73976 0.1864,0.77893 -0.22519,2.24716 -0.98181,2.48963 z"
         sodipodi:nodetypes="sssss" />
      <path
         id="rect1-7-8-5-1-5-4-364-1-3-9-6-0-7"
         style="stroke:#ffffff;stroke-width:0.374331;stroke-linejoin:round;stroke-dasharray:none;stroke-dashoffset:0;stroke-opacity:1"
         d="m 377.93073,348.45454 c -0.76916,0.19904 -1.54992,-0.26494 -1.75057,-1.04032 l -0.23622,-0.91277 c -0.20066,-0.77539 0.25703,-1.55985 1.02619,-1.7589 0.76916,-0.19905 1.16197,0.32557 1.50201,1.0508 0.51658,1.10151 1.11252,2.11298 -0.54141,2.66119 z"
         sodipodi:nodetypes="ssssss" />
      <path
         style="fill:#252121;stroke:none;stroke-width:0.213772"
         d="m 374.09016,329.77807 c -0.26754,0.0849 -0.31484,0.42786 -0.15796,0.63164 0.20015,0.26 0.49694,0.46229 0.71872,0.7075 0.43784,0.4841 0.82276,1.02807 1.11483,1.61214 1.12857,2.25686 1.13248,4.94478 -0.13221,7.15569 -0.45773,0.80021 -1.08606,1.35465 -1.67856,2.03752 -0.25077,0.28902 -0.054,0.71133 0.33305,0.6747 0.24823,-0.0235 0.45722,-0.2846 0.62223,-0.44955 0.46531,-0.46513 0.88004,-0.9681 1.22817,-1.5273 1.54547,-2.48246 1.6194,-5.48477 0.42822,-8.11732 -0.37553,-0.82994 -0.95919,-1.59376 -1.59982,-2.23438 -0.22269,-0.22269 -0.5153,-0.60534 -0.87667,-0.49064 m -1.01831,1.18491 c -0.25297,0.0537 -0.39568,0.34267 -0.27777,0.57848 0.0872,0.17447 0.28344,0.29076 0.41908,0.42466 0.23477,0.23178 0.44971,0.49563 0.64231,0.76323 1.26459,1.75708 1.4731,4.17535 0.4818,6.10921 -0.37925,0.73985 -0.9175,1.25855 -1.46033,1.86673 -0.22177,0.24846 -0.10193,0.7154 0.27975,0.69918 0.21066,-0.009 0.36174,-0.18728 0.50911,-0.31524 0.40782,-0.35415 0.74284,-0.81051 1.03675,-1.26075 1.29661,-1.9863 1.39767,-4.62651 0.32774,-6.73144 -0.32218,-0.63385 -0.75923,-1.26389 -1.27966,-1.75103 -0.17414,-0.163 -0.41022,-0.44008 -0.67878,-0.38303 m -2.94147,0.39514 c -0.42582,0.0318 -0.75483,0.39822 -1.07477,0.64576 -0.70889,0.54849 -1.40954,1.10799 -2.12125,1.65276 -0.54109,0.41417 -1.454,-0.13584 -2.03599,0.24785 -0.34319,0.22626 -0.33981,0.5801 -0.33981,0.94612 v 2.31924 c 0,0.34841 -0.0728,0.76944 0.12865,1.07435 0.50403,0.76305 1.65574,-0.002 2.27543,0.48125 0.72598,0.56553 1.45427,1.12835 2.17782,1.69698 0.30772,0.24182 0.64805,0.61119 1.07477,0.5793 0.94262,-0.0704 0.76365,-1.16188 0.76365,-1.82377 v -5.91122 c 0,-0.65239 0.19179,-1.98636 -0.8485,-1.90862 m 0.0566,0.80557 v 8.03247 c -0.71884,-0.35807 -1.37256,-1.04544 -2.00811,-1.53718 -0.22754,-0.17605 -0.65058,-0.39243 -0.79115,-0.64546 -0.0656,-0.11803 -0.029,-0.31682 -0.029,-0.44771 v -1.04648 -1.49902 c 0,-0.18828 -0.0529,-0.47165 0.0171,-0.64798 0.0956,-0.24117 0.54429,-0.47235 0.74659,-0.62813 0.65489,-0.5043 1.32536,-1.21224 2.06468,-1.58051 m 1.92327,0.41113 c -0.35114,0.0795 -0.39286,0.48365 -0.16673,0.71767 0.34434,0.35637 0.65602,0.69221 0.89335,1.13387 0.56731,1.05574 0.5627,2.38409 0.0294,3.45057 -0.17689,0.35373 -0.41504,0.66888 -0.67924,0.96122 -0.10546,0.11668 -0.24925,0.20304 -0.33107,0.33983 -0.16286,0.27233 0.0391,0.64351 0.36743,0.61576 0.4501,-0.0381 0.93297,-0.80635 1.14262,-1.15316 0.83957,-1.38892 0.9313,-3.12707 0.19359,-4.58191 -0.2267,-0.44707 -0.53623,-0.89813 -0.91237,-1.23246 -0.153,-0.13599 -0.31291,-0.30209 -0.53698,-0.25139 m -5.14756,1.99296 v 3.2243 h -1.61216 v -3.2243 z"
         id="path35" />
    </g>
  </g>
</svg>
