<?xml version="1.0" encoding="UTF-8" standalone="no"?>
<!-- Created with Inkscape (http://www.inkscape.org/) -->

<svg
   width="55.760288mm"
   height="67.01516mm"
   viewBox="0 0 55.760288 67.01516"
   version="1.1"
   id="svg1"
   xmlns:inkscape="http://www.inkscape.org/namespaces/inkscape"
   xmlns:sodipodi="http://sodipodi.sourceforge.net/DTD/sodipodi-0.dtd"
   xmlns="http://www.w3.org/2000/svg"
   xmlns:svg="http://www.w3.org/2000/svg">
  <sodipodi:namedview
     id="namedview1"
     pagecolor="#ffffff"
     bordercolor="#000000"
     borderopacity="0.25"
     inkscape:showpageshadow="2"
     inkscape:pageopacity="0.0"
     inkscape:pagecheckerboard="0"
     inkscape:deskcolor="#d1d1d1"
     inkscape:document-units="mm" />
  <defs
     id="defs1" />
  <g
     inkscape:label="Layer 1"
     inkscape:groupmode="layer"
     id="layer1"
     transform="translate(1248.427,-1549.1185)">
    <g
       id="g73"
       transform="translate(-1583.1247,910.6668)"
       inkscape:export-filename="21.svg"
       inkscape:export-xdpi="96"
       inkscape:export-ydpi="96">
      <path
         id="rect1-7-3-7-0-9-1-4-5-3"
         style="fill:#f9f9f9;stroke:#000000;stroke-width:0.199939;stroke-linejoin:round;stroke-dasharray:none;stroke-dashoffset:0;stroke-opacity:1"
         inkscape:transform-center-x="-2.9271845"
         inkscape:transform-center-y="0.33228839"
         d="m 362.46728,638.55172 v 5.2e-4 c -2.22857,0 -3.54965,1.22758 -3.54965,3.44217 0,1.5493 0.64734,3.17025 1.79885,4.00492 l -0.21962,1.34514 c -0.004,0.0252 -0.007,0.0498 -0.009,0.0744 -0.85821,0.14287 -1.79235,0.39909 -2.8391,0.82476 -0.1662,0.0676 -0.33193,0.1413 -0.49506,0.21652 -0.22527,-0.0949 -0.43444,-0.14784 -0.6041,-0.12351 l -8.44909,1.21182 c -0.0404,0.006 -0.0796,0.0294 -0.11731,0.0646 l -8.04189,2.05724 c -0.20996,0.0537 -0.38269,0.12382 -0.51521,0.22634 -0.4946,-0.41164 -1.25005,-0.6873 -1.76837,-0.66249 -0.002,1.1e-4 -0.004,3.9e-4 -0.007,5.2e-4 -0.43977,-0.0493 -0.98047,0.11467 -1.53789,0.25786 -0.77582,0.19924 -1.36459,0.4878 -1.31207,1.28055 0.0525,0.79276 0.7382,1.38831 1.53738,1.33531 l 0.93844,-0.062 -0.13591,0.10284 c -0.25297,0.19098 -0.34317,0.49607 -0.20154,0.68368 0.14164,0.18726 0.45962,0.18409 0.71262,-0.007 l 0.82993,-0.62632 c 0.0602,0.019 0.12022,0.0399 0.18035,0.063 0.34747,0.13356 0.66454,-0.033 0.89503,-0.32815 0.17624,0.13521 0.40834,0.1592 0.71417,0.11576 l 8.34884,-1.18494 c 0.0152,-0.002 0.0297,-0.007 0.0444,-0.0103 0.46578,0.0463 0.95205,-0.0245 1.29449,-0.0625 l 6.34018,-0.70229 c 0.60968,4.26797 1.34944,8.5802 0.75655,12.65815 h 11.04428 c -0.59288,-4.07795 0.14687,-8.39018 0.75655,-12.65815 l 6.34018,0.70229 c 0.34244,0.038 0.82871,0.10885 1.29449,0.0625 0.0149,0.003 0.0292,0.008 0.0444,0.0103 l 8.34885,1.18494 c 0.30583,0.0434 0.53793,0.0195 0.71417,-0.11576 0.23049,0.29514 0.54756,0.46171 0.89503,0.32815 0.0601,-0.0232 0.12015,-0.044 0.18035,-0.063 l 0.82993,0.62632 c 0.253,0.19104 0.57097,0.19421 0.71261,0.007 0.14163,-0.18761 0.0514,-0.4927 -0.20153,-0.68368 l -0.13591,-0.10284 0.93844,0.062 c 0.79918,0.053 1.48487,-0.54255 1.53737,-1.33531 0.0525,-0.79275 -0.53624,-1.08131 -1.31206,-1.28055 -0.55742,-0.14319 -1.09812,-0.30716 -1.53789,-0.25786 -0.003,-1.3e-4 -0.005,-4.1e-4 -0.007,-5.2e-4 -0.51831,-0.0248 -1.27376,0.25085 -1.76836,0.66249 -0.13252,-0.10252 -0.30526,-0.17264 -0.51522,-0.22634 l -8.04188,-2.05724 c -0.0377,-0.0352 -0.0769,-0.0586 -0.11731,-0.0646 l -8.4491,-1.21182 c -0.16966,-0.0243 -0.37882,0.0286 -0.60409,0.12351 -0.16313,-0.0752 -0.32886,-0.14892 -0.49506,-0.21652 -1.04675,-0.42567 -1.9809,-0.68189 -2.83911,-0.82476 -0.002,-0.0246 -0.005,-0.0492 -0.009,-0.0744 l -0.21963,-1.34514 c 1.15151,-0.83467 1.79886,-2.45562 1.79886,-4.00492 0,-2.21459 -1.3211,-3.44217 -3.54965,-3.44217 v -5.2e-4 c -0.0388,0 -0.0724,0.008 -0.11059,0.008 -0.0382,-7.4e-4 -0.0718,-0.008 -0.11059,-0.008 z" />
      <path
         id="path11-4-78-8-5-8"
         style="fill:#808080;stroke:none;stroke-width:0.0886796;stroke-linejoin:round;stroke-dasharray:none"
         d="m 371.96096,661.42806 v -1.89127 l -1.12986,-0.0122 1.75551,-2.23628 c 0.0427,0 1.61833,2.27302 1.61833,2.27302 l -1.11972,-0.0122 v 1.87902 z" />
      <path
         id="path11-4-78-8-5-8-3"
         style="fill:#808080;stroke:none;stroke-width:0.0886796;stroke-linejoin:round;stroke-dasharray:none"
         d="m 371.96096,669.28339 v 1.89127 l -1.12986,0.0122 1.75551,2.23628 c 0.0427,0 1.61833,-2.27302 1.61833,-2.27302 l -1.11972,0.0122 v -1.87901 z" />
      <path
         id="rect1-7-3-7-0-9-1-4-5-3-5"
         style="fill:#f9f9f9;stroke:#000000;stroke-width:0.199939;stroke-linejoin:round;stroke-dasharray:none;stroke-dashoffset:0;stroke-opacity:1"
         inkscape:transform-center-x="-2.9271845"
         inkscape:transform-center-y="0.33228839"
         d="m 357.13165,666.33557 c -0.12643,1.12295 -0.34181,2.23037 -0.6873,3.31453 -0.558,1.75107 -0.43413,3.30773 -0.43615,4.88704 -0.0683,0.16439 -0.10762,0.34061 -0.10697,0.524 l 0.0522,12.81007 c 6.5e-4,0.1635 0.0297,0.32041 0.0816,0.46767 -0.11567,0.24373 -0.17327,0.52005 -0.1483,0.81339 l 1.08571,12.74806 c -0.2964,0.0408 -0.58656,0.12229 -0.85214,0.24804 l -1.21646,0.5762 c -1.03341,0.4893 -1.29387,1.44732 -0.58395,2.14819 0.70994,0.70086 1.71472,0.5498 2.86236,0.19895 0.41357,-0.12641 0.82615,-0.24551 1.19786,-0.37517 h 0.24805 c 0.91069,0 1.60732,-0.78961 1.64382,-1.76889 l 0.51418,-13.77538 c 0.009,-0.24072 -0.0315,-0.4696 -0.11007,-0.67851 0.0929,-0.18493 0.15669,-0.38879 0.18707,-0.60255 l 1.5875,-11.16573 h 0.0331 l 0.0941,0.58911 0.094,-0.58911 h 0.0331 l 1.5875,11.16573 c 0.0304,0.21376 0.0942,0.41762 0.18707,0.60255 -0.0786,0.20891 -0.11907,0.43779 -0.11007,0.67851 l 0.51418,13.77538 c 0.0365,0.97928 0.73314,1.76889 1.64383,1.76889 h 0.24804 c 0.3717,0.12966 0.78431,0.24876 1.19786,0.37517 1.14764,0.35085 2.15242,0.50191 2.86236,-0.19895 0.70993,-0.70087 0.44947,-1.65889 -0.58394,-2.14819 l -1.21647,-0.5762 c -0.26558,-0.12575 -0.55573,-0.20724 -0.85214,-0.24804 l 1.08572,-12.74806 c 0.025,-0.29334 -0.0326,-0.56966 -0.14831,-0.81339 0.052,-0.14726 0.081,-0.30417 0.0817,-0.46767 l 0.0522,-12.81007 c 6.5e-4,-0.18339 -0.0387,-0.35961 -0.10697,-0.524 -0.002,-1.57931 0.12185,-3.13597 -0.43615,-4.88704 -0.34549,-1.08416 -0.56087,-2.19158 -0.68729,-3.31453 z" />
    </g>
  </g>
</svg>
