<?xml version="1.0" encoding="UTF-8" standalone="no"?>
<!-- Created with Inkscape (http://www.inkscape.org/) -->

<svg
   width="55.802666mm"
   height="63.881634mm"
   viewBox="0 0 55.802666 63.881634"
   version="1.1"
   id="svg1"
   xmlns:inkscape="http://www.inkscape.org/namespaces/inkscape"
   xmlns:sodipodi="http://sodipodi.sourceforge.net/DTD/sodipodi-0.dtd"
   xmlns="http://www.w3.org/2000/svg"
   xmlns:svg="http://www.w3.org/2000/svg">
  <sodipodi:namedview
     id="namedview1"
     pagecolor="#ffffff"
     bordercolor="#000000"
     borderopacity="0.25"
     inkscape:showpageshadow="2"
     inkscape:pageopacity="0.0"
     inkscape:pagecheckerboard="0"
     inkscape:deskcolor="#d1d1d1"
     inkscape:document-units="mm" />
  <defs
     id="defs1" />
  <g
     inkscape:label="Layer 1"
     inkscape:groupmode="layer"
     id="layer1"
     transform="translate(1248.4483,-1645.1385)">
    <g
       id="g44"
       transform="translate(-1310.9579,791.3281)"
       inkscape:export-filename="23.svg"
       inkscape:export-xdpi="96"
       inkscape:export-ydpi="96">
      <path
         id="rect1-7-8-5-5-6-7-3-8-5-1-5-2-5"
         style="stroke:#ffffff;stroke-width:0.374331;stroke-linejoin:round;stroke-dasharray:none;stroke-dashoffset:0;stroke-opacity:1"
         d="m 93.438346,869.66139 c 0.0427,-0.2311 -0.0893,-0.448 -0.39252,-0.5039 l -1.72738,-0.319 c -0.31171,-0.058 -0.5979,0.082 -0.64058,0.3132 -0.0427,0.2312 0.17475,0.4638 0.48648,0.5213 l 1.72738,0.319 c 0.24337,0.045 0.50393,-0.099 0.54662,-0.3306 z"
         sodipodi:nodetypes="sssssss" />
      <path
         id="rect1-7-3-7-0-3-9-3-9-7-1-2-5"
         style="stroke:#ffffff;stroke-width:0.374331;stroke-linejoin:round;stroke-dasharray:none;stroke-dashoffset:0;stroke-opacity:1"
         d="m 109.54852,864.45899 c 0.50801,0.7481 0.31335,2.438 -0.52917,2.7862 l -6.69278,2.7655 c -0.84252,0.3481 -1.87091,0.1377 -2.378864,-0.6105 -0.50793,-0.7482 -0.35017,-1.798 0.447064,-2.2402 l 6.39198,-3.5449 c 0.79723,-0.4422 2.2538,0.096 2.76174,0.8439 z"
         sodipodi:nodetypes="ssssssss"
         inkscape:transform-center-x="4.9372213"
         inkscape:transform-center-y="2.3757066" />
      <path
         id="rect1-7-8-30-8-6-6-5-6-4-9-9-6-6"
         style="stroke:#ffffff;stroke-width:0.313714;stroke-linejoin:round;stroke-dasharray:none;stroke-dashoffset:0;stroke-opacity:1"
         d="m 102.20023,868.23929 c 0.30013,0.8708 0.0867,1.8178 -0.531,1.9416 l -7.176224,1.4381 c -0.61776,0.1238 -0.94351,0.046 -1.24365,-0.8245 -0.30014,-0.8708 -0.0801,-1.2684 0.51656,-1.4687 l 6.819724,-2.2886 c 0.59668,-0.2003 1.3144,0.3313 1.61456,1.2021 z"
         sodipodi:nodetypes="sssssss"
         inkscape:transform-center-x="3.4714137"
         inkscape:transform-center-y="1.2479144" />
      <path
         id="rect1-7-2-76-1-7-2-6-7-2-5-0-5-3"
         style="stroke:#ffffff;stroke-width:0.374331;stroke-linejoin:round;stroke-dasharray:none;stroke-dashoffset:0;stroke-opacity:1"
         d="m 118.12522,866.85269 c -0.0195,-0.9041 -1.30442,-1.5689 -2.01507,-0.9981 l -7.36314,5.9149 c -0.71071,0.5709 -1.57799,1.0145 -1.53422,1.9178 0.0438,0.9032 0.88775,1.928 1.70377,1.5215 l 7.92904,-3.9491 c 0.68264,-0.5944 1.2819,-2.7281 1.27962,-4.407 z"
         sodipodi:nodetypes="csssscc"
         inkscape:transform-center-x="3.8014056"
         inkscape:transform-center-y="2.0989427" />
      <path
         id="rect1-9-4-4-31-7-1-4-3-0-5-7-9-4"
         style="stroke:#ffffff;stroke-width:0.387927;stroke-linejoin:round;stroke-dasharray:none;stroke-dashoffset:0;stroke-opacity:1"
         d="m 111.38623,899.82103 1.60066,-0.1868 c 0.90456,-0.1056 1.83601,0.5875 1.83781,1.5666 l 0.0257,13.9986 c 0.002,0.979 0.1686,1.6284 -0.73595,1.7339 l -0.72155,0.084 c -0.90455,0.1056 -1.7242,-0.5931 -1.8378,-1.5666 l -1.5966,-13.6823 c -0.1136,-0.9734 0.52316,-1.8421 1.42771,-1.9476 z"
         sodipodi:nodetypes="sssssssss" />
      <path
         id="rect1-9-1-95-4-0-1-8-0-2-1-4-03"
         style="stroke:#ffffff;stroke-width:0.387927;stroke-linejoin:round;stroke-dasharray:none;stroke-dashoffset:0;stroke-opacity:1"
         d="m 104.94482,898.43463 h 1.61153 c 0.91067,0 1.68036,0.7898 1.64382,1.7691 l -0.51391,13.7751 c -0.0365,0.9793 -0.73315,1.7691 -1.64383,1.7691 h -0.61225 c -0.91069,0 -0.87342,-0.7931 -0.95651,-1.7691 l -1.1727,-13.7751 c -0.0831,-0.976 0.73316,-1.7691 1.64385,-1.7691 z"
         sodipodi:nodetypes="sssssssss" />
      <path
         id="rect1-9-69-4-8-4-7-7-73-7-5-0"
         style="stroke:#ffffff;stroke-width:0.359059;stroke-linejoin:round;stroke-dasharray:none;stroke-dashoffset:0;stroke-opacity:1"
         d="m 108.43337,885.00609 2.54141,0.6648 c 0.88295,0.231 2.28297,1.4044 1.96943,2.1827 l -4.77553,11.85504 c -0.31352,0.7784 -1.07539,1.2925 -1.96152,1.074 l -1.56809,-0.3866 c -0.88613,-0.2185 -1.43475,-1.0484 -1.23752,-1.8627 l 3.01579,-12.45024 c 0.19754,-0.8142 1.13307,-1.308 2.01602,-1.077 z"
         sodipodi:nodetypes="ssssssssss" />
      <path
         id="rect1-9-4-41-7-6-1-1-5-8-1-3-9"
         style="stroke:#ffffff;stroke-width:0.359059;stroke-linejoin:round;stroke-dasharray:none;stroke-dashoffset:0;stroke-opacity:1"
         d="m 111.70225,885.19609 2.73139,0.3113 c 0.90675,0.1033 1.63432,0.8667 1.55857,1.7011 l -1.1552,12.72604 c -0.0754,0.8344 -0.86256,1.4432 -1.77184,1.3644 l -1.609,-0.1394 c -0.90927,-0.079 -1.45037,-0.8116 -1.51072,-1.6489 l -0.94249,-13.07584 c -0.0604,-0.8373 1.79253,-1.342 2.69928,-1.2387 z"
         sodipodi:nodetypes="sssssssss" />
      <path
         id="rect1-0-0-2-5-8-0-4-2-7-6"
         style="stroke:none;stroke-width:0.314577;stroke-linejoin:round;stroke-dasharray:none;stroke-dashoffset:0;stroke-opacity:1"
         d="m 107.78456,862.98439 c 3.00028,-1.0108 4.94787,0.4451 6.95399,1.0834 0.62816,0.1999 2.9867,1.3533 2.94241,2.2628 -0.30075,6.1747 -3.45323,11.6066 -2.11401,17.3762 0.37838,1.6301 0.24111,3.0748 0.295,4.5613 0.033,0.9105 -0.64151,2.0383 -1.16213,1.6456 l -4.81778,-3.635 c -0.52062,-0.3928 -3.29411,2.9002 -3.2643,1.9894 0.0565,-1.7288 -0.0164,-3.3216 0.31164,-5.4099 0.88653,-5.6436 0.2016,-11.6294 -0.31164,-17.5529 -0.0784,-0.9048 0.53621,-2.1084 1.16682,-2.3209 z"
         sodipodi:nodetypes="sssssssssss" />
      <path
         id="rect1-7-8-5-1-5-4-34-31-3-6-5-5-8-2-4-6-7"
         style="stroke:#ffffff;stroke-width:0.453133;stroke-linejoin:round;stroke-dasharray:none;stroke-dashoffset:0;stroke-opacity:1"
         d="m 106.9396,914.11013 c -0.62284,-0.6996 -2.00013,-1.0415 -3.08804,-0.7664 l -1.28068,0.3237 c -1.08793,0.2751 -1.46233,1.0597 -0.83947,1.7594 0.62284,0.6996 1.64147,0.7106 2.82652,0.5701 1.80001,-0.2133 3.58652,-0.3159 2.38167,-1.8868 z"
         sodipodi:nodetypes="ssssss" />
      <path
         id="rect1-7-8-5-1-5-4-34-0-1-3-9-6-4-0-6-7-3-4"
         style="stroke:#ffffff;stroke-width:0.419911;stroke-linejoin:round;stroke-dasharray:none;stroke-dashoffset:0;stroke-opacity:1"
         d="m 114.07717,915.63903 c -0.72948,-0.5834 -2.13739,-0.8257 -3.15673,-0.5432 l -1.19996,0.3325 c -1.01936,0.2824 -1.2527,0.9795 -0.52323,1.5629 0.72947,0.5834 1.72961,0.5523 2.86704,0.383 1.7277,-0.2572 3.46101,-0.4176 2.01288,-1.7352 z"
         sodipodi:nodetypes="ssssss" />
      <path
         id="rect1-7-5-6-7-4-6-3-1-3-5-8-4"
         style="stroke:#ffffff;stroke-width:0.374331;stroke-linejoin:round;stroke-dasharray:none;stroke-dashoffset:0;stroke-opacity:1"
         d="m 114.01283,863.46279 0.0408,-3.5389 c 0.017,-1.4718 -2.90483,-1.3535 -3.18644,0.3729 l -0.40194,2.464 c -0.34759,2.1308 3.52286,2.8496 3.54761,0.702 z"
         sodipodi:nodetypes="sssss" />
      <path
         id="path1-73-1-5-7-3-7-0-4-1-49"
         style="stroke:#ffffff;stroke-width:0.287201;stroke-linejoin:round;stroke-dasharray:none;stroke-dashoffset:0;stroke-opacity:1"
         d="m 115.13397,857.40779 c -0.50452,2.1619 -1.20507,4.5893 -3.15384,4.5901 -1.94877,8e-4 -3.10388,-2.3675 -3.10388,-4.5875 0,-2.22 1.15656,-3.3765 3.10388,-3.4518 2.25026,-0.087 3.70893,1.0706 3.15384,3.4492 z"
         sodipodi:nodetypes="sssss" />
      <path
         id="rect1-7-8-3-2-6-6-1-0-0-7-4-5-1-8"
         style="stroke:#ffffff;stroke-width:0.317429;stroke-linejoin:round;stroke-dasharray:none;stroke-dashoffset:0;stroke-opacity:1"
         d="m 112.49465,872.30959 c -0.24857,-0.8858 -0.98096,-1.5522 -1.56855,-1.2847 l -7.07813,3.2232 c -0.58758,0.2675 -0.82396,0.5048 -0.57534,1.3906 0.24857,0.8859 0.66912,1.102 1.28357,0.9057 l 7.26744,-2.3215 c 0.61445,-0.1963 0.91963,-1.0275 0.67101,-1.9133 z"
         sodipodi:nodetypes="sssssss"
         inkscape:transform-center-x="3.9264431"
         inkscape:transform-center-y="0.63511165" />
      <path
         id="rect1-7-8-5-1-8-7-5-7-9-2-9-8-5-3-1-9-3"
         style="stroke:#ffffff;stroke-width:0.374331;stroke-linejoin:round;stroke-dasharray:none;stroke-dashoffset:0;stroke-opacity:1"
         d="m 103.83422,876.22169 c 0.0142,-0.7944 -0.70708,-1.8238 -1.42024,-1.4594 -0.88104,0.4503 -1.85621,0.3616 -1.97042,1.3997 -0.0906,0.8234 0.57175,1.7591 1.28989,1.7177 0.7996,-0.046 2.08676,-0.8636 2.10077,-1.658 z"
         sodipodi:nodetypes="sssss"
         inkscape:transform-center-x="8.8090691"
         inkscape:transform-center-y="2.6353789" />
      <path
         id="rect1-7-8-5-5-6-7-7-5-4-9-4-6-1-3-3-2-1-85"
         style="stroke:#ffffff;stroke-width:0.374331;stroke-linejoin:round;stroke-dasharray:none;stroke-dashoffset:0;stroke-opacity:1"
         d="m 102.67043,875.07959 c 0.0605,-0.2272 -0.0539,-0.4537 -0.35226,-0.5329 l -1.69742,-0.4521 c -0.30642,-0.081 -0.60246,0.035 -0.662954,0.2626 -0.0603,0.2272 0.138254,0.4759 0.444584,0.5575 l 1.69743,0.452 c 0.23914,0.064 0.51012,-0.06 0.5706,-0.2872 z"
         sodipodi:nodetypes="sssssss"
         inkscape:transform-center-x="9.5464727"
         inkscape:transform-center-y="1.010782" />
      <path
         id="rect1-7-8-5-1-5-4-364-1-3-9-8-1-8-3-7-2-2-6"
         style="stroke:#ffffff;stroke-width:0.374331;stroke-linejoin:round;stroke-dasharray:none;stroke-dashoffset:0;stroke-opacity:1"
         d="m 102.25406,876.62659 c -0.13643,-0.7827 -0.88153,-1.302 -1.67052,-1.1645 l -0.928854,0.1619 c -0.78903,0.1376 -1.31439,0.8784 -1.17789,1.6612 0.13643,0.7826 0.77647,0.9237 1.577394,0.9338 1.21653,0.015 2.38385,0.1403 2.19991,-1.5924 z"
         sodipodi:nodetypes="ssssss"
         inkscape:transform-center-x="10.579621"
         inkscape:transform-center-y="3.1848687" />
      <path
         id="rect1-7-8-5-1-8-52-7-5-6-4-2-15"
         style="stroke:#ffffff;stroke-width:0.374331;stroke-linejoin:round;stroke-dasharray:none;stroke-dashoffset:0;stroke-opacity:1"
         d="m 94.125976,871.32639 c 0.27331,-0.746 -0.0709,-1.9548 -0.86414,-1.844 -0.9799,0.137 -1.8723,-0.2661 -2.32009,0.6774 -0.35524,0.7484 -0.0357,1.8494 0.6564,2.0454 0.77064,0.2182 2.25452,-0.1328 2.52783,-0.8788 z"
         sodipodi:nodetypes="sssss" />
      <path
         id="rect1-7-8-5-1-5-4-8-8-8-0-9-0-14"
         style="stroke:#ffffff;stroke-width:0.374331;stroke-linejoin:round;stroke-dasharray:none;stroke-dashoffset:0;stroke-opacity:1"
         d="m 92.419026,870.43989 c -0.4868,-0.6278 -1.38829,-0.7383 -2.02126,-0.2475 l -0.74513,0.5776 c -0.63299,0.4908 -0.75065,1.3914 -0.26386,2.0193 0.4868,0.6279 1.11844,0.453 1.83103,0.087 1.08238,-0.5556 2.17247,-0.9914 1.19922,-2.4366 z"
         sodipodi:nodetypes="ssssss" />
      <g
         id="g6-1-1-4-7-3-2-4-3-7-9-5"
         transform="matrix(0.91382096,0,0,0.91382096,-2.0692624,741.9926)"
         style="stroke-width:0.37569;stroke-dasharray:none">
        <rect
           style="opacity:1;fill:#000000;stroke:#ffffff;stroke-width:0.37569;stroke-linejoin:round;stroke-dasharray:none"
           id="rect5-8-3-8-7-4-6-0-9-6-6-6"
           width="10.664055"
           height="10.785408"
           x="81.009392"
           y="159.09109" />
        <path
           id="rect5-9-6-4-2-4-5-2-3-7-8-6-3"
           style="fill:#000000;stroke:#ffffff;stroke-width:0.472544;stroke-linejoin:round;stroke-dasharray:none"
           transform="matrix(0.63208417,-0.77489973,0,1,0,0)"
           d="m 145.0336,271.4776 5.6318,-0.31314 1e-5,10.65467 -5.63181,0.44388 z"
           sodipodi:nodetypes="ccccc" />
        <rect
           style="fill:#000000;stroke:#ffffff;stroke-width:0.419845;stroke-linejoin:round;stroke-dasharray:none"
           id="rect5-9-1-3-5-4-6-0-8-7-5-1-9-2"
           width="5.8412356"
           height="10.785408"
           x="-198.68402"
           y="-210.75246"
           transform="matrix(0.59903324,-0.80072416,-1,0,0,0)" />
      </g>
      <ellipse
         style="fill:none;fill-opacity:1;stroke:#ffffff;stroke-width:0.396947;stroke-linejoin:round;stroke-dasharray:none"
         id="path89-5"
         cx="76.748734"
         cy="892.16388"
         rx="1.081061"
         ry="1.0360726" />
      <ellipse
         style="fill:none;fill-opacity:1;stroke:#ffffff;stroke-width:0.285;stroke-linejoin:round;stroke-dasharray:none"
         id="path89"
         cx="78.088539"
         cy="885.08954"
         rx="1.1371237"
         ry="0.50728679" />
      <ellipse
         style="fill:none;fill-opacity:1;stroke:#ffffff;stroke-width:0.285;stroke-linejoin:round;stroke-dasharray:none"
         id="path89-7"
         cx="889.9353"
         cy="-83.395592"
         rx="1.1371237"
         ry="0.50728679"
         transform="rotate(90)" />
      <path
         style="fill:none;stroke:#666666;stroke-width:0.614;stroke-linejoin:round"
         d="m 90.363331,871.25722 c -7.775535,4.57734 -14.28026,3.7093 -12.272804,13.87476"
         id="path5"
         sodipodi:nodetypes="cc" />
      <path
         style="fill:none;fill-opacity:1;stroke:#666666;stroke-width:0.584;stroke-linejoin:round;stroke-dasharray:none"
         d="m 76.822586,891.63947 c -0.232625,4.99335 -4.87586,7.75311 -8.016517,8.90724"
         id="path90"
         sodipodi:nodetypes="cc" />
      <path
         style="fill:none;fill-opacity:1;stroke:#666666;stroke-width:0.583999;stroke-linejoin:round;stroke-dasharray:none"
         d="m 98.552242,877.61757 c -3.552869,5.99563 -6.365348,11.5129 -15.314638,12.41587"
         id="path91"
         sodipodi:nodetypes="cc" />
      <path
         style="fill:none;fill-opacity:1;stroke:#666666;stroke-width:0.583999;stroke-linejoin:round;stroke-dasharray:none"
         d="m 62.550107,890.92868 c 4.112256,0.57536 6.706081,0.59003 9.448035,0.44538"
         id="path92"
         sodipodi:nodetypes="cc" />
    </g>
  </g>
</svg>
