<?xml version="1.0" encoding="UTF-8" standalone="no"?>
<!-- Created with Inkscape (http://www.inkscape.org/) -->

<svg
   width="40.080368mm"
   height="64.20784mm"
   viewBox="0 0 40.080368 64.20784"
   version="1.1"
   id="svg1"
   xmlns:inkscape="http://www.inkscape.org/namespaces/inkscape"
   xmlns:sodipodi="http://sodipodi.sourceforge.net/DTD/sodipodi-0.dtd"
   xmlns="http://www.w3.org/2000/svg"
   xmlns:svg="http://www.w3.org/2000/svg">
  <sodipodi:namedview
     id="namedview1"
     pagecolor="#ffffff"
     bordercolor="#000000"
     borderopacity="0.25"
     inkscape:showpageshadow="2"
     inkscape:pageopacity="0.0"
     inkscape:pagecheckerboard="0"
     inkscape:deskcolor="#d1d1d1"
     inkscape:document-units="mm" />
  <defs
     id="defs1" />
  <g
     inkscape:label="Layer 1"
     inkscape:groupmode="layer"
     id="layer1"
     transform="translate(1240.5871,-1757.8305)">
    <g
       id="g47"
       transform="translate(-1275.1058,799.778)"
       inkscape:export-filename="24.svg"
       inkscape:export-xdpi="96"
       inkscape:export-ydpi="96">
      <path
         id="rect1-7-2-76-1-7-2-9"
         style="stroke:#ffffff;stroke-width:0.374331;stroke-linejoin:round;stroke-dasharray:none;stroke-dashoffset:0;stroke-opacity:1"
         d="m 73.861083,969.05716 c -0.65596,-0.6225 -2.6535,-0.8227 -2.83513,0.071 l -1.8372,9.0362 c -0.18164,0.8933 -0.43907,1.8239 0.21689,2.4463 0.65597,0.6225 2.02348,0.7958 2.28298,-0.078 l 2.55761,-8.613 c 0.25951,-0.8739 0.27082,-2.2395 -0.38515,-2.862 z"
         sodipodi:nodetypes="ssssssss"
         inkscape:transform-center-x="1.1050691"
         inkscape:transform-center-y="4.2815941" />
      <path
         id="rect1-7-3-7-0-3-33"
         style="stroke:#ffffff;stroke-width:0.374331;stroke-linejoin:round;stroke-dasharray:none;stroke-dashoffset:0;stroke-opacity:1"
         d="m 64.603983,967.70356 c 0.8248,0.3708 1.57978,1.9383 1.01015,2.65 l -7.24775,9.0561 c -0.56963,0.7117 -1.52097,1.0981 -2.34578,0.7273 -0.8248,-0.3708 -1.31072,-1.3911 -0.79378,-2.142 l 6.58297,-9.5621 c 0.51694,-0.7508 1.96939,-1.1001 2.79419,-0.7293 z"
         sodipodi:nodetypes="sssssss"
         inkscape:transform-center-x="2.8406965"
         inkscape:transform-center-y="4.6739621" />
      <path
         id="rect1-9-4-4-31-7-1-41"
         style="stroke:#ffffff;stroke-width:0.387927;stroke-linejoin:round;stroke-dasharray:none;stroke-dashoffset:0;stroke-opacity:1"
         d="m 69.174483,1004.3893 1.60067,-0.1868 c 0.90455,-0.1055 1.836,0.5876 1.83781,1.5666 l 0.0257,13.9986 c 0.002,0.9791 0.16859,1.6285 -0.73595,1.734 l -0.72156,0.084 c -0.90455,0.1056 -1.7242,-0.5932 -1.8378,-1.5666 l -1.5966,-13.6823 c -0.1136,-0.9735 0.52316,-1.8421 1.42771,-1.9477 z"
         sodipodi:nodetypes="sssssssss" />
      <path
         id="rect1-9-1-95-4-0-2"
         style="stroke:#ffffff;stroke-width:0.387927;stroke-linejoin:round;stroke-dasharray:none;stroke-dashoffset:0;stroke-opacity:1"
         d="m 60.219533,1002.6722 h 1.61153 c 0.91068,0 1.68037,0.7898 1.64383,1.7691 l -0.51391,13.7751 c -0.0365,0.9793 -0.73315,1.7691 -1.64384,1.7691 h -0.61225 c -0.91069,0 -0.87342,-0.7931 -0.95651,-1.7691 l -1.1727,-13.7751 c -0.0831,-0.976 0.73315,-1.7691 1.64385,-1.7691 z"
         sodipodi:nodetypes="sssssssss" />
      <path
         id="rect1-9-69-4-8-1"
         style="stroke:#ffffff;stroke-width:0.359059;stroke-linejoin:round;stroke-dasharray:none;stroke-dashoffset:0;stroke-opacity:1"
         d="m 63.708083,989.24366 2.54142,0.6649 c 0.88294,0.2309 2.28297,1.4043 1.96943,2.1826 l -4.77553,11.85514 c -0.31353,0.7783 -1.07539,1.2924 -1.96153,1.0739 l -1.56809,-0.3866 c -0.88614,-0.2185 -1.43476,-1.0484 -1.23752,-1.8626 l 3.01579,-12.45034 c 0.19755,-0.8142 1.13307,-1.3079 2.01602,-1.077 z"
         sodipodi:nodetypes="ssssssssss" />
      <path
         id="rect1-9-4-41-7-6-7"
         style="stroke:#ffffff;stroke-width:0.359059;stroke-linejoin:round;stroke-dasharray:none;stroke-dashoffset:0;stroke-opacity:1"
         d="m 69.322803,989.76436 2.73138,0.3113 c 0.90675,0.1034 1.63432,0.8667 1.55858,1.7011 l -1.1552,12.72614 c -0.0754,0.8344 -0.86257,1.4432 -1.77184,1.3644 l -1.60901,-0.1395 c -0.90926,-0.079 -1.45037,-0.8115 -1.51071,-1.6488 l -0.9425,-13.07584 c -0.0603,-0.8373 1.79253,-1.3421 2.69929,-1.2387 z"
         sodipodi:nodetypes="sssssssss" />
      <path
         id="rect1-0-0-2-1"
         style="stroke:none;stroke-width:0.351231;stroke-linejoin:round;stroke-dasharray:none;stroke-dashoffset:0;stroke-opacity:1"
         d="m 63.348703,967.22196 c 3.74019,-1.0108 6.16807,0.4451 8.66893,1.0834 0.78307,0.1999 1.45565,0.3281 1.40044,1.2376 -0.37491,6.1747 -2.03724,12.6318 -0.36776,18.4014 0.4717,1.6301 0.30058,3.0748 0.36776,4.5614 0.0411,0.9104 -0.64614,1.6455 -1.44872,1.6455 h -8.62651 c -0.80259,0 -1.48588,-0.7348 -1.44872,-1.6455 0.0705,-1.7288 -0.0204,-3.3217 0.38849,-5.4099 1.10518,-5.6437 0.25132,-11.6295 -0.38849,-17.5529 -0.0977,-0.9049 0.66845,-2.1085 1.45458,-2.321 z"
         sodipodi:nodetypes="sssssssssss" />
      <path
         id="path1-7-0-3-2-5"
         style="fill:#f9f9f9;stroke:#ffffff;stroke-width:0.219136;stroke-linejoin:round;stroke-dasharray:none;stroke-dashoffset:0;stroke-opacity:1"
         d="m 65.685493,970.62256 a 1.4780806,1.1224128 58.861422 0 0 -1.22764,1.0179 1.4780806,1.1224128 58.861422 0 0 0.27808,0.9299 h -0.0145 l 1.88022,3.0144 1.82564,-1.946 a 1.4780806,1.1224128 58.861422 0 0 0.32569,-0.8278 1.4780806,1.1224128 58.861422 0 0 -1.22765,-1.6848 1.4780806,1.1224128 58.861422 0 0 -0.91956,0.2076 1.4780806,1.1224128 58.861422 0 0 -0.92024,-0.7073 z" />
      <path
         id="rect1-7-8-5-1-5-4-34-31-3-6-1"
         style="stroke:#ffffff;stroke-width:0.453133;stroke-linejoin:round;stroke-dasharray:none;stroke-dashoffset:0;stroke-opacity:1"
         d="m 62.214313,1018.3477 c -0.62285,-0.6996 -2.00013,-1.0414 -3.08804,-0.7664 l -1.28068,0.3238 c -1.08794,0.275 -1.46233,1.0597 -0.83948,1.7593 0.62284,0.6996 1.64148,0.7106 2.82653,0.5701 1.80001,-0.2132 3.58652,-0.3158 2.38167,-1.8868 z"
         sodipodi:nodetypes="ssssss" />
      <path
         id="rect1-7-8-5-1-5-4-34-0-1-3-9-5"
         style="stroke:#ffffff;stroke-width:0.419911;stroke-linejoin:round;stroke-dasharray:none;stroke-dashoffset:0;stroke-opacity:1"
         d="m 71.865423,1020.2073 c -0.72948,-0.5834 -2.13738,-0.8257 -3.15673,-0.5432 l -1.19996,0.3325 c -1.01935,0.2825 -1.2527,0.9796 -0.52323,1.563 0.72948,0.5834 1.72961,0.5523 2.86704,0.383 1.72771,-0.2572 3.46102,-0.4176 2.01288,-1.7353 z"
         sodipodi:nodetypes="ssssss" />
      <path
         id="rect1-7-5-6-7-4-2"
         style="stroke:#ffffff;stroke-width:0.374331;stroke-linejoin:round;stroke-dasharray:none;stroke-dashoffset:0;stroke-opacity:1"
         d="m 69.783643,966.84056 -0.45532,-2.679 c -0.24664,-1.4512 -2.90483,-1.3535 -3.18644,0.3728 l -0.40194,2.464 c -0.34759,2.1309 4.40356,1.9595 4.0437,-0.1578 z"
         sodipodi:nodetypes="sssss" />
      <path
         id="path1-73-1-5-9"
         style="stroke:#ffffff;stroke-width:0.287201;stroke-linejoin:round;stroke-dasharray:none;stroke-dashoffset:0;stroke-opacity:1"
         d="m 70.408683,961.64666 c 0,2.22 -1.20507,4.5888 -3.15384,4.5888 -1.94876,0 -3.10387,-2.3688 -3.10387,-4.5888 0,-2.22 1.15511,-3.4505 3.10387,-3.4505 1.94877,0 3.15384,1.2305 3.15384,3.4505 z"
         sodipodi:nodetypes="sssss" />
      <path
         id="rect1-7-8-30-8-6-6-3"
         style="stroke:#ffffff;stroke-width:0.313714;stroke-linejoin:round;stroke-dasharray:none;stroke-dashoffset:0;stroke-opacity:1"
         d="m 57.475573,978.30506 c 0.36592,0.8453 0.22563,1.8059 -0.38082,1.9766 l -7.04508,1.9833 c -0.60646,0.1707 -0.93717,0.1183 -1.30309,-0.7269 -0.36593,-0.8453 -0.17697,-1.2586 0.40264,-1.5039 l 6.62451,-2.8041 c 0.57961,-0.2453 1.33591,0.2297 1.70184,1.075 z"
         sodipodi:nodetypes="sssssss"
         inkscape:transform-center-x="0.63653695"
         inkscape:transform-center-y="2.8354273" />
      <path
         id="rect1-7-8-5-1-8-52-7-5-7-9"
         style="stroke:#ffffff;stroke-width:0.374331;stroke-linejoin:round;stroke-dasharray:none;stroke-dashoffset:0;stroke-opacity:1"
         d="m 47.169483,980.31396 c 0.74452,-0.2773 1.95513,0.06 1.84856,0.8542 -0.13164,0.9806 0.27626,1.8708 -0.66474,2.3237 -0.74649,0.3593 -1.84918,0.046 -2.04892,-0.6453 -0.22236,-0.7695 0.1206,-2.2552 0.86512,-2.5326 z"
         sodipodi:nodetypes="sssss" />
      <path
         id="rect1-7-8-5-1-5-4-8-8-8-1-1"
         style="stroke:#ffffff;stroke-width:0.288532;stroke-linejoin:round;stroke-dasharray:none;stroke-dashoffset:0;stroke-opacity:1"
         d="m 47.135463,981.17996 c 0.57931,0.068 0.99589,0.642 0.93402,1.2873 l -0.0728,0.7597 c -0.0619,0.6454 -0.57806,1.1103 -1.15738,1.0425 -0.57931,-0.068 -0.71392,-0.5776 -0.76067,-1.2245 -0.0711,-0.9827 -0.21979,-1.9196 1.05686,-1.865 z"
         sodipodi:nodetypes="ssssss" />
      <path
         id="rect1-7-8-5-5-6-7-3-8-5-2-86"
         style="stroke:#ffffff;stroke-width:0.374331;stroke-linejoin:round;stroke-dasharray:none;stroke-dashoffset:0;stroke-opacity:1"
         d="m 47.721893,980.62506 c -0.089,-0.2175 -0.004,-0.4568 0.28122,-0.5736 l 1.62571,-0.6653 c 0.29337,-0.12 0.60204,-0.042 0.69108,0.1757 0.089,0.2175 -0.0763,0.4897 -0.36964,0.6097 l -1.62571,0.6654 c -0.22905,0.094 -0.51361,0 -0.60264,-0.2119 z"
         sodipodi:nodetypes="sssssss" />
      <path
         id="rect1-7-8-3-2-6-6-1-3"
         style="stroke:#ffffff;stroke-width:0.317429;stroke-linejoin:round;stroke-dasharray:none;stroke-dashoffset:0;stroke-opacity:1"
         d="m 70.164943,979.64126 c -0.2998,-0.8699 -1.06972,-1.4925 -1.6407,-1.1912 l -6.87838,3.63 c -0.57099,0.3014 -0.79315,0.552 -0.49335,1.4218 0.29979,0.8699 0.73218,1.0611 1.33415,0.8294 l 7.11986,-2.741 c 0.60197,-0.2317 0.85822,-1.0792 0.55842,-1.949 z"
         sodipodi:nodetypes="sssssss"
         inkscape:transform-center-x="-0.9260688"
         inkscape:transform-center-y="2.5990413" />
      <path
         id="rect1-7-8-5-1-8-7-5-7-9-2-91"
         style="stroke:#ffffff;stroke-width:0.374331;stroke-linejoin:round;stroke-dasharray:none;stroke-dashoffset:0;stroke-opacity:1"
         d="m 62.486583,983.28556 c -0.007,-0.7945 -0.75545,-1.8043 -1.45867,-1.421 -0.86872,0.4736 -1.84592,0.411 -1.93238,1.4517 -0.0686,0.8257 0.61851,1.7433 1.33529,1.6828 0.79809,-0.068 2.06298,-0.9191 2.05576,-1.7135 z"
         sodipodi:nodetypes="sssss" />
      <path
         id="rect1-7-8-5-5-6-7-7-5-4-9-4-1"
         style="stroke:#ffffff;stroke-width:0.374331;stroke-linejoin:round;stroke-dasharray:none;stroke-dashoffset:0;stroke-opacity:1"
         d="m 61.371823,982.10586 c 0.0544,-0.2287 -0.0664,-0.452 -0.36635,-0.5233 l -1.70888,-0.4065 c -0.30839,-0.073 -0.60131,0.052 -0.65571,0.2801 -0.0544,0.2287 0.15094,0.4721 0.4593,0.5454 l 1.70889,0.4066 c 0.24077,0.057 0.50834,-0.074 0.56275,-0.3023 z"
         sodipodi:nodetypes="sssssss" />
      <path
         id="rect1-7-8-5-1-5-4-364-1-3-9-8-6"
         style="stroke:#ffffff;stroke-width:0.374331;stroke-linejoin:round;stroke-dasharray:none;stroke-dashoffset:0;stroke-opacity:1"
         d="m 60.917803,983.73246 c -0.1573,-0.7788 -0.91596,-1.2781 -1.70102,-1.1195 l -0.92418,0.1867 c -0.78508,0.1585 -1.29047,0.9131 -1.13318,1.6919 0.1573,0.7788 0.80086,0.9027 1.60177,0.8914 1.21651,-0.017 2.38674,0.077 2.15661,-1.6505 z"
         sodipodi:nodetypes="ssssss" />
      <path
         id="path1-7-0-3-2-1-8"
         style="fill:#f9f9f9;stroke:#ffffff;stroke-width:0.129248;stroke-linejoin:round;stroke-dasharray:none;stroke-dashoffset:0;stroke-opacity:1"
         d="m 51.199153,983.63386 a 0.75152022,0.76794241 9.9841497 0 0 -0.75201,0.7731 0.75152022,0.76794241 9.9841497 0 0 0.17034,0.4839 l -0.009,10e-5 1.15176,1.4131 1.11833,-1.3951 a 0.75152022,0.76794241 9.9841497 0 0 0.1995,-0.5219 0.75152022,0.76794241 9.9841497 0 0 -0.75201,-0.7617 0.75152022,0.76794241 9.9841497 0 0 -0.56329,0.264 0.75152022,0.76794241 9.9841497 0 0 -0.56371,-0.2555 z" />
      <g
         id="g6-1-3-4-2"
         transform="matrix(0.40665698,0,0,0.40665698,13.857404,925.90265)"
         style="stroke-width:0.98363;stroke-dasharray:none">
        <rect
           style="opacity:1;fill:#000000;stroke:#ffffff;stroke-width:0.98363;stroke-linejoin:round;stroke-dasharray:none"
           id="rect5-8-8-5-2"
           width="10.664055"
           height="10.785408"
           x="81.009392"
           y="159.09109" />
        <path
           id="rect5-9-6-0-9-4"
           style="fill:#000000;stroke:#ffffff;stroke-width:1.23721;stroke-linejoin:round;stroke-dasharray:none"
           transform="matrix(0.63208417,-0.77489973,0,1,0,0)"
           d="m 145.0336,271.4776 5.6318,-0.31314 1e-5,10.65467 -5.63181,0.44388 z"
           sodipodi:nodetypes="ccccc" />
        <rect
           style="fill:#000000;stroke:#ffffff;stroke-width:1.09923;stroke-linejoin:round;stroke-dasharray:none"
           id="rect5-9-1-3-0-6-1"
           width="5.8412356"
           height="10.785408"
           x="-198.68402"
           y="-210.75246"
           transform="matrix(0.59903324,-0.80072416,-1,0,0,0)" />
      </g>
      <path
         id="path1-7-0-3-2-1-8-2"
         style="fill:#f9f9f9;stroke:none;stroke-width:0.4;stroke-linejoin:round;stroke-dasharray:none;stroke-dashoffset:0;stroke-opacity:1"
         d="m 48.534253,991.85535 a 0.47032644,0.48060399 9.9841497 0 0 -0.470633,0.4839 0.47032644,0.48060399 9.9841497 0 0 0.106604,0.3028 l -0.0056,10e-5 0.720809,0.8843 0.699889,-0.8731 a 0.47032644,0.48060399 9.9841497 0 0 0.124853,-0.3266 0.47032644,0.48060399 9.9841497 0 0 -0.470633,-0.4767 0.47032644,0.48060399 9.9841497 0 0 -0.352525,0.1652 0.47032644,0.48060399 9.9841497 0 0 -0.352789,-0.1599 z" />
      <g
         id="g6-1-3-4-2-4"
         transform="matrix(0.40665698,0,0,0.40665698,12.178698,932.33963)"
         style="stroke-width:0.98363;stroke-dasharray:none">
        <rect
           style="opacity:1;fill:#000000;stroke:#ffffff;stroke-width:0.98363;stroke-linejoin:round;stroke-dasharray:none"
           id="rect5-8-8-5-2-7"
           width="10.664055"
           height="10.785408"
           x="81.009392"
           y="159.09109" />
        <path
           id="rect5-9-6-0-9-4-2"
           style="fill:#000000;stroke:#ffffff;stroke-width:1.23721;stroke-linejoin:round;stroke-dasharray:none"
           transform="matrix(0.63208417,-0.77489973,0,1,0,0)"
           d="m 145.0336,271.4776 5.6318,-0.31314 1e-5,10.65467 -5.63181,0.44388 z"
           sodipodi:nodetypes="ccccc" />
        <rect
           style="fill:#000000;stroke:#ffffff;stroke-width:1.09923;stroke-linejoin:round;stroke-dasharray:none"
           id="rect5-9-1-3-0-6-1-9"
           width="5.8412356"
           height="10.785408"
           x="-198.68402"
           y="-210.75246"
           transform="matrix(0.59903324,-0.80072416,-1,0,0,0)" />
      </g>
      <path
         id="path1-7-0-3-2-1-8-2-9"
         style="fill:#f9f9f9;stroke:none;stroke-width:0.4;stroke-linejoin:round;stroke-dasharray:none;stroke-dashoffset:0;stroke-opacity:1"
         d="m 46.855546,998.29237 a 0.47032644,0.48060399 9.9841497 0 0 -0.470633,0.4839 0.47032644,0.48060399 9.9841497 0 0 0.106604,0.3028 l -0.0056,10e-5 0.720809,0.8843 0.699889,-0.8731 a 0.47032644,0.48060399 9.9841497 0 0 0.124853,-0.3266 0.47032644,0.48060399 9.9841497 0 0 -0.470633,-0.4767 0.47032644,0.48060399 9.9841497 0 0 -0.352525,0.1652 0.47032644,0.48060399 9.9841497 0 0 -0.352789,-0.1599 z" />
      <g
         id="g6-1-3-4-2-4-9"
         transform="matrix(0.40665698,0,0,0.40665698,10.600832,938.63658)"
         style="stroke-width:0.98363;stroke-dasharray:none">
        <rect
           style="opacity:1;fill:#000000;stroke:#ffffff;stroke-width:0.98363;stroke-linejoin:round;stroke-dasharray:none"
           id="rect5-8-8-5-2-7-4"
           width="10.664055"
           height="10.785408"
           x="81.009392"
           y="159.09109" />
        <path
           id="rect5-9-6-0-9-4-2-1"
           style="fill:#000000;stroke:#ffffff;stroke-width:1.23721;stroke-linejoin:round;stroke-dasharray:none"
           transform="matrix(0.63208417,-0.77489973,0,1,0,0)"
           d="m 145.0336,271.4776 5.6318,-0.31314 1e-5,10.65467 -5.63181,0.44388 z"
           sodipodi:nodetypes="ccccc" />
        <rect
           style="fill:#000000;stroke:#ffffff;stroke-width:1.09923;stroke-linejoin:round;stroke-dasharray:none"
           id="rect5-9-1-3-0-6-1-9-5"
           width="5.8412356"
           height="10.785408"
           x="-198.68402"
           y="-210.75246"
           transform="matrix(0.59903324,-0.80072416,-1,0,0,0)" />
      </g>
      <path
         id="path1-7-0-3-2-1-8-2-9-9"
         style="fill:#f9f9f9;stroke:none;stroke-width:0.4;stroke-linejoin:round;stroke-dasharray:none;stroke-dashoffset:0;stroke-opacity:1"
         d="m 45.277681,1004.5893 a 0.47032644,0.48060399 9.9841497 0 0 -0.470633,0.4839 0.47032644,0.48060399 9.9841497 0 0 0.106604,0.3028 l -0.0056,10e-5 0.720809,0.8843 0.699889,-0.8731 a 0.47032644,0.48060399 9.9841497 0 0 0.124853,-0.3266 0.47032644,0.48060399 9.9841497 0 0 -0.470633,-0.4767 0.47032644,0.48060399 9.9841497 0 0 -0.352525,0.1652 0.47032644,0.48060399 9.9841497 0 0 -0.352789,-0.1599 z" />
      <g
         id="g6-1-3-4-2-4-9-7"
         transform="matrix(0.40665698,0,0,0.40665698,8.9986595,944.67929)"
         style="stroke-width:0.98363;stroke-dasharray:none">
        <rect
           style="opacity:1;fill:#000000;stroke:#ffffff;stroke-width:0.98363;stroke-linejoin:round;stroke-dasharray:none"
           id="rect5-8-8-5-2-7-4-2"
           width="10.664055"
           height="10.785408"
           x="81.009392"
           y="159.09109" />
        <path
           id="rect5-9-6-0-9-4-2-1-2"
           style="fill:#000000;stroke:#ffffff;stroke-width:1.23721;stroke-linejoin:round;stroke-dasharray:none"
           transform="matrix(0.63208417,-0.77489973,0,1,0,0)"
           d="m 145.0336,271.4776 5.6318,-0.31314 1e-5,10.65467 -5.63181,0.44388 z"
           sodipodi:nodetypes="ccccc" />
        <rect
           style="fill:#000000;stroke:#ffffff;stroke-width:1.09923;stroke-linejoin:round;stroke-dasharray:none"
           id="rect5-9-1-3-0-6-1-9-5-1"
           width="5.8412356"
           height="10.785408"
           x="-198.68402"
           y="-210.75246"
           transform="matrix(0.59903324,-0.80072416,-1,0,0,0)" />
      </g>
      <path
         id="path1-7-0-3-2-1-8-2-9-9-9"
         style="fill:#f9f9f9;stroke:none;stroke-width:0.4;stroke-linejoin:round;stroke-dasharray:none;stroke-dashoffset:0;stroke-opacity:1"
         d="m 43.675508,1010.632 a 0.47032644,0.48060399 9.9841497 0 0 -0.470633,0.4839 0.47032644,0.48060399 9.9841497 0 0 0.106604,0.3028 l -0.0056,1e-4 0.720809,0.8843 0.699889,-0.8731 a 0.47032644,0.48060399 9.9841497 0 0 0.124853,-0.3266 0.47032644,0.48060399 9.9841497 0 0 -0.470633,-0.4767 0.47032644,0.48060399 9.9841497 0 0 -0.352525,0.1652 0.47032644,0.48060399 9.9841497 0 0 -0.352789,-0.1599 z" />
      <path
         id="path11-4-78-2-4"
         style="fill:#808080;stroke:none;stroke-width:0.0886796;stroke-linejoin:round;stroke-dasharray:none"
         d="m 43.243438,989.61494 v 1.8913 l -1.12986,0.012 1.75551,2.2363 c 0.0427,0 1.61833,-2.2731 1.61833,-2.2731 l -1.11971,0.012 v -1.879 z" />
      <g
         id="g6-1-3-4-2-8"
         transform="matrix(0.40665698,0,0,0.40665698,15.507389,919.67227)"
         style="stroke-width:0.98363;stroke-dasharray:none">
        <rect
           style="opacity:1;fill:#000000;stroke:#ffffff;stroke-width:0.98363;stroke-linejoin:round;stroke-dasharray:none"
           id="rect5-8-8-5-2-0"
           width="10.664055"
           height="10.785408"
           x="81.009392"
           y="159.09109" />
        <path
           id="rect5-9-6-0-9-4-5"
           style="fill:#000000;stroke:#ffffff;stroke-width:1.23721;stroke-linejoin:round;stroke-dasharray:none"
           transform="matrix(0.63208417,-0.77489973,0,1,0,0)"
           d="m 145.0336,271.4776 5.6318,-0.31314 1e-5,10.65467 -5.63181,0.44388 z"
           sodipodi:nodetypes="ccccc" />
        <rect
           style="fill:#000000;stroke:#ffffff;stroke-width:1.09923;stroke-linejoin:round;stroke-dasharray:none"
           id="rect5-9-1-3-0-6-1-1"
           width="5.8412356"
           height="10.785408"
           x="-198.68402"
           y="-210.75246"
           transform="matrix(0.59903324,-0.80072416,-1,0,0,0)" />
      </g>
      <path
         id="path1-7-0-3-2-1-8-2-8"
         style="fill:#f9f9f9;stroke:none;stroke-width:0.4;stroke-linejoin:round;stroke-dasharray:none;stroke-dashoffset:0;stroke-opacity:1"
         d="m 50.184238,985.62497 a 0.47032644,0.48060399 9.9841497 0 0 -0.470633,0.4839 0.47032644,0.48060399 9.9841497 0 0 0.106604,0.3028 l -0.0056,1e-4 0.720809,0.8843 0.699889,-0.8731 a 0.47032644,0.48060399 9.9841497 0 0 0.124853,-0.3266 0.47032644,0.48060399 9.9841497 0 0 -0.470633,-0.4767 0.47032644,0.48060399 9.9841497 0 0 -0.352525,0.1652 0.47032644,0.48060399 9.9841497 0 0 -0.352789,-0.1599 z" />
      <path
         id="path11-4-78-2-4-5"
         style="fill:#808080;stroke:none;stroke-width:0.0886796;stroke-linejoin:round;stroke-dasharray:none"
         d="m 44.893423,983.38456 v 1.8913 l -1.12986,0.012 1.75551,2.2363 c 0.0427,0 1.61833,-2.2731 1.61833,-2.2731 l -1.11971,0.012 v -1.879 z" />
      <path
         id="path11-4-78-2-4-2"
         style="fill:#808080;stroke:none;stroke-width:0.0886796;stroke-linejoin:round;stroke-dasharray:none"
         d="m 40.794093,996.04438 v 1.8913 l -1.12986,0.012 1.75551,2.23632 c 0.0427,0 1.61833,-2.27312 1.61833,-2.27312 l -1.11971,0.012 v -1.879 z" />
      <path
         id="path11-4-78-2-4-2-7"
         style="fill:#808080;stroke:none;stroke-width:0.0886796;stroke-linejoin:round;stroke-dasharray:none"
         d="m 39.398381,1002.3401 v 1.8913 l -1.12986,0.012 1.75551,2.2363 c 0.0427,0 1.61833,-2.2731 1.61833,-2.2731 l -1.11971,0.012 v -1.879 z" />
      <path
         id="path11-4-78-2-4-2-7-6"
         style="fill:#808080;stroke:none;stroke-width:0.0886796;stroke-linejoin:round;stroke-dasharray:none"
         d="m 37.257639,1008.4762 v 1.8913 l -1.12986,0.012 1.75551,2.2363 c 0.0427,0 1.61833,-2.2731 1.61833,-2.2731 l -1.11971,0.012 v -1.879 z" />
      <g
         id="g6-1-3-4-2-4-9-7-4"
         transform="matrix(0.40665698,0,0,0.40665698,7.3896029,950.83484)"
         style="stroke-width:0.98363;stroke-dasharray:none">
        <rect
           style="opacity:1;fill:#000000;stroke:#ffffff;stroke-width:0.98363;stroke-linejoin:round;stroke-dasharray:none"
           id="rect5-8-8-5-2-7-4-2-1"
           width="10.664055"
           height="10.785408"
           x="81.009392"
           y="159.09109" />
        <path
           id="rect5-9-6-0-9-4-2-1-2-9"
           style="fill:#000000;stroke:#ffffff;stroke-width:1.23721;stroke-linejoin:round;stroke-dasharray:none"
           transform="matrix(0.63208417,-0.77489973,0,1,0,0)"
           d="m 145.0336,271.4776 5.6318,-0.31314 1e-5,10.65467 -5.63181,0.44388 z"
           sodipodi:nodetypes="ccccc" />
        <rect
           style="fill:#000000;stroke:#ffffff;stroke-width:1.09923;stroke-linejoin:round;stroke-dasharray:none"
           id="rect5-9-1-3-0-6-1-9-5-1-4"
           width="5.8412356"
           height="10.785408"
           x="-198.68402"
           y="-210.75246"
           transform="matrix(0.59903324,-0.80072416,-1,0,0,0)" />
      </g>
      <path
         id="path1-7-0-3-2-1-8-2-9-9-9-9"
         style="fill:#f9f9f9;stroke:none;stroke-width:0.4;stroke-linejoin:round;stroke-dasharray:none;stroke-dashoffset:0;stroke-opacity:1"
         d="m 42.066452,1016.7876 a 0.47032644,0.48060399 9.9841497 0 0 -0.470633,0.4839 0.47032644,0.48060399 9.9841497 0 0 0.106604,0.3028 l -0.0056,10e-5 0.720809,0.8843 0.699889,-0.8731 a 0.47032644,0.48060399 9.9841497 0 0 0.124853,-0.3266 0.47032644,0.48060399 9.9841497 0 0 -0.470633,-0.4767 0.47032644,0.48060399 9.9841497 0 0 -0.352525,0.1652 0.47032644,0.48060399 9.9841497 0 0 -0.352789,-0.1599 z" />
      <path
         id="path11-4-78-2-4-2-7-6-8"
         style="fill:#808080;stroke:none;stroke-width:0.0886796;stroke-linejoin:round;stroke-dasharray:none"
         d="m 35.648583,1014.6318 v 1.8913 l -1.12986,0.012 1.75551,2.2363 c 0.0427,0 1.61833,-2.2731 1.61833,-2.2731 l -1.11971,0.012 v -1.879 z" />
    </g>
  </g>
</svg>
