<?xml version="1.0" encoding="UTF-8" standalone="no"?>
<!-- Created with Inkscape (http://www.inkscape.org/) -->

<svg
   width="44.454002mm"
   height="65.652069mm"
   viewBox="0 0 44.454002 65.652069"
   version="1.1"
   id="svg1"
   xmlns:inkscape="http://www.inkscape.org/namespaces/inkscape"
   xmlns:sodipodi="http://sodipodi.sourceforge.net/DTD/sodipodi-0.dtd"
   xmlns="http://www.w3.org/2000/svg"
   xmlns:svg="http://www.w3.org/2000/svg">
  <sodipodi:namedview
     id="namedview1"
     pagecolor="#ffffff"
     bordercolor="#000000"
     borderopacity="0.25"
     inkscape:showpageshadow="2"
     inkscape:pageopacity="0.0"
     inkscape:pagecheckerboard="0"
     inkscape:deskcolor="#d1d1d1"
     inkscape:document-units="mm" />
  <defs
     id="defs1" />
  <g
     inkscape:label="Layer 1"
     inkscape:groupmode="layer"
     id="layer1"
     transform="translate(1242.774,-1963.8608)">
    <g
       id="g53"
       transform="translate(-1602.8553,1841.181)">
      <g
         id="g34"
         style="fill:#808080;stroke:none"
         transform="matrix(0.43737929,0,0,0.43737929,245.37371,85.347076)">
        <path
           id="rect1-7-8-9"
           style="fill:#808080;stroke:none;stroke-width:0.374331;stroke-linejoin:round;stroke-dasharray:none;stroke-dashoffset:0;stroke-opacity:1"
           d="m 313.70361,106.57412 c 0.90431,0 1.68819,0.73563 1.63233,1.64554 l -0.52126,8.49152 c -0.0558,0.90992 -0.25888,1.31541 -1.1632,1.31541 -0.90431,0 -1.15653,-0.49159 -1.19795,-1.40228 l -0.38226,-8.40465 c -0.0414,-0.91069 0.72802,-1.64554 1.63234,-1.64554 z"
           sodipodi:nodetypes="sssssss" />
        <path
           id="rect1-9-4-4-5"
           style="fill:#808080;stroke:none;stroke-width:0.387927;stroke-linejoin:round;stroke-dasharray:none;stroke-dashoffset:0;stroke-opacity:1"
           d="m 326.95773,132.49817 h 1.61153 c 0.91069,0 1.75553,0.7964 1.64384,1.76906 l -1.59695,13.90723 c -0.1117,0.97267 -0.0213,1.63699 -0.93197,1.63699 h -0.72645 c -0.91068,0 -1.64383,-0.78901 -1.64383,-1.76907 v -13.77515 c 0,-0.98006 0.73315,-1.76906 1.64383,-1.76906 z"
           sodipodi:nodetypes="sssssssss" />
        <path
           id="rect1-9-1-3"
           style="fill:#808080;stroke:none;stroke-width:0.387927;stroke-linejoin:round;stroke-dasharray:none;stroke-dashoffset:0;stroke-opacity:1"
           d="m 318.69369,132.58508 h 1.61153 c 0.91069,0 1.68038,0.78978 1.64384,1.76906 l -0.51391,13.77514 c -0.0365,0.97928 -0.73315,1.76907 -1.64385,1.76907 h -0.61224 c -0.91069,0 -0.87343,-0.79309 -0.95651,-1.76907 l -1.1727,-13.77514 c -0.0831,-0.97598 0.73315,-1.76906 1.64384,-1.76906 z"
           sodipodi:nodetypes="sssssssss" />
        <path
           id="rect1-7-63"
           style="fill:#808080;stroke:none;stroke-width:0.374331;stroke-linejoin:round;stroke-dasharray:none;stroke-dashoffset:0;stroke-opacity:1"
           d="m 318.88772,95.904117 c 0.8735,0.23406 1.73064,1.59678 1.42112,2.45426 -1.14841,3.181403 -2.10989,6.419703 -4.76446,9.142703 -0.63636,0.65277 -1.32569,1.32733 -2.19919,1.09327 -0.8735,-0.23405 -1.38065,-1.11196 -1.12625,-1.98737 0.94044,-3.23605 1.71149,-6.4963 4.02728,-9.535873 0.55247,-0.72515 1.768,-1.40104 2.6415,-1.16699 z"
           sodipodi:nodetypes="sssssss" />
        <path
           id="rect1-9-2"
           style="fill:#808080;stroke:none;stroke-width:0.359059;stroke-linejoin:round;stroke-dasharray:none;stroke-dashoffset:0;stroke-opacity:1"
           d="m 318.76374,118.7347 2.62668,0.0371 c 0.91256,0.0129 2.49159,0.8106 2.43465,1.64777 -0.28377,4.17273 -0.84241,8.38472 -1.79886,12.65354 -0.18346,0.81881 -0.73475,1.51227 -1.64742,1.51227 h -1.61505 c -0.91267,0 -1.5773,-0.67741 -1.64742,-1.51227 -0.34634,-4.12387 -1.36572,-11.28639 -0.1032,-16.12532 0.2115,-0.81065 0.83805,1.77396 1.75062,1.78687 z"
           sodipodi:nodetypes="ssssssssss" />
        <path
           id="rect1-9-4-2"
           style="fill:#808080;stroke:none;stroke-width:0.359059;stroke-linejoin:round;stroke-dasharray:none;stroke-dashoffset:0;stroke-opacity:1"
           d="m 325.93243,118.58612 2.74806,0.0743 c 0.91229,0.0246 1.73737,-1.10572 1.85263,-0.27588 0.60737,4.37302 0.23709,10.43216 -0.20521,14.61433 -0.0881,0.83315 -0.73474,1.51228 -1.64743,1.51228 h -1.61503 c -0.91268,0 -1.39488,-0.71173 -1.64743,-1.51228 -1.32485,-4.19966 -1.79054,-8.55552 -2.06786,-12.94564 -0.0529,-0.83777 1.66998,-1.49177 2.58226,-1.46711 z"
           sodipodi:nodetypes="ssssssssss" />
        <path
           id="rect1-7-8-5-1-8-9"
           style="fill:#808080;stroke:none;stroke-width:0.374331;stroke-linejoin:round;stroke-dasharray:none;stroke-dashoffset:0;stroke-opacity:1"
           d="m 313.29883,116.68572 c 0.79451,0 1.81109,0.73905 1.43412,1.44571 -0.46568,0.87299 -0.3942,1.84958 -1.43412,1.94549 -0.82494,0.0761 -1.74881,-0.60267 -1.69475,-1.31997 0.0602,-0.79866 0.90025,-2.07123 1.69475,-2.07123 z"
           sodipodi:nodetypes="sssss" />
        <path
           id="rect1-7-8-5-1-5-4-5"
           style="fill:#808080;stroke:none;stroke-width:0.374331;stroke-linejoin:round;stroke-dasharray:none;stroke-dashoffset:0;stroke-opacity:1"
           d="m 312.72295,117.99907 c 0.76743,-0.20563 1.55215,0.25165 1.75944,1.02528 l 0.24402,0.91071 c 0.2073,0.77364 -0.24365,1.562 -1.01108,1.76763 -0.76742,0.20564 -1.16471,-0.3156 -1.51097,-1.03788 -0.526,-1.09705 -1.13058,-2.10338 0.51859,-2.66574 z"
           sodipodi:nodetypes="ssssss" />
        <path
           id="rect1-7-8-5-5-6-7-8"
           style="fill:#808080;stroke:none;stroke-width:0.374331;stroke-linejoin:round;stroke-dasharray:none;stroke-dashoffset:0;stroke-opacity:1"
           d="m 314.20442,117.15488 c 0.20357,-0.11754 0.45207,-0.0656 0.60622,0.20137 l 0.87829,1.52124 c 0.15849,0.27452 0.12264,0.59091 -0.0809,0.70845 -0.20357,0.11753 -0.4955,-0.01 -0.65399,-0.28413 l -0.87829,-1.52125 c -0.12374,-0.21433 -0.0749,-0.50815 0.12871,-0.62568 z"
           sodipodi:nodetypes="sssssss" />
        <path
           id="rect1-7-8-3-0"
           style="fill:#808080;stroke:none;stroke-width:0.374331;stroke-linejoin:round;stroke-dasharray:none;stroke-dashoffset:0;stroke-opacity:1"
           d="m 333.7941,106.32372 c -0.90433,0 -1.6882,0.73562 -1.63234,1.64553 l 0.52127,8.49153 c 0.0558,0.90992 0.25887,1.3154 1.16319,1.3154 0.90432,0 1.15653,-0.49159 1.19795,-1.40228 l 0.38227,-8.40465 c 0.0414,-0.91068 -0.72803,-1.64553 -1.63234,-1.64553 z"
           sodipodi:nodetypes="sssssss" />
        <path
           id="rect1-7-2-3"
           style="fill:#808080;stroke:none;stroke-width:0.374331;stroke-linejoin:round;stroke-dasharray:none;stroke-dashoffset:0;stroke-opacity:1"
           d="m 328.60998,95.653707 c -0.8735,0.23406 -1.82145,1.63524 -1.42113,2.45426 1.50426,3.077533 2.06661,6.491463 4.76446,9.142713 0.65021,0.63898 1.3257,1.32732 2.1992,1.09327 0.87351,-0.23406 1.245,-1.08351 1.12625,-1.98737 -0.44894,-3.41689 -2.15624,-6.498223 -4.02727,-9.535883 -0.4781,-0.7762 -1.76801,-1.40104 -2.64151,-1.16699 z"
           sodipodi:nodetypes="sssssss" />
        <path
           id="rect1-7-8-5-1-8-7-0"
           style="fill:#808080;stroke:none;stroke-width:0.374331;stroke-linejoin:round;stroke-dasharray:none;stroke-dashoffset:0;stroke-opacity:1"
           d="m 334.19887,116.43531 c -0.79451,0 -1.81109,0.73905 -1.43412,1.44572 0.46568,0.87298 0.3942,1.84957 1.43412,1.94548 0.82495,0.0761 1.74881,-0.60266 1.69476,-1.31996 -0.0602,-0.79866 -0.90026,-2.07124 -1.69476,-2.07124 z"
           sodipodi:nodetypes="sssss" />
        <path
           id="rect1-7-8-5-1-5-4-364-3"
           style="fill:#808080;stroke:none;stroke-width:0.374331;stroke-linejoin:round;stroke-dasharray:none;stroke-dashoffset:0;stroke-opacity:1"
           d="m 334.77475,117.74867 c -0.76743,-0.20564 -1.55214,0.25164 -1.75943,1.02527 l -0.24403,0.91071 c -0.20729,0.77364 0.24365,1.56201 1.01108,1.76764 0.76743,0.20563 1.16472,-0.3156 1.51098,-1.03789 0.52599,-1.09704 1.13057,-2.10337 -0.5186,-2.66573 z"
           sodipodi:nodetypes="ssssss" />
        <path
           id="rect1-7-8-5-5-6-7-7-58"
           style="fill:#808080;stroke:none;stroke-width:0.374331;stroke-linejoin:round;stroke-dasharray:none;stroke-dashoffset:0;stroke-opacity:1"
           d="m 333.29328,116.90447 c -0.20357,-0.11754 -0.45207,-0.0656 -0.60621,0.20138 l -0.87829,1.52124 c -0.1585,0.27451 -0.12265,0.59091 0.0809,0.70844 0.20357,0.11754 0.4955,-0.01 0.65399,-0.28413 l 0.8783,-1.52124 c 0.12374,-0.21433 0.0749,-0.50815 -0.12872,-0.62569 z"
           sodipodi:nodetypes="sssssss" />
        <path
           id="rect1-3"
           style="fill:#808080;stroke:none;stroke-width:0.374331;stroke-linejoin:round;stroke-dasharray:none;stroke-dashoffset:0;stroke-opacity:1"
           d="m 318.81148,95.653707 c 4.48101,-1.82226 6.95787,-0.63831 9.7985,0 0.88945,0.19987 1.70826,0.73607 1.64554,1.64554 -0.42584,6.174753 -2.31402,12.631883 -0.41772,18.401413 0.53578,1.63012 0.34142,3.07486 0.41772,4.56138 0.0467,0.91043 -0.73391,1.64554 -1.64554,1.64554 h -9.7985 c -0.91163,0 -1.66848,-0.7342 -1.64554,-1.64554 0.0443,-1.76206 -0.17824,-3.46578 0.44127,-5.40989 1.76084,-5.52564 0.28547,-11.62948 -0.44127,-17.552903 -0.11101,-0.90484 0.80107,-1.30212 1.64554,-1.64554 z"
           sodipodi:nodetypes="sssssssssss" />
        <path
           id="rect1-7-8-5-1-5-4-34-4"
           style="fill:#808080;stroke:none;stroke-width:0.485783;stroke-linejoin:round;stroke-dasharray:none;stroke-dashoffset:0;stroke-opacity:1"
           d="m 320.43034,147.73213 c -0.70994,-0.70086 -2.11346,-0.87118 -3.14686,-0.38187 l -1.21653,0.576 c -1.03343,0.4893 -1.29383,1.44747 -0.58389,2.14834 0.70994,0.70087 1.71459,0.54999 2.86224,0.19914 1.7432,-0.53283 3.48838,-0.93686 2.08504,-2.54161 z"
           sodipodi:nodetypes="ssssss" />
        <path
           id="rect1-7-8-5-1-5-4-34-0-32"
           style="fill:#808080;stroke:none;stroke-width:0.485783;stroke-linejoin:round;stroke-dasharray:none;stroke-dashoffset:0;stroke-opacity:1"
           d="m 326.28707,147.73213 c 0.70995,-0.70086 2.11345,-0.87118 3.14687,-0.38187 l 1.21653,0.576 c 1.03342,0.4893 1.29382,1.44747 0.58389,2.14834 -0.70995,0.70087 -1.71461,0.54999 -2.86224,0.19914 -1.7432,-0.53283 -3.48838,-0.93686 -2.08505,-2.54161 z"
           sodipodi:nodetypes="ssssss" />
        <path
           id="rect1-7-5-61"
           style="fill:#808080;stroke:none;stroke-width:0.374331;stroke-linejoin:round;stroke-dasharray:none;stroke-dashoffset:0;stroke-opacity:1"
           d="m 325.70348,94.596857 -0.45532,-2.679 c -0.24664,-1.45118 -2.90483,-1.35351 -3.18644,0.37284 l -0.40194,2.46402 c -0.34759,2.13084 4.40356,1.95947 4.0437,-0.15786 z"
           sodipodi:nodetypes="sssss" />
        <path
           id="path1-55"
           style="fill:#808080;stroke:none;stroke-width:0.319351;stroke-linejoin:round;stroke-dasharray:none;stroke-dashoffset:0;stroke-opacity:1"
           d="m 327.23048,89.055357 c 0,2.38041 -1.38956,4.92039 -3.63667,4.92039 -2.2471,0 -3.57906,-2.53998 -3.57906,-4.92039 0,-2.38042 1.33196,-3.69985 3.57906,-3.69985 2.24711,0 3.63667,1.31943 3.63667,3.69985 z"
           sodipodi:nodetypes="sssss" />
      </g>
      <path
         style="opacity:1;fill:#000000;stroke:#000000;stroke-width:1.00392;stroke-linejoin:round;stroke-dasharray:none"
         d="m 360.85561,139.93688 10.61398,-2.99367 -0.27218,6.80382 5.71524,-0.13592 -0.27215,-6.93991 10.75004,0.27217 0.13592,6.66774 5.44309,-0.13592 v -6.12346 c 0,0 9.79751,1.63291 10.61396,2.3133 0.81647,0.68039 0.27215,9.66145 0.27215,9.66145 l -4.08229,5.30699 c -11.69277,-3.08929 -23.23333,-3.43852 -34.56344,0 l -4.62661,-4.62661 z"
         id="path32"
         sodipodi:nodetypes="cccccccccsccccc" />
      <path
         style="opacity:1;fill:#000000;stroke:#000000;stroke-width:1.00392;stroke-linejoin:round;stroke-dasharray:none"
         d="m 365.48222,157.76293 c 12.67772,-3.59819 23.6546,-3.45311 33.06661,0.13592 v 25.17417 c -13.10823,7.67125 -20.59577,4.93396 -32.93054,-0.27215 z"
         id="path33"
         sodipodi:nodetypes="ccccc" />
      <path
         style="opacity:1;fill:#ffffff;stroke:#000000;stroke-width:1.00392;stroke-linejoin:round;stroke-dasharray:none"
         d="m 379.29398,161.64109 c 1.91188,-4.27842 5.47398,-1.1743 5.57915,0 l -0.0682,15.37667 -5.57914,0.068 z"
         id="path34"
         sodipodi:nodetypes="ccccc" />
    </g>
  </g>
</svg>
