<?xml version="1.0" encoding="UTF-8" standalone="no"?>
<!-- Created with Inkscape (http://www.inkscape.org/) -->

<svg
   width="39.816044mm"
   height="60.223972mm"
   viewBox="0 0 39.816044 60.223972"
   version="1.1"
   id="svg1"
   xmlns:inkscape="http://www.inkscape.org/namespaces/inkscape"
   xmlns:sodipodi="http://sodipodi.sourceforge.net/DTD/sodipodi-0.dtd"
   xmlns="http://www.w3.org/2000/svg"
   xmlns:svg="http://www.w3.org/2000/svg">
  <sodipodi:namedview
     id="namedview1"
     pagecolor="#ffffff"
     bordercolor="#000000"
     borderopacity="0.25"
     inkscape:showpageshadow="2"
     inkscape:pageopacity="0.0"
     inkscape:pagecheckerboard="0"
     inkscape:deskcolor="#d1d1d1"
     inkscape:document-units="mm" />
  <defs
     id="defs1" />
  <g
     inkscape:label="Layer 1"
     inkscape:groupmode="layer"
     id="layer1"
     transform="translate(1240.455,-2075.6159)">
    <g
       id="g23"
       transform="translate(-1322.608,1771.8743)">
      <path
         id="rect1-7-8-5-1-5-4-34-2-8-8-2"
         style="stroke:#ffffff;stroke-width:0.286;stroke-linejoin:round;stroke-dasharray:none;stroke-dashoffset:0;stroke-opacity:1"
         d="m 117.43623,356.19615 c -0.15488,-0.98552 -1.18288,-1.95613 -2.3049,-2.17625 l -1.32081,-0.25913 c -1.12203,-0.22011 -1.90061,0.39608 -1.74572,1.3816 0.15489,0.98552 1.05276,1.46083 2.18444,1.86018 1.7189,0.60667 3.3629,1.31813 3.18699,-0.8064 z"
         sodipodi:nodetypes="ssssss" />
      <path
         id="rect1-9-1-75-3-2"
         style="stroke:#ffffff;stroke-width:0.387927;stroke-linejoin:round;stroke-dasharray:none;stroke-dashoffset:0;stroke-opacity:1"
         d="m 94.128516,359.87192 0.20182,-1.59884 c 0.11404,-0.90352 0.99401,-1.56824 1.96101,-1.40934 l 13.602334,2.23498 c 0.96699,0.15885 1.66333,0.94893 1.54928,1.85245 l -0.0767,0.60742 c -0.11405,0.90353 -0.89623,0.76724 -1.87493,0.72744 l -13.813564,-0.56167 c -0.97869,-0.0398 -1.66331,-0.94892 -1.54927,-1.85244 z"
         sodipodi:nodetypes="sssssssss"
         inkscape:transform-center-x="-7.3187379"
         inkscape:transform-center-y="0.050489573" />
      <path
         id="rect1-7-8-5-5-6-7-12-3-5"
         style="stroke:#ffffff;stroke-width:0.374331;stroke-linejoin:round;stroke-dasharray:none;stroke-dashoffset:0;stroke-opacity:1"
         d="m 99.284066,338.15145 c 0.15502,-0.1767 0.15262,-0.43056 -0.0792,-0.63386 l -1.32051,-1.15837 c -0.23829,-0.20903 -0.55559,-0.23564 -0.71061,-0.0589 -0.15502,0.17671 -0.0873,0.48785 0.15099,0.69688 l 1.32052,1.15837 c 0.18607,0.16317 0.48376,0.17262 0.63877,-0.004 z"
         sodipodi:nodetypes="sssssss"
         inkscape:transform-center-x="0.63795242"
         inkscape:transform-center-y="-0.45237034" />
      <path
         id="rect1-7-2-7-1-9"
         style="stroke:#ffffff;stroke-width:0.328472;stroke-linejoin:round;stroke-dasharray:none;stroke-dashoffset:0;stroke-opacity:1"
         d="m 115.56751,333.31332 c -0.90188,0.0933 -1.70666,0.99833 -1.73072,1.72531 l -0.29592,8.94066 c -0.0241,0.72698 1.15499,1.13535 2.05686,1.04207 0.90188,-0.0933 1.2931,-0.68869 1.37698,-1.39946 l 1.08192,-9.16787 c 0.0839,-0.71078 -1.58724,-1.23399 -2.48912,-1.14071 z"
         sodipodi:nodetypes="sssssss" />
      <path
         id="rect1-9-4-4-0-8-2"
         style="stroke:#ffffff;stroke-width:0.387927;stroke-linejoin:round;stroke-dasharray:none;stroke-dashoffset:0;stroke-opacity:1"
         d="m 100.86629,360.30978 -0.007,1.61151 c -0.004,0.91068 0.78893,1.7589 1.76204,1.65135 l 13.91392,-1.53768 c 0.97314,-0.10749 1.63706,-0.0143 1.64094,-0.92497 l 0.003,-0.72645 c 0.004,-0.91068 -0.78199,-1.64718 -1.76205,-1.65136 l -13.77502,-0.0587 c -0.98005,-0.004 -1.77218,0.72559 -1.77605,1.63628 z"
         sodipodi:nodetypes="sssssssss"
         inkscape:transform-center-x="-7.6661933"
         inkscape:transform-center-y="0.10117012" />
      <path
         id="rect1-7-6-6-8"
         style="stroke:#ffffff;stroke-width:0.374331;stroke-linejoin:round;stroke-dasharray:none;stroke-dashoffset:0;stroke-opacity:1"
         d="m 109.15861,332.82272 c 0.89422,0.1347 2.01521,1.42901 1.68716,2.27956 l -3.71003,9.61898 c -0.32805,0.85056 -1.16862,1.46751 -2.06285,1.3328 -0.89422,-0.1347 -1.60017,-0.9744 -1.34184,-1.84866 l 2.93344,-9.92707 c 0.25835,-0.87426 1.59989,-1.59032 2.49412,-1.45561 z"
         sodipodi:nodetypes="sssssss"
         inkscape:transform-center-x="1.3849994"
         inkscape:transform-center-y="4.8620995" />
      <path
         id="rect1-9-6-3-8"
         style="stroke:#ffffff;stroke-width:0.359059;stroke-linejoin:round;stroke-dasharray:none;stroke-dashoffset:0;stroke-opacity:1"
         d="m 108.4402,352.75043 1.03857,2.41292 c 0.36083,0.8383 0.29649,2.66387 -0.51009,2.89527 l -12.285234,3.52434 c -0.80655,0.23148 -2.50729,0.0791 -2.87993,-0.75409 -0.54955,-1.15328 -0.6284,-2.88467 0.87523,-3.72788 l 11.672464,-5.27805 c 0.76339,-0.34518 1.72817,0.0892 2.089,0.9275 z"
         sodipodi:nodetypes="sssssssss"
         inkscape:transform-center-x="6.9889274"
         inkscape:transform-center-y="2.8675267" />
      <path
         id="rect1-9-4-32-7-9"
         style="stroke:#ffffff;stroke-width:0.359059;stroke-linejoin:round;stroke-dasharray:none;stroke-dashoffset:0;stroke-opacity:1"
         d="m 114.87568,354.66208 -1.66495,-2.18755 c -0.55274,-0.72618 -1.58086,-0.96074 -2.25899,-0.46877 l -10.34316,7.50373 c -0.678394,0.49164 -1.559354,2.20713 -1.026424,2.94806 0.767524,1.1528 2.322704,1.71474 3.893364,1.03789 l 11.71695,-5.88035 c 0.75025,-0.37654 0.23593,-2.22678 -0.31678,-2.95299 z"
         sodipodi:nodetypes="sssssssss"
         inkscape:transform-center-x="5.9421457"
         inkscape:transform-center-y="2.236521" />
      <path
         id="rect1-7-8-0-69-2"
         style="stroke:#ffffff;stroke-width:0.374331;stroke-linejoin:round;stroke-dasharray:none;stroke-dashoffset:0;stroke-opacity:1"
         d="m 105.95634,346.44086 c -0.74248,0.51624 -1.80602,0.35973 -2.27959,-0.41922 l -4.419474,-7.26954 c -0.47357,-0.77897 -0.53834,-1.22779 0.20415,-1.74403 0.742484,-0.51624 1.230194,-0.25659 1.784084,0.46749 l 5.11171,6.68241 c 0.55387,0.72406 0.34162,1.76666 -0.40087,2.2829 z"
         sodipodi:nodetypes="sssssss"
         inkscape:transform-center-x="2.2776588"
         inkscape:transform-center-y="-3.7504549" />
      <path
         id="rect1-7-8-5-1-8-70-8-3"
         style="stroke:#ffffff;stroke-width:0.374331;stroke-linejoin:round;stroke-dasharray:none;stroke-dashoffset:0;stroke-opacity:1"
         d="m 100.20358,339.21406 c 0.7915,0.069 1.86846,-0.57886 1.55433,-1.31561 -0.38805,-0.91015 -0.23197,-1.87684 -1.25962,-2.06275 -0.815224,-0.14748 -1.794574,0.4484 -1.803064,1.16769 -0.009,0.80087 0.71686,2.14163 1.508354,2.21068 z"
         sodipodi:nodetypes="sssss"
         inkscape:transform-center-x="4.8089564"
         inkscape:transform-center-y="-7.9736063" />
      <path
         id="rect1-7-8-5-1-5-4-4-1-2"
         style="stroke:#ffffff;stroke-width:0.374331;stroke-linejoin:round;stroke-dasharray:none;stroke-dashoffset:0;stroke-opacity:1"
         d="m 99.745146,337.85487 c -0.79312,-0.0469 -1.39359,-0.72827 -1.34633,-1.5278 l 0.0556,-0.94119 c 0.0472,-0.79954 0.7238,-1.40547 1.51691,-1.3586 0.793124,0.0469 1.005764,0.66679 1.106574,1.46142 0.1532,1.20694 0.40959,2.35257 -1.332784,2.36617 z"
         sodipodi:nodetypes="ssssss"
         inkscape:transform-center-x="-0.38405717"
         inkscape:transform-center-y="-0.35564747" />
      <path
         id="rect1-73-2-6"
         style="stroke:none;stroke-width:0.328672;stroke-linejoin:round;stroke-dasharray:none;stroke-dashoffset:0;stroke-opacity:1"
         d="m 108.68836,332.56797 c 3.45453,-1.82227 4.04347,-0.56881 6.23338,0.0695 0.68569,0.19987 3.02412,0.92316 2.97577,1.83263 -0.3283,6.17474 -3.49114,12.4448 -2.02921,18.21432 0.10358,0.4088 0.3511,1.7069 -0.0177,3.73119 -0.19783,1.08581 -1.55896,1.66451 -2.15662,1.29474 -4.00319,-2.00562 -4.30347,0.59051 -3.74063,-2.78321 0.0342,-1.76206 -3.99153,-1.14713 -3.51393,-3.09123 1.35749,-5.52564 1.54061,-11.69898 0.98035,-17.62241 -0.0856,-0.90484 0.61757,-1.30212 1.2686,-1.64553 z"
         sodipodi:nodetypes="sssssssssss" />
      <path
         id="rect1-7-8-5-1-5-4-34-2-8-8"
         style="stroke:#ffffff;stroke-width:0.286;stroke-linejoin:round;stroke-dasharray:none;stroke-dashoffset:0;stroke-opacity:1"
         d="m 121.81301,359.98223 c -0.15488,-0.98552 -1.18288,-1.95613 -2.3049,-2.17625 l -1.32081,-0.25913 c -1.12203,-0.22011 -1.90061,0.39608 -1.74572,1.3816 0.15489,0.98552 1.05276,1.46083 2.18444,1.86018 1.7189,0.60667 3.3629,1.31813 3.18699,-0.8064 z"
         sodipodi:nodetypes="ssssss" />
      <path
         id="rect1-7-5-3-1-8"
         style="stroke:#ffffff;stroke-width:0.365365;stroke-linejoin:round;stroke-dasharray:none;stroke-dashoffset:0;stroke-opacity:1"
         d="m 113.49852,332.07375 -0.43306,-2.68346 c -0.23458,-1.4536 -2.76275,-1.35577 -3.03058,0.37345 l -0.38229,2.46814 c -0.33058,2.13438 4.18819,1.96273 3.84593,-0.15813 z"
         sodipodi:nodetypes="sssss" />
      <path
         id="path1-57-2-6"
         style="stroke:#ffffff;stroke-width:0.293717;stroke-linejoin:round;stroke-dasharray:none;stroke-dashoffset:0;stroke-opacity:1"
         d="m 113.818,327.51621 c -0.92357,2.20162 -2.98976,4.09748 -4.73742,3.36434 -1.74766,-0.73314 -1.79808,-3.5169 -0.87451,-5.71851 0.92357,-2.20163 2.47139,-2.98741 4.21905,-2.25428 1.74766,0.73314 2.31645,2.40683 1.39288,4.60845 z"
         sodipodi:nodetypes="sssss" />
      <g
         id="g14"
         inkscape:transform-center-x="3.5538756"
         inkscape:transform-center-y="5.5297939"
         transform="rotate(-11.570492,1342.898,-128.47833)">
        <path
           id="rect1-7-8-3-5-8-8"
           style="stroke:#ffffff;stroke-width:0.374331;stroke-linejoin:round;stroke-dasharray:none;stroke-dashoffset:0;stroke-opacity:1"
           d="m 45.797157,87.656666 c -0.69831,-0.57461 -1.77102,-0.50464 -2.30603,0.23347 l -4.993,6.88823 c -0.53503,0.73812 -0.6359,1.18023 0.0624,1.75483 0.6983,0.5746 1.20541,0.35526 1.81605,-0.32164 l 5.63547,-6.24705 c 0.61064,-0.6769 0.4834,-1.73324 -0.21489,-2.30784 z"
           sodipodi:nodetypes="sssssss"
           inkscape:transform-center-x="3.1706017"
           inkscape:transform-center-y="3.9376306" />
        <g
           id="g13">
          <g
             id="g3-98-3"
             transform="matrix(0.47343937,0.31002829,-0.31002829,0.47343937,1.4722529,10.21224)"
             inkscape:transform-center-x="2.330254"
             inkscape:transform-center-y="1.0206982">
            <path
               id="rect1-7-8-5-1-8-7-3-8-6"
               style="stroke:#ffffff;stroke-width:0.661458;stroke-linejoin:round;stroke-dasharray:none;stroke-dashoffset:0;stroke-opacity:1"
               d="m 137.55397,90.157273 c -1.40392,0 -3.20026,1.30593 -2.53415,2.55464 0.82288,1.5426 0.69657,3.268276 2.53415,3.437746 1.45772,0.13443 3.09023,-1.064926 2.99471,-2.332426 -0.10635,-1.41127 -1.59079,-3.65996 -2.99471,-3.65996 z"
               sodipodi:nodetypes="sssss" />
            <path
               id="rect1-7-8-5-1-5-4-364-7-2-4"
               style="stroke:#ffffff;stroke-width:0.661458;stroke-linejoin:round;stroke-dasharray:none;stroke-dashoffset:0;stroke-opacity:1"
               d="m 138.57158,92.478023 c -1.35608,-0.36336 -2.7427,0.44467 -3.10899,1.81171 l -0.43121,1.609256 c -0.3663,1.36706 0.43054,2.76013 1.78662,3.12349 1.35608,0.36336 2.05811,-0.55768 2.66996,-1.83399 0.92945,-1.938526 1.99777,-3.716746 -0.91638,-4.710466 z"
               sodipodi:nodetypes="ssssss" />
            <path
               id="rect1-7-8-5-5-6-7-7-4-0-8"
               style="stroke:#ffffff;stroke-width:0.661458;stroke-linejoin:round;stroke-dasharray:none;stroke-dashoffset:0;stroke-opacity:1"
               d="m 135.95376,90.986293 c -0.35972,-0.20769 -0.79882,-0.11595 -1.07121,0.35584 l -1.55197,2.6881 c -0.28007,0.48508 -0.21672,1.04416 0.14301,1.25185 0.35972,0.20769 0.87557,-0.017 1.15564,-0.50207 l 1.55197,-2.6881 c 0.21866,-0.37873 0.13229,-0.89793 -0.22744,-1.10562 z"
               sodipodi:nodetypes="sssssss" />
          </g>
        </g>
      </g>
      <path
         id="rect24-0-7-7-9-3-4"
         style="fill:#999999;stroke:none;stroke-width:0.509793;stroke-linejoin:round;stroke-dasharray:none"
         d="m 95.473685,303.74167 -2.17018,7.7674 -7.40566,-3.77073 3.53509,7.64131 -7.27981,2.74312 7.27981,2.74308 -4.12424,7.13089 7.18975,-4.06535 2.91631,7.86538 2.91628,-7.86538 7.446805,4.24211 -4.00643,-7.68254 7.90656,-2.42716 -7.90656,-2.42716 3.06374,-7.60372 -7.191275,3.47615 z"
         sodipodi:nodetypes="ccccccccccccccccc" />
      <path
         id="rect5-3"
         style="fill:#f9f9f9;stroke:#ffffff;stroke-width:0.438391;stroke-linejoin:round;stroke-dasharray:none"
         d="m 109.95145,336.79178 -1.33179,1.78022 h 0.0228 v 4.10529 h 4.05939 l 1.35494,-1.83035 v -4.05516 z" />
      <g
         id="g6-1-1-4-6-9-1-6-2-70-4-5-0-7-1-3"
         transform="matrix(0.45133278,0,0,0.45133278,55.769988,244.09962)"
         style="stroke-width:0.435386;stroke-dasharray:none">
        <rect
           style="opacity:1;fill:#000000;stroke:#ffffff;stroke-width:0.435386;stroke-linejoin:round;stroke-dasharray:none"
           id="rect5-8-3-8-1-8-2-2-7-21-1-3-7-7-9-6"
           width="10.664055"
           height="10.785408"
           x="81.009392"
           y="159.09109" />
        <path
           id="rect5-9-6-4-2-3-0-7-7-8-9-4-2-1-4-7-8"
           style="fill:#000000;stroke:#ffffff;stroke-width:0.54763;stroke-linejoin:round;stroke-dasharray:none"
           transform="matrix(0.63208417,-0.77489973,0,1,0,0)"
           d="m 145.0336,271.4776 5.6318,-0.31314 1e-5,10.65467 -5.63181,0.44388 z"
           sodipodi:nodetypes="ccccc" />
        <rect
           style="fill:#000000;stroke:#ffffff;stroke-width:0.486557;stroke-linejoin:round;stroke-dasharray:none"
           id="rect5-9-1-3-5-4-3-5-1-4-5-9-8-8-8-0-5-5"
           width="5.8412356"
           height="10.785408"
           x="-198.68402"
           y="-210.75246"
           transform="matrix(0.59903324,-0.80072416,-1,0,0,0)" />
      </g>
    </g>
  </g>
</svg>
