<?xml version="1.0" encoding="UTF-8" standalone="no"?>
<!-- Created with Inkscape (http://www.inkscape.org/) -->

<svg
   width="87.6577mm"
   height="101.13026mm"
   viewBox="0 0 87.6577 101.13026"
   version="1.1"
   id="svg1"
   xmlns:inkscape="http://www.inkscape.org/namespaces/inkscape"
   xmlns:sodipodi="http://sodipodi.sourceforge.net/DTD/sodipodi-0.dtd"
   xmlns="http://www.w3.org/2000/svg"
   xmlns:svg="http://www.w3.org/2000/svg">
  <sodipodi:namedview
     id="namedview1"
     pagecolor="#ffffff"
     bordercolor="#000000"
     borderopacity="0.25"
     inkscape:showpageshadow="2"
     inkscape:pageopacity="0.0"
     inkscape:pagecheckerboard="0"
     inkscape:deskcolor="#d1d1d1"
     inkscape:document-units="mm" />
  <defs
     id="defs1" />
  <g
     inkscape:label="Layer 1"
     inkscape:groupmode="layer"
     id="layer1"
     transform="translate(1264.3756,240.35975)">
    <g
       id="g58"
       transform="translate(-1295.3238,-497.33281)"
       inkscape:export-filename="5.svg"
       inkscape:export-xdpi="96"
       inkscape:export-ydpi="96">
      <path
         id="rect10"
         style="fill:#e6e6e6;stroke-width:1.1;stroke-linejoin:round"
         d="m 47.830285,256.97306 44.185424,6.61458 v 71.96667 l -44.185424,-6.61458 z"
         sodipodi:nodetypes="ccccc" />
      <path
         id="rect10-1"
         style="fill:#e6e6e6;stroke-width:1.1;stroke-linejoin:round"
         d="m 74.420369,260.54298 44.185421,6.61458 v 71.96667 l -44.185421,-6.61458 z"
         sodipodi:nodetypes="ccccc" />
      <path
         id="rect10-1-3"
         style="fill:#999999;stroke-width:0.466395;stroke-linejoin:round"
         d="m 87.145879,268.08894 18.734411,2.80455 v 30.51353 l -18.734411,-2.80455 z"
         sodipodi:nodetypes="ccccc" />
      <path
         id="rect10-0"
         style="fill:#999999;stroke-width:0.579641;stroke-linejoin:round"
         d="m 55.701129,262.82645 v 67.2915 l -16.242424,8.38088 c -2.85279,-0.54236 -5.708685,-1.08479 -8.510586,-1.62987 l 0.0935,21.23436 46.02406,-12.62817 c -4.77737,-0.87884 -9.71002,-1.78707 -14.60582,-2.68769 l 16.52457,-9.18394 v -67.2915 z" />
      <path
         id="rect1-7-8-5-5-6-7-7-5-4-9-4-6-1-3-3-2-1-5-6-8-4-6-7"
         style="fill:#000000;stroke:#ffffff;stroke-width:0.374331;stroke-linejoin:round;stroke-dasharray:none;stroke-dashoffset:0;stroke-opacity:1"
         d="m 52.596919,306.2808 c 0.22062,-0.0814 0.45679,0.0116 0.56335,0.30125 l 0.60784,1.64807 c 0.10917,0.29755 0.0211,0.60312 -0.19983,0.68451 -0.22063,0.0811 -0.48674,-0.0935 -0.5964,-0.3909 l -0.60778,-1.64814 c -0.0859,-0.23215 0.0124,-0.51342 0.23295,-0.59479 z"
         sodipodi:nodetypes="sssssss"
         inkscape:transform-center-x="1.8441247"
         inkscape:transform-center-y="8.4494261" />
      <path
         id="rect1-7-8-3-2-6-6-1-0-0-7-4-5-1-6-8-1-7-5-5"
         style="fill:#000000;stroke:#ffffff;stroke-width:0.317429;stroke-linejoin:round;stroke-dasharray:none;stroke-dashoffset:0;stroke-opacity:1"
         d="m 55.993219,297.97985 c -0.79863,-0.4568 -1.78802,-0.41778 -2.01887,0.18509 l -2.78235,7.26279 c -0.23094,0.60287 -0.23289,0.93781 0.56564,1.39454 0.79873,0.45687 1.25,0.31577 1.55017,-0.25513 l 3.54962,-6.75312 c 0.30018,-0.57096 -0.0657,-1.37736 -0.86419,-1.83413 z"
         sodipodi:nodetypes="sssssss"
         inkscape:transform-center-x="1.1614695"
         inkscape:transform-center-y="2.9392822" />
      <path
         id="rect1-7-8-5-1-8-7-5-7-9-2-9-8-5-3-1-9-0-39-0-0-4-4"
         style="fill:#000000;stroke:#ffffff;stroke-width:0.374331;stroke-linejoin:round;stroke-dasharray:none;stroke-dashoffset:0;stroke-opacity:1"
         d="m 51.351669,305.22817 c 0.78966,-0.0879 1.88163,0.5346 1.58517,1.27834 -0.36652,0.91906 -0.18763,1.88175 -1.2106,2.09193 -0.81142,0.16671 -1.804577,-0.40581 -1.830087,-1.1247 -0.0285,-0.8004 0.665997,-2.15795 1.455647,-2.24572 z"
         sodipodi:nodetypes="sssss"
         inkscape:transform-center-x="3.4772288"
         inkscape:transform-center-y="7.7796037" />
      <path
         id="rect1-7-8-5-1-5-4-364-1-3-9-8-1-8-3-7-2-2-2-2-6-0-3-9"
         style="fill:#000000;stroke:#ffffff;stroke-width:0.374331;stroke-linejoin:round;stroke-dasharray:none;stroke-dashoffset:0;stroke-opacity:1"
         d="m 51.095329,306.83912 c 0.79202,0.0632 1.37826,0.75675 1.31468,1.55511 l -0.0749,0.93984 c -0.0636,0.79845 -0.75247,1.39033 -1.54457,1.32714 -0.791897,-0.0631 -0.991857,-0.68723 -1.076317,-1.4838 -0.12791,-1.20983 -0.36117,-2.3605 1.381177,-2.3383 z"
         sodipodi:nodetypes="ssssss"
         inkscape:transform-center-x="3.8974071"
         inkscape:transform-center-y="9.6081996" />
      <path
         id="rect1-7-8-5-1-5-4-34-0-1-3-9-6-4-0-6-7-3-8-4-6-8-9-3"
         style="fill:#000000;stroke:#ffffff;stroke-width:0.419911;stroke-linejoin:round;stroke-dasharray:none;stroke-dashoffset:0;stroke-opacity:1"
         d="m 50.309372,337.20043 c -0.49718,-0.7907 -1.74722,-1.4823 -2.80278,-1.5506 l -1.24257,-0.08 c -1.05555,-0.068 -1.50506,0.5133 -1.00788,1.3041 0.49718,0.7908 1.45197,1.0901 2.58184,1.3041 1.71625,0.325 3.405967,0.7432 2.47139,-0.9772 z"
         sodipodi:nodetypes="ssssss" />
      <path
         id="rect1-7-2-76-1-7-2-6-7-2-5-0-5-1-5-8-0-8-3"
         style="fill:#000000;stroke:#ffffff;stroke-width:0.374331;stroke-linejoin:round;stroke-dasharray:none;stroke-dashoffset:0;stroke-opacity:1"
         d="m 57.432649,288.6597 c -0.59869,-0.67791 -2.07954,-0.36699 -2.18336,0.53856 l -0.81259,7.08782 c -0.10383,0.90564 -0.54989,1.79358 0.0663,2.45506 0.61658,0.66154 1.9288,0.902 2.28346,0.0622 l 2.51358,-5.95195 c 0.138,-0.89455 -0.78212,-2.91104 -1.86766,-4.19174 z"
         sodipodi:nodetypes="cssssccc"
         inkscape:transform-center-x="-2.0015349"
         inkscape:transform-center-y="-4.6439063" />
      <path
         id="rect1-9-69-4-8-4-7-7-73-7-5-9-2-0-3-9-0"
         style="fill:#000000;stroke:#ffffff;stroke-width:0.359059;stroke-linejoin:round;stroke-dasharray:none;stroke-dashoffset:0;stroke-opacity:1"
         d="m 57.837509,306.29517 2.62683,-0.0217 c 0.91264,-0.008 2.57044,0.7597 2.47096,1.59284 l -1.51497,12.69062 c -0.0994,0.83326 -0.70066,1.52844 -1.61312,1.54887 l -1.61463,0.0362 c -0.91244,0.0204 -1.6587,-0.63747 -1.6809,-1.475 l -0.33913,-12.80579 c -0.0219,-0.83753 0.75231,-1.55845 1.66495,-1.56597 z"
         sodipodi:nodetypes="ssssssssss"
         inkscape:transform-center-x="-1.2903497"
         inkscape:transform-center-y="-6.4883806" />
      <path
         id="rect1-9-1-95-4-0-1-8-0-2-1-4-6-1-8-6-7-7"
         style="fill:#000000;stroke:#ffffff;stroke-width:0.387927;stroke-linejoin:round;stroke-dasharray:none;stroke-dashoffset:0;stroke-opacity:1"
         d="m 58.131869,321.56924 1.27465,-0.98605 c 0.72031,-0.55722 1.81236,-0.40347 2.38266,0.39347 l 8.0221,11.20997 c 0.57034,0.79692 0.50257,1.84787 -0.21775,2.4051 l -0.48426,0.37462 c -0.72032,0.55723 -1.17611,-0.0929 -1.83902,-0.81403 l -9.35613,-10.17798 c -0.66292,-0.72113 -0.50257,-1.84788 0.21775,-2.4051 z"
         sodipodi:nodetypes="sssssssss"
         inkscape:transform-center-x="-4.6661177"
         inkscape:transform-center-y="5.6695693" />
      <path
         id="rect1-0-0-2-5-8-0-4-2-7-8-2-4-2-5-8"
         style="fill:#000000;stroke:#ffffff;stroke-width:0.314577;stroke-linejoin:round;stroke-dasharray:none;stroke-dashoffset:0;stroke-opacity:1"
         d="m 56.585059,286.0482 c 3.00028,-1.0108 4.94787,0.4451 6.95399,1.0834 0.62816,0.1999 2.9867,1.3533 2.94241,2.2628 -0.30075,6.1747 -3.1225,11.73889 -3.50307,17.37624 -0.11272,1.66964 0.3247,3.09132 -0.0275,4.5365 -0.30986,1.27146 -0.36708,1.69282 -0.64123,1.63733 l -1.58936,-0.32168 c -0.63919,-0.12937 -3.95135,1.4849 -4.14454,0.5943 -0.43959,-2.02645 -0.64478,-4.71066 -0.84591,-7.29505 -0.44325,-5.69563 0.2016,-11.62944 -0.31164,-17.55294 -0.0784,-0.9048 0.53621,-2.1084 1.16682,-2.3209 z"
         sodipodi:nodetypes="ssssssssssss" />
      <path
         id="rect1-7-5-6-7-4-6-3-1-3-5-8-5-8-1-6-3-9"
         style="fill:#000000;stroke:#ffffff;stroke-width:0.374331;stroke-linejoin:round;stroke-dasharray:none;stroke-dashoffset:0;stroke-opacity:1"
         d="m 61.949669,287.3043 -0.33349,-3.52339 c -0.13866,-1.46535 -3.03162,-1.03888 -3.12917,0.70761 l -0.13925,2.49268 c -0.12042,2.15561 3.80432,2.46128 3.60194,0.3231 z"
         sodipodi:nodetypes="sssss"
         inkscape:transform-center-x="0.3207657"
         inkscape:transform-center-y="-1.7596704" />
      <path
         id="rect1-7-8-5-1-5-4-34-31-3-6-5-5-8-2-4-6-4-8-2-3-7-8"
         style="fill:#000000;stroke:#ffffff;stroke-width:0.453133;stroke-linejoin:round;stroke-dasharray:none;stroke-dashoffset:0;stroke-opacity:1"
         d="m 68.930429,334.37762 c -0.92154,-0.1676 -2.2173,0.41122 -2.90495,1.29799 l -0.80962,1.04374 c -0.68776,0.88673 -0.4995,1.73549 0.42213,1.90316 0.92155,0.16759 1.7309,-0.45107 2.57802,-1.29156 1.28675,-1.27663 2.63114,-2.45767 0.71443,-2.95331 z"
         sodipodi:nodetypes="ssssss"
         inkscape:transform-center-x="1.5231384"
         inkscape:transform-center-y="1.6559412" />
      <path
         id="path1-73-1-5-7-3-7-0-4-1-5-6-4-2-1-5"
         style="fill:#000000;stroke:#ffffff;stroke-width:0.287201;stroke-linejoin:round;stroke-dasharray:none;stroke-dashoffset:0;stroke-opacity:1"
         d="m 56.114349,280.7641 c -0.0186,2.2199 0.0908,4.74387 1.98469,5.20348 1.89371,0.45952 3.57397,-1.57021 4.09653,-3.72781 0.52265,-2.15761 -0.25569,-4.12513 -2.20402,-4.08549 -2.42547,0.0496 -3.85671,0.16763 -3.8772,2.60982 z"
         sodipodi:nodetypes="sssss"
         inkscape:transform-center-x="1.2385018"
         inkscape:transform-center-y="-5.493548" />
      <path
         id="rect1-9-4-41-7-6-1-1-5-8-1-3-6-8-2-5-1-2"
         style="fill:#000000;stroke:#ffffff;stroke-width:0.359059;stroke-linejoin:round;stroke-dasharray:none;stroke-dashoffset:0;stroke-opacity:1"
         d="m 62.970249,311.23908 c -0.63658,3.24087 -4.36563,11.64535 -4.36563,11.64535 -0.29409,0.78449 -1.33314,1.0245 -2.14961,0.61661 l -1.44478,-0.72173 c -0.81638,-0.40807 -1.04991,-1.28838 -0.7979,-2.08915 l 3.93562,-12.50502 c 0.59187,-1.8806 5.45887,-0.18693 4.8223,3.05394 z"
         sodipodi:nodetypes="zsssssz"
         inkscape:transform-center-x="2.8649701"
         inkscape:transform-center-y="5.8206316" />
      <path
         id="rect1-9-4-4-31-7-1-4-3-0-5-7-9-6-35-6-7-9-4"
         style="fill:#000000;stroke:#ffffff;stroke-width:0.387927;stroke-linejoin:round;stroke-dasharray:none;stroke-dashoffset:0;stroke-opacity:1"
         d="m 55.694169,322.39559 1.50791,0.56851 c 0.85217,0.32124 1.34005,1.35364 0.91407,2.23523 l -5.63639,11.66488 c -0.42593,0.8815 -0.59748,1.5244 -1.44951,1.20289 l -0.679647,-0.25645 c -0.85205,-0.32151 -1.22814,-1.30691 -0.91405,-2.23523 l 4.095477,-12.10466 c 0.31409,-0.92833 1.3101,-1.39667 2.16221,-1.07534 z"
         sodipodi:nodetypes="ssssssssss"
         inkscape:transform-center-x="2.5221338"
         inkscape:transform-center-y="6.1873254" />
      <path
         id="rect1-7-3-7-0-3-9-3-9-7-1-2-3-6-9-6-9-7"
         style="fill:#000000;stroke:#ffffff;stroke-width:0.374331;stroke-linejoin:round;stroke-dasharray:none;stroke-dashoffset:0;stroke-opacity:1"
         d="m 64.132419,288.63635 c 0.76397,-0.48382 2.55333,-0.268 2.76783,0.61804 l 2.14297,8.85176 c 0.21454,0.88602 0.0777,1.87443 -0.68633,2.35818 -0.76408,0.48373 -1.92987,0.34419 -2.22475,-0.51851 l -2.93155,-8.57609 c -0.29488,-0.86266 0.16808,-2.24961 0.93184,-2.73336 z"
         sodipodi:nodetypes="ssssssss"
         inkscape:transform-center-x="1.6599266"
         inkscape:transform-center-y="-5.0485809" />
      <path
         id="rect1-7-8-5-1-5-4-8-8-8-0-9-0-1-9-3-7-7-2"
         style="fill:#000000;stroke:#ffffff;stroke-width:0.374331;stroke-linejoin:round;stroke-dasharray:none;stroke-dashoffset:0;stroke-opacity:1"
         d="m 67.766479,308.01346 c -0.79344,-0.0407 -1.46539,0.57034 -1.50647,1.37025 l -0.0485,0.94153 c -0.0411,0.79992 0.56463,1.47672 1.35811,1.51752 0.79337,0.0408 1.07302,-0.55195 1.26068,-1.33078 0.28513,-1.18273 0.66616,-2.29316 -1.064,-2.49865 z"
         sodipodi:nodetypes="ssssss"
         inkscape:transform-center-x="0.4026393"
         inkscape:transform-center-y="10.791261" />
      <path
         id="rect1-7-8-5-5-6-7-3-8-5-1-5-2-2-5-5-7-9-5"
         style="fill:#000000;stroke:#ffffff;stroke-width:0.374331;stroke-linejoin:round;stroke-dasharray:none;stroke-dashoffset:0;stroke-opacity:1"
         d="m 66.846549,306.73881 c -0.21057,-0.1044 -0.45533,-0.0371 -0.59221,0.23946 l -0.78023,1.57381 c -0.14112,0.28385 -0.0849,0.59748 0.12571,0.70186 0.21061,0.10442 0.49387,-0.0409 0.63466,-0.32495 l 0.78012,-1.57378 c 0.11002,-0.22176 0.0432,-0.5118 -0.16803,-0.61636 z"
         sodipodi:nodetypes="sssssss"
         inkscape:transform-center-x="1.8144148"
         inkscape:transform-center-y="8.8531046" />
      <path
         id="rect1-7-8-30-8-6-6-5-6-4-9-9-6-1-4-5-6-4-7"
         style="fill:#000000;stroke:#ffffff;stroke-width:0.313714;stroke-linejoin:round;stroke-dasharray:none;stroke-dashoffset:0;stroke-opacity:1"
         d="m 69.337299,300.02382 -0.58362,8.22162 c -0.0446,0.62848 -0.21435,0.92 -1.13378,0.97008 -0.91971,0.05 -1.24512,-0.27047 -1.27086,-0.89931 l -0.33202,-8.11183 c 0.83233,-2.58496 2.64889,-1.95565 3.32028,-0.18056 z"
         sodipodi:nodetypes="cssscc"
         inkscape:transform-center-x="0.10369677"
         inkscape:transform-center-y="3.4407355" />
      <path
         id="rect1-7-8-5-1-8-52-7-5-6-4-2-1-9-8-7-6-7"
         style="fill:#000000;stroke:#ffffff;stroke-width:0.374331;stroke-linejoin:round;stroke-dasharray:none;stroke-dashoffset:0;stroke-opacity:1"
         d="m 68.636199,306.53388 c -0.6425,-0.46731 -1.89937,-0.46758 -2.01018,0.32561 -0.13684,0.97992 -0.76904,1.72767 0.0156,2.41691 0.62236,0.54677 1.76878,0.5412 2.14695,-0.0707 0.42108,-0.68134 0.4902,-2.2046 -0.15238,-2.67186 z"
         sodipodi:nodetypes="sssss"
         inkscape:transform-center-x="0.36227623"
         inkscape:transform-center-y="8.8091382" />
    </g>
  </g>
</svg>
