<?xml version="1.0" encoding="UTF-8" standalone="no"?>
<!-- Created with Inkscape (http://www.inkscape.org/) -->

<svg
   width="36.22789mm"
   height="63.881615mm"
   viewBox="0 0 36.22789 63.881615"
   version="1.1"
   id="svg1"
   xmlns:inkscape="http://www.inkscape.org/namespaces/inkscape"
   xmlns:sodipodi="http://sodipodi.sourceforge.net/DTD/sodipodi-0.dtd"
   xmlns="http://www.w3.org/2000/svg"
   xmlns:svg="http://www.w3.org/2000/svg">
  <sodipodi:namedview
     id="namedview1"
     pagecolor="#ffffff"
     bordercolor="#000000"
     borderopacity="0.25"
     inkscape:showpageshadow="2"
     inkscape:pageopacity="0.0"
     inkscape:pagecheckerboard="0"
     inkscape:deskcolor="#d1d1d1"
     inkscape:document-units="mm" />
  <defs
     id="defs1" />
  <g
     inkscape:label="Layer 1"
     inkscape:groupmode="layer"
     id="layer1"
     transform="translate(1238.6608,114.64243)">
    <g
       id="g33"
       transform="translate(-1306.9589,-722.1314)"
       inkscape:export-filename="6.svg"
       inkscape:export-xdpi="96"
       inkscape:export-ydpi="96">
      <path
         id="rect1-7-8-5-5-6-7-3-8-5-1-5"
         style="stroke:#ffffff;stroke-width:0.374331;stroke-linejoin:round;stroke-dasharray:none;stroke-dashoffset:0;stroke-opacity:1"
         d="m 79.65195,623.33996 c 0.0427,-0.23115 -0.0893,-0.44798 -0.39252,-0.50396 l -1.72738,-0.31896 c -0.31171,-0.0576 -0.5979,0.082 -0.64058,0.3132 -0.0427,0.23116 0.17475,0.46376 0.48648,0.52132 l 1.72738,0.31896 c 0.24337,0.0449 0.50393,-0.0994 0.54662,-0.33056 z"
         sodipodi:nodetypes="sssssss" />
      <path
         id="rect10-1-1-3-8-0-0-6-1"
         style="fill:#cccccc;stroke-width:0.22124;stroke-linejoin:round"
         d="m 79.839522,627.23349 -7.470345,3.25252 -1.588017,-0.2403 -2.483052,2.18281 9.762711,-1.08107 -2.438094,-0.36897 7.513754,-3.30005 z" />
      <path
         id="rect10-1-1-3-8-0-0-6-1-4"
         style="fill:#cccccc;stroke-width:0.22124;stroke-linejoin:round"
         d="m 87.400496,617.80855 -3.214667,-0.51105 7.917187,-3.44723 3.29737,0.4449 z"
         sodipodi:nodetypes="ccccc" />
      <path
         id="rect10-1-1-3-8-0-0-6-6-1-3"
         style="fill:#cccccc;stroke-width:0.182247;stroke-linejoin:round"
         d="m 80.561729,619.04555 2.48305,-2.18328 7.279547,1.10208 z"
         sodipodi:nodetypes="cccc" />
      <path
         id="rect1-7-3-7-0-3-9-3-9-7-1"
         style="stroke:#ffffff;stroke-width:0.374331;stroke-linejoin:round;stroke-dasharray:none;stroke-dashoffset:0;stroke-opacity:1"
         d="m 95.762126,618.13751 c 0.50801,0.74814 0.31335,2.43805 -0.52917,2.78619 l -6.69279,2.76553 c -0.84252,0.34814 -1.87091,0.13768 -2.37886,-0.6105 -0.50793,-0.74819 -0.35017,-1.79802 0.44706,-2.24015 l 6.39199,-3.54498 c 0.79723,-0.44215 2.2538,0.0957 2.76174,0.8439 z"
         sodipodi:nodetypes="ssssssss"
         inkscape:transform-center-x="4.9372213"
         inkscape:transform-center-y="2.3757066" />
      <path
         id="rect1-7-8-30-8-6-6-5-6-4-9-9"
         style="stroke:#ffffff;stroke-width:0.313714;stroke-linejoin:round;stroke-dasharray:none;stroke-dashoffset:0;stroke-opacity:1"
         d="m 88.413826,621.91783 c 0.30013,0.87081 0.0867,1.8178 -0.531,1.94161 l -7.176216,1.43815 c -0.61776,0.1238 -0.94351,0.0463 -1.24365,-0.82452 -0.30014,-0.87083 -0.0801,-1.26842 0.51656,-1.46868 l 6.819716,-2.28868 c 0.59668,-0.20024 1.3144,0.33129 1.61456,1.2021 z"
         sodipodi:nodetypes="sssssss"
         inkscape:transform-center-x="3.4714137"
         inkscape:transform-center-y="1.2479144" />
      <path
         id="rect1-7-2-76-1-7-2-6-7-2-5-0"
         style="stroke:#ffffff;stroke-width:0.374331;stroke-linejoin:round;stroke-dasharray:none;stroke-dashoffset:0;stroke-opacity:1"
         d="m 104.33883,620.53121 c -0.0195,-0.90411 -1.30442,-1.56891 -2.01507,-0.99804 l -7.363144,5.91486 c -0.71071,0.57091 -1.57799,1.01452 -1.53422,1.91777 0.0438,0.90327 0.88775,1.92802 1.70377,1.52159 l 7.929044,-3.94915 c 0.68264,-0.59444 1.2819,-2.72812 1.27962,-4.40703 z"
         sodipodi:nodetypes="csssscc"
         inkscape:transform-center-x="3.8014056"
         inkscape:transform-center-y="2.0989427" />
      <path
         id="rect1-9-4-4-31-7-1-4-3-0-5-7"
         style="stroke:#ffffff;stroke-width:0.387927;stroke-linejoin:round;stroke-dasharray:none;stroke-dashoffset:0;stroke-opacity:1"
         d="m 97.599836,653.4995 1.60066,-0.18679 c 0.904564,-0.10555 1.836014,0.58757 1.837814,1.56661 l 0.0257,13.99861 c 0.002,0.97906 0.1686,1.62841 -0.73595,1.73396 l -0.721554,0.0842 c -0.90455,0.10555 -1.7242,-0.59316 -1.8378,-1.56662 l -1.5966,-13.6823 c -0.1136,-0.97345 0.52316,-1.84212 1.42771,-1.94767 z"
         sodipodi:nodetypes="sssssssss" />
      <path
         id="rect1-9-1-95-4-0-1-8-0-2-1"
         style="stroke:#ffffff;stroke-width:0.387927;stroke-linejoin:round;stroke-dasharray:none;stroke-dashoffset:0;stroke-opacity:1"
         d="m 91.158416,652.11314 h 1.61153 c 0.91068,0 1.68037,0.78979 1.64383,1.76907 l -0.51391,13.77514 c -0.0365,0.97927 -0.73315,1.76907 -1.64384,1.76907 h -0.61225 c -0.91069,0 -0.87342,-0.7931 -0.95651,-1.76907 l -1.1727,-13.77514 c -0.0831,-0.97598 0.73316,-1.76907 1.64385,-1.76907 z"
         sodipodi:nodetypes="sssssssss" />
      <path
         id="rect1-9-69-4-8-4-7-7-73-7"
         style="stroke:#ffffff;stroke-width:0.359059;stroke-linejoin:round;stroke-dasharray:none;stroke-dashoffset:0;stroke-opacity:1"
         d="m 94.646976,638.68462 2.54141,0.66485 c 0.88295,0.23095 2.28297,1.40433 1.96943,2.18267 l -4.77553,11.85505 c -0.31352,0.77834 -1.07539,1.29243 -1.96153,1.07395 l -1.56809,-0.3866 c -0.88613,-0.21848 -1.43475,-1.04841 -1.23752,-1.86266 l 3.01579,-12.45028 c 0.19755,-0.81417 1.13308,-1.30793 2.01603,-1.07696 z"
         sodipodi:nodetypes="ssssssssss" />
      <path
         id="rect1-9-4-41-7-6-1-1-5-8-1"
         style="stroke:#ffffff;stroke-width:0.359059;stroke-linejoin:round;stroke-dasharray:none;stroke-dashoffset:0;stroke-opacity:1"
         d="m 97.915856,638.87461 2.731394,0.3113 c 0.90675,0.10334 1.63432,0.86672 1.55857,1.70109 l -1.1552,12.72605 c -0.0754,0.8344 -0.86256,1.4432 -1.771844,1.3644 l -1.609,-0.13943 c -0.90927,-0.0788 -1.45037,-0.81158 -1.51072,-1.64885 l -0.94249,-13.07583 c -0.0604,-0.83728 1.79253,-1.34203 2.69928,-1.23869 z"
         sodipodi:nodetypes="sssssssss" />
      <path
         id="rect1-0-0-2-5-8-0-4-2"
         style="stroke:none;stroke-width:0.314577;stroke-linejoin:round;stroke-dasharray:none;stroke-dashoffset:0;stroke-opacity:1"
         d="m 93.998166,616.66295 c 3.00028,-1.01083 4.94787,0.4451 6.953994,1.08341 0.62816,0.19987 2.9867,1.35332 2.94241,2.26278 -0.30075,6.17475 -3.45323,11.60662 -2.11401,17.37616 0.37838,1.63011 0.24111,3.07486 0.295,4.56138 0.033,0.91042 -0.64151,2.03832 -1.16213,1.64553 l -4.817784,-3.63493 c -0.52062,-0.3928 -3.29412,2.90014 -3.2643,1.9894 0.0565,-1.72878 -0.0164,-3.32163 0.31164,-5.4099 0.88653,-5.64368 0.2016,-11.62948 -0.31164,-17.5529 -0.0784,-0.90484 0.53621,-2.10847 1.16682,-2.32093 z"
         sodipodi:nodetypes="sssssssssss" />
      <path
         id="rect1-7-8-5-1-5-4-34-31-3-6-5-5-8-2-4"
         style="stroke:#ffffff;stroke-width:0.453133;stroke-linejoin:round;stroke-dasharray:none;stroke-dashoffset:0;stroke-opacity:1"
         d="m 93.153206,667.78865 c -0.62285,-0.69964 -2.00014,-1.04147 -3.08805,-0.76643 l -1.28068,0.32376 c -1.08793,0.27503 -1.46233,1.05971 -0.83947,1.75934 0.62284,0.69964 1.64147,0.71058 2.82652,0.57013 1.80001,-0.21327 3.58653,-0.31588 2.38168,-1.8868 z"
         sodipodi:nodetypes="ssssss" />
      <path
         id="rect1-7-8-5-1-5-4-34-0-1-3-9-6-4-0-6-7"
         style="stroke:#ffffff;stroke-width:0.419911;stroke-linejoin:round;stroke-dasharray:none;stroke-dashoffset:0;stroke-opacity:1"
         d="m 100.29078,669.3175 c -0.729484,-0.58339 -2.137394,-0.82566 -3.156734,-0.54319 l -1.19996,0.33251 c -1.01936,0.28247 -1.2527,0.97955 -0.52323,1.56294 0.72947,0.58341 1.72961,0.55231 2.86704,0.38298 1.727704,-0.25716 3.461014,-0.4176 2.012884,-1.73524 z"
         sodipodi:nodetypes="ssssss" />
      <path
         id="rect1-7-5-6-7-4-6-3-1-3-5"
         style="stroke:#ffffff;stroke-width:0.374331;stroke-linejoin:round;stroke-dasharray:none;stroke-dashoffset:0;stroke-opacity:1"
         d="m 100.22644,617.14139 0.0408,-3.5389 c 0.017,-1.47189 -2.904834,-1.35351 -3.186444,0.37284 l -0.40194,2.46403 c -0.34759,2.13083 3.522864,2.84957 3.547614,0.70203 z"
         sodipodi:nodetypes="sssss" />
      <path
         id="path1-73-1-5-7-3-7-0-4"
         style="stroke:#ffffff;stroke-width:0.287201;stroke-linejoin:round;stroke-dasharray:none;stroke-dashoffset:0;stroke-opacity:1"
         d="m 101.34758,611.08634 c -0.50452,2.1619 -1.20507,4.5893 -3.153844,4.59012 -1.94877,8.2e-4 -3.10388,-2.3675 -3.10388,-4.58749 0,-2.22 1.15656,-3.37657 3.10388,-3.45182 2.250264,-0.087 3.708934,1.07059 3.153844,3.44919 z"
         sodipodi:nodetypes="sssss" />
      <path
         id="rect1-7-8-3-2-6-6-1-0-0-7-4-5"
         style="stroke:#ffffff;stroke-width:0.317429;stroke-linejoin:round;stroke-dasharray:none;stroke-dashoffset:0;stroke-opacity:1"
         d="m 98.708256,625.98816 c -0.24857,-0.88585 -0.98096,-1.55225 -1.56855,-1.28469 l -7.07814,3.22317 c -0.58758,0.26753 -0.82396,0.50482 -0.57534,1.39062 0.24857,0.88585 0.66912,1.10196 1.28357,0.90568 l 7.26745,-2.32153 c 0.61445,-0.19623 0.91963,-1.02742 0.67101,-1.91324 z"
         sodipodi:nodetypes="sssssss"
         inkscape:transform-center-x="3.9264431"
         inkscape:transform-center-y="0.63511165" />
      <g
         id="g6-1-1-4-6-9-1-6-2-7-4-4-7"
         transform="matrix(0.31046595,0,0,0.31046595,59.643531,574.5836)"
         style="stroke-width:0.756927;stroke-dasharray:none">
        <rect
           style="opacity:1;fill:#000000;stroke:#ffffff;stroke-width:0.756927;stroke-linejoin:round;stroke-dasharray:none"
           id="rect5-8-3-8-1-8-2-2-7-3-8-3-7"
           width="10.664055"
           height="10.785408"
           x="81.009392"
           y="159.09109" />
        <path
           id="rect5-9-6-4-2-3-0-7-7-8-0-4-5-9"
           style="fill:#000000;stroke:#ffffff;stroke-width:0.952065;stroke-linejoin:round;stroke-dasharray:none"
           transform="matrix(0.63208417,-0.77489973,0,1,0,0)"
           d="m 145.0336,271.4776 5.6318,-0.31314 1e-5,10.65467 -5.63181,0.44388 z"
           sodipodi:nodetypes="ccccc" />
        <rect
           style="fill:#000000;stroke:#ffffff;stroke-width:0.845887;stroke-linejoin:round;stroke-dasharray:none"
           id="rect5-9-1-3-5-4-3-5-1-4-5-6-2-5-4"
           width="5.8412356"
           height="10.785408"
           x="-198.68402"
           y="-210.75246"
           transform="matrix(0.59903324,-0.80072416,-1,0,0,0)" />
      </g>
      <path
         id="rect1-7-8-5-1-8-7-5-7-9-2-9-8-5-3-1"
         style="stroke:#ffffff;stroke-width:0.374331;stroke-linejoin:round;stroke-dasharray:none;stroke-dashoffset:0;stroke-opacity:1"
         d="m 90.047816,629.90025 c 0.0142,-0.79437 -0.70708,-1.82379 -1.42024,-1.45936 -0.88104,0.45022 -1.85621,0.36154 -1.97042,1.39962 -0.0906,0.82348 0.57175,1.75918 1.28989,1.71776 0.7996,-0.0462 2.08676,-0.86364 2.10077,-1.65802 z"
         sodipodi:nodetypes="sssss"
         inkscape:transform-center-x="8.8090691"
         inkscape:transform-center-y="2.6353789" />
      <path
         id="rect1-7-8-5-5-6-7-7-5-4-9-4-6-1-3-3-2"
         style="stroke:#ffffff;stroke-width:0.374331;stroke-linejoin:round;stroke-dasharray:none;stroke-dashoffset:0;stroke-opacity:1"
         d="m 88.884026,628.7581 c 0.0605,-0.2272 -0.0539,-0.45362 -0.35226,-0.53289 l -1.69742,-0.45202 c -0.30642,-0.0811 -0.60246,0.0354 -0.66295,0.26257 -0.0603,0.22719 0.13825,0.47591 0.44458,0.55748 l 1.69743,0.45202 c 0.23914,0.0638 0.51012,-0.06 0.5706,-0.2872 z"
         sodipodi:nodetypes="sssssss"
         inkscape:transform-center-x="9.5464727"
         inkscape:transform-center-y="1.010782" />
      <path
         id="rect1-7-8-5-1-5-4-364-1-3-9-8-1-8-3-7-2"
         style="stroke:#ffffff;stroke-width:0.374331;stroke-linejoin:round;stroke-dasharray:none;stroke-dashoffset:0;stroke-opacity:1"
         d="m 88.467656,630.30516 c -0.13643,-0.7827 -0.88153,-1.30206 -1.67052,-1.16451 l -0.92885,0.16191 c -0.78903,0.13755 -1.314385,0.87841 -1.177885,1.66114 0.13643,0.78269 0.776465,0.92372 1.577385,0.93382 1.21653,0.0155 2.38385,0.14028 2.19991,-1.59235 z"
         sodipodi:nodetypes="ssssss"
         inkscape:transform-center-x="10.579621"
         inkscape:transform-center-y="3.1848687" />
      <path
         id="rect1-7-8-5-1-8-52-7-5-6-4"
         style="stroke:#ffffff;stroke-width:0.374331;stroke-linejoin:round;stroke-dasharray:none;stroke-dashoffset:0;stroke-opacity:1"
         d="m 80.33958,625.00491 c 0.27331,-0.74601 -0.0709,-1.95478 -0.86414,-1.84392 -0.9799,0.13695 -1.8723,-0.26612 -2.32009,0.67734 -0.35524,0.74842 -0.0357,1.8494 0.6564,2.04539 0.77064,0.2182 2.25452,-0.13279 2.52783,-0.87881 z"
         sodipodi:nodetypes="sssss" />
      <path
         id="rect1-7-8-5-1-5-4-8-8-8-0-9"
         style="stroke:#ffffff;stroke-width:0.374331;stroke-linejoin:round;stroke-dasharray:none;stroke-dashoffset:0;stroke-opacity:1"
         d="m 78.63263,624.11849 c -0.4868,-0.62789 -1.38829,-0.73832 -2.02126,-0.24758 l -0.74513,0.57768 c -0.63299,0.49075 -0.75065,1.39131 -0.26386,2.01922 0.4868,0.62789 1.11844,0.45307 1.83103,0.0873 1.08238,-0.55555 2.17247,-0.99133 1.19922,-2.43659 z"
         sodipodi:nodetypes="ssssss" />
    </g>
  </g>
</svg>
