<?xml version="1.0" encoding="UTF-8" standalone="no"?>
<!-- Created with Inkscape (http://www.inkscape.org/) -->

<svg
   width="38.86623mm"
   height="64.207771mm"
   viewBox="0 0 38.86623 64.207771"
   version="1.1"
   id="svg1"
   xmlns:inkscape="http://www.inkscape.org/namespaces/inkscape"
   xmlns:sodipodi="http://sodipodi.sourceforge.net/DTD/sodipodi-0.dtd"
   xmlns="http://www.w3.org/2000/svg"
   xmlns:svg="http://www.w3.org/2000/svg">
  <sodipodi:namedview
     id="namedview1"
     pagecolor="#ffffff"
     bordercolor="#000000"
     borderopacity="0.25"
     inkscape:showpageshadow="2"
     inkscape:pageopacity="0.0"
     inkscape:pagecheckerboard="0"
     inkscape:deskcolor="#d1d1d1"
     inkscape:document-units="mm" />
  <defs
     id="defs1" />
  <g
     inkscape:label="Layer 1"
     inkscape:groupmode="layer"
     id="layer1"
     transform="translate(1239.98,-209.16123)">
    <g
       id="g101"
       transform="translate(-1868.4198,158.09665)"
       inkscape:export-filename="9.svg"
       inkscape:export-xdpi="96"
       inkscape:export-ydpi="96">
      <g
         id="g6-1-1-4-1"
         transform="matrix(0.27830156,0,0,0.27830156,615.07806,66.905535)"
         style="stroke-width:1.38527;stroke-dasharray:none">
        <rect
           style="opacity:1;fill:#000000;stroke:#ffffff;stroke-width:1.38527;stroke-linejoin:round;stroke-dasharray:none"
           id="rect5-8-3-8-4"
           width="10.664055"
           height="10.785408"
           x="81.009392"
           y="159.09109" />
        <path
           id="rect5-9-6-4-2-06"
           style="fill:#000000;stroke:#ffffff;stroke-width:1.7424;stroke-linejoin:round;stroke-dasharray:none"
           transform="matrix(0.63208417,-0.77489973,0,1,0,0)"
           d="m 145.0336,271.4776 5.6318,-0.31314 1e-5,10.65467 -5.63181,0.44388 z"
           sodipodi:nodetypes="ccccc" />
        <rect
           style="fill:#000000;stroke:#ffffff;stroke-width:1.54808;stroke-linejoin:round;stroke-dasharray:none"
           id="rect5-9-1-3-5-4-8"
           width="5.8412356"
           height="10.785408"
           x="-198.68402"
           y="-210.75246"
           transform="matrix(0.59903324,-0.80072416,-1,0,0,0)" />
      </g>
      <g
         id="g6-1-1-4-7-0"
         transform="matrix(0.27830156,0,0,0.27830156,619.53571,66.905535)"
         style="stroke-width:1.38527;stroke-dasharray:none">
        <rect
           style="opacity:1;fill:#000000;stroke:#ffffff;stroke-width:1.38527;stroke-linejoin:round;stroke-dasharray:none"
           id="rect5-8-3-8-7-1"
           width="10.664055"
           height="10.785408"
           x="81.009392"
           y="159.09109" />
        <path
           id="rect5-9-6-4-2-4-1"
           style="fill:#000000;stroke:#ffffff;stroke-width:1.7424;stroke-linejoin:round;stroke-dasharray:none"
           transform="matrix(0.63208417,-0.77489973,0,1,0,0)"
           d="m 145.0336,271.4776 5.6318,-0.31314 1e-5,10.65467 -5.63181,0.44388 z"
           sodipodi:nodetypes="ccccc" />
        <rect
           style="fill:#000000;stroke:#ffffff;stroke-width:1.54808;stroke-linejoin:round;stroke-dasharray:none"
           id="rect5-9-1-3-5-4-6-8"
           width="5.8412356"
           height="10.785408"
           x="-198.68402"
           y="-210.75246"
           transform="matrix(0.59903324,-0.80072416,-1,0,0,0)" />
      </g>
      <g
         id="g6-1-1-4-6-19"
         transform="matrix(0.27830156,0,0,0.27830156,606.16275,66.905535)"
         style="stroke-width:1.38527;stroke-dasharray:none">
        <rect
           style="opacity:1;fill:#000000;stroke:#ffffff;stroke-width:1.38527;stroke-linejoin:round;stroke-dasharray:none"
           id="rect5-8-3-8-1-4"
           width="10.664055"
           height="10.785408"
           x="81.009392"
           y="159.09109" />
        <path
           id="rect5-9-6-4-2-3-0"
           style="fill:#000000;stroke:#ffffff;stroke-width:1.7424;stroke-linejoin:round;stroke-dasharray:none"
           transform="matrix(0.63208417,-0.77489973,0,1,0,0)"
           d="m 145.0336,271.4776 5.6318,-0.31314 1e-5,10.65467 -5.63181,0.44388 z"
           sodipodi:nodetypes="ccccc" />
        <rect
           style="fill:#000000;stroke:#ffffff;stroke-width:1.54808;stroke-linejoin:round;stroke-dasharray:none"
           id="rect5-9-1-3-5-4-3-23"
           width="5.8412356"
           height="10.785408"
           x="-198.68402"
           y="-210.75246"
           transform="matrix(0.59903324,-0.80072416,-1,0,0,0)" />
      </g>
      <g
         id="g6-1-1-4-7-3-3"
         transform="matrix(0.27830156,0,0,0.27830156,610.6204,66.905535)"
         style="stroke-width:1.38527;stroke-dasharray:none">
        <rect
           style="opacity:1;fill:#000000;stroke:#ffffff;stroke-width:1.38527;stroke-linejoin:round;stroke-dasharray:none"
           id="rect5-8-3-8-7-4-4"
           width="10.664055"
           height="10.785408"
           x="81.009392"
           y="159.09109" />
        <path
           id="rect5-9-6-4-2-4-5-9"
           style="fill:#000000;stroke:#ffffff;stroke-width:1.7424;stroke-linejoin:round;stroke-dasharray:none"
           transform="matrix(0.63208417,-0.77489973,0,1,0,0)"
           d="m 145.0336,271.4776 5.6318,-0.31314 1e-5,10.65467 -5.63181,0.44388 z"
           sodipodi:nodetypes="ccccc" />
        <rect
           style="fill:#000000;stroke:#ffffff;stroke-width:1.54808;stroke-linejoin:round;stroke-dasharray:none"
           id="rect5-9-1-3-5-4-6-0-4"
           width="5.8412356"
           height="10.785408"
           x="-198.68402"
           y="-210.75246"
           transform="matrix(0.59903324,-0.80072416,-1,0,0,0)" />
      </g>
      <g
         id="g6-1-1-4-5-5"
         transform="matrix(0.27830156,0,0,0.27830156,618.14067,61.632425)"
         style="stroke-width:1.38527;stroke-dasharray:none">
        <rect
           style="opacity:1;fill:#000000;stroke:#ffffff;stroke-width:1.38527;stroke-linejoin:round;stroke-dasharray:none"
           id="rect5-8-3-8-72-8"
           width="10.664055"
           height="10.785408"
           x="81.009392"
           y="159.09109" />
        <path
           id="rect5-9-6-4-2-0-4"
           style="fill:#000000;stroke:#ffffff;stroke-width:1.7424;stroke-linejoin:round;stroke-dasharray:none"
           transform="matrix(0.63208417,-0.77489973,0,1,0,0)"
           d="m 145.0336,271.4776 5.6318,-0.31314 1e-5,10.65467 -5.63181,0.44388 z"
           sodipodi:nodetypes="ccccc" />
        <rect
           style="fill:#000000;stroke:#ffffff;stroke-width:1.54808;stroke-linejoin:round;stroke-dasharray:none"
           id="rect5-9-1-3-5-4-65-0"
           width="5.8412356"
           height="10.785408"
           x="-198.68402"
           y="-210.75246"
           transform="matrix(0.59903324,-0.80072416,-1,0,0,0)" />
      </g>
      <g
         id="g6-1-1-4-6-1-5"
         transform="matrix(0.27830156,0,0,0.27830156,609.22536,61.632425)"
         style="stroke-width:1.38527;stroke-dasharray:none">
        <rect
           style="opacity:1;fill:#000000;stroke:#ffffff;stroke-width:1.38527;stroke-linejoin:round;stroke-dasharray:none"
           id="rect5-8-3-8-1-3-71"
           width="10.664055"
           height="10.785408"
           x="81.009392"
           y="159.09109" />
        <path
           id="rect5-9-6-4-2-3-8-9"
           style="fill:#000000;stroke:#ffffff;stroke-width:1.7424;stroke-linejoin:round;stroke-dasharray:none"
           transform="matrix(0.63208417,-0.77489973,0,1,0,0)"
           d="m 145.0336,271.4776 5.6318,-0.31314 1e-5,10.65467 -5.63181,0.44388 z"
           sodipodi:nodetypes="ccccc" />
        <rect
           style="fill:#000000;stroke:#ffffff;stroke-width:1.54808;stroke-linejoin:round;stroke-dasharray:none"
           id="rect5-9-1-3-5-4-3-2-0"
           width="5.8412356"
           height="10.785408"
           x="-198.68402"
           y="-210.75246"
           transform="matrix(0.59903324,-0.80072416,-1,0,0,0)" />
      </g>
      <g
         id="g6-1-1-4-7-3-2-5"
         transform="matrix(0.27830156,0,0,0.27830156,613.68301,61.632425)"
         style="stroke-width:1.38527;stroke-dasharray:none">
        <rect
           style="opacity:1;fill:#000000;stroke:#ffffff;stroke-width:1.38527;stroke-linejoin:round;stroke-dasharray:none"
           id="rect5-8-3-8-7-4-6-1"
           width="10.664055"
           height="10.785408"
           x="81.009392"
           y="159.09109" />
        <path
           id="rect5-9-6-4-2-4-5-2-67"
           style="fill:#000000;stroke:#ffffff;stroke-width:1.7424;stroke-linejoin:round;stroke-dasharray:none"
           transform="matrix(0.63208417,-0.77489973,0,1,0,0)"
           d="m 145.0336,271.4776 5.6318,-0.31314 1e-5,10.65467 -5.63181,0.44388 z"
           sodipodi:nodetypes="ccccc" />
        <rect
           style="fill:#000000;stroke:#ffffff;stroke-width:1.54808;stroke-linejoin:round;stroke-dasharray:none"
           id="rect5-9-1-3-5-4-6-0-8-8"
           width="5.8412356"
           height="10.785408"
           x="-198.68402"
           y="-210.75246"
           transform="matrix(0.59903324,-0.80072416,-1,0,0,0)" />
      </g>
      <g
         id="g6-1-1-4-6-1-1-7"
         transform="matrix(0.27830156,0,0,0.27830156,611.81018,56.225085)"
         style="stroke-width:1.38527;stroke-dasharray:none">
        <rect
           style="opacity:1;fill:#000000;stroke:#ffffff;stroke-width:1.38527;stroke-linejoin:round;stroke-dasharray:none"
           id="rect5-8-3-8-1-3-7-4"
           width="10.664055"
           height="10.785408"
           x="81.009392"
           y="159.09109" />
        <path
           id="rect5-9-6-4-2-3-8-5-5"
           style="fill:#000000;stroke:#ffffff;stroke-width:1.7424;stroke-linejoin:round;stroke-dasharray:none"
           transform="matrix(0.63208417,-0.77489973,0,1,0,0)"
           d="m 145.0336,271.4776 5.6318,-0.31314 1e-5,10.65467 -5.63181,0.44388 z"
           sodipodi:nodetypes="ccccc" />
        <rect
           style="fill:#000000;stroke:#ffffff;stroke-width:1.54808;stroke-linejoin:round;stroke-dasharray:none"
           id="rect5-9-1-3-5-4-3-2-3-4"
           width="5.8412356"
           height="10.785408"
           x="-198.68402"
           y="-210.75246"
           transform="matrix(0.59903324,-0.80072416,-1,0,0,0)" />
      </g>
      <g
         id="g6-1-1-4-7-3-2-4-4"
         transform="matrix(0.27830156,0,0,0.27830156,616.26783,56.225085)"
         style="stroke-width:1.38527;stroke-dasharray:none">
        <rect
           style="opacity:1;fill:#000000;stroke:#ffffff;stroke-width:1.38527;stroke-linejoin:round;stroke-dasharray:none"
           id="rect5-8-3-8-7-4-6-0-2"
           width="10.664055"
           height="10.785408"
           x="81.009392"
           y="159.09109" />
        <path
           id="rect5-9-6-4-2-4-5-2-3-4"
           style="fill:#000000;stroke:#ffffff;stroke-width:1.7424;stroke-linejoin:round;stroke-dasharray:none"
           transform="matrix(0.63208417,-0.77489973,0,1,0,0)"
           d="m 145.0336,271.4776 5.6318,-0.31314 1e-5,10.65467 -5.63181,0.44388 z"
           sodipodi:nodetypes="ccccc" />
        <rect
           style="fill:#000000;stroke:#ffffff;stroke-width:1.54808;stroke-linejoin:round;stroke-dasharray:none"
           id="rect5-9-1-3-5-4-6-0-8-7-9"
           width="5.8412356"
           height="10.785408"
           x="-198.68402"
           y="-210.75246"
           transform="matrix(0.59903324,-0.80072416,-1,0,0,0)" />
      </g>
      <path
         id="rect1-7-2-76-1-7-2-6-2"
         style="stroke:#ffffff;stroke-width:0.374331;stroke-linejoin:round;stroke-dasharray:none;stroke-dashoffset:0;stroke-opacity:1"
         d="m 666.56795,62.06916 c -0.65596,-0.62249 -2.6535,-0.82272 -2.83512,0.0706 l -1.83721,9.03618 c -0.18163,0.89334 -0.43907,1.82387 0.2169,2.44635 0.65597,0.6225 2.02347,0.79581 2.28298,-0.0781 l 2.55761,-8.61304 c 0.25951,-0.87392 0.27081,-2.23951 -0.38516,-2.86201 z"
         sodipodi:nodetypes="ssssssss"
         inkscape:transform-center-x="1.1050706"
         inkscape:transform-center-y="4.2815945" />
      <path
         id="rect1-7-3-7-0-3-9-1"
         style="stroke:#ffffff;stroke-width:0.374331;stroke-linejoin:round;stroke-dasharray:none;stroke-dashoffset:0;stroke-opacity:1"
         d="m 657.31085,60.71557 c 0.8248,0.37078 1.57978,1.93826 1.01015,2.65 l -7.24775,9.05606 c -0.56962,0.71175 -1.52097,1.09813 -2.34577,0.72733 -0.8248,-0.37079 -1.31073,-1.39107 -0.79378,-2.14196 l 6.58297,-9.5621 c 0.51694,-0.75089 1.96939,-1.10012 2.79418,-0.72933 z"
         sodipodi:nodetypes="sssssss"
         inkscape:transform-center-x="2.840698"
         inkscape:transform-center-y="4.6739625" />
      <path
         id="rect1-9-4-4-31-7-1-4-8"
         style="stroke:#ffffff;stroke-width:0.387927;stroke-linejoin:round;stroke-dasharray:none;stroke-dashoffset:0;stroke-opacity:1"
         d="m 661.88136,97.40127 1.60066,-0.18679 c 0.90456,-0.10555 1.83601,0.58757 1.83781,1.56661 l 0.0257,13.99861 c 0.002,0.97906 0.1686,1.62841 -0.73595,1.73396 l -0.72155,0.0842 c -0.90455,0.10555 -1.7242,-0.59316 -1.8378,-1.56662 l -1.5966,-13.6823 c -0.1136,-0.97345 0.52316,-1.84212 1.42771,-1.94767 z"
         sodipodi:nodetypes="sssssssss" />
      <path
         id="rect1-9-1-95-4-0-1-2"
         style="stroke:#ffffff;stroke-width:0.387927;stroke-linejoin:round;stroke-dasharray:none;stroke-dashoffset:0;stroke-opacity:1"
         d="m 652.9264,95.68418 h 1.61153 c 0.91068,0 1.68037,0.78979 1.64383,1.76907 l -0.51391,13.77514 c -0.0365,0.97927 -0.73315,1.76907 -1.64384,1.76907 h -0.61225 c -0.91069,0 -0.87342,-0.7931 -0.95651,-1.76907 l -1.1727,-13.77514 c -0.0831,-0.97598 0.73316,-1.76907 1.64385,-1.76907 z"
         sodipodi:nodetypes="sssssssss" />
      <path
         id="rect1-9-69-4-8-4-4"
         style="stroke:#ffffff;stroke-width:0.359059;stroke-linejoin:round;stroke-dasharray:none;stroke-dashoffset:0;stroke-opacity:1"
         d="m 656.41496,82.25566 2.54141,0.66485 c 0.88295,0.23095 2.28297,1.40433 1.96943,2.18267 l -4.77553,11.85505 c -0.31352,0.77834 -1.07539,1.29243 -1.96153,1.07395 l -1.56809,-0.3866 c -0.88613,-0.21848 -1.43475,-1.04841 -1.23752,-1.86266 l 3.01579,-12.45028 c 0.19755,-0.81417 1.13308,-1.30793 2.01603,-1.07696 z"
         sodipodi:nodetypes="ssssssssss" />
      <path
         id="rect1-9-4-41-7-6-1-6"
         style="stroke:#ffffff;stroke-width:0.359059;stroke-linejoin:round;stroke-dasharray:none;stroke-dashoffset:0;stroke-opacity:1"
         d="m 662.02967,82.77638 2.73139,0.3113 c 0.90675,0.10334 1.63432,0.86672 1.55857,1.70109 l -1.1552,12.72605 c -0.0754,0.8344 -0.86256,1.4432 -1.77184,1.3644 l -1.609,-0.13943 c -0.90927,-0.0788 -1.45037,-0.81158 -1.51072,-1.64885 l -0.94249,-13.07583 c -0.0604,-0.83728 1.79253,-1.34203 2.69928,-1.23869 z"
         sodipodi:nodetypes="sssssssss" />
      <path
         id="rect1-0-0-2-5-6"
         style="stroke:none;stroke-width:0.351231;stroke-linejoin:round;stroke-dasharray:none;stroke-dashoffset:0;stroke-opacity:1"
         d="m 656.05557,60.23399 c 3.74019,-1.01083 6.16808,0.4451 8.66893,1.08341 0.78307,0.19987 1.45566,0.32806 1.40044,1.23752 -0.37491,6.17475 -2.03724,12.63188 -0.36775,18.40142 0.47169,1.63011 0.30057,3.07486 0.36775,4.56138 0.0411,0.91042 -0.64613,1.64553 -1.44872,1.64553 h -8.62651 c -0.80259,0 -1.48588,-0.73479 -1.44871,-1.64553 0.0705,-1.72878 -0.0204,-3.32163 0.38849,-5.4099 1.10517,-5.64368 0.25132,-11.62948 -0.38849,-17.5529 -0.0977,-0.90484 0.66845,-2.10847 1.45457,-2.32093 z"
         sodipodi:nodetypes="sssssssssss" />
      <path
         id="rect1-7-8-5-1-5-4-34-31-3-6-5-7"
         style="stroke:#ffffff;stroke-width:0.453133;stroke-linejoin:round;stroke-dasharray:none;stroke-dashoffset:0;stroke-opacity:1"
         d="m 654.92119,111.35969 c -0.62285,-0.69964 -2.00014,-1.04147 -3.08805,-0.76643 l -1.28068,0.32376 c -1.08793,0.27503 -1.46233,1.05971 -0.83947,1.75934 0.62284,0.69964 1.64147,0.71058 2.82652,0.57013 1.80001,-0.21327 3.58653,-0.31588 2.38168,-1.8868 z"
         sodipodi:nodetypes="ssssss" />
      <path
         id="rect1-7-8-5-1-5-4-34-0-1-3-9-6-2"
         style="stroke:#ffffff;stroke-width:0.419911;stroke-linejoin:round;stroke-dasharray:none;stroke-dashoffset:0;stroke-opacity:1"
         d="m 664.5723,113.21927 c -0.72948,-0.58339 -2.13739,-0.82566 -3.15673,-0.54319 l -1.19996,0.33251 c -1.01936,0.28247 -1.2527,0.97955 -0.52323,1.56294 0.72947,0.58341 1.72961,0.55231 2.86704,0.38298 1.7277,-0.25716 3.46101,-0.4176 2.01288,-1.73524 z"
         sodipodi:nodetypes="ssssss" />
      <path
         id="rect1-7-5-6-7-4-6-88"
         style="stroke:#ffffff;stroke-width:0.374331;stroke-linejoin:round;stroke-dasharray:none;stroke-dashoffset:0;stroke-opacity:1"
         d="m 662.49051,59.85254 -0.45532,-2.67901 c -0.24664,-1.45117 -2.90483,-1.35351 -3.18644,0.37284 l -0.40194,2.46403 c -0.34759,2.13083 4.40356,1.95946 4.0437,-0.15786 z"
         sodipodi:nodetypes="sssss" />
      <path
         id="path1-73-1-5-7-30"
         style="stroke:#ffffff;stroke-width:0.287201;stroke-linejoin:round;stroke-dasharray:none;stroke-dashoffset:0;stroke-opacity:1"
         d="m 663.11556,54.6587 c 0,2.21999 -1.20507,4.58879 -3.15384,4.58879 -1.94877,0 -3.10388,-2.3688 -3.10388,-4.58879 0,-2.22 1.15511,-3.45052 3.10388,-3.45052 1.94877,0 3.15384,1.23052 3.15384,3.45052 z"
         sodipodi:nodetypes="sssss" />
      <path
         id="rect1-7-8-30-8-6-6-5-7"
         style="stroke:#ffffff;stroke-width:0.313714;stroke-linejoin:round;stroke-dasharray:none;stroke-dashoffset:0;stroke-opacity:1"
         d="m 650.18244,71.31708 c 0.36592,0.84528 0.24792,2.016844 -0.38081,1.97656 -2.03856,-0.130614 -7.00592,-3.572455 -7.39383,-4.342466 -0.36592,-0.84529 -0.17899,-1.744436 0.40264,-1.5039 l 5.67016,2.344942 c 0.58162,0.240533 1.33591,0.679584 1.70184,1.524864 z"
         sodipodi:nodetypes="ssssss"
         inkscape:transform-center-x="0.6365368"
         inkscape:transform-center-y="2.8354277" />
      <path
         id="rect1-7-8-5-1-8-52-7-5-7-4-7"
         style="stroke:#ffffff;stroke-width:0.374331;stroke-linejoin:round;stroke-dasharray:none;stroke-dashoffset:0;stroke-opacity:1"
         d="m 639.75505,66.05632 c 0.0605,-0.792198 0.87481,-1.749552 1.55068,-1.319916 0.835,0.530784 1.8142,0.533837 1.8307,1.578016 0.0131,0.828351 -0.73406,1.697867 -1.44515,1.589377 -0.79175,-0.120841 -1.99669,-1.055298 -1.93622,-1.847495 z"
         sodipodi:nodetypes="sssss" />
      <path
         id="rect1-7-8-5-1-5-4-8-8-8-1-8-7"
         style="stroke:#ffffff;stroke-width:0.288532;stroke-linejoin:round;stroke-dasharray:none;stroke-dashoffset:0;stroke-opacity:1"
         d="m 640.52694,66.450387 c 0.3045,-0.497456 1.00046,-0.63482 1.56037,-0.308006 l 0.65911,0.384698 c 0.55995,0.326768 0.76551,0.990424 0.46098,1.487881 -0.30451,0.497473 -0.82375,0.405869 -1.43068,0.176986 -0.92189,-0.347583 -1.83478,-0.605551 -1.24977,-1.741587 z"
         sodipodi:nodetypes="ssssss" />
      <g
         id="g6-1-1-4-6-1-1-3-9"
         transform="matrix(0.27830156,0,0,0.27830156,617.98651,20.159405)"
         style="stroke-width:1.38527;stroke-dasharray:none">
        <rect
           style="opacity:1;fill:#000000;stroke:#ffffff;stroke-width:1.38527;stroke-linejoin:round;stroke-dasharray:none"
           id="rect5-8-3-8-1-3-7-6-3"
           width="10.664055"
           height="10.785408"
           x="81.009392"
           y="159.09109" />
        <path
           id="rect5-9-6-4-2-3-8-5-9-0"
           style="fill:#000000;stroke:#ffffff;stroke-width:1.7424;stroke-linejoin:round;stroke-dasharray:none"
           transform="matrix(0.63208417,-0.77489973,0,1,0,0)"
           d="m 145.0336,271.4776 5.6318,-0.31314 1e-5,10.65467 -5.63181,0.44388 z"
           sodipodi:nodetypes="ccccc" />
        <rect
           style="fill:#000000;stroke:#ffffff;stroke-width:1.54808;stroke-linejoin:round;stroke-dasharray:none"
           id="rect5-9-1-3-5-4-3-2-3-6-2"
           width="5.8412356"
           height="10.785408"
           x="-198.68402"
           y="-210.75246"
           transform="matrix(0.59903324,-0.80072416,-1,0,0,0)" />
      </g>
      <path
         id="rect1-7-8-5-5-6-7-3-8-5-2-7-7"
         style="stroke:#ffffff;stroke-width:0.374331;stroke-linejoin:round;stroke-dasharray:none;stroke-dashoffset:0;stroke-opacity:1"
         d="m 640.09822,65.579217 c -0.20936,-0.106846 -0.30099,-0.34362 -0.16097,-0.618178 l 0.7983,-1.564702 c 0.144,-0.282385 0.429,-0.424474 0.63839,-0.317653 0.20936,0.106846 0.26158,0.420936 0.11757,0.703292 l -0.79821,1.564736 c -0.11249,0.220438 -0.38604,0.338814 -0.59498,0.232529 z"
         sodipodi:nodetypes="sssssss" />
      <path
         id="rect1-7-8-3-2-6-6-1-0-08"
         style="stroke:#ffffff;stroke-width:0.317429;stroke-linejoin:round;stroke-dasharray:none;stroke-dashoffset:0;stroke-opacity:1"
         d="m 662.30102,73.368744 c 0.77273,-0.499399 1.19283,-1.396032 0.76351,-1.878233 l -5.17179,-5.808757 c -0.42932,-0.482201 -0.72585,-0.637879 -1.49857,-0.138473 -0.77273,0.49941 -0.85484,0.965018 -0.48567,1.493964 l 4.36641,6.256162 c 0.36917,0.528936 1.25339,0.574744 2.02611,0.07534 z"
         sodipodi:nodetypes="sssssss"
         inkscape:transform-center-x="2.6634074"
         inkscape:transform-center-y="-3.1694589" />
      <path
         id="rect1-7-8-5-1-8-7-5-7-9-2-9-6"
         style="stroke:#ffffff;stroke-width:0.374331;stroke-linejoin:round;stroke-dasharray:none;stroke-dashoffset:0;stroke-opacity:1"
         d="m 656.92376,66.786711 c 0.76967,-0.197077 1.57085,-1.165614 1.03021,-1.756537 -0.66786,-0.730011 -0.84111,-1.693767 -1.87227,-1.528444 -0.81801,0.131136 -1.54441,1.018025 -1.31394,1.699449 0.25669,0.758685 1.38638,1.782813 2.156,1.585532 z"
         sodipodi:nodetypes="sssss"
         inkscape:transform-center-x="5.702034"
         inkscape:transform-center-y="-7.4993926" />
      <path
         id="rect1-7-8-5-5-6-7-7-5-4-9-4-6-58"
         style="stroke:#ffffff;stroke-width:0.374331;stroke-linejoin:round;stroke-dasharray:none;stroke-dashoffset:0;stroke-opacity:1"
         d="m 657.8021,65.421848 c 0.23507,-0.002 0.42289,-0.172713 0.42033,-0.481012 l -0.0146,-1.756519 c -0.003,-0.31696 -0.19402,-0.571464 -0.42906,-0.569522 -0.23503,0.002 -0.42216,0.259605 -0.41954,0.576561 l 0.0146,1.756528 c 0.002,0.247486 0.19321,0.475917 0.42826,0.473973 z"
         sodipodi:nodetypes="sssssss"
         inkscape:transform-center-x="4.3388359"
         inkscape:transform-center-y="-8.628295" />
      <path
         id="rect1-7-8-5-1-5-4-364-1-3-9-8-1-1"
         style="stroke:#ffffff;stroke-width:0.374331;stroke-linejoin:round;stroke-dasharray:none;stroke-dashoffset:0;stroke-opacity:1"
         d="m 656.11408,65.370628 c 0.71845,-0.339235 1.02151,-1.195399 0.67953,-1.919641 l -0.40257,-0.852578 c -0.34198,-0.724242 -1.19568,-1.034198 -1.91413,-0.69496 -0.71843,0.339252 -0.68458,0.993743 -0.48181,1.768653 0.30787,1.177022 0.49727,2.33561 2.11898,1.698526 z"
         sodipodi:nodetypes="ssssss"
         inkscape:transform-center-x="6.7280933"
         inkscape:transform-center-y="-8.9877986" />
      <path
         id="path11-4-78-0"
         style="fill:#808080;stroke:none;stroke-width:0.0886796;stroke-linejoin:round;stroke-dasharray:none"
         d="m 638.30977,96.613056 v -1.89127 l -1.12986,-0.0122 1.75551,-2.23628 c 0.0427,0 1.61833,2.27302 1.61833,2.27302 l -1.11971,-0.0122 v 1.87902 z" />
    </g>
  </g>
</svg>
