<?xml version="1.0" encoding="UTF-8" standalone="no"?>
<!-- Created with Inkscape (http://www.inkscape.org/) -->

<svg
   width="33.607895mm"
   height="64.207771mm"
   viewBox="0 0 33.607895 64.207771"
   version="1.1"
   id="svg1"
   xmlns:inkscape="http://www.inkscape.org/namespaces/inkscape"
   xmlns:sodipodi="http://sodipodi.sourceforge.net/DTD/sodipodi-0.dtd"
   xmlns="http://www.w3.org/2000/svg"
   xmlns:svg="http://www.w3.org/2000/svg">
  <sodipodi:namedview
     id="namedview1"
     pagecolor="#ffffff"
     bordercolor="#000000"
     borderopacity="0.25"
     inkscape:showpageshadow="2"
     inkscape:pageopacity="0.0"
     inkscape:pagecheckerboard="0"
     inkscape:deskcolor="#d1d1d1"
     inkscape:document-units="mm" />
  <defs
     id="defs1" />
  <g
     inkscape:label="Layer 1"
     inkscape:groupmode="layer"
     id="layer1"
     transform="translate(1237.3509,533.85777)">
    <g
       id="g18"
       transform="translate(-1332.9985,-653.23193)"
       inkscape:export-filename="2.svg"
       inkscape:export-xdpi="96"
       inkscape:export-ydpi="96">
      <path
         id="rect1-7-2-76-1-7-2"
         style="stroke:#ffffff;stroke-width:0.374331;stroke-linejoin:round;stroke-dasharray:none;stroke-dashoffset:0;stroke-opacity:1"
         d="m 128.5175,130.37871 c -0.65596,-0.62249 -2.6535,-0.82272 -2.83513,0.0706 l -1.8372,9.03618 c -0.18164,0.89334 -0.43907,1.82387 0.21689,2.44635 0.65597,0.6225 2.02348,0.79581 2.28298,-0.0781 l 2.55761,-8.61304 c 0.25951,-0.87392 0.27082,-2.23951 -0.38515,-2.86201 z"
         sodipodi:nodetypes="ssssssss"
         inkscape:transform-center-x="1.1050691"
         inkscape:transform-center-y="4.2815941" />
      <path
         id="rect1-7-3-7-0-3"
         style="stroke:#ffffff;stroke-width:0.374331;stroke-linejoin:round;stroke-dasharray:none;stroke-dashoffset:0;stroke-opacity:1"
         d="m 119.2604,129.02512 c 0.8248,0.37078 1.57978,1.93826 1.01015,2.65 l -7.24775,9.05606 c -0.56963,0.71175 -1.52097,1.09813 -2.34578,0.72733 -0.8248,-0.37079 -1.31072,-1.39107 -0.79378,-2.14196 l 6.58297,-9.5621 c 0.51694,-0.75089 1.96939,-1.10012 2.79419,-0.72933 z"
         sodipodi:nodetypes="sssssss"
         inkscape:transform-center-x="2.8406965"
         inkscape:transform-center-y="4.6739621" />
      <path
         id="rect1-9-4-4-31-7-1"
         style="stroke:#ffffff;stroke-width:0.387927;stroke-linejoin:round;stroke-dasharray:none;stroke-dashoffset:0;stroke-opacity:1"
         d="m 123.8309,165.71082 1.60067,-0.18679 c 0.90455,-0.10555 1.836,0.58757 1.83781,1.56661 l 0.0257,13.99861 c 0.002,0.97906 0.16859,1.62841 -0.73595,1.73396 l -0.72156,0.0842 c -0.90455,0.10556 -1.7242,-0.59316 -1.8378,-1.56662 l -1.5966,-13.6823 c -0.1136,-0.97345 0.52316,-1.84212 1.42771,-1.94767 z"
         sodipodi:nodetypes="sssssssss" />
      <path
         id="rect1-9-1-95-4-0"
         style="stroke:#ffffff;stroke-width:0.387927;stroke-linejoin:round;stroke-dasharray:none;stroke-dashoffset:0;stroke-opacity:1"
         d="m 114.87595,163.99373 h 1.61153 c 0.91068,0 1.68037,0.78979 1.64383,1.76907 l -0.51391,13.77514 c -0.0365,0.97927 -0.73315,1.76907 -1.64384,1.76907 h -0.61225 c -0.91069,0 -0.87342,-0.7931 -0.95651,-1.76907 l -1.1727,-13.77514 c -0.0831,-0.97598 0.73315,-1.76907 1.64385,-1.76907 z"
         sodipodi:nodetypes="sssssssss" />
      <path
         id="rect1-9-69-4-8"
         style="stroke:#ffffff;stroke-width:0.359059;stroke-linejoin:round;stroke-dasharray:none;stroke-dashoffset:0;stroke-opacity:1"
         d="m 118.3645,150.56521 2.54142,0.66485 c 0.88294,0.23095 2.28297,1.40433 1.96943,2.18267 l -4.77553,11.85505 c -0.31353,0.77834 -1.07539,1.29243 -1.96153,1.07395 l -1.56809,-0.3866 c -0.88614,-0.21848 -1.43476,-1.04841 -1.23752,-1.86266 l 3.01579,-12.45028 c 0.19755,-0.81417 1.13307,-1.30793 2.01602,-1.07696 z"
         sodipodi:nodetypes="ssssssssss" />
      <path
         id="rect1-9-4-41-7-6"
         style="stroke:#ffffff;stroke-width:0.359059;stroke-linejoin:round;stroke-dasharray:none;stroke-dashoffset:0;stroke-opacity:1"
         d="m 123.97922,151.08593 2.73138,0.3113 c 0.90675,0.10334 1.63432,0.86672 1.55858,1.70109 l -1.1552,12.72605 c -0.0754,0.8344 -0.86257,1.4432 -1.77184,1.3644 l -1.60901,-0.13943 c -0.90926,-0.0788 -1.45037,-0.81158 -1.51071,-1.64885 l -0.9425,-13.07583 c -0.0603,-0.83728 1.79253,-1.34203 2.69929,-1.23869 z"
         sodipodi:nodetypes="sssssssss" />
      <path
         id="rect1-0-0-2"
         style="stroke:none;stroke-width:0.351231;stroke-linejoin:round;stroke-dasharray:none;stroke-dashoffset:0;stroke-opacity:1"
         d="m 118.00512,128.54354 c 3.74019,-1.01083 6.16807,0.4451 8.66893,1.08341 0.78307,0.19987 1.45565,0.32806 1.40044,1.23752 -0.37491,6.17475 -2.03724,12.63188 -0.36776,18.40142 0.4717,1.63011 0.30058,3.07486 0.36776,4.56138 0.0411,0.91042 -0.64614,1.64553 -1.44872,1.64553 h -8.62651 c -0.80259,0 -1.48588,-0.73479 -1.44872,-1.64553 0.0705,-1.72878 -0.0204,-3.32163 0.38849,-5.4099 1.10518,-5.64368 0.25132,-11.62947 -0.38849,-17.5529 -0.0977,-0.90484 0.66845,-2.10847 1.45458,-2.32093 z"
         sodipodi:nodetypes="sssssssssss" />
      <path
         id="rect1-7-8-5-1-5-4-34-31-3-6"
         style="stroke:#ffffff;stroke-width:0.453133;stroke-linejoin:round;stroke-dasharray:none;stroke-dashoffset:0;stroke-opacity:1"
         d="m 116.87073,179.66924 c -0.62285,-0.69963 -2.00013,-1.04147 -3.08804,-0.76643 l -1.28068,0.32376 c -1.08794,0.27504 -1.46233,1.05971 -0.83948,1.75934 0.62284,0.69964 1.64148,0.71058 2.82653,0.57013 1.80001,-0.21326 3.58652,-0.31588 2.38167,-1.8868 z"
         sodipodi:nodetypes="ssssss" />
      <path
         id="rect1-7-8-5-1-5-4-34-0-1-3-9"
         style="stroke:#ffffff;stroke-width:0.419911;stroke-linejoin:round;stroke-dasharray:none;stroke-dashoffset:0;stroke-opacity:1"
         d="m 126.52184,181.52882 c -0.72948,-0.58339 -2.13738,-0.82566 -3.15673,-0.54319 l -1.19996,0.33251 c -1.01935,0.28247 -1.2527,0.97955 -0.52323,1.56295 0.72948,0.5834 1.72961,0.5523 2.86704,0.38297 1.72771,-0.25716 3.46102,-0.41759 2.01288,-1.73524 z"
         sodipodi:nodetypes="ssssss" />
      <path
         id="rect1-7-5-6-7-4"
         style="stroke:#ffffff;stroke-width:0.374331;stroke-linejoin:round;stroke-dasharray:none;stroke-dashoffset:0;stroke-opacity:1"
         d="m 124.44006,128.16209 -0.45532,-2.67901 c -0.24664,-1.45117 -2.90483,-1.35351 -3.18644,0.37284 l -0.40194,2.46403 c -0.34759,2.13083 4.40356,1.95946 4.0437,-0.15786 z"
         sodipodi:nodetypes="sssss" />
      <path
         id="path1-73-1-5"
         style="stroke:#ffffff;stroke-width:0.287201;stroke-linejoin:round;stroke-dasharray:none;stroke-dashoffset:0;stroke-opacity:1"
         d="m 125.0651,122.96825 c 0,2.21999 -1.20507,4.58879 -3.15384,4.58879 -1.94876,0 -3.10387,-2.3688 -3.10387,-4.58879 0,-2.22 1.15511,-3.45052 3.10387,-3.45052 1.94877,0 3.15384,1.23052 3.15384,3.45052 z"
         sodipodi:nodetypes="sssss" />
      <path
         id="rect1-7-8-30-8-6-6"
         style="stroke:#ffffff;stroke-width:0.313714;stroke-linejoin:round;stroke-dasharray:none;stroke-dashoffset:0;stroke-opacity:1"
         d="m 112.13199,139.62663 c 0.36592,0.84528 0.22563,1.80583 -0.38082,1.97656 l -7.04508,1.98327 c -0.60646,0.17072 -0.93717,0.11837 -1.30309,-0.7269 -0.36593,-0.84529 -0.17697,-1.25856 0.40264,-1.5039 l 6.62451,-2.80401 c 0.57961,-0.24533 1.33591,0.2297 1.70184,1.07498 z"
         sodipodi:nodetypes="sssssss"
         inkscape:transform-center-x="0.63653695"
         inkscape:transform-center-y="2.8354273" />
      <path
         id="rect1-7-8-5-1-8-52-7-5-7"
         style="stroke:#ffffff;stroke-width:0.374331;stroke-linejoin:round;stroke-dasharray:none;stroke-dashoffset:0;stroke-opacity:1"
         d="m 101.8259,141.63553 c 0.74452,-0.27735 1.95513,0.0604 1.84856,0.85414 -0.13164,0.98063 0.27626,1.87083 -0.66474,2.32373 -0.74649,0.35929 -1.84918,0.0457 -2.04892,-0.64533 -0.22236,-0.76944 0.1206,-2.25519 0.86512,-2.53254 z"
         sodipodi:nodetypes="sssss" />
      <path
         id="rect1-7-8-5-1-5-4-8-8-8-1"
         style="stroke:#ffffff;stroke-width:0.288532;stroke-linejoin:round;stroke-dasharray:none;stroke-dashoffset:0;stroke-opacity:1"
         d="m 101.79188,142.50152 c 0.57931,0.0678 0.99589,0.64198 0.93402,1.28733 l -0.0728,0.75969 c -0.0619,0.64537 -0.57806,1.11031 -1.15738,1.04249 -0.57931,-0.0678 -0.71392,-0.57759 -0.76067,-1.22455 -0.0711,-0.98267 -0.21979,-1.91959 1.05686,-1.86496 z"
         sodipodi:nodetypes="ssssss" />
      <path
         id="rect1-7-8-5-5-6-7-3-8-5-2"
         style="stroke:#ffffff;stroke-width:0.374331;stroke-linejoin:round;stroke-dasharray:none;stroke-dashoffset:0;stroke-opacity:1"
         d="m 102.37831,141.94661 c -0.089,-0.21755 -0.004,-0.45679 0.28122,-0.57356 l 1.62571,-0.66531 c 0.29337,-0.12006 0.60204,-0.0419 0.69108,0.17565 0.089,0.21755 -0.0763,0.48969 -0.36964,0.60976 l -1.62571,0.66531 c -0.22905,0.0937 -0.51361,0.005 -0.60264,-0.21185 z"
         sodipodi:nodetypes="sssssss" />
      <path
         id="rect1-7-8-3-2-6-6-1"
         style="stroke:#ffffff;stroke-width:0.317429;stroke-linejoin:round;stroke-dasharray:none;stroke-dashoffset:0;stroke-opacity:1"
         d="m 124.82136,140.96276 c -0.2998,-0.86985 -1.06972,-1.49247 -1.6407,-1.19114 l -6.87838,3.63003 c -0.57099,0.30133 -0.79315,0.55195 -0.49335,1.42179 0.29979,0.86985 0.73218,1.06109 1.33415,0.82935 l 7.11986,-2.74094 c 0.60197,-0.23174 0.85822,-1.07925 0.55842,-1.94909 z"
         sodipodi:nodetypes="sssssss"
         inkscape:transform-center-x="-0.9260688"
         inkscape:transform-center-y="2.5990413" />
      <path
         id="rect1-7-8-5-1-8-7-5-7-9-2"
         style="stroke:#ffffff;stroke-width:0.374331;stroke-linejoin:round;stroke-dasharray:none;stroke-dashoffset:0;stroke-opacity:1"
         d="m 117.143,144.60707 c -0.007,-0.79447 -0.75545,-1.8043 -1.45867,-1.42093 -0.86872,0.47358 -1.84592,0.41096 -1.93238,1.45171 -0.0686,0.82561 0.61851,1.74328 1.33529,1.68272 0.79809,-0.0675 2.06298,-0.91903 2.05576,-1.7135 z"
         sodipodi:nodetypes="sssss" />
      <path
         id="rect1-7-8-5-5-6-7-7-5-4-9-4"
         style="stroke:#ffffff;stroke-width:0.374331;stroke-linejoin:round;stroke-dasharray:none;stroke-dashoffset:0;stroke-opacity:1"
         d="m 116.02824,143.4274 c 0.0544,-0.2287 -0.0664,-0.45195 -0.36635,-0.5233 l -1.70888,-0.40653 c -0.30839,-0.0733 -0.60131,0.0515 -0.65571,0.28017 -0.0544,0.22868 0.15094,0.47205 0.4593,0.54541 l 1.70889,0.40653 c 0.24077,0.0573 0.50834,-0.0736 0.56275,-0.30228 z"
         sodipodi:nodetypes="sssssss" />
      <g
         id="g6-1-3"
         transform="matrix(0.64978474,0,0,0.64978474,50.446491,39.571569)">
        <rect
           style="opacity:1;fill:#000000;stroke:#ffffff;stroke-width:0.661458;stroke-linejoin:round"
           id="rect5-8-8"
           width="10.664055"
           height="10.785408"
           x="81.009392"
           y="159.09109" />
        <path
           id="rect5-9-6-0"
           style="fill:#000000;stroke:#ffffff;stroke-width:0.550995;stroke-linejoin:round"
           transform="matrix(0.63208417,-0.77489973,0,1,0,0)"
           d="m 145.0336,271.4776 5.6318,-0.31314 1e-5,10.65467 -5.63181,0.44388 z"
           sodipodi:nodetypes="ccccc" />
        <rect
           style="fill:#000000;stroke:#ffffff;stroke-width:0.489546;stroke-linejoin:round"
           id="rect5-9-1-3-0"
           width="5.8412356"
           height="10.785408"
           x="-198.68402"
           y="-210.75246"
           transform="matrix(0.59903324,-0.80072416,-1,0,0,0)" />
      </g>
      <path
         id="rect1-7-8-5-1-5-4-364-1-3-9-8"
         style="stroke:#ffffff;stroke-width:0.374331;stroke-linejoin:round;stroke-dasharray:none;stroke-dashoffset:0;stroke-opacity:1"
         d="m 115.57422,145.05402 c -0.1573,-0.77878 -0.91596,-1.27808 -1.70102,-1.11951 l -0.92418,0.18665 c -0.78508,0.15857 -1.29047,0.91318 -1.13318,1.69197 0.1573,0.77877 0.80086,0.90266 1.60177,0.89139 1.21651,-0.017 2.38674,0.0766 2.15661,-1.6505 z"
         sodipodi:nodetypes="ssssss" />
      <path
         id="rect10-1-1-3-8-0-0-6-1-2-1-3"
         style="fill:#cccccc;stroke-width:0.22124;stroke-linejoin:round"
         d="m 107.18908,131.0197 -7.470339,3.2525 -1.588022,-0.2403 -2.48305,2.1828 9.762711,-1.0811 -2.4381,-0.3689 7.51376,-3.3001 z" />
    </g>
  </g>
</svg>
