<?xml version="1.0" encoding="UTF-8" standalone="no"?>
<!-- Created with Inkscape (http://www.inkscape.org/) -->

<svg
   width="39.552235mm"
   height="65.196472mm"
   viewBox="0 0 39.552235 65.196472"
   version="1.1"
   id="svg1"
   xmlns:inkscape="http://www.inkscape.org/namespaces/inkscape"
   xmlns:sodipodi="http://sodipodi.sourceforge.net/DTD/sodipodi-0.dtd"
   xmlns="http://www.w3.org/2000/svg"
   xmlns:svg="http://www.w3.org/2000/svg">
  <sodipodi:namedview
     id="namedview1"
     pagecolor="#ffffff"
     bordercolor="#000000"
     borderopacity="0.25"
     inkscape:showpageshadow="2"
     inkscape:pageopacity="0.0"
     inkscape:pagecheckerboard="0"
     inkscape:deskcolor="#d1d1d1"
     inkscape:document-units="mm" />
  <defs
     id="defs1" />
  <g
     inkscape:label="Layer 1"
     inkscape:groupmode="layer"
     id="layer1"
     transform="translate(1240.323,-966.40708)">
    <g
       id="g38"
       transform="translate(-1324.7581,283.77645)"
       inkscape:export-filename="16.svg"
       inkscape:export-xdpi="96"
       inkscape:export-ydpi="96">
      <g
         id="g6-1-1-4-6-9-1-6-2-70-4-3-8"
         transform="matrix(0.45133278,0,0,0.45133278,48.028333,670.99995)"
         style="stroke-width:0.435386;stroke-dasharray:none">
        <rect
           style="opacity:1;fill:#000000;stroke:#ffffff;stroke-width:0.435386;stroke-linejoin:round;stroke-dasharray:none"
           id="rect5-8-3-8-1-8-2-2-7-21-1-4-5"
           width="10.664055"
           height="10.785408"
           x="81.009392"
           y="159.09109" />
        <path
           id="rect5-9-6-4-2-3-0-7-7-8-9-4-0-6"
           style="fill:#000000;stroke:#ffffff;stroke-width:0.54763;stroke-linejoin:round;stroke-dasharray:none"
           transform="matrix(0.63208417,-0.77489973,0,1,0,0)"
           d="m 145.0336,271.4776 5.6318,-0.31314 1e-5,10.65467 -5.63181,0.44388 z"
           sodipodi:nodetypes="ccccc" />
        <rect
           style="fill:#000000;stroke:#ffffff;stroke-width:0.486557;stroke-linejoin:round;stroke-dasharray:none"
           id="rect5-9-1-3-5-4-3-5-1-4-5-9-8-7-0"
           width="5.8412356"
           height="10.785408"
           x="-198.68402"
           y="-210.75246"
           transform="matrix(0.59903324,-0.80072416,-1,0,0,0)" />
      </g>
      <g
         id="g6-1-1-4-6-9-1-6-2-70-4-3"
         transform="matrix(0.45133278,0,0,0.45133278,52.918926,670.99995)"
         style="stroke-width:0.435386;stroke-dasharray:none">
        <rect
           style="opacity:1;fill:#000000;stroke:#ffffff;stroke-width:0.435386;stroke-linejoin:round;stroke-dasharray:none"
           id="rect5-8-3-8-1-8-2-2-7-21-1-4"
           width="10.664055"
           height="10.785408"
           x="81.009392"
           y="159.09109" />
        <path
           id="rect5-9-6-4-2-3-0-7-7-8-9-4-0"
           style="fill:#000000;stroke:#ffffff;stroke-width:0.54763;stroke-linejoin:round;stroke-dasharray:none"
           transform="matrix(0.63208417,-0.77489973,0,1,0,0)"
           d="m 145.0336,271.4776 5.6318,-0.31314 1e-5,10.65467 -5.63181,0.44388 z"
           sodipodi:nodetypes="ccccc" />
        <rect
           style="fill:#000000;stroke:#ffffff;stroke-width:0.486557;stroke-linejoin:round;stroke-dasharray:none"
           id="rect5-9-1-3-5-4-3-5-1-4-5-9-8-7"
           width="5.8412356"
           height="10.785408"
           x="-198.68402"
           y="-210.75246"
           transform="matrix(0.59903324,-0.80072416,-1,0,0,0)" />
      </g>
      <g
         id="g6-1-1-4-6-9-1-6-2-70-4"
         transform="matrix(0.45133278,0,0,0.45133278,57.866781,670.99995)"
         style="stroke-width:0.435386;stroke-dasharray:none">
        <rect
           style="opacity:1;fill:#000000;stroke:#ffffff;stroke-width:0.435386;stroke-linejoin:round;stroke-dasharray:none"
           id="rect5-8-3-8-1-8-2-2-7-21-1"
           width="10.664055"
           height="10.785408"
           x="81.009392"
           y="159.09109" />
        <path
           id="rect5-9-6-4-2-3-0-7-7-8-9-4"
           style="fill:#000000;stroke:#ffffff;stroke-width:0.54763;stroke-linejoin:round;stroke-dasharray:none"
           transform="matrix(0.63208417,-0.77489973,0,1,0,0)"
           d="m 145.0336,271.4776 5.6318,-0.31314 1e-5,10.65467 -5.63181,0.44388 z"
           sodipodi:nodetypes="ccccc" />
        <rect
           style="fill:#000000;stroke:#ffffff;stroke-width:0.486557;stroke-linejoin:round;stroke-dasharray:none"
           id="rect5-9-1-3-5-4-3-5-1-4-5-9-8"
           width="5.8412356"
           height="10.785408"
           x="-198.68402"
           y="-210.75246"
           transform="matrix(0.59903324,-0.80072416,-1,0,0,0)" />
      </g>
      <path
         id="rect1-7-3-7-0-6-4-0-4-0-0"
         style="stroke:#ffffff;stroke-width:0.374331;stroke-linejoin:round;stroke-dasharray:none;stroke-dashoffset:0;stroke-opacity:1"
         d="m 113.30775,692.76364 c -0.8248,0.37079 -1.55537,1.91938 -1.01015,2.65001 l 6.16583,8.26265 c 0.54521,0.73063 1.52098,1.09813 2.34578,0.72733 0.8248,-0.37079 1.27825,-1.36971 0.79378,-2.14195 l -5.50106,-8.76871 c -0.48446,-0.77224 -1.96939,-1.10012 -2.79418,-0.72933 z"
         sodipodi:nodetypes="sssssss"
         inkscape:transform-center-x="-2.8406933"
         inkscape:transform-center-y="4.6739597" />
      <g
         id="g4-1-6-0-7-7-8-2"
         transform="matrix(-0.77104791,0,0,0.77104791,244.78013,580.49547)">
        <path
           id="rect1-7-8-30-8-6-5-6-6-87-6-4"
           style="opacity:1;stroke:#ffffff;stroke-width:0.406867;stroke-linejoin:round;stroke-dasharray:none;stroke-dashoffset:0;stroke-opacity:1"
           d="m 161.84474,157.5133 c 1.1623,0.27581 2.01792,1.155 1.75824,1.92974 l -2.42336,7.23003 c -0.25963,0.77476 -0.60435,1.06566 -1.76666,0.78985 -1.16231,-0.27581 -1.38498,-0.7805 -1.25017,-1.58558 l 1.24413,-7.43001 c 0.13483,-0.80507 1.2755,-1.20984 2.43782,-0.93403 z"
           sodipodi:nodetypes="sssssss"
           inkscape:transform-center-x="0.82554781"
           inkscape:transform-center-y="3.6773691" />
        <path
           id="rect1-7-8-5-1-8-52-7-5-6-7-9-2-2-2"
           style="opacity:1;stroke:#ffffff;stroke-width:0.485483;stroke-linejoin:round;stroke-dasharray:none;stroke-dashoffset:0;stroke-opacity:1"
           d="m 159.10438,166.15607 c 1.03042,0 2.34886,0.9585 1.85996,1.875 -0.60396,1.1322 -0.51125,2.39878 -1.85996,2.52317 -1.0699,0.0987 -2.2681,-0.78162 -2.19799,-1.71191 0.0781,-1.03582 1.16757,-2.68626 2.19799,-2.68626 z"
           sodipodi:nodetypes="sssss" />
        <path
           id="rect1-7-8-5-1-5-4-8-8-8-0-0-3-1-2-6"
           style="opacity:1;stroke:#ffffff;stroke-width:0.485483;stroke-linejoin:round;stroke-dasharray:none;stroke-dashoffset:0;stroke-opacity:1"
           d="m 158.3575,167.8594 c 0.9953,-0.26669 2.01303,0.32637 2.28187,1.32972 l 0.31649,1.18113 c 0.26885,1.00337 -0.316,2.02582 -1.31131,2.29252 -0.9953,0.26669 -1.51056,-0.40932 -1.95964,-1.34608 -0.68218,-1.4228 -1.46628,-2.72794 0.67259,-3.45729 z"
           sodipodi:nodetypes="ssssss" />
        <path
           id="rect1-7-8-5-5-6-7-3-8-5-1-2-6-7-0-2"
           style="opacity:1;stroke:#ffffff;stroke-width:0.485483;stroke-linejoin:round;stroke-dasharray:none;stroke-dashoffset:0;stroke-opacity:1"
           d="m 160.27887,166.76453 c 0.26402,-0.15243 0.5863,-0.0851 0.78622,0.26118 l 1.13909,1.97295 c 0.20555,0.35603 0.15906,0.76637 -0.10497,0.91881 -0.26402,0.15243 -0.64263,-0.0125 -0.84819,-0.3685 l -1.13908,-1.97296 c -0.16049,-0.27797 -0.0971,-0.65904 0.16693,-0.81148 z"
           sodipodi:nodetypes="sssssss" />
      </g>
      <path
         id="rect1-7-3-7-0-6-9-1-4-1"
         style="stroke:#ffffff;stroke-width:0.374331;stroke-linejoin:round;stroke-dasharray:none;stroke-dashoffset:0;stroke-opacity:1"
         d="m 105.07215,693.07502 c 0.8248,0.37079 1.55537,1.91938 1.01015,2.65001 l -6.165834,8.26265 c -0.54521,0.73063 -1.52098,1.09813 -2.34578,0.72733 -0.8248,-0.37079 -1.27825,-1.36971 -0.79378,-2.14195 l 5.501064,-8.76871 c 0.48446,-0.77224 1.96939,-1.10012 2.79418,-0.72933 z"
         sodipodi:nodetypes="sssssss"
         inkscape:transform-center-x="2.8406965"
         inkscape:transform-center-y="4.6739597" />
      <path
         id="rect1-9-4-4-31-7-8-7-2-4-1"
         style="stroke:#ffffff;stroke-width:0.387927;stroke-linejoin:round;stroke-dasharray:none;stroke-dashoffset:0;stroke-opacity:1"
         d="m 112.58796,729.31989 h 1.61153 c 0.9107,0 1.75553,0.79641 1.64385,1.76906 l -1.59696,13.90724 c -0.11169,0.97267 -0.0213,1.63698 -0.93196,1.63698 h -0.72646 c -0.91068,0 -1.64383,-0.789 -1.64383,-1.76907 v -13.77515 c 0,-0.98005 0.73315,-1.76906 1.64383,-1.76906 z"
         sodipodi:nodetypes="sssssssss" />
      <path
         id="rect1-9-1-95-4-6-7-6-1-8"
         style="stroke:#ffffff;stroke-width:0.387927;stroke-linejoin:round;stroke-dasharray:none;stroke-dashoffset:0;stroke-opacity:1"
         d="m 98.051436,724.37032 h 1.61153 c 0.910684,0 1.680374,0.78979 1.643834,1.76907 l -0.51391,13.77514 c -0.0365,0.97927 -0.73315,1.76907 -1.643844,1.76907 h -0.61225 c -0.91069,0 -0.87342,-0.7931 -0.95651,-1.76907 l -1.1727,-13.77514 c -0.0831,-0.97598 0.73315,-1.76907 1.64385,-1.76907 z"
         sodipodi:nodetypes="sssssssss" />
      <path
         id="rect1-9-69-4-3-1-8-2-7"
         style="stroke:#ffffff;stroke-width:0.359059;stroke-linejoin:round;stroke-dasharray:none;stroke-dashoffset:0;stroke-opacity:1"
         d="m 104.81765,712.14899 2.33908,1.19563 c 0.81265,0.41536 1.92772,1.86223 1.45421,2.55497 l -7.21218,10.55142 c -0.4735,0.69275 -1.32805,1.03105 -2.146524,0.6272 l -1.44833,-0.71463 c -0.81847,-0.40385 -1.17587,-1.3323 -0.80821,-2.08512 l 5.621534,-11.51098 c 0.36802,-0.75264 1.38773,-1.03381 2.20039,-0.61844 z"
         sodipodi:nodetypes="ssssssssss"
         inkscape:transform-center-x="2.4269526"
         inkscape:transform-center-y="5.6503172" />
      <path
         id="rect1-9-4-41-7-7-5-0-8-1"
         style="stroke:#ffffff;stroke-width:0.359059;stroke-linejoin:round;stroke-dasharray:none;stroke-dashoffset:0;stroke-opacity:1"
         d="m 111.56266,715.40784 2.74806,0.0743 c 0.91229,0.0247 1.70305,0.72239 1.69963,1.56018 l -0.0522,12.77828 c -0.003,0.83779 -0.73475,1.51227 -1.64743,1.51227 h -1.61504 c -0.91267,0 -1.51502,-0.68334 -1.64743,-1.51227 l -2.06786,-12.94564 c -0.1324,-0.82894 1.66998,-1.49177 2.58227,-1.46711 z"
         sodipodi:nodetypes="sssssssss" />
      <path
         id="rect1-0-0-6-1-2-1-4"
         style="stroke:none;stroke-width:0.374331;stroke-linejoin:round;stroke-dasharray:none;stroke-dashoffset:0;stroke-opacity:1"
         d="m 104.44172,692.47544 c 4.48101,-1.82227 6.95787,-0.63832 9.79849,0 0.88945,0.19987 1.70826,0.73607 1.64554,1.64554 -0.42584,6.17474 -2.31401,12.63187 -0.41771,18.40141 0.53577,1.63011 0.34141,3.07486 0.41771,4.56138 0.0467,0.91042 -0.78359,1.94237 -1.64554,1.64553 -3.57386,-1.23079 -7.62496,-4.37055 -9.79849,0 -0.40594,0.81626 -1.66848,-0.7342 -1.64554,-1.64553 0.0443,-1.76206 -0.17824,-3.46578 0.44127,-5.4099 1.76085,-5.52563 0.28547,-11.62947 -0.44127,-17.55289 -0.111,-0.90484 0.80107,-1.30213 1.64554,-1.64554 z"
         sodipodi:nodetypes="sssssssssss" />
      <path
         id="rect1-7-8-5-1-5-4-34-31-3-1-9-1-0-9"
         style="stroke:#ffffff;stroke-width:0.485783;stroke-linejoin:round;stroke-dasharray:none;stroke-dashoffset:0;stroke-opacity:1"
         d="m 99.788076,739.51738 c -0.70994,-0.70086 -2.11345,-0.87119 -3.14686,-0.38187 l -1.21652,0.57599 c -1.03343,0.48931 -1.29383,1.44747 -0.58389,2.14834 0.70993,0.70088 1.71459,0.55 2.86223,0.19915 1.7432,-0.53283 3.488384,-0.93686 2.08504,-2.54161 z"
         sodipodi:nodetypes="ssssss" />
      <path
         id="rect1-7-8-5-1-5-4-34-0-1-3-5-4-0-3-0"
         style="stroke:#ffffff;stroke-width:0.485783;stroke-linejoin:round;stroke-dasharray:none;stroke-dashoffset:0;stroke-opacity:1"
         d="m 111.91731,744.55386 c 0.70994,-0.70086 2.11345,-0.87119 3.14686,-0.38187 l 1.21653,0.57599 c 1.03342,0.48931 1.29382,1.44747 0.58389,2.14834 -0.70994,0.70088 -1.7146,0.55 -2.86224,0.19915 -1.7432,-0.53283 -3.48838,-0.93686 -2.08504,-2.54161 z"
         sodipodi:nodetypes="ssssss" />
      <path
         id="rect1-7-5-6-7-2-3-77-9-3"
         style="stroke:#ffffff;stroke-width:0.374331;stroke-linejoin:round;stroke-dasharray:none;stroke-dashoffset:0;stroke-opacity:1"
         d="m 111.33372,691.41859 -0.45533,-2.679 c -0.24664,-1.45118 -2.90482,-1.35352 -3.18643,0.37283 l -0.40194,2.46403 c -0.34759,2.13083 4.40355,1.95946 4.0437,-0.15786 z"
         sodipodi:nodetypes="sssss" />
      <path
         id="path1-73-1-3-2-1-7-3"
         style="stroke:#ffffff;stroke-width:0.306754;stroke-linejoin:round;stroke-dasharray:none;stroke-dashoffset:0;stroke-opacity:1"
         d="m 112.86701,686.22614 c 0,2.21459 -1.3781,4.57763 -3.60666,4.57763 -2.22856,0 -3.54952,-2.36304 -3.54952,-4.57763 0,-2.21459 1.32096,-3.44212 3.54952,-3.44212 2.22856,0 3.60666,1.22753 3.60666,3.44212 z"
         sodipodi:nodetypes="sssss" />
      <g
         id="g4-1-6-1-8-4-2"
         transform="matrix(0.77104791,0,0,0.77104791,-26.400239,580.80685)">
        <path
           id="rect1-7-8-30-8-6-5-0-4-7-0"
           style="opacity:1;stroke:#ffffff;stroke-width:0.406867;stroke-linejoin:round;stroke-dasharray:none;stroke-dashoffset:0;stroke-opacity:1"
           d="m 161.84474,157.5133 c 1.1623,0.27581 2.01792,1.155 1.75824,1.92974 l -2.42336,7.23003 c -0.25963,0.77476 -0.60435,1.06566 -1.76666,0.78985 -1.16231,-0.27581 -1.38498,-0.7805 -1.25017,-1.58558 l 1.24413,-7.43001 c 0.13483,-0.80507 1.2755,-1.20984 2.43782,-0.93403 z"
           sodipodi:nodetypes="sssssss"
           inkscape:transform-center-x="0.82554781"
           inkscape:transform-center-y="3.6773691" />
        <path
           id="rect1-7-8-5-1-8-52-7-5-6-76-0-4-8"
           style="opacity:1;stroke:#ffffff;stroke-width:0.485483;stroke-linejoin:round;stroke-dasharray:none;stroke-dashoffset:0;stroke-opacity:1"
           d="m 159.10438,166.15607 c 1.03042,0 2.34886,0.9585 1.85996,1.875 -0.60396,1.1322 -0.51125,2.39878 -1.85996,2.52317 -1.0699,0.0987 -2.2681,-0.78162 -2.19799,-1.71191 0.0781,-1.03582 1.16757,-2.68626 2.19799,-2.68626 z"
           sodipodi:nodetypes="sssss" />
        <path
           id="rect1-7-8-5-1-5-4-8-8-8-0-7-2-7-0"
           style="opacity:1;stroke:#ffffff;stroke-width:0.485483;stroke-linejoin:round;stroke-dasharray:none;stroke-dashoffset:0;stroke-opacity:1"
           d="m 158.3575,167.8594 c 0.9953,-0.26669 2.01303,0.32637 2.28187,1.32972 l 0.31649,1.18113 c 0.26885,1.00337 -0.316,2.02582 -1.31131,2.29252 -0.9953,0.26669 -1.51056,-0.40932 -1.95964,-1.34608 -0.68218,-1.4228 -1.46628,-2.72794 0.67259,-3.45729 z"
           sodipodi:nodetypes="ssssss" />
        <path
           id="rect1-7-8-5-5-6-7-3-8-5-1-9-6-9-7"
           style="opacity:1;stroke:#ffffff;stroke-width:0.485483;stroke-linejoin:round;stroke-dasharray:none;stroke-dashoffset:0;stroke-opacity:1"
           d="m 160.27887,166.76453 c 0.26402,-0.15243 0.5863,-0.0851 0.78622,0.26118 l 1.13909,1.97295 c 0.20555,0.35603 0.15906,0.76637 -0.10497,0.91881 -0.26402,0.15243 -0.64263,-0.0125 -0.84819,-0.3685 l -1.13908,-1.97296 c -0.16049,-0.27797 -0.0971,-0.65904 0.16693,-0.81148 z"
           sodipodi:nodetypes="sssssss" />
      </g>
      <g
         id="g6-1-1-4-6-9-1-6-2-70-4-3-8-8"
         transform="matrix(0.45133278,0,0,0.45133278,62.811927,670.99995)"
         style="stroke-width:0.435386;stroke-dasharray:none">
        <rect
           style="opacity:1;fill:#000000;stroke:#ffffff;stroke-width:0.435386;stroke-linejoin:round;stroke-dasharray:none"
           id="rect5-8-3-8-1-8-2-2-7-21-1-4-5-1"
           width="10.664055"
           height="10.785408"
           x="81.009392"
           y="159.09109" />
        <path
           id="rect5-9-6-4-2-3-0-7-7-8-9-4-0-6-1"
           style="fill:#000000;stroke:#ffffff;stroke-width:0.54763;stroke-linejoin:round;stroke-dasharray:none"
           transform="matrix(0.63208417,-0.77489973,0,1,0,0)"
           d="m 145.0336,271.4776 5.6318,-0.31314 1e-5,10.65467 -5.63181,0.44388 z"
           sodipodi:nodetypes="ccccc" />
        <rect
           style="fill:#000000;stroke:#ffffff;stroke-width:0.486557;stroke-linejoin:round;stroke-dasharray:none"
           id="rect5-9-1-3-5-4-3-5-1-4-5-9-8-7-0-9"
           width="5.8412356"
           height="10.785408"
           x="-198.68402"
           y="-210.75246"
           transform="matrix(0.59903324,-0.80072416,-1,0,0,0)" />
      </g>
      <g
         id="g6-1-1-4-6-9-1-6-2-70-4-3-9"
         transform="matrix(0.45133278,0,0,0.45133278,67.70252,670.99995)"
         style="stroke-width:0.435386;stroke-dasharray:none">
        <rect
           style="opacity:1;fill:#000000;stroke:#ffffff;stroke-width:0.435386;stroke-linejoin:round;stroke-dasharray:none"
           id="rect5-8-3-8-1-8-2-2-7-21-1-4-3"
           width="10.664055"
           height="10.785408"
           x="81.009392"
           y="159.09109" />
        <path
           id="rect5-9-6-4-2-3-0-7-7-8-9-4-0-8"
           style="fill:#000000;stroke:#ffffff;stroke-width:0.54763;stroke-linejoin:round;stroke-dasharray:none"
           transform="matrix(0.63208417,-0.77489973,0,1,0,0)"
           d="m 145.0336,271.4776 5.6318,-0.31314 1e-5,10.65467 -5.63181,0.44388 z"
           sodipodi:nodetypes="ccccc" />
        <rect
           style="fill:#000000;stroke:#ffffff;stroke-width:0.486557;stroke-linejoin:round;stroke-dasharray:none"
           id="rect5-9-1-3-5-4-3-5-1-4-5-9-8-7-9"
           width="5.8412356"
           height="10.785408"
           x="-198.68402"
           y="-210.75246"
           transform="matrix(0.59903324,-0.80072416,-1,0,0,0)" />
      </g>
    </g>
  </g>
</svg>
