<?xml version="1.0" encoding="UTF-8" standalone="no"?>
<!-- Created with Inkscape (http://www.inkscape.org/) -->

<svg
   width="40.423759mm"
   height="46.903469mm"
   viewBox="0 0 40.423759 46.903469"
   version="1.1"
   id="svg1"
   xmlns:inkscape="http://www.inkscape.org/namespaces/inkscape"
   xmlns:sodipodi="http://sodipodi.sourceforge.net/DTD/sodipodi-0.dtd"
   xmlns="http://www.w3.org/2000/svg"
   xmlns:svg="http://www.w3.org/2000/svg">
  <sodipodi:namedview
     id="namedview1"
     pagecolor="#ffffff"
     bordercolor="#000000"
     borderopacity="0.25"
     inkscape:showpageshadow="2"
     inkscape:pageopacity="0.0"
     inkscape:pagecheckerboard="0"
     inkscape:deskcolor="#d1d1d1"
     inkscape:document-units="mm" />
  <defs
     id="defs1" />
  <g
     inkscape:label="Layer 1"
     inkscape:groupmode="layer"
     id="layer1"
     transform="translate(1240.7587,-1342.9758)">
    <g
       id="g109"
       transform="translate(-1843.215,1079.5749)"
       inkscape:export-filename="19.svg"
       inkscape:export-xdpi="96"
       inkscape:export-ydpi="96">
      <path
         id="rect1-7-3-7-0-3-9-8-5-5"
         style="stroke:#ffffff;stroke-width:0.374331;stroke-linejoin:round;stroke-dasharray:none;stroke-dashoffset:0;stroke-opacity:1"
         d="m 614.24333,277.23032 c 0.49206,-0.7587 2.15637,-1.26585 2.77299,-0.59438 l 7.84519,8.54362 c 0.61659,0.67149 0.85343,1.67065 0.36118,2.42923 -0.49207,0.7587 -1.57458,1.08333 -2.23784,0.45801 l -8.44675,-7.96382 c -0.66334,-0.62539 -0.78701,-2.11409 -0.29477,-2.87266 z"
         sodipodi:nodetypes="sssssss"
         inkscape:transform-center-x="17.382478"
         inkscape:transform-center-y="3.3255408" />
      <path
         id="rect1-7-8-5-1-8-7-5-7-9-2-9-3-3-0"
         style="stroke:#ffffff;stroke-width:0.374331;stroke-linejoin:round;stroke-dasharray:none;stroke-dashoffset:0;stroke-opacity:1"
         d="m 634.59105,268.62624 c -0.58311,0.5398 -0.82713,1.77262 -0.0708,2.03517 0.93479,0.32426 1.54566,1.08963 2.37399,0.45356 0.65935,-0.50162 0.87409,-1.63029 0.34713,-2.11996 -0.58634,-0.54545 -2.06763,-0.90849 -2.6507,-0.36873 z"
         sodipodi:nodetypes="sssss"
         inkscape:transform-center-x="1.3059136"
         inkscape:transform-center-y="-9.1741185" />
      <path
         id="rect1-7-8-5-5-6-7-7-5-4-9-4-6-5-2-9"
         style="stroke:#ffffff;stroke-width:0.374331;stroke-linejoin:round;stroke-dasharray:none;stroke-dashoffset:0;stroke-opacity:1"
         d="m 634.73787,269.67824 c -0.20581,0.1136 -0.28976,0.35309 -0.14092,0.62304 l 0.84868,1.53802 c 0.15339,0.27731 0.44279,0.40998 0.64839,0.29679 0.20578,-0.11358 0.24767,-0.42919 0.0944,-0.70675 l -0.84855,-1.538 c -0.1198,-0.21651 -0.39673,-0.32643 -0.60227,-0.21317 z"
         sodipodi:nodetypes="sssssss"
         inkscape:transform-center-x="1.6966888"
         inkscape:transform-center-y="-8.1296568" />
      <path
         id="rect1-7-8-5-1-5-4-364-1-3-9-8-1-0-5-0"
         style="stroke:#ffffff;stroke-width:0.374331;stroke-linejoin:round;stroke-dasharray:none;stroke-dashoffset:0;stroke-opacity:1"
         d="m 635.97707,269.48656 c -0.47056,0.6402 -0.32985,1.53742 0.31554,2.01182 l 0.75977,0.5583 c 0.64536,0.47429 1.54373,0.34072 2.01428,-0.29949 0.47046,-0.64013 0.12924,-1.19972 -0.41773,-1.78487 -0.83081,-0.88881 -1.54836,-1.81802 -2.67186,-0.48576 z"
         sodipodi:nodetypes="ssssss"
         inkscape:transform-center-x="-0.39623633"
         inkscape:transform-center-y="-8.45431" />
      <path
         id="rect1-7-2-76-1-7-2-6-4-5-6"
         style="stroke:#ffffff;stroke-width:0.374331;stroke-linejoin:round;stroke-dasharray:none;stroke-dashoffset:0;stroke-opacity:1"
         d="m 616.41149,269.77915 c -0.0159,0.9041 1.17598,2.51696 1.95939,2.05022 l 7.92259,-4.7182 c 0.78325,-0.46648 1.64501,-0.90187 1.66446,-1.80594 0.0159,-0.90422 -0.77217,-2.0327 -1.59321,-1.63694 l -8.09403,3.90052 c -0.82119,0.39575 -1.8394,1.30586 -1.85878,2.21001 z"
         sodipodi:nodetypes="ssssssss"
         inkscape:transform-center-x="14.913013"
         inkscape:transform-center-y="-11.284731" />
      <path
         id="rect1-9-4-4-31-7-1-4-2-8-0"
         style="stroke:#ffffff;stroke-width:0.387927;stroke-linejoin:round;stroke-dasharray:none;stroke-dashoffset:0;stroke-opacity:1"
         d="m 638.609,292.43336 1.60066,-0.1868 c 0.90456,-0.1056 1.83601,0.5875 1.83781,1.5666 l 0.0257,13.9986 c 0.002,0.979 0.1686,1.6284 -0.73595,1.7339 l -0.72155,0.084 c -0.90455,0.1056 -1.7242,-0.5931 -1.8378,-1.5666 l -1.5966,-13.6823 c -0.1136,-0.9734 0.52316,-1.8421 1.42771,-1.9476 z"
         sodipodi:nodetypes="sssssssss" />
      <path
         id="rect1-9-1-95-4-0-1-3-9-1"
         style="stroke:#ffffff;stroke-width:0.387927;stroke-linejoin:round;stroke-dasharray:none;stroke-dashoffset:0;stroke-opacity:1"
         d="m 629.65404,290.71626 h 1.61153 c 0.91068,0 1.68037,0.7898 1.64383,1.769 l -0.51391,13.7752 c -0.0365,0.9792 -0.73315,1.769 -1.64384,1.769 h -0.61225 c -0.91069,0 -0.87342,-0.7931 -0.95651,-1.769 l -1.1727,-13.7752 c -0.0831,-0.9759 0.73316,-1.769 1.64385,-1.769 z"
         sodipodi:nodetypes="sssssssss" />
      <path
         id="rect1-9-69-4-8-4-6-2-1"
         style="stroke:#ffffff;stroke-width:0.359059;stroke-linejoin:round;stroke-dasharray:none;stroke-dashoffset:0;stroke-opacity:1"
         d="m 633.1426,277.28762 2.54141,0.6649 c 0.88295,0.2309 2.28297,1.4043 1.96943,2.1827 l -4.77553,11.85504 c -0.31352,0.7784 -1.07539,1.2924 -1.96153,1.074 l -1.56809,-0.3866 c -0.88613,-0.2185 -1.43475,-1.0484 -1.23752,-1.8627 l 3.01579,-12.45034 c 0.19755,-0.8141 1.13308,-1.3079 2.01603,-1.0769 z"
         sodipodi:nodetypes="ssssssssss" />
      <path
         id="rect1-9-4-41-7-6-1-5-1-4"
         style="stroke:#ffffff;stroke-width:0.359059;stroke-linejoin:round;stroke-dasharray:none;stroke-dashoffset:0;stroke-opacity:1"
         d="m 637.82187,274.62791 2.73139,0.3113 c 0.90674,0.10335 1.36614,0.88567 1.55857,1.7011 1.34694,5.70795 -0.0158,10.64172 -0.21976,15.90655 -0.0324,0.83717 -0.86256,1.4432 -1.77184,1.3644 l -1.609,-0.1394 c -0.90927,-0.079 -1.41438,-0.81497 -1.51072,-1.6489 l -1.87793,-16.25635 c -0.0963,-0.83393 1.78666,-1.2387 2.69928,-1.2387 z"
         sodipodi:nodetypes="ssssssssss" />
      <path
         id="rect1-0-0-2-5-0-0-7"
         style="stroke:none;stroke-width:0.351231;stroke-linejoin:round;stroke-dasharray:none;stroke-dashoffset:0;stroke-opacity:1"
         d="m 613.57593,278.39743 c -0.42884,-3.85053 1.38025,-6.02811 2.39239,-8.40236 0.31693,-0.74346 0.54608,-1.38865 1.43659,-1.19535 6.04548,1.31192 12.38385,1.42138 18.13021,3.16877 7.55025,2.29596 5.70188,3.75023 4.65445,10.5403 -0.12235,0.79321 -0.95276,1.35646 -1.84713,1.1809 -1.69786,-0.33325 -3.28588,-0.48622 -5.28744,-1.20871 -5.40923,-1.95264 -11.45529,-2.02137 -17.40697,-2.29206 -0.90908,-0.0413 -1.98193,-0.98206 -2.07203,-1.79142 z"
         sodipodi:nodetypes="ssssssssss"
         inkscape:transform-center-x="9.7526572"
         inkscape:transform-center-y="-2.7908997" />
      <path
         id="rect1-7-8-5-1-5-4-34-31-3-6-5-2-7-9"
         style="stroke:#ffffff;stroke-width:0.453133;stroke-linejoin:round;stroke-dasharray:none;stroke-dashoffset:0;stroke-opacity:1"
         d="m 631.64883,306.39176 c -0.62285,-0.6997 -2.00014,-1.0415 -3.08805,-0.7665 l -1.28068,0.3238 c -1.08793,0.275 -1.46233,1.0597 -0.83947,1.7593 0.62284,0.6997 1.64147,0.7106 2.82652,0.5702 1.80001,-0.2133 3.58653,-0.3159 2.38168,-1.8868 z"
         sodipodi:nodetypes="ssssss" />
      <path
         id="rect1-7-8-5-1-5-4-34-0-1-3-9-6-8-2-5"
         style="stroke:#ffffff;stroke-width:0.419911;stroke-linejoin:round;stroke-dasharray:none;stroke-dashoffset:0;stroke-opacity:1"
         d="m 641.29994,308.25136 c -0.72948,-0.5834 -2.13739,-0.8257 -3.15673,-0.5432 l -1.19996,0.3325 c -1.01936,0.2824 -1.2527,0.9795 -0.52323,1.5629 0.72947,0.5834 1.72961,0.5523 2.86704,0.383 1.7277,-0.2572 3.46101,-0.4176 2.01288,-1.7352 z"
         sodipodi:nodetypes="ssssss" />
      <path
         id="rect1-7-5-6-7-4-6-2-4-1"
         style="stroke:#ffffff;stroke-width:0.374331;stroke-linejoin:round;stroke-dasharray:none;stroke-dashoffset:0;stroke-opacity:1"
         d="m 614.17995,271.97959 -2.71709,0.0416 c -1.47186,0.0225 -1.78054,2.66452 -0.11729,3.20599 l 2.37395,0.77292 c 2.05289,0.66836 2.60784,-4.05337 0.46043,-4.0205 z"
         sodipodi:nodetypes="sssss"
         inkscape:transform-center-x="24.212385"
         inkscape:transform-center-y="-5.0122064" />
      <path
         id="path1-73-1-5-7-1-3-7"
         style="stroke:#ffffff;stroke-width:0.287201;stroke-linejoin:round;stroke-dasharray:none;stroke-dashoffset:0;stroke-opacity:1"
         d="m 609.14217,270.57007 c 2.19401,0.33838 4.35139,1.8905 4.05434,3.81654 -0.29711,1.92597 -2.81436,2.70641 -5.00836,2.36801 -2.19406,-0.33847 -3.23407,-1.66765 -2.93696,-3.59362 0.29705,-1.92604 1.69691,-2.9294 3.89098,-2.59093 z"
         sodipodi:nodetypes="sssss"
         inkscape:transform-center-x="27.885035"
         inkscape:transform-center-y="-5.366147" />
      <path
         id="rect1-7-8-3-2-6-6-1-0-9-7-6"
         style="stroke:#ffffff;stroke-width:0.317429;stroke-linejoin:round;stroke-dasharray:none;stroke-dashoffset:0;stroke-opacity:1"
         d="m 626.72972,265.39538 c -0.44207,0.80695 -0.38494,1.79549 0.22217,2.01528 l 7.3126,2.64848 c 0.60701,0.21988 0.94198,0.21579 1.38406,-0.59116 0.44197,-0.80688 0.2927,-1.25557 -0.28374,-1.54507 l -6.81707,-3.42523 c -0.57639,-0.28954 -1.37593,0.0908 -1.81802,0.8977 z"
         sodipodi:nodetypes="sssssss"
         inkscape:transform-center-x="5.9247485"
         inkscape:transform-center-y="-11.742278" />
      <ellipse
         style="fill:#ffffff;stroke:#000000;stroke-width:0.569921;stroke-linejoin:round;stroke-dasharray:none"
         id="path23-1-8"
         cx="620.90344"
         cy="290.22598"
         rx="18.162245"
         ry="17.609779" />
      <path
         id="rect1-7-8-30-8-6-6-5-1-1-7"
         style="stroke:#ffffff;stroke-width:0.313714;stroke-linejoin:round;stroke-dasharray:none;stroke-dashoffset:0;stroke-opacity:1"
         d="m 616.09031,291.96981 c 0.84582,0.3645 1.4022,1.16 1.07769,1.7 l -3.76957,6.2735 c -0.32451,0.54 -0.60114,0.7287 -1.44703,0.3641 -0.84588,-0.3646 -0.99164,-0.795 -0.73781,-1.3709 l 2.90076,-6.5827 c 0.25383,-0.576 1.13007,-0.7486 1.97596,-0.384 z"
         sodipodi:nodetypes="sssssss"
         inkscape:transform-center-x="16.598402"
         inkscape:transform-center-y="3.2176049" />
      <path
         id="rect1-7-8-5-1-8-52-7-5-7-4-0-1-7"
         style="stroke:#ffffff;stroke-width:0.374331;stroke-linejoin:round;stroke-dasharray:none;stroke-dashoffset:0;stroke-opacity:1"
         d="m 610.05766,300.40387 c 0.35189,-0.7123 1.46457,-1.2966 1.93136,-0.6454 0.57638,0.8042 1.4836,1.1727 1.10899,2.1475 -0.29717,0.7733 -1.31477,1.30114 -1.93409,0.9348 -0.68933,-0.4078 -1.45819,-1.7246 -1.10624,-2.4369 z"
         sodipodi:nodetypes="sssss"
         inkscape:transform-center-x="19.295547"
         inkscape:transform-center-y="8.3918594" />
      <path
         id="rect1-7-8-5-1-5-4-8-8-8-1-8-9-1-4"
         style="stroke:#ffffff;stroke-width:0.288532;stroke-linejoin:round;stroke-dasharray:none;stroke-dashoffset:0;stroke-opacity:1"
         d="m 610.53302,301.15121 c 0.46837,-0.3476 1.16509,-0.2153 1.56249,0.297 l 0.46779,0.603 c 0.39737,0.5121 0.34028,1.20464 -0.12797,1.55244 -0.46839,0.3476 -0.91573,0.069 -1.39331,-0.3701 -0.72543,-0.66684 -1.47594,-1.24694 -0.50898,-2.08234 z"
         sodipodi:nodetypes="ssssss"
         inkscape:transform-center-x="19.328973"
         inkscape:transform-center-y="9.4393015" />
      <path
         id="rect1-7-8-5-5-6-7-3-8-5-2-7-9-2-7"
         style="stroke:#ffffff;stroke-width:0.374331;stroke-linejoin:round;stroke-dasharray:none;stroke-dashoffset:0;stroke-opacity:1"
         d="m 610.57949,300.34521 c -0.21389,-0.097 -0.31599,-0.3298 -0.1884,-0.6104 l 0.72752,-1.5988 c 0.13125,-0.2886 0.40953,-0.4433 0.62352,-0.3459 0.21396,0.097 0.28015,0.4088 0.14891,0.6974 l -0.72751,1.5988 c -0.10233,0.2254 -0.37393,0.3521 -0.58402,0.2588 z"
         sodipodi:nodetypes="sssssss"
         inkscape:transform-center-x="19.632965"
         inkscape:transform-center-y="6.1490212" />
      <g
         id="g6-1-1-4-6-11-5-0"
         transform="matrix(0.27830156,0,0,0.27830156,589.70852,257.68051)"
         style="stroke-width:1.38527;stroke-dasharray:none">
        <rect
           style="opacity:1;fill:#000000;stroke:#ffffff;stroke-width:1.38527;stroke-linejoin:round;stroke-dasharray:none"
           id="rect5-8-3-8-1-39-4-9"
           width="10.664055"
           height="10.785408"
           x="81.009392"
           y="159.09109" />
        <path
           id="rect5-9-6-4-2-3-3-9-7"
           style="fill:#000000;stroke:#ffffff;stroke-width:1.7424;stroke-linejoin:round;stroke-dasharray:none"
           transform="matrix(0.63208417,-0.77489973,0,1,0,0)"
           d="m 145.0336,271.4776 5.6318,-0.31314 1e-5,10.65467 -5.63181,0.44388 z"
           sodipodi:nodetypes="ccccc" />
        <rect
           style="fill:#000000;stroke:#ffffff;stroke-width:1.54808;stroke-linejoin:round;stroke-dasharray:none"
           id="rect5-9-1-3-5-4-3-0-9-2"
           width="5.8412356"
           height="10.785408"
           x="-198.68402"
           y="-210.75246"
           transform="matrix(0.59903324,-0.80072416,-1,0,0,0)" />
      </g>
    </g>
  </g>
</svg>
