<?xml version="1.0" encoding="UTF-8" standalone="no"?>
<!-- Created with Inkscape (http://www.inkscape.org/) -->

<svg
   width="68.278mm"
   height="17.255342mm"
   viewBox="0 0 68.278 17.255342"
   version="1.1"
   id="svg1"
   xmlns:inkscape="http://www.inkscape.org/namespaces/inkscape"
   xmlns:sodipodi="http://sodipodi.sourceforge.net/DTD/sodipodi-0.dtd"
   xmlns="http://www.w3.org/2000/svg"
   xmlns:svg="http://www.w3.org/2000/svg">
  <sodipodi:namedview
     id="namedview1"
     pagecolor="#ffffff"
     bordercolor="#000000"
     borderopacity="0.25"
     inkscape:showpageshadow="2"
     inkscape:pageopacity="0.0"
     inkscape:pagecheckerboard="0"
     inkscape:deskcolor="#d1d1d1"
     inkscape:document-units="mm" />
  <defs
     id="defs1" />
  <g
     inkscape:label="Layer 1"
     inkscape:groupmode="layer"
     id="layer1"
     transform="translate(1254.6858,398.35424)">
    <g
       id="g76"
       transform="translate(-1577.9182,-1184.1778)"
       inkscape:export-filename="3.svg"
       inkscape:export-xdpi="96"
       inkscape:export-ydpi="96">
      <path
         id="rect1-7-8-5-1-5-4-34-31-3-6-5-5-8-2-4-9"
         style="stroke:#ffffff;stroke-width:0.453133;stroke-linejoin:round;stroke-dasharray:none;stroke-dashoffset:0;stroke-opacity:1"
         d="m 382.63507,793.98211 c 0.67936,-0.6449 2.08047,-0.86998 3.14146,-0.50467 l 1.249,0.43007 c 1.06103,0.36533 1.36828,1.17865 0.68891,1.82356 -0.67934,0.64493 -1.6953,0.57037 -2.86438,0.33098 -1.77578,-0.36353 -3.54738,-0.61566 -2.21499,-2.07997 z"
         sodipodi:nodetypes="ssssss"
         inkscape:transform-center-x="-2.254781"
         inkscape:transform-center-y="0.48644462" />
      <path
         id="rect1-7-8-5-1-5-4-34-0-1-3-9-6-4-0-6-7-5"
         style="stroke:#ffffff;stroke-width:0.419911;stroke-linejoin:round;stroke-dasharray:none;stroke-dashoffset:0;stroke-opacity:1"
         d="m 391.21985,797.90593 c -0.36642,-0.8592 -2.5285,-1.80242 -3.5601,-2.0361 l -1.21441,-0.27513 c -1.03165,-0.23367 -1.69606,0.9806 -1.32965,1.83979 0.3664,0.85921 0.83128,0.98239 1.91336,1.37166 1.6436,0.59128 4.8427,0.94594 4.1908,-0.90022 z"
         sodipodi:nodetypes="ssssss"
         inkscape:transform-center-x="-2.5557982"
         inkscape:transform-center-y="1.0566475" />
      <path
         id="rect1-7-3-7-0-3-9-3-9-7-1-24"
         style="stroke:#ffffff;stroke-width:0.374331;stroke-linejoin:round;stroke-dasharray:none;stroke-dashoffset:0;stroke-opacity:1"
         d="m 332.38485,790.34165 c 0.11683,0.89673 1.38439,2.03118 2.24555,1.73214 l 6.84094,-2.37553 c 0.86117,-0.29905 1.49046,-1.13922 1.37356,-2.03594 -0.11693,-0.89672 -0.93192,-1.57704 -1.82162,-1.37834 l -7.13352,1.59296 c -0.88971,0.19868 -1.62182,1.56794 -1.5049,2.46468 z"
         sodipodi:nodetypes="ssssssss"
         inkscape:transform-center-x="-5.3412551"
         inkscape:transform-center-y="-1.2268448" />
      <path
         id="rect1-7-2-76-1-7-2-6-7-2-5-0-9"
         style="stroke:#ffffff;stroke-width:0.322178;stroke-linejoin:round;stroke-dasharray:none;stroke-dashoffset:0;stroke-opacity:1"
         d="m 331.82412,796.0725 c -0.30055,-0.81434 0.29471,-1.99897 0.95668,-1.85022 l 6.76083,1.51925 c 0.66202,0.14876 1.37127,0.15036 1.65584,0.97551 0.28455,0.82518 0.0926,2.11601 -0.57414,2.16784 l -6.44573,0.50107 c -0.6471,-0.20355 -1.77344,-1.81745 -2.35348,-3.31345 z"
         sodipodi:nodetypes="csssscc"
         inkscape:transform-center-x="-3.1376456"
         inkscape:transform-center-y="0.16033361" />
      <path
         id="rect1-9-69-4-8-4-7-7-73-7-9"
         style="stroke:#ffffff;stroke-width:0.359059;stroke-linejoin:round;stroke-dasharray:none;stroke-dashoffset:0;stroke-opacity:1"
         d="m 354.15472,792.0238 0.24767,2.61524 c 0.086,0.90859 1.01908,2.47902 1.8377,2.29468 l 12.46854,-2.80771 c 0.81862,-0.18432 1.4485,-0.85364 1.37531,-1.76338 l -0.1295,-1.60984 c -0.0732,-0.90973 -0.75611,-0.58781 -1.59274,-0.63218 l -10.71517,-0.56831 c -0.83662,-0.0444 -3.57782,1.5629 -3.49179,2.4715 z"
         sodipodi:nodetypes="ssssssssss"
         inkscape:transform-center-x="-6.4439748"
         inkscape:transform-center-y="2.0837581" />
      <path
         id="rect1-9-4-41-7-6-1-1-5-8-1-30"
         style="stroke:#ffffff;stroke-width:0.359059;stroke-linejoin:round;stroke-dasharray:none;stroke-dashoffset:0;stroke-opacity:1"
         d="m 354.52834,795.52371 0.3113,2.73139 c 0.10334,0.90675 0.86672,1.63432 1.70109,1.55857 l 12.72605,-1.1552 c 0.8344,-0.0754 1.4432,-0.86256 1.3644,-1.77184 l -0.13943,-1.609 c -0.0788,-0.90927 -0.94982,-0.72804 -1.78917,-0.71559 -3.93289,0.0583 -7.80152,0.1729 -12.70165,-0.61509 -0.82881,-0.13328 -1.57589,0.67 -1.47255,1.57675 z"
         sodipodi:nodetypes="ssssssssss" />
      <path
         id="rect1-0-0-2-5-8-0-4-2-1"
         style="stroke:none;stroke-width:0.309215;stroke-linejoin:round;stroke-dasharray:none;stroke-dashoffset:0;stroke-opacity:1"
         d="m 333.08705,788.0061 c -1.40776,2.72827 -0.23041,4.79578 0.12949,6.8045 0.11269,0.62898 0.93482,3.04716 1.84128,3.13246 6.1544,0.57909 11.96007,-1.67416 17.49083,0.4169 1.56265,0.5908 3.01171,0.66229 4.47621,0.92251 0.89692,0.15939 2.10514,-0.32755 1.78686,-0.88073 l -2.94549,-5.11911 c -0.3183,-0.55318 2.56986,-3.4925 1.6641,-3.59183 -1.71933,-0.18862 -2.16399,-0.20129 -4.27607,-0.18067 -5.70804,0.0558 -11.91585,-0.97195 -17.711,-2.29444 -0.88524,-0.20207 -2.16033,0.21697 -2.45621,0.79041 z"
         sodipodi:nodetypes="sssssssssss" />
      <path
         id="rect1-7-5-6-7-4-6-3-1-3-5-1"
         style="stroke:#ffffff;stroke-width:0.374331;stroke-linejoin:round;stroke-dasharray:none;stroke-dashoffset:0;stroke-opacity:1"
         d="m 333.1693,795.58923 -3.5389,0.0408 c -1.47189,0.017 -1.35351,-2.90483 0.37284,-3.18644 l 2.46403,-0.40194 c 2.13083,-0.34759 2.84957,3.52286 0.70203,3.54761 z"
         sodipodi:nodetypes="sssss" />
      <path
         id="path1-73-1-5-7-3-7-0-4-7"
         style="stroke:#ffffff;stroke-width:0.275829;stroke-linejoin:round;stroke-dasharray:none;stroke-dashoffset:0;stroke-opacity:1"
         d="m 327.11345,796.2108 c 3.57718,-0.4647 4.59603,-1.10997 4.59659,-2.90493 5.6e-4,-1.79497 -2.37084,-2.85892 -4.59396,-2.85892 -1.65854,0 -3.37344,1.06528 -3.45669,2.85892 -0.0962,2.07226 1.03815,3.21877 3.45406,2.90493 z"
         sodipodi:nodetypes="sssss" />
      <path
         id="rect1-7-8-5-1-5-4-8-8-8-0-9-2"
         style="stroke:#ffffff;stroke-width:0.374331;stroke-linejoin:round;stroke-dasharray:none;stroke-dashoffset:0;stroke-opacity:1"
         d="m 349.1083,790.50688 c 0.54138,-0.58149 1.44915,-0.61027 2.03535,-0.0645 l 0.69006,0.64245 c 0.58622,0.54576 0.62229,1.45326 0.0809,2.03477 -0.54138,0.58149 -1.15471,0.35049 -1.83145,-0.078 -1.02795,-0.65078 -2.07435,-1.18298 -0.97488,-2.53471 z"
         sodipodi:nodetypes="ssssss"
         inkscape:transform-center-x="-10.085296"
         inkscape:transform-center-y="3.4942272" />
      <path
         id="rect1-7-8-3-2-6-6-1-0-0-7-4-5-5"
         style="stroke:#ffffff;stroke-width:0.317429;stroke-linejoin:round;stroke-dasharray:none;stroke-dashoffset:0;stroke-opacity:1"
         d="m 340.93326,799.68159 c -0.90219,-0.18044 -1.29834,-1.45721 -0.79716,-1.86423 l 5.01972,-4.0767 c 0.50115,-0.407 0.71427,-0.6508 1.49583,-0.16538 0.78161,0.48539 0.95247,1.01329 0.5125,1.48497 l -4.20643,4.50958 c -0.43996,0.47166 -1.12223,0.2922 -2.02441,0.11177 z"
         sodipodi:nodetypes="ssssssss"
         inkscape:transform-center-x="-2.3023528"
         inkscape:transform-center-y="-3.146574" />
      <path
         id="rect1-7-8-5-1-8-7-5-7-9-2-9-8-5-3-1-3"
         style="stroke:#ffffff;stroke-width:0.374331;stroke-linejoin:round;stroke-dasharray:none;stroke-dashoffset:0;stroke-opacity:1"
         d="m 347.0552,794.27696 c -0.76691,-0.20754 -1.55481,-1.18692 -1.00621,-1.77041 0.67768,-0.72087 0.86406,-1.68215 1.89288,-1.50281 0.81616,0.14226 1.53043,1.03895 1.2907,1.71716 -0.26701,0.75512 -1.41051,1.76377 -2.17737,1.55606 z"
         sodipodi:nodetypes="sssss"
         inkscape:transform-center-x="-6.2290481"
         inkscape:transform-center-y="-8.0622022" />
      <path
         id="rect1-7-8-30-8-6-6-5-6-4-9-9-3"
         style="stroke:#ffffff;stroke-width:0.313714;stroke-linejoin:round;stroke-dasharray:none;stroke-dashoffset:0;stroke-opacity:1"
         d="m 340.73361,786.77045 c -0.6513,0.6513 -0.64616,1.78955 -0.0568,2.0121 l 6.4475,2.43459 c 0.58942,0.22256 0.88924,0.31876 1.42972,-0.42708 0.54049,-0.74586 0.4876,-1.25777 -0.067,-1.55543 l -5.85899,-3.14461 c -0.55456,-0.29764 -1.24312,0.0291 -1.89442,0.68042 z"
         sodipodi:nodetypes="ssssssss"
         inkscape:transform-center-x="-3.2395698"
         inkscape:transform-center-y="1.4362265" />
      <path
         id="rect1-7-8-5-5-6-7-7-5-4-9-4-6-1-3-3-2-3"
         style="stroke:#ffffff;stroke-width:0.374331;stroke-linejoin:round;stroke-dasharray:none;stroke-dashoffset:0;stroke-opacity:1"
         d="m 346.28225,792.84118 c -0.23505,-0.005 -0.42069,-0.17807 -0.41375,-0.4867 l 0.0385,-1.75615 c 0.007,-0.31688 0.20175,-0.56878 0.43681,-0.5636 0.235,0.005 0.41858,0.26531 0.41164,0.58222 l -0.0385,1.75616 c -0.005,0.24746 -0.19964,0.47324 -0.43469,0.46809 z"
         sodipodi:nodetypes="sssssss"
         inkscape:transform-center-x="-4.9682137"
         inkscape:transform-center-y="-9.2674452" />
      <path
         id="rect1-7-8-5-1-5-4-364-1-3-9-8-1-8-3-7-2-7"
         style="stroke:#ffffff;stroke-width:0.374331;stroke-linejoin:round;stroke-dasharray:none;stroke-dashoffset:0;stroke-opacity:1"
         d="m 347.88406,792.87202 c -0.71376,-0.34896 -1.00513,-1.20921 -0.65338,-1.92869 l 0.41414,-0.84704 c 0.35179,-0.71952 1.20962,-1.01783 1.9234,-0.6688 0.71375,0.34896 0.67099,1.00295 0.4577,1.77501 -0.32383,1.17274 -0.52899,2.32864 -2.14191,1.66956 z"
         sodipodi:nodetypes="ssssss"
         inkscape:transform-center-x="-7.2785219"
         inkscape:transform-center-y="-9.5325735" />
      <path
         id="path36"
         style="opacity:1;stroke:#ffffff;stroke-width:0.507466;stroke-linejoin:round"
         d="m 331.69007,798.07381 c 0,0.72668 -0.41592,1.35963 -1.03058,1.68927 -0.28755,0.15421 -2.10687,0.20897 -2.45917,0.20897 -0.35487,0 -3.23478,-0.22141 -3.52379,-0.37772 -0.61121,-0.33058 -1.0243,-0.96168 -1.02429,-1.68588 0,-0.67784 0.36188,-1.27411 0.90939,-1.61875 0.31404,-0.19767 3.23577,-0.18027 3.63869,-0.18027 0.33525,0 2.13953,0.11261 2.41712,0.2532 0.63767,0.32295 1.07263,0.96805 1.07263,1.71118 z"
         sodipodi:nodetypes="sssssssss" />
      <rect
         style="opacity:1;fill:#000000;stroke:#ffffff;stroke-width:0.33602;stroke-linejoin:round;stroke-dasharray:none"
         id="rect36"
         width="64.697571"
         height="3.8937535"
         x="323.40033"
         y="799.01715" />
      <path
         id="rect1-9-4-4-31-7-1-4-3-0-5-7-0"
         style="stroke:#ffffff;stroke-width:0.387927;stroke-linejoin:round;stroke-dasharray:none;stroke-dashoffset:0;stroke-opacity:1"
         d="m 369.10646,795.44155 -0.18679,1.60066 c -0.10555,0.90456 0.58757,1.83601 1.56661,1.83781 l 13.99861,0.0257 c 0.97906,0.002 1.62841,0.1686 1.73396,-0.73595 l 0.0842,-0.72155 c 0.10555,-0.90455 -0.59316,-1.7242 -1.56662,-1.8378 l -13.6823,-1.5966 c -0.97345,-0.1136 -1.84212,0.52316 -1.94767,1.42771 z"
         sodipodi:nodetypes="sssssssss" />
      <path
         id="rect1-9-1-95-4-0-1-8-0-2-1-0"
         style="stroke:#ffffff;stroke-width:0.387927;stroke-linejoin:round;stroke-dasharray:none;stroke-dashoffset:0;stroke-opacity:1"
         d="m 367.198,791.016 -0.21126,1.59762 c -0.11939,0.90281 0.56268,1.7694 1.5383,1.86156 l 13.72362,1.29637 c 0.97561,0.0922 1.84993,-0.4949 1.96931,-1.39773 l 0.0803,-0.60696 c 0.11939,-0.90284 -0.66329,-1.01294 -1.62841,-1.18018 l -13.08157,-2.26685 c -0.96513,-0.16724 -2.27086,-0.20667 -2.39025,0.69617 z"
         sodipodi:nodetypes="ssssssssss"
         inkscape:transform-center-x="6.6798631"
         inkscape:transform-center-y="-1.2384754" />
    </g>
  </g>
</svg>
