<?xml version="1.0" encoding="UTF-8" standalone="no"?>
<!-- Created with Inkscape (http://www.inkscape.org/) -->

<svg
   width="48.036343mm"
   height="90.110779mm"
   viewBox="0 0 48.036343 90.110779"
   version="1.1"
   id="svg1"
   xmlns:inkscape="http://www.inkscape.org/namespaces/inkscape"
   xmlns:sodipodi="http://sodipodi.sourceforge.net/DTD/sodipodi-0.dtd"
   xmlns="http://www.w3.org/2000/svg"
   xmlns:svg="http://www.w3.org/2000/svg">
  <sodipodi:namedview
     id="namedview1"
     pagecolor="#ffffff"
     bordercolor="#000000"
     borderopacity="0.25"
     inkscape:showpageshadow="2"
     inkscape:pageopacity="0.0"
     inkscape:pagecheckerboard="0"
     inkscape:deskcolor="#d1d1d1"
     inkscape:document-units="mm" />
  <defs
     id="defs1" />
  <g
     inkscape:label="Layer 1"
     inkscape:groupmode="layer"
     id="layer1"
     transform="translate(1244.565,-1841.0895)">
    <g
       id="g129"
       transform="translate(-1656.7901,1787.1145)"
       inkscape:export-filename="25.svg"
       inkscape:export-xdpi="96"
       inkscape:export-ydpi="96">
      <path
         id="rect10-0-1-9"
         style="fill:#999999;stroke-width:0.579641;stroke-linejoin:round"
         d="m 436.97809,116.10045 -16.24242,8.38088 c -2.85279,-0.54236 -5.70869,-1.08479 -8.51059,-1.62987 l 0.0935,21.23436 46.02406,-12.62817 c -4.77737,-0.87884 -9.71002,-1.78707 -14.60582,-2.68769 l 16.52457,-9.18394 z"
         sodipodi:nodetypes="cccccccc" />
      <g
         id="g128">
        <path
           id="rect1-7-8-5-5-6-7-7-5-4-9-4-6-1-3-3-2-1-5-6-8-4-6-7-2-7"
           style="fill:#000000;stroke:#ffffff;stroke-width:0.374331;stroke-linejoin:round;stroke-dasharray:none;stroke-dashoffset:0;stroke-opacity:1"
           d="m 424.17974,73.686171 c -0.22893,-0.05375 -0.37464,-0.261611 -0.30377,-0.561995 l 0.40193,-1.709992 c 0.073,-0.308404 0.31504,-0.514723 0.54422,-0.460773 0.22882,0.05373 0.35444,0.346447 0.28189,0.655009 l -0.40202,1.710016 c -0.0564,0.241022 -0.29351,0.421428 -0.52236,0.367664 z"
           sodipodi:nodetypes="sssssss"
           inkscape:transform-center-x="-7.1268697"
           inkscape:transform-center-y="-6.3375494" />
        <path
           id="rect1-7-8-3-2-6-6-1-0-0-7-4-5-1-6-8-1-7-5-5-2-3"
           style="fill:#000000;stroke:#ffffff;stroke-width:0.317429;stroke-linejoin:round;stroke-dasharray:none;stroke-dashoffset:0;stroke-opacity:1"
           d="m 416.76846,78.737268 c 0.41424,0.821505 1.26106,1.334639 1.78613,0.959077 l 6.32657,-4.523726 c 0.52514,-0.375517 0.7115,-0.653828 0.29726,-1.475231 -0.41429,-0.821626 -0.86853,-0.952821 -1.43379,-0.642157 l -6.6855,3.67541 c -0.5653,0.310707 -0.70485,1.185165 -0.29071,2.006568 z"
           sodipodi:nodetypes="sssssss"
           inkscape:transform-center-x="-3.6025204"
           inkscape:transform-center-y="-2.2965965" />
        <path
           id="rect1-7-8-5-1-8-7-5-7-9-2-9-8-5-3-1-9-0-39-0-0-4-4-3-1"
           style="fill:#000000;stroke:#ffffff;stroke-width:0.374331;stroke-linejoin:round;stroke-dasharray:none;stroke-dashoffset:0;stroke-opacity:1"
           d="m 424.63791,75.251019 c -0.70718,-0.362199 -1.27472,-1.483718 -0.61723,-1.940598 0.81262,-0.564492 1.19436,-1.466192 2.16359,-1.077311 0.7688,0.308466 1.28148,1.333796 0.90627,1.947533 -0.41767,0.683375 -1.74573,1.432736 -2.45282,1.07043 z"
           sodipodi:nodetypes="sssss"
           inkscape:transform-center-x="-8.1087525"
           inkscape:transform-center-y="-4.9156868" />
        <path
           id="rect1-7-8-5-1-5-4-364-1-3-9-8-1-8-3-7-2-2-2-2-6-0-3-9-6-8"
           style="fill:#000000;stroke:#ffffff;stroke-width:0.374331;stroke-linejoin:round;stroke-dasharray:none;stroke-dashoffset:0;stroke-opacity:1"
           d="m 425.74023,74.048618 c -0.62581,-0.489544 -0.73231,-1.391398 -0.23895,-2.022289 l 0.58082,-0.742652 c 0.49343,-0.63096 1.39449,-0.744737 2.02037,-0.255158 0.62577,0.489392 0.44834,1.12029 0.0795,1.831341 -0.56057,1.079731 -1.00063,2.168217 -2.44177,1.188735 z"
           sodipodi:nodetypes="ssssss"
           inkscape:transform-center-x="-9.4892202"
           inkscape:transform-center-y="-6.0801669" />
        <path
           id="rect1-7-8-5-1-5-4-34-0-1-3-9-6-4-0-6-7-3-8-4-6-8-9-3-8-03"
           style="fill:#000000;stroke:#ffffff;stroke-width:0.419911;stroke-linejoin:round;stroke-dasharray:none;stroke-dashoffset:0;stroke-opacity:1"
           d="m 419.27002,131.43355 c -0.49718,-0.7907 -1.74722,-1.4823 -2.80278,-1.5506 l -1.24257,-0.08 c -1.05555,-0.068 -1.50506,0.5133 -1.00788,1.3041 0.49718,0.7908 1.45197,1.0901 2.58184,1.3041 1.71625,0.325 3.40597,0.7432 2.47139,-0.9772 z"
           sodipodi:nodetypes="ssssss" />
        <path
           id="rect1-7-2-76-1-7-2-6-7-2-5-0-5-1-5-8-0-8-3-0-8"
           style="fill:#000000;stroke:#ffffff;stroke-width:0.374331;stroke-linejoin:round;stroke-dasharray:none;stroke-dashoffset:0;stroke-opacity:1"
           d="m 425.62018,84.117421 c 0.85517,-0.294397 1.13339,-1.781737 0.33614,-2.223537 l -6.24018,-3.45799 c -0.79733,-0.441843 -1.4476,-1.193213 -2.29427,-0.876368 -0.84688,0.317182 -1.57028,1.438092 -0.92959,2.086605 l 4.54076,4.59622 c 0.77403,0.469188 2.98908,0.388961 4.58728,-0.12516 z"
           sodipodi:nodetypes="cssssccc"
           inkscape:transform-center-x="4.2591762"
           inkscape:transform-center-y="-2.2284698" />
        <path
           id="rect1-9-69-4-8-4-7-7-73-7-5-9-2-0-3-9-0-1-0"
           style="fill:#000000;stroke:#ffffff;stroke-width:0.359059;stroke-linejoin:round;stroke-dasharray:none;stroke-dashoffset:0;stroke-opacity:1"
           d="m 426.79816,100.52829 2.62683,-0.0217 c 0.91264,-0.008 2.57044,0.7597 2.47096,1.59284 l -1.51497,12.69062 c -0.0994,0.83326 -0.70066,1.52844 -1.61312,1.54887 l -1.61463,0.0362 c -0.91244,0.0204 -1.6587,-0.63747 -1.6809,-1.475 l -0.33913,-12.80579 c -0.0219,-0.83753 0.75231,-1.55845 1.66495,-1.56597 z"
           sodipodi:nodetypes="ssssssssss"
           inkscape:transform-center-x="-1.2903497"
           inkscape:transform-center-y="-6.4883806" />
        <path
           id="rect1-9-1-95-4-0-1-8-0-2-1-4-6-1-8-6-7-7-9-3"
           style="fill:#000000;stroke:#ffffff;stroke-width:0.387927;stroke-linejoin:round;stroke-dasharray:none;stroke-dashoffset:0;stroke-opacity:1"
           d="m 427.09252,115.80236 1.27465,-0.98605 c 0.72031,-0.55722 1.81236,-0.40347 2.38266,0.39347 l 8.0221,11.20997 c 0.57034,0.79692 0.50257,1.84787 -0.21775,2.4051 l -0.48426,0.37462 c -0.72032,0.55723 -1.17611,-0.0929 -1.83902,-0.81403 l -9.35613,-10.17798 c -0.66292,-0.72113 -0.50257,-1.84788 0.21775,-2.4051 z"
           sodipodi:nodetypes="sssssssss"
           inkscape:transform-center-x="-4.6661177"
           inkscape:transform-center-y="5.6695693" />
        <path
           id="rect1-0-0-2-5-8-0-4-2-7-8-2-4-2-5-8-5-2"
           style="fill:#000000;stroke:#ffffff;stroke-width:0.314577;stroke-linejoin:round;stroke-dasharray:none;stroke-dashoffset:0;stroke-opacity:1"
           d="m 425.54571,80.281324 c 3.00028,-1.0108 4.94787,0.4451 6.95399,1.0834 0.62816,0.1999 2.9867,1.3533 2.94241,2.2628 -0.30075,6.1747 -3.1225,11.73889 -3.50307,17.376236 -0.11272,1.66964 0.3247,3.09132 -0.0275,4.5365 -0.30986,1.27146 -0.36708,1.69282 -0.64123,1.63733 l -1.58936,-0.32168 c -0.63919,-0.12937 -3.95135,1.4849 -4.14454,0.5943 -0.43959,-2.02645 -0.64478,-4.71066 -0.84591,-7.29505 -0.44325,-5.695626 0.2016,-11.629436 -0.31164,-17.552936 -0.0784,-0.9048 0.53621,-2.1084 1.16682,-2.3209 z"
           sodipodi:nodetypes="ssssssssssss" />
        <path
           id="rect1-7-5-6-7-4-6-3-1-3-5-8-5-8-1-6-3-9-9-4"
           style="fill:#000000;stroke:#ffffff;stroke-width:0.374331;stroke-linejoin:round;stroke-dasharray:none;stroke-dashoffset:0;stroke-opacity:1"
           d="m 430.91032,81.537424 -0.33349,-3.52339 c -0.13866,-1.46535 -3.03162,-1.03888 -3.12917,0.70761 l -0.13925,2.49268 c -0.12042,2.15561 3.80432,2.46128 3.60194,0.3231 z"
           sodipodi:nodetypes="sssss"
           inkscape:transform-center-x="0.3207657"
           inkscape:transform-center-y="-1.7596704" />
        <path
           id="rect1-7-8-5-1-5-4-34-31-3-6-5-5-8-2-4-6-4-8-2-3-7-8-2-8"
           style="fill:#000000;stroke:#ffffff;stroke-width:0.453133;stroke-linejoin:round;stroke-dasharray:none;stroke-dashoffset:0;stroke-opacity:1"
           d="m 437.89108,128.61074 c -0.92154,-0.1676 -2.2173,0.41122 -2.90495,1.29799 l -0.80962,1.04374 c -0.68776,0.88673 -0.4995,1.73549 0.42213,1.90316 0.92155,0.16759 1.7309,-0.45107 2.57802,-1.29156 1.28675,-1.27663 2.63114,-2.45767 0.71443,-2.95331 z"
           sodipodi:nodetypes="ssssss"
           inkscape:transform-center-x="1.5231384"
           inkscape:transform-center-y="1.6559412" />
        <path
           id="path1-73-1-5-7-3-7-0-4-1-5-6-4-2-1-5-1-7"
           style="fill:#000000;stroke:#ffffff;stroke-width:0.287201;stroke-linejoin:round;stroke-dasharray:none;stroke-dashoffset:0;stroke-opacity:1"
           d="m 425.075,74.997224 c -0.0186,2.2199 0.0908,4.74387 1.98469,5.20348 1.89371,0.45952 3.57397,-1.57021 4.09653,-3.72781 0.52265,-2.15761 -0.25569,-4.12513 -2.20402,-4.08549 -2.42547,0.0496 -3.85671,0.16763 -3.8772,2.60982 z"
           sodipodi:nodetypes="sssss"
           inkscape:transform-center-x="1.2385018"
           inkscape:transform-center-y="-5.493548" />
        <path
           id="rect1-9-4-41-7-6-1-1-5-8-1-3-6-8-2-5-1-2-2-6"
           style="fill:#000000;stroke:#ffffff;stroke-width:0.359059;stroke-linejoin:round;stroke-dasharray:none;stroke-dashoffset:0;stroke-opacity:1"
           d="m 431.9309,105.4722 c -0.63658,3.24087 -4.36563,11.64535 -4.36563,11.64535 -0.29409,0.78449 -1.33314,1.0245 -2.14961,0.61661 l -1.44478,-0.72173 c -0.81638,-0.40807 -1.04991,-1.28838 -0.7979,-2.08915 l 3.93562,-12.50502 c 0.59187,-1.8806 5.45887,-0.18693 4.8223,3.05394 z"
           sodipodi:nodetypes="zsssssz"
           inkscape:transform-center-x="2.8649701"
           inkscape:transform-center-y="5.8206316" />
        <path
           id="rect1-9-4-4-31-7-1-4-3-0-5-7-9-6-35-6-7-9-4-9-7"
           style="fill:#000000;stroke:#ffffff;stroke-width:0.387927;stroke-linejoin:round;stroke-dasharray:none;stroke-dashoffset:0;stroke-opacity:1"
           d="m 424.65482,116.62871 1.50791,0.56851 c 0.85217,0.32124 1.34005,1.35364 0.91407,2.23523 l -5.63639,11.66488 c -0.42593,0.8815 -0.59748,1.5244 -1.44951,1.20289 l -0.67965,-0.25645 c -0.85205,-0.32151 -1.22814,-1.30691 -0.91405,-2.23523 l 4.09548,-12.10466 c 0.31409,-0.92833 1.3101,-1.39667 2.16221,-1.07534 z"
           sodipodi:nodetypes="ssssssssss"
           inkscape:transform-center-x="2.5221338"
           inkscape:transform-center-y="6.1873254" />
        <path
           id="rect1-7-3-7-0-3-9-3-9-7-1-2-3-6-9-6-9-7-8-33"
           style="fill:#000000;stroke:#ffffff;stroke-width:0.374331;stroke-linejoin:round;stroke-dasharray:none;stroke-dashoffset:0;stroke-opacity:1"
           d="m 436.04238,84.87928 c -0.0926,0.899528 -1.36937,2.171672 -2.19815,1.791932 l -8.27975,-3.793646 c -0.82878,-0.379696 -1.52059,-1.098784 -1.42786,-1.998315 0.0928,-0.899559 0.92374,-1.729038 1.78392,-1.426885 l 8.55113,3.00358 c 0.86015,0.302128 1.66324,1.52401 1.57068,2.42333 z"
           sodipodi:nodetypes="ssssssss"
           inkscape:transform-center-x="3.9910938"
           inkscape:transform-center-y="-1.5254224" />
        <path
           id="rect1-7-8-5-1-5-4-8-8-8-0-9-0-1-9-3-7-7-2-2-7"
           style="fill:#000000;stroke:#ffffff;stroke-width:0.374331;stroke-linejoin:round;stroke-dasharray:none;stroke-dashoffset:0;stroke-opacity:1"
           d="m 430.17634,74.859449 c 0.56634,0.55718 1.47451,0.546315 2.03627,-0.02462 l 0.66133,-0.671911 c 0.56179,-0.570929 0.55811,-1.479207 -0.008,-2.036486 -0.56623,-0.557213 -1.16888,-0.299579 -1.82627,0.158274 -0.99842,0.695203 -2.02055,1.272678 -0.86309,2.574961 z"
           sodipodi:nodetypes="ssssss"
           inkscape:transform-center-x="-6.6867475"
           inkscape:transform-center-y="-7.2327158" />
        <path
           id="rect1-7-8-5-5-6-7-3-8-5-1-5-2-2-5-5-7-9-5-7-5"
           style="fill:#000000;stroke:#ffffff;stroke-width:0.374331;stroke-linejoin:round;stroke-dasharray:none;stroke-dashoffset:0;stroke-opacity:1"
           d="m 430.01809,76.4234 c 0.0882,0.21787 0.31588,0.330033 0.60185,0.214085 l 1.6283,-0.658988 c 0.29398,-0.118592 0.46015,-0.390463 0.37194,-0.608336 -0.0882,-0.217911 -0.39649,-0.297284 -0.69035,-0.178325 l -1.6282,0.659034 c -0.2295,0.0928 -0.37208,0.354067 -0.28353,0.572491 z"
           sodipodi:nodetypes="sssssss"
           inkscape:transform-center-x="-6.5266142"
           inkscape:transform-center-y="-4.8623713" />
        <path
           id="rect1-7-8-30-8-6-6-5-6-4-9-9-6-1-4-5-6-4-7-5-4"
           style="fill:#000000;stroke:#ffffff;stroke-width:0.313714;stroke-linejoin:round;stroke-dasharray:none;stroke-dashoffset:0;stroke-opacity:1"
           d="m 423.69748,79.791613 5.89459,-5.761028 c 0.45059,-0.440391 0.77107,-0.545711 1.4919,0.02726 0.72099,0.57318 0.7516,1.028878 0.35337,1.516238 l -5.13695,6.286792 c -2.33855,1.380579 -3.27926,-0.296018 -2.60292,-2.069221 z"
           sodipodi:nodetypes="cssscc"
           inkscape:transform-center-x="-2.7970019"
           inkscape:transform-center-y="-2.7559157" />
        <path
           id="rect1-7-8-5-1-8-52-7-5-6-4-2-1-9-8-7-6-7-1-79"
           style="fill:#000000;stroke:#ffffff;stroke-width:0.374331;stroke-linejoin:round;stroke-dasharray:none;stroke-dashoffset:0;stroke-opacity:1"
           d="m 428.54366,75.388555 c 0.17026,0.776012 1.11002,1.610627 1.71947,1.091009 0.75288,-0.641987 1.72208,-0.781477 1.59286,-1.817827 -0.10244,-0.822064 -0.96348,-1.578986 -1.65252,-1.372439 -0.76722,0.229991 -1.83017,1.323259 -1.65983,2.099296 z"
           sodipodi:nodetypes="sssss"
           inkscape:transform-center-x="-5.4054958"
           inkscape:transform-center-y="-5.8247059" />
        <g
           id="g6-6-69"
           transform="matrix(1.229814,0,0,1.229814,320.67885,-135.53711)"
           style="stroke-width:0.396808;stroke-dasharray:none">
          <rect
             style="opacity:1;fill:#000000;stroke:#ffffff;stroke-width:0.396808;stroke-linejoin:round;stroke-dasharray:none"
             id="rect5-85-56"
             width="10.664055"
             height="10.785408"
             x="81.009392"
             y="159.09109" />
          <path
             id="rect5-9-9-0"
             style="fill:#000000;stroke:#ffffff;stroke-width:0.499106;stroke-linejoin:round;stroke-dasharray:none"
             transform="matrix(0.63208417,-0.77489973,0,1,0,0)"
             d="m 145.0336,271.4776 5.6318,-0.31314 1e-5,10.65467 -5.63181,0.44388 z"
             sodipodi:nodetypes="ccccc" />
          <rect
             style="fill:#000000;stroke:#ffffff;stroke-width:0.443444;stroke-linejoin:round;stroke-dasharray:none"
             id="rect5-9-1-6-09"
             width="5.8412356"
             height="10.785408"
             x="-198.68402"
             y="-210.75246"
             transform="matrix(0.59903324,-0.80072416,-1,0,0,0)" />
        </g>
        <path
           id="path11-4-78-1-2-4-90"
           style="fill:#ffffff;stroke:none;stroke-width:0.0886796;stroke-linejoin:round;stroke-dasharray:none"
           d="m 428.8172,68.521402 v 1.89127 l -1.12986,0.0122 1.75551,2.23628 c 0.0427,0 1.61833,-2.27302 1.61833,-2.27302 l -1.11971,0.0122 v -1.87902 z" />
        <path
           id="path11-4-78-1-2-4-90-0"
           style="fill:#ffffff;stroke:none;stroke-width:0.0886796;stroke-linejoin:round;stroke-dasharray:none"
           d="m 423.4186,68.521402 v 1.89127 l -1.12986,0.0122 1.75551,2.23628 c 0.0427,0 1.61833,-2.27302 1.61833,-2.27302 l -1.11971,0.0122 v -1.87902 z" />
        <path
           id="rect24-0-8"
           style="fill:#f9f9f9;stroke:#ffffff;stroke-width:0.126917;stroke-linejoin:round;stroke-dasharray:none"
           d="m 426.59283,61.464276 -0.54029,1.933769 -1.84371,-0.938762 0.8801,1.902379 -1.81238,0.682927 1.81238,0.682919 -1.02678,1.775303 1.78996,-1.01211 0.72605,1.958162 0.72604,-1.958162 1.85395,1.056114 -0.99744,-1.91264 1.96841,-0.604267 -1.96841,-0.604265 0.76275,-1.89302 -1.79034,0.865422 z"
           sodipodi:nodetypes="ccccccccccccccccc" />
      </g>
    </g>
  </g>
</svg>
