<?xml version="1.0" encoding="UTF-8" standalone="no"?>
<!-- Created with Inkscape (http://www.inkscape.org/) -->

<svg
   width="28.099964mm"
   height="39.239323mm"
   viewBox="0 0 28.099964 39.239323"
   version="1.1"
   id="svg1"
   xmlns:inkscape="http://www.inkscape.org/namespaces/inkscape"
   xmlns:sodipodi="http://sodipodi.sourceforge.net/DTD/sodipodi-0.dtd"
   xmlns="http://www.w3.org/2000/svg"
   xmlns:svg="http://www.w3.org/2000/svg">
  <sodipodi:namedview
     id="namedview1"
     pagecolor="#ffffff"
     bordercolor="#000000"
     borderopacity="0.25"
     inkscape:showpageshadow="2"
     inkscape:pageopacity="0.0"
     inkscape:pagecheckerboard="0"
     inkscape:deskcolor="#d1d1d1"
     inkscape:document-units="mm" />
  <defs
     id="defs1" />
  <g
     inkscape:label="Layer 1"
     inkscape:groupmode="layer"
     id="layer1"
     transform="translate(1234.5968,-106.31078)">
    <path
       id="rect1-9-1-75-3-2-8-9-3-6"
       style="fill:#4d4d4d;stroke:none;stroke-width:0.387927;stroke-linejoin:round;stroke-dasharray:none;stroke-dashoffset:0;stroke-opacity:1"
       inkscape:transform-center-x="-7.3187379"
       inkscape:transform-center-y="0.050489573"
       d="m -1217.4154,106.31125 c -1.5116,-0.025 -2.5166,0.9355 -2.76,2.7714 -0.2331,1.7575 0.3061,3.7598 1.5962,4.5708 l -0.1803,0.6081 c -0.1145,0.38601 -0.2504,0.49112 -0.494,0.5909 -0.8943,-0.1347 -2.2329,0.58231 -2.494,1.4557 l -2.315,7.74516 c -0.067,0.2272 -0.7874,2.68988 -0.7379,2.90068 l -3.1508,6.65336 c -0.095,0.038 -0.183,0.1 -0.2589,0.1897 -0.4395,0.5205 -1.0191,0.8227 -1.2408,1.2872 -0.1978,0.1243 -0.3993,0.2652 -0.6056,0.4042 -0.6644,0.4474 -1.1225,0.9159 -0.8077,1.6453 0.077,0.178 0.1861,0.3314 0.3168,0.4584 l -2.8118,1.2712 c -1.5036,0.8433 -1.4249,2.5747 -0.8754,3.728 0.1969,0.4402 0.7651,0.6888 1.3757,0.7927 0.1547,0.059 0.3217,0.096 0.4986,0.1028 l 3.744,0.1525 c 0,0.2229 0.048,0.4242 0.1607,0.5808 0.7675,1.1528 2.3227,1.7145 3.8933,1.0377 l 0.043,-0.022 13.0163,-1.4387 c 0.7817,-0.086 1.3629,-0.044 1.5637,-0.4961 1.6531,0.5895 3.1821,1.1831 3.0122,-0.8687 -0.1548,-0.9855 -1.1827,-1.9559 -2.3047,-2.1761 l -1.3209,-0.2589 c -0.7249,-0.1422 -1.3058,0.065 -1.5849,0.4951 l -2.9052,-0.012 2.1967,-1.1028 c 0.3682,-0.1848 0.4308,-0.7245 0.3349,-1.312 0.4033,-1.3423 -0.2104,-2.213 -0.2977,-2.5575 -0.7218,-2.8486 -0.3153,-5.8199 0.3199,-8.8408 l 0.4503,1.22585 c 0.1018,0.27698 0.1738,0.52911 0.2577,0.79215 l 2.1053,6.7101 c 0.2612,0.63824 -0.029,0.81667 -0.1912,1.1023 -0.1451,0.045 -0.2604,0.1745 -0.2972,0.386 l -0.3012,1.7307 c -0.054,0.3123 0.088,0.5974 0.3198,0.6377 0.2316,0.04 0.462,-0.1797 0.5163,-0.492 l 0.1431,-0.8242 c 0.069,0.08 0.1348,0.1593 0.199,0.2382 -10e-4,0.054 -10e-5,0.1078 0.01,0.1628 l 0.084,0.9394 c 0.072,0.7977 0.7667,1.3827 1.558,1.3116 0.7913,-0.071 0.985,-0.6977 1.0615,-1.495 0.06,-0.6222 0.1462,-1.2284 -0.019,-1.6661 0,-0.1153 -0.027,-0.2274 -0.074,-0.3317 -0.1575,-0.3464 -0.5111,-0.61411 -0.6833,-1.05226 -0.016,-0.82967 -0.046,-0.89499 -0.05,-1.29904 l -1.3116,-6.5645 c -0.4502,-3.53755 -1.1998,-7.08188 -1.8307,-10.6029 -0.141,-0.7873 -1.1237,-1.5451 -1.973,-1.695 -0.5014,-0.2001 -0.9814,-0.3467 -1.2351,-0.4207 -0.6724,-0.1663 -1.0803,-0.59705 -1.1591,-1.357 l -0.2893,-1.2354 c 0.5691,-0.7123 0.9578,-1.6745 1.0877,-2.6541 0.2783,-2.0982 -0.7344,-3.4791 -2.6215,-3.8313 -0.2359,-0.044 -0.4626,-0.068 -0.6785,-0.071 z m -3.6205,19.8162 c -0.1334,2.6014 -0.451,5.1633 -0.9885,7.6109 l -4.3357,1.9601 c 0.013,-0.02 0.024,-0.032 0.037,-0.052 l 4.3814,-7.22785 c 0.3723,-0.82769 0.5355,-1.49554 0.9056,-2.29115 z"
       sodipodi:nodetypes="cscscscccccsscccccccccccccsccscscscccsccscccssscsccccccccsscccccccc"
       inkscape:export-filename="8.svg"
       inkscape:export-xdpi="96"
       inkscape:export-ydpi="96" />
  </g>
</svg>
